/* XPM */
static char *magick[] = {
/* columns rows colors chars-per-pixel */
"18 18 5 1",
"  c #01c601c601c6",
". c Gray40",
"X c #a527a527a527",
"o c #da22da22da22",
"O c None",
/* pixels */
"OOOOOOOOOOOOOOOOOO",
"OOOOO       OOOOOO",
"OOO  XXooXX.  OOOO",
"OO XooooooooX. OOO",
"OO oooooooooo. OOO",
"O Xooo ooo XoX. OO",
"O Xoo   o   XXX OO",
"O oooo     XoXX OO",
"O Xoooo   ooXXX OO",
"O Xooo     OXX. OO",
"O Xoo   o   XX. OO",
"O .Xoo ooX XX.. OO",
"OO XXOoXoXXX.. OOO",
"OO XXXXXXXXX.. OOO",
"OOO  XXXX...  OOOO",
"OOOOO       OOOOOO",
"OOOOOOOOOOOOOOOOOO",
"OOOOOOOOOOOOOOOOOO",
};
