/* XPM */
static char *backward_sel[] = {
/* columns rows colors chars-per-pixel */
"28 28 109 2",
"   c #00165E",
".  c #001863",
"X  c #001A6C",
"o  c #001C74",
"O  c #001D7B",
"+  c #132765",
"@  c #162A65",
"#  c #1B2F6D",
"$  c #1E3169",
"%  c #0C2570",
"&  c #04227C",
"*  c #0B287E",
"=  c #112B7A",
"-  c #1B3174",
";  c #1D347B",
":  c #25366B",
">  c #303F6F",
",  c #213571",
"<  c #263976",
"1  c #2C3D73",
"2  c #384773",
"3  c #3B4974",
"4  c #44517A",
"5  c #4D587B",
"6  c #535E7F",
"7  c #001E81",
"8  c #042383",
"9  c #092780",
"0  c #0D2A83",
"q  c #042488",
"w  c #0C2C8B",
"e  c #112E84",
"r  c #112F8A",
"t  c #153186",
"y  c #1F3886",
"u  c #15328C",
"i  c #1A368C",
"p  c #0D2E90",
"a  c #113296",
"s  c #243C86",
"d  c #213B8B",
"f  c #213D90",
"g  c #2C4286",
"h  c #2F4588",
"j  c #3E4F83",
"k  c #354A8A",
"l  c #3B4F8B",
"z  c #2B4592",
"x  c #2F4893",
"c  c #324A93",
"v  c #394F94",
"b  c #3D5294",
"n  c #465583",
"m  c #45578D",
"M  c #46588C",
"N  c #525E83",
"B  c #415696",
"V  c #465A96",
"C  c #4C5E94",
"Z  c #51618F",
"A  c #58658A",
"S  c #4E6094",
"D  c #536393",
"F  c #5D6B93",
"G  c #546598",
"H  c #5B6B98",
"J  c #616B87",
"K  c #6E758C",
"L  c #777D8F",
"P  c #606D96",
"I  c #616F98",
"U  c #647195",
"Y  c #6A7595",
"T  c #6E7894",
"R  c #6F7998",
"E  c #757D95",
"W  c #787E90",
"Q  c #757E99",
"!  c #7E8497",
"~  c #7C8399",
"^  c #818696",
"/  c #858997",
"(  c #898C97",
")  c #808698",
"_  c #858A98",
"`  c #8A8D99",
"'  c #8C919E",
"]  c #939499",
"[  c #96989E",
"{  c gray60",
"}  c #9396A1",
"|  c #9599A4",
" . c #9A9CA3",
".. c #9FA0A1",
"X. c #A2A2A3",
"o. c #A3A5AB",
"O. c #A7A8AB",
"+. c #ACACAE",
"@. c #B4B5B5",
"#. c #B6B7B8",
"$. c #BCBCBD",
"%. c #C2C3C3",
"&. c gray80",
"*. c LightGray",
"=. c gainsboro",
"-. c gray90",
";. c gray91",
":. c black",
">. c None",
/* pixels */
">.>.>.>.>.>.>.>.;.=.%.#.@.@.@.@.$.*.-.>.>.>.>.>.>.>.>.>.",
">.>.>.>.>.>.;.*.+...] ] { { { { { ] X.%.-.>.>.>.>.>.>.>.",
">.>.>.>.>.=.+.] ] ] ] ] ] ] ] ] ] ] ] ]  .&.;.>.>.>.>.>.",
">.>.>.>.*. .] ( ` ( ( ( / ( ( / ( ( ( ( ` ] #.;.>.>.>.>.",
">.>.>.*.[ / ~ ~ ~ ~ ! ! ! ^ ~ ^ ! ) ^ ^ ^ ^ ` @.;.>.>.>.",
">.>.=. .W E E E E E ~ ) / / / / ! W Q Q E E ~ / $.>.>.>.",
">.;.O.W U Y Y Y T ^ ( ^ ~ Q W ~ / / Q Y Y K K T ' *.>.>.",
">.&.U D F F F U ) Q P F F F F F H R ^ ~ P F F P P  .;.>.",
";.| d u m Z H ) U D Z D C Z D F H Z G ~ E D Z l e D *.>.",
"*.F 8 q 0 z Q P m m m m m C R ~ S M M C ~ D d 8 7 g O.>.",
"#.k 7 7 7 x G i s h k b I _ ] D k k h d c H q O O 0 ~ -.",
"| s 7 7 q G z 7 7 w b ~ { { F r * & & O q H f O O & A *.",
"~ e O O w I p q z Y ] { { ! a O O O O O 7 V v O O O M %.",
"Q 9 O O r I a G ] { { { ] V 8 o O O o o O b B O o o n @.",
"Q * O O r I p f I ' { ] { G 8 o o o O o O B B O o o j @.",
"~ = o o 8 H i O q g R ] { ] x O o o o o O G z o X o n $.",
" .; o o O V B O o o 8 c Q { Q r o o X o r I e o X o A &.",
"@.h X o o i U r o o X o 0 B ~ D O X X O V V o X X % W -.",
"&.A X X X O b G 0 X X X X o r B i X O x I e X X X < o.>.",
";.' - X X X & V H u O X X X X o q 8 v I i X . X X N &.>.",
">.%.6 X X . X O c I V y 0 * 9 t c H D e X X . . , } -.>.",
">.-. .1 . X X . X e b G H H H H C d & . . . . X J &.>.>.",
">.>.=.E # . . . . . X o * e = & X . . . . . . 5 @.>.>.>.",
">.>.>.&.K # . . . . . .   . . . . . . .   . 4 O.;.>.>.>.",
">.>.>.>.&.W 1 .   .   . .       .       + N O.-.>.>.>.>.",
">.>.>.>.>.=. .N :                   + 2 W %.;.>.>.>.>.>.",
">.>.>.>.>.>.;.&.[ J 3 : @ + + $ > 5 L @.=.>.>.>.>.>.>.>.",
">.>.>.>.>.>.>.>.;.*.#.[ ` ^ / ] O.&.=.>.>.>.>.>.>.>.>.>."
};
