/* XPM */
static char *backward[] = {
/* columns rows colors chars-per-pixel */
"28 28 156 2",
"   c #00259D",
".  c #0027A2",
"X  c #0028A3",
"o  c #092EA3",
"O  c #0027A8",
"+  c #002AAB",
"@  c #193CA6",
"#  c #1137AD",
"$  c #002CB4",
"%  c #002DBC",
"&  c #0431BA",
"*  c #153EBB",
"=  c #1F41A6",
"-  c #2243A8",
";  c #2748AA",
":  c #3251AE",
">  c #2C4EB5",
",  c #3453B2",
"<  c #3D5BB3",
"1  c #4A67BD",
"2  c #516BBA",
"3  c #002EC3",
"4  c #002ECA",
"5  c #0031C4",
"6  c #0032CB",
"7  c #0B3BCB",
"8  c #0033D3",
"9  c #0638D0",
"0  c #0B3DD4",
"q  c #0034DA",
"w  c #063ADC",
"e  c #093DDA",
"r  c #043BE2",
"t  c #083DE3",
"y  c #1C48CC",
"u  c #0C40DD",
"i  c #1242D3",
"p  c #1847D6",
"a  c #1C4AD6",
"s  c #1346DD",
"d  c #1748DD",
"f  c #1C4CDB",
"g  c #2D52C1",
"h  c #3157CD",
"j  c #345EDD",
"k  c #0B40E5",
"l  c #1C4EE4",
"z  c #1248E9",
"x  c #1B4FED",
"c  c #1D50EA",
"v  c #174DF1",
"b  c #1C53FB",
"n  c #2453E4",
"m  c #2A59E6",
"M  c #2657EB",
"N  c #2B5BEC",
"B  c #335FE2",
"V  c #3661E6",
"C  c #3562E9",
"Z  c #3564F1",
"A  c #3967F0",
"S  c #4867C4",
"D  c #5A78D4",
"F  c #647BC2",
"G  c #476DE1",
"H  c #4D72E1",
"J  c #577AE2",
"K  c #5A7DE7",
"L  c #5479E9",
"P  c #4571F5",
"I  c #4C76F2",
"U  c #4F78F5",
"Y  c #557DF4",
"T  c #517AF8",
"R  c #768CCC",
"E  c #6B87DB",
"W  c #7F93D0",
"Q  c #7A92DC",
"!  c #5F85F5",
"~  c #5E85F8",
"^  c #6081E6",
"/  c #6384E8",
"(  c #7D96E2",
")  c #7391EC",
"_  c #6186F6",
"`  c #698CF4",
"'  c #6489F9",
"]  c #6A8EF9",
"[  c #6E91FA",
"{  c #7596FA",
"}  c #7C9BFA",
"|  c #8799CE",
" . c #91A2D4",
".. c #90A2DA",
"X. c #A9B6DF",
"o. c #819EF6",
"O. c #87A1EF",
"+. c #88A2EE",
"@. c #9AACE1",
"#. c #99AEED",
"$. c #9EB0E9",
"%. c #86A1F3",
"&. c #8CA6F3",
"*. c #87A5FD",
"=. c #89A6FC",
"-. c #8FAAFD",
";. c #92ABF7",
":. c #93AEFD",
">. c #9CB2F4",
",. c #96B0FD",
"<. c #9AB3FD",
"1. c #A3B6EF",
"2. c #ADBFF7",
"3. c #A0B6F8",
"4. c #A3BAFE",
"5. c #BBC5E4",
"6. c #BDC8EB",
"7. c #AFC0F6",
"8. c #AEC1FB",
"9. c #B2C3F6",
"0. c #B8C8F7",
"q. c #B4C6FC",
"w. c #BCCCFD",
"e. c #C6CEE5",
"r. c #C3CCE9",
"t. c #C7D1EF",
"y. c #C9D1EB",
"u. c #D1D6E7",
"i. c #D6DBEA",
"p. c #D8DEED",
"a. c #C1CFF9",
"s. c #C5D2FB",
"d. c #CAD7FD",
"f. c #CEDAFE",
"g. c #D4DEFC",
"h. c #DDE1ED",
"j. c #DEE2F1",
"k. c #D6E0FE",
"l. c #DBE3FD",
"z. c #E2E5EE",
"x. c #E6E8EF",
"c. c #EBECEC",
"v. c #E1E5F2",
"b. c #E6E9F0",
"n. c #EDEEF1",
"m. c #E0E7FD",
"M. c #E3EAFD",
"N. c #E9EDFC",
"B. c #EFF0F2",
"V. c #EEF1F8",
"C. c #F2F2F3",
"Z. c #F2F5FE",
"A. c #F6F8FF",
"S. c #FDFDFE",
"D. c black",
"F. c None",
/* pixels */
"F.F.F.F.F.F.F.F.c.c.c.C.C.C.C.C.B.c.c.F.F.F.F.F.F.F.F.F.",
"F.F.F.F.F.F.c.c.C.A.A.S.S.S.S.S.S.S.C.B.c.F.F.F.F.F.F.F.",
"F.F.F.F.F.c.C.Z.Z.Z.Z.Z.Z.Z.Z.Z.Z.Z.Z.A.C.n.c.F.F.F.F.F.",
"F.F.F.F.c.C.N.m.M.M.M.M.M.M.M.M.M.M.M.M.V.Z.B.c.F.F.F.F.",
"F.F.F.c.Z.l.g.g.g.g.g.g.g.g.g.g.k.g.k.k.k.k.N.B.c.F.F.F.",
"F.F.c.n.d.a.a.a.a.a.d.g.l.m.m.l.f.d.a.t.t.t.s.m.n.F.F.F.",
"F.c.B.s.2.7.7.2.q.g.m.k.d.s.d.g.l.m.d.9.9.9.9.0.M.c.F.F.",
"F.c.7.&.>.#.>.8.l.d.4.>.>.>.>.>.3.q.k.d.3.>.1.>.$.v.c.F.",
"c.j.B m ) o.<.k.4.%.O.O.O.o.&.>.,.O.;.d.w.&.+./ l $.c.F.",
"c.1.t q s I s.<.) ) ) ) ) o.w.f.%.) ) o.d.-.B 0 8 G b.F.",
"n.^ q q q T :.N G H L ` 4.m.Z.-.K J H V Y <.k 8 8 p t.c.",
"v.j 8 8 r :.P 8 q z ' f.S.S.<.l i 0 9 6 t <.Z 8 6 9 $.c.",
"y.a 8 8 z 4.x r P q.A.S.S.g.M 8 6 6 6 6 8 { ~ 8 6 4 ( B.",
"6.i 6 6 c 4.b *.Z.S.S.S.S.[ 8 6 6 6 5 6 8 ' [ 4 5 3 E C.",
"6.i 6 5 l 4.v A 4.V.S.S.S.:.w 3 5 5 5 5 4 ] ] 4 3 3 E C.",
"y.y 3 5 u <.N 4 w P q.A.S.V.T 4 3 & 3 % 8 *.I 3 % % Q B.",
"j.h 3 3 6 { ] 4 % 3 t Y s.S.d.l 3 % % % l 4.l % % % @.c.",
"n.D % % % M 4.n % % % 3 z ] g.=.6 % $ 6 { { 6 $ $ * r.c.",
"c.@.& $ $ 6 ' :.s % $ $ $ 3 l ] N % 5 U <.f $ $ + S x.F.",
"c.p.g $ $ $ 9 { ,.M 3 $ + + $ 3 w e _ 4.N $ + + $ ..c.F.",
"F.c...$ $ $ + 6 Y 4.{ C d 0 i n Y :.=.l $ + + + < h.c.F.",
"F.c.z.S + + + + % f ! -.<.<.,.<.} V 7 + + X X # 1.c.F.F.",
"F.F.c.y.> + + + X + $ 5 i a p 7 % O X X X + o W c.F.F.F.",
"F.F.F.c.5.> X X X X X X X X X X X . . X . o R b.c.F.F.F.",
"F.F.F.F.c.y.1 o   . . .                 -  .b.c.F.F.F.F.",
"F.F.F.F.F.c.x. ., o                 @ F e.n.c.F.F.F.F.F.",
"F.F.F.F.F.F.c.c.z.X.F < ; = - : 2 | e.c.c.F.F.F.F.F.F.F.",
"F.F.F.F.F.F.F.F.c.c.c.x.i.u.u.p.n.c.c.F.F.F.F.F.F.F.F.F."
};
