/* XPM */
static char *backward_sel[] = {
/* columns rows colors chars-per-pixel */
"28 28 116 2",
"   c #00165E",
".  c #001761",
"X  c #001863",
"o  c #001A6C",
"O  c #001C74",
"+  c #001D7B",
"@  c #132765",
"#  c #162A65",
"$  c #1B2F6D",
"%  c #1E3169",
"&  c #0C2570",
"*  c #04227C",
"=  c #0B277B",
"-  c #0B287E",
";  c #112B7A",
":  c #1B3174",
">  c #1D347B",
",  c #25366B",
"<  c #263976",
"1  c #2C3E73",
"2  c #324170",
"3  c #3C4A76",
"4  c #414E78",
"5  c #4A577E",
"6  c #001E81",
"7  c #042383",
"8  c #092780",
"9  c #0D2A83",
"0  c #042488",
"q  c #0C2C8B",
"w  c #112E84",
"e  c #112F8A",
"r  c #153186",
"t  c #1F3886",
"y  c #15328C",
"u  c #1A368C",
"i  c #0D2E90",
"p  c #113296",
"a  c #243C86",
"s  c #213B8B",
"d  c #213D90",
"f  c #2C4286",
"g  c #2F4588",
"h  c #384A81",
"j  c #34498A",
"k  c #3C508D",
"l  c #2B4592",
"z  c #2F4893",
"x  c #324A93",
"c  c #394F94",
"v  c #3D5294",
"b  c #415285",
"n  c #45578D",
"m  c #46588C",
"M  c #505D81",
"N  c #505F8D",
"B  c #415696",
"V  c #465A96",
"C  c #4C5E94",
"Z  c #596384",
"A  c #5E6887",
"S  c #51618F",
"D  c #5A668A",
"F  c #4E6094",
"G  c #536393",
"H  c #5D6B93",
"J  c #546598",
"K  c #5B6B98",
"L  c #606D96",
"P  c #616F98",
"I  c #637096",
"U  c #6A7494",
"Y  c #6E7894",
"T  c #647199",
"R  c #6A7698",
"E  c #6F7998",
"W  c #757D95",
"Q  c #747D99",
"!  c #7E8497",
"~  c #7B8298",
"^  c #808696",
"/  c #838897",
"(  c #898C97",
")  c #808698",
"_  c #888C99",
"`  c #8E919B",
"'  c #929398",
"]  c #97989A",
"[  c gray60",
"{  c #8F94A3",
"}  c #9196A4",
"|  c #9A9CA3",
" . c #939AAD",
".. c #949BB0",
"X. c #9EA2AD",
"o. c #9BA1B1",
"O. c #A1A1A3",
"+. c #A2A5AE",
"@. c #A7A9AD",
"#. c #A9A9AA",
"$. c #A7AAB3",
"%. c #ABADB4",
"&. c #AEB1B9",
"*. c #B2B3B5",
"=. c #B2B4BA",
"-. c #BCBDC0",
";. c #BFC0C4",
":. c #C2C3C4",
">. c #C7C8C9",
",. c #CACACA",
"<. c gray83",
"1. c gainsboro",
"2. c #E4E4E4",
"3. c #E9E9E9",
"4. c black",
"5. c None",
/* pixels */
"5.5.5.5.5.5.5.5.3.3.<.,.,.,.>.>.<.1.3.5.5.5.5.5.5.5.5.5.",
"5.5.5.5.5.5.3.1.:.#.[ ] [ ] [ [ [ O.*.<.3.5.5.5.5.5.5.5.",
"5.5.5.5.5.3.:.O.' ' ' ' ' ' ' ' ' ' ' [ *.1.3.5.5.5.5.5.",
"5.5.5.5.1.*.` _ / ( ( ( ( ( ( / _ _ _ _ ( | ,.3.5.5.5.5.",
"5.5.5.1.@./ ~ ! ! ! ^ ! ! ! ^ ! ^ ^ ^ ^ ^ ^ ' >.3.5.5.5.",
"5.5.2.$.~ W W W W W ~ ) / ( _ / ! W W W W W ~ ` <.5.5.5.",
"5.3.=.~ U U U U R ! / / ~ Q W ! / ( W R U Y U Y | 1.5.5.",
"5.1.~ G H H D T _ Q I H H H H H L R / ~ P D L H D =.3.5.",
"3.&.s y n S K ) P G S S S S G H K S J ~ W G S k w T 1.5.",
"2.E 7 7 9 l Q L n m n n n C E ~ F m m F ~ G t 7 + f ;.5.",
">.c 6 6 6 z J u a g j v P _ ' G j j g t x K 0 * 6 9  .3.",
"&.t 6 6 0 J l 6 6 q v ~ ] [ K e 8 * * * 0 K d + + * R 1.",
"o.w + + q P i 0 l R ' [ [ ! u + + + + + 6 V c + + + N <.",
" .- + + e P p J ' [ [ [ [ B 6 + O + + O + v B + O O b ,.",
"..= + + e P i d P ` [ [ [ J 7 O O + O O + B B + O O b ,.",
"o.; O O 0 K u + 7 f R ' [ ' z + O O O O + J l O O o N ,.",
"%.> O O + V B O O O 7 x Q [ ~ e O O O O w P e o o O U 1.",
",.h O O O y T y O o O O 9 B ~ F + o o + V V + o o & { 3.",
"1.U o o o + c J 9 O o o o O w B u O O z L w o o o < -.5.",
"3.$.: o o o * V K u O O o o o O 7 7 c P u o o X o D 1.5.",
"5.<.D o o o o * x P V t 9 * - r x K J r o o X X % %.3.5.",
"5.3.*.< X X X X o w v G K K K K C a + X X X X o W 1.5.5.",
"5.5.2.{ $ X X o X X o O - r - = O X X X X . X M >.5.5.5.",
"5.5.5.1.) $ . . X X X X   X X   . .   X   X 5 :.3.5.5.5.",
"5.5.5.5.1.{ 1 X     X         X .       @ A :.3.5.5.5.5.",
"5.5.5.5.5.2.*.A , X                 @ 3 } <.3.5.5.5.5.5.",
"5.5.5.5.5.5.3.1.%.W 4 , # @ # % 2 Z } >.3.5.5.5.5.5.5.5.",
"5.5.5.5.5.5.5.5.3.1.,.*.+.X.+.$.=.<.3.5.5.5.5.5.5.5.5.5."
};
