/* XPM */
static char *backward_dis[] = {
/* columns rows colors chars-per-pixel */
"28 28 110 2",
"   c #5E6D9D",
".  c #606FA0",
"X  c #6272A3",
"o  c #6E7CA6",
"O  c #6576A9",
"+  c #6778AC",
"@  c #6A7BAE",
"#  c #707EA6",
"$  c #6C7DB3",
"%  c #7481AA",
"&  c #7C89AE",
"*  c #6E80B7",
"=  c #6F81B9",
"-  c #7E8CB5",
";  c #7183BC",
":  c #7989BB",
">  c #7386C1",
",  c #7689C4",
"<  c #788AC7",
"1  c #798DCA",
"2  c #7D90CE",
"3  c #7E92D2",
"4  c #8490B3",
"5  c #8F9BBD",
"6  c #909BBA",
"7  c #8695C1",
"8  c #8F9CC5",
"9  c #8596CC",
"0  c #8E9ECD",
"q  c #929FC4",
"w  c #8094D4",
"e  c #8599D4",
"r  c #8B9ED6",
"t  c #8196D8",
"y  c #859ADB",
"u  c #899EDC",
"i  c #9CA6C2",
"p  c #8EA1DD",
"a  c #90A4DD",
"s  c #99AADD",
"d  c #AAB2CC",
"f  c #B2B9CE",
"g  c #A3AFD4",
"h  c #AEB9DB",
"j  c #B0B8D0",
"k  c #B5BEDC",
"l  c #889FE2",
"z  c #8CA1E4",
"x  c #93A7E1",
"c  c #95A8E5",
"v  c #9AADE4",
"b  c #93A8E9",
"n  c #99ADEA",
"m  c #9EB2EC",
"M  c #99AFF1",
"N  c #A3B3E2",
"B  c #ADBBE5",
"V  c #A2B4E9",
"C  c #AEBCE9",
"Z  c #B1BEE6",
"A  c #A7B9F1",
"S  c #A2B8FB",
"D  c #BAC0D4",
"F  c #BBC3DA",
"G  c #BAC4E2",
"H  c #B3C0E8",
"J  c #BBC7EA",
"K  c #BCC9EE",
"L  c #AFC0F3",
"P  c #B4C4F4",
"I  c #BAC9F5",
"U  c #B5C6F8",
"Y  c #BDCCF8",
"T  c #C5CADA",
"R  c #C5CCE1",
"E  c #C5D0EF",
"W  c #CBD3EB",
"Q  c #D4D8E4",
"!  c #DADDE6",
"~  c #D1D8EF",
"^  c #DADEEA",
"/  c #C0CEF9",
"(  c #C7D2F3",
")  c #C9D3F4",
"_  c #CFD9F7",
"`  c #C4D1FA",
"'  c #C8D4FA",
"]  c #CEDAFC",
"[  c #D1D9F4",
"{  c #D8DFF4",
"}  c #D4DEFC",
"|  c #DEE1E7",
" . c #DFE2ED",
".. c #DBE2F6",
"X. c #D6E0FE",
"o. c #DAE3FD",
"O. c #E2E5ED",
"+. c #E7E8ED",
"@. c #ECECEC",
"#. c #ECEDF1",
"$. c #E4EAFB",
"%. c #EAEFFC",
"&. c #EFF0F1",
"*. c #EDF1FD",
"=. c #F2F2F3",
"-. c #F2F5FD",
";. c #F7F8FB",
":. c #FBFCFE",
">. c black",
",. c None",
/* pixels */
",.,.,.,.,.,.,.,.@.@.@.=.=.=.=.=.&.@.@.,.,.,.,.,.,.,.,.,.",
",.,.,.,.,.,.@.@.=.;.:.:.:.:.:.:.:.:.=.=.@.,.,.,.,.,.,.,.",
",.,.,.,.,.@.=.;.;.:.;.:.:.:.:.:.;.:.:.:.;.@.@.,.,.,.,.,.",
",.,.,.,.@.=.;.-.;.-.-.-.-.-.-.-.-.-.-.*.-.;.=.@.,.,.,.,.",
",.,.,.@.;.*.%.%.%.%.%.*.%.%.%.%.*.%.*.%.*.&.;.=.@.,.,.,.",
",.,.@.=.$.$.$.$.$.$.%.*.-.-.-.-.%.%.$.$.$.$.$.-.=.,.,.,.",
",.@.=.$...........*.-.*.%.%.%.%.-.-.%.o.........&.@.,.,.",
",.@.{ ) [ [ [ o.-.%.X.[ _ [ _ [ ..o.*.%.[ ~ ~ [ _ #.@.,.",
"+.#.m c J ( } *.o.( ( E E ( ( } ] ( _ %.$.( E H a W @.,.",
"@.~ u l p L %.} I J J J K ) $.%.( J J ( *.] v t w N #.,.",
"&.Z y 3 y U } m g V C I o.;.:.] H B g v U X.z 3 3 r  .@.",
"#.s 3 3 z ] L 3 t b / *.:.:.} c r t 3 2 z X.A 3 2 3 W @.",
" .r 3 3 b X.n z L $.:.:.:.*.V 3 1 1 2 1 w ` I 3 < 1 G @.",
"^ e 2 1 n o.S ] :.:.:.:.:.` 3 1 < 1 1 , 1 Y ` 3 < < h =.",
"^ 9 1 < b o.M A o.;.:.:.:.} l , , , < < 1 / Y < > > h =.",
" .9 > < u X.m 1 y L $.:.:.;.P 1 > > ; > 3 ] L , ; ; k &.",
"+.0 > > 1 ` Y 1 ; < p U %.:.%.b ; ; = ; c o.x = ; ; T @.",
"&.g ; ; ; m o.n ; = = > p Y *.] 3 = * 2 ` ` < * $ : ^ @.",
"@.R ; = = < I } p * $ * * , b Y m = , L o.p * @ $ 8 @.,.",
"+.+.7 $ $ $ w ` X.n > * @ @ @ 1 u y I X.m * @ + $ F @.,.",
",.&.F $ $ $ @ 2 P o.` m p e e s H X.] x $ + + O 5 +.@.,.",
",.+.+.q O + O O = p I } X.X.X.X.' V 2 O X O O @ R @.,.,.",
",.,.@.| 4 O O O O O $ , 9 p p 1 = + X X X X O f @.,.,.,.",
",.,.,.#.Q - X X X X X X X   X . . . X X . O d @.@.,.,.,.",
",.,.,.,.@.| 5 X . X X .   . .   . .     % D @.@.,.,.,.,.",
",.,.,.,.,.@.@.D - X                 o i ! &.@.,.,.,.,.,.",
",.,.,.,.,.,.@.@.+.T i 4 % # # & 6 j ! @.@.,.,.,.,.,.,.,.",
",.,.,.,.,.,.,.,.@.@.=.@.O.| | +.=.@.@.,.,.,.,.,.,.,.,.,."
};
