/* XPM */
static char *backward_dis[] = {
/* columns rows colors chars-per-pixel */
"28 28 61 1",
"  c #8A93AD",
". c #8E96B1",
"X c #8F98B3",
"o c #919AB5",
"O c #949DB9",
"+ c #99A1B7",
"@ c #97A0BD",
"# c #9BA3BC",
"$ c #A4ABBF",
"% c #9BA5C2",
"& c #9FA8C7",
"* c #A3ADCB",
"= c #AAB1C6",
"- c #A6B0CF",
"; c #AAB3CC",
": c #B5BBCC",
"> c #A7B1D1",
", c #AAB5D5",
"< c #ADB7D8",
"1 c #AEB9D9",
"2 c #B4BCD1",
"3 c #B1BCDD",
"4 c #B4BFE1",
"5 c #BEC4D6",
"6 c #B5C0DF",
"7 c #B6C1E4",
"8 c #BAC4E5",
"9 c #BFC8E1",
"0 c #BBC7EA",
"q c #BEC9EC",
"w c #C2C7D6",
"e c #CCD1DF",
"r c #C2CDEC",
"t c #D2D6E3",
"y c #D9DDE8",
"u c #C2CEF2",
"i c #C5D0F2",
"p c #CAD5F5",
"a c #C9D5F9",
"s c #CED9FB",
"d c #D5DDF5",
"f c #D2DDFD",
"g c #DDE1EE",
"h c #DAE0F1",
"j c #D6E1FE",
"k c #DBE4FD",
"l c #E1E4EC",
"z c #ECECEC",
"x c #E5E9F4",
"c c #E1E7F8",
"v c #E4EDFF",
"b c #E8EEFF",
"n c #EEF0F6",
"m c #E7F0FF",
"M c #ECF4FE",
"N c #F3F3F4",
"B c #F1F5FC",
"V c #F4FBFF",
"C c #FEFEFE",
"Z c black",
"A c None",
/* pixels */
"AAAAAAAAzzzNNNNNzzzAAAAAAAAA",
"AAAAAAzzNCCCCCCCCCCzzAAAAAAA",
"AAAAAzNCCCCCCCCCCCCCNzzAAAAA",
"AAAAzNCCCCCCCCCCCCCCCCNzAAAA",
"AAAzCCCCCCCCCCCCCCCCCCCNzAAA",
"AAzNCCCCCCCCCCCCCCCCCCCCNAAA",
"AzNCCCCCCCCCCCCCCCCCCCCCCzAA",
"AzCVCVCCCCCVCCVCCCCCCCCVVNzA",
"zNjfMMCCCVBMBBVCCVCCCVMvpBzA",
"zBuupbCCMbbbMVCCVmbVCCfq0dNA",
"Nk0quMCjdfvMCCCCkkhsMCs80rNz",
"Nd00aCm0qfVCCCCs0088aCk847Mz",
"Nr87sCjaMCCCCCk777170VB733cN",
"B947jCmCCCCCCVq331117VV7<<yN",
"n813sCjvCCCCCCu<<<<<4VV3,,dN",
"N8<<iCk1ubCCCCM3>,>>8Cb,>>hz",
"Nr,,6VV3>1pMCCCf>**-sCp-**xz",
"nt*->jCf>**<aBCC8**7VV3**;Bz",
"zx-**1BCp*&&&<sVk*1mCi%%%5NA",
"zN2&&&8VCf<&%%%<uqMCj*%#%hzA",
"Azg&%%%7MCVki9rpbCCp&O@O:NzA",
"AzN5@@@@*iMCCCCCVk3@OOO%xzAA",
"AAzB;OOOOO&<9ur6-@ooooOtNAAA",
"AAAzn=oooooXXX.o .oo oeNzAAA",
"AAAAzB:o  o  o  .   #yNzAAAA",
"AAAAAzNg=o        +wnNzAAAAA",
"AAAAAAzzNlw=#++$:tnNzAAAAAAA",
"AAAAAAAAzzNNNNNCNzzAAAAAAAAA"
};
