/* XPM */
static char *backward[] = {
/* columns rows colors chars-per-pixel */
"28 44 179 2",
"   c #020202",
".  c #0B0B0B",
"X  c #161616",
"o  c #1B1B1B",
"O  c #222222",
"+  c #2D2D2D",
"@  c #323232",
"#  c gray24",
"$  c gray26",
"%  c gray29",
"&  c #555555",
"*  c #5D5D5D",
"=  c #656565",
"-  c gray42",
";  c #747474",
":  c #797979",
">  c #00259D",
",  c #0027A2",
"<  c #0028A3",
"1  c #092EA3",
"2  c #0027A8",
"3  c #002AAB",
"4  c #193CA6",
"5  c #1137AD",
"6  c #002CB4",
"7  c #002DBC",
"8  c #0431BA",
"9  c #153EBB",
"0  c #1F41A6",
"q  c #2243A8",
"w  c #2748AA",
"e  c #3251AE",
"r  c #2C4EB5",
"t  c #3D5BB3",
"y  c #3858BD",
"u  c #4A67BD",
"i  c #516BBA",
"p  c #002EC3",
"a  c #002ECA",
"s  c #0031C4",
"d  c #0032CB",
"f  c #0B3BCB",
"g  c #0033D3",
"h  c #0638D0",
"j  c #0B3DD4",
"k  c #0034DA",
"l  c #063ADC",
"z  c #093DDA",
"x  c #043BE2",
"c  c #083DE3",
"v  c #1341CD",
"b  c #1C48CC",
"n  c #1242D3",
"m  c #1847D6",
"M  c #1346DD",
"N  c #1748DD",
"B  c #1C4CDB",
"V  c #2D52C1",
"C  c #3157CD",
"Z  c #345EDD",
"A  c #0B40E5",
"S  c #1C4EE4",
"D  c #1248E9",
"F  c #1B4FED",
"G  c #174DF1",
"H  c #1C53FB",
"J  c #2453E4",
"K  c #2A59E6",
"L  c #2657EB",
"P  c #2B5BEC",
"I  c #335FE2",
"U  c #3661E6",
"Y  c #3C64E0",
"T  c #3562E9",
"R  c #3564F1",
"E  c #3967F0",
"W  c #4867C4",
"Q  c #5A78D4",
"!  c #647BC2",
"~  c #476DE1",
"^  c #4D72E1",
"/  c #577AE2",
"(  c #5A7DE7",
")  c #5479E9",
"_  c #4571F5",
"`  c #4C76F2",
"'  c #4F78F5",
"]  c #557DF4",
"[  c #517AF8",
"{  c #768CCC",
"}  c #6B87DB",
"|  c #7A92DC",
" . c #5E85F8",
".. c #6081E6",
"X. c #6384E8",
"o. c #7391EC",
"O. c #6186F6",
"+. c #698CF4",
"@. c #6489F9",
"#. c #6A8EF9",
"$. c #6E91FA",
"%. c #7596FA",
"&. c #7C9BFA",
"*. c #808080",
"=. c #909090",
"-. c #9B9B9B",
";. c gray64",
":. c #AAAAAA",
">. c #B2B2B2",
",. c #8799CE",
"<. c #8B9EDA",
"1. c #91A2D4",
"2. c #90A2DA",
"3. c #A6B3DA",
"4. c #819EF6",
"5. c #87A1EF",
"6. c #88A2EE",
"7. c #9AACE1",
"8. c #99AEED",
"9. c #9EB0E9",
"0. c #86A1F3",
"q. c #8CA6F3",
"w. c #87A5FD",
"e. c #89A6FC",
"r. c #8FAAFD",
"t. c #92ABF7",
"y. c #93AEFD",
"u. c #9CB2F4",
"i. c #96B0FD",
"p. c #9AB3FD",
"a. c #A3B6EF",
"s. c #ADBFF7",
"d. c #A0B6F8",
"f. c #A3BAFE",
"g. c #BBC5E4",
"h. c #BDC8EB",
"j. c #AFC0F6",
"k. c #B2C3F6",
"l. c #B8C8F7",
"z. c #B4C6FC",
"x. c #BCCCFD",
"c. c gray76",
"v. c #CBCBCB",
"b. c #D2D2D2",
"n. c #DADADA",
"m. c #C6CEE5",
"M. c #C3CCE9",
"N. c #CED4E6",
"B. c #C7D1EF",
"V. c #C9D1EB",
"C. c #D1D6E7",
"Z. c #D6DBEA",
"A. c #D8DEED",
"S. c #C1CFF9",
"D. c #C5D2FB",
"F. c #CAD7FD",
"G. c #CEDAFE",
"H. c #D4DEFC",
"J. c #DDE1ED",
"K. c #DEE2F1",
"L. c #D6E0FE",
"P. c #DBE3FD",
"I. c gray89",
"U. c #E2E5EE",
"Y. c #E6E8EF",
"T. c #EBEBEC",
"R. c #E1E5F2",
"E. c #E6E9F0",
"W. c #EDEEF1",
"Q. c #E0E7FD",
"!. c #E3EAFD",
"~. c #E9EDFC",
"^. c #EFF0F2",
"/. c #F2F2F3",
"(. c #F2F5FE",
"). c #F6F8FF",
"_. c #FDFDFE",
"`. c black",
"'. c None",
/* pixels */
"'.'.'.'.'.'.'.'.T.T.T.^././././.^.T.T.'.'.'.'.'.'.'.'.'.",
"'.'.'.'.'.'.T.T./.)._._._._._._._.).).^.T.'.'.'.'.'.'.'.",
"'.'.'.'.'.T./.(.(.(.(.(.(.(.(.(.(.)./.).(.^.T.'.'.'.'.'.",
"'.'.'.'.T./.~.!.!.Q.!.!.R.!.!.!.!.!.!.~.~./.^.T.'.'.'.'.",
"'.'.'.T.(.P.H.H.H.H.H.H.H.H.H.H.H.H.H.H.H.P.~.^.T.'.'.'.",
"'.'.T.W.F.S.S.S.x.D.F.H.P.!.P.P.H.D.D.D.D.B.D.Q.T.'.'.'.",
"'.T.W.D.s.s.j.j.z.L.!.L.G.D.D.H.P.Q.D.k.k.k.k.l.!.T.'.'.",
"'.T.s.q.u.u.u.j.P.D.f.u.u.u.u.u.d.z.P.F.d.u.a.u.u.E.T.'.",
"T.K.T K o.5.p.H.s.0.4.q.q.4.q.u.i.q.t.D.S.q.6.X.B 9.T.'.",
"T.a.l k A ` S.p.o.o.o.o.o.4.z.G.4.o.o.4.D.r.I l k ~ E.'.",
"^...k k k [ y.P ~ ^ ) +.f.!.(.r.( / ^ Y ] p.c g g m B.T.",
"R.Z g g x y._ g k D O.H._._.p.S n j h g c p.R a d h 8.T.",
"B.B g g D f.F c _ s.)._._.L.L g d d d d g %. .g d d | ^.",
"M.v d d F f.H w.(._._._._.$.g d s d d s g @.%.g s s } /.",
"h.v d s S f.G E f.(._._._.y.l p s s s s a #.#.a s 7 } /.",
"B.b s s l p.P d l _ z.)._.(.' d p 8 s 7 g w.` p 7 7 | /.",
"J.C p s a %.#.d 7 s A ] D._.F.S 7 7 7 7 S f.S 7 7 8 7.T.",
"W.Q 7 7 7 P f.J 7 7 7 p D @.H.e.h 7 6 d %.%.s 6 6 9 M.T.",
"T.7.8 6 7 d @.i.M 7 6 6 6 p S $.P 7 d ` f.N 6 6 6 W R.'.",
"T.A.V 6 6 6 h %.i.J p 6 6 3 6 s l z O.f.P 6 3 3 3 2.T.'.",
"'.T.<.6 6 3 6 d ] f.%.T N j n J ] y.w.J 6 3 3 3 y J.T.'.",
"'.T.Y.W 3 3 3 3 7 B O.r.p.u.i.i.&.U s 3 2 2 3 5 a.T.'.'.",
"'.'.T.V.r 3 3 < 2 2 6 s n B m f 7 3 < < 2 2 1 ,.T.'.'.'.",
"'.'.'.T.g.r < 2 < 2 < < , < < < > < < < > 1 { Y.T.'.'.'.",
"'.'.'.'.T.V.u 1 , , , > < > > < , > , > q 1.T.T.'.'.'.'.",
"'.'.'.'.'.T.U.1.t > > > > > > > > > 4 ! m.T.T.'.'.'.'.'.",
"'.'.'.'.'.'.T.T.J.3.! t w 0 q e i ,.m.W.T.'.'.'.'.'.'.'.",
"'.'.'.'.'.'.'.'.T.T./.E.Z.N.C.J.W.T.T.'.'.'.'.'.'.'.'.'.",
"'.'.'.'.'.'.'.'.'.'.'.'.'.'.'.'.'.'.'.'.'.'.'.'.'.'.'.'.",
"'.'.'.'.'.'.'.'.'.'.'.'.'.'.'.'.'.'.'.'.'.'.'.'.'.'.'.'.",
"'.'.'.'.'.'.'.'.'.'.'.'.'.'.'.'.'.'.'.'.'.'.'.'.'.'.'.'.",
"'.'.'.'.'.'.'.'.'.'.'.'.'.'.'.'.'.'.'.'.'.'.'.'.'.'.'.'.",
"'.'.'.'.'.'.'.'.  '.'.'.'.'.'.'.'.'.'.'.'.'.'.'.'.'.'.'.",
"'.'.'.'.'.'.'.'.  '.'.'.'.'.'.'.'.'.'.'.'.'.'.'.'.'.'.'.",
"'.'.v.@   o '.'.  '.b.O c.'.o v.'.* % '.n.+ '.'.'.$   = ",
"'.'.# - I.v.'.'.  n.@ ;.'.'.* =.I.+ o I.-.- '.'.'.v.n.  ",
"'.'.  n.'.'.'.'.  % : '.'.'.-.& c.& # c.& >.'.'.>.+     ",
"'.'.. n.'.'.'.'.  ; @ n.'.'.n.X : -.: *.O I.'.'.o =.I.  ",
"'.'.& = I.c.'.'.  I.& % T.'.'.+ o n.>.o & '.'.'.. c.:.  ",
"'.'.n.#   + '.'.  '.I.# = '.'.- @ '.I.. -.'.'.'.: . - = ",
"'.'.'.'.'.'.'.'.'.'.'.'.'.'.'.'.'.'.'.'.'.'.'.'.'.'.'.'.",
"'.'.'.'.'.'.'.'.'.'.'.'.'.'.'.'.'.'.'.'.'.'.'.'.'.'.'.'.",
"'.'.'.'.'.'.'.'.'.'.'.'.'.'.'.'.'.'.'.'.'.'.'.'.'.'.'.'.",
"'.'.'.'.'.'.'.'.'.'.'.'.'.'.'.'.'.'.'.'.'.'.'.'.'.'.'.'."
};
