/* XPM */
static char *backward_dis[] = {
/* columns rows colors chars-per-pixel */
"32 32 128 2",
"   c #5E6D9D",
".  c #606F9F",
"X  c #60709F",
"o  c #606FA0",
"O  c #6272A3",
"+  c #6D7BA6",
"@  c #6676A9",
"#  c #6778AC",
"$  c #697AAE",
"%  c #6B7DB3",
"&  c #7885AF",
"*  c #7D89AE",
"=  c #6E80B7",
"-  c #6F81B9",
";  c #7D8AB1",
":  c #7284BD",
">  c #7889BE",
",  c #7487C1",
"<  c #7689C4",
"1  c #788BC7",
"2  c #7A8ECB",
"3  c #7C90CF",
"4  c #7E93D2",
"5  c #828EB3",
"6  c #808FBC",
"7  c #8A95B6",
"8  c #8492BD",
"9  c #919BBB",
"0  c #97A1BF",
"q  c #8493C2",
"w  c #939EC2",
"e  c #8195D5",
"r  c #8599D6",
"t  c #8C9ED2",
"y  c #849ADB",
"u  c #899DDA",
"i  c #99A4C5",
"p  c #9EA8C3",
"a  c #9BA7CC",
"s  c #8CA0DC",
"d  c #98A6D2",
"f  c #92A4DB",
"g  c #97A8DC",
"h  c #9DADDD",
"j  c #A0A9C6",
"k  c #A2ACCA",
"l  c #ABB3CC",
"z  c #AEB7D5",
"x  c #A1B1DF",
"c  c #ABB6D9",
"v  c #869CE0",
"b  c #899EE0",
"n  c #8CA1E1",
"m  c #8EA5E8",
"M  c #92A6E5",
"N  c #94A8E5",
"B  c #9BADE5",
"V  c #91A7EC",
"C  c #96AAEA",
"Z  c #98ADEE",
"A  c #9EB1EA",
"S  c #93ABF0",
"D  c #9DB2F1",
"F  c #9EB6FC",
"G  c #A4B4E4",
"H  c #ABB9E2",
"J  c #A1B4EC",
"K  c #B2BFE8",
"L  c #A2B6F0",
"P  c #A6B9F2",
"I  c #ACBEF4",
"U  c #BCC3D5",
"Y  c #BDC4DA",
"T  c #B5C1E7",
"R  c #B5C2E9",
"E  c #BFCAEC",
"W  c #AEC0F6",
"Q  c #B3C4F6",
"!  c #B9C7F0",
"~  c #BCCAF5",
"^  c #B5C6F9",
"/  c #BBCBFA",
"(  c #C2C9DE",
")  c #CACFDD",
"_  c #C6CEE5",
"`  c #C9CFE4",
"'  c #C2CDEF",
"]  c #CBD2E6",
"[  c #C6D0EE",
"{  c #CCD4ED",
"}  c #D1D5E2",
"|  c #D5D9E5",
" . c #D4DAEC",
".. c #C2CEF2",
"X. c #C0CEFA",
"o. c #C5D1F6",
"O. c #C9D3F2",
"+. c #CED8F7",
"@. c #C5D3FC",
"#. c #C9D5FC",
"$. c #CED9FB",
"%. c #D2DAF4",
"&. c #D3DDFD",
"*. c #DCE0EB",
"=. c #DAE1F7",
"-. c #D7E1FE",
";. c #DBE4FE",
":. c #E2E5ED",
">. c #E6E8EF",
",. c #ECECEC",
"<. c #E1E6F6",
"1. c #EBEDF2",
"2. c #E1E7FB",
"3. c #E3EAFD",
"4. c #EAEEFC",
"5. c #EFF0F2",
"6. c #EDF1FD",
"7. c #F1F2F2",
"8. c #F2F4FD",
"9. c #F6F8FE",
"0. c #FDFDFE",
"q. c None",
"w. c black",
"e. c black",
"r. c black",
"t. c black",
"y. c black",
"u. c black",
/* pixels */
"q.q.q.q.q.q.q.q.q.q.,.,.,.7.7.7.7.7.7.,.,.q.q.q.q.q.q.q.q.q.q.q.",
"q.q.q.q.q.q.q.q.,.7.7.0.0.0.0.0.0.0.0.0.7.7.,.,.q.q.q.q.q.q.q.q.",
"q.q.q.q.q.q.,.,.7.0.0.0.0.0.9.0.0.0.0.0.0.0.9.7.,.q.q.q.q.q.q.q.",
"q.q.q.q.q.,.7.9.9.9.8.9.9.9.9.9.9.9.7.9.9.9.9.0.9.,.q.q.q.q.q.q.",
"q.q.q.q.,.7.9.8.6.8.6.8.6.8.8.6.8.8.8.6.8.8.8.8.9.9.,.q.q.q.q.q.",
"q.q.q.,.7.9.4.4.4.4.4.4.4.4.4.4.4.4.4.4.4.4.4.6.4.4.0.5.q.q.q.q.",
"q.q.,.7.6.2.2.2.2.2.3.4.6.8.9.9.9.9.6.4.2.2.<.<.<.<.4.7.,.q.q.q.",
"q.q.,.8.=.=.=.=.=.;.4.9.8.6.4.3.3.4.8.9.8.3.;.=.=.=.=.4.7.,.q.q.",
"q.,.1.O.%.%.%.+.;.6.8.;.&.%.%.%.%.%.%.;.6.8.3.=.%.%.%.%.<.7.q.q.",
"q.7.' N R o.O.&.6.4.&.O.O.[ { O.O.+.-.+.+.;.8.;.O.{ [ G G 1.,.q.",
",.1.B y s G / 4.3.o.E E E E E o.&.4.;.E E ~ -.6.%.R N e y  .,.q.",
",.%.u y y v ^ 4.~ T T R R ! @.3.9.6.o.T T T R -.-.M e e 4 H 7.q.",
"7.R e e e m -./ v u f A ^ ;.9.0.9./ G h f s r D 3.P 4 4 3 f 1.,.",
"7.x 4 4 e D 3.D 4 y Z / 6.0.0.0.#.n 3 4 4 4 3 u &./ e 2 2 e  .,.",
"1.f 4 4 4 I ;.V m ^ 3.0.0.0.0.4.Z 3 3 3 3 1 2 4 / &.y 2 2 2  .,.",
":.t 2 2 4 ^ -.F &.0.0.0.0.0.0./ 4 1 1 1 1 1 1 4 ^ -.u < < < _ 7.",
":.t 2 1 3 W ;.S I -.0.0.0.0.0.$.s < < < < < < 3 / -.r , , < _ 5.",
">.s < < 1 P ;.M 2 b W ;.0.0.0.9.W 2 , < < : : 4 @.@.3 : : , ] 5.",
",.d , < , n ;.I 1 , 1 n ^ 4.0.0.;.V , - : : : n ;.W < : - > | 5.",
"7.c : , : 4 @.-.y - : : 2 M / 6.0.#.4 - : - 1 ^ ;.s - - = 8 >.,.",
"5.` : : - , M ;.^ 3 - - : : 1 C #.4.P , = - C ;.Q , % % % a 5.q.",
",.>.q % - - < I 4.W 3 % % % % = 4 A ^ 3 - M -.#.e % % % = Y 5.q.",
"q.7.z % % % % 1 Q 3./ b , % $ % $ = 4 y P ;.$.u % $ $ $ 8 >.,.q.",
"q.,.*.8 $ $ % % < L -.;./ A s y u M I $.;./ r % @ @ @ $ Y 7.q.q.",
"q.q.7.Y $ $ $ $ @ % r I &.;.;.;.;.;.-.~ N : @ @ @ @ @ 9 1.,.q.q.",
"q.q.,.5.k $ @ @ @ @ @ % 1 u N G A f e = @ @ O @ @ O ; *.,.q.q.q.",
"q.q.q.,.,.i @ O O @ @ O O @ @ @ @ O O O O O O O O & ] 7.q.q.q.q.",
"q.q.q.q.,.,.k @ O O O O O O X X . O O X X . X X 5 | 7.q.q.q.q.q.",
"q.q.q.q.q.,.1.Y ; O . X X   X   .       X . + j :.5.,.q.q.q.q.q.",
"q.q.q.q.q.q.,.7.:.l * O               X + 0 } ,.,.q.q.q.q.q.q.q.",
"q.q.q.q.q.q.q.q.,.1.,.) l 9 5 * 5 7 p U | 7.,.,.q.q.q.q.q.q.q.q.",
"q.q.q.q.q.q.q.q.q.q.,.,.7.5.,.>.,.,.7.7.,.,.q.q.q.q.q.q.q.q.q.q."
};
