/* XPM */
static char *circle_stop_sel[] = {
/* columns rows colors chars-per-pixel */
"32 32 128 2",
"   c #5C0505",
".  c #630B0B",
"X  c #770C0C",
"o  c #7C0D0D",
"O  c #621212",
"+  c #6D1313",
"@  c #741717",
"#  c #7D1212",
"$  c #741B1B",
"%  c #7A1C1C",
"&  c #6D2222",
"*  c #7C2323",
"=  c #7E2A2A",
"-  c #7A3636",
";  c #7B3C3C",
":  c #7C4343",
">  c #7F4B4B",
",  c #811E1E",
"<  c #832424",
"1  c #852B2B",
"2  c #882E2E",
"3  c #863333",
"4  c #883535",
"5  c #843B3B",
"6  c #893C3C",
"7  c #903939",
"8  c #894242",
"9  c #824C4C",
"0  c #8B4C4C",
"q  c #904D4D",
"w  c #825151",
"e  c #8D5353",
"r  c #855D5D",
"t  c #8E5C5C",
"y  c #975252",
"u  c #975858",
"i  c #9F5858",
"p  c #A25F5F",
"a  c #8F6161",
"s  c #906565",
"d  c #916B6B",
"f  c #A46B6B",
"g  c #A27474",
"h  c #AD7575",
"j  c #AC7979",
"k  c #B17D7D",
"l  c #9C8181",
"z  c #989696",
"x  c gray60",
"c  c #A88B8B",
"v  c #B28181",
"b  c #B88989",
"n  c #B49090",
"m  c #AEA3A3",
"M  c gray74",
"N  c #C4A3A3",
"B  c #CCB3B3",
"V  c #CEBBBB",
"C  c #D1BBBB",
"Z  c #C5C5C5",
"A  c #D7C9C9",
"S  c #DBCECE",
"D  c #D4D3D3",
"F  c #DED4D4",
"G  c gainsboro",
"H  c #E3DCDC",
"J  c #E2E1E1",
"K  c #E8E6E6",
"L  c None",
"P  c black",
"I  c black",
"U  c black",
"Y  c black",
"T  c black",
"R  c black",
"E  c black",
"W  c black",
"Q  c black",
"!  c black",
"~  c black",
"^  c black",
"/  c black",
"(  c black",
")  c black",
"_  c black",
"`  c black",
"'  c black",
"]  c black",
"[  c black",
"{  c black",
"}  c black",
"|  c black",
" . c black",
".. c black",
"X. c black",
"o. c black",
"O. c black",
"+. c black",
"@. c black",
"#. c black",
"$. c black",
"%. c black",
"&. c black",
"*. c black",
"=. c black",
"-. c black",
";. c black",
":. c black",
">. c black",
",. c black",
"<. c black",
"1. c black",
"2. c black",
"3. c black",
"4. c black",
"5. c black",
"6. c black",
"7. c black",
"8. c black",
"9. c black",
"0. c black",
"q. c black",
"w. c black",
"e. c black",
"r. c black",
"t. c black",
"y. c black",
"u. c black",
/* pixels */
"L L L L L L L L L L L L L L L L L L L L L L L L L L L L L L L L ",
"L L L L L L L L L L L L L L L L L L L L L L L L L L L L L L L L ",
"L L L L L L L L L L L L L L C N N H L L L L L L L L L L L L L L ",
"L L L L L L L L L L C p 2 < 1 4 4 < < 7 k H L L L L L L L L L L ",
"L L L L L L L L C 7 1 0 u s s s u a s 0 6 < f K L L L L L L L L ",
"L L L L L L L b < 0 d s e 0 6 6 6 6 6 8 0 0 6 2 S L L L L L L L ",
"L L L L L L p < t s 0 6 5 3 2 1 1 1 2 2 4 6 8 6 < C L L L L L L ",
"L L L L L h 6 a e 8 4 1 1 1 1 1 1 1 1 1 1 2 1 6 6 < F L L L L L ",
"L L L L N < t e 6 2 1 1 1 1 1 1 1 1 1 1 1 1 1 1 3 3 1 L L L L L ",
"L L L L 1 w e 6 3 1 1 1 5 = 1 1 1 1 = 5 < 1 1 1 < 1 1 f L L L L ",
"L L L v 4 u 6 2 1 1 = r z w < 1 1 < > z w # # o o , 1 < J L L L ",
"L L L 1 e 0 3 2 1 = r z x x w = % ; z x x > X o o o < < k L L L ",
"L L S * e 5 1 1 1 5 z z z x z : ; z x x x z % o o o # 1 4 L L L ",
"L L j 5 0 3 1 1 1 < 9 z x x x x z x x x z - o o o o o 1 % L L L ",
"L L y 5 6 1 1 1 1 1 = ; z z x x x x x z - X o o o o o 1 % H L L ",
"L L 8 6 6 1 1 1 1 < o X - z x x x x z ; X o o , o o o 1 % C L L ",
"L L 6 5 4 1 1 1 1 o o X ; z x x x x x : X o o o o o o 1 % B L L ",
"L L 0 3 4 1 1 1 # o X ; z x x x x x x z : X o o o o o 3 $ A L L ",
"L L f = 4 < 1 < o o : z x x x z z x x x x : X o o o , 1 @ L L L ",
"L L C % 4 1 2 o # $ z x x x z ; - z x x z z * o o o 1 < = L L L ",
"L L L $ 3 1 < o o o ; z x z ; X X - z x x : o o o o 6 $ f L L L ",
"L L L u * 1 % o o o X ; z ; X o o X - z 9 X o o o 3 1 @ F L L L ",
"L L L J + = 6 # o o o o % o o o o o o $ X o o o < 4 $ q L L L L ",
"L L L L f $ 3 8 # o o o o o o o o o o o o o o , 8 % + F L L L L ",
"L L L L L 5 @ 3 8 % o o o o o o o o o o o o 3 8 * . N L L L L L ",
"L L L L L K $ @ 1 8 4 % o o o o o o o o < 8 5 * . g L L L L L L ",
"L L L L L L K - + * 4 9 8 3 1 < < 1 5 8 8 3 $   n L L L L L L L ",
"L L L L L L L L g . + * 3 6 6 6 8 6 4 1 $ . & V L L L L L L L L ",
"L L L L L L L J G D > O   . + O + +     & c D G J L L L L L L L ",
"L L L L L L L Z M M M M m d : : : > l M M M M M Z L L L L L L L ",
"L L L L L L L G D Z M M M M M M M M M M M M Z D G L L L L L L L ",
"L L L L L L L K J J J J J J J J J J J J J J J J K L L L L L L L "
};
