/* XPM */
static char *circle_stop_dis[] = {
/* columns rows colors chars-per-pixel */
"32 32 128 2",
"   c #9C6262",
".  c #9D6868",
"X  c #A56B6B",
"o  c #A96E6E",
"O  c #A77373",
"+  c #AC7272",
"@  c #AA7F7F",
"#  c #B17676",
"$  c #B57979",
"%  c #C67F7F",
"&  c #B68181",
"*  c #BC8383",
"=  c #B18D8D",
"-  c #B79292",
";  c #BB9191",
":  c #B89F9F",
">  c #BAA3A3",
",  c #C28686",
"<  c #CD8484",
"1  c #C38888",
"2  c #CA8D8D",
"3  c #D08585",
"4  c #D28B8B",
"5  c #C49292",
"6  c #CD9393",
"7  c #CB9D9D",
"8  c #D49595",
"9  c #D99797",
"0  c #D59B9B",
"q  c #DA9D9D",
"w  c #C3A2A2",
"e  c #CDA3A3",
"r  c #C1AAAA",
"t  c #D4A6A6",
"y  c #DEA3A3",
"u  c #D2ABAB",
"i  c #DCACAC",
"p  c #C3B5B5",
"a  c #C7BDBD",
"s  c #D5B3B3",
"d  c #D3BDBD",
"f  c #D9B9B9",
"g  c #E0A6A6",
"h  c #E2ABAB",
"j  c #E3B3B3",
"k  c #E6BBBB",
"l  c #E9BEBE",
"z  c #CECACA",
"x  c #D3C3C3",
"c  c #DCC3C3",
"v  c #DACCCC",
"b  c LightGray",
"n  c #DFD4D4",
"m  c gray87",
"M  c #E4C4C4",
"N  c #EBC4C4",
"B  c #E2CCCC",
"V  c #EDCCCC",
"C  c #E5D1D1",
"Z  c #EFD0D0",
"A  c #E4DCDC",
"S  c #E8DFDF",
"D  c #F1D5D5",
"F  c #F2D9D9",
"G  c gray90",
"H  c #E9E4E4",
"J  c #EAE9E9",
"K  c #FFFEFE",
"L  c None",
"P  c black",
"I  c black",
"U  c black",
"Y  c black",
"T  c black",
"R  c black",
"E  c black",
"W  c black",
"Q  c black",
"!  c black",
"~  c black",
"^  c black",
"/  c black",
"(  c black",
")  c black",
"_  c black",
"`  c black",
"'  c black",
"]  c black",
"[  c black",
"{  c black",
"}  c black",
"|  c black",
" . c black",
".. c black",
"X. c black",
"o. c black",
"O. c black",
"+. c black",
"@. c black",
"#. c black",
"$. c black",
"%. c black",
"&. c black",
"*. c black",
"=. c black",
"-. c black",
";. c black",
":. c black",
">. c black",
",. c black",
"<. c black",
"1. c black",
"2. c black",
"3. c black",
"4. c black",
"5. c black",
"6. c black",
"7. c black",
"8. c black",
"9. c black",
"0. c black",
"q. c black",
"w. c black",
"e. c black",
"r. c black",
"t. c black",
"y. c black",
"u. c black",
/* pixels */
"L L L L L L L L L L L L L L L L L L L L L L L L L L L L L L L L ",
"L L L L L L L L L L L L L L L L L L L L L L L L L L L L L L L L ",
"L L L L L L L L L L L L L L H A A J L L L L L L L L L L L L L L ",
"L L L L L L L L L L S M h q g g g q y j C J L L L L L L L L L L ",
"L L L L L L L L H j g k Z D D Z Z Z V l j y N J L L L L L L L L ",
"L L L L L L L C q k D Z N k j j j j j j l l j g H L L L L L L L ",
"L L L L L L M 0 N D l j g g y y y y y g g h j j g S L L L L L L ",
"L L L L L B j Z V j g g g g y y y y y y g g g j i y H L L L L L ",
"L L L L A 9 V N j g g y y y y y y g y q q g y g g y i L L L L L ",
"L L L L t l N h g g q 0 t 0 y y g y 0 t q q g y q g y B L L L L ",
"L L L B i V h g g q 0 M K f 0 y q 0 s K f < < 3 3 4 g 0 J L L L ",
"L L L t N l g g y 0 c K K K f 0 2 t K K K s < < 3 3 q 0 B L L L ",
"L L H 8 N j g g y t K K K K K e 7 K K K K K 2 < 3 3 4 q i L L L ",
"L L B t l y q g y q u K K K K K K K K K K e < < 3 3 3 y 7 L L L ",
"L L f i j y g y y q 0 e K K K K K K K K e % < 3 3 < 3 g 2 G L L ",
"L L f i h g y g g q 3 < 7 K K K K K K e % < 3 3 3 3 3 y 2 S L L ",
"L L u i g y y y y 3 < % e K K K K K K e % < < 3 3 3 3 g 2 A L L ",
"L L f t g y g y 4 < % e K K K K K K K K t , < 3 3 3 3 g , H L L ",
"L L x 8 g g g 9 3 < e K K K K K K K K K K e < 3 3 3 4 y 1 L L L ",
"L L S 2 g g g 3 < 2 K K K K K e 7 K K K K K 6 < 3 3 y 0 e L L L ",
"L L L 5 y y q 3 3 < e K K K e % % 7 K K K u % 3 3 2 h 1 c L L L ",
"L L L f 6 g 8 3 3 < , e K e % < < % 7 K u % < 3 3 y y * G L L L ",
"L L L J * 0 j 4 3 3 3 % 2 < < 3 < < < 2 < < 3 3 9 h 2 s L L L L ",
"L L L L x , g h 4 3 3 3 3 3 3 3 3 3 < < < 3 3 9 j 6 & G L L L L ",
"L L L L L w , g j 8 3 3 3 3 3 3 3 3 3 3 3 < y j 8 + n L L L L L ",
"L L L L L J ; * y j i 8 3 3 3 < 3 3 3 < q j h 2 X x L L L L L L ",
"L L L L L L J w # 6 i k j y y 0 q y h k j i * O v L L L L L L L ",
"L L L L L L L L x O $ 6 g h j j j j g q , o - m L L L L L L L L ",
"L L L L L L L G G G > & . O $ $ # # X . = z A G G L L L L L L L ",
"L L L L L L L b b b b b z > > : > > a b b b b b b L L L L L L L ",
"L L L L L L L G m b b b b b b b b b b b b b b m G L L L L L L L ",
"L L L L L L L J G G G G G G G G G G G G G G J G J L L L L L L L "
};
