/* XPM */
static char *circle_stop[] = {
/* columns rows colors chars-per-pixel */
"32 32 128 2",
"   c #9C0A0A",
".  c #9D1A1A",
"X  c #A61414",
"o  c #A91515",
"O  c #AC1C1C",
"+  c #B31E1E",
"@  c #A72121",
"#  c #A72B2B",
"$  c #B52121",
"%  c #BD2A2A",
"&  c #AA3F3F",
"*  c #B63131",
"=  c #BB3535",
"-  c #C61414",
";  c #CD1515",
":  c #D01515",
">  c #D11B1B",
",  c #CA2323",
"<  c #C22D2D",
"1  c #CA2E2E",
"2  c #D42323",
"3  c #D42929",
"4  c #C33333",
"5  c #CB3434",
"6  c #CC3D3D",
"7  c #D73434",
"8  c #D93535",
"9  c #D43A3A",
"0  c #DA3C3C",
"q  c #B15757",
"w  c #BB5353",
"e  c #B75A5A",
"r  c #B97D7D",
"t  c #C44747",
"y  c #CF4242",
"u  c #CF4848",
"i  c #D54444",
"p  c #DC4545",
"a  c #D44949",
"s  c #DF4949",
"d  c #CA5A5A",
"f  c #D65757",
"g  c #DC5353",
"h  c #D75E5E",
"j  c #DC5C5C",
"k  c #E04D4D",
"l  c #E15454",
"z  c #E25C5C",
"x  c #CD6464",
"c  c #CD6C6C",
"v  c #D56161",
"b  c #DB6464",
"n  c #D06A6A",
"m  c #C37070",
"M  c #D37676",
"N  c #D87070",
"B  c #D57B7B",
"V  c #E36464",
"C  c #E36B6B",
"Z  c #E37373",
"A  c #E77A7A",
"S  c #E87C7C",
"D  c #BB8686",
"F  c #C18787",
"G  c #D78686",
"H  c #D88787",
"J  c #D38989",
"K  c #DA8E8E",
"L  c #C39F9F",
"P  c #D59292",
"I  c #DE9A9A",
"U  c #E78282",
"Y  c #E98383",
"T  c #E78B8B",
"R  c #EB8C8C",
"E  c #E39595",
"W  c #EC9393",
"Q  c #E29A9A",
"!  c #EE9E9E",
"~  c #C7ADAD",
"^  c #D4A5A5",
"/  c #DAA3A3",
"(  c #D0B5B5",
")  c #DAB9B9",
"_  c #E2A2A2",
"`  c #EFA2A2",
"'  c #E2ABAB",
"]  c #F0A8A8",
"[  c #E3B1B1",
"{  c #E5B8B8",
"}  c #F2B2B2",
"|  c #CEC3C3",
" . c #DFC5C5",
".. c LightGray",
"X. c gray87",
"o. c #E7C7C7",
"O. c #E5CBCB",
"+. c #E4D3D3",
"@. c #E8D4D4",
"#. c #E5DDDD",
"$. c #E9DEDE",
"%. c gray90",
"&. c #E9E5E5",
"*. c #EAE8E8",
"=. c #FFFEFE",
"-. c None",
";. c black",
":. c black",
">. c black",
",. c black",
"<. c black",
"1. c black",
"2. c black",
"3. c black",
"4. c black",
"5. c black",
"6. c black",
"7. c black",
"8. c black",
"9. c black",
"0. c black",
"q. c black",
"w. c black",
"e. c black",
"r. c black",
"t. c black",
"y. c black",
"u. c black",
/* pixels */
"-.-.-.-.-.-.-.-.-.-.-.-.-.-.-.-.-.-.-.-.-.-.-.-.-.-.-.-.-.-.-.-.",
"-.-.-.-.-.-.-.-.-.-.-.-.-.-.-.-.-.-.-.-.-.-.-.-.-.-.-.-.-.-.-.-.",
"-.-.-.-.-.-.-.-.-.-.-.-.-.-.@.o.o.&.-.-.-.-.-.-.-.-.-.-.-.-.-.-.",
"-.-.-.-.-.-.-.-.-.-.@.E b 0 k l l p s Z [ &.-.-.-.-.-.-.-.-.-.-.",
"-.-.-.-.-.-.-.-.@.Z s S ! ] ] ` ! ! ` Y V k _ *.-.-.-.-.-.-.-.-.",
"-.-.-.-.-.-.-.{ p Y } ` R A C V V V V C S Y V V $.-.-.-.-.-.-.-.",
"-.-.-.-.-.-.Q 0 W ` S V z k s s k 0 k k l z C V l @.-.-.-.-.-.-.",
"-.-.-.-.-.' C ` W C l k k k s s k k k 0 k k k z j s $.-.-.-.-.-.",
"-.-.-.-.o.9 W R V k k k s s s s p s p p k k k k z g n -.-.-.-.-.",
"-.-.-.-.h U W V k k p 0 b i p s k s i h 9 p p k 0 k s _ -.-.-.-.",
"-.-.-.[ z ! V k s p i I =.H i p p i B =.G > > : : > l a &.-.-.-.",
"-.-.-.v R A k k s i I =.=.=.H y 1 n =.=.=.M - : : : p 0 [ -.-.-.",
"-.-.$.6 W V k k p h =.=.=.=.=.c d =.=.=.=.=.5 ; : : 2 p N -.-.-.",
"-.-.' h S k 0 k s i M =.=.=.=.=.=.=.=.=.=.x - : : : ; s i -.-.-.",
"-.-.K b C k k k s p 0 x =.=.=.=.=.=.=.=.x - ; : : : : s 1 %.-.-.",
"-.-.B b z k k 0 s p > - d =.=.=.=.=.=.x - ; : : : : : s 1 @.-.-.",
"-.-.B v l 0 k k p > ; - x =.=.=.=.=.=.c - ; : : : : : l 1 +.-.-.",
"-.-.H f l k p k 2 ; - x =.=.=.=.=.=.=.=.n - ; : : : : g < @.-.-.",
"-.-./ a z k p 8 : - x =.=.=.=.=.=.=.=.=.=.n - : : : 3 s 4 -.-.-.",
"-.-.O.1 l k s : : 5 =.=.=.=.=.x d =.=.=.=.=.6 ; : : s i x -.-.-.",
"-.-.-.t g s 0 : : - v =.=.=.x - - d =.=.=.N - : : > z 4 / -.-.-.",
"-.-.-.P 6 s 7 : : : - x =.v - ; ; - d =.M - ; : : g p % $.-.-.-.",
"-.-.-.&.= i C > : : ; - 1 - ; : : ; - 1 - ; : : 0 z 1 J -.-.-.-.",
"-.-.-.-./ < g C 2 : : : : : : : : : : : ; : : 7 C 5 * %.-.-.-.-.",
"-.-.-.-.-.m < l Z 7 : : : : : : : : : : ; > s Z 9 O  .-.-.-.-.-.",
"-.-.-.-.-.&.w % k Z g 3 : : : : : : : > 0 C V 5 o ^ -.-.-.-.-.-.",
"-.-.-.-.-.-.*.m $ 5 z Z Z g s i i p j Z C l < @ ) -.-.-.-.-.-.-.",
"-.-.-.-.-.-.-.-.^ # $ 5 l z V C C V z p < o e ..-.-.-.-.-.-.-.-.",
"-.-.-.-.-.-.-.%.%.%.D &   o + + + + X . q ( X.%.*.-.-.-.-.-.-.-.",
"-.-.-.-.-.-.-...........| L r r r D ~ ............-.-.-.-.-.-.-.",
"-.-.-.-.-.-.-.%.X.............................X.%.-.-.-.-.-.-.-.",
"-.-.-.-.-.-.-.*.%.%.%.%.%.%.%.%.%.%.%.%.%.%.*.%.*.-.-.-.-.-.-.-."
};
