/* XPM */
static char *close_sel[] = {
/* columns rows colors chars-per-pixel */
"28 28 89 1",
"  c #220505",
". c #2D0404",
"X c #240A0A",
"o c #2A0909",
"O c #350202",
"+ c #3C0202",
"@ c #340A0A",
"# c #261313",
"$ c #2B1616",
"% c #271818",
"& c #2E1E1E",
"* c #331717",
"= c #2F2121",
"- c #3C3535",
"; c #3D3C3C",
": c #440101",
"> c #4E0101",
", c #530000",
"< c #5C0000",
"1 c #511C1C",
"2 c #640000",
"3 c #6B0000",
"4 c #740000",
"5 c #7B0000",
"6 c #462626",
"7 c #423737",
"8 c #433C3C",
"9 c #454242",
"0 c #4B4545",
"q c #4C4B4B",
"w c #545353",
"e c #585656",
"r c #5D5B5B",
"t c #645E5E",
"y c #7C5858",
"u c #6C6B6B",
"i c #727373",
"p c #7B7575",
"a c #7C7C7C",
"s c #820000",
"d c #880404",
"f c #850C0C",
"g c #8A0B0B",
"h c #821010",
"j c #8B1414",
"k c #8A1A1A",
"l c #911919",
"z c #8E2727",
"x c #8E2929",
"c c #912424",
"v c #933434",
"b c #8E4B4B",
"n c #964444",
"m c #964B4B",
"M c #8E5B5B",
"N c #925555",
"B c #955A5A",
"V c #985C5C",
"C c #836A6A",
"Z c #8A6A6A",
"A c #966262",
"S c #956A6A",
"D c #986D6D",
"F c #847474",
"G c #8C7575",
"H c #957373",
"J c #987575",
"K c #967E7E",
"L c #987B7B",
"P c #838484",
"I c #8B8383",
"U c #8B8989",
"Y c #978787",
"T c #988484",
"R c #978888",
"E c #988C8C",
"W c #949393",
"Q c #989494",
"! c gray60",
"~ c #9FA0A0",
"^ c #A2A3A3",
"/ c #BBBCBC",
"( c #C6C6C6",
") c gray83",
"_ c gainsboro",
"` c gray88",
"' c #E8E9E9",
"] c black",
"[ c None",
/* pixels */
"[[[[[[[[)Pq;90099wW_[[[[[[[[",
"[[[[[[)i9epUWWWWUprqU`[[[[[[",
"[[[[[^8tIEQEWEEWEQWIuq/[[[[[",
"[[['a9FYYYYYYYYYYYYRYi0^[[[[",
"[[[F0GLKKLKTKKKKLKTKKTF0^[[[",
"[[^7ZHHHHHHHHHHHHHHHHHJC0([[",
"[)-yDHLJHHHHSSSSHJJJLHHDye'[",
"[u1NAE!!!!!WDBBH!!!!!!YAM6![",
")*4knSQ!!!!!YBBE!!!!!EAbz27[",
"U:ssfxH!!!!!!JJ!!!!!!Axh54@/",
"8<sssslL!!!!!!!!!!!QDjss5s:i",
"$3ss5ssvQ!!!!!!!!!!Ycs5555<8",
"o455s55dV!!!!!!!!!!ns544452&",
".455554slT!!!!!!!!Hg4544453$",
".445544scE!!!!!!!!Ll4444442$",
"o444444gH!!!!!!!!!QVs44444<=",
"$244445m!!!!!!!!!!!Ev44334,8",
"8,4344xE!!!!!E!!!!!!Lj4343+i",
"P+444gH!!!!!QnV!!!!!!B5332o/",
")$<34mQ!!!!!VskL!!!!!Wv43>8[",
"[u+3cYQQ!Q!Lk34vE!Q!Q!Jj2.![",
"[)&<jxcxcxck4225zzcxczzf>9'[",
"[[~X<333223222223222222,%([[",
"[[[ao<22222222<2222222>X^[[[",
"[[['ao>2<2<222<2<2<2<:$^[[[[",
"[[[[[^&O,22<<<<22<<>.-/[[[[[",
"[[[[[[)u$.:,,<<,,+.=P`[[[[[[",
"[[[[[[[[)P-#    %0W_[[[[[[[["
};
