/* XPM */
static char *close[] = {
/* columns rows colors chars-per-pixel */
"32 32 256 2",
"   c #3F1E1E",
".  c #5D0707",
"X  c #570C0C",
"o  c #580E0E",
"O  c #4F1010",
"+  c #4B1C1C",
"@  c #511212",
"#  c #630505",
"$  c #6B0303",
"%  c #630E0E",
"&  c #6C0E0E",
"*  c #750202",
"=  c #7C0202",
"-  c #710E0E",
";  c #422727",
":  c #4D2525",
">  c #442B2B",
",  c #4D2B2B",
"<  c #552828",
"1  c #5D2828",
"2  c #4F3636",
"3  c #4F3F3F",
"4  c #5C3434",
"5  c #543E3E",
"6  c #554242",
"7  c #554848",
"8  c #5C4D4D",
"9  c #5E5050",
"0  c #605656",
"q  c #665D5D",
"w  c #6C5E5E",
"e  c #6E6666",
"r  c #6D6B6B",
"t  c #726D6D",
"y  c #737171",
"u  c #797676",
"i  c #7D7A7A",
"p  c #850202",
"a  c #8C0101",
"s  c #940101",
"d  c #9D0101",
"f  c #A30000",
"g  c #AB0000",
"h  c #B30000",
"j  c #BB0000",
"k  c #C40000",
"l  c #CB0000",
"z  c #D30000",
"x  c #DB0101",
"c  c #DC0B0B",
"v  c #DA1616",
"b  c #DC1919",
"n  c #E10303",
"m  c #EB0707",
"M  c #EA0B0B",
"N  c #E51515",
"B  c #E61D1D",
"V  c #ED1818",
"C  c #DD2A2A",
"Z  c #EC2020",
"A  c #EF2C2C",
"S  c #F42525",
"D  c #F32B2B",
"F  c #F53232",
"G  c #F53939",
"H  c #817F7F",
"J  c #8F7878",
"K  c #9A7171",
"L  c #E74242",
"P  c #E34D4D",
"I  c #F74545",
"U  c #F54949",
"Y  c #F95353",
"T  c #F75959",
"R  c #FA5C5C",
"E  c #DF7676",
"W  c #ED6A6A",
"Q  c #FC6B6B",
"!  c #EB7878",
"~  c #FE7777",
"^  c #F57A7A",
"/  c #FB7D7D",
"(  c #868585",
")  c #8D8C8C",
"_  c #9D9C9C",
"`  c #A09797",
"'  c #A79898",
"]  c #B09393",
"[  c #A2A4A4",
"{  c #A7A8A8",
"}  c #ADAEAE",
"|  c #BBA9A9",
" . c #B2B3B3",
".. c #BBB3B3",
"X. c #BDBEBE",
"o. c #CD8282",
"O. c #C19595",
"+. c #FE8383",
"@. c #F68E8E",
"#. c #F88E8E",
"$. c #FF9393",
"%. c #F49D9D",
"&. c #FC9A9A",
"*. c #C1A7A7",
"=. c #C8AEAE",
"-. c #D0ABAB",
";. c #F6A2A2",
":. c #FFA7A7",
">. c #F6AEAE",
",. c #FCACAC",
"<. c #F3B0B0",
"1. c #FABDBD",
"2. c #C6C5C5",
"3. c #C7C8C8",
"4. c #CACBCB",
"5. c gray83",
"6. c gray86",
"7. c #FEC4C4",
"8. c #FCCCCC",
"9. c #E2DEDE",
"0. c #EDDCDC",
"q. c #FED3D3",
"w. c #F3DEDE",
"e. c #FDDCDC",
"r. c #E5E6E6",
"t. c #EFE5E5",
"y. c #E9E9E9",
"u. c #F2E7E7",
"i. c #FFE3E3",
"p. c #F0ECEC",
"a. c #FEEAEA",
"s. c #F6F3F3",
"d. c #FFF4F4",
"f. c #FFFEFE",
"g. c None",
"h. c black",
"j. c black",
"k. c black",
"l. c black",
"z. c black",
"x. c black",
"c. c black",
"v. c black",
"b. c black",
"n. c black",
"m. c black",
"M. c black",
"N. c black",
"B. c black",
"V. c black",
"C. c black",
"Z. c black",
"A. c black",
"S. c black",
"D. c black",
"F. c black",
"G. c black",
"H. c black",
"J. c black",
"K. c black",
"L. c black",
"P. c black",
"I. c black",
"U. c black",
"Y. c black",
"T. c black",
"R. c black",
"E. c black",
"W. c black",
"Q. c black",
"!. c black",
"~. c black",
"^. c black",
"/. c black",
"(. c black",
"). c black",
"_. c black",
"`. c black",
"'. c black",
"]. c black",
"[. c black",
"{. c black",
"}. c black",
"|. c black",
" X c black",
".X c black",
"XX c black",
"oX c black",
"OX c black",
"+X c black",
"@X c black",
"#X c black",
"$X c black",
"%X c black",
"&X c black",
"*X c black",
"=X c black",
"-X c black",
";X c black",
":X c black",
">X c black",
",X c black",
"<X c black",
"1X c black",
"2X c black",
"3X c black",
"4X c black",
"5X c black",
"6X c black",
"7X c black",
"8X c black",
"9X c black",
"0X c black",
"qX c black",
"wX c black",
"eX c black",
"rX c black",
"tX c black",
"yX c black",
"uX c black",
"iX c black",
"pX c black",
"aX c black",
"sX c black",
"dX c black",
"fX c black",
"gX c black",
"hX c black",
"jX c black",
"kX c black",
"lX c black",
"zX c black",
"xX c black",
"cX c black",
"vX c black",
"bX c black",
"nX c black",
"mX c black",
"MX c black",
"NX c black",
"BX c black",
"VX c black",
"CX c black",
"ZX c black",
"AX c black",
"SX c black",
"DX c black",
"FX c black",
"GX c black",
"HX c black",
"JX c black",
"KX c black",
"LX c black",
"PX c black",
"IX c black",
"UX c black",
/* pixels */
"g.g.g.g.g.g.g.g.g.y.5.[ u r r r r t y ( } 6.y.g.g.g.g.g.g.g.g.g.",
"g.g.g.g.g.g.g.y.3.( u _ 2.9.u.s.s.y.6.2._ i _ 5.g.g.g.g.g.g.g.g.",
"g.g.g.g.g.g.6.) u =.u.d.d.d.d.d.d.d.f.d.f.t. .H { r.g.g.g.g.g.g.",
"g.g.g.g.g.2.y ' w.a.a.u.a.u.a.a.a.a.i.a.a.a.a.0.` ( 6.g.g.g.g.g.",
"g.g.g.g.X.e =.e.w.e.e.e.e.w.e.e.e.e.u.e.e.e.w.e.e.| H 5.g.g.g.g.",
"g.g.g.2.e -.8.8.8.8.7.8.8.8.8.8.8.8.8.8.8.8.q.8.q.8.*.H 6.g.g.g.",
"g.g.6.t O.1.1.1.7.1.1.1.1.1.1.1.7.1.1.1.1.7.1.1.1.7.7.] ) y.g.g.",
"g.g.) K ,.1.7.7.7.7.7.7.7.1.,.>.<.>.1.7.7.8.8.7.7.7.1.<.J  .g.g.",
"g.3.4 ! %.1.d.f.f.f.f.f.f.a.,.%.%.,.a.f.f.f.f.f.f.s.,.;.o.w 9.g.",
"g.H a B W #.8.f.f.f.f.f.f.f.q.#.#.q.f.f.f.f.f.f.f.1.#.! C & { g.",
"5.4 k x c L / i.f.f.f.f.f.f.f.,.,.f.f.f.f.f.f.f.q.^ P v x f e r.",
"[ - x x z x N Q d.f.f.f.f.f.f.a.a.f.f.f.f.f.f.i.T v z z z l 1 4.",
"t s x z x z z m &.f.f.f.f.f.f.f.f.f.f.f.f.f.f.Q x z z z z z & [ ",
"6 h z z z z z x S q.f.f.f.f.f.f.f.f.f.f.f.f.,.M z l l l l l p i ",
", j z z z z z l x R d.f.f.f.f.f.f.f.f.f.f.e.F z l l l l l l s e ",
"+ j l l l l l l l m ,.f.f.f.f.f.f.f.f.f.f.~ x l k k k l k k d 8 ",
"+ j l l l l l l l V 7.f.f.f.f.f.f.f.f.f.f.$.n k k k k k k k d 9 ",
"> h k k k k k k n +.f.f.f.f.f.f.f.f.f.f.f.d.T z j k j k j k a e ",
"6 f k k k k k l I a.f.f.f.f.f.f.f.f.f.f.f.f.8.B k j j j j j * i ",
"t p k k j j j V 7.f.f.f.f.f.f.f.f.f.f.f.f.f.f.$.x j j h h j % [ ",
"[ % j j j j x +.f.f.f.f.f.f.f.7.e.f.f.f.f.f.f.d.T l h h h g < 4.",
"5.4 g h j k I a.f.f.f.f.f.f.q.D Q f.f.f.f.f.f.f.8.Z h h h a w y.",
"g.i * h j N 1.f.f.f.f.f.f.d.R l c :.f.f.f.f.f.f.f.$.z h g o { g.",
"g.4., f z / d.f.f.d.f.f.f.$.c g j A q.f.f.f.d.f.f.a.U k a 7 r.g.",
"g.g.( # z G U U U U U U I N h g g k A U U U U U U U D h + } g.g.",
"g.g.6.9 = h h h h h h h h g g g g g g h h h g h h h g . i y.g.g.",
"g.g.g.3.2 = g f g f f f g f g f f f f f f f f f f f # q 6.g.g.g.",
"g.g.g.g.X.2 = f f g f f f f f f f f f f f f f f d . 9 5.g.g.g.g.",
"g.g.g.g.g.3.9 . s f f f f f d f f f f d d f d a O t 6.g.g.g.g.g.",
"g.g.g.g.g.g.6.( : $ a f f d f f d d d f d a . 2 _ r.g.g.g.g.g.g.",
"g.g.g.g.g.g.g.y.3.i , X $ p a a a a = $ @ 6 ) 5.g.g.g.g.g.g.g.g.",
"g.g.g.g.g.g.g.g.g.y.5._ r 3 ;     > 7 u } 6.y.g.g.g.g.g.g.g.g.g."
};
