/* XPM */
static char *close_sel[] = {
/* columns rows colors chars-per-pixel */
"28 28 95 2",
"   c #3D0909",
".  c #331717",
"X  c #3C1111",
"o  c #341919",
"O  c #3D1A1A",
"+  c #3B2525",
"@  c #450202",
"#  c #4E0000",
"$  c #440B0B",
"%  c #4F0C0C",
"&  c #530000",
"*  c #5C0000",
"=  c #461313",
"-  c #4F1313",
";  c #401D1D",
":  c #630000",
">  c #6C0000",
",  c #740000",
"<  c #7B0000",
"1  c #422525",
"2  c #432929",
"3  c #4B2D2D",
"4  c #562323",
"5  c #512D2D",
"6  c #483535",
"7  c #4F3F3F",
"8  c #573A3A",
"9  c #544444",
"0  c #544949",
"q  c #5B4848",
"w  c #555454",
"e  c #5D5353",
"r  c #5A5959",
"t  c #605656",
"y  c #745959",
"u  c #7C5858",
"i  c #636262",
"p  c #696565",
"a  c #6C6969",
"s  c #706A6A",
"d  c #767272",
"f  c #7A7474",
"g  c #7D7B7B",
"h  c #820000",
"j  c #880404",
"k  c #850C0C",
"l  c #8A0B0B",
"z  c #821010",
"x  c #8B1414",
"c  c #8A1A1A",
"v  c #911919",
"b  c #8E2727",
"n  c #8E2929",
"m  c #912424",
"M  c #933434",
"N  c #8E4B4B",
"B  c #964444",
"V  c #964B4B",
"C  c #925555",
"Z  c #955A5A",
"A  c #985C5C",
"S  c #836A6A",
"D  c #8A6A6A",
"F  c #966262",
"G  c #956A6A",
"H  c #986D6D",
"J  c #847474",
"K  c #8C7575",
"L  c #957373",
"P  c #987575",
"I  c #967E7E",
"U  c #987B7B",
"Y  c #818080",
"T  c #8B8383",
"R  c #8A8888",
"E  c #978787",
"W  c #988484",
"Q  c #978888",
"!  c #988C8C",
"~  c #949292",
"^  c #989494",
"/  c gray60",
"(  c gray64",
")  c gray67",
"_  c #B1B1B1",
"`  c #BCBCBC",
"'  c #BFC0C0",
"]  c gray76",
"[  c LightGray",
"{  c #DEDFDF",
"}  c #DFE0E0",
"|  c #E4E4E4",
" . c #E9E9E9",
".. c black",
"X. c None",
/* pixels */
"X.X.X.X.X.X.X.X.{ ) g i w w w r p R ` } X.X.X.X.X.X.X.X.",
"X.X.X.X.X.X.{ ( p p g Q ~ ~ ~ ~ R g p d _  .X.X.X.X.X.X.",
"X.X.X.X.X.] a i T ~ ~ ~ ~ ! ! ~ ~ ~ ! T a Y [ X.X.X.X.X.",
"X.X.X. .) t J ! Q E W W Q E E Q Q Q Q Q Q f a ] X.X.X.X.",
"X.X.X.) e K U U U U U W U W U I W I I W U W J p ] X.X.X.",
"X.X.] e D L L L L L L L L L L L L P L L L L L S s [ X.X.",
"X.| p u G P P P L P L L G G D G L P P P P P L H y R  .X.",
"X./ 4 C F ! / / / / / ^ H Z Z L ^ / / / / / E F Z 8 ' X.",
"| q , c B G / / / / / / Q Z Z ! / / / / / ! F N n : d X.",
"_ - h h k n H / / / / / / U P / / / / / / F n z < < 5 [ ",
"f * h h < h v U / / / / / / / / / / / / H x < h < < % ( ",
"9 , h < h < h M ~ / / / / / / / / / / W m h < < < < * f ",
"1 , < < < < < j A / / / / / / / / / / B h < < < < < : e ",
"O , < < < < < < v E / / / / / / / / L l , , , , , < : 9 ",
"O , < < < < < < m ! / / / / / / / / U x < , , , , , : 9 ",
"1 > , , , , , l L / ^ ^ / / / / / / / Z h , , , , , * t ",
"9 : , , , , < V / / / / / / / ^ / / / ~ M , , > , , # f ",
"f & , , > , m ! / / / / / ! / / / / / / U x , > > > $ ( ",
"_ = > , , l L / / / / / ~ B A / / / / / / Z < > > : 3 [ ",
"} q * > < V / / / / / / A j c U / / / / / ~ M , > & s X.",
"X./ $ > b W / ~ / ~ / U c > , M ! / / / ~ / P x : ; ] X.",
"X.} e * x b n m m n m c , : : < b b m m m n b k $ J  .X.",
"X.X.] 2 * > > > > : > : : : : : : > : : : : > # 0 [ X.X.",
"X.X.X.) O & : : : : : : : : : : : : : : : : # 6 ] X.X.X.",
"X.X.X. .) 1 # : * : * : : * : * * : * : * @ 7 ] X.X.X.X.",
"X.X.X.X.X.] e   & : * : : * * : * : * # X s [ X.X.X.X.X.",
"X.X.X.X.X.X.{ ( 9 X @ & & * * & # @ O t _ | X.X.X.X.X.X.",
"X.X.X.X.X.X.X.X.{ ) d 7 + . o + 0 g ` | X.X.X.X.X.X.X.X."
};
