/* XPM */
static char *close_sel[] = {
/* columns rows colors chars-per-pixel */
"32 32 128 2",
"   c #1C0606",
".  c #1B0909",
"X  c #1E1212",
"o  c #240606",
"O  c #2B0303",
"+  c #220B0B",
"@  c #2B0A0A",
"#  c #340202",
"$  c #3B0202",
"%  c #221414",
"&  c #2F1111",
"*  c #271B1B",
"=  c #2C2424",
"-  c #322626",
";  c #342F2F",
":  c #363333",
">  c #383535",
",  c #3D3C3C",
"<  c #440202",
"1  c #4C0101",
"2  c #540101",
"3  c #5D0000",
"4  c #620000",
"5  c #6C0000",
"6  c #740000",
"7  c #7B0000",
"8  c #413F3F",
"9  c #444141",
"0  c #4B4A4A",
"q  c #524343",
"w  c #5B4343",
"e  c #535252",
"r  c #5D5959",
"t  c #7B4E4E",
"y  c #695757",
"u  c #645A5A",
"i  c #745959",
"p  c #616060",
"a  c #6C6B6B",
"s  c #726464",
"d  c #7D6666",
"f  c #726C6C",
"g  c #786868",
"h  c #6F7171",
"j  c #727373",
"k  c #787575",
"l  c #767878",
"z  c #830101",
"x  c #8B0404",
"c  c #840C0C",
"v  c #8B0D0D",
"b  c #8C1313",
"n  c #851919",
"m  c #8F1A1A",
"M  c #931616",
"N  c #921B1B",
"B  c #8A2727",
"V  c #882E2E",
"C  c #932222",
"Z  c #932C2C",
"A  c #963535",
"S  c #973E3E",
"D  c #864747",
"F  c #8E4040",
"G  c #8D4848",
"H  c #974141",
"J  c #984444",
"K  c #944A4A",
"L  c #984D4D",
"P  c #945555",
"I  c #995757",
"U  c #935E5E",
"Y  c #995A5A",
"T  c #966565",
"R  c #996666",
"E  c #956969",
"W  c #986F6F",
"Q  c #967272",
"!  c #997474",
"~  c #967C7C",
"^  c #997A7A",
"/  c #7E8080",
"(  c #838383",
")  c #8B8585",
"_  c #8F8C8C",
"`  c #978484",
"'  c #998484",
"]  c #918C8C",
"[  c #998C8C",
"{  c #949292",
"}  c #999494",
"|  c gray60",
" . c #A6A7A7",
".. c #A7A8A8",
"X. c #A9AAAA",
"o. c #B1B2B2",
"O. c #BBBBBB",
"+. c #C1C1C1",
"@. c gray80",
"#. c #D5D5D5",
"$. c gray87",
"%. c gray90",
"&. c gray91",
"*. c None",
"=. c black",
"-. c black",
";. c black",
":. c black",
">. c black",
",. c black",
"<. c black",
"1. c black",
"2. c black",
"3. c black",
"4. c black",
"5. c black",
"6. c black",
"7. c black",
"8. c black",
"9. c black",
"0. c black",
"q. c black",
"w. c black",
"e. c black",
"r. c black",
"t. c black",
"y. c black",
"u. c black",
/* pixels */
"*.*.*.*.*.*.*.*.*.&.O.a , > > , , > > 0 / @.&.*.*.*.*.*.*.*.*.*.",
"*.*.*.*.*.*.*.&...0 , r l ) _ { { _ ( j r 9 p +.*.*.*.*.*.*.*.*.",
"*.*.*.*.*.*.@.e 8 f ) } } } } } } } } } } _ a 9 l $.*.*.*.*.*.*.",
"*.*.*.*.*. .> u ` [ [ [ [ [ [ ` [ [ [ [ [ [ [ ) r 0 @.*.*.*.*.*.",
"*.*.*.*.| : g ' ` ` ` ` ` ` ` ` ` ` ` ` ` ` ` ` ` s 9 +.*.*.*.*.",
"*.*.*. .; d ^ ^ ~ ^ ^ ~ ^ ~ ^ ^ ~ ^ ~ ~ ~ ~ ~ ~ ~ ~ s 9 @.*.*.*.",
"*.*.@.: i Q Q Q Q Q E Q Q Q Q Q Q Q Q Q Q Q Q Q ! ! Q u e %.*.*.",
"*.*.e w E Q ! ! ! ^ ^ ^ ! Q E E E E Q ^ ^ ^ ! ^ ^ ^ Q E q ) *.*.",
"*.X.& G U E } | | | } | | [ R U T R [ | | | | | } } E T t - #.*.",
"*.9 2 b S P ^ | | | | | | | ^ I I ^ | | | | | | | E U G n $ l *.",
"+.@ 7 z c B K [ | | | | | | } R R } | | | | | | ~ K V c z 4 - %.",
"h < z z z z v H } | | | | | | } [ | | | | | | ' A c 7 z 7 7 @ o.",
"> 2 z 7 z z z x Y | | | | | | | | | | | | | } H z 7 7 7 7 z $ j ",
"% 5 z z z 7 7 z M ~ | | | | | | | | | | | | R v 7 7 7 7 7 7 2 8 ",
"+ 5 7 7 7 7 7 7 z A } | | | | | | | | | | ' N 7 7 7 7 7 6 7 2 = ",
"o 6 7 7 7 7 7 7 7 x E | | | | | | | | | | K z 7 6 7 6 7 6 7 4 * ",
"o 5 6 7 7 6 7 6 z v ! | | | | | | | | | | Y z 7 6 6 6 6 6 6 2 * ",
". 5 7 7 6 7 6 7 z I | | | | | | | | | | | } A z 6 6 6 6 6 6 2 - ",
"% 4 6 6 6 6 6 7 Z [ | | | | | | | | | | | | ^ b 6 6 6 6 6 6 1 9 ",
"> 1 6 6 6 6 6 v ! | | | | | | } | | | | | | | I z 5 5 5 5 5 $ h ",
"j $ 6 6 6 6 7 L } | | | | | | ! ' | | | | | | } A 6 5 5 5 4 @ o.",
"+.+ 4 5 5 6 Z [ | | | | | | ' M S | | | | | | | ~ b 5 5 5 2 = %.",
"*.9 < 5 6 v ! | | | | | | } A 6 x R | | | | | | | Y z 5 4 # l *.",
"*.X.o 4 z L } | } } | } | U z 5 5 m ' } } | } | } [ Z 6 2 * #.*.",
"*.*.0 $ 7 Z Z Z Z Z Z Z Z v 5 5 4 6 N Z Z Z Z Z Z Z M 5 O / *.*.",
"*.*.@.* 1 5 5 5 5 5 5 5 5 4 4 5 4 4 5 5 5 5 5 5 5 5 4 # 9 %.*.*.",
"*.*.*.X.% 1 5 4 5 4 4 4 4 4 4 4 4 4 4 4 3 4 4 4 4 4 $ = @.*.*.*.",
"*.*.*.*.| + < 4 4 4 4 4 4 4 4 4 4 4 4 3 4 4 3 4 3 $ = +.*.*.*.*.",
"*.*.*.*.*. .* # 2 4 4 4 4 3 3 4 4 3 4 3 4 3 4 2 O > @.*.*.*.*.*.",
"*.*.*.*.*.*.@.0 o $ 2 4 4 4 4 4 4 4 4 4 3 2 # + a $.*.*.*.*.*.*.",
"*.*.*.*.*.*.*.&.X.8 + O < 1 2 2 2 2 1 $ O % e +.*.*.*.*.*.*.*.*.",
"*.*.*.*.*.*.*.*.*.&.O.a ; X .     . % , ( @.&.*.*.*.*.*.*.*.*.*."
};
