/* XPM */
static char *close_dis[] = {
/* columns rows colors chars-per-pixel */
"28 28 70 1",
"  c #4E4444",
". c #504949",
"X c #5C4F4F",
"o c #5C5252",
"O c #5E5959",
"+ c #695656",
"@ c #635D5D",
"# c #715D5D",
"$ c #6A6565",
"% c #716161",
"& c #7A6363",
"* c #706868",
"= c #777575",
"- c #7D7C7C",
"; c #816767",
": c #836D6D",
"> c #8D7272",
", c #807E7E",
"< c #897F7F",
"1 c #917474",
"2 c #967979",
"3 c #9B7C7C",
"4 c #848383",
"5 c #8A8989",
"6 c #978484",
"7 c #908E8E",
"8 c #949393",
"9 c #A38383",
"0 c #A98787",
"q c #AE8B8B",
"w c #B28E8E",
"e c #A09F9F",
"r c #B59191",
"t c #BB9595",
"y c #BF9999",
"u c #A4A4A4",
"i c gray68",
"p c gray70",
"a c #BCBCBC",
"s c #C29B9B",
"d c #CCA3A3",
"f c #D1A7A7",
"g c #D5AAAA",
"h c #DAAEAE",
"j c #DEB1B1",
"k c #E2B5B5",
"l c #E6B9B9",
"z c #EBBCBC",
"x c #C3C3C3",
"c c #D3C9C9",
"v c LightGray",
"b c #D7D8D8",
"n c gray87",
"m c #EFC3C3",
"M c #F2C3C3",
"N c #FBCDCD",
"B c #E4D7D7",
"V c #FED4D4",
"C c #FFDEDE",
"Z c #DFE0E0",
"A c #E3E2E2",
"S c #EAE9E9",
"D c #FFE1E1",
"F c #F1E8E8",
"G c #FFECEC",
"H c #F7F0F0",
"J c #FEF4F4",
"K c #FEFEFE",
"L c black",
"P c None",
/* pixels */
"PPPPPPPPni5-455448aAPPPPPPPP",
"PPPPPPBi5iAKKKKKKni8aAPPPPPP",
"PPPPPx4aKKKKKKKKKKKJp8vPPPPP",
"PPPSi5SKKKKKKKKKKKKKKA8xPPPP",
"PPPi7JKKKKKKKKKKKKKKKKH8xPPP",
"PPx4JKKKKKKKKKKKKKKKKKKF8bPP",
"Pn-BKKKKKKKKKKKKKKKKKKKKc8SP",
"Pu6JKKKKKKKKKKJKKKKKKKKKJ<hP",
"n*gVGKKKKKKKKKKKKKKKKKKGVr-P",
"p:MMMCKKKKKKKKKKKKKKKKCmzk%v",
",qMzmzCKKKKKKKKKKKKKKVllll>u",
"@dzzzzMGKKKKKKKKKKKKDzkkjl9,",
"ogzkkkkNKKKKKKKKKKKJzjjjjjr$",
"ogkkkkkkCKKKKKKKKKKNjhjhjjt$",
"XgjhhjhkDKKKKKKKKKKVhgggggr@",
"XdhhhghVKKKKKKKKKKKKmggffgq$",
"@rggggzJKKKKKKKKKKKKGhddff2-",
",3gddhDKKKKKKKKKKKKKKVddsd&u",
"p#dddNKKKKKKKJKKKKKKKKzsst@v",
"n$qdkJKKKKKKKmVKKKKKKKGfs1-P",
"Pe#dDKKKKKKKVsgGKKKKKKKNtoxP",
"Pn$9VDDDDDDVdttjCDDDCCDM;-SP",
"PPxo0syysyytttrttttttty1$bPP",
"PPPiX9trrrrrrrrrrrrwrr>OxPPP",
"PPPSiX>wrwwwrwqrwwwwq&@xPPPP",
"PPPPPx$+3qwwqqqqwqq>o=cPPPPP",
"PPPPPPZe@+;299931&X$pAPPPPPP",
"PPPPPPPPni=O   .@4aAPPPPPPPP"
};
