/* XPM */
static char *close[] = {
/* columns rows colors chars-per-pixel */
"28 28 118 2",
"   c #481A1A",
".  c #5A1212",
"X  c #561B1B",
"o  c #591C1C",
"O  c #6E0404",
"+  c #600A0A",
"@  c #6B0C0C",
"#  c #740303",
"$  c #6A1515",
"%  c #791515",
"&  c #4B2525",
"*  c #4C2929",
"=  c #592626",
"-  c #562A2A",
";  c #573737",
":  c #612E2E",
">  c #6A2E2E",
",  c #5C4242",
"<  c #5E4A4A",
"1  c #614545",
"2  c #644949",
"3  c #6C4949",
"4  c #665252",
"5  c #685555",
"6  c #7F5050",
"7  c #766B6B",
"8  c #7E6C6C",
"9  c #7C7474",
"0  c #7D7B7B",
"q  c #830101",
"w  c #8A0101",
"e  c #940000",
"r  c #9E0000",
"t  c #A30000",
"y  c #AB0000",
"u  c #B40000",
"i  c #BB0000",
"p  c #8A3535",
"a  c #C40000",
"s  c #CC0000",
"d  c #D30000",
"f  c #DA0101",
"g  c #DE1414",
"h  c #D91B1B",
"j  c #E40707",
"k  c #E51313",
"l  c #E31C1C",
"z  c #EA1D1D",
"x  c #E62323",
"c  c #E92424",
"v  c #E72828",
"b  c #F12A2A",
"n  c #E43E3E",
"m  c #ED3939",
"M  c #F33535",
"N  c #F03939",
"B  c #867575",
"V  c #817C7C",
"C  c #EE4343",
"Z  c #E84C4C",
"A  c #F34040",
"S  c #F55353",
"D  c #F55B5B",
"F  c #F95959",
"G  c #FC6969",
"H  c #EF7373",
"J  c #ED7D7D",
"K  c #FB7272",
"L  c #FB7D7D",
"P  c #858383",
"I  c #8B8383",
"U  c #8E8D8D",
"Y  c #939191",
"T  c #9F9E9E",
"R  c #A09D9D",
"E  c #A4A5A5",
"W  c #A8A0A0",
"Q  c #ACADAD",
"!  c #B1B2B2",
"~  c #BCBDBD",
"^  c #C09494",
"/  c #CF9393",
"(  c #F48E8E",
")  c #EE9797",
"_  c #FB9595",
"`  c #F49B9B",
"'  c #FD9C9C",
"]  c #DBB1B1",
"[  c #FBA3A3",
"{  c #F6AFAF",
"}  c #FCADAD",
"|  c #E7B2B2",
" . c #FCB3B3",
".. c #FCBDBD",
"X. c #C2C3C3",
"o. c #CCC7C7",
"O. c #D9C1C1",
"+. c LightGray",
"@. c #DEDFDF",
"#. c #E0C1C1",
"$. c #E9C3C3",
"%. c #FBC4C4",
"&. c #FECBCB",
"*. c #E7DBDB",
"=. c #EBDCDC",
"-. c #FCD3D3",
";. c #FEDEDE",
":. c #DFE0E0",
">. c #E4E4E4",
",. c #E9E4E4",
"<. c #E9E9E9",
"1. c #FDE3E3",
"2. c #FEECEC",
"3. c #F5F0F0",
"4. c #FEF4F4",
"5. c #FFFEFE",
"6. c black",
"7. c None",
/* pixels */
"7.7.7.7.7.7.7.7.@.! P 0 0 0 P 0 V Y ~ >.7.7.7.7.7.7.7.7.",
"7.7.7.7.7.7.*.E V T o.,.3.3.3.3.>.o.T U ! ,.7.7.7.7.7.7.",
"7.7.7.7.7.X.V W =.2.4.2.4.2.4.4.2.4.4.*.W Y +.7.7.7.7.7.",
"7.7.7.<.Q V O.1.1.1.1.1.1.;.1.1.1.1.1.1.1.O.P X.7.7.7.7.",
"7.7.7.Q B $.-.-.-.-.-.-.-.-.-.-.-.-.-.-.-.-.#.I o.7.7.7.",
"7.7.X.8 | ............%...%.$...%.%...$.%.%.%.] I +.7.7.",
"7.:.9 /  .%.%.%.%.%.%.%.{ { {  .%.%.%.%.&.&.%. .^ Y <.7.",
"7.R p ( [ 2.5.5.5.5.5.4. .` ` ..4.5.5.5.5.5.;.[ ) 6 X.7.",
">.3 a v H } 5.5.5.5.5.5.1._ _ 2.5.5.5.5.5.4.[ J n t 9 7.",
"! % f f g C  .5.5.5.5.5.5.&.%.5.5.5.5.5.5.[ Z h d s > +.",
"9 r f f f f b -.5.5.5.5.5.5.5.5.5.5.5.5. .z d d d d % E ",
"2 u d d d d f F 3.5.5.5.5.5.5.5.5.5.5.;.M d s d s d r 9 ",
"= a d s d s d j ' 5.5.5.5.5.5.5.5.5.5.K f s s s s s y 5 ",
"X a s s s s s s b ;.5.5.5.5.5.5.5.5...k a a a a a a y 1 ",
"X i s s s s a d A 2.5.5.5.5.5.5.5.5.-.c s a a a a a t 2 ",
"= i a a a a a k ..5.5.5.5.5.5.5.5.5.5._ f i i a i i r 5 ",
", y a i a a d L 5.5.5.5.5.5.5.5.5.5.5.4.S s i i i i w 9 ",
"0 w a i i a N 2.5.5.5.5.5.4.5.5.5.5.5.5.&.x i u u u @ E ",
"! $ i i i k ..5.5.5.5.5.4.G [ 5.5.5.5.5.5._ d u u y : +.",
"@.2 r u s L 5.5.5.5.5.5.' f v -.5.5.5.5.5.4.S i u q 9 7.",
"7.T @ i m 1.5.4.5.4.5.&.v y a D 2.4.5.4.4.5.%.l y = ~ 7.",
"7.:.4 e x C C C C A C c i y y s m C C C C C C g # V <.7.",
"7.7.X.- e u u y u y u y y t y t y y y y y y y q 2 +.7.7.",
"7.7.7.Q X e y t t t t t t t t t t t t t t t q ; X.7.7.7.",
"7.7.7.<.Q - q t t t t t t t r t t r t t e # , X.7.7.7.7.",
"7.7.7.7.7.X.4 + w r t r r r r r r t e q . 7 +.7.7.7.7.7.",
"7.7.7.7.7.7.:.T , . # w e e e e q O o 5 ! ,.7.7.7.7.7.7.",
"7.7.7.7.7.7.7.7.@.! 7 , &     * < V ~ >.7.7.7.7.7.7.7.7."
};
