/* XPM */
static char *close_dis[] = {
/* columns rows colors chars-per-pixel */
"32 32 128 2",
"   c #3F3232",
".  c #4F3636",
"X  c #433939",
"o  c #4C3B3B",
"O  c #543838",
"+  c #5C3B3B",
"@  c #633D3D",
"#  c #4F4444",
"$  c #4F4848",
"%  c #554343",
"&  c #554D4D",
"*  c #5D4B4B",
"=  c #555050",
"-  c #5C5656",
";  c #5E5959",
":  c #634141",
">  c #6B4343",
",  c #754747",
"<  c #714949",
"1  c #7C4C4C",
"2  c #605C5C",
"3  c #666262",
"4  c #6C6666",
"5  c #6D6C6C",
"6  c #706D6D",
"7  c #737171",
"8  c #787777",
"9  c #7C7B7B",
"0  c #824F4F",
"q  c #855151",
"w  c #8C5454",
"e  c #945959",
"r  c #9D5E5E",
"t  c #A36262",
"y  c #AA6666",
"u  c #AE6969",
"i  c #B46C6C",
"p  c #B96F6F",
"a  c #BD7171",
"s  c #C47575",
"d  c #C77878",
"f  c #CB7A7A",
"g  c #D17E7E",
"h  c #848383",
"j  c #8F8686",
"k  c #8D8C8C",
"l  c #9A8989",
"z  c #9D9D9D",
"x  c #A09C9C",
"c  c #A4A3A3",
"v  c #ABACAC",
"b  c #B0A5A5",
"n  c #B2B3B3",
"m  c #BAB5B5",
"M  c #BEBCBC",
"N  c #D68181",
"B  c #DA8484",
"V  c #DD8C8C",
"C  c #DD9696",
"Z  c #E08787",
"A  c #E28A8A",
"S  c #E98F8F",
"D  c #E59393",
"F  c #EB9393",
"G  c #ED9A9A",
"H  c #CDAFAF",
"J  c #C1B3B3",
"K  c #C8BEBE",
"L  c #DFB5B5",
"P  c #E5A6A6",
"I  c #EFA1A1",
"U  c #F4A4A4",
"Y  c #F5ACAC",
"T  c #ECBBBB",
"R  c #F5B0B0",
"E  c #F8B6B6",
"W  c #F7B8B8",
"Q  c #FABABA",
"!  c #C6C6C6",
"~  c #C7C8C8",
"^  c #CACBCB",
"/  c #D0C1C1",
"(  c gray83",
")  c gray86",
"_  c #F5C4C4",
"`  c #FBC3C3",
"'  c #F6CCCC",
"]  c #FCCCCC",
"[  c #F5D2D2",
"{  c #FDD4D4",
"}  c #F5D9D9",
"|  c #FCDCDC",
" . c #E4E4E4",
".. c #EDE6E6",
"X. c #EAEAEA",
"o. c #FBE2E2",
"O. c #F2EDED",
"+. c #FDEBEB",
"@. c #F6F5F5",
"#. c #FEF4F4",
"$. c #FFFEFE",
"%. c None",
"&. c black",
"*. c black",
"=. c black",
"-. c black",
";. c black",
":. c black",
">. c black",
",. c black",
"<. c black",
"1. c black",
"2. c black",
"3. c black",
"4. c black",
"5. c black",
"6. c black",
"7. c black",
"8. c black",
"9. c black",
"0. c black",
"q. c black",
"w. c black",
"e. c black",
"r. c black",
"t. c black",
"y. c black",
"u. c black",
/* pixels */
"%.%.%.%.%.%.%.%.%.X.( z 9 5 5 5 5 5 7 h v ) X.%.%.%.%.%.%.%.%.%.",
"%.%.%.%.%.%.%.X.! k 8 z !  .O.@.@.X. .! z 9 z ( %.%.%.%.%.%.%.%.",
"%.%.%.%.%.%.) k 8 J O.$.$.#.$.$.#.$.$.$.$.X.M t v  .%.%.%.%.%.%.",
"%.%.%.%.%.! 7 c O.#.#.@.@.#.#.#.#.#.#.#.$.@.@...z k ( %.%.%.%.%.",
"%.%.%.%.M 6 K +.@.+.#.+.@.+.+.+.@.+.+.#.+.#.+.#.@.n h ( %.%.%.%.",
"%.%.%.! 5 / +.+.o.+.+.+.+.+.+.O.+.+.O.o.+.+.O.+.O.@.M t ) %.%.%.",
"%.%.) 6 J o.o.| | o.o.| | o.o.o.| o.o.| o.} o.| o.o.o.b k X.%.%.",
"%.%.j l | o.+.+.o.+.+.+.+.o.| } } } +.+.+.+.+.+.+.+.+.} j n %.%.",
"%.^ - K [ o.$.$.$.$.$.$.$.#.| [ [ | $.$.$.$.$.$.$.#.| } H 4 ) %.",
"%.t w D T ' +.$.$.$.$.$.$.$.+.] ] +.$.$.$.$.$.$.$.+.' T C > v %.",
"( = f V V P ` #.$.$.$.$.$.$.$.| | $.$.$.$.$.$.$.+._ P V B t 5  .",
"c < B B B B D ` $.$.$.$.$.$.$.$.#.$.$.$.$.$.$.#.E V N g N d * ^ ",
"7 e B N N N N S { $.$.$.$.$.$.$.$.$.$.$.$.$.$.` B N g N g g > c ",
"= u N N g g g B U +.$.$.$.$.$.$.$.$.$.$.$.$.| F g f f f f g q 9 ",
"# p f N g g g f B Q $.$.$.$.$.$.$.$.$.$.$.#.Y g d f d d d d e 4 ",
". a f f f f f f f S | $.$.$.$.$.$.$.$.$.$.` B d d d d d d d r ; ",
"o p f d f d d d f G +.$.$.$.$.$.$.$.$.$.$.{ A s s s s s s s r ; ",
"o i d s s d s s Z ] $.$.$.$.$.$.$.$.$.$.$.$.E g a s s a a a w 3 ",
"& t s s s s s d R #.$.$.$.$.$.$.$.$.$.$.$.$.+.G s a a a a a 1 9 ",
"7 0 s a a s s G +.$.$.$.$.$.$.$.$.$.$.$.$.$.$.{ B p p p p p : c ",
"c : a a p a B ] $.$.$.$.$.$.$.+.#.$.$.$.$.$.$.$.E d i p p y % ^ ",
"( & y p p s Y #.$.$.$.$.$.$.+.U ` $.$.$.$.$.$.$.+.G p i i q 4 X.",
"%.9 , p p F +.$.$.$.$.$.$.$.Q f V | $.$.$.$.$.$.$.{ N u u + v %.",
"%.~ o t g ` $.$.$.$.$.$.$.{ V u p G +.$.$.$.$.$.$.#.E a q - ) %.",
"%.%.k + g Y Y R Y R R R Y D i y y s I R R Y R R R R U p . v %.%.",
"%.%.) ; 1 p i i p i i i i y y u y y u i u i i i u i u + 9 X.%.%.",
"%.%.%.~ $ 1 t y y y y t t t y t t t t t t t t t t t @ 3 ) %.%.%.",
"%.%.%.%.M % , t t t t t t t t t t t t t t t t t r + 2 ( %.%.%.%.",
"%.%.%.%.%.~ ; + e t t t r t t t t t r t r t r q . 7 ) %.%.%.%.%.",
"%.%.%.%.%.%.) h o > w t t t r t t r t r r q + # z  .%.%.%.%.%.%.",
"%.%.%.%.%.%.%.X.! 9 # O > 0 q w w w 1 : O & k ( %.%.%.%.%.%.%.%.",
"%.%.%.%.%.%.%.%.%.X.( z 5 % X   X X & 9 n ) X.%.%.%.%.%.%.%.%.%."
};
