/* XPM */
static char *close[] = {
/* columns rows colors chars-per-pixel */
"28 44 131 2",
"   c #020202",
".  c #090909",
"X  c #151515",
"o  c #222222",
"O  c #2F2F2F",
"+  c #313131",
"@  c #3C3C3C",
"#  c #481A1A",
"$  c #5A1212",
"%  c #561B1B",
"&  c #591C1C",
"*  c #6E0404",
"=  c #600A0A",
"-  c #6B0C0C",
";  c #740303",
":  c #6A1515",
">  c #791515",
",  c #4B2525",
"<  c #4C2929",
"1  c #562626",
"2  c #592626",
"3  c #562A2A",
"4  c #573737",
"5  c #6A2E2E",
"6  c #434343",
"7  c gray31",
"8  c #5C4242",
"9  c #5E4A4A",
"0  c gray32",
"q  c gray35",
"w  c #614545",
"e  c #644949",
"r  c #6C4949",
"t  c #665252",
"y  c #685555",
"u  c #646464",
"i  c #6F6F6F",
"p  c #766B6B",
"a  c #7E6C6C",
"s  c #767676",
"d  c #7C7474",
"f  c #7C7C7C",
"g  c #830101",
"h  c #8A0101",
"j  c #940000",
"k  c #9E0000",
"l  c #A30000",
"z  c #AB0000",
"x  c #B40000",
"c  c #BB0000",
"v  c #8A3535",
"b  c #C40000",
"n  c #CC0000",
"m  c #D30000",
"M  c #DA0101",
"N  c #DE1414",
"B  c #D91B1B",
"V  c #E40707",
"C  c #E51313",
"Z  c #E31C1C",
"A  c #EA1D1D",
"S  c #E62323",
"D  c #E92424",
"F  c #E72828",
"G  c #F12A2A",
"H  c #E63131",
"J  c #ED3939",
"K  c #F33535",
"L  c #F03939",
"P  c #867575",
"I  c #817C7C",
"U  c #EE4343",
"Y  c #E84C4C",
"T  c #F34040",
"R  c #F55353",
"E  c #F55B5B",
"W  c #F95959",
"Q  c #FC6969",
"!  c #EF7373",
"~  c #ED7D7D",
"^  c #FB7272",
"/  c #FB7D7D",
"(  c #858383",
")  c #8B8383",
"_  c gray55",
"`  c #939292",
"'  c gray61",
"]  c #A09D9D",
"[  c #AA9F9F",
"{  c #A4A5A5",
"}  c #A8A0A0",
"|  c gray67",
" . c #B2B3B3",
".. c #BBBCBC",
"X. c #CF9393",
"o. c #F48E8E",
"O. c #EE9797",
"+. c #FB9595",
"@. c #F49B9B",
"#. c #FD9C9C",
"$. c #DBB1B1",
"%. c #FBA3A3",
"&. c #F6AFAF",
"*. c #FCADAD",
"=. c #E7B2B2",
"-. c #FCB3B3",
";. c #FCBDBD",
":. c #C3C3C3",
">. c #CCC7C7",
",. c gray80",
"<. c #D9C1C1",
"1. c #D3D4D4",
"2. c gray87",
"3. c #E0C1C1",
"4. c #E9C3C3",
"5. c #FBC4C4",
"6. c #FECBCB",
"7. c #E7DBDB",
"8. c #FCD3D3",
"9. c #FEDEDE",
"0. c #DFE0E0",
"q. c gray89",
"w. c #E9E4E4",
"e. c #E9E9E9",
"r. c #FDE3E3",
"t. c #FEECEC",
"y. c #F5F0F0",
"u. c #FEF4F4",
"i. c #FFFEFE",
"p. c black",
"a. c None",
/* pixels */
"a.a.a.a.a.a.a.a.2. .( s d ( f f I ` ..0.a.a.a.a.a.a.a.a.",
"a.a.a.a.a.a.2.{ I ' >.w.y.u.u.y.w.>.] _  .w.a.a.a.a.a.a.",
"a.a.a.a.a.:.I } 7.u.u.y.y.t.t.u.u.u.u.7.{ _ 1.a.a.a.a.a.",
"a.a.a.e.| P <.r.r.r.9.9.r.r.r.r.r.r.r.r.r.<.) :.a.a.a.a.",
"a.a.a.| P 4.8.8.8.8.8.8.8.8.8.8.8.8.8.8.8.8.3.) >.a.a.a.",
"a.a.:.a =.5.;.;.;.;.;.5.;.5.;.5.5.5.5.5.4.5.5.$.) 1.a.a.",
"a.7.d X.-.5.5.5.5.5.5.5.&.&.&.*.5.5.5.5.6.5.5.-.[ ` e.a.",
"a.] v o.%.t.i.i.i.i.i.u.;.O.@.;.u.i.i.i.i.i.9.%.%.v :.a.",
"0.r c H ! *.i.i.i.i.i.i.t.+.+.t.i.i.i.i.i.u.%.~ U k d a.",
" .> M M N U -.i.i.i.i.i.i.5.5.i.i.i.i.i.i.%.Y B m b 5 1.",
"d k M M M M G 8.i.i.i.i.i.i.i.i.i.i.i.i.-.A m m m m > { ",
"w c M m m m M W u.i.i.i.i.i.i.i.i.i.i.r.K m m n n m k s ",
"2 b m m n m m V #.i.i.i.i.i.i.i.i.i.i.^ M n n n n n z y ",
"% b n n n n n n G 9.i.i.i.i.i.i.i.i.;.C b n b b b b z w ",
"% c n n b n b m T t.i.i.i.i.i.i.i.i.6.D b b b b b b l w ",
"1 c b b b b b C ;.i.i.i.i.i.i.i.i.i.i.+.M c c b c c k y ",
"w l b b b b m / i.i.i.i.i.i.i.i.i.i.i.u.R b c c c c h d ",
"d h c c c b T r.i.i.i.i.i.u.u.i.i.i.i.i.6.S c x x c - { ",
" .: c c c N ;.i.i.i.i.i.u.Q %.i.i.i.i.i.i.+.m x x z 3 1.",
"q.e k x n / i.i.i.i.i.i.#.M F 9.i.i.i.i.i.u.R b x g d a.",
"a.} = c L 9.i.i.i.i.u.6.S x c E t.i.u.i.u.i.5.Z z & :.a.",
"a.0.y j S U U J J U U F c z z n J U U U U J U N ; I e.a.",
"a.a.:.3 k z z x x z z z z l l l z z z z z z z g 9 1.a.a.",
"a.a.a.| 1 j z l l l z l z l l l l l l l l l g 4 :.a.a.a.",
"a.a.a.e.| 3 g l l l l l k l l l l k l l k ; 8 :.a.a.a.a.",
"a.a.a.a.a.:.t = h l l l k k k k k k k g $ p 1.a.a.a.a.a.",
"a.a.a.a.a.a.2.' w $ ; g j j j j g * % y  .q.a.a.a.a.a.a.",
"a.a.a.a.a.a.a.a.2.| d 8 , # # < 9 I ..q.a.a.a.a.a.a.a.a.",
"a.a.a.a.a.a.a.a.a.a.a.a.a.a.a.a.a.a.a.a.a.a.a.a.a.a.a.a.",
"a.a.a.a.a.a.a.a.a.a.a.a.a.a.a.a.a.a.a.a.a.a.a.a.a.a.a.a.",
"a.a.a.a.a.a.a.a.a.a.a.a.a.a.a.a.a.a.a.a.a.a.a.a.a.a.a.a.",
"a.a.a.a.a.a.a.a.a.a.a.a.a.a.a.a.a.a.a.a.a.a.a.a.a.a.a.a.",
"a.' o . X 6 a.a.  a.a.a.a.a.a.a.a.a.a.a.a.a.a.a.a.a.a.a.",
"' X  .q.,.` a.a.  a.a.a.a.a.a.a.a.a.a.a.a.a.a.a.a.a.a.a.",
"O | a.a.a.a.a.a.  a.a.,.+ . @ 2.a.a.i . X a.a.a.1.6 . o ",
". q.a.a.a.a.a.a.  a.a.6 f q.f 0 a.a.. ,.,.a.a.a.7 | q.| ",
"  2.a.a.a.a.a.a.  a.a.. 2.a.2.. a.a.s 6 | e.a.a..       ",
"O } a.a.a.a.a.a.  a.a.. 2.a.2.. a.a.a.,.u 0 a.a.. 2.a.a.",
"` X | q.1._ a.a.  a.a.6 f q.f @ a.a.{ 2.... a.a.q 0 1.q.",
"a._ o   X u a.a.  a.a.>.O   O :.a.a.@ . X _ a.a.q.q . . ",
"a.a.a.a.a.a.a.a.a.a.a.a.a.a.a.a.a.a.a.a.a.a.a.a.a.a.a.a.",
"a.a.a.a.a.a.a.a.a.a.a.a.a.a.a.a.a.a.a.a.a.a.a.a.a.a.a.a.",
"a.a.a.a.a.a.a.a.a.a.a.a.a.a.a.a.a.a.a.a.a.a.a.a.a.a.a.a.",
"a.a.a.a.a.a.a.a.a.a.a.a.a.a.a.a.a.a.a.a.a.a.a.a.a.a.a.a."
};
