/* XPM */
static char *copy_sel[] = {
/* columns rows colors chars-per-pixel */
"32 32 128 2",
"   c black",
".  c #0E0D02",
"X  c gray5",
"o  c #100E04",
"O  c #141307",
"+  c gray9",
"@  c #292616",
"#  c #3E3810",
"$  c #463E07",
"%  c #4B4203",
"&  c #514600",
"*  c #504A00",
"=  c #5A4E02",
"-  c #524A0A",
";  c #565001",
":  c #5C5000",
">  c #5F5308",
",  c #534C15",
"<  c #625501",
"1  c #655A02",
"2  c #6B5D02",
"3  c #61550B",
"4  c #6C6502",
"5  c #746400",
"6  c #726B04",
"7  c #7A6A04",
"8  c #766E0C",
"9  c #7C6D0B",
"0  c #777402",
"q  c #7A7701",
"w  c #7F7C01",
"e  c #7F700D",
"r  c #7F7012",
"t  c #4A462A",
"y  c #585022",
"u  c #595629",
"i  c #494636",
"p  c #4F4C34",
"a  c #4C4A39",
"s  c #6F682C",
"d  c #7F7B21",
"f  c #716D34",
"g  c #7F7A31",
"h  c #7F7A39",
"j  c #56554E",
"k  c #58574E",
"l  c #5E5C4E",
"z  c #565654",
"x  c #5C5B54",
"c  c #5D5D5C",
"v  c #615F52",
"b  c #626054",
"n  c gray39",
"m  c #6C6B67",
"M  c gray42",
"N  c #706F68",
"B  c #72716B",
"V  c #767676",
"C  c #7B7B7B",
"Z  c #806F08",
"A  c #827F06",
"S  c #83730C",
"D  c #807E08",
"F  c #837415",
"G  c #83741A",
"H  c #847622",
"J  c #847924",
"K  c #857E2D",
"L  c #8A7D2D",
"P  c #827C34",
"I  c #8A7E32",
"U  c #817D62",
"Y  c #838201",
"T  c #86831F",
"R  c #878429",
"E  c #888529",
"W  c #908E25",
"Q  c #8B8234",
"!  c #8D823C",
"~  c #8E8445",
"^  c #8C8940",
"/  c #8F864D",
"(  c #8E884F",
")  c #948F4A",
"_  c #8F8A52",
"`  c #908650",
"'  c #908A54",
"]  c #918958",
"[  c #969454",
"{  c #A4A354",
"}  c #A6A558",
"|  c #848066",
" . c #938D64",
".. c #B4B375",
"X. c #808080",
"o. c gray56",
"O. c #929292",
"+. c gray60",
"@. c #B9B785",
"#. c #B6B48C",
"$. c #B6B496",
"%. c #BEBDAD",
"&. c #B6B6B6",
"*. c gray75",
"=. c #C5C39F",
"-. c #C7C6A8",
";. c #C9C9AD",
":. c #C9C6BB",
">. c #CBCABB",
",. c #D0CCB3",
"<. c #D0D0B4",
"1. c #C5C5C5",
"2. c gray79",
"3. c #D6D5C5",
"4. c #D8D5C2",
"5. c #D3D2CA",
"6. c #DAD9CA",
"7. c gray84",
"8. c #DEDDDC",
"9. c #E1E0D7",
"0. c #E4E3DC",
"q. c #E7E7E5",
"w. c #E8E7E5",
"e. c #E9E8E6",
"r. c gray91",
"t. c None",
"y. c black",
"u. c black",
/* pixels */
"t.t.t.t.t.t.t.t.t.t.t.t.t.t.t.t.t.t.t.t.t.t.t.t.t.t.t.t.t.t.t.t.",
"t.t.t.t.t.t.t.t.t.t.t.t.t.t.t.t.t.t.t.t.t.t.t.t.t.t.t.t.t.t.t.t.",
"t.t.t.t.t.t.t.t.t.t.t.t.t.t.t.0.0.t.t.t.t.t.t.t.t.t.t.t.t.t.t.t.",
"t.t.t.t.t.t.t.t.t.t.0...W A w Y Y w A W ..q.t.t.t.t.t.t.t.t.t.t.",
"t.t.t.t.t.t.t.t.r.} w R ^ _  . . . .] ! E w { q.t.t.t.t.t.t.t.t.",
"t.t.t.t.t.t.t.<.w R _ ] / / ~ ~ ~ ~ ` ` ] ) Q w <.t.t.t.t.t.t.t.",
"t.t.t.t.t.t.@.q Q _ ~ ~ Q Q I L R I I Q ! ~ ' Q q @.t.t.t.t.t.t.",
"t.t.t.t.t.-.q u z v x x x x x x x x v z y I I / Q 0 =.t.t.t.t.t.",
"t.t.t.t.6.q K z +.+.+.+.+.+.+.+.+.+.+.+.b F F G I K 0 3.t.t.t.t.",
"t.t.t.t.E J I x +.+.+.+.+.+.+.+.+.+.+.+.b S S S G L J R t.t.t.t.",
"t.t.t.;.6 I L x +.O.o.O.O.O.o.O.O.O.O.+.b S S S S F Q 0 -.t.t.t.",
"t.t.t.d H J J x +.O.O.c z c c c c c c n x b x j - S G G d t.t.t.",
"t.t.q.4 J J J x +.o.O.z +.+.+.+.+.+.+.+.+.+.+.+.l S S J 4 q.t.t.",
"e.w.#.8 G H H z +.O.O.c +.+.+.+.+.O.+.+.+.+.+.+.v S S F 8 #.t.t.",
"9.6.) 8 F G H x +.+.+.c +.O.O.o.o.O.O.O.O.O.O.+.v S 9 S 8 [ t.t.",
"4.,.K 8 F G H z +.+.+.c +.O.O.O.O.O.O.O.O.O.O.+.b 7 9 e 8 Q t.t.",
"4.,.H 8 r G G x +.+.+.c +.o.o.o.o.O.o.o.o.o.O.+.b 7 7 7 7 h t.t.",
"9.6.h 6 9 r G z +.+.+.c +.+.O.O.O.O.O.O.+.+.O.+.v 6 7 7 6 P t.t.",
"r.w._ 4 9 r r i C M V c +.+.+.+.+.+.+.+.+.+.+.+.v 7 7 7 4 ] t.t.",
"t.t.$.1 9 9 r > X   X c +.+.+.+.+.+.+.+.+.+.+.+.v 7 5 7 1 $.t.t.",
"t.t.q.; 7 7 7 9 3 O + c +.+.+.+.+.+.+.+.+.+.+.+.l 7 7 6 ; q.t.t.",
"t.t.t.s 1 7 7 9 7 3 @ z +.+.+.+.+.+.+.+.+.+.+.+.v 7 7 2 s t.t.t.",
"t.t.t.>.& 7 7 5 7 7 5 i U V V +.+.+.+.+.+.+.+.+.v 7 5 * >.t.t.t.",
"t.t.t.t.f : 7 7 5 5 7 = o   X +.+.+.+.+.+.+.+.+.v 5 < f t.t.t.t.",
"t.t.t.t.8.- < 5 5 5 5 5 : O + +.+.+.+.+.+.+.+.+.v < - 8.t.t.t.t.",
"t.t.t.t.t.:.% < 5 5 5 5 5 < @ N N N N N B N B m # % :.t.t.t.t.t.",
"t.t.t.t.t.t.%.% < 5 5 5 5 2 5 5 5 5 2 5 5 5 5 = % %.t.t.t.t.t.t.",
"t.t.t.t.t.t.t.5., $ > 2 5 5 5 2 5 2 5 5 2 < & , 5.t.t.t.t.t.t.t.",
"t.t.t.t.t.t.r.7.2.U $ $ = 1 < 2 2 1 1 = % $ U 1.7.r.t.t.t.t.t.t.",
"t.t.t.t.t.t.t.t.r.8.*.c p t t t t t t a j &.8.q.t.t.t.t.t.t.t.t.",
"t.t.t.t.t.t.t.t.r.1.U c n n n n n n n n c V 1.q.t.t.t.t.t.t.t.t.",
"t.t.t.t.t.t.t.t.r.2.X.M n M m n n n M M V o.2.r.t.t.t.t.t.t.t.t."
};
