/* XPM */
static char *copy_dis[] = {
/* columns rows colors chars-per-pixel */
"32 32 128 2",
"   c black",
".  c #161616",
"X  c #181710",
"o  c #1A1912",
"O  c #222119",
"+  c gray15",
"@  c #434137",
"#  c #444238",
"$  c #686449",
"%  c #7D774C",
"&  c #797663",
"*  c #7A7865",
"=  c #79776D",
"-  c #7C7A70",
";  c #857F52",
":  c #827D5E",
">  c #807D6D",
",  c #878051",
"<  c #8A8656",
"1  c #87825C",
"2  c #8A845C",
"3  c #948C5B",
"4  c #9A925C",
"5  c #928E6B",
"6  c #969261",
"7  c #9F9765",
"8  c #848271",
"9  c #959276",
"0  c #A39B62",
"q  c #A99F67",
"w  c #A29A69",
"e  c #ACA369",
"r  c #B6B06F",
"t  c #B8AE71",
"y  c #B5B271",
"u  c #BDB272",
"i  c #BDB873",
"p  c #C1B674",
"a  c #C5BA76",
"s  c #C5BD7A",
"d  c #C9BF7B",
"f  c #CBC27E",
"g  c #D3D17F",
"h  c #8D8B81",
"j  c #8F8E8B",
"k  c #908E81",
"l  c #91908B",
"z  c #969592",
"x  c #9A9A95",
"c  c #9B9B9B",
"v  c #A09F96",
"b  c #A1A097",
"n  c #A3A29A",
"m  c #B3B094",
"M  c #B4B298",
"N  c gray65",
"B  c gray67",
"V  c #B6B5AA",
"C  c #B8B7AC",
"Z  c #B5B4B4",
"A  c #BABAB5",
"S  c #BBBBBA",
"D  c #C7C382",
"F  c #CEC382",
"G  c #CCCA81",
"H  c #D1C684",
"J  c #D4CA85",
"K  c #D5CB8C",
"L  c #D9CE89",
"P  c #D2D287",
"I  c #DBDA84",
"U  c #D3D289",
"Y  c #DCD18C",
"T  c #C9C59E",
"R  c #C9C89C",
"E  c #D7CD92",
"W  c #D9CF93",
"Q  c #D5D293",
"!  c #DCD493",
"~  c #DCD49B",
"^  c #E0D696",
"/  c #E1D79F",
"(  c #E0DE9B",
")  c #C4C2A2",
"_  c #CCC9A2",
"`  c #D1D0A4",
"'  c #DFDBA5",
"]  c #DDDCAA",
"[  c #CAC8B1",
"{  c #D1D0B4",
"}  c #E0D7A0",
"|  c #E3DCA5",
" . c #E6DEAB",
".. c #E8DFAC",
"X. c #E0DFBE",
"o. c #E2E0A3",
"O. c #E4E0AC",
"+. c #E9E1AB",
"@. c #EBE4B4",
"#. c #EAE8B7",
"$. c #EDE6BC",
"%. c #EEE8BB",
"&. c gray77",
"*. c #CDCDCD",
"=. c #DBDACD",
"-. c #D7D7D7",
";. c #D9D8D3",
":. c #DCDCDA",
">. c #E0E0C0",
",. c #EEE9C3",
"<. c #E3E2CC",
"1. c #F0EAC6",
"2. c #F1EDCA",
"3. c #E3E3D6",
"4. c #E3E3DD",
"5. c #E8E6DD",
"6. c #F5F1D6",
"7. c #E4E4E2",
"8. c #E9E8E5",
"9. c gray92",
"0. c #F4F4F4",
"q. c gray100",
"w. c None",
"e. c black",
"r. c black",
"t. c black",
"y. c black",
"u. c black",
/* pixels */
"w.w.w.w.w.w.w.w.w.w.w.w.w.w.w.w.w.w.w.w.w.w.w.w.w.w.w.w.w.w.w.w.",
"w.w.w.w.w.w.w.w.w.w.w.w.w.w.w.w.w.w.w.w.w.w.w.w.w.w.w.w.w.w.w.w.",
"w.w.w.w.w.w.w.w.w.w.w.w.w.w.w.8.8.w.w.w.w.w.w.w.w.w.w.w.w.w.w.w.",
"w.w.w.w.w.w.w.w.w.w.9.<.] ! g I I g ! ] <.8.w.w.w.w.w.w.w.w.w.w.",
"w.w.w.w.w.w.w.w.8.>.U ( #.1.6.6.6.6.2.#.( P X.8.w.w.w.w.w.w.w.w.",
"w.w.w.w.w.w.w.5.Q o.,.2.,.,.$.$.%.$.,.,.2.,.' Q 5.w.w.w.w.w.w.w.",
"w.w.w.w.w.w.<.G +.,.$.#.@.+. . .+.+.+.@.#.$.2. .G <.w.w.w.w.w.w.",
"w.w.w.w.w.3.f 9 j c x x x x z z x x c l 5 +.#.$.O.f 3.w.w.w.w.w.",
"w.w.w.w.7.D | l q.q.q.q.q.q.q.q.q.q.q.q.v ^ ^ ^ +.' D 7.w.w.w.w.",
"w.w.w.w.` ~ +.x q.q.q.q.q.q.q.q.q.q.q.q.n Y Y Y ! o.~ ` w.w.w.w.",
"w.w.w.3.i | | z q.0.9.0.0.0.0.0.0.0.0.q.n Y Y Y Y !  .i 3.w.w.w.",
"w.w.w.R ~ } } z q.0.0.c j c x c c c c c z x x h 2 Y ~ Q R w.w.w.",
"w.w.8.y ~ ' / z q.9.9.z q.q.q.q.q.q.q.q.q.q.q.q.x L K ~ y 8.w.w.",
"9.9.=.f W ~ / z q.0.0.c q.q.q.q.q.q.q.q.q.q.q.q.n L L W f =.w.w.",
"8.8.{ s K ~ ~ z q.q.q.c q.0.0.9.0.0.9.0.0.0.0.q.n L J L D { w.w.",
"8.5.R D K ~ W z q.q.q.c q.0.0.0.0.9.0.0.0.0.0.q.n J H J D ) w.w.",
"8.5.T D K E W z q.q.q.z q.9.9.0.9.9.9.0.9.9.0.q.v d f f d ) w.w.",
"8.8.) i J K E z q.q.q.c q.q.0.0.0.q.0.0.q.0.q.q.b a d f a ) w.w.",
"8.9.[ t H K K = *.S &.c q.q.q.q.q.q.q.q.q.q.q.q.b a d f r [ w.w.",
"w.w.=.0 F F H w o   . c q.q.q.q.q.q.q.q.q.q.q.q.b s d f 0 =.w.w.",
"w.w.9.6 s F F F 7 O + c q.q.q.q.q.q.q.q.q.q.q.q.v d d s 6 9.w.w.",
"w.w.w.m e d d F d 0 @ z q.q.q.q.q.q.q.q.q.q.q.q.v f d e m w.w.w.",
"w.w.w.:.< a d d s a a = *.S &.q.q.q.q.q.q.q.q.q.b d a < :.w.w.w.",
"w.w.w.w.M 0 a s s a a 4 X   . q.q.q.q.q.q.q.q.q.b a 0 M w.w.w.w.",
"w.w.w.w.8.5 0 a a p a a 4 O + q.q.q.q.q.q.q.q.q.v 0 5 7.w.w.w.w.",
"w.w.w.w.w.:.; 0 p p p p p 4 @ A A A A A A A S V $ ; :.w.w.w.w.w.",
"w.w.w.w.w.w.;.1 4 p p u u p p u p u u u u p p 4 1 ;.w.w.w.w.w.w.",
"w.w.w.w.w.w.w.7.9 ; 0 u t u u u u u u u u 0 , 9 4.w.w.w.w.w.w.w.",
"w.w.w.w.w.w.9.:.-.Z > % 3 q e t t e q 3 % * V -.4.9.w.w.w.w.w.w.",
"w.w.w.w.w.w.w.w.9.7.;.n k 8 > * & - 8 h x -.7.9.w.w.w.w.w.w.w.w.",
"w.w.w.w.w.w.w.w.9.:.S N N N N N N N N N N Z :.9.w.w.w.w.w.w.w.w.",
"w.w.w.w.w.w.w.w.9.:.S B B B B B B B V B Z &.:.9.w.w.w.w.w.w.w.w."
};
