/* XPM */
static char *copy_dis[] = {
/* columns rows colors chars-per-pixel */
"28 28 24 1",
"  c #C6C6C6",
". c #C8C8C8",
"X c #CECECE",
"o c #D5D5D5",
"O c #D7D7D7",
"+ c gray86",
"@ c gainsboro",
"# c #DFDFDF",
"$ c gray89",
"% c #E6E6E6",
"& c #E7E7E7",
"* c gray91",
"= c #ECECEC",
"- c #EFEFEF",
"; c gray94",
": c #F1F1F1",
"> c #F3F3F3",
", c #F4F4F4",
"< c #F8F8F7",
"1 c #F9F9F9",
"2 c #FBFBFB",
"3 c #FDFDFD",
"4 c black",
"5 c None",
/* pixels */
"5555555555555555555555555555",
"5555555555555555555555555555",
"5555555555555555555555555555",
"5555555%@++++++++++@+$*55555",
"555555*+%:::::::::::;$@*5555",
"555555@%331:::,:::::::o@5555",
"555555+=3=@$$$$$$$$$$$%+@*55",
"555555@=,@,3333333133331@%55",
"555555@==%33131331331313*@55",
"555555@**%31111111111113*@55",
"555555+**%11111111111111*@55",
"555555+%$%1,11,,:,,,,1,1*@55",
"555555@$$$1,:=========:,*@55",
"555555@%$%:====:========$@55",
"555555@%%@==:==:=:=::==:$@55",
"555555@%%@:=::=::=:=::=:$@55",
"555555@%%%::=:::::::::::$@55",
"555555@*%@::::::::::::::%@55",
"555555@%%$,:::::::::,::,%@55",
"555555@X.%,:,,,,,,,,,:,,%@55",
"555555*@.$,,,,,,,,,,,,,1%@55",
"5555555*@o@@@@%,,<,<,,1,%@55",
"55555555%o    o,1,,,,1,1*@55",
"555555555%+.  @,11111,11*@55",
"5555555555*+  o111111111*@55",
"55555555555*+ o111111112%@55",
"555555555555*+o=:=::=:=%@*55",
"5555555555555*@++@o@@o++%555"
};
