/* XPM */
static char *copy_sel[] = {
/* columns rows colors chars-per-pixel */
"32 32 256 2",
"   c black",
".  c gray12",
"X  c #221E0A",
"o  c #232324",
"O  c #3C3825",
"+  c gray24",
"@  c #6F5F09",
"#  c #6A5D17",
"$  c #675B1F",
"%  c #73630B",
"&  c #7B6A0D",
"*  c #766813",
"=  c #7B6D14",
"-  c #746718",
";  c #786B1C",
":  c #7F711C",
">  c #514A23",
",  c #59512E",
"<  c #524E3B",
"1  c #675C21",
"2  c #695D22",
"3  c #665D2B",
"4  c #655E36",
"5  c #625B3B",
"6  c #6C6025",
"7  c #796C21",
"8  c #7F7927",
"9  c #6B6336",
"0  c #67603D",
"q  c #686138",
"w  c #3F4042",
"e  c #515151",
"r  c #615D45",
"t  c #666042",
"y  c #6B6442",
"u  c #696553",
"i  c #6A685B",
"p  c gray40",
"a  c DimGray",
"s  c #74726D",
"d  c #767676",
"f  c gray49",
"g  c #816F0C",
"h  c #86730B",
"j  c #8A750A",
"k  c #8E790B",
"l  c #917C0C",
"z  c #837412",
"x  c #867A12",
"c  c #8C7D12",
"v  c #847419",
"b  c #927E13",
"n  c #927F18",
"m  c #837420",
"M  c #877823",
"N  c #887824",
"B  c #87782B",
"V  c #857833",
"C  c #857B3E",
"Z  c #95800E",
"A  c #8E8116",
"S  c #968112",
"D  c #998410",
"F  c #928A15",
"G  c #93811B",
"H  c #988519",
"J  c #968F1C",
"K  c #97911B",
"L  c #99941D",
"P  c #8D842D",
"I  c #938323",
"U  c #918825",
"Y  c #94842B",
"T  c #938C2B",
"R  c #9A9620",
"E  c #9E9A21",
"W  c #9C962C",
"Q  c #8D8233",
"!  c #8F873F",
"~  c #948632",
"^  c #948B33",
"/  c #91853C",
"(  c #928C3B",
")  c #9C9234",
"_  c #9F9A31",
"`  c #9C933C",
"'  c #A19D31",
"]  c #A3A032",
"[  c #8C8245",
"{  c #8E854E",
"}  c #908542",
"|  c #908945",
" . c #908648",
".. c #9C9446",
"X. c #A39C46",
"o. c #A49D55",
"O. c #ACA944",
"+. c #A8A04E",
"@. c #AFAB4B",
"#. c #B5B25A",
"$. c #9D9773",
"%. c #A49C6D",
"&. c #A7A06A",
"*. c #ACA86B",
"=. c #B3AF68",
"-. c #B9B663",
";. c #BAB669",
":. c #ABA472",
">. c #B1AB7E",
",. c #BEBB73",
"<. c #BAB77A",
"1. c #C2C07A",
"2. c #828283",
"3. c #8B8C8C",
"4. c #8D8E91",
"5. c #939393",
"6. c #979799",
"7. c gray60",
"8. c #ABA78B",
"9. c #ADA98C",
"0. c #B5AF85",
"q. c #B6B280",
"w. c #B9B48B",
"e. c #A8A592",
"r. c #B1AD95",
"t. c #B0AD9A",
"y. c #BDB796",
"u. c #B4B19D",
"i. c #BBB79A",
"p. c #A2A1A1",
"a. c #ADACAC",
"s. c #B0AFAF",
"d. c #B4B2A1",
"f. c #B8B6A9",
"g. c #B2B1B1",
"h. c #B8B7B7",
"j. c #BEBCB0",
"k. c #BCBBBC",
"l. c #C2BC9F",
"z. c #C0BFBF",
"x. c #C5C383",
"c. c #C7C28D",
"v. c #C9C68D",
"b. c #C9C88C",
"n. c #CCC694",
"m. c #CAC997",
"M. c #C6C599",
"N. c #CECC9B",
"B. c #CFCCA6",
"V. c #CECDA9",
"C. c #D0CDA4",
"Z. c #D8D7B5",
"A. c #D8D8B7",
"S. c #D7D3BA",
"D. c #D9D7BC",
"F. c #DAD9BF",
"G. c gray76",
"H. c #C8C7C2",
"J. c #CCCCC6",
"K. c #CBCACA",
"L. c #D4D3C1",
"P. c #DBD7C2",
"I. c #DCDAC5",
"U. c #D9D7CC",
"Y. c #DDDBCA",
"T. c #CFCFD0",
"R. c LightGray",
"E. c #DFDED3",
"W. c #DDDDDD",
"Q. c #E0DFCE",
"!. c #E0DFD3",
"~. c #E3E2D5",
"^. c #E4E3DC",
"/. c #E5E4E3",
"(. c #E9E8E6",
"). c #E9E9E9",
"_. c None",
"`. c black",
"'. c black",
"]. c black",
"[. c black",
"{. c black",
"}. c black",
"|. c black",
" X c black",
".X c black",
"XX c black",
"oX c black",
"OX c black",
"+X c black",
"@X c black",
"#X c black",
"$X c black",
"%X c black",
"&X c black",
"*X c black",
"=X c black",
"-X c black",
";X c black",
":X c black",
">X c black",
",X c black",
"<X c black",
"1X c black",
"2X c black",
"3X c black",
"4X c black",
"5X c black",
"6X c black",
"7X c black",
"8X c black",
"9X c black",
"0X c black",
"qX c black",
"wX c black",
"eX c black",
"rX c black",
"tX c black",
"yX c black",
"uX c black",
"iX c black",
"pX c black",
"aX c black",
"sX c black",
"dX c black",
"fX c black",
"gX c black",
"hX c black",
"jX c black",
"kX c black",
"lX c black",
"zX c black",
"xX c black",
"cX c black",
"vX c black",
"bX c black",
"nX c black",
"mX c black",
"MX c black",
"NX c black",
"BX c black",
"VX c black",
"CX c black",
"ZX c black",
"AX c black",
"SX c black",
"DX c black",
"FX c black",
"GX c black",
"HX c black",
"JX c black",
"KX c black",
"LX c black",
"PX c black",
"IX c black",
"UX c black",
/* pixels */
"_._._._._._._._._._._._._._._._._._._._._._._._._._._._._._._._.",
"_._._._._._._._._._._.^.A.N.b.x.x.b.N.A.~.)._._._._._._._._._._.",
"_._._._._._._._.).Q.n.#.] R L L L L L ] #.v.Q.)._._._._._._._._.",
"_._._._._._._./.C.@.L T ` | { { { { | ( T L O.N.^._._._._._._._.",
"_._._._._._.^.1.E T [ [ } } / / ( / [ }  .| ^ R ,.~._._._._._._.",
"_._._._._.^.#.L M 5 t t r 0 0 q 0 0 0 q V } } ^ L #.~._._._._._.",
"_._._._./.,.L P r 3.5.5.5.5.5.5.5.5.5.2.4 Y ~ / T J ;./._._._._.",
"_._._.).m.K T B u 7.6.7.7.7.7.7.6.7.6.6.t G H H Y U K v.)._._._.",
"_._._.I.' U ~ B u 7.7.5.5.5.5.5.6.5.5.7.0 Z D D H Y T _ D._._._.",
"_._.(.x.F Y Y B u 7.5.5.4.f a p p p a a < 2 2 - - G U F ,./._._.",
"_._.I.' I Y Y M u 7.5.5.2.p 3.3.3.3.3.3.3.3.3.3.s - H I W F._._.",
"_._.B.F Y n Y M u 7.5.5.d s 6.6.7.7.7.7.7.7.7.7.3.2 S I F m._._.",
")./.<.S G I I M u 7.7.6.f d 7.6.6.5.7.5.5.5.5.7.3.6 D G A =./._.",
"^.P.o.c n I Y M u 7.7.7.f d 7.5.4.4.4.5.5.4.5.5.3.2 Z S A X.!._.",
"I.B.' n G n Y M u 7.7.7.f d 7.5.3.5.5.4.4.5.4.6.3.2 Z Z c ) Y._.",
"I.C.^ n n G n M u 7.7.7.f d 7.5.5.3.5.5.5.4.5.5.3.2 l l A ^ Y._.",
"^.S.` c H n n v u 7.7.7.f d 6.6.5.5.5.5.5.5.5.7.3.$ l l c ^ Y._.",
"(.!.o.c b n n z u 7.7.7.f d 6.7.7.7.6.e.7.7.7.7.3.2 l l k ..E._.",
"_.(.q.x b b b z u 7.7.7.f d 7.7.7.7.7.7.7.7.7.7.3.2 l l x *./._.",
"_._.V.v k b b z u 7.7.7.f d 7.7.7.7.7.7.7.7.7.7.3.2 l l x M._._.",
"_._.Y.^ z l b z 5 4.5.6.f d 7.7.7.7.7.7.7.7.7.7.3.6 l j P P._._.",
"_._.).w.z k l l g 3 9 4 , s 7.7.7.7.7.7.7.5.5.4.2.$ k = 0.(._._.",
"_._._.U.Q h l k l k l l % s 7.7.7.7.7.7.7.e . o O & h Q L._._._.",
"_._._.(.l.v j k l k k l & s 7.7.7.7.7.7.7.+   X @ h v y.(._._._.",
"_._._._./.>.= h k k k l & i 7.7.7.7.6.6.6.w X % h = :./._._._._.",
"_._._._._.^.:.= g j k k j # 4 0 y y y y y > @ h = &.^._._._._._.",
"_._._._._._./.0.m & h j k j j j j j j j h h & v >.^._._._._._._.",
"_._._._._.).).!.d.{ = = g j j j j h h g & * [ t.E./.)._._._._._.",
"_._._._._.(.R./.).U.i.%.B ; - * & * ; C $.e.K.W.K.K./._._._._._.",
"_._._._._.)./.(.).).W.T.H.z.t.8.8.r.f.K.R.T.R.W.W./.)._._._._._.",
"_._._._._._._._.).W.G.g.h.z.k.k.k.k.a.a.a.a.s.z.W.)._._._._._._.",
"_._._._._._._._.).W.K.h.z.z.h.s.g.a.p.p.p.p.p.a.K.(._._._._._._."
};
