/* XPM */
static char *copy[] = {
/* columns rows colors chars-per-pixel */
"28 44 76 1",
"  c #020202",
". c gray2",
"X c gray3",
"o c #0E0E0E",
"O c #131313",
"+ c #161616",
"@ c gray9",
"# c #1D1D1D",
"$ c #202020",
"% c gray13",
"& c #252525",
"* c gray18",
"= c #313131",
"- c #353535",
"; c #393939",
": c gray24",
"> c #434343",
", c #444444",
"< c #494949",
"1 c #535353",
"2 c #555555",
"3 c #5F5F5F",
"4 c #646464",
"5 c #676767",
"6 c #717171",
"7 c #797979",
"8 c gray49",
"9 c gray51",
"0 c #868686",
"q c #898989",
"w c gray55",
"e c #929292",
"r c gray58",
"t c #9A9A9A",
"y c gray64",
"u c #A4A4A4",
"i c #A9A9A9",
"p c gray67",
"a c gray70",
"s c #B6B6B6",
"d c #C3C3C3",
"f c #C6C6C6",
"g c gray78",
"h c #C8C8C8",
"j c #CBCBCB",
"k c #CECECE",
"l c #D2D2D2",
"z c gray83",
"x c gray84",
"c c #D7D7D7",
"v c gray85",
"b c gray86",
"n c #DDDDDD",
"m c #DFDFDF",
"M c gray88",
"N c gray89",
"B c #E4E4E4",
"V c #E7E7E7",
"C c gray91",
"Z c gray92",
"A c #EEEEEE",
"S c #EFEFEF",
"D c #F0EFEF",
"F c #F1F1F0",
"G c #F3F3F3",
"H c #F4F3F4",
"J c #F4F4F4",
"K c gray97",
"L c #F8F7F7",
"P c #F7F8F7",
"I c gray98",
"U c #FBFBFB",
"Y c gray99",
"T c #FDFDFD",
"R c black",
"E c None",
/* pixels */
"EEEEEEEEEEEEEEEEEEEEEEEEEEEE",
"EEEEEEEEEEEEEEEEEEEEEEEEEEEE",
"EEEEEEEEEEEEEEEEEEEEEEEEEEEE",
"EEEEEEEVnvnvnvnvnvvnvBCEEEEE",
"EEEEEEVvCAFFFFFFFFFFFNvCEEEE",
"EEEEEEnVYYIFFKFFFFFFFDxBEEEE",
"EEEEEEvAYAvVNNVNVBNNNVnvnCEE",
"EEEEEEvAHvIYYYYYYYYYYYYLvCEE",
"EEEEEEnAAVIIIIIYIIIIIIIICnEE",
"EEEEEEnCCVIIIIIIIIIIIIIICnEE",
"EEEEEEvCVVIIIKLIIIILIIPICnEE",
"EEEEEEvVNNIIKKKKLFLFFIKICnEE",
"EEEEEEvVNNKFFAACCZACAAAFCnEE",
"EEEEEEvVVnFAAAAAAAAAAAAANnEE",
"EEEEEEnVVnAAAAAAAAAAAAAANvEE",
"EEEEEEvCVvFAADDDSDSADAAAVnEE",
"EEEEEEvVCmFFFFFFFFFFFFFFNnEE",
"EEEEEEnCVBJFFFFFFFFFFFFGNnEE",
"EEEEEEnVNNFFKFSFFFFJGFGFVbEE",
"EEEEEEnkjnLFJJKFJJFLGGGGVbEE",
"EEEEEECnhBLJKKFSLJFKGJFKCnEE",
"EEEEEEECnlnvnvVKLLKGKKKKCnEE",
"EEEEEEEECcffffxKLKKKKKKKVnEE",
"EEEEEEEEECxhffxKKKKKKKKKVnEE",
"EEEEEEEEEECvhfvPPIPIPIPICnEE",
"EEEEEEEEEEECvfxIIIIIIIIINNEE",
"EEEEEEEEEEEECvxDFFFFFFFVxVEE",
"EEEEEEEEEEEEECvvcccxvxxnCEEE",
"EEEEEEEEEEEEEEEEEEEEEEEEEEEE",
"EEEEEEEEEEEEEEEEEEEEEEEEEEEE",
"EEEEEEEEEEEEEEEEEEEEEEEEEEEE",
"EEEEEEEEEEEEEEEEEEEEEEEEEEEE",
"EEr&.O,EEEEEEEEEEEEEEEEEEEEE",
"Et$aNkeEEEEEEEEEEEEEEEEEEEEE",
"E*iEEEEEEk=.:vEE qo#sE*0EEu=",
"E.NEEEEEE>8N82EE 9nq-Ee&CE:r",
"E.NEEEEEEXnEnoEE EEnXENosd@V",
"E*uEEEEEEXnEn.EE EEvXEE5136E",
"Er@pNlqEE>7N8;EE tN6<EEf.olE",
"EEw$ @4EEh=.*fEE 6.=kEEE:1EE",
"EEEEEEEEEEEEEEEE EEEEEEV#sEE",
"EEEEEEEEEEEEEEEE EEEEEEr=CEE",
"EEEEEEEEEEEEEEEEEEEEEEEEEEEE",
"EEEEEEEEEEEEEEEEEEEEEEEEEEEE"
};
