/* XPM */
static char *copy_dis[] = {
/* columns rows colors chars-per-pixel */
"28 28 13 1",
"  c gray85",
". c gray86",
"X c #DFDFDF",
"o c gray89",
"O c #E4E4E4",
"+ c gray91",
"@ c gray93",
"# c gray95",
"$ c #F4F4F4",
"% c #F9F9F9",
"& c gray100",
"* c black",
"= c None",
/* pixels */
"============================",
"============================",
"============================",
"=======+OOOOOOOOOOOOOO+=====",
"======+O&&&&&&&&&&&&&$O+====",
"======o&&&&&&&&&&&&&&&@O====",
"======O&&&$%%%%%%%%%%%$@O+==",
"======O&&#&&&&&&&&&&&&&&#+==",
"======O&&&&&&&&&&&&&&&&&&O==",
"======O&&%&&&&&&&&&&&&&&&O==",
"======O&&&&&&&&&&&&&&&&&&O==",
"======O%%%&&&&&&&&&&&&&&&O==",
"======O%%&&&&&&&&&&&&&&&&O==",
"======O&%$&&&&&&&&&&&&&&%o==",
"======o&&$&&&&&&&&&&&&&&%O==",
"======o&&$&&&&&&&&&&&&&&%O==",
"======O&&$&&&&&&&&&&&&&&%O==",
"======O&&$&&&&&&&&&&&&&&%O==",
"======O&%%&&&&&&&&&&&&&&%O==",
"======ooo$&&&&&&&&&&&&&&&O==",
"======+O.%&&&&&&&&&&&&&&&o==",
"=======+O+####%&&&&&&&&&&O==",
"========OO....+&&&&&&&&&&O==",
"=========oX...@&&&&&&&&&&O==",
"==========+o..@&&&&&&&&&&O==",
"===========+o.@&&&&&&&&&%O==",
"============+o+&&&&&&&&&O+==",
"=============+OOOOOOOOOO+==="
};
