/* XPM */
static char *copy_dis[] = {
/* columns rows colors chars-per-pixel */
"32 32 256 2",
"   c black",
".  c #363327",
"X  c #3B382B",
"o  c #343434",
"O  c #3C3C3D",
"+  c #636154",
"@  c #656565",
"#  c #6C6C6E",
"$  c #888369",
"%  c #89867A",
"&  c #948F77",
"*  c #ADA57E",
"=  c #B9AF75",
"-  c #B1A87A",
";  c #BDB278",
":  c #C2B77B",
">  c #C5BA7E",
",  c gray53",
"<  c #A29F8C",
"1  c #AAA483",
"2  c #AFA881",
"3  c #AAA68D",
"4  c #ACA88E",
"5  c #B2AA83",
"6  c #B3AD8F",
"7  c #AAA691",
"8  c #AEAC9E",
"9  c #B3AE97",
"0  c #A5A5A5",
"q  c #AFACA1",
"w  c gray67",
"e  c #B1AFA7",
"r  c #B1B2B2",
"t  c #BEBEBB",
"y  c #C4BB86",
"u  c #CABF83",
"i  c #C6BE8D",
"p  c #CDC182",
"a  c #CFC489",
"s  c #D1C78B",
"d  c #D5CA8C",
"f  c #D9CC8A",
"g  c #DDD18D",
"h  c #C9C193",
"j  c #CFC896",
"k  c #C9C299",
"l  c #CFC99E",
"z  c #D0C794",
"x  c #D3CB94",
"c  c #D2CB9C",
"v  c #DFD393",
"b  c #D4D09A",
"n  c #DCD69A",
"m  c #E3D58F",
"M  c #E2D692",
"N  c #E6D994",
"B  c #ECDE95",
"V  c #E1D69C",
"C  c #E3DA9B",
"Z  c #E9DF9B",
"A  c #EFE196",
"S  c #EBE29E",
"D  c #F0E297",
"F  c #F2E49B",
"G  c #F7E99E",
"H  c #F9EA9E",
"J  c #CDC9AC",
"K  c #DFD6A6",
"L  c #DBD5AC",
"P  c #CDC9B2",
"I  c #C3C2BD",
"U  c #D8D4B0",
"Y  c #DCD8B1",
"T  c #E0D7A3",
"R  c #E2D8A0",
"E  c #E2DEB4",
"W  c #E1DEBB",
"Q  c #ECE4A2",
"!  c #ECE8A6",
"~  c #E8E2A9",
"^  c #F3E7A2",
"/  c #F5E9A5",
"(  c #FCEEA3",
")  c #F4EBAC",
"_  c #FBEFAA",
"`  c #FFF1A4",
"'  c #F6F3AE",
"]  c #FAF4AD",
"[  c #E5E1B5",
"{  c #E9E4B7",
"}  c #EDEAB7",
"|  c #E5E1B9",
" . c #E9E5BD",
".. c #EFE9BB",
"X. c #F5EDB2",
"o. c #F8ECB0",
"O. c #F1EBBC",
"+. c #F6F2B4",
"@. c #F8F6B3",
"#. c #F6F5BE",
"$. c gray77",
"%. c gray80",
"&. c #D3D0C2",
"*. c #DAD7C4",
"=. c #DDDAC6",
"-. c #D4D3CC",
";. c #DCDACC",
":. c LightGray",
">. c #DCDBD3",
",. c gainsboro",
"<. c #E0DECD",
"1. c #E2DFD3",
"2. c #E3E0C1",
"3. c #E9E6C3",
"4. c #EEE8C2",
"5. c #E3E1CB",
"6. c #ECEBCD",
"7. c #F1EAC1",
"8. c #F0EFCC",
"9. c #F4F2C5",
"0. c #F3F1CB",
"q. c #E2E0D3",
"w. c #E8E7D7",
"e. c #EDECD4",
"r. c #E1E0DF",
"t. c #EDECDA",
"y. c #F0EFD4",
"u. c #F0F0D1",
"i. c #E5E5E4",
"p. c #EAEAE4",
"a. c #E7E7E8",
"s. c #EAEAEA",
"d. c #EFEFF1",
"f. c #F3F3F3",
"g. c #FEFEFE",
"h. c None",
"j. c black",
"k. c black",
"l. c black",
"z. c black",
"x. c black",
"c. c black",
"v. c black",
"b. c black",
"n. c black",
"m. c black",
"M. c black",
"N. c black",
"B. c black",
"V. c black",
"C. c black",
"Z. c black",
"A. c black",
"S. c black",
"D. c black",
"F. c black",
"G. c black",
"H. c black",
"J. c black",
"K. c black",
"L. c black",
"P. c black",
"I. c black",
"U. c black",
"Y. c black",
"T. c black",
"R. c black",
"E. c black",
"W. c black",
"Q. c black",
"!. c black",
"~. c black",
"^. c black",
"/. c black",
"(. c black",
"). c black",
"_. c black",
"`. c black",
"'. c black",
"]. c black",
"[. c black",
"{. c black",
"}. c black",
"|. c black",
" X c black",
".X c black",
"XX c black",
"oX c black",
"OX c black",
"+X c black",
"@X c black",
"#X c black",
"$X c black",
"%X c black",
"&X c black",
"*X c black",
"=X c black",
"-X c black",
";X c black",
":X c black",
">X c black",
",X c black",
"<X c black",
"1X c black",
"2X c black",
"3X c black",
"4X c black",
"5X c black",
"6X c black",
"7X c black",
"8X c black",
"9X c black",
"0X c black",
"qX c black",
"wX c black",
"eX c black",
"rX c black",
"tX c black",
"yX c black",
"uX c black",
"iX c black",
"pX c black",
"aX c black",
"sX c black",
"dX c black",
"fX c black",
"gX c black",
"hX c black",
"jX c black",
"kX c black",
"lX c black",
"zX c black",
"xX c black",
"cX c black",
"vX c black",
"bX c black",
"nX c black",
"mX c black",
"MX c black",
"NX c black",
"BX c black",
"VX c black",
"CX c black",
"ZX c black",
"AX c black",
"SX c black",
"DX c black",
"FX c black",
"GX c black",
"HX c black",
"JX c black",
"KX c black",
"LX c black",
"PX c black",
"IX c black",
"UX c black",
/* pixels */
"h.h.h.h.h.h.h.h.h.h.h.h.h.h.h.h.h.h.h.h.h.h.h.h.h.h.h.h.h.h.h.h.",
"h.h.h.h.h.h.h.h.h.h.h.p.p.t.t.u.u.t.y.p.p.s.h.h.h.h.h.h.h.h.h.h.",
"h.h.h.h.h.h.h.h.p.p.t.8.#.@.] @.] ] @.9.0.t.s.s.h.h.h.h.h.h.h.h.",
"h.h.h.h.h.h.h.s.t.8.@.+.#.O.4.4.4.4.O.#.+.@.9.t.s.h.h.h.h.h.h.h.",
"h.h.h.h.h.h.s.u.@.+.} 3...O.X.O.O.O.O.O.7.O.X.@.u.p.h.h.h.h.h.h.",
"h.h.h.h.h.p.8.@.c 7 7 7 7 7 7 4 4 4 7 4 L O.4.X.@.8.p.h.h.h.h.h.",
"h.h.h.h.p.e.' ~ 7 a.f.f.f.f.f.f.f.f.f.,.3 o.X.X.X.' 8.s.h.h.h.h.",
"h.h.h.s.t.X.) K q g.g.g.g.g.g.g.g.g.g.g.7 ^ ] _ X.) X.y.s.h.h.h.",
"h.h.h.p.7.) X.T e g.g.f.g.f.g.f.g.f.g.g.4 ( ` ` ] ) ) ..p.h.h.h.",
"h.h.s.e.! ) X.T q g.f.d.s.%.w w w 0 w r % - 5 5 y ^ X./ 6.s.h.h.",
"h.h.p.} / o.o.R e g.g.d.,.0 i.s.s.a.s.s.s.s.p.s.t y / / } p.h.h.",
"h.h.t.! / o._ R 8 g.f.f.$.$.g.g.g.g.g.g.g.g.g.g.s.5 ( ) ! t.h.h.",
"s.s.w.Q / ) ) V e g.g.g.%.$.g.g.g.g.f.g.g.g.f.g.s.5 ( ^ Q 6.s.h.",
"p.p.4.Q / ) o.R 8 g.g.g.:.$.g.f.s.f.d.s.d.d.s.g.s.5 H ( S  .p.h.",
"p.t. .Q ^ / ) V e g.g.g.:.$.g.f.f.d.d.d.d.d.d.g.s.5 H G S [ p.h.",
"p.t.{ S / / ) V 8 g.g.g.%.$.g.f.d.d.f.d.d.d.f.f.s.* F G S [ p.h.",
"p.t.| Q ^ ^ / M e g.g.g.:.$.g.g.g.f.g.f.g.f.g.g.a.* D F S E p.h.",
"s.p.<.N ^ ^ ^ n 8 g.g.g.:.$.g.g.g.g.g.g.g.g.g.g.s.* F F N W p.h.",
"h.s.q.n F ^ / v 8 g.g.g.:.$.g.g.g.g.g.g.g.g.g.g.s.* F F n 5.s.h.",
"h.h.t.n N F F g 8 g.g.g.%.$.g.g.g.g.g.g.g.g.g.g.s.* F B n w.h.h.",
"h.h.p.Y v S F B < s.g.g.%.$.g.g.g.g.g.g.g.g.g.g.s.* F M L p.h.h.",
"h.h.s.5.x A F F p 1 6 6 & t g.g.g.g.g.g.g.f.f.f.,.* B x 5.p.h.h.",
"h.h.h.i.U v A F D A B A : I g.g.g.g.g.g.g., o O + u M L i.h.h.h.",
"h.h.h.s.q.c g A D A A D > I g.g.g.g.g.g.g.@   . = g c q.p.h.h.h.",
"h.h.h.h.s.;.z g B F A D u e g.g.g.g.g.g.g.# X ; m j =.s.h.h.h.h.",
"h.h.h.h.h.p.=.z f B A A B - 4 9 9 9 9 9 9 $ ; g j =.p.h.h.h.h.h.",
"h.h.h.h.h.h.s.;.l d M N B B m m m m m m m g d l =.a.h.h.h.h.h.h.",
"h.h.h.h.h.s.s.i.:.P i a f m m B B N m f a h P -.i.p.s.h.h.h.h.h.",
"h.h.h.h.h.s.i.i.a.i.>.*.J k i i u i i J &.-.,.i.,.,.s.h.h.h.h.h.",
"h.h.h.h.h.s.i.a.d.a.a.i.1.>.>.-.;.>.,.r.i.r.i.a.i.i.s.h.h.h.h.h.",
"h.h.h.h.h.h.h.h.s.a.r.,.,.r.,.,.,.,.,.,.,.,.,.r.a.s.h.h.h.h.h.h.",
"h.h.h.h.h.h.h.h.s.a.r.,.,.r.,.,.,.,.:.:.:.:.:.:.i.s.h.h.h.h.h.h."
};
