/* XPM */
static char *copy[] = {
/* columns rows colors chars-per-pixel */
"32 32 256 2",
"   c black",
".  c #191605",
"X  c #161616",
"o  c #221F0C",
"O  c gray15",
"+  c #433F25",
"@  c #685E1B",
"#  c #7D6D03",
"$  c #444025",
"%  c #7A7345",
"&  c #79755A",
"*  c #7C785E",
"=  c #877500",
"-  c #8A7F08",
";  c #837713",
":  c #857916",
">  c #8A7B18",
",  c #877C21",
"<  c #827628",
"1  c #827C54",
"2  c #8B800B",
"3  c #948005",
"4  c #9A8501",
"5  c #9F8A0D",
"6  c #968C12",
"7  c #A28D00",
"8  c #A59700",
"9  c #AA9206",
"0  c #AD9800",
"q  c #B89F07",
"w  c #A28E13",
"e  c #B6A605",
"r  c #BEA300",
"t  c #B5AD0B",
"y  c #BFAE0C",
"u  c #BCB503",
"i  c #92882C",
"p  c #928639",
"a  c #C1A600",
"s  c #C6AA01",
"d  c #C9AE04",
"f  c #CDB106",
"g  c #C0B00C",
"h  c #CDB20C",
"j  c #C3B90F",
"k  c #D2B60A",
"l  c #D5BA0E",
"z  c #C5B615",
"x  c #CDB312",
"c  c #D5BB15",
"v  c #DABE13",
"b  c #D0B718",
"n  c #D4BB1D",
"m  c #D6BE23",
"M  c #D8BE24",
"N  c #D7BF2A",
"B  c #C8C30C",
"V  c #D3CE00",
"C  c #DBD801",
"Z  c #CCC811",
"A  c #C7C21E",
"S  c #DCC215",
"D  c #DFC51F",
"F  c #D2D016",
"G  c #D3D019",
"H  c #DDC423",
"J  c #DBC22C",
"K  c #D8D327",
"L  c #D4D22C",
"P  c #DBC335",
"I  c #D6C836",
"U  c #DDC43A",
"Y  c #DEC83C",
"T  c #DAD03F",
"R  c #E0C627",
"E  c #E0C728",
"W  c #E1C93C",
"Q  c #E0DA34",
"!  c #968E44",
"~  c #958C48",
"^  c #858052",
"/  c #908D6B",
"(  c #8D8A70",
")  c #8E8C7F",
"_  c #B3AC66",
"`  c #B4AF6E",
"'  c #C5BE6C",
"]  c #C2BC74",
"[  c #DACF40",
"{  c #DFD44D",
"}  c #C9C45A",
"|  c #DDDA5E",
" . c #E1CB42",
".. c #E4CE4B",
"X. c #E2DD46",
"o. c #E6D14C",
"O. c #E8D34B",
"+. c #E6D353",
"@. c #E9D552",
"#. c #E3DC56",
"$. c #EAD85B",
"%. c #CCC463",
"&. c #D1CD60",
"*. c #C7C271",
"=. c #E4DB60",
"-. c #ECD964",
";. c #EEDE6F",
":. c #EDDC73",
">. c #EFDF7C",
",. c #EAE56B",
"<. c #8F8E84",
"1. c gray56",
"2. c #918F83",
"3. c #9D9A84",
"4. c #97958A",
"5. c #9A998E",
"6. c #949493",
"7. c #9B9A92",
"8. c #9B9B9B",
"9. c #A19E89",
"0. c #A4A18C",
"q. c #A1A093",
"w. c #B6B297",
"e. c #B8B59A",
"r. c gray65",
"t. c gray67",
"y. c #B4B2AC",
"u. c #BAB9AE",
"i. c gray71",
"p. c #BCBBB2",
"a. c gray73",
"s. c #CAC68C",
"d. c #D2CD83",
"f. c #D0CE8C",
"g. c #EFDF83",
"h. c #E0DF8E",
"j. c #EEE383",
"k. c #F0E086",
"l. c #F1E58D",
"z. c #F2E593",
"x. c #DCDBB5",
"c. c #D9D7BB",
"v. c #E3E2A5",
"b. c #F4EBA5",
"n. c #F5ECA9",
"m. c #E2E0B0",
"M. c gray77",
"N. c #CDCDCD",
"B. c #D9D8C9",
"V. c #D7D7D7",
"C. c #DEDCD1",
"Z. c gray86",
"A. c #E3E2C3",
"S. c #E5E5CC",
"D. c #E8E4CE",
"F. c #E6E5D7",
"G. c #E9E6D6",
"H. c #E3E2D9",
"J. c #E9E7DA",
"K. c #E4E3E2",
"L. c #E9E9E5",
"P. c #ECECEC",
"I. c #F4F4F4",
"U. c gray100",
"Y. c None",
"T. c black",
"R. c black",
"E. c black",
"W. c black",
"Q. c black",
"!. c black",
"~. c black",
"^. c black",
"/. c black",
"(. c black",
"). c black",
"_. c black",
"`. c black",
"'. c black",
"]. c black",
"[. c black",
"{. c black",
"}. c black",
"|. c black",
" X c black",
".X c black",
"XX c black",
"oX c black",
"OX c black",
"+X c black",
"@X c black",
"#X c black",
"$X c black",
"%X c black",
"&X c black",
"*X c black",
"=X c black",
"-X c black",
";X c black",
":X c black",
">X c black",
",X c black",
"<X c black",
"1X c black",
"2X c black",
"3X c black",
"4X c black",
"5X c black",
"6X c black",
"7X c black",
"8X c black",
"9X c black",
"0X c black",
"qX c black",
"wX c black",
"eX c black",
"rX c black",
"tX c black",
"yX c black",
"uX c black",
"iX c black",
"pX c black",
"aX c black",
"sX c black",
"dX c black",
"fX c black",
"gX c black",
"hX c black",
"jX c black",
"kX c black",
"lX c black",
"zX c black",
"xX c black",
"cX c black",
"vX c black",
"bX c black",
"nX c black",
"mX c black",
"MX c black",
"NX c black",
"BX c black",
"VX c black",
"CX c black",
"ZX c black",
"AX c black",
"SX c black",
"DX c black",
"FX c black",
"GX c black",
"HX c black",
"JX c black",
"KX c black",
"LX c black",
"PX c black",
"IX c black",
"UX c black",
/* pixels */
"Y.Y.Y.Y.Y.Y.Y.Y.Y.Y.Y.Y.Y.Y.Y.Y.Y.Y.Y.Y.Y.Y.Y.Y.Y.Y.Y.Y.Y.Y.Y.Y.",
"Y.Y.Y.Y.Y.Y.Y.Y.Y.Y.Y.Y.Y.Y.Y.Y.Y.Y.Y.Y.Y.Y.Y.Y.Y.Y.Y.Y.Y.Y.Y.Y.",
"Y.Y.Y.Y.Y.Y.Y.Y.Y.Y.Y.Y.Y.Y.Y.L.L.Y.Y.Y.Y.Y.Y.Y.Y.Y.Y.Y.Y.Y.Y.Y.",
"Y.Y.Y.Y.Y.Y.Y.Y.Y.Y.L.v.| K V C C V K | v.L.Y.Y.Y.Y.Y.Y.Y.Y.Y.Y.",
"Y.Y.Y.Y.Y.Y.Y.Y.L.h.G Q ,.l.n.b.b.n.l.,.Q F h.L.Y.Y.Y.Y.Y.Y.Y.Y.",
"Y.Y.Y.Y.Y.Y.Y.D.L X.j.l.j.>.:.;.;.:.>.k.z.j.X.L D.Y.Y.Y.Y.Y.Y.Y.",
"Y.Y.Y.Y.Y.Y.m.Z #.j.:.-.$.@...O.O.O.@.$.-.>.k.#.Z m.Y.Y.Y.Y.Y.Y.",
"Y.Y.Y.Y.Y.A.B ! 2.8.7.7.5.5.7.5.5.5.8.2.p @.-.:.#.B A.Y.Y.Y.Y.Y.",
"Y.Y.Y.Y.J.A { 2.U.U.U.U.U.U.U.U.U.U.U.U.9.E D E +.{ A F.Y.Y.Y.Y.",
"Y.Y.Y.Y.&.[ +.5.U.U.U.U.U.I.U.U.U.U.U.U.0.S S S H o.Y &.Y.Y.Y.Y.",
"Y.Y.Y.S.u +...4.U.I.P.I.I.I.I.I.I.I.I.U.0.v v v S H +.u S.Y.Y.Y.",
"Y.Y.Y.} I W  .4.U.I.I.8.1.8.8.8.8.8.8.8.6.5.5.) > S J I } Y.Y.Y.",
"Y.Y.P.t Y W  .4.U.P.P.6.U.U.U.U.U.U.U.U.U.U.U.U.3.S S Y t L.Y.Y.",
"P.L.x.j J Y Y 4.U.I.I.8.U.U.U.U.I.U.U.U.U.U.U.U.0.l l J j x.Y.Y.",
"L.G.d.z m P U 4.U.U.U.8.U.I.I.P.I.I.I.I.I.I.I.U.0.l l c z f.Y.Y.",
"G.S.%.z n J P 4.U.U.U.8.U.I.I.I.I.I.P.I.I.I.I.U.0.l l l z *.Y.Y.",
"G.G.} z n N N 4.U.U.U.8.U.P.P.P.P.I.P.P.I.P.I.U.9.d d k j ' Y.Y.",
"L.G.' g b m N 4.U.U.U.8.U.I.U.I.I.I.I.I.I.I.I.U.9.d d f g ] Y.Y.",
"L.L.s.e h m m * N.a.M.8.U.U.U.U.U.U.U.U.U.U.U.U.9.s d f e s.Y.Y.",
"Y.Y.c.8 h x b 5 .   X 8.U.U.U.U.U.U.U.U.U.U.U.U.9.s d f 8 c.Y.Y.",
"Y.Y.L.6 d x x x 5 o O 8.U.U.U.U.U.U.U.U.U.U.U.U.9.d d d 6 L.Y.Y.",
"Y.Y.Y._ 0 d h h d 7 + 8.U.U.U.U.U.U.U.U.U.U.U.U.9.d d 0 _ Y.Y.Y.",
"Y.Y.Y.C.2 s d d s d a & N.a.M.U.U.U.U.U.U.U.U.U.9.s s - C.Y.Y.Y.",
"Y.Y.Y.Y.` 7 s s s s a 4 .   X U.U.U.U.U.U.U.U.U.0.s 7 ` Y.Y.Y.Y.",
"Y.Y.Y.Y.K.i 7 s s s s a 7 o O U.U.U.U.U.U.U.U.U.3.8 i K.Y.Y.Y.Y.",
"Y.Y.Y.Y.Y.C.: 7 a a a a s - + u.p.u.u.u.u.u.p.y.@ ; C.Y.Y.Y.Y.Y.",
"Y.Y.Y.Y.Y.Y.B., - a a a a r r r r a r r a r r 4 , B.Y.Y.Y.Y.Y.Y.",
"Y.Y.Y.Y.Y.Y.Y.H.~ = 7 q r r r r q r r r r 7 = ! H.Y.Y.Y.Y.Y.Y.Y.",
"Y.Y.Y.Y.Y.Y.P.Z.V.e.< # 4 9 9 q q 9 9 - # < w.V.Z.P.Y.Y.Y.Y.Y.Y.",
"Y.Y.Y.Y.Y.Y.Y.Y.P.K.Z.q./ 1 1 % % 1 1 / 5.V.K.P.Y.Y.Y.Y.Y.Y.Y.Y.",
"Y.Y.Y.Y.Y.Y.Y.Y.P.Z.a.r.r.r.r.r.r.r.r.r.r.i.Z.P.Y.Y.Y.Y.Y.Y.Y.Y.",
"Y.Y.Y.Y.Y.Y.Y.Y.P.Z.a.t.t.t.t.t.t.t.t.y.i.M.Z.P.Y.Y.Y.Y.Y.Y.Y.Y."
};
