/* XPM */
static char *copy_sel[] = {
/* columns rows colors chars-per-pixel */
"28 28 35 1",
"  c #767676",
". c gray48",
"X c #808080",
"o c #838383",
"O c gray53",
"+ c #888888",
"@ c #8B8B8B",
"# c gray55",
"$ c #8E8E8E",
"% c #908F8F",
"& c #909091",
"* c #939494",
"= c #979797",
"- c #A2A2A2",
"; c #A4A4A4",
": c #A5A5A5",
"> c gray67",
", c #AEAEAE",
"< c #B2B2B2",
"1 c #B4B4B4",
"2 c #B7B7B7",
"3 c gray72",
"4 c gray73",
"5 c gray",
"6 c #C0C0C0",
"7 c gray77",
"8 c #CACACA",
"9 c gray82",
"0 c gray83",
"q c #E2E2E2",
"w c gray89",
"e c #E7E7E7",
"r c gray91",
"t c black",
"y c None",
/* pixels */
"yyyyyyyyyyyyyyyyyyyyyyyyyyyy",
"yyyyyyyyyyyyyyyyyyyyyyyyyyyy",
"yyyyyyyyyyyyyyyyyyyyyyyyyyyy",
"yyyyyyyq6<<<<<<<<<<<28eyyyyy",
"yyyyyyq-@%&&&&&&&&&&$$<ryyyy",
"yyyyyy7@===&&&&&&&&&%&@9yyyy",
"yyyyyy3$=$OOO@@OO@OO@OO&6ryy",
"yyyyyy2$&O$============&&0yy",
"yyyyyy2$$@========*=====$6yy",
"yyyyyy2$$O==&=*==*=*=*==@5yy",
"yyyyyy2@@O=*===&====&=**@5yy",
"yyyyyy2OO@&=&&=&&&%&&=*=@5yy",
"yyyyyy2@O@=&&$$$$$$$$&&&@5yy",
"yyyyyy2@@O%$$$$$$$$$$$$$O5yy",
"yyyyyy2@@o$$$$$&$&$$$$$$O5yy",
"yyyyyy2O@O&%%%%%$%&&$&&$O5yy",
"yyyyyy2@OO$$&%&&%%&&&%%&@3yy",
"yyyyyy2@@O&&&&&&&&&&&&&&@3yy",
"yyyyyy2@@O&&&&&&&&&&&&&*@5yy",
"yyyyyy6o.O=*&&=&&*&**&*&@5yy",
"yyyyyyr5X@&&=$=&*&*&*&**@3yy",
"yyyyyyyr3XOXXo@$******&*@5yy",
"yyyyyyyyq>.   o=*****&=*@5yy",
"yyyyyyyyye,.. o&*=**==**#5yy",
"yyyyyyyyyye<. o=***=*=**#5yy",
"yyyyyyyyyyye<..====*====#8yy",
"yyyyyyyyyyyye<O&%%%%%%%$:qyy",
"yyyyyyyyyyyyye2-;;;:;;:3qyyy"
};
