/* XPM */
static char *copy[] = {
/* columns rows colors chars-per-pixel */
"32 32 256 2",
"   c black",
".  c #363010",
"X  c #3B3413",
"o  c #343434",
"O  c #3A3A3D",
"+  c #635E3E",
"@  c #656565",
"#  c #6A6A6E",
"$  c #887B3A",
"%  c #B99F0F",
"&  c #BDA111",
"*  c #B19B27",
"=  c #AC9936",
"-  c #AE9A39",
";  c #B19E3B",
":  c #B3A03D",
">  c #C2A611",
",  c #C5A915",
"<  c #CBAE14",
"1  c #CBAE19",
"2  c #DBBC14",
"3  c #D5BA1F",
"4  c #DDBE1B",
"5  c #E3BF0D",
"6  c #E1BF13",
"7  c #C2AB29",
"8  c #C7B126",
"9  c #CFB420",
"0  c #C6B028",
"q  c #D1B722",
"w  c #C7B133",
"e  c #C6B23B",
"r  c #C9B63C",
"t  c #D0BB36",
"y  c #D0BC3C",
"u  c #DEC015",
"i  c #DEC11F",
"p  c #E5C00D",
"a  c #EAC60F",
"s  c #EECC0E",
"d  c #E3C314",
"f  c #EBC611",
"g  c #EECA12",
"h  c #E1C61D",
"j  c #EBCB18",
"k  c #F2CE14",
"l  c #F1CE19",
"z  c #F4D114",
"x  c #F8D316",
"c  c #F5D31C",
"v  c #FAD619",
"b  c #FFDC1B",
"n  c #DFC323",
"m  c #D6C334",
"M  c #DDCC34",
"N  c #DBCD3E",
"B  c #E1C22A",
"V  c #E3CE2B",
"C  c #E9D127",
"Z  c #EBD42A",
"A  c #F3D323",
"S  c #FCDA21",
"D  c #F4D52B",
"F  c #F7D829",
"G  c #FEDE2A",
"H  c #E1C435",
"J  c #E2C93C",
"K  c #ECD632",
"L  c #EBDB36",
"P  c #F6D633",
"I  c #F4DA36",
"U  c #FBDC31",
"Y  c #F5D73B",
"T  c #F4DB3C",
"R  c #ECE13C",
"E  c #F0E537",
"W  c #F1E639",
"Q  c #F5EC3D",
"!  c #94884D",
"~  c #AA9B48",
"^  c #A99D59",
"/  c #ADA25D",
"(  c #B3A459",
")  c #898363",
"_  c #A39862",
"`  c #A29C73",
"'  c #A89F72",
"]  c #ABA165",
"[  c #ABA16B",
"{  c #B3A76E",
"}  c #B3A86E",
"|  c #CAB641",
" . c #CFBC41",
".. c #C8B649",
"X. c #D0BD4D",
"o. c #CCBB53",
"O. c #D3C145",
"+. c #D4CA44",
"@. c #D3C24C",
"#. c #DFC850",
"$. c #DDC85A",
"%. c #E0C947",
"&. c #E8D949",
"*. c #F5DC43",
"=. c #F8DB45",
"-. c #F6DD4B",
";. c #F3E345",
":. c #F6EE42",
">. c #F2E749",
",. c #F4EA4E",
"<. c #F9F042",
"1. c #F8F24C",
"2. c #F5E254",
"3. c #F5EB53",
"4. c #F7F250",
"5. c #F9F353",
"6. c #CFC16E",
"7. c #D8CB6D",
"8. c #DBD069",
"9. c #CCC17B",
"0. c #D8CD74",
"q. c #DCD170",
"w. c #E5DC6D",
"e. c #ECDD6D",
"r. c #F2DC64",
"t. c #F1DC6B",
"y. c #E4DA75",
"u. c #ECDE72",
"i. c #F1DF72",
"p. c #EDE566",
"a. c #EEE36B",
"s. c #EFE96F",
"d. c #F3EA66",
"f. c #F0E96A",
"g. c #F6F36B",
"h. c #F0E473",
"j. c #F1E079",
"k. c gray53",
"l. c #AEA785",
"z. c #AEA887",
"x. c #AFA98C",
"c. c #AEA890",
"v. c #B1AD98",
"b. c #A5A5A5",
"n. c gray67",
"m. c #B0B1B2",
"M. c #BDBCB2",
"N. c #BFBEB9",
"B. c #CDC282",
"V. c #CDC389",
"C. c #DDD69F",
"Z. c #E1D881",
"A. c #EEDF81",
"S. c #E3DB8F",
"D. c #EBE081",
"F. c #E9E189",
"G. c #F3EF86",
"H. c #F4F080",
"J. c #EAE59E",
"K. c #EFEB9D",
"L. c #F2EE93",
"P. c #F0ED99",
"I. c #D3CDA9",
"U. c #DCD5A4",
"Y. c #DFD8AD",
"T. c #C3C1B4",
"R. c #D3D1BE",
"E. c #DAD6BA",
"W. c #E2DDA0",
"Q. c #E0DCAE",
"!. c #E1DCB4",
"~. c #E2DCBD",
"^. c #EEEAA5",
"/. c #E3E0AF",
"(. c #E9E6AB",
"). c #ECEAAF",
"_. c #F0EFA3",
"`. c #F0EEA9",
"'. c #EFECB4",
"]. c #E8E7BE",
"[. c #EDEBBD",
"{. c gray77",
"}. c #CBCBCC",
"|. c #D6D4C3",
" X c #DBD7C1",
".X c #DDDAC3",
"XX c #DCDACE",
"oX c LightGray",
"OX c #DEDCD1",
"+X c #DCDBDC",
"@X c #E3DDC2",
"#X c #EBE7C7",
"$X c #ECEBC4",
"%X c #ECECCE",
"&X c #E6E5D6",
"*X c #EBE7D2",
"=X c #EBE9D5",
"-X c #E4E3DB",
";X c #EAE9DB",
":X c #E4E4E4",
">X c #E8E7E4",
",X c #EAEAE3",
"<X c #E5E5E8",
"1X c #E7E8EA",
"2X c #EAEAEA",
"3X c #EBECF1",
"4X c #F2F3F3",
"5X c #F7F8FB",
"6X c #FEFEFE",
"7X c None",
"8X c black",
"9X c black",
"0X c black",
"qX c black",
"wX c black",
"eX c black",
"rX c black",
"tX c black",
"yX c black",
"uX c black",
"iX c black",
"pX c black",
"aX c black",
"sX c black",
"dX c black",
"fX c black",
"gX c black",
"hX c black",
"jX c black",
"kX c black",
"lX c black",
"zX c black",
"xX c black",
"cX c black",
"vX c black",
"bX c black",
"nX c black",
"mX c black",
"MX c black",
"NX c black",
"BX c black",
"VX c black",
"CX c black",
"ZX c black",
"AX c black",
"SX c black",
"DX c black",
"FX c black",
"GX c black",
"HX c black",
"JX c black",
"KX c black",
"LX c black",
"PX c black",
"IX c black",
"UX c black",
/* pixels */
"7X7X7X7X7X7X7X7X7X7X7X7X7X7X7X7X7X7X7X7X7X7X7X7X7X7X7X7X7X7X7X7X",
"7X7X7X7X7X7X7X7X7X7X7X,X*X[.'.`.'.'.$X%X,X2X7X7X7X7X7X7X7X7X7X7X",
"7X7X7X7X7X7X7X7X2X;X[.L.g.1.<.<.<.<.1.g.L.'.;X2X7X7X7X7X7X7X7X7X",
"7X7X7X7X7X7X7X,X$XG.1.,.d.h.D.D.D.D.s.g.5.1.h.$X,X7X7X7X7X7X7X7X",
"7X7X7X7X7X7X,X`.5.3.t.u.t.t.r.r.r.r.e.i.i.h.3.5._.,X7X7X7X7X7X7X",
"7X7X7X7X7X,XP.<.+.[ ' [ [ ] ] ] ] ] [ / $.t.i.2.<.L.;X7X7X7X7X7X",
"7X7X7X7X,X^.:.&.` 1X4X4X4X4X4X4X4X4X4X+X^ =.2.r.2.Q _.,X7X7X7X7X",
"7X7X7X2X[.,.;.#.c.6X6X6X6X6X6X6X6X6X6X6X[ D G U -.;.>.'.2X7X7X7X",
"7X7X7X=Xs.;.2.%.x.6X6X4X5X5X5X5X5X5X5X6X] v b b G *.;.p.=X7X7X7X",
"7X7X,X'.W *.-.%.x.6X4X4X2X}.n.n.n.n.n.m.) - : : 7 F ;.E ^.2X7X7X",
"7X7X;Xa.E =.=.J x.6X5X4X+Xb.:X2X,X2X2X2X2X2X,X2XM.7 U T p.=X7X7X",
"7X7X$XR Y Y =.J x.6X5X4X{.{.6X6X6X6X6X6X6X6X6X6X1X; S I R [.7X7X",
"2X,X(.L P Y =.J x.6X6X6X}.{.6X6X5X5X5X5X5X5X5X6X2X; v F L J.,X7X",
",X;XF.L D Y Y J x.6X6X6XoX{.6X4X4X3X,X4X4X3X,X6X1X; v v Z D.,X7X",
";X#Xu.Z D P Y J x.6X6X6XoX{.6X4X,X4X4X4X3X4X2X5X2X- x c Z w.;X7X",
"=X#Xe.Z D D P H x.6X6X6XoX{.6X4X4X4X4X4X4X4X4X6X2X- z x Z w.;X7X",
",X=Xy.Z A D F B x.6X6X6XoX{.6X5X5X5X5X4X5X5X5X6X,X= k x C y.-X7X",
"2X;XS.V c D F B z.6X6X6XoX{.6X6X6X6X6X6X6X6X6X6X2X- k l V y.;X7X",
"7X2X/.M l A A q z.6X6X6XoX{.6X6X6X6X6X6X6X6X6X6X1X= k k M W.,X7X",
"7X7X#XN j c A 4 z.6X6X6XoX{.6X6X6X6X6X6X6X6X6X6X2X- k j M #X7X7X",
"7X7X;X8.n l c j _ 3X5X6X}.{.6X6X6X6X6X6X6X6X6X6X2X= s h 8.=X7X7X",
"7X7X2X~.m d z j 1 ~ ( ( ! N.6X6X6X6X6X6X6X5X4X4X+X= g m Y.,X7X7X",
"7X7X7X;X7.i g z z s a s > T.6X6X6X6X6X6X6Xk.o O + < h 7.&X7X7X7X",
"7X7X7X,X#X@.u g s g g z , T.6X6X6X6X6X6X6X@   . % u O.~.2X7X7X7X",
"7X7X7X7X2XY.y 2 f k f g < v.6X6X6X6X6X6X6X# X & d t U.,X7X7X7X7X",
"7X7X7X7X7X,XU. .4 g k g a * ] } [ { { { { $ & d y C.,X7X7X7X7X7X",
"7X7X7X7X7X7X,XY.o.q 6 f f a 5 5 6 5 5 5 5 2 3 X.Y.>X7X7X7X7X7X7X",
"7X7X7X7X7X2X2X1X|.V.| 1 2 6 5 f f f 2 2 3 r B.R.:X1X2X7X7X7X7X7X",
"7X7X7X7X7X2X+X2X2X-X@XU.6.o.| 0 0 w ..9.I.R.+X:X+X+X2X7X7X7X7X7X",
"7X7X7X7X7X2X:X2X2X2X<X:X-XOX|.E.E. XXX-X:X:X:X:X:X:X2X7X7X7X7X7X",
"7X7X7X7X7X7X7X7X2X<X:X+X+X+X+X+X+X+X+XoX+X+X+X+X2X2X7X7X7X7X7X7X",
"7X7X7X7X7X7X7X7X1X<X:X+X+X+X+X+X+X+XoXoXoXoXoXoX:X2X7X7X7X7X7X7X"
};
