/* XPM */
static char *cut[] = {
/* columns rows colors chars-per-pixel */
"32 32 256 2",
"   c #75661B",
".  c #5F5523",
"X  c #665F3C",
"o  c #786E33",
"O  c #766D3D",
"+  c #7C7034",
"@  c #7D733D",
"#  c #605F59",
"$  c #746B43",
"%  c #7E7649",
"&  c #726E58",
"*  c #7C7754",
"=  c #7D7853",
"-  c #8D7A16",
";  c #8D7B1E",
":  c #917F1F",
">  c #877625",
",  c #8C7C2B",
"<  c #927F20",
"1  c #807433",
"2  c #817638",
"3  c #85793C",
"4  c #8A7D3D",
"5  c #847A45",
"6  c #847B48",
"7  c #827B55",
"8  c #847E62",
"9  c #9C860B",
"0  c #96821D",
"q  c #9B861C",
"w  c #AB8F0B",
"e  c #B19506",
"r  c #AC9414",
"t  c #AC931A",
"y  c #B19817",
"u  c #B9A21B",
"i  c #91812B",
"p  c #8D823D",
"a  c #928331",
"s  c #938638",
"d  c #9A8D38",
"f  c #AF992C",
"g  c #A19036",
"h  c #A89630",
"j  c #A99837",
"k  c #B39F36",
"l  c #B09D38",
"z  c #B6A537",
"x  c #BFAD36",
"c  c #B7A638",
"v  c #BDA938",
"b  c #CBAB0E",
"n  c #DDBC0F",
"m  c #C0A517",
"M  c #CBAC16",
"N  c #D4B413",
"B  c #DDBC11",
"V  c #D4B619",
"C  c #D4BA1D",
"Z  c #DABD18",
"A  c #E2BF0F",
"S  c #C5AD20",
"D  c #C7B125",
"F  c #C6B02D",
"G  c #CBB32B",
"H  c #D4BB22",
"J  c #CEB731",
"K  c #C8B43F",
"L  c #D0BC38",
"P  c #DFC31A",
"I  c #E4C10E",
"U  c #E8C60D",
"Y  c #E5C313",
"T  c #ECC711",
"R  c #EECA12",
"E  c #E0C61A",
"W  c #E7CD19",
"Q  c #EACD18",
"!  c #F1CD13",
"~  c #F2CE19",
"^  c #EED11C",
"/  c #F5D215",
"(  c #F3D11C",
")  c #FBD61C",
"_  c #FED91C",
"`  c #DAC636",
"'  c #D7C23C",
"]  c #D9C43C",
"[  c #DFC93F",
"{  c #EFDB2D",
"}  c #F2D323",
"|  c #FCDB23",
" . c #F3D52B",
".. c #F2D929",
"X. c #FBDC2A",
"o. c #EDCF34",
"O. c #E1C53A",
"+. c #E3C93D",
"@. c #E9D83D",
"#. c #F4D433",
"$. c #F6D830",
"%. c #FADC32",
"&. c #F6DA39",
"*. c #F9DC3D",
"=. c #F3E236",
"-. c #F3E63C",
";. c #F5E93C",
":. c #AB9B43",
">. c #868161",
",. c #8C8667",
"<. c #858168",
"1. c #8B8669",
"2. c #878577",
"3. c #898570",
"4. c #8E8C7C",
"5. c #918E7B",
"6. c #C7B445",
"7. c #CEBB55",
"8. c #CBBB5D",
"9. c #CABB61",
"0. c #DCC541",
"q. c #E6CE40",
"w. c #E4D544",
"e. c #EFD644",
"r. c #EAD841",
"t. c #E0D24D",
"y. c #E7D849",
"u. c #F6DD44",
"i. c #F9DE45",
"p. c #F7DC48",
"a. c #F9DE4A",
"s. c #E0D253",
"d. c #E9DB52",
"f. c #F4DC55",
"g. c #F8DF51",
"h. c #F4DF5D",
"j. c #EEE146",
"k. c #F0E243",
"l. c #F9E047",
"z. c #F6EB41",
"x. c #F8EF45",
"c. c #F4E24A",
"v. c #F9E148",
"b. c #F7EF49",
"n. c #F9F142",
"m. c #F8E052",
"M. c #F4EC5D",
"N. c #F7F25B",
"B. c #D4C669",
"V. c #D8CC6A",
"C. c #DDD361",
"Z. c #DED569",
"A. c #D5C871",
"S. c #D8CE74",
"D. c #D7CB7C",
"F. c #F4DE66",
"G. c #F3DE6B",
"H. c #E0DA79",
"J. c #F1DE74",
"K. c #E9E061",
"L. c #EFE862",
"P. c #E9E169",
"I. c #EFE86B",
"U. c #F2E465",
"Y. c #F3ED65",
"T. c #F2E96D",
"R. c #F6F061",
"E. c #EDE475",
"W. c #EEE47D",
"Q. c #EFE97A",
"!. c #F0E073",
"~. c #F5F173",
"^. c #F4F17B",
"/. c #8C8B82",
"(. c #8E8E8B",
"). c #908E82",
"_. c #989587",
"`. c #93928B",
"'. c #99978B",
"]. c #9C9A8C",
"[. c #9C9B94",
"{. c #9F9E9A",
"}. c #A0A09D",
"|. c #A6A5A1",
" X c #AAAAA6",
".X c #AEAEAB",
"XX c #B2B2AF",
"oX c #B4B4B3",
"OX c #BCBCBB",
"+X c #D3C984",
"@X c #D8CD82",
"#X c #DACF8A",
"$X c #D2CA99",
"%X c #E2DC83",
"&X c #EEDF82",
"*X c #EFE883",
"=X c #F4F180",
"-X c #EBE29B",
";X c #ECE99F",
":X c #D0CAA7",
">X c #D0CBAA",
",X c #DFD9A8",
"<X c #D2CEB5",
"1X c #DDD7B1",
"2X c #DAD6BC",
"3X c #E3DFA5",
"4X c #E0DBB0",
"5X c #E9E1A5",
"6X c #EDEAA0",
"7X c #E6E2AE",
"8X c #EEEBAA",
"9X c #F0ECA5",
"0X c #E6E2B3",
"qX c #EAE5B3",
"wX c #EFEEB2",
"eX c #E7E3BD",
"rX c #E9E6BE",
"tX c #EEEDB9",
"yX c #BEBEC0",
"uX c gray77",
"iX c #C9C9C7",
"pX c #C5C6C8",
"aX c #CBCBCC",
"sX c #DBD8C7",
"dX c #DBD9CD",
"fX c #CFD0D2",
"gX c gray83",
"hX c #DBDBD7",
"jX c #D6D7DB",
"kX c #DCDBDB",
"lX c #E1DECC",
"zX c #EDECC5",
"xX c #E5E2CC",
"cX c #ECEACC",
"vX c #E6E3D3",
"bX c #E8E7D6",
"nX c #EBEAD4",
"mX c #E7E6D9",
"MX c #E8E6DD",
"NX c #EBEADC",
"BX c #E4E4E4",
"VX c #E8E7E0",
"CX c #EAEAE4",
"ZX c #E7E7E8",
"AX c #EAEAE9",
"SX c None",
"DX c black",
"FX c black",
"GX c black",
"HX c black",
"JX c black",
"KX c black",
"LX c black",
"PX c black",
"IX c black",
"UX c black",
/* pixels */
"SXSXSXSXSXSXSXSXSXSXSXSXSXSXSXSXSXSXSXSXSXSXSXSXSXSXSXSXSXSXSXSX",
"SXSXSXSXSXSXSXSXSXSXSXAXnXzXtXwXwXwXtXzXNXAXSXSXSXSXSXSXSXSXSXSX",
"SXSXSXSXSXSXSXSXSXCXcX9X^.N.n.x.n.n.n.N.=X9XcXCXSXSXSXSXSXSXSXSX",
"SXSXSXSXSXSXSXAXnX9XN.x.R.T.W.&X&X&XW.T.M.x.R.9XNXSXSXSXSXSXSXSX",
"SXSXSXSXSXSXAXcX~.b.U.!.J.J.G.F.F.F.G.J.J.J.U.x.^.cXAXSXSXSXSXSX",
"SXSXSXSXSXAXzXN.;.U.G.F.h.m.v.a.v.a.g.g.h.G.J.U.x.Y.zXAXSXSXSXSX",
"SXSXSXSXSXcXY.-.F.7.:.0.i.l.l.l.a.i.a.i.i.i.g.F.M.-.T.nXSXSXSXSX",
"SXSXSXSXNXQ.-.f.f.4 (.8 g e.l.c.a.i.i.i.i.%.X.X.u.a.-.*XNXSXSXSX",
"SXSXSXAX6Xc.c.f.a.v 4.gX`.d p.l.l.p.u.%.| | _ _ | *.c.c.8XAXSXSX",
"SXSXSXnXU.=.m.c.p.p.s  XkX2.z c.l.u.X._ _ _ ) ) _ | *.=.I.NXSXSX",
"SXSXAX6Xk.L k q.u.l.[ = aXaX= ] u..._ _ _ ) ) ) ) _ X.&.j.8XAXSX",
"SXSXCXE...3 /.7 g ' l.z 4.kX.Xp  ._ _ _ _ _ ) ) ) ) _ $.{ *XCXSX",
"AXAXnXK...f ).gX X<.p x 2 oXhX4.u _ _ _ _ _ _ ) ) ) ) | ..P.nXSX",
"CXCXqXd. .#.i `.gXhXOX5.X # gXaX6 Z _ ) _ _ ) _ ) ) ) ) } d.rXSX",
"NXnX-Xr.} $.o.h = {.aXhXiX|.iXjXXX, ) _ _ _ _ _ ) ( ) / } y.qXSX",
"NXnX-X@.}  .#.*.O.j 7 [.iXkXgXfXgX).t R m t y N ! ! / / ( w.7XSX",
"CXCX3Xr.} }  .#.#.i.q.l 5 ).yXkXhXgX5.O `. X|.<., n ! / ^ w.0XSX",
"CXCXeXs.Q }  . . . .#.i.o.S , 8 OXBXBXgX<X>.1.oXXX+ B ~ Q s.xXSX",
"SXSXbXC.Q ( } } } ~ ( (  .| ) M + OXBXBX.X  e - ].XX0 ! ^ Z.xXSX",
"SXSXAXH.E ~ } } ( ~ ! R R R ~ ! ; oXkXhXVXOX1.2 & kX3 T P %XCXSX",
"SXSXAX3X` Q ~ ~ ~ ~ R T ! A ! A 6 aX$ >.kXuXoXuXuX[.q Q ] 7XSXSX",
"SXSXSXNXV.P ! ~ ~ ~ ! ! ! A ! A 5 yX> w _.oX. i i r Y P S.NXSXSX",
"SXSXSXAX3X' T ! ! ! ! ! ! R R R q .X5.9 + aX3 U / / Q ' 4XAXSXSX",
"SXSXSXSXMX@XH U R R ! ! ! ! R R n @ OX'.& fX% Y ! Y H #XVXSXSXSX",
"SXSXSXSXSXvXB.C T R R R R R R R ! b 2 |.OX{.0 ! Y C A.mXSXSXSXSX",
"SXSXSXSXSXAXxXB.H A R R R R R R U ! B r q r A Y H A.xXSXSXSXSXSX",
"SXSXSXSXSXSXCXvXD.J Z A A R R ~ T T T R R T Z J @XvXSXSXSXSXSXSX",
"SXSXSXSXSXAXAXZXhX:X9.G B B B A T Y A B V G 9.>XhXZXAXSXSXSXSXSX",
"SXSXSXSXSXAXBXBXAXZXlX4X+X8.6.F D G K 9.$X<XdXBXBXkXBXAXSXSXSXSX",
"SXSXSXSXSXAXZXZXAXAXZXBXBXhXlX2X2X2XsXhXBXBXBXBXBXBXAXAXSXSXSXSX",
"SXSXSXSXSXSXSXSXAXZXkXkXkXkXkXBXkXkXjXjXkXjXkXkXZXAXSXSXSXSXSXSX",
"SXSXSXSXSXSXSXSXZXZXBXkXBXkXkXjXkXhXgXgXgXgXgXgXBXAXSXSXSXSXSXSX"
};
