/* XPM */
static char *cut[] = {
/* columns rows colors chars-per-pixel */
"128 128 41 1",
"  c #000700070007",
". c #0C0C0C0C0C0C",
"X c #13BB13BB13BB",
"o c #1B911B911B91",
"O c #23B223B223B2",
"+ c #2AD92AD92AD9",
"@ c #335133513351",
"# c #3BD03BD03BD0",
"$ c #444444444444",
"% c #4C2E4C2E4C2E",
"& c #551C551C551C",
"* c #59A659A659A6",
"= c #635263526352",
"- c #6C416C416C41",
"; c #73B873B873B8",
": c #7C517C517C51",
"> c #85D885D885D8",
", c #8BF28BF28BF2",
"< c #929692969296",
"1 c #9B689B689B68",
"2 c #A37EA37EA37E",
"3 c #AC23AC23AC23",
"4 c #B481B481B481",
"5 c #BC27BC27BC27",
"6 c #C554C554C541",
"7 c #C8C8C8C8C7C7",
"8 c #CC7BCC7BCB68",
"9 c #D19CD19CCF5E",
"0 c #D40CD40CD318",
"q c #DA1ADA1AD709",
"w c #DDB8DDB8DAE7",
"e c #E31AE31ADE37",
"r c #E5F2E5F2E27C",
"t c #EAA1EAA1E4D6",
"y c #ED8DED8DEAFE",
"u c #F0F0F0F0E7E7",
"i c #F26CF26CEDCE",
"p c #F601F601F33F",
"a c #F993F993F701",
"s c #FC01FC01FAB5",
"d c None",
/* pixels */
"dddddddddddddddddddddddddddddddddddddddddddddddddddddddddddddddddddddddddddddddddddddddddddddddddddddddddddddddddddddddddddddddd",
"dddddddddddddddddddddddddddddddddddddddddddddddddddddddddddddddddddddddddddddddddddddddddddddddddddddddddddddddddddddddddddddddd",
"dddddddddddddddddddddddddddddddddddddddddddddddddddddddddddddddddddddddddddddddddddddddddddddddddddddddddddddddddddddddddddddddd",
"dddddddddddddddddddddddddddddddddd       ddddddddddddddddddddddddddddddddddddddddddddddddddddddddddddddddddddddddddddddddddddddd",
"ddddddddddddddddddddddddddddddd             dddddddddddddddddddddddddddddddddddddddddddddddddddddddddddddddddddddddddddddddddddd",
"ddddddddddddddddddddddddddddd                 dddddddddddddddddddddddddddddddddddddddddddddddddddddddddddddddddddddddddddddddddd",
"dddddddddddddddddddddddddddd    X#=======@      dddddddddddddddddddddddddddddddddddddddddddddddddddddddddddddddddddddddddddddddd",
"ddddddddddddddddddddddddddd   X>4qtpapptq84>O     dddddddddddddddddddddddddddddddddddddddddddddddddddddddddddddddddddddddddddddd",
"ddddddddddddddddddddddddddd  o<8yssssssssayq6-     ddddddddddddddddddddddddddddddddddddddddddddddddddddddddddddddddddddddddddddd",
"dddddddddddddddddddddddddd   <8pssssssssssssy01%    dddddddddddddddddddddddddddddddddddddddddddddddddddddddddddddddddddddddddddd",
"dddddddddddddddddddddddddd  +6tsssspiiipasssspr7;    ddddddddddddddddddddddddddddddddddddddddddddddddddddddddddddddddddddddddddd",
"ddddddddddddddddddddddddd   ,0sssait099wiipssssy8,X   dddddddddddddddddddddddddddddddddddddddddddddddddddddddddddddddddddddddddd",
"ddddddddddddddddddddddddd  o5wsssiq8616680yiaaasp81O   ddddddddddddddddddddddddddddddddddddddddddddddddddddddddddddddddddddddddd",
"dddddddddddddddddddddddd   -7yssar71+ +=<67qyiaasp02+   dddddddddddddddddddddddddddddddddddddddddddddddddddddddddddddddddddddddd",
"dddddddddddddddddddddddd   ;8psspq6@     O<66riaaap01o   ddddddddddddddddddddddddddddddddddddddddddddddddddddddddddddddddddddddd",
"dddddddddddddddddddddddd   ;8asspq3       X;26wiaaap8<    dddddddddddddddddddddddddddddddddddddddddddddddddddddddddddddddddddddd",
"dddddddddddddddddddddddd   ;8asspq2   d      :60yaaay7-   dddddddddddddddddddddddddddddddddddddddddddddddddddddddddddddddddddddd",
"dddddddddddddddddddddddd   ;7pssaq3   ddd     *60uaaar6$   ddddddddddddddddddddddddddddddddddddddddddddddddddddddddddddddddddddd",
"dddddddddddddddddddddddd   ;7isssw3   ddddd    %6qiaaaq4X  ddddddddddddddddddddddddddddddddddddddddddddddddddddddddddddddddddddd",
"dddddddddddddddddddddddd   -6tssse6#  dddddd    ,6epaap6;   dddddddddddddddddddddddddddddddddddddddddddddddddddddddddddddddddddd",
"dddddddddddddddddddddddd   =6qsssi8:   dddddd   X<7tpaar6O  dddddddddddddddddddddddddddddddddddddddddddddddddddddddddddddddddddd",
"ddddddddddddddddddddddddd  X48assa01   ddddddd   O38ipap7,   ddddddddddddddddddddddddddddddddddddddddddddddddddddddddddddddddddd",
"ddddddddddddddddddddddddd   >8psasw6O   ddddddd   $6eppat6@  ddddddddddddddddddddddddddddddddddddddddddddddddddddddddddddddddddd",
"ddddddddddddddddddddddddd   =6eaaap81X  dddddddd   <7ippi6:   dddddddddddddddddddddddddddddddddddddddddddddddddddddddddddddddddd",
"dddddddddddddddddddddddddd  X40psasq6=   ddddddd   %6tpppq3   dddddddddddddddddddddddddddddddddddddddddddddddddddddddddddddddddd",
"dddddddddddddddddddddddddd   >8yaaai6,   dddddddd  .4qpppt6O  dddddddddddddddddddddddddddddddddddddddddddddddddddddddddddddddddd",
"dddddddddddddd       dddddd  +6qpaaaw5X  dddddddd   ,6ippy6%  dddddddddddddddddddddddddddddddddddddddddddddddddddddddddddddddddd",
"ddddddddd                     <8yaaap6-   dddddddd  %6ippi8>   ddddddddddddddddddddddddddddddddddddddddddddddddddddddddddddddddd",
"ddddddd         .             @6wpaaar6+   ddddddd  %6ippiq4   ddddddddddddddddddddddddddddddddddddddddddddddddddddddddddddddddd",
"dddddd    .#%%,56662;%%%o      17taaaa01    dddddd  $6yppiw6   ddddddddddddddddddddddddddddddddddddddddddddddddddddddddddddddddd",
"ddddd   X>30wryppppyrwq06<==@  %6qpapai7>X   ddddd  %6ipiiw6   ddddddddddddddddddddddddddddddddddddddddddddddddddddddddddddddddd",
"dddd   O10yssssssssssssaprq861%166rpppay6>X   ddd   =6iiiiw6   ddddddddddddddddddddddddddddddddddddddddddddddddddddddddddddddddd",
"ddd   +6rssssssssssssssssssar066667tpppar6>X       X4qiiiiq4   ddddddddddddddddddddddddddddddddddddddddddddddddddddddddddddddddd",
"dd   #6rssssspiiiiippaaaaaassayw8660ypppar6>       >6yiiiy8>   ddddddddddddddddddddddddddddddddddddddddddddddddddddddddddddddddd",
"dd  X5wsssspyeeeeeeeeeyipaaaaaaapw76qypppar7<$    %6eiiiit6*  dddddddddddddddddddddddddddddddddddddddddddddddddddddddddddddddddd",
"dd  $6assspr06666666660wetippaaaaayq6qypppay075<>48eiiyiie6X  dddddddddddddddddddddddddddddddddddddddddddddddddddddddddddddddddd",
"dd  *6ssssy86;OoooO++:3668qwuipaapppr8qtpppppyrwqryiiyyiy8<   dddddddddddddddddddddddddddddddddddddddddddddddddddddddddddddddddd",
"dd  &6sssar6-          .*<660quipppppy80tippppppipiyyyiiw6@  ddddddddddddddddddddddddddddddddddddddddddddddddddddddddddddddddddd",
"dd  &6sssae6o              %268qyippppy09ryipiiyyyyyyyyr6,   ddddddddddddddddddddddddddddddddddddddddddddddddddddddddddddddddddd",
"dd  &6psssy6@  dddddd        #468eyppppy07qtyiyyytttrrq72o  dddddddddddddddddddddddddddddddddddddddddddddddddddddddddddddddddddd",
"dd  &6iassp6>   ddddddddd     X>56qyipppy767etyyytttr866%   dddddddddddddddddddddddddddddddddddddddddddddddddddddddddddddddddddd",
"dd  O6epssaw5o   dddddddddd     o,68tipppr6668ryyttttq66.   dddddddddddddddddddddddddddddddddddddddddddddddddddddddddddddddddddd",
"dd   <6rsssp7,   dddddddddddd     +57tppipw6666eyyttyiw6*    ddddddddddddddddddddddddddddddddddddddddddddddddddddddddddddddddddd",
"dd   =60psssy6$    dddddddddddd    o58upiiiq6666ryyttyie6=    dddddddddddddddddddddddddddddddddddddddddddddddddddddddddddddddddd",
"ddd  X,6wpsssr6#    ddddddddddddd   ,6wiiyiiw7667rytttyie6&    ddddddddddddddddddddddddddddddddddddddddddddddddddddddddddddddddd",
"ddd    ,6tasssr6$    ddddddddddddd  X48iiyyypr8760ttrrtyiw6%    dddddddddddddddddddddddddddddddddddddddddddddddddddddddddddddddd",
"dddd   X28iasssr6=     ddddddddddd   >8iyyyyyiyr08wtrrrtyiq6%     dddddddddddddddddddddddddddddddddddddddddddddddddddddddddddddd",
"ddddd   @69iasssy81O      ddddddd    10pyyttyyyyyrrrrrrrtyi06+      dddddddddddddddddddddddddddddddddddddddddddddddddddddddddddd",
"dddddd   $69upsasp06>X              +6eiyytrtyttttrrrrrrrryt96<=X     dddddddddddddddddddddddddddddddddddddddddddddddddddddddddd",
"ddddddd   $68tpaaaar84>o           +60piyytwrytttrrrrrewrrrtyr864>o     dddddddddddddddddddddddddddddddddddddddddddddddddddddddd",
"ddddddd    #57eiaaaapr85,;O     O-16qiiyyyr8wtytrrrrrwwwwerrtyur875,o     dddddddddddddddddddddddddddddddddddddddddddddddddddddd",
"dddddddd    o<6qypaaaaatw871111168qrpiyyiyq66eyytrrrrwwwwwwerrrtte875<O      ddddddddddddddddddddddddddddddddddddddddddddddddddd",
"dddddddddd    -68eupaaaaapytrrrrtippiiiiyt8666wtyttrrewwwwwwwwwwerte976<@      ddddddddddddddddddddddddddddddddddddddddddddddddd",
"ddddddddddd    @<60eippaaaaaaaappppiiiyyt84=+:60eyttrrewwwwwq00qqwerteq86<#      ddddddddddddddddddddddddddddddddddddddddddddddd",
"dddddddddddd     *360wtiipppppapppiiiuyq73@   %57wyttrrwwwq0000000qwwetrw861%       dddddddddddddddddddddddddddddddddddddddddddd",
"dddddddddddddd    .*3680qtiiiiiiiiuue086<O     o<69ettrewq0000000000qqwerrw961=X      dddddddddddddddddddddddddddddddddddddddddd",
"ddddddddddddddd      @>368999999999876<$         %579ttrw0000000000000qqwerre964-o      dddddddddddddddddddddddddddddddddddddddd",
"ddddddddddddddddd       #:<11111111<;O     ddd    o<60trq000000000000000qqwerrt065<=X     dddddddddddddddddddddddddddddddddddddd",
"ddddddddddddddddddd                      dddddd     >6rrwq0000000000000000qqweettq664>X     dddddddddddddddddddddddddddddddddddd",
"dddddddddddddddddddddd                  ddddddddd   X37teq0000000000000000000qqwettw764,o     dddddddddddddddddddddddddddddddddd",
"ddddddddddddddddddddddddd            ddddddddddddd   O60teq00000000000000000000qqwertw865,o     dddddddddddddddddddddddddddddddd",
"ddddddddddddddddddddddddddddddddddddddddddddddddddd   ,6erwq000000000000000000000qqwerte965,O     dddddddddddddddddddddddddddddd",
"dddddddddddddddddddddddddddddddddddddddddddddddddddd  X47teq000000000qqqqq000000000qqwerte076<O      ddddddddddddddddddddddddddd",
"dddddddddddddddddddddddddddddddddddddddddddddddddddd   >6qteq0000000000wwwwqq00000000qqwerteq76<#      ddddddddddddddddddddddddd",
"ddddddddddddddddddddddddddddddddddddddddddddddddddddd  X<7erwq000000q089qreewqq000000000qweetew76<$      ddddddddddddddddddddddd",
"ddddddddddddddddddddddddddddddddddddddddddddddddddddd   o58teq000000qw0678qtrewqq000000000qqwetee761$      ddddddddddddddddddddd",
"dddddddddddddddddddddddddddddddddddddddddddddddddddddd   >6qteq00000qwe866680tteewqq00000000qqwerre761-X     ddddddddddddddddddd",
"ddddddddddddddddddddddddddddddddddddddddddddddddddddddd  X,6erwq00000qee7666670ttrewqq00000000qqwerte764>o     ddddddddddddddddd",
"ddddddddddddddddddddddddddddddddddddddddddddddddddddddd   X58teq00000qwr066<$<668etrewqq00000000qqwerte865,o     ddddddddddddddd",
"dddddddddddddddddddddddddddddddddddddddddddddddddddddddd   $6wtwq00000qet76$  +;266etteewqq0000000qqwerte865,o    dddddddddddddd",
"ddddddddddddddddddddddddddddddddddddddddddddddddddddddddd   ;6erwq0000qwre6<     #,66wetrewqq0000000qqwerte965%     dddddddddddd",
"ddddddddddddddddddddddddddddddddddddddddddddddddddddddddd    28teq00000qet06+      @>660etrewqq00000000qwerte06<$    ddddddddddd",
"dddddddddddddddddddddddddddddddddddddddddddddddddddddddddd   #6qtwq00000qet8<         &269qrteewqq0000000qwertw86>X   dddddddddd",
"ddddddddddddddddddddddddddddddddddddddddddddddddddddddddddd   ;6rrwq0000qwrw6&   d      $1680etrewqq0000000qwertq6<o   ddddddddd",
"dddddddddddddddddddddddddddddddddddddddddddddddddddddddddddd  .38teq00000qet06O   dd      @<679etrewqq000000qqwete7<o   dddddddd",
"dddddddddddddddddddddddddddddddddddddddddddddddddddddddddddd   #6qtwq00000wee7<X  dddd      O,568qttewwqq00000qwete7<X  dddddddd",
"ddddddddddddddddddddddddddddddddddddddddddddddddddddddddddddd   <7rrwq0000qwtq6>   ddddd      o>4670ttrewqq0000qqetw6,   ddddddd",
"dddddddddddddddddddddddddddddddddddddddddddddddddddddddddddddd  O69teq00000qet94X   ddddddd     X=<568ttrewqq000qqet06#   dddddd",
"dddddddddddddddddddddddddddddddddddddddddddddddddddddddddddddd   $6qtwq0000qwrw6,X  ddddddddd      o>468ertewwqqqqwet86O   ddddd",
"ddddddddddddddddddddddddddddddddddddddddddddddddddddddddddddddd   <8rewq0000qetq6=   dddddddddd      .%166wetrewqqqert7<    dddd",
"ddddddddddddddddddddddddddddddddddddddddddddddddddddddddddddddd   +69teq00000qet7<   dddddddddddd       #,66qetrewweete6*    ddd",
"dddddddddddddddddddddddddddddddddddddddddddddddddddddddddddddddd   $6wrwq0000qwrw6$   dddddddddddddd      X=460wtteeetu06>X  ddd",
"ddddddddddddddddddddddddddddddddddddddddddddddddddddddddddddddddd   <7tew00000qet94X  dddddddddddddddd       &268qrtttyy86-   dd",
"ddddddddddddddddddddddddddddddddddddddddddddddddddddddddddddddddd   O68teq00000qet6>   dddddddddddddddddd      #<689euiie61   dd",
"dddddddddddddddddddddddddddddddddddddddddddddddddddddddddddddddddd   #6wtwq0000qwrw6#   ddddddddddddddddddd      +<578wiie6O  dd",
"ddddddddddddddddddddddddddddddddddddddddddddddddddddddddddddddddddd   ,6tew00000qet83X  ddddddddddddddddddddd      o>467qr6+  dd",
"dddddddddddddddddddddddddddddddddddddddddddddddddddddddddddddddddddd  X58teq00000wer6,   ddddddddddddddddddddddd     X>4662   dd",
"dddddddddddddddddddddddddddddddddddddddddddddddddddddddddddddddddddd   +6qtwq0000qwrq6+   dddddddddddddddddddddddd     X==X   dd",
"ddddddddddddddddddddddddddddddddddddddddddddddddddddddddddddddddddddd   ,6erw00000qer81o  dddddddddddddddddddddddddd         ddd",
"dddddddddddddddddddddddddddddddddddddddddddddddddddddddddddddddddddddd  X47teq00000wre6,   ddddddddddddddddddddddddddd      dddd",
"dddddddddddddddddddddddddddddddddddddddddddddddddddddddddddddddddddddd   >6qtwq0000qet06@   dddddddddddddddddddddddddddd  dddddd",
"ddddddddddddddddddddddddddddddddddddddddddddddddddddddddddddddddddddddd  X,6erw00000qer82X  dddddddddddddddddddddddddddddddddddd",
"ddddddddddddddddddddddddddddddddddddddddddddddddddddddddddddddddddddddd   o58req0000qwrw6>   ddddddddddddddddddddddddddddddddddd",
"dddddddddddddddddddddddddddddddddddddddddddddddddddddddddddddddddddddddd   >6qtwq0000qet86O  ddddddddddddddddddddddddddddddddddd",
"ddddddddddddddddddddddddddddddddddddddddddddddddddddddddddddddddddddddddd  X,6erwq0000qer7<   dddddddddddddddddddddddddddddddddd",
"ddddddddddddddddddddddddddddddddddddddddddddddddddddddddddddddddddddddddd   X28req0000qwtq6@   ddddddddddddddddddddddddddddddddd",
"dddddddddddddddddddddddddddddddddddddddddddddddddddddddddddddddddddddddddd   @6qteq0000qet81   ddddddddddddddddddddddddddddddddd",
"ddddddddddddddddddddddddddddddddddddddddddddddddddddddddddddddddddddddddddd   =6wrwq0000wre6&   dddddddddddddddddddddddddddddddd",
"dddddddddddddddddddddddddddddddddddddddddddddddddddddddddddddddddddddddddddd   >6rew0000qwt06+   ddddddddddddddddddddddddddddddd",
"dddddddddddddddddddddddddddddddddddddddddddddddddddddddddddddddddddddddddddd   .38teq0000qet7<   ddddddddddddddddddddddddddddddd",
"ddddddddddddddddddddddddddddddddddddddddddddddddddddddddddddddddddddddddddddd   #6qteq000qwre6*   dddddddddddddddddddddddddddddd",
"dddddddddddddddddddddddddddddddddddddddddddddddddddddddddddddddddddddddddddddd   =6wteq000qet05o   ddddddddddddddddddddddddddddd",
"ddddddddddddddddddddddddddddddddddddddddddddddddddddddddddddddddddddddddddddddd   <7eteqq0qwee6,X  ddddddddddddddddddddddddddddd",
"ddddddddddddddddddddddddddddddddddddddddddddddddddddddddddddddddddddddddddddddd   o<6wtewqqqetw6>   dddddddddddddddddddddddddddd",
"dddddddddddddddddddddddddddddddddddddddddddddddddddddddddddddddddddddddddddddddd   o,6qtrewwwet95o   ddddddddddddddddddddddddddd",
"ddddddddddddddddddddddddddddddddddddddddddddddddddddddddddddddddddddddddddddddddd   X>68etreeete6,X  ddddddddddddddddddddddddddd",
"dddddddddddddddddddddddddddddddddddddddddddddddddddddddddddddddddddddddddddddddddd    +169ettttuq6>   dddddddddddddddddddddddddd",
"ddddddddddddddddddddddddddddddddddddddddddddddddddddddddddddddddddddddddddddddddddd     %16qeyuit85o  dddddddddddddddddddddddddd",
"ddddddddddddddddddddddddddddddddddddddddddddddddddddddddddddddddddddddddddddddddddddd     =46qeuie6-   ddddddddddddddddddddddddd",
"dddddddddddddddddddddddddddddddddddddddddddddddddddddddddddddddddddddddddddddddddddddd     X=469qu91   ddddddddddddddddddddddddd",
"dddddddddddddddddddddddddddddddddddddddddddddddddddddddddddddddddddddddddddddddddddddddd      %1666$   ddddddddddddddddddddddddd",
"dddddddddddddddddddddddddddddddddddddddddddddddddddddddddddddddddddddddddddddddddddddddddd      +*+   dddddddddddddddddddddddddd",
"dddddddddddddddddddddddddddddddddddddddddddddddddddddddddddddddddddddddddddddddddddddddddddd          dddddddddddddddddddddddddd",
"dddddddddddddddddddddddddddddddddddddddddddddddddddddddddddddddddddddddddddddddddddddddddddddd      dddddddddddddddddddddddddddd",
"dddddddddddddddddddddddddddddddddddddddddddddddddddddddddddddddddddddddddddddddddddddddddddddddddddddddddddddddddddddddddddddddd",
"dddddddddddddddddddddddddddddddddddddddddddddddddddddddddddddddddddddddddddddddddddddddddddddddddddddddddddddddddddddddddddddddd",
"dddddddddddddddddddddddddddddddddddddddddddddddddddddddddddddddddddddddddddddddddddddddddddddddddddddddddddddddddddddddddddddddd",
"dddddddddddddddddddddddddddddddddddddddddddddddddddddddddddddddddddddddddddddddddddddddddddddddddddddddddddddddddddddddddddddddd",
"dddddddddddddddddddddddddddddddddddddddddddddddddddddddddddddddddddddddddddddddddddddddddddddddddddddddddddddddddddddddddddddddd",
"dddddddddddddddddddddddddddddddddddddddddddddddddddddddddddddddddddddddddddddddddddddddddddddddddddddddddddddddddddddddddddddddd",
"dddddddddddddddddddddddddddddddddddddddddddddddddddddddddddddddddddddddddddddddddddddddddddddddddddddddddddddddddddddddddddddddd",
"dddddddddddddddddddddddddddddddddddddddddddddddddddddddddddddddddddddddddddddddddddddddddddddddddddddddddddddddddddddddddddddddd",
"dddddddddddddddddddddddddddddddddddddddddddddddddddddddddddddddddddddddddddddddddddddddddddddddddddddddddddddddddddddddddddddddd",
"dddddddddddddddddddddddddddddddddddddddddddddddddddddddddddddddddddddddddddddddddddddddddddddddddddddddddddddddddddddddddddddddd",
"dddddddddddddddddddddddddddddddddddddddddddddddddddddddddddddddddddddddddddddddddddddddddddddddddddddddddddddddddddddddddddddddd",
"dddddddddddddddddddddddddddddddddddddddddddddddddddddddddddddddddddddddddddddddddddddddddddddddddddddddddddddddddddddddddddddddd",
"dddddddddddddddddddddddddddddddddddddddddddddddddddddddddddddddddddddddddddddddddddddddddddddddddddddddddddddddddddddddddddddddd",
"dddddddddddddddddddddddddddddddddddddddddddddddddddddddddddddddddddddddddddddddddddddddddddddddddddddddddddddddddddddddddddddddd"
};
