/* XPM */
static char *cut[] = {
/* columns rows colors chars-per-pixel */
"28 44 100 2",
"   c black",
".  c #060606",
"X  c #0B0B0B",
"o  c #131313",
"O  c gray9",
"+  c #202020",
"@  c gray13",
"#  c #252525",
"$  c #2D2D2D",
"%  c #2F2F2F",
"&  c #444444",
"*  c #484848",
"=  c #4B4B4B",
"-  c #4E4E4D",
";  c gray32",
":  c gray36",
">  c gray37",
",  c #60605F",
"<  c #626262",
"1  c #646463",
"2  c #646464",
"3  c #676767",
"4  c DimGray",
"5  c gray42",
"6  c #6D6D6C",
"7  c gray43",
"8  c #6F6F6F",
"9  c #71716F",
"0  c #737372",
"q  c #747474",
"w  c gray47",
"e  c #7B7B7B",
"r  c #7C7C7B",
"t  c gray49",
"y  c gray50",
"u  c #80807F",
"i  c #818181",
"p  c #858583",
"a  c #868686",
"s  c #8B8B89",
"d  c #8D8D8B",
"f  c gray55",
"g  c #91918F",
"h  c #939391",
"j  c #939393",
"k  c #959593",
"l  c gray59",
"z  c #9A9A97",
"x  c #9A9A9A",
"c  c #9F9F9F",
"v  c #A0A09F",
"b  c #A3A3A2",
"n  c gray64",
"m  c #A5A5A3",
"M  c #A5A5A5",
"N  c #A7A7A7",
"B  c gray66",
"V  c #AFAFAC",
"C  c gray70",
"Z  c #B4B4B2",
"A  c #B7B7B7",
"S  c #B9B9B5",
"D  c gray73",
"F  c #BEBEBB",
"G  c #BFBFBD",
"H  c #C0C0BD",
"J  c #C0C0C0",
"K  c #C3C3C0",
"L  c #C6C6C3",
"P  c #C7C7C4",
"I  c gray78",
"U  c #C9C9C6",
"Y  c #CACACA",
"T  c #CBCBCB",
"R  c #CDCDCB",
"E  c #CECECC",
"W  c #CECECE",
"Q  c #D0D0CE",
"!  c LightGray",
"~  c #D6D6D1",
"^  c #D4D4D2",
"/  c #D7D7D6",
"(  c #D7D7D7",
")  c #D9D9D7",
"_  c #DBDBD9",
"`  c #DCDCDA",
"'  c #DFDFDD",
"]  c #E0E0DD",
"[  c #E0E0DE",
"{  c gray88",
"}  c #E3E3E1",
"|  c gray89",
" . c #E4E4E3",
".. c #E6E6E4",
"X. c #E7E7E7",
"o. c #E8E8E6",
"O. c gray91",
"+. c #EDEDEB",
"@. c black",
"#. c None",
/* pixels */
"#.#.#.#.#.#.! B b G  .#.#.#.#.#.#.#.#.#.#.#.#.#.#.#.#.#.",
"#.#.#.#.#.Y 2 a d 0 w ! #.#.#.#.#.#.#.#.#.#.#.#.#.#.#.#.",
"#.#.#.#.#.i b } L [ b < E #.#.#.#.#.#.#.#.#.#.#.#.#.#.#.",
"#.#.#.#.O.7 E l & 5 R M 7  .#.#.#.#.#.#.#.#.#.#.#.#.#.#.",
"#.#.#.#.#.q G B q V < ( w B #.#.#.#.#.#.#.#.#.#.#.#.#.#.",
"#.' D c B w p [ < ! k h H w #.#.#.#.#.#.#.#.#.#.#.#.#.#.",
"Y 5 w l f 7 < ' M 5 x t ^ 2 ..#.#.#.#.#.#.#.#.#.#.#.#.#.",
"7 b ..K L ' } ' ..c < S U 7 ..#.#.#.#.#.#.#.#.#.#.#.#.#.",
"> Q B * 0 < d ) o. . ...w x #.#.#.#.#.#.#.#.#.#.#.#.#.#.",
"q l ( 1 B ! h < ^ ' `  .u t ' #.#.#.#.#.#.#.#.#.#.#.#.#.",
"E < Z Q 0 7 i ; L +. . ._ a < k ( #.#.#.#.#.#.#.#.#.#.#.",
"#.I < h ( I V R [ v L  .' ` K p < f T ..#.#.#.#.#.#.#.#.",
"#.#.( a < i g s 4 4 < M _ ! ! ) I h < w H o.#.#.#.#.#.#.",
"#.#.#.O.( B c c H  .Y , F ( ! ! ( _ Q v 5 q D ..#.#.#.#.",
"#.#.#.#.#.#.#.#.#.#.#.m 7 ^ ! ^ I Q ` ` ! m 7 8 A ..#.#.",
"#.#.#.#.#.#.#.#.#.#.#...q k ) ) g & f H _ _ ( V 2 a } #.",
"#.#.#.#.#.#.#.#.#.#.#.#.( < F ( U - 4 1 t A ! ` ^ 0 k #.",
"#.#.#.#.#.#.#.#.#.#.#.#.#.M 7 ! ) v q ) b 5 7 v ^ Q 2 m ",
"#.#.#.#.#.#.#.#.#.#.#.#.#. .w l ) ^ 9 m #...H w 1 z k 4 ",
"#.#.#.#.#.#.#.#.#.#.#.#.#.#.! < H ) H , ! #.#.O.Q a < m ",
"#.#.#.#.#.#.#.#.#.#.#.#.#.#.#.b 7 ^ ) k u o.#.#.#.O...o.",
"#.#.#.#.#.#.#.#.#.#.#.#.#.#.#...w s ) Q 2 Z #.#.#.#.#.#.",
"#.#.#.#.#.#.#.#.#.#.#.#.#.#.#.#.) 1 v ] S < ) #.#.#.#.#.",
"#.#.#.#.#.#.#.#.#.#.#.#.#.#.#.#.#.Y 4 r U u l #.#.#.#.#.",
"#.#.#.#.#.#.#.#.#.#.#.#.#.#.#.#.#.#.' c < > B #.#.#.#.#.",
"#.#.#.#.#.#.#.#.#.#.#.#.#.#.#.#.#.#.#.#.} ( O.#.#.#.#.#.",
"#.#.#.#.#.#.#.#.#.#.#.#.#.#.#.#.#.#.#.#.#.#.#.#.#.#.#.#.",
"#.#.#.#.#.#.#.#.#.#.#.#.#.#.#.#.#.#.#.#.#.#.#.#.#.#.#.#.",
"#.#.#.#.#.#.#.#.#.#.#.#.#.#.#.#.#.#.#.#.#.#.#.#.#.#.#.#.",
"#.#.#.#.#.#.#.#.#.#.#.#.#.#.#.#.#.#.#.#.#.#.#.#.#.#.#.#.",
"#.#.#.#.#.#.#.#.#.#.#.#.#.#.#.#.#.#.#.#.#.#.#.#.#.#.#.#.",
"#.#.#.#.#.#.#.#.#.#.#.#.#.#.#.#.#.#.#.#.#.#.#.#.#.#.#.#.",
"#.#.#.#.#.#.#.j # . o & #.#.#.#.#.#.#.#.#.E #.#.#.#.#.#.",
"#.#.#.#.#.#.x @ C } E h #.#.#.#.#.#.#.#.#.  #.#.#.#.#.#.",
"#.#.#.#.#.#.% M #.#.#.#.#.#.  #.#.#.  #.      #.#.#.#.#.",
"#.#.#.#.#.#.. [ #.#.#.#.#.#.  #.#.#.  #.#.  #.#.#.#.#.#.",
"#.#.#.#.#.#.. } #.#.#.#.#.#.  #.#.#.  #.#.  #.#.#.#.#.#.",
"#.#.#.#.#.#.$ m #.#.#.#.#.#.  O.#. .  #.#.  O.#.#.#.#.#.",
"#.#.#.#.#.#.l O B ..! s #.#.X G E =   #.#.. T #.#.#.#.#.",
"#.#.#.#.#.#.#.f @   O 2 #.#.u X @ M   #.#.< X #.#.#.#.#.",
"#.#.#.#.#.#.#.#.#.#.#.#.#.#.#.#.#.#.#.#.#.#.#.#.#.#.#.#.",
"#.#.#.#.#.#.#.#.#.#.#.#.#.#.#.#.#.#.#.#.#.#.#.#.#.#.#.#.",
"#.#.#.#.#.#.#.#.#.#.#.#.#.#.#.#.#.#.#.#.#.#.#.#.#.#.#.#.",
"#.#.#.#.#.#.#.#.#.#.#.#.#.#.#.#.#.#.#.#.#.#.#.#.#.#.#.#."
};
