/* XPM */
static char *cut[] = {
/* columns rows colors chars-per-pixel */
"32 32 256 2",
"   c #302F2B",
".  c #443C0D",
"X  c #403A17",
"o  c #534805",
"O  c #584C04",
"+  c #534808",
"@  c #584D09",
"#  c #494214",
"$  c #4F481B",
"%  c #504714",
"&  c #554D17",
"*  c #544C1E",
"=  c #525011",
"-  c #555219",
";  c #625500",
":  c #665904",
">  c #635608",
",  c #736401",
"<  c #7D6C00",
"1  c #7B6B0B",
"2  c #786D1C",
"3  c #7F731A",
"4  c #464527",
"5  c #4B4523",
"6  c #4E4822",
"7  c #49452B",
"8  c #4F4A29",
"9  c #534D27",
"0  c #524C2C",
"q  c #5A542D",
"w  c #4A4934",
"e  c #46453D",
"r  c #514F34",
"t  c #504E3F",
"y  c #565133",
"u  c #53513C",
"i  c #645B22",
"p  c #685E20",
"a  c #696024",
"s  c #6B6228",
"d  c #766C26",
"f  c #555241",
"g  c #585647",
"h  c #56554C",
"j  c #5A594B",
"k  c #5B5A52",
"l  c #63604C",
"z  c #646256",
"x  c #67665F",
"c  c #68675E",
"v  c #676763",
"b  c #6B6B67",
"n  c #6D6D6B",
"m  c #70706A",
"M  c #717170",
"N  c #7A7974",
"B  c #7E7E7B",
"V  c #806E02",
"C  c #877500",
"Z  c #887500",
"A  c #8E7A00",
"S  c #81710D",
"D  c #89770C",
"F  c #847908",
"G  c #917E04",
"H  c #837713",
"J  c #857916",
"K  c #817524",
"L  c #877C21",
"P  c #8B7B20",
"I  c #8B800B",
"U  c #958000",
"Y  c #9A8500",
"T  c #9E8800",
"R  c #918E0C",
"E  c #968C12",
"W  c #A28D00",
"Q  c #A08B0F",
"!  c #A59700",
"~  c #AB9300",
"^  c #AD9800",
"/  c #B49B01",
"(  c #B19D13",
")  c #ABA30D",
"_  c #B6A605",
"`  c #BDA200",
"'  c #B5AD0B",
"]  c #BFAE0C",
"[  c #BCB503",
"{  c #ACA81A",
"}  c #BAA31F",
"|  c #95872F",
" . c #92882C",
".. c #9C8D2F",
"X. c #9F9034",
"o. c #A59635",
"O. c #AC9B39",
"+. c #B6A437",
"@. c #B4AB3E",
"#. c #BBAA3B",
"$. c #C1A600",
"%. c #C5AA00",
"&. c #C9AE04",
"*. c #CDB106",
"=. c #C0B00C",
"-. c #CCB20C",
";. c #C3B90F",
":. c #D2B60A",
">. c #D5BA0E",
",. c #C5B614",
"<. c #CDB312",
"1. c #D1B612",
"2. c #D4BB14",
"3. c #DABF13",
"4. c #D0B718",
"5. c #D4BC1D",
"6. c #D6BE23",
"7. c #D6BE2C",
"8. c #D1BC3C",
"9. c #C8C30C",
"0. c #D3CE00",
"q. c #DBD801",
"w. c #CCC811",
"e. c #C7C21E",
"r. c #DCC215",
"t. c #DEC41C",
"y. c #D2D016",
"u. c #DEC523",
"i. c #DBC22B",
"p. c #D8D327",
"a. c #D4D22C",
"s. c #DEC735",
"d. c #D6C836",
"f. c #DEC835",
"g. c #DFC73B",
"h. c #DEC83C",
"j. c #E0C627",
"k. c #E0C728",
"l. c #E2CB3A",
"z. c #E0DA34",
"x. c #88814B",
"c. c #968D45",
"v. c #958B4A",
"b. c #8D8752",
"n. c #A9A146",
"m. c #B7A84A",
"M. c #80807E",
"N. c #B3AC66",
"B. c #B4AF6E",
"V. c #C0BC58",
"C. c #C5BE6C",
"Z. c #C2BC74",
"A. c #DAC544",
"S. c #DCCD41",
"D. c #DFD44D",
"F. c #C9C25C",
"G. c #DDDA5E",
"H. c #E3CC45",
"J. c #E3CE49",
"K. c #E1DC47",
"L. c #E6D14A",
"P. c #E8D34A",
"I. c #E6D252",
"U. c #E9D452",
"Y. c #E3DB57",
"T. c #EAD85B",
"R. c #CCC463",
"E. c #D1CD60",
"W. c #C7C271",
"Q. c #E4DB60",
"!. c #ECD964",
"~. c #EEDE6F",
"^. c #EDDC74",
"/. c #EFDF7E",
"(. c #EAE56B",
"). c #898986",
"_. c #8C8C8B",
"`. c #969482",
"'. c #91918F",
"]. c #9D9C8A",
"[. c #979695",
"{. c #989896",
"}. c #A1A19F",
"|. c #B6B297",
" X c #B8B59A",
".X c #A5A5A5",
"XX c #AAAAA7",
"oX c gray67",
"OX c #B2B2AF",
"+X c #B5B5B4",
"@X c #B9B9B6",
"#X c #BBBBBB",
"$X c #CAC68C",
"%X c #D2CD83",
"&X c #D0CE8C",
"*X c #E0DE8C",
"=X c #EEE585",
"-X c #F0E086",
";X c #F0E58C",
":X c #F2E593",
">X c #C0C0BE",
",X c #D0CFBA",
"<X c #DCDBB5",
"1X c #D9D7BB",
"2X c #E3E2A5",
"3X c #F4EBA5",
"4X c #F5ECA9",
"5X c #E2E0B0",
"6X c #C4C4C2",
"7X c #C9C9C6",
"8X c #CBCBC9",
"9X c #D0D0CE",
"0X c #D9D8C9",
"qX c #D4D4D3",
"wX c #DBDBD4",
"eX c #DCDCDB",
"rX c #E3E2C3",
"tX c #E7E7CC",
"yX c #E8E4CE",
"uX c #E6E5D7",
"iX c #E9E6D6",
"pX c #E2E2DC",
"aX c #E9E7DA",
"sX c #E5E4E3",
"dX c #E9E9E5",
"fX c #EAEAE9",
"gX c #F0F0EE",
"hX c #F5F5F2",
"jX c #F8F8F6",
"kX c #FDFDFC",
"lX c None",
"zX c black",
"xX c black",
"cX c black",
"vX c black",
"bX c black",
"nX c black",
"mX c black",
"MX c black",
"NX c black",
"BX c black",
"VX c black",
"CX c black",
"ZX c black",
"AX c black",
"SX c black",
"DX c black",
"FX c black",
"GX c black",
"HX c black",
"JX c black",
"KX c black",
"LX c black",
"PX c black",
"IX c black",
"UX c black",
/* pixels */
"lXlXlXlXlXlXlXlXlXlXlXlXlXlXlXlXlXlXlXlXlXlXlXlXlXlXlXlXlXlXlXlX",
"lXlXlXlXlXlXlXlXlXlXlXlXlXlXlXlXlXlXlXlXlXlXlXlXlXlXlXlXlXlXlXlX",
"lXlXlXlXlXlXlXlXlXlXlXlXlXlXlXdXdXlXlXlXlXlXlXlXlXlXlXlXlXlXlXlX",
"lXlXlXlXlXlXlXlXlXlXdX2XG.p.0.q.q.0.p.G.2XdXlXlXlXlXlXlXlXlXlXlX",
"lXlXlXlXlXlXlXlXoXw 4 - V.;X4X3X3X4X;X(.z.y.*XfXlXlXlXlXlXlXlXlX",
"lXlXlXlXlXlXlX,Xt sXsXeXv v.^.~.(.~./.-X:X-XK.a.tXlXlXlXlXlXlXlX",
"lXlXlXlXlXlX5XR [.qXe ).jXm o.P.P.I.U.T.!.^.;XY.w.5XlXlXlXlXlXlX",
"lXlXlXlXlXrX9.n.'.9Xi X.b gXy J.P.P.P.P.P.U.!.^.T.9.rXlXlXlXlXlX",
"lXlXlXlXiX{ @.m.h jXf L.d 6X[.#.J.J.P.P.l.j.j.k.I.D.e.aXlXlXlXlX",
"lXlXlX8Xw n B c e wX@Xa o._.6X .J.J.l.t.r.r.r.r.u.L.S.F.lXlXlXlX",
"lXlXlXk eXsX8XsXgXpXhX}.h qXoXo.J.l.r.3.r.r.3.3.r.u.I.[ tXlXlXlX",
"lXlXlXf kXh p 6 v wXgXfXjXfXu A.l.3.3.3.3.r.3.3.r.r.i.d.F.lXlXlX",
"lXlXfX= 9X@Xp 8.+.9 6XsXeXsXz O.3.3.3.3.r.3.3.3.3.r.r.h.' dXlXlX",
"fXfX<X) 7 pX8Xl i 8 6XjXfXfXeXN & Q 3.3.3.3.3.3.r.2.2.u.;.<XlXlX",
"sXaX%X,.} 9 }.dXeXsXsXM oXfXeXsX8XM.* D 1.3.r.r.3.>.>.2.,.&XlXlX",
"iXyXR.,.6.7.P q j j q ..s '.sX9XwXpX9X{.y 1 :.3.>.:.>.>.,.W.lXlX",
"iXiXV.,.2.7.7.l.l.V.H.H.l.* 8XwXqXqXsXfXwX_.9 V ` &.&.:.-.C.lXlX",
"dXaXC.=.4.6.6.7.l.H.J.H.i.( k pXeX#X'.8XsXfXeX{.r < &.*.] Z.lXlX",
"fXfX$X_ 1.5.5.5.2.6.7.H.k.t.S .XsXqX  X N >XsXfXeXB > &._ $XlXlX",
"lXlX1X~ *.4.4.4.4.*.<.<.2.1.1.7 wXsXXX; W . v >XdXhXb G ! 1XlXlX",
"lXlXfXE &.<.<.<.<.&.$.$.$.&.*.Z N sXsXh ~ $.Y > h OXpXq E dXlXlX",
"lXlXlXN.^ &.-.-.&.&.%.$.$.$.$.$.o OXsX7X# $.%.%.^ , u % N.lXlXlX",
"lXlXlXyXD %.&.*.&.%.%.%.$.$.$.$./ w wXsX_.< &.&.%.&./ F wXlXlXlX",
"lXlXlXlXB.W %.&.%.%.%.%.%.%.$.$.` < N dXeX7 / &.%.%.W B.lXlXlXlX",
"lXlXlXlXsX .W %.%.%.%.$.%.%.$.$.$.%.O }.hX+X@ $.%.W  .sXlXlXlXlX",
"lXlXlXlXlXwXJ W $.$.$.$.$.$.$.$.$.$.` + N pXn U ! H wXlXlXlXlXlX",
"lXlXlXlXlXlX0XL G $.$.$.$.` ` ` $.` $.` A # 7 V L 0XlXlXlXlXlXlX",
"lXlXlXlXlXlXlXpXv.Z W / ` ` ` ` ` ` ` / ` ~ C v.pXlXlXlXlXlXlXlX",
"lXlXlXlXlXlXlXsXeX XK V G ~ ^ / / ^ ~ G < K  XqXsXfXlXlXlXlXlXlX",
"lXlXlXlXlXlXlXlXfXsXoX{.b.K J , , 2 J x.`.qXsXfXlXlXlXlXlXlXlXlX",
"lXlXlXlXlXlXlXlXfXeX#X.X.X.X.X.X.XoXoX.X.X+XeXfXlXlXlXlXlXlXlXlX",
"lXlXlXlXlXlXlXlXfXeX#XoXoXoXoXoXoXoXoXoX+X6XeXfXlXlXlXlXlXlXlXlX"
};
