/* XPM */
static char *cut_dis[] = {
/* columns rows colors chars-per-pixel */
"28 28 68 1",
"  c #444444",
". c #484848",
"X c #4E4E4E",
"o c gray32",
"O c gray37",
"+ c #606060",
"@ c gray39",
"# c #646464",
"$ c #696968",
"% c gray42",
"& c #6C6C6B",
"* c #6D6D6D",
"= c gray44",
"- c #747473",
"; c #777777",
": c #797979",
"> c #7B7B7B",
", c #7C7C7C",
"< c #80807F",
"1 c #838383",
"2 c #868686",
"3 c #8C8C8B",
"4 c #8D8D8D",
"5 c gray56",
"6 c #919190",
"7 c #939392",
"8 c #939393",
"9 c #959594",
"0 c gray60",
"q c #9E9E9D",
"w c #9F9F9F",
"e c #A0A0A0",
"r c #A2A2A1",
"t c gray64",
"y c #A4A4A4",
"u c #A7A7A7",
"i c gray67",
"p c #AEAEAE",
"a c #B0B0AF",
"s c #B4B4B3",
"d c #B7B7B7",
"f c #B8B8B7",
"g c gray73",
"h c #BFBFBE",
"j c #C3C3C2",
"k c #C4C4C3",
"l c #C6C6C5",
"z c gray78",
"x c #CBCBCB",
"c c #CDCDCD",
"v c #D0D0CF",
"b c LightGray",
"n c #D4D4D3",
"m c #D7D7D6",
"M c #D8D8D7",
"N c #DADAD9",
"B c #DCDCDB",
"V c #DFDFDF",
"C c #E0E0DF",
"Z c #E2E2E1",
"A c #E4E4E3",
"S c gray90",
"D c #E8E8E7",
"F c gray91",
"G c #E9E9E9",
"H c #EDEDEC",
"J c black",
"K c None",
/* pixels */
"KKKKKKbyrjSKKKKKKKKKKKKKKKKK",
"KKKKKx#24=;bKKKKKKKKKKKKKKKK",
"KKKKK1yZkVrOcKKKKKKKKKKKKKKK",
"KKKKG*c9.%ci=ZKKKKKKKKKKKKKK",
"KKKKK-hi:p#n,yKKKKKKKKKKKKKK",
"KVgwi;1V#n49h;KKKKKKKKKKKKKK",
"x%:94*@Cy%0:n*SKKKKKKKKKKKKK",
"*rSjlVZVGw#gl*SKKKKKKKKKKKKK",
"Obi.=@4NSASD:0KKKKKKKKKKKKKK",
";9n#in8#nCBS<,VKKKKKKKKKKKKK",
"c@sv=*:okHZZB2@9nKKKKKKKKKKK",
"Kl@7NlscCrlSVBj2@4xDKKKKKKKK",
"KKn2@143%%@rNbnNl7#:jDKKKKKK",
"KKKGbiwqhSx@hnbbMNvr%;gSKKKK",
"KKKKKKKKKKKr*nbbkcNNbr&*fSKK",
"KKKKKKKKKKKS:7MM7 3jMVMa#2ZK",
"KKKKKKKKKKKKM#jnxX%@:dnZn-7K",
"KKKKKKKKKKKKKy*nNr;Nr%*rbn@y",
"KKKKKKKKKKKKKS:9Nb*rKSh:@09%",
"KKKKKKKKKKKKKKb@hNh@bKKFx2@y",
"KKKKKKKKKKKKKKKr*nN7,GKKKGSG",
"KKKKKKKKKKKKKKKS:3Nv#dKKKKKK",
"KKKKKKKKKKKKKKKKN#eVd@NKKKKK",
"KKKKKKKKKKKKKKKKKx%:l19KKKKK",
"KKKKKKKKKKKKKKKKKKVw#OiKKKKK",
"KKKKKKKKKKKKKKKKKKKKZnSKKKKK",
"KKKKKKKKKKKKKKKKKKKKKKKKKKKK",
"KKKKKKKKKKKKKKKKKKKKKKKKKKKK"
};
