/* XPM */
static char *cut_dis[] = {
/* columns rows colors chars-per-pixel */
"28 28 66 1",
"  c gray29",
". c gray33",
"X c #565656",
"o c #646464",
"O c #656565",
"+ c #686868",
"@ c DimGray",
"# c gray42",
"$ c gray43",
"% c gray44",
"& c #747474",
"* c gray46",
"= c gray47",
"- c #797979",
"; c #7C7C7C",
": c #7E7E7E",
"> c #808080",
", c gray51",
"< c #848484",
"1 c gray53",
"2 c #898989",
"3 c #8D8D8D",
"4 c #909090",
"5 c gray57",
"6 c gray59",
"7 c #9B9B9B",
"8 c #9F9F9F",
"9 c gray64",
"0 c #A4A4A3",
"q c #A7A7A6",
"w c #A9A9A9",
"e c gray68",
"r c #B2B2B2",
"t c #B4B4B3",
"y c #B4B4B4",
"u c gray73",
"i c gray74",
"p c #C0C0BF",
"a c #C2C2C1",
"s c #C6C6C5",
"d c gray78",
"f c #CBCBCB",
"g c gray80",
"h c #CDCDCD",
"j c #D2D2D1",
"k c gray83",
"l c #D6D6D5",
"z c #D8D8D8",
"x c #DADADA",
"c c #DBDBDA",
"v c #DFDFDF",
"b c gray89",
"n c #E4E4E4",
"m c #E7E7E7",
"M c gray91",
"N c #ECECEB",
"B c #EFEFEF",
"V c #F0F0EF",
"C c gray95",
"Z c #F4F4F4",
"A c gray96",
"S c #F9F9F8",
"D c #FCFCFB",
"F c #FDFDFC",
"G c black",
"H c None",
/* pixels */
"HHHHHHjw9inHHHHHHHHHHHHHHHHH",
"HHHHHf@58--jHHHHHHHHHHHHHHHH",
"HHHHH,ySlAtohHHHHHHHHHHHHHHH",
"HHHHM%bq %bu%bHHHHHHHHHHHHHH",
"HHHHH*ju-e@M2wHHHHHHHHHHHHHH",
"Hvu8e*5A@j5qh-HHHHHHHHHHHHHH",
"f$<97*$Ay$7<M$nHHHHHHHHHHHHH",
"$rFlxASAFe@hx%nHHHHHHHHHHHHH",
"obu %@7CFFFF<7HHHHHHHHHHHHHH",
"*qN@wj5@MACF3,vHHHHHHHHHHHHH",
"hosn:%:XxFSSC5o6xHHHHHHHHHHH",
"Hso9CxpbArxFACl5o3hnHHHHHHHH",
"HHl2@387%@oyCnMCx8@-anHHHHHH",
"HHHMlw88anhojMnMBVnt%-unHHHH",
"HHHHHHHHHHH0-MMNznVCMu*%ynHH",
"HHHHHHHHHHHn-9VV8 7lBCBa%<bH",
"HHHHHHHHHHHHlojBxX@@2fMAM,5H",
"HHHHHHHHHHHHHq-MBr*x9@*rMM$q",
"HHHHHHHHHHHHHn-qBn-0Hni:@wq@",
"HHHHHHHHHHHHHHlojBlojHHnf2oq",
"HHHHHHHHHHHHHHH9-nVq<MHHHMnM",
"HHHHHHHHHHHHHHHn:7Vn$yHHHHHH",
"HHHHHHHHHHHHHHHHxorAhoxHHHHH",
"HHHHHHHHHHHHHHHHHs@<x36HHHHH",
"HHHHHHHHHHHHHHHHHHb8@owHHHHH",
"HHHHHHHHHHHHHHHHHHHHvlnHHHHH",
"HHHHHHHHHHHHHHHHHHHHHHHHHHHH",
"HHHHHHHHHHHHHHHHHHHHHHHHHHHH"
};
