/* XPM */
static char *cut_sel[] = {
/* columns rows colors chars-per-pixel */
"32 32 256 2",
"   c #393315",
".  c #3D3924",
"X  c #3A3935",
"o  c #463D10",
"O  c #55490D",
"+  c #5E5007",
"@  c #5D500F",
"#  c #4A431F",
"$  c #514716",
"%  c #564B12",
"&  c #594D12",
"*  c #554C1A",
"=  c #584F1D",
"-  c #5D5012",
";  c #665607",
":  c #6A5903",
">  c #66570C",
",  c #67590C",
"<  c #695A0D",
"1  c #675810",
"2  c #655A1D",
"3  c #695C1B",
"4  c #73630E",
"5  c #7A670B",
"6  c #7E6D0D",
"7  c #7F700D",
"8  c #6F6110",
"9  c #756713",
"0  c #766813",
"q  c #7A6B10",
"w  c #77691B",
"e  c #474224",
"r  c #4C4622",
"t  c #4E4823",
"y  c #454028",
"u  c #4C472C",
"i  c #4E492B",
"p  c #524B25",
"a  c #504A2B",
"s  c #5A5321",
"d  c #444235",
"f  c #4B4732",
"g  c #4D4933",
"h  c #4F4C3B",
"j  c #514E3D",
"k  c #54513E",
"l  c #605621",
"z  c #655B21",
"x  c #6A5F21",
"c  c #675D28",
"v  c #6D6321",
"b  c #716522",
"n  c #736821",
"m  c #7D7125",
"M  c #7D7229",
"N  c #7C7033",
"B  c #525045",
"V  c #56544B",
"C  c #545452",
"Z  c #585753",
"A  c #5C5B54",
"S  c #5F5E5B",
"D  c #605F5C",
"F  c #60605E",
"G  c #656563",
"H  c #686765",
"J  c #686867",
"K  c gray42",
"L  c #71706E",
"P  c gray45",
"I  c #797977",
"U  c #767778",
"Y  c #7C7C7C",
"T  c #85720B",
"R  c #8B760A",
"E  c #8F790B",
"W  c #917C0C",
"Q  c #837514",
"!  c #8F7D10",
"~  c #8E7C1F",
"^  c #917E13",
"/  c #927F1C",
"(  c #847625",
")  c #867926",
"_  c #897A25",
"`  c #887D2F",
"'  c #907E21",
"]  c #8D8217",
"[  c #8E8219",
"{  c #968112",
"}  c #988211",
"|  c #93821B",
" . c #98851A",
".. c #928A1D",
"X. c #97911D",
"o. c #98931D",
"O. c #8C8220",
"+. c #8E8329",
"@. c #958325",
"#. c #938B21",
"$. c #95852B",
"%. c #91892F",
"&. c #979121",
"*. c #9D9A26",
"=. c #979029",
"-. c #9A932F",
";. c #9E992A",
":. c #8C8134",
">. c #8F8739",
",. c #948533",
"<. c #938D34",
"1. c #92853C",
"2. c #91893B",
"3. c #9A943E",
"4. c #A19C27",
"5. c #A19C2A",
"6. c #A39D30",
"7. c #A29F39",
"8. c #A9A537",
"9. c #A7A23F",
"0. c #ABA83E",
"q. c #8F864D",
"w. c #8F884B",
"e. c #918643",
"r. c #938B44",
"t. c #908648",
"y. c #9F9A48",
"u. c #9A8F50",
"i. c #A9A543",
"p. c #ABA944",
"a. c #ABA548",
"s. c #958E60",
"d. c #9C9674",
"f. c #B3AB65",
"g. c #B9B76C",
"h. c #ADA876",
"j. c #B4AE73",
"k. c #BEBA71",
"l. c #B8B47F",
"z. c #BEBB78",
"x. c #C0BD76",
"c. c #C0BC78",
"v. c gray51",
"b. c #898988",
"n. c #A19D84",
"m. c #ADA98D",
"M. c #B1AC82",
"N. c #BBB781",
"B. c #BDB987",
"V. c #ADA990",
"C. c #B2AE9D",
"Z. c #A2A1A1",
"A. c #ADACAC",
"S. c #B0AFAF",
"D. c #BAB7A7",
"F. c #BBBAAE",
"G. c #B2B1B1",
"H. c #B8B7B7",
"J. c #BBBBBB",
"K. c #C1BC87",
"L. c #C3BE95",
"P. c #C0BFBF",
"I. c #C6C584",
"U. c #C8C687",
"Y. c #CCCA92",
"T. c #C4C099",
"R. c #C8C599",
"E. c #CFCEA0",
"W. c #C6C3AF",
"Q. c #CAC7AC",
"!. c #D3D2A6",
"~. c #D4D2AB",
"^. c #CECCB6",
"/. c #C3C2BB",
"(. c #D0CDBA",
"). c #D6D3B2",
"_. c #D8D7B5",
"`. c #D5D3BC",
"'. c #D9D7BC",
"]. c #BEBEC0",
"[. c gray76",
"{. c #CBCAC3",
"}. c #CACAC9",
"|. c #D6D3C2",
" X c #DBD6C1",
".X c #DDDCC5",
"XX c #DDDCC9",
"oX c #CFCFD0",
"OX c #D3D3D4",
"+X c #DDDCD2",
"@X c gray86",
"#X c #E0DFCE",
"$X c #E1DED2",
"%X c #E2E0D5",
"&X c #E6E4DE",
"*X c #E5E5E2",
"=X c #E9E8E6",
"-X c #E9E9E9",
";X c None",
":X c black",
">X c black",
",X c black",
"<X c black",
"1X c black",
"2X c black",
"3X c black",
"4X c black",
"5X c black",
"6X c black",
"7X c black",
"8X c black",
"9X c black",
"0X c black",
"qX c black",
"wX c black",
"eX c black",
"rX c black",
"tX c black",
"yX c black",
"uX c black",
"iX c black",
"pX c black",
"aX c black",
"sX c black",
"dX c black",
"fX c black",
"gX c black",
"hX c black",
"jX c black",
"kX c black",
"lX c black",
"zX c black",
"xX c black",
"cX c black",
"vX c black",
"bX c black",
"nX c black",
"mX c black",
"MX c black",
"NX c black",
"BX c black",
"VX c black",
"CX c black",
"ZX c black",
"AX c black",
"SX c black",
"DX c black",
"FX c black",
"GX c black",
"HX c black",
"JX c black",
"KX c black",
"LX c black",
"PX c black",
"IX c black",
"UX c black",
/* pixels */
";X;X;X;X;X;X;X;X;X;X;X;X;X;X;X;X;X;X;X;X;X;X;X;X;X;X;X;X;X;X;X;X",
";X;X;X;X;X;X;X;X;X;X;X=X.X!.Y.I.I.I.Y.!.#X=X;X;X;X;X;X;X;X;X;X;X",
";X;X;X;X;X;X;X;X;X&X~.x.p.*.o.X.X.X.o.;.p.x.).=X;X;X;X;X;X;X;X;X",
";X;X;X;X;X;X;X-X.Xk.4.&.<.r.w.w.q.q.w.r.<.X.4.x..X;X;X;X;X;X;X;X",
";X;X;X;X;X;X=X~.8.&.2.e.e.e.1.r.1.1.e.e.t.e.2.&.p._.-X;X;X;X;X;X",
";X;X;X;X;X-XE.5.#.1.e.1.,.,.,.$.$.$.$.,.1.1.e.1.#.5.!.-X;X;X;X;X",
";X;X;X;X;X).5.#.1.N c ( $.$.$.$.$.$.$.$.$.$.,.1.1...8._.;X;X;X;X",
";X;X;X;XXX9.#.,.1.p C j l @.$.$.$.$.$.$.@. . . .$.$...a.%X;X;X;X",
";X;X;X-Xg...%.,.$.w B v.Z s $.$.$.$.$. .} } } } } @.$...c.=X;X;X",
";X;X;X.X5.#.,.$.$.$.p G v.B v $.$.@. .} } } } } }  .$.[ 6.#X;X;X",
";X;X-Xg...w 3 ) $.$.) g I Y g ( @. .} } } } ^ } } } { @...z.-X;X",
";X;X*X7.| p C g 2 ( $.v V v.J p | } } } } } } } } } } ..] i.=X;X",
"-X=X'.=.| 3 V v.G h p n p K v.V 9 } ^ } } ^ } ^ { { { { { -.`.;X",
"&X%XK.[ [ | = Z Y v.P V . X v.I u T } } } } } } } { { { ] #.R.;X",
"%X Xf.| / | _ 2 g F Y v.I F I v.K * W } } } } } W W W { { [ B.;X",
"$X'.f.] { / | @.( z g A I v.v.Y v.V < W 4 1 < T W W W { ! [ N.;X",
"&X%Xj.] ^ ^ / / ' ' _ x a V P Y v.v.B e D F F k & R W W W [ B.;X",
"=X=XL.[ ^ ^ / /  ./ ' ' ' 9 * h L b.b.v.P j k K J $ T W W _ T.;X",
";X;X X+.! ^ / ^ / ^ W / ^ ^ W T r L b.b.H o : O D J * W E %.`.;X",
";X;X*X3.T ^ ^ ^ ^ ^ W W W W W E % K v.v.b.L k t d v.t E R y.*X;X",
";X;X-Xj.Q W ^ ^ W W W W E E E R i I e h v.P K P U D - E Q l.;X;X",
";X;X;XXX` T W E W W W W E E E R i P $ ; D K   * = 1 R T 2.+X;X;X",
";X;X;X-Xh.Q E E W W E E W E E E @ J V + o Y i R E { R Q M.-X;X;X",
";X;X;X;X$Xe.T E W E W E E E W E T e L D d Y i R E R 7 u.%X;X;X;X",
";X;X;X;X;X(.` T R R W W E E E E E 5 t F P S & E R 7 :.|.;X;X;X;X",
";X;X;X;X;X-XW.` 6 R W R E E E E E E T > - , R R 7 :.^.;X;X;X;X;X",
";X;X;X;X;X;X-X^.1.0 T R E R R R E E R W E R T q r.`.;X;X;X;X;X;X",
";X;X;X;X;X-X=X*X{.d.M 5 T T T R R R R T 6 0 ( d.{.*X=X;X;X;X;X;X",
";X;X;X;X;X-X@X@X-X*XW.m.t.m w 9 5 5 w M s.n.H.@XOX}.@X-X;X;X;X;X",
";X;X;X;X;X-X*X*X-X*X@XoX}./.D.V.m.m.C.P.OXoXOX@X*X@X=X-X;X;X;X;X",
";X;X;X;X;X;X;X;X-X@X[.G.J.J.J.J.P.H.A.S.S.A.S.].@X-X;X;X;X;X;X;X",
";X;X;X;X;X;X;X;X-X&X}.J.P.P.H.S.S.A.Z.Z.Z.Z.Z.A.}.*X;X;X;X;X;X;X"
};
