/* XPM */
static char *cut_sel[] = {
/* columns rows colors chars-per-pixel */
"28 28 75 1",
"  c gray10",
". c gray14",
"X c #282827",
"o c gray17",
"O c #2C2C2B",
"+ c gray18",
"@ c #30302F",
"# c #323232",
"$ c gray20",
"% c #343434",
"& c #383837",
"* c gray22",
"= c gray23",
"- c #3C3C3C",
"; c #3F3F3E",
": c gray26",
"> c #444444",
", c #484847",
"< c #494949",
"1 c #4C4C4B",
"2 c #4E4E4E",
"3 c #535352",
"4 c #535353",
"5 c gray33",
"6 c #585857",
"7 c #585858",
"8 c #5E5E5D",
"9 c #61615F",
"0 c #616160",
"q c #646462",
"w c gray40",
"e c #696967",
"r c gray42",
"t c #6C6C6A",
"y c #6C6C6C",
"u c #717170",
"i c #727272",
"p c #747473",
"a c #777775",
"s c #787877",
"d c gray47",
"f c #7C7C7B",
"g c gray49",
"h c #80807E",
"j c #818181",
"k c #848483",
"l c #868684",
"z c #888887",
"x c #898988",
"c c #8B8B8A",
"v c #8E8E8D",
"b c gray58",
"n c #9A9A9A",
"m c gray62",
"M c #A0A0A0",
"N c #A9A9A9",
"B c #AAAAAA",
"V c gray69",
"C c gray71",
"Z c gray73",
"A c gray74",
"S c gray75",
"D c #C1C1C1",
"F c #C6C6C6",
"G c gray79",
"H c #CBCBCB",
"J c #D0D0D0",
"K c gray83",
"L c #DADADA",
"P c gainsboro",
"I c gray88",
"U c #E7E7E7",
"Y c #E9E9E9",
"T c black",
"R c None",
/* pixels */
"RRRRRRSdymIRRRRRRRRRRRRRRRRR",
"RRRRRV+25-*SRRRRRRRRRRRRRRRR",
"RRRRR>0xal0OCRRRRRRRRRRRRRRR",
"RRRRU#g7 *dw%PRRRRRRRRRRRRRR",
"RRRRR*iw-j#h<dRRRRRRRRRRRRRR",
"RKbyg-2l#Z76i&RRRRRRRRRRRRRR",
"V#>74-*l0#e,h@IRRRRRRRRRRRRR",
"#0xpalxlx8%ya#URRRRRRRRRRRRR",
"Xgq %@3hxxxx<wRRRRRRRRRRRRRR",
"-7j#hS7#gljz2:JRRRRRRRRRRRRR",
"COtf:#>.svxzk2+8FRRRRRRRRRRR",
"RNO6hprfl0szlkp2+5VYRRRRRRRR",
"RRF1+<54&+Oqjgjjs3%-MYRRRRRR",
"RRRYSgrymYVOihgghkf9&*bIRRRR",
"RRRRRRRRRRRi-hhhsfjkgq*%vURR",
"RRRRRRRRRRRI-6jj4X4pkkhr%<LR",
"RRRRRRRRRRRRD+ihsX@+,yhkh:6R",
"RRRRRRRRRRRRRa-gk0&Gy#*qhh#a",
"RRRRRRRRRRRRRI-6jh-iRIn:#77+",
"RRRRRRRRRRRRRRD+phaOSRRUV2Oi",
"RRRRRRRRRRRRRRRi-fk6:YRRRYPY",
"RRRRRRRRRRRRRRRI:3kf#xRRRRRR",
"RRRRRRRRRRRRRRRRG@9kyOGRRRRR",
"RRRRRRRRRRRRRRRRRN+,s10RRRRR",
"RRRRRRRRRRRRRRRRRRKt#OdRRRRR",
"RRRRRRRRRRRRRRRRRRRRKDYRRRRR",
"RRRRRRRRRRRRRRRRRRRRRRRRRRRR",
"RRRRRRRRRRRRRRRRRRRRRRRRRRRR"
};
