/* XPM */
static char *cut_sel[] = {
/* columns rows colors chars-per-pixel */
"32 32 256 2",
"   c #1D1C1A",
".  c #201F11",
"X  c #26230E",
"o  c #292408",
"O  c #2E2B0B",
"+  c #342D04",
"@  c #322D0D",
"#  c #3C3402",
"$  c #33310F",
"%  c #272613",
"&  c #2D2A13",
"*  c #2D2A1B",
"=  c #322E15",
"-  c #312E1A",
";  c #3B3615",
":  c #3E3914",
">  c #35311C",
",  c #38341C",
"<  c #262620",
"1  c #2C2B23",
"2  c #322F20",
"3  c #333125",
"4  c #35342D",
"5  c #3B3A2E",
"6  c #373631",
"7  c #3C3B34",
"8  c #3E3E3B",
"9  c #453D03",
"0  c #463E09",
"q  c #403B18",
"w  c #4B4202",
"e  c #4A4209",
"r  c #514602",
"t  c #544A01",
"y  c #5A4E00",
"u  c #524A08",
"i  c #565101",
"p  c #5E5100",
"a  c #474117",
"s  c #534B14",
"d  c #5D541D",
"f  c #615500",
"g  c #655900",
"h  c #6A5C00",
"j  c #605309",
"k  c #6A5E0B",
"l  c #635A1F",
"z  c #646203",
"x  c #6C6502",
"c  c #676208",
"v  c #746400",
"b  c #726A05",
"n  c #7A6A04",
"m  c #766D0C",
"M  c #7C6D0B",
"N  c #777402",
"B  c #7A7701",
"V  c #7F7C01",
"C  c #7F710D",
"Z  c #706213",
"A  c #7F7113",
"S  c #7F701C",
"D  c #4A4520",
"F  c #4C4821",
"G  c #59532E",
"H  c #41413E",
"J  c #665C22",
"K  c #6D6523",
"L  c #65612A",
"P  c #6E652C",
"I  c #6F682C",
"U  c #706623",
"Y  c #7D7124",
"T  c #7F7B21",
"R  c #716D34",
"E  c #737135",
"W  c #7F7A31",
"Q  c #7F7A39",
"!  c #434341",
"~  c #494946",
"^  c #4C4C4B",
"/  c #545243",
"(  c #5C5B4B",
")  c #545453",
"_  c #5B5B5A",
"`  c #61615F",
"'  c #646463",
"]  c #6B6B6A",
"[  c #757574",
"{  c #797977",
"}  c #7C7C7B",
"|  c #806F08",
" . c #827F06",
".. c #83730C",
"X. c #807E08",
"o. c #837414",
"O. c #83751A",
"+. c #867722",
"@. c #837923",
"#. c #897B25",
"$. c #827629",
"%. c #857C2B",
"&. c #897C2C",
"*. c #827C34",
"=. c #8A7E31",
"-. c #817D62",
";. c #838201",
":. c #86831F",
">. c #878429",
",. c #908E25",
"<. c #8B8234",
"1. c #8C823B",
"2. c #8E8445",
"3. c #8C8940",
"4. c #8F864C",
"5. c #948F4A",
"6. c #8F8A52",
"7. c #908650",
"8. c #908A54",
"9. c #918958",
"0. c #969454",
"q. c #A4A354",
"w. c #848066",
"e. c #938D64",
"r. c #80807F",
"t. c #B4B375",
"y. c #848482",
"u. c #888886",
"i. c #8B8B8A",
"p. c #90908F",
"a. c #949492",
"s. c gray60",
"d. c #B9B785",
"f. c #B6B48C",
"g. c #ACAB94",
"h. c #B6B496",
"j. c gray68",
"k. c #BEBDAD",
"l. c #B6B6B6",
"z. c #C5C39F",
"x. c #C7C6A8",
"c. c #C9C6BB",
"v. c #CBCABB",
"b. c #D0CCB3",
"n. c #D0D0B1",
"m. c #C5C5C5",
"M. c gray79",
"N. c #D6D5C5",
"B. c #D8D5C2",
"V. c #D5D4CA",
"C. c #DBD9CA",
"Z. c gray84",
"A. c #DEDDDC",
"S. c #E1E0D7",
"D. c #E4E3DC",
"F. c #E7E7E5",
"G. c #E8E7E5",
"H. c #E9E8E6",
"J. c gray91",
"K. c None",
"L. c black",
"P. c black",
"I. c black",
"U. c black",
"Y. c black",
"T. c black",
"R. c black",
"E. c black",
"W. c black",
"Q. c black",
"!. c black",
"~. c black",
"^. c black",
"/. c black",
"(. c black",
"). c black",
"_. c black",
"`. c black",
"'. c black",
"]. c black",
"[. c black",
"{. c black",
"}. c black",
"|. c black",
" X c black",
".X c black",
"XX c black",
"oX c black",
"OX c black",
"+X c black",
"@X c black",
"#X c black",
"$X c black",
"%X c black",
"&X c black",
"*X c black",
"=X c black",
"-X c black",
";X c black",
":X c black",
">X c black",
",X c black",
"<X c black",
"1X c black",
"2X c black",
"3X c black",
"4X c black",
"5X c black",
"6X c black",
"7X c black",
"8X c black",
"9X c black",
"0X c black",
"qX c black",
"wX c black",
"eX c black",
"rX c black",
"tX c black",
"yX c black",
"uX c black",
"iX c black",
"pX c black",
"aX c black",
"sX c black",
"dX c black",
"fX c black",
"gX c black",
"hX c black",
"jX c black",
"kX c black",
"lX c black",
"zX c black",
"xX c black",
"cX c black",
"vX c black",
"bX c black",
"nX c black",
"mX c black",
"MX c black",
"NX c black",
"BX c black",
"VX c black",
"CX c black",
"ZX c black",
"AX c black",
"SX c black",
"DX c black",
"FX c black",
"GX c black",
"HX c black",
"JX c black",
"KX c black",
"LX c black",
"PX c black",
"IX c black",
"UX c black",
/* pixels */
"K.K.K.K.K.K.K.K.K.K.K.K.K.K.K.K.K.K.K.K.K.K.K.K.K.K.K.K.K.K.K.K.",
"K.K.K.K.K.K.K.K.K.K.K.K.K.K.K.K.K.K.K.K.K.K.K.K.K.K.K.K.K.K.K.K.",
"K.K.K.K.K.K.K.K.K.K.K.K.K.K.K.S.S.K.K.K.K.K.K.K.K.K.K.K.K.K.K.K.",
"K.K.K.K.K.K.K.K.K.K.D.t.,. .V ;.;. .;.,.t.F.K.K.K.K.K.K.K.K.K.K.",
"K.K.K.K.K.K.K.K.} % % = E 8.e.e.e.e.8.1.,. .q.J.K.K.K.K.K.K.K.K.",
"K.K.K.K.K.K.K.g.1 u.i.y.8 G 2.2.2.2.4.7.8.4.>. .n.K.K.K.K.K.K.K.",
"K.K.K.K.K.K.d.i _ y.< ) a.! J &.<.&.=.<.1.4.7.<.B d.K.K.K.K.K.K.",
"K.K.K.K.K.z.N L ) } ; J H i.2 #.&.>.<.&.&.=.1.2.1.N z.K.K.K.K.K.",
"K.K.K.K.C.z K I 4 a.3 >.q { _ K &.&.=.,.#.O.o.O.=.%.N N.K.K.K.K.",
"K.K.K.j.% H ^ 8 < y.[ : J ) [ d &.&.#.O... .....o.&.@.>.K.K.K.K.",
"K.K.K.< y.u.{ u.p.u.p.` 6 r.' J &.+...............o.<.N x.K.K.K.",
"K.K.K.1 s.4 : & 8 y.p.i.a.i.2 #.+...................O.@.T K.K.K.",
"K.K.J.O } ] : Y K - [ i.r.i.7 l ......................+.x F.K.K.",
"G.G.f.c * u.{ 5 ; * [ s.p.i.u.~ @ j ..............| ..o.m f.K.K.",
"S.C.5.m Z = ' i.y.i.u.H ' p.u.u.} ^ = r M ........| C C m 0.K.K.",
"B.b.%.m o.S s , 4 4 > d q ) u.} y.p.-._ > w M | | C M C m <.K.K.",
"B.b.$.m M S O.$.$.$.$.&.+.- y.-.} r.i.i.y.) - 9 v | v | n *.K.K.",
"S.C.*.b | o.o.O.+.$.&.#.O.k 6 u.y.[ ) } i.i.r._ - 9 v | v *.K.K.",
"H.H.8.x M o.o.A o.o.O.$.+...0 ' i.r.  . ~ [ u.i.u.~ 9 | x 9.K.K.",
"K.K.h.j n M M M M n M M o.| | - r.i.' # y o 8 [ i.a.8 r g h.K.K.",
"K.K.F.i n M M M M n v v v v | 9 ~ i.i.4 f v y 9 3 ] u.> i J.K.K.",
"K.K.K.I g n n n v n v v v v v v + ] i.[ o v v | h 9 3 & I K.K.K.",
"K.K.K.v.t v n n v n v v v v v v h * y.i.) 9 | v v v h r v.K.K.K.",
"K.K.K.K.R f v v n n v v v v v v v 9 ~ i.u.* h v v n f R K.K.K.K.",
"K.K.K.K.A.u f v v v v v v v v v v v + ` a.] + v v g u A.K.K.K.K.",
"K.K.K.K.K.c.w f v v v v v v v v v v v + ~ u.! y g w c.K.K.K.K.K.",
"K.K.K.K.K.K.k.w y v v v v v v v v v v h t O & w w k.K.K.K.K.K.K.",
"K.K.K.K.K.K.K.V.s r p v v v h v h v v h v f r s V.K.K.K.K.K.K.K.",
"K.K.K.K.K.K.K.Z.m.-.0 9 y h g v v g g y w 0 -.m.Z.J.K.K.K.K.K.K.",
"K.K.K.K.K.K.K.K.J.A.[ ( F 0 0 0 9 0 0 a / l.A.J.K.K.K.K.K.K.K.K.",
"K.K.K.K.K.K.K.K.J.m.} ` ` ' ' ' ' ' ' ' ` [ m.J.K.K.K.K.K.K.K.K.",
"K.K.K.K.K.K.K.K.J.m.r.] ' ] ' ' ' ' ] ] [ u.M.J.K.K.K.K.K.K.K.K."
};
