/* XPM */
static char *forward_sel[] = {
/* columns rows colors chars-per-pixel */
"28 28 111 2",
"   c #00165E",
".  c #001760",
"X  c #001863",
"o  c #091F62",
"O  c #001A6C",
"+  c #001C74",
"@  c #001E7B",
"#  c #0B236D",
"$  c #132764",
"%  c #1A2D67",
"&  c #0C2572",
"*  c #03227E",
"=  c #09267E",
"-  c #0C297F",
";  c #132A70",
":  c #2A3B6E",
">  c #2B3D73",
",  c #253B7D",
"<  c #2E417B",
"1  c #334374",
"2  c #3A4A7B",
"3  c #404F7C",
"4  c #445178",
"5  c #001F82",
"6  c #022283",
"7  c #092783",
"8  c #0C2A85",
"9  c #062689",
"0  c #0D2B89",
"q  c #112D83",
"w  c #163184",
"e  c #1A3380",
"r  c #16338D",
"t  c #18368D",
"y  c #1E398D",
"u  c #1A3791",
"i  c #1D3B93",
"p  c #243C85",
"a  c #243E8E",
"s  c #243F91",
"d  c #2E4485",
"f  c #26408E",
"g  c #2A438F",
"h  c #314583",
"j  c #3E4E80",
"k  c #344A8A",
"l  c #3E528C",
"z  c #274191",
"x  c #2C4692",
"c  c #2F4892",
"v  c #324A92",
"b  c #3B5194",
"n  c #405287",
"m  c #4C5A85",
"M  c #45578D",
"N  c #46588C",
"B  c #505F8E",
"V  c #415696",
"C  c #455893",
"Z  c #495C94",
"A  c #596487",
"S  c #52618F",
"D  c #4F6197",
"F  c #536394",
"G  c #586796",
"H  c #5D6A93",
"J  c #566698",
"K  c #576898",
"L  c #5C6B98",
"P  c #616A85",
"I  c #686F87",
"U  c #6A728A",
"Y  c #606C91",
"T  c #657197",
"R  c #6A7494",
"E  c #647198",
"W  c #6A7598",
"Q  c #757D95",
"!  c #737D98",
"~  c #7F8497",
"^  c #7C8398",
"/  c #818696",
"(  c #848897",
")  c #898C97",
"_  c #818798",
"`  c #858A99",
"'  c #8A8E9A",
"]  c #8E9199",
"[  c #939498",
"{  c #979899",
"}  c gray60",
"|  c #9598A0",
" . c #9B9DA2",
".. c #9FA3B0",
"X. c #A0A1A5",
"o. c #A4A6AA",
"O. c #A7A8AC",
"+. c #ABACAE",
"@. c #A6A9B2",
"#. c #ABACB1",
"$. c #B4B4B6",
"%. c #B6B7B9",
"&. c #BCBCBC",
"*. c gray76",
"=. c gray80",
"-. c gray83",
";. c gainsboro",
":. c #E4E4E4",
">. c #E9E9E9",
",. c black",
"<. c None",
/* pixels */
"<.<.<.<.<.<.<.<.<.>.=.&.$.$.$.$.%.=.:.<.<.<.<.<.<.<.<.<.",
"<.<.<.<.<.<.<.;.&.} { { { { { { { { } %.;.<.<.<.<.<.<.<.",
"<.<.<.<.<.>.*.} [ [ [ ] [ [ [ [ [ [ [ [ } &.:.<.<.<.<.<.",
"<.<.<.<.:.+.[ ) ) ) ) ) ( ) ) ( ` ` ` ` ) [ o.;.<.<.<.<.",
"<.<.<.:.o.) / / / _ ~ / ~ ~ ~ ~ _ ^ / ^ ~ ^ ( X.:.<.<.<.",
"<.<.>.+./ Q Q Q Q Q Q ^ ( ) ) ) _ Q Q Q Q Q Q / X.>.<.<.",
"<.<.*./ R R R R W ^ ) ` ^ Q Q Q ( ` ^ W R R Y R ~ &.<.<.",
"<.:.` H Y Y Y T _ ^ W H H H H H H T ^ ^ Y H H H F Q -.<.",
"<.*.n w M S G ^ ! F F H G F B S B B F W ~ G B l 0 k $.<.",
">.' w 5 7 a Y ! C N N G ^ R C M N N M C W R a 9 5 0 ^ :.",
"-.H 6 @ @ r E z p h k k E [ _ G b g d p y E u 5 6 6 B =.",
"&.l @ @ 6 v Z 5 * * = - t Q } [ ! x 9 5 5 V V 5 @ 5 h &.",
"O.h @ @ 6 D x @ @ * @ @ 5 x ] } } ] H s 9 s K 5 @ @ p @.",
" ., + + 6 J a @ + + @ @ @ 6 H } } } } ` b i L 9 @ @ e ..",
" ., + + * F f + + + + + @ 0 ! { } } ` J r i L 9 @ @ e ..",
"o.< O + * C b @ + + + @ @ Z [ } ' H i 5 @ v Z @ + + , @.",
"&.j O + + a H 6 + O + @ a ) { T z 6 + + 5 G z + + + < $.",
"-.A + O O * L v + O O 8 E Q v * + O O + z E 7 + + + m =.",
">._ ; O O O y E t + @ z b 7 + O O O + r E a + O + & Q :.",
"<.%.2 X O X + z E g * 6 + O O O O @ a E v @ O O O > +.<.",
"<.;.Q # X O X + y G G g q = = 0 a F L s @ O O O # U ;.<.",
"<.<.&.m X X X X X = g D L L L H J c 7 O X X X X 2 $.<.<.",
"<.<.>. .1 . X X X X X + = q q = + X X X X X X > [ >.<.<.",
"<.<.<.;.[ 1 X . X   X X   X   X X X X X X X > ` ;.<.<.<.",
"<.<.<.<.;.| 4 o         . .   X . . . . o 2 ' -.<.<.<.<.",
"<.<.<.<.<.>.$.U > o             .   o : P #.:.<.<.<.<.<.",
"<.<.<.<.<.<.>.-.+.U 4 : % $ $ % : 3 I X.-.>.<.<.<.<.<.<.",
"<.<.<.<.<.<.<.<.>.;.*.X.] / ) ]  .&.;.>.<.<.<.<.<.<.<.<."
};
