/* XPM */
static char *forward[] = {
/* columns rows colors chars-per-pixel */
"32 32 256 2",
"   c #00259D",
".  c #00289F",
"X  c #0027A1",
"o  c #0029A3",
"O  c #082EA1",
"+  c #002AAB",
"@  c #0F34A3",
"#  c #0B32AB",
"$  c #1337A3",
"%  c #1035A8",
"&  c #1439AB",
"*  c #002CB3",
"=  c #002EBB",
"-  c #0934B7",
";  c #0030BF",
":  c #0A36BA",
">  c #123AB3",
",  c #1F41AB",
"<  c #1C41B6",
"1  c #3453AE",
"2  c #284BB5",
"3  c #415EB5",
"4  c #405EB9",
"5  c #4763B8",
"6  c #4B67BB",
"7  c #5C75BF",
"8  c #002FC4",
"9  c #002FCB",
"0  c #0031C3",
"q  c #0032CB",
"w  c #0034D4",
"e  c #0C3ED3",
"r  c #0035DA",
"t  c #0539DA",
"y  c #093DDA",
"u  c #0037E0",
"i  c #033BE4",
"p  c #073EE8",
"a  c #1A43C2",
"s  c #1143D6",
"d  c #1F4EDF",
"f  c #294EC0",
"g  c #214FDA",
"h  c #2551D9",
"j  c #2F59DB",
"k  c #345DDC",
"l  c #3F66DD",
"z  c #0D43E4",
"x  c #0B42E8",
"c  c #1346E2",
"v  c #1649E0",
"b  c #194CE5",
"n  c #1147EA",
"m  c #1549E8",
"M  c #194DEB",
"N  c #1E51EB",
"B  c #1D53F5",
"V  c #1C54FD",
"C  c #2151E2",
"Z  c #2C59E2",
"A  c #2153EB",
"S  c #2B5BED",
"D  c #315DE3",
"F  c #305EE9",
"G  c #2357F1",
"H  c #2D5EF2",
"J  c #3B64E0",
"K  c #3362ED",
"L  c #3865EE",
"P  c #3565F4",
"I  c #3B69F4",
"U  c #4D6CCB",
"Y  c #5F7ACA",
"T  c #486DDA",
"R  c #5676D9",
"E  c #657FCF",
"W  c #617ED8",
"Q  c #446DE7",
"!  c #587AE0",
"~  c #5278EA",
"^  c #597CE9",
"/  c #4974F5",
"(  c #4673F9",
")  c #4975FA",
"_  c #6180DB",
"`  c #6E89DA",
"'  c #718CDD",
"]  c #7F94D3",
"[  c #5C80EA",
"{  c #5C84FA",
"}  c #6A89E7",
"|  c #6284E9",
" . c #6688ED",
".. c #6989EA",
"X. c #708CE0",
"o. c #708DE8",
"O. c #7692E7",
"+. c #7A96ED",
"@. c #6286F0",
"#. c #678DFE",
"$. c #6A8FFB",
"%. c #6E91FB",
"&. c #7495F7",
"*. c #7997F2",
"=. c #7E9BF5",
"-. c #7395FB",
";. c #7798FB",
":. c #7B9CFC",
">. c #8496CE",
",. c #8B9DD3",
"<. c #8A9FDF",
"1. c #93A4D6",
"2. c #93A4DA",
"3. c #9EADD9",
"4. c #A5B3DE",
"5. c #809FFA",
"6. c #8EA4E7",
"7. c #8EA6EF",
"8. c #9BADE5",
"9. c #90A8EF",
"0. c #87A1F0",
"q. c #8CA5F2",
"w. c #8FA9F6",
"e. c #85A3FD",
"r. c #8BA7FA",
"t. c #8EAAFD",
"y. c #99AFF4",
"u. c #93ADFD",
"i. c #9DB3F5",
"p. c #9CB4FC",
"a. c #A4B3E3",
"s. c #A1B4EE",
"d. c #B2BFE4",
"f. c #A0B5F3",
"g. c #ACBFF7",
"h. c #A2B7F9",
"j. c #A4BBFE",
"k. c #A9BFFF",
"l. c #BAC4E4",
"z. c #B6C4EF",
"x. c #BDC7E8",
"c. c #AEC0F6",
"v. c #ADC1FE",
"b. c #B1C2F6",
"n. c #B3C6FE",
"m. c #B7C9FF",
"M. c #BECDFB",
"N. c #C0C9E4",
"B. c #CBD4EC",
"V. c #D9DEEF",
"C. c #C2CEF3",
"Z. c #C2CFF9",
"A. c #C3D2FD",
"S. c #C8D5FE",
"D. c #CED9FC",
"F. c #D0D9F3",
"G. c #D1DCFC",
"H. c #DDE3F3",
"J. c #D5E0FF",
"K. c #DDE5FD",
"L. c #E1E4EE",
"P. c #ECECEC",
"I. c #E6E9F0",
"U. c #ECEDF2",
"Y. c #E0E7FD",
"T. c #E4EAFE",
"R. c #EAEFFD",
"E. c #EFF0F2",
"W. c #EDF1FD",
"Q. c gray95",
"!. c #F4F6FD",
"~. c #F6F8FF",
"^. c #FDFDFE",
"/. c None",
"(. c black",
"). c black",
"_. c black",
"`. c black",
"'. c black",
"]. c black",
"[. c black",
"{. c black",
"}. c black",
"|. c black",
" X c black",
".X c black",
"XX c black",
"oX c black",
"OX c black",
"+X c black",
"@X c black",
"#X c black",
"$X c black",
"%X c black",
"&X c black",
"*X c black",
"=X c black",
"-X c black",
";X c black",
":X c black",
">X c black",
",X c black",
"<X c black",
"1X c black",
"2X c black",
"3X c black",
"4X c black",
"5X c black",
"6X c black",
"7X c black",
"8X c black",
"9X c black",
"0X c black",
"qX c black",
"wX c black",
"eX c black",
"rX c black",
"tX c black",
"yX c black",
"uX c black",
"iX c black",
"pX c black",
"aX c black",
"sX c black",
"dX c black",
"fX c black",
"gX c black",
"hX c black",
"jX c black",
"kX c black",
"lX c black",
"zX c black",
"xX c black",
"cX c black",
"vX c black",
"bX c black",
"nX c black",
"mX c black",
"MX c black",
"NX c black",
"BX c black",
"VX c black",
"CX c black",
"ZX c black",
"AX c black",
"SX c black",
"DX c black",
"FX c black",
"GX c black",
"HX c black",
"JX c black",
"KX c black",
"LX c black",
"PX c black",
"IX c black",
"UX c black",
/* pixels */
"/./././././././././.P.P.P.E.E.E.E.E.E.P.P.P././././././././././.",
"/./././././././.P.P.Q.~.^.^.^.^.^.^.^.^.^.Q.P.P././././././././.",
"/././././././.P.Q.^.~.~.~.!.~.!.~.!.~.~.!.~.^.Q.P./././././././.",
"/././././.P.E.!.W.W.W.E.W.W.R.W.R.R.R.W.R.R.R.W.!.Q.P./././././.",
"/./././.P.E.!.Y.K.K.Y.K.Y.K.K.K.K.K.K.K.K.K.K.K.Y.W.Q.P././././.",
"/././.P.Q.R.G.F.G.D.G.G.G.D.G.D.G.G.D.D.G.D.D.D.D.F.R.Q.P./././.",
"/././.Q.R.S.A.C.A.A.M.A.D.K.T.R.T.T.K.G.A.M.M.M.M.M.A.Y.Q./././.",
"/./.P.U.C.b.b.b.b.b.A.T.T.J.S.M.A.S.G.Y.Y.A.c.c.c.g.c.b.R.P././.",
"/./.U.b.f.f.f.f.h.S.T.A.j.i.i.i.i.i.i.h.M.Y.S.h.i.i.i.y.y.I.P./.",
"/.P.C.Z | q.9.w.A.J.p.w.w.p.w.q.7.q.q.q.r.p.G.S.r.7.7.~ v g.P./.",
"/.Q.o.w y J  .j.J.t.+.+.=.m.M.r.*.+.+.+.+.+.e.G.k. .Z i r ^ U./.",
"P.H.j w w w G M.e.| } } ..e.T.T.j.&. .} } | ^ %.A.H r r r C F.P.",
"P.z.s w w w { p.x s h k l Q t.~.^.K.t./ Z h s p t.$.u w r t s.P.",
"E.6.q q q u u.{ w q q w q w n v.^.^.~.n.( p r r ) j.p w w w O.Q.",
"Q.X.q q q x v.P q q q q q q w P T.^.^.^.!.p.P i G n.M w w w R E.",
"Q._ 8 0 0 m n.H q q 0 q q q q t r.^.^.^.^.^.R.#.V m.G q q q T U.",
"!.W = 0 0 n n.H 0 0 0 0 0 0 q x v.^.^.^.^.Y.e.G B n.N q q 9 T I.",
"Q.` = ; = t j./ 8 ; 0 0 0 0 w %.^.^.^.W.u.H t 9 P v.x 0 0 0 R U.",
"Q.<.= = = q -.e.w = = 0 ; 0 H K.^.!.j.I t 8 = w -.r.r 0 ; 8 ' Q.",
"P.d.: = = = S m.A 8 * = = z j.^.m.) y 0 = = 8 M n.I 8 = ; ; 8.E.",
"P.V.f * * * q 5.u.y = * q { Z.{ z 8 = = = = t 5.t.t = = = a B.P.",
"/.E.E * * * * m j.:.t = z ) b 8 * * * * * t #.v.N = * = * U U./.",
"/.P.l.> + * + = A j.u.N r q * + * * * 8 b e.v.S 8 * * * - a.E./.",
"/./.U.Y + + + + * s ;.n.;.L b y s c K -.n.e.b = * + * + U I.P./.",
"/./.P.B.2 X + + o + q F :.j.k.j.j.v.k.:.P q * + + + + < x.P././.",
"/././.Q.4.& o o + o o + ; e C F F C e 8 + o + + + + - 2.Q./././.",
"/././.P.U.1.% o o o o o o o o o + X o o o + + o o # >.U.P./././.",
"/./././.P.U.3.,     o   o o o o o o o o o o X X & ,.U.P././././.",
"/././././.P.E.N.6 .             o . . . . . O 4 d.U.P./././././.",
"/./././././.P.P.I.3.6 $               . $ 3 1.L.E.P././././././.",
"/./././././././.P.E.P.N.,.7 3 1 1 3 7 >.l.L.E.P././././././././.",
"/./././././././././.P.P.Q.Q.I.L.L.I.E.E.P.P././././././././././."
};
