/* XPM */
static char *forward[] = {
/* columns rows colors chars-per-pixel */
"28 28 144 2",
"   c #00259D",
".  c #0027A1",
"X  c #0028A3",
"o  c #002AAB",
"O  c #0D33A5",
"+  c #1135A4",
"@  c #002BB3",
"#  c #002EBC",
"$  c #0430B7",
"%  c #123AB6",
"&  c #153FBE",
"*  c #1C41B3",
"=  c #2042A7",
"-  c #2C4CAC",
";  c #2046BB",
":  c #4461B6",
">  c #4864B7",
",  c #4563BB",
"<  c #4C67BA",
"1  c #002EC2",
"2  c #002FC9",
"3  c #0030C3",
"4  c #0032CB",
"5  c #0034D4",
"6  c #0639D3",
"7  c #0035DA",
"8  c #043ADD",
"9  c #0A3DDA",
"0  c #0037E0",
"q  c #0E40D4",
"w  c #1242D5",
"e  c #1B4AD7",
"r  c #1143DB",
"t  c #1B4BDC",
"y  c #2D57D4",
"u  c #2553DD",
"i  c #3A60D2",
"p  c #3D65DD",
"a  c #0A40E5",
"s  c #1347E5",
"d  c #194BE2",
"f  c #2455EC",
"g  c #295AEB",
"h  c #305EEA",
"j  c #2C5DF3",
"k  c #3A63E0",
"l  c #3361ED",
"z  c #3966EC",
"x  c #3D69EE",
"c  c #2F62FC",
"v  c #3162F4",
"b  c #3D6AF1",
"n  c #4A68C2",
"m  c #506ECB",
"M  c #5973C3",
"N  c #4064D1",
"B  c #4D6ED1",
"V  c #4F72DA",
"C  c #5777D6",
"Z  c #667EC7",
"A  c #647ECD",
"S  c #4069E7",
"D  c #436EEE",
"F  c #4C71E2",
"G  c #4A73EE",
"H  c #5378E7",
"J  c #5A7CE3",
"K  c #5A7DEA",
"L  c #416DF2",
"P  c #4772F3",
"I  c #4C76F5",
"U  c #4F78F3",
"Y  c #527AF3",
"T  c #7489C9",
"R  c #7A8DC9",
"E  c #6E87D3",
"W  c #5C80EB",
"Q  c #5D83F8",
"!  c #6688EC",
"~  c #6E8DE9",
"^  c #708DE2",
"/  c #718FEA",
"(  c #7391EB",
")  c #6185F4",
"_  c #6388F7",
"`  c #638AFC",
"'  c #6D90FB",
"]  c #7493F1",
"[  c #7997F2",
"{  c #7C9AF5",
"}  c #7395FA",
"|  c #7B9BFB",
" . c #8296D3",
".. c #879DDE",
"X. c #A8B5DC",
"o. c #89A2EE",
"O. c #9CADE0",
"+. c #86A0F0",
"@. c #89A4F4",
"#. c #84A2FC",
"$. c #89A6FC",
"%. c #8DA9FC",
"&. c #90AAF6",
"*. c #9AAFF1",
"=. c #92ACFC",
"-. c #9CB2F4",
";. c #9AB3FE",
":. c #A2B4EB",
">. c #B2BFE5",
",. c #A6BCFD",
"<. c #AABEFD",
"1. c #BAC3E1",
"2. c #AEC2FD",
"3. c #B3C3F6",
"4. c #B3C5FC",
"5. c #BBCCFE",
"6. c #C2CBE7",
"7. c #C1CBEA",
"8. c #CFD5E7",
"9. c #D0D6EB",
"0. c #D3D9EB",
"q. c #DADFEC",
"w. c #C1CFFA",
"e. c #C6D1F3",
"r. c #C5D2FB",
"t. c #CEDAFE",
"y. c #D5DCF2",
"u. c #D4DEFC",
"i. c #DCE0EE",
"p. c #D7E0FD",
"a. c #DBE3FC",
"s. c #E3E6EF",
"d. c #E7E9EE",
"f. c gray92",
"g. c #ECEDF1",
"h. c #E4EAFD",
"j. c #EFF0F2",
"k. c #EDF1FE",
"l. c #F1F1F2",
"z. c #F3F5FC",
"x. c #F6F8FF",
"c. c #FDFDFE",
"v. c black",
"b. c None",
/* pixels */
"b.b.b.b.b.b.b.b.b.f.f.l.l.l.l.l.j.f.f.b.b.b.b.b.b.b.b.b.",
"b.b.b.b.b.b.b.f.l.z.x.x.c.c.c.c.c.x.x.l.f.b.b.b.b.b.b.b.",
"b.b.b.b.b.f.f.z.z.z.z.z.z.z.z.z.k.z.z.z.z.f.f.b.b.b.b.b.",
"b.b.b.b.f.l.z.k.h.k.h.h.h.h.h.h.h.h.h.h.h.z.l.f.b.b.b.b.",
"b.b.b.f.j.h.u.u.u.p.u.u.u.u.u.u.u.u.u.u.u.u.a.l.f.b.b.b.",
"b.b.f.l.a.r.r.e.r.r.r.u.a.h.a.a.u.r.w.w.w.w.w.u.l.f.b.b.",
"b.b.f.a.3.3.3.3.3.t.h.a.u.r.r.t.a.h.t.3.<.3.<.3.u.g.b.b.",
"b.f.y.-.:.-.-.,.u.u.2.;.-.-.-.-.-.<.t.u.,.*.*.-.@.e.f.b.",
"b.f.~ u / o.&.t.5.&.@.;.-.+.+.+.o.+.@.4.t.&.+.! d K j.b.",
"f.y.u 5 w S ,.5.[ ( ( %.u.2.{ ( ( ( ( ] 4.2.z 9 7 t e.f.",
"f.:.6 5 5 f <.b p V J W <.x.p.=.) H F k v ,.j 7 7 7 o.f.",
"j.^ 5 2 5 Q | 7 5 6 q w g r.c.x.5.I a 5 7 ' ' 7 5 5 J l.",
"g.V 2 4 5 #.I 5 4 4 4 4 5 P k.c.c.k.;.v 0 b =.8 5 5 p s.",
"g.N 2 3 8 =.b 4 4 4 4 3 4 8 ;.c.c.c.c.h.` c ;.8 4 4 y q.",
"g.N 1 1 5 %.L 3 3 3 3 3 3 s 5.c.c.c.h.%.f c ;.8 3 2 y q.",
"g.B # # 4 } _ 3 3 # 3 1 5 | c.c.k.;.v 6 4 Y #.5 3 2 i s.",
"j.E # # # x ;.9 # # # 3 b h.x.2.L 6 1 # 6 =.P 2 3 1 C g.",
"f.O.$ @ @ 6 =.U 2 @ @ r 2.r.Y 9 # # # 1 L ;.r # # # ..f.",
"f.9.; @ @ @ h <.g # 3 L Q r # @ @ @ 1 f ,.b # # # & 7.f.",
"b.g.A o o @ # P ,.P 6 8 3 @ @ @ # 4 x ,.Y 3 @ @ @ m f.b.",
"b.f.6.* o o o # l ;.$.D t q q t S #.;.x 3 @ @ o % >.f.b.",
"b.b.g. .o o o X o q G #.;.;.;.;.$.Y w @ o o o o E g.b.b.",
"b.b.f.s.M O X X X X o # q e e w 3 o o o o o o n i.f.b.b.",
"b.b.b.f.q.< X X X X X   X   X X X X X X X X , 0.f.b.b.b.",
"b.b.b.b.f.s.T +       X     X   . . . . O Z q.f.b.b.b.b.",
"b.b.b.b.b.f.f.>.< +                 O : X.g.f.b.b.b.b.b.",
"b.b.b.b.b.b.f.f.f.1.R > - = + - : T >.d.f.f.b.b.b.b.b.b.",
"b.b.b.b.b.b.b.b.f.f.g.f.i.8.0.q.f.f.f.f.b.b.b.b.b.b.b.b."
};
