/* XPM */
static char *forward_dis[] = {
/* columns rows colors chars-per-pixel */
"28 28 110 2",
"   c #5E6D9D",
".  c #606FA0",
"X  c #6272A3",
"o  c #6877A3",
"O  c #6978A6",
"+  c #6576A9",
"@  c #6778AC",
"#  c #6879AE",
"$  c #717EA7",
"%  c #6B7DB3",
"&  c #7985AC",
"*  c #6E80B7",
"=  c #6F81B9",
"-  c #7685B5",
";  c #7184BD",
":  c #7C8CBD",
">  c #7486C1",
",  c #7689C5",
"<  c #798DCA",
"1  c #7C90CF",
"2  c #7E93D3",
"3  c #8995B6",
"4  c #8A95B8",
"5  c #8E99BC",
"6  c #8295CF",
"7  c #929EC2",
"8  c #8196D4",
"9  c #8598D4",
"0  c #8A9DD6",
"q  c #8297D9",
"w  c #859ADB",
"e  c #8A9EDB",
"r  c #95A0C0",
"t  c #99A3C3",
"y  c #9AA6CB",
"u  c #8DA1DD",
"i  c #94A3D3",
"p  c #99A7D3",
"a  c #92A5DD",
"s  c #9DADDD",
"d  c #A0AAC7",
"f  c #A5AECA",
"g  c #A9B1CA",
"h  c #A3B0D6",
"j  c #AAB4D3",
"k  c #A2B0DA",
"l  c #B2BAD3",
"z  c #869DE0",
"x  c #8DA3E5",
"c  c #92A6E4",
"v  c #9DAEE0",
"b  c #9BAEE9",
"n  c #9DB1ED",
"m  c #A6B5E3",
"M  c #ACBAE4",
"N  c #A2B4EC",
"B  c #A7B8ED",
"V  c #AABBEE",
"C  c #B0BFEA",
"Z  c #A3B7F3",
"A  c #A6B9F2",
"S  c #AABCF1",
"D  c #AABEFC",
"F  c #BBC4DE",
"G  c #B5C0E2",
"H  c #B4C2EB",
"J  c #BAC6EA",
"K  c #BCC8ED",
"L  c #AFC0F5",
"P  c #B2C3F4",
"I  c #B8C6F1",
"U  c #BCCBF6",
"Y  c #BCCCFA",
"T  c #C7CCDC",
"R  c #C5CBE0",
"E  c #C6D0EE",
"W  c #CED5EB",
"Q  c #D1D5E3",
"!  c #DBDEE7",
"~  c #D9DDEA",
"^  c #C1CDF2",
"/  c #C6D1F2",
"(  c #CAD4F3",
")  c #CDD8F6",
"_  c #C4D2FA",
"`  c #C9D6FC",
"'  c #CDD9FC",
"]  c #D1D9F4",
"[  c #D3DDFC",
"{  c #DDE0E7",
"}  c #DAE1F6",
"|  c #D6E0FE",
" . c #DCE4FD",
".. c #E3E6EC",
"X. c #E7E8EE",
"o. c #EBEBEC",
"O. c #E1E5F3",
"+. c #E6E9F2",
"@. c #EEEFF0",
"#. c #E0E7FD",
"$. c #E4EAFB",
"%. c #EBEFFC",
"&. c #EFF0F2",
"*. c #EDF1FD",
"=. c #F1F2F2",
"-. c #F2F5FD",
";. c #F7F8FD",
":. c #FBFCFE",
">. c black",
",. c None",
/* pixels */
",.,.,.,.,.,.,.,.,.o.@.=.=.=.=.=.=.o.o.,.,.,.,.,.,.,.,.,.",
",.,.,.,.,.,.,.o.=.=.:.:.:.:.:.:.:.:.:.=.o.,.,.,.,.,.,.,.",
",.,.,.,.,.o.=.=.:.;.;.;.;.;.:.;.;.;.;.;.;.@.o.,.,.,.,.,.",
",.,.,.,.o.=.;.;.;.;.;.-.;.-.-.;.-.-.;.-.;.;.=.o.,.,.,.,.",
",.,.,.o.=.-.%.%.*.*.*.*.%.%.*.%.*.%.%.%.%.%.-.-.o.,.,.,.",
",.,.o.=.%.$.+.$.$.$.$.*.-.-.-.-.*.$.$.$.#.$.O.%.=.o.,.,.",
",.,.o.*.} } } } } *.;.*.*.$.$.%.-.;.*.} } } } } %.=.,.,.",
",.o.+.] ] ] ] } *.*. .[ ] ] ] ] ] | %.-.[ ] ] ] / O.o.,.",
",.@.J c J E ) *.$.) ( [ ] ( E E E E ( $.*.) / H c C =.,.",
"o.+.a 2 0 N  .$.^ J J ' *. ._ K J J K U  . .N e w a O.o.",
"o.W 2 2 2 n  .A s k M H  .:.*.] I V m v B | A q q q / o.",
"@.G < 1 2 U ` q 1 8 9 0 n %.:.:.$.P x 8 w _ _ q 2 2 j =.",
"=.k < < q ' P 2 < 1 1 < 2 L ;.:.:.;.| A z S [ z 2 2 s +.",
"&.p , , 2 | A < , < , < < e | :.:.:.:.;.Y D | u < < i o.",
"&.y ; > 2 [ S , , , , , , c $.:.:.:.;.' n D | w < < u ..",
"&.p ; ; < _ U < ; ; > > 8 ` :.:.;.| Z 8 < P ' 1 , , i o.",
"=.j = = ; B | w = ; ; > A -.:. .S q , = q [ L , ; , h =.",
"o.R = % * 8 [ P , * * u  .$.P 0 > = = , S | e ; ; ; F @.",
"o...: % # ; n  .n ; > L Y u ; % * * > b  .S > = % , ~ o.",
",.&.f @ # # ; V  .V q 0 , # # % % < B  .P , % % % y @.,.",
",.o.! - @ @ @ ; N | ' V a 9 6 u B ) | B > % % @ - Q o.,.",
",.,.o.l @ o + + # 1 V ' | | | | ' L 9 % @ @ @ @ j @.,.,.",
",.,.o.o.t X X X o + @ ; 6 u u 6 , % + + + + + 7 o.o.,.,.",
",.,.,.o.X.r X . . X X . . . X X . X X + X X 5 ..o.,.,.,.",
",.,.,.,.o.o.f O       X     . . . X . . @ d X.o.,.,.,.,.",
",.,.,.,.,.o.o.Q 5 o                 o 4 T o.o.,.,.,.,.,.",
",.,.,.,.,.,.o.o.o.Q g 3 & & $ & 3 g Q X.o.o.,.,.,.,.,.,.",
",.,.,.,.,.,.,.,.o.o.=.o...{ ! ..o.o.o.o.,.,.,.,.,.,.,.,."
};
