/* XPM */
static char *forward_dis[] = {
/* columns rows colors chars-per-pixel */
"32 32 128 2",
"   c #5E6D9D",
".  c #60709F",
"X  c #6272A3",
"o  c #6877A3",
"O  c #6978A3",
"+  c #6676A9",
"@  c #6778AC",
"#  c #6A7AAD",
"$  c #6B7DB3",
"%  c #7381AB",
"&  c #7E8AAE",
"*  c #6E80B7",
"=  c #6F81B8",
"-  c #7282B5",
";  c #7887B6",
":  c #7D8BB5",
">  c #7184BD",
",  c #7487C1",
"<  c #7689C5",
"1  c #7A8CC6",
"2  c #7A8DCB",
"3  c #7C90CE",
"4  c #7E93D2",
"5  c #8692B5",
"6  c #8995B8",
"7  c #8E99BB",
"8  c #96A0BE",
"9  c #98A2BF",
"0  c #8392C0",
"q  c #8196D6",
"w  c #869AD5",
"e  c #889CD7",
"r  c #8297D9",
"t  c #859ADA",
"y  c #889DDD",
"u  c #96A2C8",
"i  c #9BA7CD",
"p  c #9FAACA",
"a  c #92A4DB",
"s  c #9CACDB",
"d  c #A5AFCF",
"f  c #B0B8CE",
"g  c #A1AFDB",
"h  c #A4B1D9",
"j  c #AAB6DA",
"k  c #AEB9DA",
"l  c #B3BAD1",
"z  c #B8BFD5",
"x  c #B2BDDD",
"c  c #879DE0",
"v  c #8DA2E2",
"b  c #8EA4E8",
"n  c #91A6E4",
"m  c #95A8E4",
"M  c #9DAEE3",
"N  c #90A6E8",
"B  c #94A9E9",
"V  c #99ADEB",
"C  c #9EB1EC",
"Z  c #9EB3F2",
"A  c #A6B6E7",
"S  c #AAB7E0",
"D  c #A2B5ED",
"F  c #AEBDEA",
"G  c #B3BFE0",
"H  c #B1BFE9",
"J  c #A2B6F2",
"K  c #A6B9F3",
"L  c #AABDF5",
"P  c #A3B9FD",
"I  c #BBC2D6",
"U  c #BDC5DC",
"Y  c #B5C1E7",
"T  c #BAC5E7",
"R  c #B5C2E9",
"E  c #B8C5EA",
"W  c #BFCAED",
"Q  c #AFC0F3",
"!  c #B3C3F4",
"~  c #B3C4FA",
"^  c #BBCBFA",
"/  c #C1C7D9",
"(  c #C5CADB",
")  c #C5CEE6",
"_  c #C0CBEE",
"`  c #CCD2E2",
"'  c #CBD4EF",
"]  c #D2D6E4",
"[  c #D5D9E5",
"{  c #D7DBE8",
"}  c #D8DEEF",
"|  c #C1CDF2",
" . c #C1CFFB",
".. c #C5D0F4",
"X. c #C9D3F2",
"o. c #CFD8F4",
"O. c #C4D2FC",
"+. c #C9D6FB",
"@. c #CDD9FC",
"#. c #D2DAF4",
"$. c #D8DEF3",
"%. c #D3DEFD",
"&. c #DFE2EC",
"*. c #DBE1F6",
"=. c #D7E0FA",
"-. c #DCE4FE",
";. c #DFE8FF",
":. c #E6E8EF",
">. c #ECECEC",
",. c #E5E9F3",
"<. c #EDEEF1",
"1. c #E1E7F9",
"2. c #E3EAFD",
"3. c #EAEEFC",
"4. c #EFF0F2",
"5. c #EDF1FE",
"6. c gray95",
"7. c #F2F5FD",
"8. c #F6F8FE",
"9. c #FCFDFE",
"0. c None",
"q. c black",
"w. c black",
"e. c black",
"r. c black",
"t. c black",
"y. c black",
"u. c black",
/* pixels */
"0.0.0.0.0.0.0.0.0.0.>.>.>.6.6.6.>.6.6.>.>.>.0.0.0.0.0.0.0.0.0.0.",
"0.0.0.0.0.0.0.0.>.>.6.8.9.9.9.9.9.9.9.9.8.6.>.>.0.0.0.0.0.0.0.0.",
"0.0.0.0.0.0.0.>.6.9.9.9.9.9.9.9.8.9.9.9.9.9.9.6.>.0.0.0.0.0.0.0.",
"0.0.0.0.0.>.6.8.8.8.8.8.8.8.8.8.8.8.8.8.8.8.8.8.8.6.>.0.0.0.0.0.",
"0.0.0.0.>.6.8.7.5.7.4.5.4.5.7.5.7.7.5.7.7.5.7.5.7.8.6.>.0.0.0.0.",
"0.0.0.>.6.7.3.<.5.5.5.5.5.5.5.5.5.3.3.3.3.3.3.3.,.3.8.6.>.0.0.0.",
"0.0.0.>.7.3.1.1.1.1.2.2.5.5.7.8.8.8.7.5.1.1.1.1.1.1.1.8.6.0.0.0.",
"0.0.>.7.,.*.*.*.*.*.3.7.8.5.5.2.1.3.5.7.8.2.;.*.*.*.*.*.8.>.0.0.",
"0.0.6.*.#.#.#.#.=.2.8.2.=.%.#.#.#.#.#.%.2.8.3.%.#.#.#.#.#.4.>.0.",
"0.>.,.m Y X.' X.2.7.=.o.@.=.X.X.' X.' ' X.%.5.3.+.X.| F n $.>.0.",
"0.6.Y q y M E -.5.@.W W ..2.2.@.W W _ _ W W +.5.;.! M y t F 6.0.",
">.<.a 4 4 4 Z 2.@.Y Y R R +.8.8.-.O.! Y Y Y H  .2.K t t t a ,.>.",
">.} q 4 4 q ^ =.b e a a g A @.9.9.7.%.Q M v w b %.O.c r r t o.>.",
"4.) 3 2 3 c =.^ q 3 3 3 3 4 B -.9.9.9.2.~ b q q ~ -.b 4 4 4 T 6.",
"6.G 2 2 2 n ;.K 3 2 3 3 3 3 4 L 8.9.9.9.9.-.L b Z ;.V 4 4 4 S <.",
"6.k < < < B ;.C 2 < < 2 1 2 < c %.9.9.9.9.9.8.^ P 2.Z 3 2 2 g <.",
"6.j , , , b ;.J < < < < < < < b ;.9.9.9.9.8.@.Z Z 2.V 2 2 2 s >.",
"6.k > > > t -.~ < , , , , , q  .9.9.9.9.%.J t 2 K ;.b < < < h 6.",
"6.) > > > 3 O.@.4 > > , > 2 J 7.9.8.;.L t < , 4 O.@.4 , < , x 6.",
">.] > * = > C 2.C , = = = v ;.9.2.! y < > > > B ;.L < , > , ` >.",
">.:.6 $ $ $ 4 @.%.y = $ 2 ^ 3.^ v < = = = > r @.%.t > = = 1 :.>.",
"0.6.g # @ $ * v -.O.y = v ~ B < $ $ $ $ * r O.;.V > * * = i <.0.",
"0.>.] - @ $ # = V -.@.V r 2 $ # $ $ * 1 m @.;.Z , $ $ $ > ` >.0.",
"0.0.4.p + @ @ @ $ v +.;.+.D v t t v D O.2.@.n = # # $ # u <.>.0.",
"0.0.>.&.: o + + + @ 1 C +.-.;.-.-.;.;.+.D 2 $ @ # # # ; { >.0.0.",
"0.0.0.6.( # X + X + + @ > q a D C m q < $ + + + + + # U 6.0.0.0.",
"0.0.0.>.6.I + X X X X X . X + + + X X X X X X + X @ l 4.>.0.0.0.",
"0.0.0.0.>.6./ % . . . . . X . . X X X X X X X X $ z 4.>.0.0.0.0.",
"0.0.0.0.0.>.6.[ 7 X   .             . X X   X 6 ` 4.>.0.0.0.0.0.",
"0.0.0.0.0.0.>.>.<./ 6 O                 O 5 I >.>.>.0.0.0.0.0.0.",
"0.0.0.0.0.0.0.0.>.>.4.[ f 9 5 : & 5 8 f ] >.6.>.0.0.0.0.0.0.0.0.",
"0.0.0.0.0.0.0.0.0.0.>.>.6.6.>.>.:.>.6.6.>.>.0.0.0.0.0.0.0.0.0.0."
};
