/* XPM */
static char *forward_sel[] = {
/* columns rows colors chars-per-pixel */
"32 32 128 2",
"   c #00165E",
".  c #00185F",
"X  c #001761",
"o  c #001963",
"O  c #091F62",
"+  c #001B6C",
"@  c #001C74",
"#  c #001E7B",
"$  c #0B2165",
"%  c #0B236C",
"&  c #122767",
"*  c #11276D",
"=  c #182D6D",
"-  c #1F3169",
";  c #062170",
":  c #02217D",
">  c #08257E",
",  c #102874",
"<  c #182F73",
"1  c #203269",
"2  c #26386D",
"3  c #293A6D",
"4  c #2D3E70",
"5  c #2E417A",
"6  c #364572",
"7  c #384773",
"8  c #3A4A7B",
"9  c #4A577E",
"0  c #4D587B",
"q  c #505B7C",
"w  c #001F81",
"e  c #032283",
"r  c #082680",
"t  c #0B2985",
"y  c #03258A",
"u  c #07288B",
"i  c #0C2B8A",
"p  c #132F84",
"a  c #153085",
"s  c #1B3585",
"d  c #1F3884",
"f  c #13318C",
"g  c #1A378C",
"h  c #1D398C",
"j  c #143391",
"k  c #183690",
"l  c #1C3991",
"z  c #113298",
"x  c #253D86",
"c  c #293F83",
"v  c #223D8F",
"b  c #223E93",
"n  c #29418B",
"m  c #324684",
"M  c #3A4C83",
"N  c #354A8C",
"B  c #3A4E8C",
"V  c #3E528C",
"C  c #2B4694",
"Z  c #364E96",
"A  c #384F96",
"S  c #3C5294",
"D  c #3E5598",
"F  c #425285",
"G  c #41548C",
"H  c #495A8E",
"J  c #525E82",
"K  c #425796",
"L  c #455996",
"P  c #4A5D96",
"I  c #415798",
"U  c #4B5E98",
"Y  c #566181",
"T  c #5C6582",
"R  c #54628D",
"E  c #5A668A",
"W  c #5F6988",
"Q  c #4F6198",
"!  c #546493",
"~  c #5D6B93",
"^  c #546598",
"/  c #5B6A99",
"(  c #606A85",
")  c #67708C",
"_  c #6D748B",
"`  c #72788B",
"'  c #606D94",
"]  c #616F99",
"[  c #667195",
"{  c #6A7494",
"}  c #647299",
"|  c #6A7699",
" . c #6D7899",
".. c #737C96",
"X. c #787F95",
"o. c #747D98",
"O. c #7C8396",
"+. c #7C8399",
"@. c #808596",
"#. c #858A97",
"$. c #898C97",
"%. c #808699",
"&. c #858A99",
"*. c #8A8E99",
"=. c #8D9099",
"-. c #939499",
";. c #97989A",
":. c #99999A",
">. c #9699A1",
",. c #9A9CA3",
"<. c #9EA0A5",
"1. c #A4A5AA",
"2. c #A7A8AB",
"3. c #AAAAAB",
"4. c #ACADB1",
"5. c #AFB0B2",
"6. c #B2B2B3",
"7. c #B7B8BD",
"8. c gray74",
"9. c #C3C3C3",
"0. c #CDCDCD",
"q. c gray83",
"w. c #DADADA",
"e. c gray90",
"r. c #E9E9E9",
"t. c None",
"y. c black",
"u. c black",
/* pixels */
"t.t.t.t.t.t.t.t.t.t.r.e.q.8.8.8.8.8.9.0.e.r.t.t.t.t.t.t.t.t.t.t.",
"t.t.t.t.t.t.t.t.r.q.6.:.:.:.:.:.:.:.:.:.:.5.q.r.t.t.t.t.t.t.t.t.",
"t.t.t.t.t.t.t.w.3.:.-.;.;.-.-.-.-.-.-.-.-.-.;.3.q.t.t.t.t.t.t.t.",
"t.t.t.t.t.r.9.:.-.=.=.=.*.*.=.=.=.*.*.*.*.*.*.=.:.8.r.t.t.t.t.t.",
"t.t.t.t.r.8.-.#.&.#.$.#.#.&.#.&.$.#.#.&.#.#.%.&.&.-.6.e.t.t.t.t.",
"t.t.t.r.8.=.@.O.@.O.O.O.O.O.O.+.O.O.O.O.O.O.O.+.O.O.*.6.r.t.t.t.",
"t.t.t.9.*.O...........o.+.&.*.*.*.$.#.+...............*.8.t.t.t.",
"t.t.w.;...{ { { { { o.$.*.%.+.....X.%.*.&.o.{ { { [ [  .-.q.t.t.",
"t.t.6.{ ' ' ' ' ' +.&...} ' ~ ~ ~ ~ ~ ' o.&.+.] ~ ~ ~ W ~ 1.r.t.",
"t.w...s B ! E ! o.&./ ! ! ~ ! ! R ! ! R ! ~ %.o.! ! P N i [ q.t.",
"t.8.G w e x S } &.^ P H P  .o.^ P H P H L H ! +.[ S s y w N 3.t.",
"e.=.s w # w k o.U B F F V U $.*.' L V V F B N K o.l e w e p +.e.",
"w.{ > # : w Z / u t a d x n ^ ;.:.#.! C g a t y ^ I w e w e ~ 0.",
"9.R # # # e / S w # # : : : u | :.:.;. .C y w w C ] y e w w G 8.",
"3.F # # # u | l # # # # # : # l #.:.;.:.=.] b y j  .i # w # m 8.",
"3.M @ # @ i | k # @ # @ @ # # e ! :.:.:.:.:.*.D z  .j # # # c 8.",
"3.M @ @ @ u | g # @ @ @ # @ @ u } :.:.:.:.$.^ j z  .f # # # c 7.",
"5.F @ @ @ e ] C @ @ @ @ @ @ w K ;.:.:.*./ l w # b { u @ @ # m 8.",
"8.J @ + @ # L ^ e @ @ @ @ @ l &.:.;.} b e @ @ # K Q w @ @ @ F 8.",
"q.) ; + + @ g  .f @ + @ @ t } ;. .C e @ @ @ @ i  .b @ @ @ @ E 0.",
"e.*.< + + + # U / e @ + # S ..A t @ @ + @ + w U ^ e @ + + , X.e.",
"t.6.8 + + + + t ' P e + e C i # + + + + + e K } f @ + + + 4 2.t.",
"t.q._ % + + + + f ] ^ f w # + + + + + @ i U } g @ + + + @ W 0.t.",
"t.t.2.8 o X + + + i P  .U v i r e t b K  .^ f @ + + + + 5 ,.r.t.",
"t.t.w.X.= X + o o + @ g L [ } } } } } U v @ + o + o + * ` q.t.t.",
"t.t.t.9.( $ X o o o o + @ > p h h a > @ + + o + + o + Y 6.t.t.t.",
"t.t.t.r.6.Y $ X o o o o X o o o + X o o X o + X X O J 1.e.t.t.t.",
"t.t.t.t.e.3.T &   o   X o   o .   o . o X o X X $ q <.e.t.t.t.t.",
"t.t.t.t.t.r.8._ 4 O     . . . . . . . o     o 4 _ 6.e.t.t.t.t.t.",
"t.t.t.t.t.t.r.q.:.T 3 $ .               $ 2 q ;.0.r.t.t.t.t.t.t.",
"t.t.t.t.t.t.t.t.r.0.,.` q 7 3 1 1 2 6 0 _ ,.9.e.t.t.t.t.t.t.t.t.",
"t.t.t.t.t.t.t.t.t.t.r.w.8.3.,.>.>.:.1.8.w.r.t.t.t.t.t.t.t.t.t.t."
};
