/* XPM */
static char *forward[] = {
/* columns rows colors chars-per-pixel */
"28 44 175 2",
"   c #010101",
".  c gray4",
"X  c gray9",
"o  c #1B1B1B",
"O  c #222222",
"+  c #2D2D2D",
"@  c #323232",
"#  c gray23",
"$  c gray26",
"%  c #484848",
"&  c gray33",
"*  c #5D5D5D",
"=  c gray39",
"-  c gray42",
";  c #727272",
":  c #7B7B7B",
">  c #00259D",
",  c #0027A1",
"<  c #0028A3",
"1  c #002AAB",
"2  c #0D33A5",
"3  c #1135A4",
"4  c #002BB3",
"5  c #002EBC",
"6  c #123AB6",
"7  c #153FBE",
"8  c #1C41B3",
"9  c #2042A7",
"0  c #2C4CAC",
"q  c #2046BB",
"w  c #4461B6",
"e  c #4864B7",
"r  c #4563BB",
"t  c #4C67BA",
"y  c #002EC2",
"u  c #002FC9",
"i  c #0030C3",
"p  c #0032CB",
"a  c #0034D4",
"s  c #0639D3",
"d  c #0C3DD3",
"f  c #0035DA",
"g  c #043ADD",
"h  c #0A3DDA",
"j  c #0037E0",
"k  c #063DE0",
"l  c #0E40D4",
"z  c #0E41DD",
"x  c #1242D5",
"c  c #1B4AD7",
"v  c #1143DB",
"b  c #1B4BDC",
"n  c #2D57D4",
"m  c #2553DD",
"M  c #3A60D2",
"N  c #3D65DD",
"B  c #1347E5",
"V  c #194BE2",
"C  c #2455EC",
"Z  c #295AEB",
"A  c #305EEA",
"S  c #2C5DF3",
"D  c #3A63E0",
"F  c #3361ED",
"G  c #3966EC",
"H  c #3D69EE",
"J  c #2F62FC",
"K  c #3162F4",
"L  c #3A67F0",
"P  c #3D6AF1",
"I  c #4A68C2",
"U  c #556FC0",
"Y  c #506ECB",
"T  c #5973C3",
"R  c #4064D1",
"E  c #4D6ED1",
"W  c #4F72DA",
"Q  c #5777D6",
"!  c #667EC7",
"~  c #647ECD",
"^  c #4069E7",
"/  c #436EEE",
"(  c #4C71E2",
")  c #4A73EE",
"_  c #5074E1",
"`  c #5378E7",
"'  c #5A7CE3",
"]  c #5A7DEA",
"[  c #416DF2",
"{  c #4772F3",
"}  c #4C76F5",
"|  c #4F78F3",
" . c #527AF3",
".. c #7489C9",
"X. c #7A8DC9",
"o. c #6E87D3",
"O. c #5C80EB",
"+. c #5D83F8",
"@. c #6688EC",
"#. c #708DE2",
"$. c #718FEA",
"%. c #7391EB",
"&. c #6185F4",
"*. c #6388F7",
"=. c #638AFC",
"-. c #6D90FB",
";. c #7493F1",
":. c #7997F2",
">. c #7C9AF5",
",. c #7395FA",
"<. c #7B9BFB",
"1. c #848484",
"2. c #909090",
"3. c #9B9B9B",
"4. c #AAAAAA",
"5. c #B2B2B2",
"6. c gray",
"7. c #8296D3",
"8. c #879DDE",
"9. c #A8B5DC",
"0. c #B3BEDF",
"q. c #89A2EE",
"w. c #9CADE0",
"e. c #86A0F0",
"r. c #89A4F4",
"t. c #84A2FC",
"y. c #89A6FC",
"u. c #8DA9FC",
"i. c #90AAF6",
"p. c #9AAFF1",
"a. c #92ACFC",
"s. c #9CB2F4",
"d. c #9AB3FE",
"f. c #A2B4EB",
"g. c #A0B5F2",
"h. c #A6BCFD",
"j. c #AABEFD",
"k. c #BAC3E1",
"l. c #AEC0F7",
"z. c #AEC2FD",
"x. c #B3C3F6",
"c. c #B3C5FC",
"v. c #BBCCFE",
"b. c #C3C3C3",
"n. c #CBCBCB",
"m. c LightGray",
"M. c gainsboro",
"N. c #C2CBE7",
"B. c #C1CBEA",
"V. c #CFD5E7",
"C. c #D0D6EB",
"Z. c #D3D9EB",
"A. c #DADFEC",
"S. c #C1CFFA",
"D. c #C6D1F3",
"F. c #C5D2FB",
"G. c #CEDAFE",
"H. c #D5DCF2",
"J. c #D4DEFC",
"K. c #DCE0EE",
"L. c #D7E0FD",
"P. c #DBE3FC",
"I. c gray90",
"U. c #E3E6EF",
"Y. c gray92",
"T. c #ECEDF1",
"R. c #E4EAFD",
"E. c #EFF0F2",
"W. c #EDF1FE",
"Q. c #F1F1F2",
"!. c #F3F5FC",
"~. c #F6F8FF",
"^. c #FDFDFE",
"/. c black",
"(. c None",
/* pixels */
"(.(.(.(.(.(.(.(.(.Y.E.E.E.Q.E.Q.E.Y.Y.(.(.(.(.(.(.(.(.(.",
"(.(.(.(.(.(.(.Y.E.!.^.^.^.^.^.~.^.^.~.Q.Y.(.(.(.(.(.(.(.",
"(.(.(.(.(.Y.E.!.~.!.!.!.!.!.!.!.!.!.!.!.!.Q.Y.(.(.(.(.(.",
"(.(.(.(.Y.Q.!.R.R.R.R.R.R.R.R.R.R.R.R.R.R.W.Q.Y.(.(.(.(.",
"(.(.(.Y.Q.R.J.J.J.J.L.J.J.J.J.J.H.J.J.J.J.J.R.E.Y.(.(.(.",
"(.(.Y.E.P.D.F.D.F.F.F.J.P.R.R.P.J.F.S.S.S.S.S.H.E.Y.(.(.",
"(.(.E.P.x.x.x.x.c.G.R.P.G.F.F.G.L.R.G.c.j.l.j.x.J.T.(.(.",
"(.Y.H.p.g.s.s.h.J.J.z.d.s.s.s.s.s.j.G.J.h.p.p.p.e.D.Y.(.",
"(.Y.$.m $.r.i.G.v.i.e.d.a.e.q.e.e.e.r.c.J.u.e.@.V ] Y.(.",
"Y.H.m a d G j.S.:.$.%.i.J.z.>.%.%.%.%.;.z.z.G h f V C.Y.",
"Y.f.s a a C h.[ ^ _ ' ] h.~.P.a.&.` ( D K h.S f f f q.Y.",
"Q.#.p p a +.<.f p d d x Z F.^.~.v.| k a f -.-.f a a O.E.",
"T.W u p a t.} p p p p p a { W.^.^.W.d.K j P a.k a a N U.",
"T.R y i g a.P p i p p i p j d.^.^.^.^.R.=.J d.k p p n K.",
"R.R y i a u.[ u y i i i i B v.^.^.^.R.u.C J d.g y p n A.",
"T.E 5 5 p ,.*.y i 5 i i a <.^.^.W.d.K a u  .t.a y y M U.",
"Q.o.4 5 5 H d.h 5 5 5 i L W.~.z.[ s i 5 a a.} y i y Q T.",
"Y.w.5 4 4 d a.| i 4 5 v z.v.| h 5 5 5 y P h.z 5 5 5 8.Y.",
"Y.C.q 4 4 4 F j.A y i [ +.v y 4 4 4 y C j.P 5 5 5 7 B.Y.",
"(.T.~ 1 4 4 5 { h./ a h y 4 1 4 5 p H h. .i 4 4 4 Y T.(.",
"(.Y.N.8 1 1 1 5 F d.y./ c l l b / t.d.H y 1 4 4 6 k.Y.(.",
"(.(.E.7.1 < 1 < 1 d ) t.d.d.d.d.y.| x 4 1 1 1 1 o.T.(.(.",
"(.(.Y.U.T < < < < < 1 5 l c c l 5 1 1 1 1 1 1 I K.Y.(.(.",
"(.(.(.Y.K.U < , < < < < < < > < < < < < < < r Z.Y.(.(.(.",
"(.(.(.(.Y.U...3 > > > > > < > > < , , , 2 ! A.Y.(.(.(.(.",
"(.(.(.(.(.Y.Y.0.t 3 > > > > > > > > 2 w 9.T.Y.(.(.(.(.(.",
"(.(.(.(.(.(.Y.Y.U.k.X.e 0 9 9 0 w ..0.U.Y.Y.(.(.(.(.(.(.",
"(.(.(.(.(.(.(.(.Y.Y.E.T.K.V.V.K.T.Y.Y.Y.(.(.(.(.(.(.(.(.",
"(.(.(.(.(.(.(.(.(.(.(.(.(.(.(.(.(.(.(.(.(.(.(.(.(.(.(.(.",
"(.(.(.(.(.(.(.(.(.(.(.(.(.(.(.(.(.(.(.(.(.(.(.(.(.(.(.(.",
"(.(.(.(.(.(.(.(.(.(.(.(.(.(.(.(.(.(.(.(.(.(.(.(.(.(.(.(.",
"(.(.(.(.(.(.(.(.(.(.(.(.(.(.(.(.(.(.(.(.(.(.(.(.(.(.(.(.",
"(.(.(.(.(.(.(.(.(.(.(.(.(.(.(.(.(.(.(.(.(.(.(.(.(.(.(.(.",
"(.(.(.(.(.(.(.(.(.(.(.(.(.(.(.(.(.(.(.(.(.(.(.(.(.(.(.(.",
"@ . # M.(.  1.. (.o n.(.* % (.M.O (.(.(.$ . = (.(.(.  1.",
": I.: & (.  ; I.(.* 2.Y.+ X Y.3.- (.(.(.n.m.. (.(.(.  ; ",
"M.(.M.. (.  I.(.(.3.& b.& # 6.& 5.(.(.5.+ .   (.(.(.  I.",
"M.(.M.. (.  (.(.(.m.X : 3.: : O I.(.(.o 2.I.  (.(.(.  (.",
": I.: # (.  (.(.(.(.+ o M.5.X & (.(.(.. b.4.  m.(.(.  (.",
"@   + b.(.  (.(.(.(.; @ (.I.. 3.(.(.(.: . - = X (.(.  (.",
"(.(.(.(.(.(.(.(.(.(.(.(.(.(.(.(.(.(.(.(.(.(.(.(.(.(.(.(.",
"(.(.(.(.(.(.(.(.(.(.(.(.(.(.(.(.(.(.(.(.(.(.(.(.(.(.(.(.",
"(.(.(.(.(.(.(.(.(.(.(.(.(.(.(.(.(.(.(.(.(.(.(.(.(.(.(.(.",
"(.(.(.(.(.(.(.(.(.(.(.(.(.(.(.(.(.(.(.(.(.(.(.(.(.(.(.(."
};
