/* XPM */
static char *forward_dis[] = {
/* columns rows colors chars-per-pixel */
"28 28 59 1",
"  c #8A93AD",
". c #8D96B1",
"X c #8F98B3",
"o c #929BB5",
"O c #949DB9",
"+ c #97A0BC",
"@ c #99A1BD",
"# c #A1A8BD",
"$ c #9BA5C2",
"% c #9FA9C7",
"& c #A4ACC5",
"* c #A3ADCB",
"= c #A6B0CF",
"- c #ADB5CB",
"; c #B1B7C9",
": c #B3B9CB",
"> c #A7B1D0",
", c #AAB4D4",
"< c #ADB7D8",
"1 c #AEB9DA",
"2 c #B1BBDD",
"3 c #B4BEE1",
"4 c #BCC3D5",
"5 c #B6C1E4",
"6 c #B9C4E5",
"7 c #BBC6E9",
"8 c #BEC9EC",
"9 c #C5CADA",
"0 c #CACFDC",
"q c #C5CDE4",
"w c #C2CDEC",
"e c #CCD3EA",
"r c #D5D9E7",
"t c #D2D9ED",
"y c #C1CDF1",
"u c #C5D1F4",
"i c #CAD5F3",
"p c #CBD7FC",
"a c #CED9FB",
"s c #D4DCF6",
"d c #DFE4F3",
"f c #D6E0FB",
"g c #DBE4FD",
"h c #DEE8FF",
"j c #E3E6EF",
"k c gray92",
"l c #E6E9F2",
"z c #EBEDF5",
"x c #E3ECFE",
"c c #E8EFFF",
"v c #EFF1F5",
"b c #E7F0FF",
"n c #EBF3FE",
"m c #F3F3F3",
"M c #F1F5FD",
"N c #F5FBFF",
"B c #FEFEFE",
"V c black",
"C c None",
/* pixels */
"CCCCCCCCCkkmmmmmmkkCCCCCCCCC",
"CCCCCCCkkBBBBBBBBBBvkCCCCCCC",
"CCCCCkkBBBBBBBBBBBBBBkkCCCCC",
"CCCCkmBBBBBBBBBBBBBBBBmkCCCC",
"CCCkmBBBBBBBBBBBBBBBBBBmkCCC",
"CCkmBBBBBBBBBBBBBBBBBBBBmkCC",
"CCkBBBBBBBBBBBBBBBBBBBBBBkCC",
"CkBNBNBBBBBBBBNBBBBBBBNBNBkC",
"CvxicMNBBNNBBMMMnMNBBBMbaxmC",
"kmi7wgBBMccBBBMbcccnBBguyamk",
"kn767fBhsfgxBBBBbxsshBx888ck",
"vj358MB8566wgBBBBnp7yMNy77dm",
"ms128Bb655257bBBBBBxuxBu66am",
"me<18Bh111111uBBBBBBNnBu33wm",
"mq<>6Bx1<<<<1pBBBBBBgbBy12qm",
"me*>5NM1>,,,7BBBBBg73bB6<<qm",
"mt***hBw*>=<hBBBx8<>7Bc1,,tm",
"kl***7Bc<**uBBbw<**<xBu===dk",
"km-$$%fBf><bnu=&%%,fBh>**,Mk",
"Cme+$$>cBx78,$$$%2hBb1%%$qmC",
"CkM&O++>gBBhi88ehBBh<$$$&zkC",
"CCmrOOOO$6xBBBBBBx8%++@+rmCC",
"CCkm4XXooo@>6ww6,$OOOOO4mkCC",
"CCCkM4X...oX..XXXXXOXX4mkCCC",
"CCCCkm0O  ..  X.... O9mvCCCC",
"CCCCCkml:o        o:jmkCCCCC",
"CCCCCCkkmk0;#@@#;9lmkkCCCCCC",
"CCCCCCCCkkmmmvmmmvkkCCCCCCCC"
};
