/* XPM */
static char *forward_sel[] = {
/* columns rows colors chars-per-pixel */
"28 28 115 2",
"   c #00165E",
".  c #001760",
"X  c #001863",
"o  c #091F62",
"O  c #001A6C",
"+  c #001C74",
"@  c #001D7B",
"#  c #0B236D",
"$  c #132764",
"%  c #1A2D67",
"&  c #10276B",
"*  c #0C2572",
"=  c #03227E",
"-  c #09267E",
";  c #0C297F",
":  c #132A70",
">  c #2A3B6E",
",  c #2C3E72",
"<  c #263B7E",
"1  c #2F427E",
"2  c #354575",
"3  c #30437A",
"4  c #3E4D7B",
"5  c #49567C",
"6  c #4E5A7E",
"7  c #001F82",
"8  c #022283",
"9  c #092783",
"0  c #0C2A85",
"q  c #062689",
"w  c #0D2B89",
"e  c #112D83",
"r  c #163184",
"t  c #1C3581",
"y  c #16338D",
"u  c #18368D",
"i  c #1E398D",
"p  c #1A3791",
"a  c #1D3B93",
"s  c #243C85",
"d  c #243E8E",
"f  c #243F91",
"g  c #2D4487",
"h  c #26408E",
"j  c #2A438F",
"k  c #304585",
"l  c #354A8B",
"z  c #394D8A",
"x  c #274191",
"c  c #2C4692",
"v  c #2F4892",
"b  c #324A92",
"n  c #3B5194",
"m  c #455482",
"M  c #45578D",
"N  c #46588D",
"B  c #48598C",
"V  c #535F83",
"C  c #415696",
"Z  c #455893",
"A  c #495C94",
"S  c #52618F",
"D  c #59668D",
"F  c #4F6197",
"G  c #536394",
"H  c #586796",
"J  c #5D6A93",
"K  c #566698",
"L  c #576898",
"P  c #5C6B98",
"I  c #606C91",
"U  c #657197",
"Y  c #6A7494",
"T  c #647198",
"R  c #6A7598",
"E  c #6F7A9A",
"W  c #757D95",
"Q  c #737C98",
"!  c #7E8497",
"~  c #7D8498",
"^  c #808696",
"/  c #898C97",
"(  c #808698",
")  c #858A99",
"_  c #898D99",
"`  c #8E9099",
"'  c #929499",
"]  c #979899",
"[  c #989999",
"{  c #8B92A4",
"}  c #9F9FA0",
"|  c #9399AC",
" . c #999EAC",
".. c #9EA1AD",
"X. c #A6A7A9",
"o. c #ACACAD",
"O. c #A4A7B2",
"+. c #A6A9B0",
"@. c #AEB0B6",
"#. c #B0B1B5",
"$. c #B4B5B9",
"%. c #B7B8BB",
"&. c #BABBBE",
"*. c #BCBEC3",
"=. c #BFC1C6",
"-. c #C1C2C4",
";. c #C7C7C9",
":. c #CBCBCB",
">. c #CFD0D0",
",. c #D2D2D2",
"<. c gray86",
"1. c #E4E4E4",
"2. c #E9E9E9",
"3. c black",
"4. c None",
/* pixels */
"4.4.4.4.4.4.4.4.4.1.<.:.:.:.:.;.:.<.1.4.4.4.4.4.4.4.4.4.",
"4.4.4.4.4.4.4.1.:.#.[ ] [ [ ] ] [ } o.;.1.4.4.4.4.4.4.4.",
"4.4.4.4.4.2.,.o.] ' ' ' ` ' ' ` _ ' ' ' X.:.2.4.4.4.4.4.",
"4.4.4.4.1.-.] _ / / / / / / / / / / / / / ' &.1.4.4.4.4.",
"4.4.4.1.&.` ^ ^ ^ ^ ^ ^ ! ! ^ ! ~ ^ ! ^ ! ! ) $.1.4.4.4.",
"4.4.2.-.) W W W W W W ~ ) ) ) ) ( W Q Q W W W ! &.2.4.4.",
"4.4.,._ Y Y Y Y Y ~ ) ) ! W W ! ( / ~ Y Y Y Y Y ( :.4.4.",
"4.1. .J I I I U ( ~ Y J J J J J J U ~ ~ I J J D G { 1.4.",
"4.>.Z r M S G ~ Q G G J H G S S G A G Y ~ H A M w l ;.4.",
"2.O.r 7 9 d T Q A N N G ( U A M M M B B R R d q 8 e | 1.",
"<.Q @ @ @ y T x s k l z U ] ^ H n g g s i T p 7 8 7 J <.",
">.A @ @ 7 n A 7 @ = - ; y Q ] ] Q c q @ 7 C C 7 7 7 z :.",
"*.k @ @ 8 F c @ @ @ @ @ @ c ` ] [ ' L a q x L 8 @ @ s -.",
"#.< + + 8 K d @ @ + @ @ @ 8 P [ [ [ [ _ n a P q @ @ t *.",
"#.< + + = K h + O = + + @ w E [ [ [ / K y a P 8 + @ t *.",
"*.3 + O @ Z n @ + O + @ @ A ] [ _ P i 7 7 v A 7 + + s =.",
">.m O + + d P 9 + O + @ d / ' U x 9 + + @ K c + @ + 3 ;.",
"<.Y O O O = H c + O O 0 Y Q b = + O + + f T 9 + O + J <.",
"2...: O O O d I u + @ x n 9 + O O O + y T d + O + * { 2.",
"4.:.4 O O O + c T j = 8 + O O O O @ d T b @ O O O 1 -.4.",
"4.1.{ & X X O + d H G h e 9 - e d A P f + O O X # ~ <.4.",
"4.4.:.V X X X X O - j K P P P P K b 9 O X O X O 5 :.4.4.",
"4.4.2.$.2 X X X X X X + - ; e - + O X X X X X , +.1.4.4.",
"4.4.4.1.+.2 X   . . . . . . . .   X X X X X ,  .1.4.4.4.",
"4.4.4.4.1.@.5 o         X     . X   X   o 4 O.1.4.4.4.4.",
"4.4.4.4.4.1.:.~ , o                 o > W -.1.4.4.4.4.4.",
"4.4.4.4.4.4.2.1.=.) 6 > % $ $ % > 5 ^ &.<.2.4.4.4.4.4.4.",
"4.4.4.4.4.4.4.4.2.1.,.%.O.X...+.$.>.1.2.4.4.4.4.4.4.4.4."
};
