/* XPM */
static char *help_sel[] = {
/* columns rows colors chars-per-pixel */
"32 32 128 2",
"   c #4F0A08",
".  c #550705",
"X  c #5C0606",
"o  c #560906",
"O  c #5C0A06",
"+  c #530D0B",
"@  c #5B110C",
"#  c #511312",
"$  c #5F1B19",
"%  c #650706",
"&  c #6C0707",
"*  c #650906",
"=  c #6C0F05",
"-  c #6F0708",
";  c #620F08",
":  c #6E0908",
">  c #710B0B",
",  c #6B130E",
"<  c #741305",
"1  c #7A1505",
"2  c #74110D",
"3  c #7A1708",
"4  c #7D1C0C",
"5  c #770F10",
"6  c #6F1611",
"7  c #6E1912",
"8  c #741312",
"9  c #791211",
"0  c #751917",
"q  c #7A1917",
"w  c #761B1A",
"e  c #7A1B1A",
"r  c #7A201F",
"t  c #5D3432",
"y  c #772122",
"u  c #7A2524",
"i  c #762A24",
"p  c #7A2925",
"a  c #7A2728",
"s  c #7B2C2A",
"d  c #76332F",
"f  c #7B322C",
"g  c #7C3534",
"h  c #7C3935",
"j  c #7C3C3B",
"k  c #7C4039",
"l  c #7D4544",
"z  c #7C4945",
"x  c #7F4C4A",
"c  c #7E5655",
"v  c #776565",
"b  c #802F24",
"n  c #85362C",
"m  c #8C382A",
"M  c #813332",
"N  c #813A36",
"B  c #833D3C",
"V  c #84423C",
"C  c #844645",
"Z  c #844E4E",
"A  c #83504F",
"S  c #94544D",
"D  c #855150",
"F  c #8B5C5B",
"G  c #945C57",
"H  c #89605F",
"J  c #A26156",
"K  c #A3635B",
"L  c #8C6564",
"P  c #8A6867",
"I  c #8D6D6C",
"U  c #8F7472",
"Y  c #907574",
"T  c #927D7B",
"R  c #B27E77",
"E  c #948685",
"W  c #96908F",
"Q  c #989795",
"!  c #B78C87",
"~  c #B6918C",
"^  c #B8938E",
"/  c #B79B98",
"(  c #A5A4A4",
")  c #ACABAB",
"_  c #B4B4B4",
"`  c #B8B7B7",
"'  c #BCBCBC",
"]  c #C4A4A0",
"[  c #C2AFAE",
"{  c #C8ABA9",
"}  c #CBB1AE",
"|  c #CFB7B3",
" . c #CCBDBC",
".. c #D1BBB6",
"X. c #C6C6C6",
"o. c #CBCBCB",
"O. c #D7C6C5",
"+. c #D6CBCA",
"@. c #D9CCCA",
"#. c #D5D5D5",
"$. c gray86",
"%. c #E1DCDC",
"&. c #E6E5E5",
"*. c gray91",
"=. c None",
"-. c black",
";. c black",
":. c black",
">. c black",
",. c black",
"<. c black",
"1. c black",
"2. c black",
"3. c black",
"4. c black",
"5. c black",
"6. c black",
"7. c black",
"8. c black",
"9. c black",
"0. c black",
"q. c black",
"w. c black",
"e. c black",
"r. c black",
"t. c black",
"y. c black",
"u. c black",
/* pixels */
"=.=.=.=.=.=.=.=.=.=.=.=.=.=.=.=.=.=.=.=.=.=.=.=.=.=.=.=.=.=.=.=.",
"=.=.=.=.=.=.=.=.=.=.=.=.=.=.=.%.%.=.=.=.=.=.=.=.=.=.=.=.=.=.=.=.",
"=.=.=.=.=.=.=.=.=.=.%.R m 4 1 1 1 1 4 m R %.=.=.=.=.=.=.=.=.=.=.",
"=.=.=.=.=.=.=.=.&.K 3 p k Z c c c c x k p 1 J &.=.=.=.=.=.=.=.=.",
"=.=.=.=.=.=.=...4 s l x l B j j j j l l Z z f 4 | =.=.=.=.=.=.=.",
"=.=.=.=.=.=.! < g l j h g g s s M s s g h j l h < ! =.=.=.=.=.=.",
"=.=.=.=.=.] 1 h j g s s s s V C C M s s s s N j h < ] =.=.=.=.=.",
"=.=.=.=.@.< d g s M a Z Y Q Q Q Q Q Q F s e q e f f 3 O.=.=.=.=.",
"=.=.=.=.n p f g a s s T Q Q Q Q Q Q Q Q L b b b q s i n =.=.=.=.",
"=.=.=.} = f s s s s s I P C f s M I Q Q W S - - 9 e s < { =.=.=.",
"=.=.=.b i u a a p p s s s s s a b b Q Q W Y - b 9 9 e u b =.=.=.",
"=.=.&.= u u a a s s s s s s s s 5 5 Q Q Q L b b 9 2 q u = &.=.=.",
"=.=.~ 7 e i u u s s s s s s s q 5 B Q Q Q M b - 2 5 9 q 7 ^ =.=.",
"=.=.S 7 q y y a s s s a s u q 9 b T Q Q Z 9 - b 9 5 5 2 7 G =.=.",
"=.=.n 7 0 r y a p p a p s q q 9 I W Q Z 3 9 5 5 5 5 2 5 0 V =.=.",
"=.=.f 8 0 0 w u s s s s u q 9 L Q W B b 5 5 5 > > > > > 7 N =.=.",
"=.=.h 6 8 0 0 w y i s u e 9 j Q Q Y 5 5 - > > > - > - 5 6 C =.=.",
"=.=.G 6 5 0 0 0 0 0 y a r q E Q Q M - - : : : - > > - 5 @ G =.=.",
"=.=./ O > 0 0 0 8 5 8 8 8 s Q Q Q s - - : : : - : : > > ; / =.=.",
"=.=.&.O : 5 > 8 > - : - : e D D D w - - : : : > > > > > O &.=.=.",
"=.=.=.d ; > 2 8 > : : : & : - : - - : : : : - > > > > * d =.=.=.",
"=.=.=. .o : > > : > : : & w Z Z D w : : : : > - : : : o  .=.=.=.",
"=.=.=.=.j * : 8 : > > : - s Q Q Q s & : > : > - > : % j =.=.=.=.",
"=.=.=.=.$.@ * : : : : : - d Q Q Q s : : : : : , : ; @ %.=.=.=.=.",
"=.=.=.=.=. .o * : : : - - w Z Z Z w - - : : : : * o  .=.=.=.=.=.",
"=.=.=.=.=.=.[ + X - - - - - - - - - - - - : : o + [ =.=.=.=.=.=.",
"=.=.=.=.=.=.=.+.$ . % - & - - - & & - - & % o 7 +.=.=.=.=.=.=.=.",
"=.=.=.=.=.=.*.#.o.I + . X % % - - % % X . + P o.$.&.=.=.=.=.=.=.",
"=.=.=.=.=.=.=.=.=.=.=.=.t # #     # # t v =.=.=.=.=.=.=.=.=.=.=.",
"=.=.=.=.=.=.=.=.*.$.#.$.$.$.$.%.$.#.#.$.#.$.&.*.=.=.=.=.=.=.=.=.",
"=.=.=.=.=.=.=.=.%.' ) _ ` ' _ ` ' ) ( ) ) ( _ #.&.=.=.=.=.=.=.=.",
"=.=.=.=.=.=.=.=.*.o.' X.X.' _ _ ` ( ( ( ( ( ( ) $.=.=.=.=.=.=.=."
};
