/* XPM */
static char *help_dis[] = {
/* columns rows colors chars-per-pixel */
"32 32 128 2",
"   c #835554",
".  c #8D5958",
"X  c #945E5D",
"o  c #966664",
"O  c #9D6463",
"+  c #976866",
"@  c #936C6B",
"#  c #947070",
"$  c #A46766",
"%  c #A46B69",
"&  c #AB6C6B",
"*  c #A07774",
"=  c #AD7470",
"-  c #B67272",
";  c #B97575",
":  c #B67A76",
">  c #BB7976",
",  c #B77F79",
"<  c #BD7B7A",
"1  c #C27D7D",
"2  c #C6877D",
"3  c #CB867D",
"4  c #C6887F",
"5  c #CB897F",
"6  c #A58281",
"7  c #A18D8C",
"8  c #BB9C9A",
"9  c #BBA09E",
"0  c #B2ABAA",
"q  c #BFB2B1",
"w  c #C38483",
"e  c #CA8585",
"r  c #C48C84",
"t  c #C98C83",
"y  c #C68B8B",
"u  c #CB8C8B",
"i  c #D08F8E",
"p  c #C4908C",
"a  c #CC948D",
"s  c #C69490",
"d  c #CB9594",
"f  c #CD9896",
"g  c #CD9B9A",
"h  c #D19990",
"j  c #D09B9A",
"k  c #CCA19E",
"l  c #C7A6A3",
"z  c #CEA4A2",
"x  c #C7AAA7",
"c  c #CCABA9",
"v  c #D3A5A5",
"b  c #D0AAA5",
"n  c #D0ABAA",
"m  c #DAACAB",
"M  c #D5B0AC",
"N  c #C0B3B3",
"B  c #CCB6B4",
"V  c #D2B5B4",
"C  c #DCB3B2",
"Z  c #D2B8B7",
"A  c #DAB8B7",
"S  c #D2BAB8",
"D  c #DCBAB9",
"F  c #E0B9B9",
"G  c #DDC3BF",
"H  c #DDCFCD",
"J  c #DBD0CE",
"K  c gray84",
"L  c #DBD6D5",
"P  c gray86",
"I  c #E7C8C7",
"U  c #E2CCCA",
"Y  c #E9CFCE",
"T  c #E0D0CE",
"R  c #E9D0CF",
"E  c #E3D7D6",
"W  c #ECD7D6",
"Q  c #E3DBDB",
"!  c #EEDCDB",
"~  c #F0DEDD",
"^  c #E4E0DF",
"/  c #E5E4E4",
"(  c #E8E7E7",
")  c #E9E9E9",
"_  c #F3E4E3",
"`  c #F7EDED",
"'  c #FAF6F5",
"]  c #FDFCFB",
"[  c None",
"{  c black",
"}  c black",
"|  c black",
" . c black",
".. c black",
"X. c black",
"o. c black",
"O. c black",
"+. c black",
"@. c black",
"#. c black",
"$. c black",
"%. c black",
"&. c black",
"*. c black",
"=. c black",
"-. c black",
";. c black",
":. c black",
">. c black",
",. c black",
"<. c black",
"1. c black",
"2. c black",
"3. c black",
"4. c black",
"5. c black",
"6. c black",
"7. c black",
"8. c black",
"9. c black",
"0. c black",
"q. c black",
"w. c black",
"e. c black",
"r. c black",
"t. c black",
"y. c black",
"u. c black",
/* pixels */
"[ [ [ [ [ [ [ [ [ [ [ [ [ [ [ [ [ [ [ [ [ [ [ [ [ [ [ [ [ [ [ [ ",
"[ [ [ [ [ [ [ [ [ [ [ [ [ [ [ ( ( [ [ [ [ [ [ [ [ [ [ [ [ [ [ [ ",
"[ [ [ [ [ [ [ [ [ [ ( H m h 3 5 4 3 h m U ) [ [ [ [ [ [ [ [ [ [ ",
"[ [ [ [ [ [ [ [ ( G u a b M S B V S M b f t G ) [ [ [ [ [ [ [ [ ",
"[ [ [ [ [ [ [ Q f f c V n n v v v v n m V c f f Q [ [ [ [ [ [ [ ",
"[ [ [ [ [ [ T t g n v z j j g j j g j k z v n g t T [ [ [ [ [ [ ",
"[ [ [ [ [ E 4 k v j j j g j m C C v j j j j v v k 3 E [ [ [ [ [ ",
"[ [ [ [ / r g g j j d D ! ] ] ] ] ] ' I f u u u f f r / [ [ [ [ ",
"[ [ [ [ b s g f f f f _ ] ] ] ] ] ] ] ] _ i e e y j s b [ [ [ [ ",
"[ [ [ Q ; g f f f f g W Y C d j v ~ ] ] ] I e e e u g > Q [ [ [ ",
"[ [ [ k y d d d d f f f d g j d y i ] ] ] ~ e e e e u p k [ [ [ ",
"[ [ ) : d i d d f f f f g d d j e e ] ] ] Y e e e e e p : ) [ [ ",
"[ [ J , u s s d f f f f f f j u e F ] ] ] v e e e e 1 u , J [ [ ",
"[ [ S , u y y d f f f f f d u e u ` ] ] F e e e e 1 e w , S [ [ ",
"[ [ z < w y y d f f d d j u e e W ] ] F e e e 1 1 1 1 1 , c [ [ ",
"[ [ l , w y y d f d f f i u e R ] ] F e e 1 1 1 1 1 1 1 , x [ [ ",
"[ [ l : w w e u y d g d u e m ] ] ~ 1 1 ; ; ; < < ; 1 < ; x [ [ ",
"[ [ B = 1 w w e w w y d d e ` ] ] v - - ; ; ; ; ; ; ; 1 & B [ [ ",
"[ [ H % 1 6 6 e w < < 1 w f ] ] ] f - ; ; ; ; ; < < < 1 $ L [ [ ",
"[ [ ) % 1 1 1 1 < < ; - - u D A A w ; - ; ; ; ; ; < < ; % ) [ [ ",
"[ [ [ 8 & < 1 < < ; < ; ; - ; ; - - ; ; - ; ; < > < < & 8 [ [ [ ",
"[ [ [ Q + ; < ; ; < ; - - w A A D w - ; ; ; ; < > > - o P [ [ [ ",
"[ [ [ [ 9 $ ; ; ; ; ; ; ; d ] ] ] d ; ; ; : ; ; ; < $ 9 [ [ [ [ ",
"[ [ [ [ ( * % ; ; ; ; ; ; d ] ] ] f ; ; ; ; ; ; - $ * ( [ [ [ [ ",
"[ [ [ [ [ Q + % ; ; - - ; w A A A w - - - ; ; ; $ O Q [ [ [ [ [ ",
"[ [ [ [ [ [ L @ O ; ; ; ; ; ; - ; ; ; - > - ; O @ L [ [ [ [ [ [ ",
"[ [ [ [ [ [ [ ^ 6 X % ; - - - - - - - - - $ X 6 ^ [ [ [ [ [ [ [ ",
"[ [ [ [ [ [ ) / P q # . O & & - - & & O X @ q P / ) [ [ [ [ [ [ ",
"[ [ [ [ [ [ [ [ [ [ [ [ 7 # @     @ # 7 0 [ [ [ [ [ [ [ [ [ [ [ ",
"[ [ [ [ [ [ [ [ ) / ) / / / / ( ( ( / / / ( ) ) [ [ [ [ [ [ [ [ ",
"[ [ [ [ [ [ [ [ ) P K P P P P P ^ K K L K K P / ) [ [ [ [ [ [ [ ",
"[ [ [ [ [ [ [ [ ) / P / / P P P P K K K K K K P ( [ [ [ [ [ [ [ "
};
