/* XPM */
static char *help_sel[] = {
/* columns rows colors chars-per-pixel */
"28 28 107 2",
"   c #00165E",
".  c #03195F",
"X  c #001760",
"o  c #001964",
"O  c #001A6C",
"+  c #001C74",
"@  c #001E7B",
"#  c #0D2364",
"$  c #0B236C",
"%  c #112564",
"&  c #13296B",
"*  c #1E316B",
"=  c #0D2673",
"-  c #0E2875",
";  c #0D297D",
":  c #1F3576",
">  c #27386D",
",  c #2A3B6E",
"<  c #203474",
"1  c #2F3F70",
"2  c #293D7A",
"3  c #374777",
"4  c #3B4974",
"5  c #354578",
"6  c #414F7C",
"7  c #43517A",
"8  c #485479",
"9  c #4B587D",
"0  c #525D7E",
"q  c #58627F",
"w  c #001F81",
"e  c #032384",
"r  c #0C2982",
"t  c #022488",
"y  c #07298F",
"u  c #0C2C8C",
"i  c #132F84",
"p  c #13318C",
"a  c #18348C",
"s  c #0F3197",
"d  c #103296",
"f  c #193790",
"g  c #203A8B",
"h  c #203C90",
"j  c #3B4D86",
"k  c #33498C",
"l  c #394E8E",
"z  c #3D518C",
"x  c #2B4491",
"c  c #324A92",
"v  c #3D5396",
"b  c #465686",
"n  c #42548C",
"m  c #4C5D8E",
"M  c #4D5E92",
"N  c #546086",
"B  c #5C6582",
"V  c #50608F",
"C  c #5B678B",
"Z  c #4E6096",
"A  c #536496",
"S  c #586792",
"D  c #5D6A93",
"F  c #556598",
"G  c #5C6B98",
"H  c #636D8C",
"J  c #747A8D",
"K  c #7A7F8F",
"L  c #646F93",
"P  c #667194",
"I  c #6A7596",
"U  c #6F7895",
"Y  c #667298",
"T  c #6A7598",
"R  c #6F7998",
"E  c #737B94",
"W  c #737D98",
"Q  c #7B8296",
"!  c #7C8398",
"~  c #818697",
"^  c #848997",
"/  c #888C97",
"(  c #818798",
")  c #858A98",
"_  c #8B8E98",
"`  c #8E9099",
"'  c #949599",
"]  c #989899",
"[  c #8D92A2",
"{  c #9296A1",
"}  c #9699A1",
"|  c #9C9EA5",
" . c #A4A4A6",
".. c #A4A5A9",
"X. c #AAABAE",
"o. c #ACADB1",
"O. c #AFB0B0",
"+. c #B1B1B2",
"@. c #BBBBBB",
"#. c gray77",
"$. c #CBCBCB",
"%. c gray83",
"&. c gray86",
"*. c #E4E4E4",
"=. c gray91",
"-. c black",
";. c None",
/* pixels */
";.;.;.;.;.;.;.=.#. .] ] ] ' ] ] ] ] O.%.=.;.;.;.;.;.;.;.",
";.;.;.;.;.=.$. .' ' ' ' ' ' ' ' ' ' ' ] ..%.;.;.;.;.;.;.",
";.;.;.;.*.o.' _ _ _ _ _ _ ` _ _ _ _ _ _ ' ' @.=.;.;.;.;.",
";.;.;.*. ._ ^ ~ ^ ^ ^ ^ ^ ^ ^ ^ ( ) ) ) ^ ^ ' o.=.;.;.;.",
";.;.*. .~ K Q Q Q ! / ` ' ' ' ' _ / ~ K Q ! ! / +.=.;.;.",
";.=.+.! U U U R ~ ' ] ] ] ] ] ' ] ] ' ~ E U E E ^ #.;.;.",
";.$.~ P L L P ! ' ] ] ] ] ] ] ] ] ] ] ] ! P P P I _ &.;.",
"=.[ l m S S T ' ] ] ] ] ] ] ] ] ] ] ] ] ' I C D V m X.;.",
"$.S e p z M ! ] ] ] ] ] ) U R _ ] ] ] ] ] W V n i r U &.",
"| g w e t x ) ] ] ] ] _ Z n n G ] ] ] ] ] W g e w @ n @.",
"E i w w w u F T K ) ` I k k c Y ] ] ] ] ] G w w w @ g ' ",
"C w @ e @ e e t y u f d r u Z ' ] ] ] ] ' c w @ @ @ ; E ",
"b w @ @ @ @ @ @ @ @ @ @ u G ' ] ] ] ] ' F r @ @ @ + @ H ",
"j @ @ @ @ @ @ @ @ @ @ d T ' ] ] ] ] ' F y @ + + + @ @ C ",
"j + @ @ @ + + @ + + t L ] ] ] ] ] / v e + + + + @ + + H ",
"b @ + + @ + + + + @ g ` ] ] ] ] ) g @ + + + + + O O + H ",
"C + + + + + + + + + c ] ] ] ] ] v @ + O + + O + + O = E ",
"E - O + + O O + + + c ! W ! W W a O O O O O O O O O : ' ",
" .2 O + O O O + O + y s d d d s e O O O O O O O O O 6 @.",
"$.N O O O O O O O @ v W W W W W h + O O O o O O o $ U &.",
"*.' < O O O O O O + A ] ] ] ] ] c O o O o O o o o 5 o.;.",
";.$.H O O o o o o + A ] ] ] ] ' c O o o o o o o & J &.;.",
";.=.X.6 o o o O o + A ] ] ] ] ] c o o o o o o o B #.;.;.",
";.;.*.} 3 o o X o + M _ ) ) ) ^ x o X X . o o 9 o.=.;.;.",
";.;.;.*.{ 6 o     X r i i i i i @ X X X   % 0 X.*.;.;.;.",
";.;.;.;.*.X.H * .                   . o , J @.*.;.;.;.;.",
";.;.;.;.;.=.$._ 0 > # .       . . % 1 H | %.;.;.;.;.;.;.",
";.;.;.;.;.;.;.=.#.} J q 7 4 4 8 q K  .$.=.;.;.;.;.;.;.;."
};
