/* XPM */
static char *help_dis[] = {
/* columns rows colors chars-per-pixel */
"32 32 128 2",
"   c #835554",
".  c #8D5958",
"X  c #945E5D",
"o  c #876463",
"O  c #896463",
"+  c #966664",
"@  c #9D6463",
"#  c #976866",
"$  c #956C6A",
"%  c #8C7876",
"&  c #927E7D",
"*  c #A46766",
"=  c #A46B69",
"-  c #AB6C6B",
";  c #A07774",
":  c #AD7470",
">  c #B67272",
",  c #B97575",
"<  c #B67A76",
"1  c #BB7976",
"2  c #B77F79",
"3  c #BD7B7A",
"4  c #C27D7D",
"5  c #C6877D",
"6  c #CB867D",
"7  c #C6887F",
"8  c #CB897F",
"9  c #9A9393",
"0  c #A58281",
"q  c #A19B9A",
"w  c #BB9C9A",
"e  c #BBA09E",
"r  c gray65",
"t  c gray67",
"y  c gray70",
"u  c #BEB1B1",
"i  c #BBBBBB",
"p  c #C38483",
"a  c #CA8585",
"s  c #C48C84",
"d  c #C98C83",
"f  c #C68B8B",
"g  c #CB8C8B",
"h  c #D08F8E",
"j  c #C4908C",
"k  c #CC948D",
"l  c #C69490",
"z  c #CB9594",
"x  c #CD9896",
"c  c #CD9B9A",
"v  c #D19990",
"b  c #D09B9A",
"n  c #CCA19E",
"m  c #C7A6A3",
"M  c #CEA4A2",
"N  c #C7AAA7",
"B  c #CCABA9",
"V  c #D3A5A5",
"C  c #D0AAA5",
"Z  c #D0ABAA",
"A  c #DAACAB",
"S  c #D5B0AC",
"D  c #C0B3B2",
"F  c #CCB6B4",
"G  c #D2B5B4",
"H  c #DCB3B2",
"J  c #D2B8B7",
"K  c #DAB8B7",
"L  c #D2BAB8",
"P  c #DCBAB9",
"I  c #E0B9B9",
"U  c #DDC3BF",
"Y  c #C3C3C3",
"T  c #C8C8C8",
"R  c #DDCFCD",
"E  c #DBD0CE",
"W  c gray83",
"Q  c #DCD5D5",
"!  c gainsboro",
"~  c #E7C8C7",
"^  c #E2CCCA",
"/  c #E9CFCE",
"(  c #E0D0CE",
")  c #E9D0CF",
"_  c #E3D7D6",
"`  c #ECD7D6",
"'  c #E3DCDB",
"]  c #EEDCDB",
"[  c #F0DEDD",
"{  c #E4E0DF",
"}  c #E5E2E2",
"|  c #E8E5E5",
" . c #E9E9E9",
".. c #F3E4E3",
"X. c #F7EDED",
"o. c #FAF6F5",
"O. c #FDFCFB",
"+. c None",
"@. c black",
"#. c black",
"$. c black",
"%. c black",
"&. c black",
"*. c black",
"=. c black",
"-. c black",
";. c black",
":. c black",
">. c black",
",. c black",
"<. c black",
"1. c black",
"2. c black",
"3. c black",
"4. c black",
"5. c black",
"6. c black",
"7. c black",
"8. c black",
"9. c black",
"0. c black",
"q. c black",
"w. c black",
"e. c black",
"r. c black",
"t. c black",
"y. c black",
"u. c black",
/* pixels */
"+.+.+.+.+.+.+.+.+.+.+.+.+.+.+.+.+.+.+.+.+.+.+.+.+.+.+.+.+.+.+.+.",
"+.+.+.+.+.+.+.+.+.+.+.+.+.+.+.+.+.+.+.+.+.+.+.+.+.+.+.+.+.+.+.+.",
"+.+.+.+.+.+.+.+.+.+.+.+.+.+.+.| | +.+.+.+.+.+.+.+.+.+.+.+.+.+.+.",
"+.+.+.+.+.+.+.+.+.+. .^ S v 6 8 8 6 v S ^  .+.+.+.+.+.+.+.+.+.+.",
"+.+.+.+.+.+.+.+. .R d k M G J G K J G V k d U  .+.+.+.+.+.+.+.+.",
"+.+.+.+.+.+.+.' x x B Z Z Z V V V V Z Z G S x x { +.+.+.+.+.+.+.",
"+.+.+.+.+.+.( d c Z V M b b b b c b b b n V Z c 8 ( +.+.+.+.+.+.",
"+.+.+.+.+._ 7 n M b b b b b A H H V b b b b V V n 7 _ +.+.+.+.+.",
"+.+.+.+.} s x M c c x K ] O.O.O.O.O.o.~ b h a g c x s } +.+.+.+.",
"+.+.+.+.C l c c x x x ..O.O.O.O.O.O.O.O...h a a g x j C +.+.+.+.",
"+.+.+.' < c z z x x z ` ) H z b V ] O.O.O.~ a a a g c 1 ' +.+.+.",
"+.+.+.n f z z z z x x x z b z z h z O.O.O.[ a a a a g j n +.+.+.",
"+.+. .2 z k z z z x x x x x b z a a O.O.O./ a a a p a g <  .+.+.",
" . .E 2 f g z z x x x x z x z g a H O.O.o.V a a a a p f 2 E +.+.",
"| } K 2 f f f z x x x x b h g a g X.O.O.I a a a a 4 a 5 2 L +.+.",
"} ' m 3 a f f c x x x x b g g a ` O.O.I a a a a 4 a 4 p 2 B +.+.",
"} ' m 2 p f f g b z z z z g a ) O.O.I a 4 a 4 4 , 4 4 4 , m +.+.",
"| } m < p p f f g z c z g a A O.O.[ 4 4 4 , , 4 , , , 4 > N +.+.",
" . .F : 4 p p p p p f z g a X.O.O.M , , , , , , , > 4 4 : F +.+.",
"+.+.R = 3 p 5 p p 3 3 4 p b O.O.O.z , , > , , , , 4 , 4 = Q +.+.",
"+.+. .= , 4 0 4 3 3 , > > f P K K p , , , > , , , 4 4 3 #  .+.+.",
"+.+.+.w - 3 4 4 3 3 , , , , , , , > > > , , , , , , , - w +.+.+.",
"+.+.+.' @ , 1 3 , 3 , , > p K H K 0 4 > , > , 4 4 , , + ' +.+.+.",
"+.+.+.+.e * , 3 , , , , , z O.O.O.z 4 > , 4 , , , , * e +.+.+.+.",
"+.+.+.+. .& * , , > , , , z O.O.O.z , , > , , , , = ; | +.+.+.+.",
"+.+.+.+.+.' @ * , > , > 4 0 H I K p , > , , > , * @ ' +.+.+.+.+.",
"+.+.+.+.+.+._ $ * , , , 4 > > > , , > , , , , @ $ Q +.+.+.+.+.+.",
"+.+.+.+.+.+.+.' 0 X * , > > > > > > > > > = X 0 } +.+.+.+.+.+.+.",
"+.+.+.+.+.+. .} ! D $ . * - - > > - - * . $ u ! }  .+.+.+.+.+.+.",
"+.+.+.+.+.+.W T Y i t q & O o     o o % 9 y Y Y T W +.+.+.+.+.+.",
"+.+.+.+.+.+.+.+. .! i r r r r r r t r r r y !  .+.+.+.+.+.+.+.+.",
"+.+.+.+.+.+.+.+. .! i t t t t r t t t t y Y !  .+.+.+.+.+.+.+.+."
};
