/* XPM */
static char *help_dis[] = {
/* columns rows colors chars-per-pixel */
"28 28 63 1",
"  c #8B93AD",
". c #8E96B1",
"X c #8F98B3",
"o c #929BB6",
"O c #959EBA",
"+ c #99A0B7",
"@ c #97A0BD",
"# c #98A1BD",
"$ c #9BA5C2",
"% c #9FA8C6",
"& c #A4ACC6",
"* c #A2ADCB",
"= c #A9B0C5",
"- c #A6B0CF",
"; c #AFB5C9",
": c #B4BACC",
"> c #A7B1D1",
", c #AAB4D4",
"< c #ADB7D8",
"1 c #AEB9DA",
"2 c #B4BCD6",
"3 c #B1BCDE",
"4 c #B4BFE1",
"5 c #B9C1D9",
"6 c #B6C1E4",
"7 c #B9C4E6",
"8 c #BAC6E9",
"9 c #BECAEC",
"0 c #C0C5D5",
"q c #C4CADC",
"w c #C9CDDC",
"e c #CBD0DF",
"r c #C2CDEF",
"t c #CFD4E4",
"y c #D1D7E7",
"u c #D4D8E5",
"i c #D8DBE7",
"p c #DADEE9",
"a c #C2CDF1",
"s c #C5D1F4",
"d c #CAD4F3",
"f c #C9D5F9",
"g c #CED9FC",
"h c #D3DFFF",
"j c #DFE3EE",
"k c #DCE2F6",
"l c #D6E1FF",
"z c #D9E2FC",
"x c #DEE8FF",
"c c #E0E4ED",
"v c gray92",
"b c #E2E6F3",
"n c #EBEDF4",
"m c #E4EDFE",
"M c #EAEFFD",
"N c #E5F0FF",
"B c #ECF2FE",
"V c #F4F4F4",
"C c #F2F5FC",
"Z c #F5FBFE",
"A c #FEFEFE",
"S c black",
"D c None",
/* pixels */
"DDDDDDDvVVVAAAAAAVVvvDDDDDDD",
"DDDDDvvVAAAAAAAAAAAAVvDDDDDD",
"DDDDvVAAAAAAAAAAAAAAAVVvDDDD",
"DDDvVAAAAAAAAAAAAAAAAAAVvDDD",
"DDvVAAAAAAAAAAAAAAAAAAAAVvDD",
"DvVAAAAAAAAAAAAAAAAAAAAAAvDD",
"DvAAAAAAAAAAAAAAAAAAAAAAAVvD",
"vVmCZZAAAAAAAAAAAAAAAAZZBBVD",
"nCfgmZAAAAAAAAAAAAAAAACmddVv",
"Vz99amAAAAAAZBBAAAAAAAz988mV",
"As999zAAAAAAxzmAAAAAAAs677dV",
"C89889sfglxzrhAAAAAAAB86447A",
"m77666666668lAAAAAAAAf44333C",
"k4646334336lAAAAAAAAf3<13<<C",
"p333133111sAAAAAAAZa<<,,,,<M",
"k<<<<<<<<1xAAAAAAm7>,>,>>>,C",
"B<,,,,,,>1BAAAAAB6-----***<Z",
"Z3-----*><BAAAAAl***%*%%%&5V",
"Vq******%,lNmmmms%%%%$%%%$yV",
"vb*&%%%%$<ZAAAAAx*$$$$$$$&nv",
"vV2$$$$$#1AAAAAAN%###@@@OqVD",
"Dvb%$O@$@<AAAAAAN$@@@O@o&CvD",
"DvVt$OOOO>AAAAAAN$ooooX@jvDD",
"DDvVqoooo-ZAAAAAm@XX..ouVvDD",
"DDDvVtO..#rddddd5... +pVvDDD",
"DDDDvVc=.       .  .:nVvDDDD",
"DDDDDvvVi;O      +:jVvDDDDDD",
"DDDDDDDvvVVjw00ecCVvvDDDDDDD"
};
