/* XPM */
static char *help_dis[] = {
/* columns rows colors chars-per-pixel */
"28 28 105 2",
"   c #5E6D9D",
".  c #606F9E",
"X  c #61709E",
"o  c #6272A3",
"O  c #6877A6",
"+  c #6C7AA6",
"@  c #6576A9",
"#  c #6778AC",
"$  c #697AAD",
"%  c #6B7DB3",
"&  c #6F81B9",
"*  c #7383B4",
"=  c #7886B3",
"-  c #7184BD",
";  c #7387C1",
":  c #7689C4",
">  c #7A8CC3",
",  c #798DCA",
"<  c #7F90C4",
"1  c #7C90CD",
"2  c #7E92D2",
"3  c #808CB3",
"4  c #8793B6",
"5  c #909ABB",
"6  c #8A97C2",
"7  c #8B9AC5",
"8  c #8195D5",
"9  c #869AD4",
"0  c #8197D8",
"q  c #869BDC",
"w  c #899EDD",
"e  c #9BA5C1",
"r  c #96A3CC",
"t  c #9CA7C8",
"y  c #9DA8C8",
"u  c #8DA1DC",
"i  c #92A5DD",
"p  c #98A8DA",
"a  c #A5AEC8",
"s  c #A9B1CA",
"d  c #AAB4D1",
"f  c #B2BAD1",
"g  c #B8BFD3",
"h  c #869CE0",
"j  c #8CA1E3",
"k  c #96A9E3",
"l  c #90A6E8",
"z  c #96ABEC",
"x  c #9AAEEC",
"c  c #9BB0ED",
"v  c #ACB9E1",
"b  c #A1B3E9",
"n  c #AEBDEB",
"m  c #B5BFE0",
"M  c #A1B5F1",
"N  c #A5B8F0",
"B  c #ACBDF2",
"V  c #A2B8FB",
"C  c #BAC1D5",
"Z  c #B6C2E6",
"A  c #B9C4E6",
"S  c #B4C2EB",
"D  c #BAC6ED",
"F  c #B3C4F4",
"G  c #B9C8F6",
"H  c #BDCCF8",
"J  c #C1C7D8",
"K  c #C2C8DB",
"L  c #C7CEE4",
"P  c #C3CEEE",
"I  c #CBD2E7",
"U  c #CBD4EE",
"Y  c #D1D5E2",
"T  c #D6DAE6",
"R  c #D0D7EB",
"E  c #DBDEE8",
"W  c #C4CFF0",
"Q  c #C0CFFB",
"!  c #C5D1F2",
"~  c #CDD7F2",
"^  c #C8D5FA",
"/  c #CEDAFC",
"(  c #D6DEF5",
")  c #D8DFF6",
"_  c #D3DDFE",
"`  c #DCE0ED",
"'  c #DCE2F2",
"]  c #D7E0FC",
"[  c #DDE4FB",
"{  c #E5E7EC",
"}  c #E7E9EF",
"|  c #EBEBEC",
" . c #E0E5F5",
".. c #EDEEF1",
"X. c #E0E7FA",
"o. c #E5EBFD",
"O. c #E9EEFC",
"+. c #EFF0F1",
"@. c #EEF1FD",
"#. c #F2F3F3",
"$. c #F3F6FD",
"%. c #F6F8FE",
"&. c #FDFEFE",
"*. c black",
"=. c None",
/* pixels */
"=.=.=.=.=.=.=.| +.#.%.&.&.&.&.&.&.%.#.| | =.=.=.=.=.=.=.",
"=.=.=.=.=.| | $.&.&.&.%.&.%.%.&.&.&.&.%.#.| =.=.=.=.=.=.",
"=.=.=.=.| #.%.$.$.%.%.$.$.%.%.%.$.$.%.%.&.#.#.| =.=.=.=.",
"=.=.=.| #.#.$.$.#.@.@.$.@.$.$.#.$.@.@.@.$.$.$.#.| =.=.=.",
"=.=.| #.@.O.O.o.o.@.%.%.&.&.%.&.%.%.@.O.O.O.O.#.#.| =.=.",
"=.| #.O.X.' [ X.@.&.&.&.&.&.&.&.&.&.%.$.X.X.X. .$.| =.=.",
"=.| O.) ( ( ] @.&.&.&.&.&.&.&.&.&.&.&.&.@.' ( ) ' #.} =.",
"| ..S W ~ ~ [ &.&.&.&.&.&.&.&.&.&.&.&.&.%.[ ~ ~ P P ..=.",
"+.! h k S ! @.&.&.&.&.&.%.X.X.%.&.&.&.&.&.O.W Z i 9 ) | ",
"#.b q h w B %.&.&.&.&.%.^ D G ] &.&.&.&.&.o.b q 8 8 A #.",
"` u q 2 0 c / [ O.@.%.[ n v S [ &.&.&.&.&._ h 2 8 1 p ..",
"U 8 0 2 2 2 h j l x M c q z / %.&.&.&.&.&.F 8 , 1 , 9 ' ",
"A 2 2 2 2 2 1 2 , 2 2 2 z _ &.&.&.&.&.&._ j , , , , 1 R ",
"m , , , , , , , , , , c X.&.&.&.&.&.&./ j , : > : : : I ",
"v : , , : , , : , : w ] &.&.&.&.&.%.H w : ; : ; ; : : L ",
"Z : : : : : : : : : N %.&.&.&.&.@.B 2 ; - ; ; - - - - R ",
"L ; ; ; ; ; - ; ; : G &.&.&.&.&.H , & - - & & & - & > E ",
"` < - - - - - - & : F @.O.@.@.o.x & & & & & & & % % 7 ..",
"..r % - & & & & & ; z V V V V V w & % % % % % % % % d #.",
"| L & % % & % % % : Q o.o.o.o.X.B % % % $ % % $ $ * T | ",
"| } 6 % % % % $ % ; / &.&.&.&.&.F % # # # # # # @ t ..=.",
"=...K * # # # # @ ; / &.&.&.&.&.F % # # @ @ @ @ = E | =.",
"=.| ..s # # # # @ ; / &.&.&.&.&.F # o o o o o # K ..=.=.",
"=.=.| } y @ o o o - ^ %.$.$.$.$.B # o o o o O f | | =.=.",
"=.=.=.| ..a # o o @ 9 i i i i i 1 o . .   + C | | =.=.=.",
"=.=.=.=.| | K 3 .   . o               X 5 Y #.| =.=.=.=.",
"=.=.=.=.=.| | { g 4 + .         X + 5 K | | =.=.=.=.=.=.",
"=.=.=.=.=.=.=.| +.| T C a e e s J ` ..| | =.=.=.=.=.=.=."
};
