/* XPM */
static char *help_sel[] = {
/* columns rows colors chars-per-pixel */
"28 28 100 2",
"   c #00165E",
".  c #03195F",
"X  c #001760",
"o  c #001964",
"O  c #001A6C",
"+  c #001C74",
"@  c #001E7B",
"#  c #0D2364",
"$  c #0B236C",
"%  c #112564",
"&  c #13296B",
"*  c #1E316B",
"=  c #0D2673",
"-  c #0E2875",
";  c #052279",
":  c #1F3576",
">  c #27396D",
",  c #2A3B6E",
"<  c #203474",
"1  c #293D7A",
"2  c #3B4974",
"3  c #364679",
"4  c #394979",
"5  c #45527B",
"6  c #485479",
"7  c #001F81",
"8  c #032384",
"9  c #0C2982",
"0  c #022488",
"q  c #07298F",
"w  c #0C2C8C",
"e  c #132F84",
"r  c #143085",
"t  c #13318C",
"y  c #18348C",
"u  c #0F3197",
"i  c #103296",
"p  c #203A8B",
"a  c #203C90",
"s  c #294189",
"d  c #3B4D86",
"f  c #33498C",
"g  c #394E8E",
"h  c #3D518C",
"j  c #264191",
"k  c #324A92",
"l  c #3C5395",
"z  c #465584",
"x  c #43558D",
"c  c #4D5D8E",
"v  c #525E82",
"b  c #4D5E92",
"n  c #5C6684",
"m  c #50608F",
"M  c #5D698C",
"N  c #4E6096",
"B  c #536497",
"V  c #586792",
"C  c #5D6A92",
"Z  c #556598",
"A  c #5C6B98",
"S  c #626B85",
"D  c #616C8C",
"F  c #6B738D",
"G  c #646F93",
"H  c #616E98",
"J  c #667194",
"K  c #6B7594",
"L  c #6F7895",
"P  c #667298",
"I  c #6A7598",
"U  c #6F7998",
"Y  c #727A95",
"T  c #737D98",
"R  c #7B8296",
"E  c #7C8398",
"W  c #848997",
"Q  c #818798",
"!  c #858A99",
"~  c #8B8E98",
"^  c #8D909A",
"/  c #949599",
"(  c gray60",
")  c #858CA2",
"_  c #9A9CA0",
"`  c #A2A3A4",
"'  c #A9A9A9",
"]  c #A6A9B3",
"[  c #AAACB4",
"{  c #AFB1B6",
"}  c #B4B4B7",
"|  c #B7B8BA",
" . c #C2C3C4",
".. c #CDCDCE",
"X. c #D5D5D5",
"o. c gray86",
"O. c #E4E4E4",
"+. c gray91",
"@. c black",
"#. c None",
/* pixels */
"#.#.#.#.#.#.#.+.X.| ` ( ( ( ( ( ( '  .o.+.#.#.#.#.#.#.#.",
"#.#.#.#.#.+.o.| ( / / / / / / / / ( / `  .o.#.#.#.#.#.#.",
"#.#.#.#.O. .( ~ / ~ ~ ~ ~ ~ ~ ~ ~ ~ ~ ~ ~ ` ..+.#.#.#.#.",
"#.#.#.O.| ^ ! Q Q ! Q W W ! W W W W W ~ W W (  .+.#.#.#.",
"#.#.O.| ! R R R T E ~ ~ / / / / ~ ~ E T R R Q ^  .+.#.#.",
"#.+. .Q L U U Y W / ( ( ( ( ( / ( ( / Q Y L L Y / X.#.#.",
"#.o.^ J G G J E ( ( ( ( ( ( ( ( ( ( ( ( Q J J J L _ O.#.",
"+.] g b V V P / ( ( ( ( ( ( ( ( ( ( ( ( / K V C c c  .#.",
"X.H 0 t h b R ( ( ( ( ( ! U U ~ ( ( ( ( ( T m h t 9 ! O.",
"| s 7 7 0 j ~ ( ( ( ( ~ N x x A ( ( ( ( ( T p 8 @ @ x ..",
") 9 8 7 @ w B I T W ~ I f f k P ( ( ( ( ( A 7 7 @ @ p [ ",
"G 8 @ 7 @ 0 0 0 w w y y 9 w b / ( ( ( ( / k 7 @ @ @ 9 ) ",
"z @ @ 7 @ @ @ @ @ @ @ @ w A / ( ( ( ( / Z 9 + @ @ @ ; K ",
"d @ @ @ @ @ @ @ @ @ @ t I / ( ( ( ( / B w + @ @ @ + + M ",
"d @ @ + @ @ @ + @ + 0 H ( ( ( ( ( ~ l 8 + + + + + + + D ",
"z + @ + + + + @ + + a ^ ( ( ( ( ! a @ + + + O + + + + K ",
"M + + + + + + + + + k ( ( ( / ( l @ + + O O + O O O = ! ",
") - + + + O O + + + k E E E E T y + O O O + O O O O : [ ",
"| 1 + O O O O + O + q i u u u u 0 O O O O O O O O O z ..",
"X.D O O O O O O O + l T T T T U p O O O o O O O O $ Q O.",
"+.[ < O O O O o O + B ( ( ( ( ( k O o O o O o o o 3  .#.",
"#.o.F O O o o O o + B ( ( ( ( / k O o o o o o o & ) O.#.",
"#.+. .z o o o o o + B ( ( ( ( ( f O X o o o o o D X.#.#.",
"#.#.O.{ 4 o o o X + b ~ ! ! W W j o X . o o o v  .+.#.#.",
"#.#.#.O.} 5 o X X o 9 r e e e e ; X X X X % n  .O.#.#.#.",
"#.#.#.#.O. .F * X     X             . o , E ..+.#.#.#.#.",
"#.#.#.#.#.+.X.] n > # .         . % , F | o.#.#.#.#.#.#.",
"#.#.#.#.#.#.#.+.X.} Q n 5 2 2 6 S /  .o.+.#.#.#.#.#.#.#."
};
