/* XPM */
static char *help_dis_dis[] = {
/* columns rows colors chars-per-pixel */
"28 28 128 2",
"   c #5E6D9D",
".  c #606F9F",
"X  c #61709E",
"o  c #606FA0",
"O  c #6373A4",
"+  c #6877A6",
"@  c #6B79A7",
"#  c #6676AA",
"$  c #6778AC",
"%  c #697AAD",
"&  c #707EA7",
"*  c #6B7DB3",
"=  c #6E80B7",
"-  c #6F81B9",
";  c #7282B3",
":  c #7987B3",
">  c #7184BD",
",  c #7487C1",
"<  c #7689C4",
"1  c #798CC5",
"2  c #7A8ECB",
"3  c #7F90C4",
"4  c #7C90CE",
"5  c #7E93D2",
"6  c #808DB4",
"7  c #8894B7",
"8  c #8B96B9",
"9  c #909BBB",
"0  c #8B99C4",
"q  c #8095D5",
"w  c #879AD5",
"e  c #8297D8",
"r  c #8398DA",
"t  c #899EDD",
"y  c #9CA5C2",
"u  c #96A4CD",
"i  c #9DA7C9",
"p  c #9EA8C8",
"a  c #8EA1DC",
"s  c #92A5DE",
"d  c #99A9DB",
"f  c #A6AEC8",
"g  c #A7B0CC",
"h  c #AAB2CA",
"j  c #ABB4D2",
"k  c #ADB9DF",
"l  c #B2BAD2",
"z  c #B8BFD4",
"x  c #869DE0",
"c  c #889DE0",
"v  c #8CA2E4",
"b  c #97AAE3",
"n  c #91A7E8",
"m  c #96ABED",
"M  c #9AAEEC",
"N  c #9CB0EE",
"B  c #99AEF0",
"V  c #A5B5E5",
"C  c #ACBAE2",
"Z  c #A1B3E9",
"A  c #AFBEEB",
"S  c #A2B6F1",
"D  c #A5B8F0",
"F  c #ACBEF2",
"G  c #A2B8FC",
"H  c #BAC1D5",
"J  c #B6C1E3",
"K  c #B9C4E6",
"L  c #B4C2EC",
"P  c #BAC7EE",
"I  c #B3C3F3",
"U  c #B9C9F7",
"Y  c #B5C5F8",
"T  c #BDCCF9",
"R  c #C1C7D9",
"E  c #C3C9DC",
"W  c #C7CFE6",
"Q  c #C8CFE3",
"!  c #C4CEEE",
"~  c #CCD3EA",
"^  c #D1D6E2",
"/  c #D6DAE6",
"(  c #D1D7EC",
")  c #DADEE9",
"_  c #C1CFFB",
"`  c #C5D1F2",
"'  c #CDD6F2",
"]  c #C9D5FA",
"[  c #CEDAFC",
"{  c #D6DEF6",
"}  c #D8DFF5",
"|  c #D2DDFE",
" . c #DDE0EB",
".. c #DCE2F3",
"X. c #D6E0FD",
"o. c #DCE4FC",
"O. c #E6E7ED",
"+. c #ECECEC",
"@. c #E0E5F3",
"#. c #EDEEF1",
"$. c #E0E6F8",
"%. c #E4EAFE",
"&. c #E9EEFB",
"*. c #EFF0F2",
"=. c #EDF1FE",
"-. c #F3F3F3",
";. c #F2F5FD",
":. c #F6F8FE",
">. c #FEFEFF",
",. c None",
"<. c black",
"1. c black",
"2. c black",
"3. c black",
"4. c black",
"5. c black",
"6. c black",
"7. c black",
"8. c black",
"9. c black",
"0. c black",
"q. c black",
"w. c black",
"e. c black",
"r. c black",
"t. c black",
"y. c black",
"u. c black",
/* pixels */
",.,.,.,.,.,.,.+.+.-.>.>.>.>.>.>.>.:.-.+.+.,.,.,.,.,.,.,.",
",.,.,.,.,.+.+.:.>.>.:.>.>.:.>.>.:.>.>.>.-.+.,.,.,.,.,.,.",
",.,.,.,.+.-.:.:.:.:.:.:.:.:.:.:.:.:.:.:.:.:.-.+.,.,.,.,.",
",.,.,.+.-.:.-.=.;.=.;.=.=.;.;.;.;.;.=.;.:.-.:.-.+.,.,.,.",
",.,.+.-.=.&.&.&.&.=.:.:.:.>.>.:.:.:.=.&.&.&.&.-.-.+.,.,.",
",.+.-.&.$.o.o.%.=.>.>.>.>.>.>.>.>.>.>.=.%.$.$.$.;.+.,.,.",
",.+.&...} } X.=.>.>.>.>.>.>.>.>.>.>.>.>.=.X.} } ..-.+.,.",
"+.#.L ` ' ' o.>.>.>.>.>.>.>.>.>.>.>.>.>.>.$.' ' ! ! #.,.",
"*.` v b L ` =.>.>.>.>.>.:.%.%.:.>.>.>.>.>.&.` L b t  .+.",
"*.V r r t F :.>.>.>.>.:.] P P | >.>.>.>.>.&.Z w q 5 K *.",
"@.a r r r B [ o.&.;.:.o.A C L o.>.>.>.>.>.| c 5 5 4 d #.",
"~ q 5 5 5 r x v n M S N t m ] >.>.>.>.>.>.Y q 4 5 2 w @.",
"K 5 5 5 5 5 4 5 2 5 2 q m | >.>.>.>.>.>.| c 2 2 2 2 4 ( ",
"C 4 4 4 2 2 2 2 2 2 4 N %.>.>.>.>.>.>.[ n 2 1 2 < < 1 ~ ",
"k 2 2 1 2 1 1 1 2 1 v X.>.>.>.>.>.;.T t < , < , 1 , , W ",
"J < < 1 < < 1 < < < D :.>.>.>.>.;.F 5 , > , > , > > > ( ",
"W , , , < , , , , 1 Y >.>.>.>.>.T 2 - > > - - > > > : ..",
" .3 > > > > > > - < Y =.=.=.=.%.M - - - - - - - = * 0 #.",
"*.u > - - = - - - , m G G G G G t - * * * * * * * * j -.",
"*.H - = = * = = * 2 T &.%.%.&.%.F * * * * * % * * ; / +.",
"+.+.0 % * * * % * < [ >.>.>.>.>.I * $ $ $ $ $ $ # i #.,.",
",.*.E = $ $ % % $ , [ >.>.>.>.>.I * $ $ # # # # : / +.,.",
",.+.*.j $ # # # # , [ >.>.>.>.>.I $ O # O O O + R -.,.,.",
",.,.+.+.p # O # O > ] :.;.:.;.;.F $ O O O O $ l #.+.,.,.",
",.,.,.+.+.g + O O # w s s s s s 4 O X O o @ H +.+.,.,.,.",
",.,.,.,.+.#.E 6 O   . o . . . . .     X 8 ^ -.+.,.,.,.,.",
",.,.,.,.,.+.+.O.z 8 @ X       . X & 9 R +.+.,.,.,.,.,.,.",
",.,.,.,.,.,.,.+.+.+./ H f y y h R  .-.+.+.,.,.,.,.,.,.,."
};
