/* XPM */
static char *help_dis[] = {
/* columns rows colors chars-per-pixel */
"28 28 137 2",
"   c #00259D",
".  c #052B9E",
"X  c #0026A1",
"o  c #0029A4",
"O  c #082DA0",
"+  c #002AAB",
"@  c #0B31A6",
"#  c #0C32A9",
"$  c #1C3FA7",
"%  c #183BA9",
"&  c #002CB3",
"*  c #002EBB",
"=  c #0C34B2",
"-  c #123AB4",
";  c #2044B3",
":  c #3252B3",
">  c #415EB6",
",  c #4662B8",
"<  c #506ABB",
"1  c #002FC3",
"2  c #002FCB",
"3  c #0031C4",
"4  c #0936C0",
"5  c #0032CB",
"6  c #093ACA",
"7  c #0033D2",
"8  c #0438D5",
"9  c #0035DA",
"0  c #063BDE",
"q  c #0B3FDB",
"w  c #023AE2",
"e  c #083EE1",
"r  c #1741C2",
"t  c #1443D3",
"y  c #1344DB",
"u  c #1748DC",
"i  c #3558C3",
"p  c #204FDD",
"a  c #2251DE",
"s  c #355EDA",
"d  c #0E42E4",
"f  c #0D44EB",
"g  c #164BEE",
"h  c #194EEB",
"j  c #1D50ED",
"k  c #1B53FB",
"l  c #2353E3",
"z  c #2054ED",
"x  c #2858E9",
"c  c #2B5CF1",
"v  c #3562E9",
"b  c #3E6BF1",
"n  c #4466CC",
"m  c #5975C8",
"M  c #5E78C8",
"N  c #627AC1",
"B  c #446CE5",
"V  c #5679E2",
"C  c #567BEC",
"Z  c #416DF3",
"A  c #4571F2",
"S  c #4973F0",
"D  c #527BF4",
"F  c #6F86CB",
"G  c #7288C8",
"H  c #788CCA",
"J  c #6F88D3",
"K  c #6281DE",
"L  c #7088D0",
"P  c #5C83F6",
"I  c #6281E0",
"U  c #6284EC",
"Y  c #6B8BEC",
"T  c #758FE0",
"R  c #7591E6",
"E  c #6489F8",
"W  c #688DFB",
"Q  c #7A9BFB",
"!  c #8296D1",
"~  c #95A5D5",
"^  c #93A6DF",
"/  c #9BAAD9",
"(  c #A0AEDA",
")  c #A2B0D9",
"_  c #809BED",
"`  c #829EF2",
"'  c #86A0EE",
"]  c #99ACE6",
"[  c #98ADED",
"{  c #83A0FA",
"}  c #8BA7FC",
"|  c #8DA9FD",
" . c #95ACF3",
".. c #97B1FD",
"X. c #9CB5FD",
"o. c #A2B1E0",
"O. c #A8B8E7",
"+. c #A8B9EB",
"@. c #A6BAF5",
"#. c #ABBDF5",
"$. c #AABEFA",
"%. c #B9C4E4",
"&. c #AFC3FD",
"*. c #B5C5F6",
"=. c #BCCAF4",
"-. c #B1C4FD",
";. c #BCCCFC",
":. c #C1CAE5",
">. c #C4CEEB",
",. c #CBD2E8",
"<. c #DBDFEC",
"1. c #C4CFF0",
"2. c #C0CEF8",
"3. c #C4D0F2",
"4. c #C4D3FE",
"5. c #CBD7FB",
"6. c #CDD9FD",
"7. c #D2DDFC",
"8. c #DBE1F3",
"9. c #D7E1FE",
"0. c #DCE4FD",
"q. c #E3E6EF",
"w. c gray92",
"e. c #E1E5F1",
"r. c #E7EAF3",
"t. c #ECEDF0",
"y. c #E0E7FB",
"u. c #E3EAFE",
"i. c #EAEFFD",
"p. c #EFF0F0",
"a. c #ECF1FE",
"s. c #F2F2F3",
"d. c #F4F6FE",
"f. c #F6F8FE",
"g. c #FEFEFE",
"h. c black",
"j. c None",
/* pixels */
"j.j.j.j.j.j.j.w.w.s.f.g.g.g.g.g.g.f.s.w.w.j.j.j.j.j.j.j.",
"j.j.j.j.j.w.w.f.f.f.f.f.f.f.f.f.f.f.f.g.s.w.j.j.j.j.j.j.",
"j.j.j.j.w.s.d.a.a.i.i.i.i.i.i.i.a.i.a.a.d.f.p.w.j.j.j.j.",
"j.j.j.w.s.i.0.0.0.0.0.0.y.0.0.0.0.0.0.0.0.y.i.s.w.j.j.j.",
"j.j.w.s.9.5.5.5.5.7.u.a.d.f.f.d.a.u.7.5.5.7.7.y.s.w.j.j.",
"j.w.s.7.*.=.*.;.9.f.g.g.g.g.g.g.g.g.f.9.2.=.=.2.y.w.j.j.",
"j.w.9.#.@.@.$.7.g.g.g.g.g.g.g.g.g.g.g.g.7.$.#.#.*.r.w.j.",
"w.8.U _  . .&.f.g.g.g.g.g.g.g.g.g.g.g.g.f.-. .[ ' _ r.j.",
"w. .0 l U Q 6.g.g.g.g.g.0.;.;.i.g.g.g.g.g.4.` Y p y =.w.",
"r.B 9 9 q A i.g.g.g.g.i.{ Y Y X.g.g.g.g.g.4.v q 7 7 T s.",
"3.u 9 9 7 g } &.4.0.a.&.C V D &.g.g.g.g.g...w 7 7 7 s e.",
"[ 8 8 7 7 9 w e f h c z q h { d.g.g.g.g.f.D 7 5 7 2 t 1.",
"R 7 7 7 7 5 7 5 7 5 7 7 g ..f.g.g.g.g.f.| q 5 5 5 5 6 +.",
"I 5 5 5 5 5 5 5 5 5 5 j &.g.g.g.g.g.f.} d 5 3 3 3 3 3 ] ",
"K 5 5 5 5 3 5 3 3 5 e X.g.g.g.g.g.u.E q 3 3 3 3 3 3 3 ] ",
"J 3 3 3 3 3 3 3 1 1 v a.g.g.g.g.9.Z 7 3 * 1 * 3 * * 4 O.",
"[ 4 3 3 * 3 * 3 1 1 P g.g.g.g.g.E 2 * * * * * * * & 6 >.",
"3.r * * * * * * * 3 D 5.5.5.5.4.x * & * * & * & & & i w.",
"r.n & * * * * & & * f k k k k k 0 * & & & & & & & & L s.",
"p.^ * & & & & & & 2 W 4.4.;.;.;.b & & + + & & + & - %.w.",
"w.8.i + & & & + + 1 } g.g.g.g.g.D & + + + + + + + m r.j.",
"j.w.o.= + + & + + 1 } g.g.g.g.f.D + + + + + + + ; >.w.j.",
"j.w.p.J O + + + + * } g.g.g.g.g.D + + o o + o # / t.j.j.",
"j.j.w.e.M o + o o * Q i.0.u.u.0.S +   o o   @ ! w.w.j.j.",
"j.j.j.w.q.F @ X o + t u a p p p 6 o o     % ~ r.w.j.j.j.",
"j.j.j.j.w.t./ : O     o               O , %.w.w.j.j.j.j.",
"j.j.j.j.j.w.w.<.~ > % .         . $ < ) q.w.j.j.j.j.j.j.",
"j.j.j.j.j.j.j.w.w.q.:.~ G N N H ( ,.t.w.w.j.j.j.j.j.j.j."
};
