/* XPM */
static char *help_sel[] = {
/* columns rows colors chars-per-pixel */
"32 32 128 2",
"   c #4F0A08",
".  c #550705",
"X  c #5C0606",
"o  c #560906",
"O  c #5C0A06",
"+  c #540D0A",
"@  c #4E110F",
"#  c #5B110C",
"$  c #4D1412",
"%  c #5F1B19",
"&  c #650706",
"*  c #6C0707",
"=  c #650906",
"-  c #6C0F05",
";  c #6F0708",
":  c #620F08",
">  c #6E0908",
",  c #710B0B",
"<  c #6B130E",
"1  c #741305",
"2  c #7A1505",
"3  c #74110D",
"4  c #7A1708",
"5  c #7D1C0C",
"6  c #770F10",
"7  c #6F1611",
"8  c #6E1912",
"9  c #741312",
"0  c #791211",
"q  c #751917",
"w  c #7A1917",
"e  c #761B1A",
"r  c #7A1B1A",
"t  c #7A201F",
"y  c #4D2826",
"u  c #502B29",
"i  c #772122",
"p  c #7A2524",
"a  c #762A24",
"s  c #7A2925",
"d  c #7A2728",
"f  c #7B2C2A",
"g  c #76332F",
"h  c #7B322C",
"j  c #7C3534",
"k  c #7C3935",
"l  c #7C3C3B",
"z  c #7C4039",
"x  c #574947",
"c  c #5F5150",
"v  c gray37",
"b  c #7D4544",
"n  c #7C4945",
"m  c #7F4C4A",
"M  c #7E5655",
"N  c gray39",
"B  c DimGray",
"V  c gray46",
"C  c #7C7C7C",
"Z  c #802F24",
"A  c #85362C",
"S  c #8C382A",
"D  c #813332",
"F  c #813A36",
"G  c #833D3C",
"H  c #84423C",
"J  c #844645",
"K  c #844E4E",
"L  c #83504F",
"P  c #94544D",
"I  c #855150",
"U  c #8B5C5B",
"Y  c #945C57",
"T  c #89605F",
"R  c #A26156",
"E  c #A3635B",
"W  c #8B6565",
"Q  c #8B6866",
"!  c #8D6D6C",
"~  c #8F7472",
"^  c #907574",
"/  c #927D7B",
"(  c #B27E77",
")  c #808080",
"_  c gray55",
"`  c #948685",
"'  c #96908F",
"]  c #989795",
"[  c #989898",
"{  c #B78C87",
"}  c #B6918C",
"|  c #B8938E",
" . c #B79B98",
".. c #A5A5A5",
"X. c #A9A9A9",
"o. c gray",
"O. c #C4A4A0",
"+. c #C2AFAE",
"@. c #C8ABA9",
"#. c #CBB1AE",
"$. c #CEB5B4",
"%. c #CCBDBC",
"&. c #D1BBB6",
"*. c gray77",
"=. c #CACACA",
"-. c #D6C4C4",
";. c #D6CBCA",
":. c #DACBCB",
">. c #D7D7D7",
",. c #E1D7D7",
"<. c #E2DCDC",
"1. c #E7E5E5",
"2. c #E9E6E6",
"3. c gray91",
"4. c None",
"5. c black",
"6. c black",
"7. c black",
"8. c black",
"9. c black",
"0. c black",
"q. c black",
"w. c black",
"e. c black",
"r. c black",
"t. c black",
"y. c black",
"u. c black",
/* pixels */
"4.4.4.4.4.4.4.4.4.4.4.4.4.4.4.4.4.4.4.4.4.4.4.4.4.4.4.4.4.4.4.4.",
"4.4.4.4.4.4.4.4.4.4.4.4.4.4.4.4.4.4.4.4.4.4.4.4.4.4.4.4.4.4.4.4.",
"4.4.4.4.4.4.4.4.4.4.4.4.4.4.4.<.<.4.4.4.4.4.4.4.4.4.4.4.4.4.4.4.",
"4.4.4.4.4.4.4.4.4.4.<.( S 5 4 4 4 2 5 S ( <.4.4.4.4.4.4.4.4.4.4.",
"4.4.4.4.4.4.4.4.1.E 4 s l m I M M M K l s 4 R 1.4.4.4.4.4.4.4.4.",
"4.4.4.4.4.4.4.&.5 f b m b b b l G l b b m b h 5 &.4.4.4.4.4.4.4.",
"4.4.4.4.4.4.{ 1 j b l l h h f f f f f j k G n j 1 { 4.4.4.4.4.4.",
"4.4.4.4.4.O.1 k j j D f Z f G J J F f Z f f l l k 1 O.4.4.4.4.4.",
"4.4.4.4.:.4 g k j f f K ~ ] ] ] [ [ ' U Z Z 6 Z f h 1 ;.4.4.4.4.",
"4.4.4.4.A a h f d f f / [ [ ] ] [ [ [ [ ! , Z 0 r f a A 4.4.4.4.",
"4.4.4.#.- h f f f f f ! Q J f f D ~ [ ' ' Y 0 0 0 w h 1 @.4.4.4.",
"4.4.4.Z a p f d p d f f f f f f r Z [ [ ' ~ 0 0 0 0 r a Z 4.4.4.",
"4.4.1.- p p p p f f f f f f f f 6 6 [ [ ] W 0 0 0 3 0 p - 1.4.4.",
"2.2.} 8 e p s d f f f f s f d w 6 J ] [ ] D 0 0 6 0 0 w 8 | 4.4.",
",.:.P 8 w i i d f s f f f p w w Z ` ] ] K 3 0 0 0 6 6 0 q Y 4.4.",
"-.$.A 7 e e i d s f s f f r w 0 W [ [ J 0 0 6 0 0 , 3 , 7 H 4.4.",
"-.$.h 7 q e e p d f d d p 0 3 W ' [ J Z 0 0 , , , , , , 9 k 4.4.",
",.:.F 7 0 e e e i p f d r 0 G ] [ ^ , ; , > , , , , ; 6 7 H 4.4.",
"2.1.Y < , e e q q e i d i 0 ` ] [ D ; ; > > > , ; , , , < Y 4.4.",
"4.4. .: , 9 9 9 q , 6 9 0 Z [ [ [ Z ; ; > > > > , > , , :  .4.4.",
"4.4.1.O , 3 9 7 , , > > > e I I K e ; > > > > > > , , , O 1.4.4.",
"4.4.4.g : , 3 6 , , > > * ; > > ; ; > ; > > , > , , , : g 4.4.4.",
"4.4.4.%.o > , , , > > > > e K K K e ; ; ; > , , , > > o %.4.4.4.",
"4.4.4.4.l : > > , , > , > a [ ] ] d ; ; > > > , , , = l 4.4.4.4.",
"4.4.4.4.<.# & > > > > > > j [ [ [ g > > > > > > * & # <.4.4.4.4.",
"4.4.4.4.4.%.o = > ; > > ; e L K K e > > > > > , = o %.4.4.4.4.4.",
"4.4.4.4.4.4.+.+ X ; ; ; ; ; ; ; * * ; ; ; ; ; X + +.4.4.4.4.4.4.",
"4.4.4.4.4.4.4.;.% . & * * * * * * * * ; > & o % ;.4.4.4.4.4.4.4.",
"4.4.4.4.4.4.3.>.=.Q + . X & * ; ; & & & . + Q =.>.3.4.4.4.4.4.4.",
"4.4.4.4.4.4.o.X..._ V c u $ $   . $ $ y x V [ ..X.o.4.4.4.4.4.4.",
"4.4.4.4.4.4.4.4.1.*.C v v N N N N N N v v V *.3.4.4.4.4.4.4.4.4.",
"4.4.4.4.4.4.4.4.3.*.) B B B N N N B B B V _ =.3.4.4.4.4.4.4.4.4."
};
