/* XPM */
static char *help[] = {
/* columns rows colors chars-per-pixel */
"28 44 158 2",
"   c black",
".  c #0B0B0B",
"X  c #111111",
"o  c gray11",
"O  c #232323",
"+  c #323232",
"@  c #393939",
"#  c gray26",
"$  c #4C4C4C",
"%  c #515151",
"&  c gray35",
"*  c #6F6F6F",
"=  c #717171",
"-  c #00259D",
";  c #052B9E",
":  c #0026A1",
">  c #0029A4",
",  c #082DA0",
"<  c #002AAB",
"1  c #0B31A6",
"2  c #0C32A9",
"3  c #1539A5",
"4  c #1C3FA7",
"5  c #183BA9",
"6  c #002CB3",
"7  c #002EBB",
"8  c #0C34B2",
"9  c #123AB4",
"0  c #2044B3",
"q  c #3252B3",
"w  c #4662B8",
"e  c #506ABB",
"r  c #002FC3",
"t  c #002FCB",
"y  c #0031C4",
"u  c #0936C0",
"i  c #0032CB",
"p  c #093ACA",
"a  c #0033D2",
"s  c #0438D5",
"d  c #0B3ED7",
"f  c #0035DA",
"g  c #063BDE",
"h  c #023AE2",
"j  c #083EE1",
"k  c #1741C2",
"l  c #1443D3",
"z  c #1344DB",
"x  c #1748DC",
"c  c #3558C3",
"v  c #204FDD",
"b  c #2251DE",
"n  c #355EDA",
"m  c #0E42E4",
"M  c #0D44EB",
"N  c #164BEE",
"B  c #194EEB",
"V  c #1D50ED",
"C  c #1B53FB",
"Z  c #2353E3",
"A  c #2858E9",
"S  c #2B5CF1",
"D  c #3562E9",
"F  c #4466CC",
"G  c #5975C8",
"H  c #627AC1",
"J  c #446CE5",
"K  c #5679E2",
"L  c #567BEC",
"P  c #416DF3",
"I  c #4571F2",
"U  c #4973F0",
"Y  c #527BF4",
"T  c #6F86CB",
"R  c #7288C8",
"E  c #788CCA",
"W  c #6F88D3",
"Q  c #6281DE",
"!  c #7088D0",
"~  c #5C83F6",
"^  c #6281E0",
"/  c #6284EC",
"(  c #6B8BEC",
")  c #758FE0",
"_  c #7591E6",
"`  c #6489F8",
"'  c #688DFB",
"]  c #7A9BFB",
"[  c gray51",
"{  c gray54",
"}  c gray61",
"|  c #A9A9A9",
" . c #B7B7B7",
".. c #BBBBBB",
"X. c #8296D1",
"o. c #95A5D5",
"O. c #93A6DF",
"+. c #9BAAD9",
"@. c #A0AEDA",
"#. c #809BED",
"$. c #829EF2",
"%. c #86A0EE",
"&. c #99ACE6",
"*. c #93AAEF",
"=. c #98ADED",
"-. c #83A0FA",
";. c #8BA7FC",
":. c #8DA9FD",
">. c #95ACF3",
",. c #97B1FD",
"<. c #9CB5FD",
"1. c #A2B1E0",
"2. c #A8B8E7",
"3. c #A8B9EB",
"4. c #A6BAF5",
"5. c #ABBDF5",
"6. c #AABEFA",
"7. c #B9C4E4",
"8. c #AFC3FD",
"9. c #B5C5F6",
"0. c #BCCAF4",
"q. c #B1C4FD",
"w. c #BCCCFC",
"e. c #CDCDCD",
"r. c #D5D5D5",
"t. c #DDDDDD",
"y. c #C1CAE5",
"u. c #C4CEEB",
"i. c #CBD2E8",
"p. c #DBDFEC",
"a. c #C4CFF0",
"s. c #C0CEF8",
"d. c #C4D0F2",
"f. c #C4D3FE",
"g. c #CBD7FB",
"h. c #CDD9FD",
"j. c #D2DDFC",
"k. c #DCE1EF",
"l. c #DBE1F3",
"z. c #D7E1FE",
"x. c #DCE4FD",
"c. c #E2E2E2",
"v. c #E3E6EF",
"b. c gray92",
"n. c #E1E5F1",
"m. c #E7EAF3",
"M. c #ECEDF0",
"N. c #E0E7FB",
"B. c #E3EAFE",
"V. c #EAEFFD",
"C. c #EFF0F0",
"Z. c #ECF1FE",
"A. c #F2F2F3",
"S. c #F4F6FE",
"D. c #F6F8FE",
"F. c #FEFEFE",
"G. c black",
"H. c None",
/* pixels */
"H.H.H.H.H.H.H.b.b.A.F.F.F.F.F.F.F.D.A.C.b.H.H.H.H.H.H.H.",
"H.H.H.H.H.b.b.A.S.S.D.D.D.S.D.D.S.D.D.D.A.C.H.H.H.H.H.H.",
"H.H.H.H.b.A.S.Z.V.V.V.V.V.Z.V.Z.V.V.Z.Z.Z.A.b.b.H.H.H.H.",
"H.H.H.b.A.V.x.x.x.x.x.x.x.x.x.N.x.x.N.x.x.B.Z.A.b.H.H.H.",
"H.H.b.A.x.g.g.g.g.j.B.Z.S.D.D.Z.Z.B.j.g.h.h.j.B.A.b.H.H.",
"H.b.M.j.9.w.9.w.x.S.F.F.F.F.F.F.F.F.S.z.s.0.0.s.N.M.H.H.",
"H.b.j.5.4.4.6.j.F.F.F.F.F.F.F.F.F.F.F.F.j.8.5.5.9.m.b.H.",
"b.l./ $.>.>.q.D.F.F.F.F.F.F.F.F.F.F.F.F.D.q.=.=.%.#.M.H.",
"C.*.g Z / ] j.F.F.F.F.F.B.w.w.V.F.F.F.F.F.f.$.( b z 0.b.",
"m.J f f m I m.F.F.F.F.V.$.( ( <.F.F.F.F.F.f.D d a a ) C.",
"d.x f f f N :.8.f.x.V.8.L K Y 6.F.F.F.F.F.,.h a a a n N.",
"=.s a a a f h j M V S V z B -.S.F.F.F.F.S.Y a i a i l u.",
"_ a a a i a i a i i a a N ,.D.F.F.F.F.F.:.j i i i i p 3.",
"^ i i i i i i i i i i V q.F.F.F.F.F.S.;.m i y y y y i &.",
"Q i i i i y i y i y j <.F.F.F.F.F.B.` g y y y y y y u &.",
") y r y y y y y y r D Z.F.F.F.F.x.P a 7 7 y 7 7 7 7 7 2.",
"&.u y y y y 7 y r t ~ F.F.F.F.F.` t 7 7 7 7 7 7 7 7 p i.",
"a.k 7 7 7 7 7 7 7 r Y h.h.h.h.w.A 7 6 7 6 7 6 7 6 6 c n.",
"m.F 7 6 6 7 7 6 6 7 M C C C C C h 6 6 6 6 6 6 6 6 6 W C.",
"b.O.7 6 6 6 6 6 6 y ' f.f.w.w.w.P 6 6 6 6 < 6 < < 9 7.b.",
"b.k.c < 6 6 6 6 6 r ;.F.F.F.F.D.Y 6 < < < < < < < G M.H.",
"H.C.1.8 < < < < < r ;.F.F.F.F.F.Y 6 > < < < < < 0 i.b.H.",
"H.b.M.! 6 < < < < 7 ;.F.F.F.F.F.Y < > < > > > 2 o.C.H.H.",
"H.H.b.n.H > > > > 7 ] B.B.B.x.x.U < > : > : 1 X.M.b.H.H.",
"H.H.H.b.v.T 1 > : < l v v v b v p : : - - 5 o.m.b.H.H.H.",
"H.H.H.H.b.b.+.q ; ; : : : : - - ; - - , w 7.b.b.H.H.H.H.",
"H.H.H.H.H.b.C.p.o.q 3 ; - - - - ; 4 e @.v.b.H.H.H.H.H.H.",
"H.H.H.H.H.H.H.b.C.m.y.o.R H H E +.i.M.b.b.H.H.H.H.H.H.H.",
"H.H.H.H.H.H.H.H.H.H.H.H.H.H.H.H.H.H.H.H.H.H.H.H.H.H.H.H.",
"H.H.H.H.H.H.H.H.H.H.H.H.H.H.H.H.H.H.H.H.H.H.H.H.H.H.H.H.",
"H.H.H.H.H.H.H.H.H.H.H.H.H.H.H.H.H.H.H.H.H.H.H.H.H.H.H.H.",
"H.H.H.H.H.H.H.H.H.H.H.H.H.H.H.H.H.H.H.H.H.H.H.H.H.H.H.H.",
"H.H.H.  H.H.H.H.  H.H.H.H.H.H.H.H.H.  H.H.H.H.H.H.H.H.H.",
"H.H.H.  H.H.H.H.  H.H.H.H.H.H.H.H.H.  H.H.H.H.H.H.H.H.H.",
"H.H.H.  H.H.H.H.  H.H.r.# . O ..H.H.  H.H.  { . o  .H.H.",
"H.H.H.            H.H.$ | c.| + H.H.  H.H.  [ t.{ @ H.H.",
"H.H.H.  H.H.H.H.  H.H..         H.H.  H.H.  H.H.t.. H.H.",
"H.H.H.  H.H.H.H.  H.H.X t.H.H.H.H.H.  H.H.  H.H.r.. H.H.",
"H.H.H.  H.H.H.H.  H.H.& % r.c. .H.H.  H.H.  } t.= $ H.H.",
"H.H.H.  H.H.H.H.  H.H.t.& . . @ H.H.  H.H.  * . + e.H.H.",
"H.H.H.H.H.H.H.H.H.H.H.H.H.H.H.H.H.H.H.H.H.  H.H.H.H.H.H.",
"H.H.H.H.H.H.H.H.H.H.H.H.H.H.H.H.H.H.H.H.H.  H.H.H.H.H.H.",
"H.H.H.H.H.H.H.H.H.H.H.H.H.H.H.H.H.H.H.H.H.H.H.H.H.H.H.H.",
"H.H.H.H.H.H.H.H.H.H.H.H.H.H.H.H.H.H.H.H.H.H.H.H.H.H.H.H."
};
