/* XPM */
static char *help_dis_sel[] = {
/* columns rows colors chars-per-pixel */
"28 28 128 2",
"   c #00175E",
".  c #031A5F",
"X  c #001760",
"o  c #011964",
"O  c #081E66",
"+  c #001B6C",
"@  c #001D74",
"#  c #001E7B",
"$  c #0E2364",
"%  c #09216C",
"&  c #112664",
"*  c #14296C",
"=  c #1E326C",
"-  c #052173",
";  c #0E2773",
":  c #0E2876",
">  c #03217D",
",  c #0E297E",
"<  c #27396E",
"1  c #2A3B6F",
"2  c #203576",
"3  c #293D7B",
"4  c #2F4070",
"5  c #3B4974",
"6  c #354678",
"7  c #384878",
"8  c #42507C",
"9  c #485579",
"0  c #4C587D",
"q  c #535E7F",
"w  c #001F81",
"e  c #032384",
"r  c #082683",
"t  c #0C2A83",
"y  c #032489",
"u  c #0A2B8D",
"i  c #102F8D",
"p  c #143085",
"a  c #14328C",
"s  c #18358C",
"d  c #0E2E90",
"f  c #113297",
"g  c #1A3891",
"h  c #203983",
"j  c #203B8C",
"k  c #203C90",
"l  c #29418A",
"z  c #3B4E86",
"x  c #344A8C",
"c  c #3A4F8E",
"v  c #3E518C",
"b  c #264191",
"n  c #2B4591",
"m  c #334B93",
"M  c #3D5396",
"N  c #465687",
"B  c #42558C",
"V  c #4D5D8E",
"C  c #4D5F93",
"Z  c #556186",
"A  c #5B6582",
"S  c #5E6887",
"D  c #51608F",
"F  c #5B678C",
"G  c #4F6195",
"H  c #4E6198",
"J  c #546496",
"K  c #586792",
"L  c #5B6991",
"P  c #556698",
"I  c #5C6C98",
"U  c #636D8D",
"Y  c #6E758C",
"T  c #73798B",
"R  c #7A7F8F",
"E  c #606D97",
"W  c #667194",
"Q  c #6C7695",
"!  c #6F7995",
"~  c #667398",
"^  c #6A7699",
"/  c #6F7998",
"(  c #737B94",
")  c #737C99",
"_  c #7C8297",
"`  c #778099",
"'  c #7D8499",
"]  c #828797",
"[  c #858997",
"{  c #828799",
"}  c #858A98",
"|  c #8A8E99",
" . c #8E9099",
".. c #949599",
"X. c #979899",
"o. c gray60",
"O. c #8E93A2",
"+. c #9396A1",
"@. c #9799A1",
"#. c #9B9DA4",
"$. c #9DA0A6",
"%. c #9DA0A8",
"&. c #A3A4A6",
"*. c #A6A7A9",
"=. c #AAABAD",
"-. c #ACADB1",
";. c #B1B1B2",
":. c #BBBBBC",
">. c #C1C1C1",
",. c #C7C8C8",
"<. c #CACACA",
"1. c #D2D2D2",
"2. c gray86",
"3. c #E4E4E4",
"4. c #E9E9E9",
"5. c None",
"6. c black",
"7. c black",
"8. c black",
"9. c black",
"0. c black",
"q. c black",
"w. c black",
"e. c black",
"r. c black",
"t. c black",
"y. c black",
"u. c black",
/* pixels */
"5.5.5.5.5.5.5.4.,.*.o.o...o.o.o.o.o.=.1.4.5.5.5.5.5.5.5.",
"5.5.5.5.5.4.<.&.....................o.X.=.1.5.5.5.5.5.5.",
"5.5.5.5.3.-...|  . . . . . . . . . . . ...X.:.4.5.5.5.5.",
"5.5.5.3.&.| } ] [ [ ] [ [ [ [ [ [ [ [ | ] [ ..-.4.5.5.5.",
"5.5.3.&.[ _ _ _ _ _ [  ...........[ ] ) _ _ _ | ;.4.5.5.",
"5.4.-.] ! ! ! ( [ ..o.o...o.o.o.o.o...] ( ( ( ( [ >.5.5.",
"5.<.] W E W W ' ..o.o.o.o.o.o.o.o.o.o.X.] E W W !  .2.5.",
"4.O.c C F K ^ ..o.o.o.o.o.o.o.o.o.o.o.o...Q K L D V -.5.",
"<.J e a M C ' o.o.o.o.o.| / / | o.o.o.o.o.) C B a r ( 2.",
"#.l w w e n | o.o.o.o.| C B B I X.o.o.o.o.) j r # # B :.",
") t w e w u P ^ ) [  .^ x x m ~ o.o.o.o.o.I y # # w h +.",
"F r > w > e e y u i s s r d H ..o.o.o.o.X.m w # # # , ( ",
"N w # w # # # # # # # w u I ..o.o.o.o...K y # # # # > U ",
"z # # # # # # # # # # a / o.o.o.o.o...P u # @ @ @ # @ U ",
"z # # # # # @ # # @ y E o.o.o.o.o.| M e @ @ @ @ @ @ @ F ",
"N @ @ @ @ # @ @ # @ k  .o.o.o.o.{ b # @ @ @ @ @ @ @ - U ",
"F - @ @ @ @ @ @ @ @ m o.o.o.o.o.B w @ + @ @ @ + @ + ; ( ",
"( : @ @ @ + + @ @ @ m ) ' { ) ) s @ + + + + @ + + @ 2 +.",
"$.3 + @ + @ @ + @ @ u f f f f f y + + + + + + + + o 8 :.",
"<.Z + + + + + + + # B ) ) ) ) / k @ + + + + o + o % ! 2.",
"4...2 o + + + + + @ J X.o.o.o...m + o o o o o + + 6 =.5.",
"5.<.U - o o + o + @ J X.o.o.o.X.m @ o o o o o + * T 2.5.",
"5.4.-.7 o o o o o @ P X.o.o.o...m + o o o o X O A >.5.5.",
"5.5.3.#.7 o o o o @ C | | | | | k o o X X X O 0 ;.4.5.5.",
"5.5.5.3.@.8 O X X o t t p p p t : X X X   & q =.4.5.5.5.",
"5.5.5.5.3.=.A = X X . o         X X   o < Y :.3.5.5.5.5.",
"5.5.5.5.5.4.<.| q 1 $ .           & 1 U &.2.5.5.5.5.5.5.",
"5.5.5.5.5.5.5.4.,.#.T q 9 5 5 9 q R &.1.4.5.5.5.5.5.5.5."
};
