/* XPM */
static char *help[] = {
/* columns rows colors chars-per-pixel */
"32 32 256 2",
"   c #8D0B08",
".  c #940C0A",
"X  c #9F0B0A",
"o  c #83100E",
"O  c #991A11",
"+  c #961E1A",
"@  c #A50D0A",
"#  c #AB0B0A",
"$  c #B60B0C",
"%  c #B80D0E",
"&  c #AC120C",
"*  c #A4190E",
"=  c #B9110F",
"-  c #BB1D0A",
";  c #AD1E15",
":  c #B71110",
">  c #BC1211",
",  c #BE1A17",
"<  c #BE1D1B",
"1  c #97211C",
"2  c #A02319",
"3  c #B72312",
"4  c #B52119",
"5  c #B9251D",
"6  c #B72A1B",
"7  c #972C28",
"8  c #92312D",
"9  c #903432",
"0  c #923D3A",
"q  c #B82920",
"w  c #A03832",
"e  c #CB1F07",
"r  c #C21515",
"t  c #C51817",
"y  c #C51C1B",
"u  c #CA1D1C",
"i  c #CB270D",
"p  c #C62912",
"a  c #C3251F",
"s  c #CA201D",
"d  c #C82F18",
"f  c #CD361D",
"g  c #C22422",
"h  c #CB2423",
"j  c #C32926",
"k  c #CC2A26",
"l  c #C32B2B",
"z  c #CB2C2B",
"x  c #D02D2A",
"c  c #C43824",
"v  c #C7312F",
"b  c #CB302F",
"n  c #C63333",
"m  c #CB3533",
"M  c #C93937",
"N  c #C73939",
"B  c #CB3D3B",
"V  c #D1452F",
"C  c #CB4735",
"Z  c #CF4832",
"A  c #C44239",
"S  c #C64A3F",
"D  c #CC3F40",
"F  c #A54D4A",
"G  c #A5504C",
"H  c #A16D6B",
"J  c #BB6E69",
"K  c #A1706D",
"L  c #BB7873",
"P  c #CD4442",
"I  c #C54A40",
"U  c #CD4946",
"Y  c #CB4B49",
"T  c #D14746",
"R  c #D04947",
"E  c #D04C4B",
"W  c #CB5444",
"Q  c #CC514C",
"!  c #CC594E",
"~  c #CF5051",
"^  c #CC5C56",
"/  c #CF5B5B",
"(  c #D25653",
")  c #D35D5A",
"_  c #CF605F",
"`  c #CD6A5D",
"'  c #C76C64",
"]  c #D26463",
"[  c #DB6361",
"{  c #D16B6A",
"}  c #D96968",
"|  c #C6776F",
" . c #CA7069",
".. c #D47363",
"X. c #C77771",
"o. c #CD7772",
"O. c #CC7B74",
"+. c #C77F78",
"@. c #D07473",
"#. c #DC7472",
"$. c #D37E7C",
"%. c #DD7E7D",
"&. c #E07F7E",
"*. c #D2807A",
"=. c #BF9D9C",
"-. c #B2A09F",
";. c #DA8483",
":. c #D28E87",
">. c #D28F8E",
",. c #CD948E",
"<. c #D1908D",
"1. c #DE9A8E",
"2. c #CC9490",
"3. c #D29690",
"4. c #DD9B92",
"5. c #E79A98",
"6. c #C0A09F",
"7. c #E5A09F",
"8. c #DDBBB6",
"9. c #E9A7A5",
"0. c #E1AEA7",
"q. c #EAA8A7",
"w. c #E8ADAA",
"e. c #E0B7B2",
"r. c #EDB6B4",
"t. c #EBB8B6",
"y. c #EEBEBC",
"u. c #DAC0BD",
"i. c #DCCBCA",
"p. c #D6D5D5",
"a. c #D8D7D7",
"s. c #DBDADA",
"d. c #E3C6C2",
"f. c #EEC3C1",
"g. c #E3C9C7",
"h. c #E4CDCA",
"j. c #F0C3C1",
"k. c #F1CECC",
"l. c #E6D2CE",
"z. c #F4D2CF",
"x. c #E0D3D2",
"c. c #E7D8D7",
"v. c #E4DBD9",
"b. c #F7DFDD",
"n. c #E5E4E4",
"m. c #E9E6E6",
"M. c #E9E9E9",
"N. c #FAF0EE",
"B. c #FDFBF9",
"V. c None",
"C. c black",
"Z. c black",
"A. c black",
"S. c black",
"D. c black",
"F. c black",
"G. c black",
"H. c black",
"J. c black",
"K. c black",
"L. c black",
"P. c black",
"I. c black",
"U. c black",
"Y. c black",
"T. c black",
"R. c black",
"E. c black",
"W. c black",
"Q. c black",
"!. c black",
"~. c black",
"^. c black",
"/. c black",
"(. c black",
"). c black",
"_. c black",
"`. c black",
"'. c black",
"]. c black",
"[. c black",
"{. c black",
"}. c black",
"|. c black",
" X c black",
".X c black",
"XX c black",
"oX c black",
"OX c black",
"+X c black",
"@X c black",
"#X c black",
"$X c black",
"%X c black",
"&X c black",
"*X c black",
"=X c black",
"-X c black",
";X c black",
":X c black",
">X c black",
",X c black",
"<X c black",
"1X c black",
"2X c black",
"3X c black",
"4X c black",
"5X c black",
"6X c black",
"7X c black",
"8X c black",
"9X c black",
"0X c black",
"qX c black",
"wX c black",
"eX c black",
"rX c black",
"tX c black",
"yX c black",
"uX c black",
"iX c black",
"pX c black",
"aX c black",
"sX c black",
"dX c black",
"fX c black",
"gX c black",
"hX c black",
"jX c black",
"kX c black",
"lX c black",
"zX c black",
"xX c black",
"cX c black",
"vX c black",
"bX c black",
"nX c black",
"mX c black",
"MX c black",
"NX c black",
"BX c black",
"VX c black",
"CX c black",
"ZX c black",
"AX c black",
"SX c black",
"DX c black",
"FX c black",
"GX c black",
"HX c black",
"JX c black",
"KX c black",
"LX c black",
"PX c black",
"IX c black",
"UX c black",
/* pixels */
"V.V.V.V.V.V.V.V.V.V.V.V.V.V.V.V.V.V.V.V.V.V.V.V.V.V.V.V.V.V.V.V.",
"V.V.V.V.V.V.V.V.V.V.V.V.V.V.V.n.m.V.V.V.V.V.V.V.V.V.V.V.V.V.V.V.",
"V.V.V.V.V.V.V.V.V.V.n.0...V e i i e V ..0.m.V.V.V.V.V.V.V.V.V.V.",
"V.V.V.V.V.V.V.V.m.4.f C ..$.>.>.<.<.*.` C f 4.m.V.V.V.V.V.V.V.V.",
"V.V.V.V.V.V.V.l.V W o.$.@.{ ] ] ] ] { @.*.O.W V l.V.V.V.V.V.V.V.",
"V.V.V.V.V.V.8.f ! @.] ) ( E R Y T E E ( ) { @.^ d e.V.V.V.V.V.V.",
"V.V.V.V.V.d.p ^ _ / E R R T } #.&.) T T R E ) { ^ p d.V.V.V.V.V.",
"V.V.V.V.v.c Y ^ ~ U U %.f.B.B.B.B.B.N.5.R z k z Y Q c c.V.V.V.V.",
"V.V.V.V. .S Q Q U R U z.B.B.B.B.B.B.B.B.z.x u u k U I ..V.V.V.V.",
"V.V.V.h.- ~ Y R U P U t.w.#.U U ) y.B.B.B.5.u u s k Y - g.V.V.V.",
"V.V.V.` A B P P S P U U U U T P N B B.B.B.j.u u u s b A ` V.V.V.",
"V.V.m.3 B N D B P U U U Y T Y Y s u B.B.B.9.u u u u s A 3 M.V.V.",
"V.V.8.6 z B B P U U U U P U T k u #.B.B.B.( u s u y y z 6 8.V.V.",
"V.V.:.q j N N D P T T P T C k h x b.B.B.&.u u u u y r y q 3.V.V.",
"V.V. .5 j n n P P P S P Y z h s r.B.B.&.u u u y t r t t 5 O.V.V.",
"V.V.' 5 j z n B T U T P B h u q.B.B.&.u y y r r % r > r 5 X.V.V.",
"V.V.X.4 s l z l N T Y D b u [ B.B.j.r r r = = = = r r r ; O.V.V.",
"V.V.,.; y j q j j q n D m h b.B.B.( = % % % % % = % = r ; <.V.V.",
"V.V.u.; > g g g g > , y g T B.B.B.Y % % = % % = = % r r * u.V.V.",
"V.V.M.1 > < < < y > : % % z ;.;.;.l % % % % % = = r % = 2 M.V.V.",
"V.V.V.J & > < < > > : % % $ % : $ % % % % % = > r = % & J V.V.V.",
"V.V.V.x.O = > > : > % % $ l ;.;.;.q % % % : = > % > : O x.V.V.V.",
"V.V.V.V.L @ = > : > % % % Y B.B.B.Y $ : : > = = = = @ L V.V.V.V.",
"V.V.V.V.n.w # : : : : > % Y B.B.B.~ % : : : = = = # w n.V.V.V.V.",
"V.V.V.V.V.x.1 @ : : : % % l ;.;.;.l % % % % % % @ 1 x.V.V.V.V.V.",
"V.V.V.V.V.V.i.7 X : % % % % $ % % $ $ $ % % % X 7 i.V.V.V.V.V.V.",
"V.V.V.V.V.V.V.v.G   @ % $ $ $ % $ $ $ $ $ # . F v.V.V.V.V.V.V.V.",
"V.V.V.V.V.V.m.n.s.2.9   X # # $ $ $ # X   8 =.s.n.m.V.V.V.V.V.V.",
"V.V.V.V.V.V.V.V.V.V.V.V.K 0 9 o o 9 0 H -.V.V.V.V.V.V.V.V.V.V.V.",
"V.V.V.V.V.V.V.V.M.n.m.n.n.M.m.M.m.n.n.m.m.m.M.M.V.V.V.V.V.V.V.V.",
"V.V.V.V.V.V.V.V.M.s.p.s.s.s.s.s.s.a.p.a.p.p.s.n.M.V.V.V.V.V.V.V.",
"V.V.V.V.V.V.V.V.M.n.s.n.n.s.s.s.s.p.p.p.p.p.p.a.m.V.V.V.V.V.V.V."
};
