/* XPM */
static char *help[] = {
/* columns rows colors chars-per-pixel */
"32 32 256 2",
"   c #8D0B08",
".  c #940C0A",
"X  c #9F0B0A",
"o  c #83100E",
"O  c #991A11",
"+  c #961E1A",
"@  c #A50D0A",
"#  c #AB0B0A",
"$  c #B60B0C",
"%  c #B80D0E",
"&  c #AC120C",
"*  c #A4190E",
"=  c #B9110F",
"-  c #BB1D0A",
";  c #AD1E15",
":  c #B71110",
">  c #BC1211",
",  c #BE1A17",
"<  c #BE1D1B",
"1  c #97211C",
"2  c #A02319",
"3  c #B72312",
"4  c #B52119",
"5  c #B9251D",
"6  c #B72A1B",
"7  c #882927",
"8  c #872B29",
"9  c #972C28",
"0  c #8A322E",
"q  c #93312C",
"w  c #873432",
"e  c #B82920",
"r  c #A03832",
"t  c #CB1F07",
"y  c #C21515",
"u  c #C51817",
"i  c #C51C1B",
"p  c #CA1D1C",
"a  c #CB270D",
"s  c #C62912",
"d  c #C3251F",
"f  c #CA201D",
"g  c #C82F18",
"h  c #CD361D",
"j  c #C22422",
"k  c #CB2423",
"l  c #C32926",
"z  c #CC2A26",
"x  c #C32B2B",
"c  c #CB2C2B",
"v  c #D02D2A",
"b  c #C43824",
"n  c #C7312F",
"m  c #CB302F",
"M  c #C63333",
"N  c #CB3533",
"B  c #C93937",
"V  c #C73939",
"C  c #CB3D3B",
"Z  c #D1452F",
"A  c #CB4735",
"S  c #CF4832",
"D  c #C44239",
"F  c #C64A3F",
"G  c #CC3F40",
"H  c #8C5855",
"J  c #A54D4A",
"K  c #A5504C",
"L  c #92605D",
"P  c #BB6E69",
"I  c #BB7873",
"U  c #CD4442",
"Y  c #C54A40",
"T  c #CD4946",
"R  c #CB4B49",
"E  c #D14746",
"W  c #D04947",
"Q  c #D04C4B",
"!  c #CB5444",
"~  c #CC514C",
"^  c #CC594E",
"/  c #CF5051",
"(  c #CC5C56",
")  c #CF5B5B",
"_  c #D25653",
"`  c #D35D5A",
"'  c #CF605F",
"]  c #CD6A5D",
"[  c #C76C64",
"{  c #D26463",
"}  c #DB6361",
"|  c #D16B6A",
" . c #D96968",
".. c #C6776F",
"X. c #CA7069",
"o. c #D47363",
"O. c #C77771",
"+. c #CD7772",
"@. c #CC7B74",
"#. c #C77F78",
"$. c #D07473",
"%. c #DC7472",
"&. c #D37E7C",
"*. c #DD7E7D",
"=. c #E07F7E",
"-. c #D2807A",
";. c #9A8886",
":. c #A1918F",
">. c #BE9C9C",
",. c gray65",
"<. c gray67",
"1. c gray70",
"2. c #BBBBBB",
"3. c #DA8583",
"4. c #D28E87",
"5. c #D28F8E",
"6. c #CD948E",
"7. c #D1908D",
"8. c #DE9A8E",
"9. c #CC9490",
"0. c #C09F9E",
"q. c #D29690",
"w. c #DD9B92",
"e. c #E79A98",
"r. c #E5A09F",
"t. c #DDBBB6",
"y. c #E9A7A5",
"u. c #E1AEA7",
"i. c #EAA8A7",
"p. c #E8ADAA",
"a. c #E0B7B2",
"s. c #EDB6B4",
"d. c #EBB8B6",
"f. c #EEBEBC",
"g. c #DAC0BD",
"h. c #C3C3C3",
"j. c #C8C8C8",
"k. c #DCCBCA",
"l. c gray83",
"z. c gainsboro",
"x. c #E3C6C2",
"c. c #EEC3C1",
"v. c #E3C9C7",
"b. c #E5CECD",
"n. c #F0C3C1",
"m. c #F1CECC",
"M. c #E6D2CE",
"N. c #F4D2CF",
"B. c #E3D4D4",
"V. c #E7D8D7",
"C. c #E4DBD9",
"Z. c #E8DBDB",
"A. c #F7DFDD",
"S. c #E4E1E2",
"D. c #E9E5E5",
"F. c #E9E9E9",
"G. c #FAF0EE",
"H. c #FDFBF9",
"J. c None",
"K. c black",
"L. c black",
"P. c black",
"I. c black",
"U. c black",
"Y. c black",
"T. c black",
"R. c black",
"E. c black",
"W. c black",
"Q. c black",
"!. c black",
"~. c black",
"^. c black",
"/. c black",
"(. c black",
"). c black",
"_. c black",
"`. c black",
"'. c black",
"]. c black",
"[. c black",
"{. c black",
"}. c black",
"|. c black",
" X c black",
".X c black",
"XX c black",
"oX c black",
"OX c black",
"+X c black",
"@X c black",
"#X c black",
"$X c black",
"%X c black",
"&X c black",
"*X c black",
"=X c black",
"-X c black",
";X c black",
":X c black",
">X c black",
",X c black",
"<X c black",
"1X c black",
"2X c black",
"3X c black",
"4X c black",
"5X c black",
"6X c black",
"7X c black",
"8X c black",
"9X c black",
"0X c black",
"qX c black",
"wX c black",
"eX c black",
"rX c black",
"tX c black",
"yX c black",
"uX c black",
"iX c black",
"pX c black",
"aX c black",
"sX c black",
"dX c black",
"fX c black",
"gX c black",
"hX c black",
"jX c black",
"kX c black",
"lX c black",
"zX c black",
"xX c black",
"cX c black",
"vX c black",
"bX c black",
"nX c black",
"mX c black",
"MX c black",
"NX c black",
"BX c black",
"VX c black",
"CX c black",
"ZX c black",
"AX c black",
"SX c black",
"DX c black",
"FX c black",
"GX c black",
"HX c black",
"JX c black",
"KX c black",
"LX c black",
"PX c black",
"IX c black",
"UX c black",
/* pixels */
"J.J.J.J.J.J.J.J.J.J.J.J.J.J.J.J.J.J.J.J.J.J.J.J.J.J.J.J.J.J.J.J.",
"J.J.J.J.J.J.J.J.J.J.J.J.J.J.J.J.J.J.J.J.J.J.J.J.J.J.J.J.J.J.J.J.",
"J.J.J.J.J.J.J.J.J.J.J.J.J.J.J.Z.D.J.J.J.J.J.J.J.J.J.J.J.J.J.J.J.",
"J.J.J.J.J.J.J.J.J.J.F.u.o.Z a a a t Z o.u.F.J.J.J.J.J.J.J.J.J.J.",
"J.J.J.J.J.J.J.J.F.w.h A [ &.q.5.7.5.-.] A h 8.D.J.J.J.J.J.J.J.J.",
"J.J.J.J.J.J.J.M.Z ! +.&.$.| { { { } | $.&.@.! S M.J.J.J.J.J.J.J.",
"J.J.J.J.J.J.a.h ^ $.{ ` _ Q R W E Q _ _ ` | $.^ g a.J.J.J.J.J.J.",
"J.J.J.J.J.k.s ( ' ( R E E E  .%.%.` E E E Q ` | ( s x.J.J.J.J.J.",
"J.J.J.J.Z.b ~ ( / T T *.c.H.H.H.H.H.G.r.W v k v R ~ b V.J.J.J.J.",
"J.J.J.J.X.Y ^ R E T T m.H.H.H.H.H.H.H.H.N.v p p z T Y o.J.J.J.J.",
"J.J.J.b.- R R T T U T d.p.%.T W ` f.H.H.H.e.p p f z ~ - v.J.J.J.",
"J.J.J.] D C U U U T T T T T T U B C H.H.H.n.p p p f m D ] J.J.J.",
"J.J.F.3 C C G G U T T T T T T W p p H.H.H.y.p p i i f C 3 F.J.J.",
"F.F.a.6 c C C G T T T T U T E z p =.H.H.H._ p p p i i c 6 t.J.J.",
"S.Z.4.e c V V U T E U T T A z k k A.H.H.3.p p i i p y i e q.J.J.",
"V.b.X.5 l M M U U U U U R c k k s.H.H.=.p p p p u y u u e @.J.J.",
"V.b.[ 5 l c n C U T U T B k p i.H.H.=.p u p y y y % y y 4 I J.J.",
"S.C.O.< i l x x V U R G m k } H.H.n.y y y = = = y % = y , -.J.J.",
"F.F.9.; i e l l l l M G N p A.H.H.` % % = % % = % % y y ; 9.J.J.",
"J.J.g.* y j j j j > , < k E H.H.H.T % % % % % % = = % y * g.J.J.",
"J.J.F.2 , < < 5 , > > $ % x 3.3.3.e $ % > $ % = % y > = 2 F.J.J.",
"J.J.J.P & > , , > > > > % $ % > % > % $ % % = : = = > & P J.J.J.",
"J.J.J.B.O : > > > : % % % x 3.3.3.x $ > > : > > = > : O B.J.J.J.",
"J.J.J.J.I @ > > : : % % $ R H.H.H.R $ : % : = = = = @ I J.J.J.J.",
"J.J.J.J.S.r @ : : : : % : R H.H.H.R : % = : = : = # r S.J.J.J.J.",
"J.J.J.J.J.B.1 @ % $ > $ > e 3.3.3.l % % % % % % # + B.J.J.J.J.J.",
"J.J.J.J.J.J.k.9 X > $ $ % % % % % % % % % % % X 9 k.J.J.J.J.J.J.",
"J.J.J.J.J.J.J.C.J . @ $ $ $ % $ $ $ $ $ $ # . J C.J.J.J.J.J.J.J.",
"J.J.J.J.J.J.F.S.z.0.9   @ # # % $ # # X   q >.z.S.F.J.J.J.J.J.J.",
"J.J.J.J.J.J.l.j.h.2.1.:.L w 8 o o 8 0 H ;.1.h.h.j.l.J.J.J.J.J.J.",
"J.J.J.J.J.J.J.J.F.z.2.,.,.,.,.,.,.<.,.,.,.1.z.F.J.J.J.J.J.J.J.J.",
"J.J.J.J.J.J.J.J.F.z.2.<.<.<.,.<.<.<.<.<.1.h.z.F.J.J.J.J.J.J.J.J."
};
