/* XPM */
static char *help_dis[] = {
/* columns rows colors chars-per-pixel */
"28 28 256 2",
"   c #00269D",
".  c #052B9E",
"X  c #0026A1",
"o  c #0029A4",
"O  c #082DA1",
"+  c #002AAC",
"@  c #0C31A7",
"#  c #0D33AA",
"$  c #163AA6",
"%  c #1D3FA7",
"&  c #183CA9",
"*  c #002CB3",
"=  c #002EBB",
"-  c #0430B7",
";  c #0D35B2",
":  c #0030BF",
">  c #133AB5",
",  c #2144B3",
"<  c #3353B4",
"1  c #425FB7",
"2  c #4663B9",
"3  c #506BBB",
"4  c #002FC3",
"5  c #002FCB",
"6  c #0031C4",
"7  c #0937C0",
"8  c #0032CC",
"9  c #0A3ACB",
"0  c #0034D2",
"q  c #0539D6",
"w  c #0C3ED7",
"e  c #0035D9",
"r  c #063CDF",
"t  c #083DDE",
"y  c #0037E0",
"u  c #033AE1",
"i  c #093EE2",
"p  c #1741C0",
"a  c #1843C4",
"s  c #0D40DA",
"d  c #1444D4",
"f  c #1344DB",
"g  c #1849DC",
"h  c #3659C4",
"j  c #2150DE",
"k  c #355EDB",
"l  c #0E43E5",
"z  c #0D45EB",
"x  c #174BEC",
"c  c #1A4EEB",
"v  c #1E51ED",
"b  c #174CF0",
"n  c #1C54FC",
"m  c #2454E3",
"M  c #2154EE",
"N  c #2858EA",
"B  c #2B5DF1",
"V  c #3662E9",
"C  c #3664F0",
"Z  c #3F6BF1",
"A  c #4566CD",
"S  c #5A75C9",
"D  c #5F79C8",
"F  c #637AC2",
"G  c #456CE5",
"H  c #5679E3",
"J  c #567CED",
"K  c #416EF3",
"L  c #4671F3",
"P  c #4974F1",
"I  c #537BF3",
"U  c #507AF8",
"Y  c #7087CC",
"T  c #7388C8",
"R  c #798DCA",
"E  c #6281DF",
"W  c #7088D2",
"Q  c #5C83F7",
"!  c #6282E1",
"~  c #6385EC",
"^  c #6B8BEC",
"/  c #708DE6",
"(  c #7590E3",
")  c #6489F9",
"_  c #698DFB",
"`  c #7B9CFC",
"'  c #8396D2",
"]  c #8FA1D5",
"[  c #92A3D5",
"{  c #94A6DF",
"}  c #9BABD9",
"|  c #A0AFDB",
" . c #A3B0DA",
".. c #819CED",
"X. c #829EF2",
"o. c #87A1EF",
"O. c #99ACE6",
"+. c #99ADEB",
"@. c #83A1FB",
"#. c #8CA9FD",
"$. c #95ACF2",
"%. c #9BB0F1",
"&. c #97B1FE",
"*. c #9DB5FE",
"=. c #A3B2E1",
"-. c #A9B9EA",
";. c #A7BBF6",
":. c #ABBEF5",
">. c #AABEFA",
",. c #BAC5E5",
"<. c #AFC3FE",
"1. c #B6C6F6",
"2. c #BBC9F1",
"3. c #B1C4FE",
"4. c #BCCCFC",
"5. c #C2CBE5",
"6. c #C5CEEC",
"7. c #CCD3E8",
"8. c #DBDFED",
"9. c #C4CFF1",
"0. c #C0CEF8",
"q. c #C4D0F3",
"w. c #C5D3FF",
"e. c #CBD7FB",
"r. c #CEDAFD",
"t. c #D3DDFD",
"y. c #DDE1EF",
"u. c #DBE1F4",
"i. c #DCE4FD",
"p. c #E4E6EF",
"a. c #ECECEC",
"s. c #E2E6F1",
"d. c #E7E9F0",
"f. c #EBECF1",
"g. c #E1E7FB",
"h. c #E3EAFE",
"j. c #EAEFFE",
"k. c #ECF1FE",
"l. c #F2F2F3",
"z. c #F4F6FE",
"x. c #F6F8FF",
"c. c #FEFFFF",
"v. c None",
"b. c black",
"n. c black",
"m. c black",
"M. c black",
"N. c black",
"B. c black",
"V. c black",
"C. c black",
"Z. c black",
"A. c black",
"S. c black",
"D. c black",
"F. c black",
"G. c black",
"H. c black",
"J. c black",
"K. c black",
"L. c black",
"P. c black",
"I. c black",
"U. c black",
"Y. c black",
"T. c black",
"R. c black",
"E. c black",
"W. c black",
"Q. c black",
"!. c black",
"~. c black",
"^. c black",
"/. c black",
"(. c black",
"). c black",
"_. c black",
"`. c black",
"'. c black",
"]. c black",
"[. c black",
"{. c black",
"}. c black",
"|. c black",
" X c black",
".X c black",
"XX c black",
"oX c black",
"OX c black",
"+X c black",
"@X c black",
"#X c black",
"$X c black",
"%X c black",
"&X c black",
"*X c black",
"=X c black",
"-X c black",
";X c black",
":X c black",
">X c black",
",X c black",
"<X c black",
"1X c black",
"2X c black",
"3X c black",
"4X c black",
"5X c black",
"6X c black",
"7X c black",
"8X c black",
"9X c black",
"0X c black",
"qX c black",
"wX c black",
"eX c black",
"rX c black",
"tX c black",
"yX c black",
"uX c black",
"iX c black",
"pX c black",
"aX c black",
"sX c black",
"dX c black",
"fX c black",
"gX c black",
"hX c black",
"jX c black",
"kX c black",
"lX c black",
"zX c black",
"xX c black",
"cX c black",
"vX c black",
"bX c black",
"nX c black",
"mX c black",
"MX c black",
"NX c black",
"BX c black",
"VX c black",
"CX c black",
"ZX c black",
"AX c black",
"SX c black",
"DX c black",
"FX c black",
"GX c black",
"HX c black",
"JX c black",
"KX c black",
"LX c black",
"PX c black",
"IX c black",
"UX c black",
/* pixels */
"v.v.v.v.v.v.v.a.a.l.c.c.c.c.c.c.c.x.l.a.a.v.v.v.v.v.v.v.",
"v.v.v.v.v.a.a.x.x.x.x.x.x.x.x.x.x.x.c.x.l.a.v.v.v.v.v.v.",
"v.v.v.v.a.l.z.k.k.k.j.j.j.j.j.j.k.k.k.k.z.x.l.a.v.v.v.v.",
"v.v.v.a.l.j.i.i.i.i.i.i.i.g.i.i.i.i.i.i.i.g.j.l.a.v.v.v.",
"v.v.a.l.i.e.r.e.r.t.h.k.z.x.z.z.k.h.t.e.e.t.t.h.l.a.v.v.",
"v.a.l.t.1.1.1.4.i.x.c.c.c.c.c.c.c.c.x.i.4.2.4.9.g.a.v.v.",
"v.a.i.;.:.;.>.t.c.c.c.c.c.c.c.c.c.c.c.c.t.<.:.:.1.j.a.v.",
"a.u.~ X.$.$.<.x.c.c.c.c.c.c.c.c.c.c.c.c.x.3.$.+.o...a.v.",
"a.$.r m ~ X.t.c.c.c.c.c.h.4.4.j.c.c.c.c.c.w.X.^ j f 2.a.",
"f.G e e s L h.c.c.c.c.j.@.^ ^ *.c.c.c.c.c.w.V w e 0 / l.",
"9.g e e e b #.3.w.i.k.<.J H I <.c.c.c.c.c.&.y e 0 0 k d.",
"$.q 0 e e e y i z c B v s c @.k.c.c.c.c.x.U 0 8 8 8 d 9.",
"( 0 0 0 8 0 8 0 0 8 8 0 x &.x.c.c.c.c.c.#.i 8 8 8 8 9 -.",
"! 8 8 8 8 8 8 8 8 8 0 v 3.c.c.c.c.c.z.#.l 8 6 6 6 6 6 +.",
"E 8 8 8 8 8 8 6 6 6 i *.c.c.c.c.c.h.) t 6 6 6 6 4 4 7 +.",
"( 6 6 6 6 6 6 6 6 5 C k.c.c.c.c.i.K 0 6 = 6 = 6 = = 7 -.",
"O.7 6 6 : : : : 6 5 Q c.c.c.c.c.) 8 = = = = = = = = 7 6.",
"6.a = : = : = : = 4 I r.r.r.r.4.N = = * = * * = * * h f.",
"d.A = : = = * - = = z n n n n n r * * * * * * * * * W l.",
"f.{ * * * * = * * 4 _ w.4.4.w.4.Z = * * * + * * * > ,.a.",
"a.u.h * * * * + * 4 #.c.c.c.c.c.I * + + + + + + + S f.v.",
"v.a.=.; + + * + + 4 #.c.c.c.c.x.I * + + + + + o , 5.a.v.",
"v.a.f.W + + + + + = #.c.c.c.c.c.I * o o o o o # } l.v.v.",
"v.v.a.d.F o o o o = ` h.h.h.h.i.P + o o o o @ ' f.a.v.v.",
"v.v.v.a.p.Y @ o o + d j j j j j 9 X X X   & ' a.a.v.v.v.",
"v.v.v.v.a.f.} < .   X X               O 2 ,.l.a.v.v.v.v.",
"v.v.v.v.v.a.a.8.] 1 $ .         . , 3 | p.a.v.v.v.v.v.v.",
"v.v.v.v.v.v.v.a.f.d.5.[ T F F R | 7.a.f.a.v.v.v.v.v.v.v."
};
