/* XPM */
static char *history[] = {
/* columns rows colors chars-per-pixel */
"32 32 256 2",
"   c gray17",
".  c #2C2C2C",
"X  c #2D2D2D",
"o  c gray18",
"O  c gray19",
"+  c #313131",
"@  c #323232",
"#  c gray20",
"$  c #353535",
"%  c gray21",
"&  c #373737",
"*  c #393939",
"=  c #3A3A3A",
"-  c gray23",
";  c gray24",
":  c #414141",
">  c gray26",
",  c #434343",
"<  c gray27",
"1  c gray28",
"2  c #484848",
"3  c #4C4C4C",
"4  c #4E4E4E",
"5  c gray31",
"6  c #505050",
"7  c #515151",
"8  c gray33",
"9  c #555555",
"0  c #565656",
"q  c gray34",
"w  c gray35",
"e  c #5A5A5A",
"r  c #5B5B5B",
"t  c #5D5D5D",
"y  c gray38",
"u  c #626262",
"i  c #646464",
"p  c gray40",
"a  c #676767",
"s  c #686868",
"d  c DimGray",
"f  c #6C6C6C",
"g  c gray43",
"h  c #6F6F6F",
"j  c gray44",
"k  c #717171",
"l  c #777777",
"z  c gray47",
"x  c #7E7E7E",
"c  c gray50",
"v  c #808080",
"b  c gray51",
"n  c #838383",
"m  c #868686",
"M  c gray53",
"N  c #888888",
"B  c #898989",
"V  c gray54",
"C  c #8B8B8B",
"Z  c gray55",
"A  c #8E8E8E",
"S  c #959595",
"D  c gray59",
"F  c gray60",
"G  c #9A9A9A",
"H  c #9B9B9B",
"J  c gray61",
"K  c #9D9D9D",
"L  c #AF8383",
"P  c #A0A0A0",
"I  c #A2A2A2",
"U  c gray64",
"Y  c #A4A4A4",
"T  c gray65",
"R  c gray68",
"E  c #AFAFAF",
"W  c #BAA1A1",
"Q  c #B4ADAD",
"!  c gray69",
"~  c #B2B2B2",
"^  c gray70",
"/  c #B4B4B4",
"(  c gray71",
")  c #B6B6B6",
"_  c #B7B7B7",
"`  c gray72",
"'  c #B9B9B9",
"]  c gray73",
"[  c #BBBBBB",
"{  c gray74",
"}  c gray75",
"|  c #C0C0C0",
" . c #C1C1C1",
".. c gray76",
"X. c #C3C3C3",
"o. c gray77",
"O. c #C5C5C5",
"+. c #C6C4C4",
"@. c #C6C6C6",
"#. c gray78",
"$. c #C8C8C8",
"%. c gray79",
"&. c #CACACA",
"*. c #CBCBCB",
"=. c gray80",
"-. c #CDCDCD",
";. c #CECECE",
":. c gray81",
">. c #D0D0D0",
",. c gray82",
"<. c #D2D2D2",
"1. c LightGray",
"2. c gray83",
"3. c #D5D5D5",
"4. c gray84",
"5. c #D7D7D7",
"6. c #D8D8D8",
"7. c gray85",
"8. c #DADADA",
"9. c gray86",
"0. c gainsboro",
"q. c #DDDDDD",
"w. c gray87",
"e. c #DFDFDF",
"r. c #E2C0C0",
"t. c #E1C4C4",
"y. c #E2CDCD",
"u. c #E2D1D1",
"i. c #E2D5D5",
"p. c #E5D5D5",
"a. c #EBDDDD",
"s. c gray88",
"d. c #E1E1E1",
"f. c #E2E2E2",
"g. c gray89",
"h. c #E7E1E1",
"j. c #E4E4E4",
"k. c gray90",
"l. c #E6E6E6",
"z. c #E7E7E7",
"x. c gray91",
"c. c #E9E9E9",
"v. c #EAEAEA",
"b. c gray92",
"n. c #ECECEC",
"m. c gray93",
"M. c #EEEEEE",
"N. c #EFEFEF",
"B. c #F0ECEC",
"V. c #F1F1F1",
"C. c #F3F0F0",
"Z. c gray95",
"A. c #F3F3F3",
"S. c #F4F3F3",
"D. c #F4F4F4",
"F. c gray96",
"G. c #F6F6F6",
"H. c gray97",
"J. c #F8F8F8",
"K. c #F9F9F9",
"L. c gray98",
"P. c #FBFBFB",
"I. c gray99",
"U. c #FDFDFD",
"Y. c #FEFEFE",
"T. c None",
"R. c black",
"E. c black",
"W. c black",
"Q. c black",
"!. c black",
"~. c black",
"^. c black",
"/. c black",
"(. c black",
"). c black",
"_. c black",
"`. c black",
"'. c black",
"]. c black",
"[. c black",
"{. c black",
"}. c black",
"|. c black",
" X c black",
".X c black",
"XX c black",
"oX c black",
"OX c black",
"+X c black",
"@X c black",
"#X c black",
"$X c black",
"%X c black",
"&X c black",
"*X c black",
"=X c black",
"-X c black",
";X c black",
":X c black",
">X c black",
",X c black",
"<X c black",
"1X c black",
"2X c black",
"3X c black",
"4X c black",
"5X c black",
"6X c black",
"7X c black",
"8X c black",
"9X c black",
"0X c black",
"qX c black",
"wX c black",
"eX c black",
"rX c black",
"tX c black",
"yX c black",
"uX c black",
"iX c black",
"pX c black",
"aX c black",
"sX c black",
"dX c black",
"fX c black",
"gX c black",
"hX c black",
"jX c black",
"kX c black",
"lX c black",
"zX c black",
"xX c black",
"cX c black",
"vX c black",
"bX c black",
"nX c black",
"mX c black",
"MX c black",
"NX c black",
"BX c black",
"VX c black",
"CX c black",
"ZX c black",
"AX c black",
"SX c black",
"DX c black",
"FX c black",
"GX c black",
"HX c black",
"JX c black",
"KX c black",
"LX c black",
"PX c black",
"IX c black",
"UX c black",
/* pixels */
"T.T.T.T.T.T.T.T.T.T.T.T.T.T.T.T.T.T.T.T.T.T.T.T.T.T.T.T.T.T.T.T.",
"T.T.T.T.T.T.T.T.T.T.T.T.T.T.T.T.T.T.T.T.T.T.T.T.T.T.T.T.T.T.T.T.",
"T.T.T.T.T.T.T.T.T.T.T.l._ v j h h j v ' l.T.T.T.T.T.T.T.T.T.T.T.",
"T.T.T.T.T.T.T.T.T.w.v t j D Y Y Y I D j t x w.T.T.T.T.T.T.T.T.T.",
"T.T.T.T.T.T.T.v.G 9 v K ' 8.l.T.T.l.8.' K x 9 G v.T.T.T.T.T.T.T.",
"T.T.T.T.T.T.l.z p N ' v.I.I.I.Z.G.I.I.I.v.' N y l v.T.T.T.T.T.T.",
"T.T.T.T.T.v.j p N 5.I.I.I.I.I.v.N.I.I.I.I.I.5.N p h v.T.T.T.T.T.",
"T.T.T.T.T.Z 9 v w.I.I.I.I.I.I.l.N.I.I.I.I.I.K.8.x 6 N T.T.T.T.T.",
"T.T.T.T.&., d &.K.I.I.I.I.I.I.G.K.I.I.I.I.I.I.5.&.p , &.T.T.T.T.",
"T.T.T.T.y 6 K K.I.I.I.I.I.I.I.I.I.I.I.I.I.H.=.G.K.G 5 y T.T.T.T.",
"T.T.T.=.% t w.K.I.K.I.I.I.K.I.K.K.I.K.I.S.@.G.K.K.w.r % &.T.T.T.",
"T.T.T.N ; v K.K.K.K.G.w.I.K.K.K.K.K.K.T...K.K.K.K.K.v * N T.T.T.",
"T.T.T.5 ; ! G.K.K.K.K.N.=.G.G.K.K.G.s...H.H.H.K.Z.G.E ; 6 T.T.T.",
"T.T.v.% , &.N.N.Z.G.G.G.Z.&.l.G.G.5...G.Z.p.u.p.h.N.&., % v.T.T.",
"T.T.s.+ < 5.v.v.v.N.N.Z.G.Z.=.<.+.W r.t.y.B.Z.N.v.n.5.< + s.T.T.",
"T.T.w.X < 5.<.@.@.w.v.T.N.Z.Z.Q L a.Z.Z.Z.N.l.@.@.&.5.< X w.T.T.",
"T.T.l.% , &.l.l.l.l.l.l.l.v.v.N.N.N.N.N.v.l.l.v.l.l.&., + l.T.T.",
"T.T.T., * _ v.l.l.v.l.v.l.l.l.l.l.l.l.l.v.l.l.l.v.l._ ; , T.T.T.",
"T.T.T.d % Z l.v.l.v.l.l.v.l.l.v.l.l.l.l.l.l.l.l.l.l.Z % h T.T.T.",
"T.T.T.E X r w.l.l.l.l.v.l.l.l.l.l.v.l.l.v.l.l.v.l.w.r X R T.T.T.",
"T.T.T.l.* * K l.l.l.l.v.v.l.l.v.v.l.l.l.l.v.l.l.l.I * * s.T.T.T.",
"T.T.T.T.G + 6 <.v.l.l.l.l.l.l.l.l.l.v.l.l.l.l.v.=.6 + G T.T.T.T.",
"T.T.T.T.l.2 % d w.l.l.v.v.l.l.<.8.l.l.l.l.l.l.8.d % 2 l.T.T.T.T.",
"T.T.T.T.T.<.% % h <.l.l.l.l.l.5.5.l.v.l.v.l.<.h * % <.T.T.T.T.T.",
"T.T.T.T.T.T.{ + % r E s.v.l.l.<.8.l.l.l.s.E r % + { T.T.T.T.T.T.",
"T.T.T.T.T.T.T.=., + * d I &.w.l.l.s.&.I d ; + , =.T.T.T.T.T.T.T.",
"T.T.T.T.T.T.T.T.s.m + + * , 5 r r 5 , * + + v s.T.T.T.T.T.T.T.T.",
"T.T.T.T.T.v.v.v.l.l.<.m 5             5 N <.l.l.v.v.v.T.T.T.T.T.",
"T.v.v.s.w.8.5.<.=.&.&.@..._ K Z Z K _ { ..@.&.=.=.5.8.w.s.l.v.T.",
"T.l.l.w.8.5.<.=.&.@...' ' _ ! E E ! ! ' { { ..&.=.<.<.8.w.l.l.T.",
"T.T.T.v.v.v.l.s.s.w.w.8.5.5.5.5.5.5.8.5.8.8.w.s.s.l.l.v.v.T.T.T.",
"T.T.T.T.T.T.T.T.T.T.T.T.T.T.T.T.T.T.T.T.T.T.T.T.T.T.T.T.T.T.T.T."
};
