/* XPM */
static char *history_sel[] = {
/* columns rows colors chars-per-pixel */
"32 32 256 2",
"   c #111111",
".  c gray7",
"X  c #131313",
"o  c gray8",
"O  c #151515",
"+  c #161616",
"@  c gray9",
"#  c #181818",
"$  c #191919",
"%  c gray10",
"&  c #1B1B1B",
"*  c gray11",
"=  c gray12",
"-  c #202020",
";  c gray13",
":  c #222222",
">  c gray14",
",  c #282828",
"<  c gray16",
"1  c gray17",
"2  c #2D2D2D",
"3  c gray18",
"4  c #2F2F2F",
"5  c #313131",
"6  c gray20",
"7  c #343434",
"8  c #353535",
"9  c gray21",
"0  c #373737",
"q  c #393939",
"w  c #3A3A3A",
"e  c #3C3C3C",
"r  c gray24",
"t  c #3E3E3E",
"y  c #3F3F3F",
"u  c gray25",
"i  c gray26",
"p  c #444444",
"a  c gray27",
"s  c #494949",
"d  c gray29",
"f  c #4B4B4B",
"g  c #4C4C4C",
"h  c gray30",
"j  c #4E4E4E",
"k  c gray31",
"l  c gray32",
"z  c #535353",
"x  c gray33",
"c  c #565656",
"v  c #585858",
"b  c gray35",
"n  c #5D5D5D",
"m  c gray37",
"M  c #694F4F",
"N  c #606060",
"B  c gray38",
"V  c #626262",
"C  c gray39",
"Z  c #646464",
"A  c gray40",
"S  c #676767",
"D  c DimGray",
"F  c #6A6A6A",
"G  c #6C6868",
"H  c gray43",
"J  c #706161",
"K  c gray44",
"L  c #747474",
"P  c #777676",
"I  c #777777",
"U  c gray47",
"Y  c #797979",
"T  c gray48",
"R  c #7B7B7B",
"E  c #7C7C7C",
"W  c gray49",
"Q  c #7E7E7E",
"!  c gray50",
"~  c #877676",
"^  c #887373",
"/  c #887B7B",
"(  c #887D7D",
")  c #808080",
"_  c #818181",
"`  c gray51",
"'  c #838383",
"]  c #848484",
"[  c gray52",
"{  c #868686",
"}  c gray53",
"|  c #888080",
" . c #898080",
".. c #8B8787",
"X. c #8D8585",
"o. c #888888",
"O. c #898989",
"+. c gray54",
"@. c #8B8B8B",
"#. c gray55",
"$. c #8D8D8D",
"%. c #8E8E8E",
"&. c gray56",
"*. c #908E8E",
"=. c gray57",
"-. c #929090",
";. c #929292",
":. c #939393",
">. c gray58",
",. c #959595",
"<. c gray59",
"1. c #979797",
"2. c #989898",
"3. c #9B9B9B",
"4. c gray61",
"5. c gray62",
"6. c gray63",
"7. c gray64",
"8. c #A4A4A4",
"9. c gray65",
"0. c #A9A9A9",
"q. c gray67",
"w. c #ACACAC",
"e. c #AFAFAF",
"r. c #B1B1B1",
"t. c #B2B2B2",
"y. c #B4B4B4",
"u. c gray71",
"i. c #B9B9B9",
"p. c gray73",
"a. c #BCBCBC",
"s. c #C1C1C1",
"d. c #C3C3C3",
"f. c gray77",
"g. c #C6C6C6",
"h. c #C8C8C8",
"j. c gray79",
"k. c #CBCBCB",
"l. c #CDCDCD",
"z. c #CECECE",
"x. c gray81",
"c. c #D0D0D0",
"v. c #D2D2D2",
"b. c gray83",
"n. c gray84",
"m. c #D7D7D7",
"M. c gray85",
"N. c gray86",
"B. c #DDDDDD",
"V. c gray87",
"C. c gray88",
"Z. c #E2E2E2",
"A. c gray89",
"S. c #E4E4E4",
"D. c #E6E6E6",
"F. c #E7E7E7",
"G. c #E9E9E9",
"H. c None",
"J. c black",
"K. c black",
"L. c black",
"P. c black",
"I. c black",
"U. c black",
"Y. c black",
"T. c black",
"R. c black",
"E. c black",
"W. c black",
"Q. c black",
"!. c black",
"~. c black",
"^. c black",
"/. c black",
"(. c black",
"). c black",
"_. c black",
"`. c black",
"'. c black",
"]. c black",
"[. c black",
"{. c black",
"}. c black",
"|. c black",
" X c black",
".X c black",
"XX c black",
"oX c black",
"OX c black",
"+X c black",
"@X c black",
"#X c black",
"$X c black",
"%X c black",
"&X c black",
"*X c black",
"=X c black",
"-X c black",
";X c black",
":X c black",
">X c black",
",X c black",
"<X c black",
"1X c black",
"2X c black",
"3X c black",
"4X c black",
"5X c black",
"6X c black",
"7X c black",
"8X c black",
"9X c black",
"0X c black",
"qX c black",
"wX c black",
"eX c black",
"rX c black",
"tX c black",
"yX c black",
"uX c black",
"iX c black",
"pX c black",
"aX c black",
"sX c black",
"dX c black",
"fX c black",
"gX c black",
"hX c black",
"jX c black",
"kX c black",
"lX c black",
"zX c black",
"xX c black",
"cX c black",
"vX c black",
"bX c black",
"nX c black",
"mX c black",
"MX c black",
"NX c black",
"BX c black",
"VX c black",
"CX c black",
"ZX c black",
"AX c black",
"SX c black",
"DX c black",
"FX c black",
"GX c black",
"HX c black",
"JX c black",
"KX c black",
"LX c black",
"PX c black",
"IX c black",
"UX c black",
/* pixels */
"H.H.H.H.H.H.H.H.H.H.H.H.H.H.H.H.H.H.H.H.H.H.H.H.H.H.H.H.H.H.H.H.",
"H.H.H.H.H.H.H.H.H.H.H.H.H.H.H.H.H.H.H.H.H.H.H.H.H.H.H.H.H.H.H.H.",
"H.H.H.H.H.H.H.H.H.H.H.Z.*.p 0 6 5 8 p :.Z.H.H.H.H.H.H.H.H.H.H.H.",
"H.H.H.H.H.H.H.H.H.z.p 4 u b C C Z C b r 4 p z.H.H.H.H.H.H.H.H.H.",
"H.H.H.H.H.H.H.G.A < f n H _ @.#.$.@._ H n f < A G.H.H.H.H.H.H.H.",
"H.H.H.H.H.H.Z.r 0 z K #.2.2.,.*.:.,.2.,.$.K z 8 r Z.H.H.H.H.H.H.",
"H.H.H.H.H.G.8 w z _ 2.2.2.2.2.@.$.2.2.2.2.2.Q z w 5 G.H.H.H.H.H.",
"H.H.H.H.H.z 4 h ' 2.,.2.2.2.2.@.:.,.2.2.2.,.2._ h 4 z H.H.H.H.H.",
"H.H.H.H.r.: r Y ,.2.2.2.2.2.2.:.:.2.2.2.2.2.,._ Y r : e.H.H.H.H.",
"H.H.H.H.< 5 n ,.,.2.2.2.2.2.,.2.2.2.,.2.,.:.Q ,.,.n 4 > H.H.H.H.",
"H.H.H.r.& 8 [ 2.,.2.,.2.2.,.2.2.,.2.,.2.:.I ,.,.,.[ 8 & r.H.H.H.",
"H.H.H.h : h ,.,.,.,.:.[ 2.,.,.,.,.,.,.#.L ,.,.,.,.,.h : h H.H.H.",
"H.H.H.* > F ,.,.,.,.,.$.Q :.:.,.,.,.[ I :.,.,.,.:.,.F > * H.H.H.",
"H.H.G.o < Y $.$.:.,.,.:.:.I @.:.,._ L :.:. .( ( ..$.Y < o G.H.H.",
"H.H.M.o < _ $.$.$.$.:.:.:.:.Y E I J ^ ~ / $.:.$.$.$.Q < o m.H.H.",
"H.H.v.o < _ Q I I [ @.@.$.:.:.S M X.*.:.:.$.@.I I Y Q 4 o v.H.H.",
"H.H.Z.o > Y @.@.@.@.@.@.@.@.$.$.$.$.:.$.$.@.@.@.@.@.Y < o Z.H.H.",
"H.H.H.o > H @.@.@.@.@.@.@.@.@.@.@.@.@.@.@.@.@.@.@.@.H > o H.H.H.",
"H.H.H.5 : x @.@.@.@.@.@.@.@.@.@.@.@.@.@.@.@.@.@.@.@.x : 5 H.H.H.",
"H.H.H._ o 8 [ @.@.@.@.@.@.@.@.@.@.@.@.@.@.@.@.@.@.[ 8 o _ H.H.H.",
"H.H.H.V.X : n @.@.@.@.@.@.@.@.@.@.@.@.@.@.@.@.@.$.n : X V.H.H.H.",
"H.H.H.H.C & 5 Q @.@.@.@.@.@.@.@.@.@.@.@.@.@.@.$.Q 5 & C H.H.H.H.",
"H.H.H.H.D.& : r _ @.@.@.@.@.@._ _ @.@.@.@.@.@._ r * & Z.H.H.H.H.",
"H.H.H.H.H.i.X : i Q @.@.@.@.@.Q _ @.@.@.@.@.Q i : X a.H.H.H.H.H.",
"H.H.H.H.H.H.2.X * 8 F @.@.@.@.Q _ @.@.@.[ F 8 : X ,.H.H.H.H.H.H.",
"H.H.H.H.H.H.H.r.o * > r C Y [ @.@.[ Y C r > & o r.H.H.H.H.H.H.H.",
"H.H.H.H.H.H.H.H.m.s X & : > 5 w 8 5 < : * o s M.H.H.H.H.H.H.H.H.",
"H.H.H.H.H.G.G.D.Z.Z.a.h & X o o o o X & h i.V.Z.D.D.G.H.H.H.H.H.",
"H.D.Z.M.v.j.s.a.y.e.q.9.4.$.A x b A @.2.6.9.e.y.i.s.j.v.M.Z.D.H.",
"H.D.V.m.z.g.a.y.e.9.4.2.:.$.@.[ _ @.@.:.,.2.6.q.r.i.s.j.v.V.D.H.",
"H.H.H.G.D.D.Z.M.m.v.z.j.g.g.g.s.s.s.s.g.j.z.v.m.M.Z.Z.D.G.H.H.H.",
"H.H.H.H.H.H.H.H.H.H.H.H.H.H.H.H.H.H.H.H.H.H.H.H.H.H.H.H.H.H.H.H."
};
