/* XPM */
static char *home_dis[] = {
/* columns rows colors chars-per-pixel */
"28 28 256 2",
"   c #AAAAAA",
".  c #AAABAB",
"X  c gray67",
"o  c #ACADAE",
"O  c #ADADAE",
"+  c #AEAFAF",
"@  c #AFAFAF",
"#  c #AFB0AF",
"$  c #AFB0B0",
"%  c #AFB0B1",
"&  c gray69",
"*  c #B0B1B1",
"=  c #B1B1B1",
"-  c #B1B2B1",
";  c #B1B2B2",
":  c #B2B3B3",
">  c #B3B4B4",
",  c #B4B4B4",
"<  c #B5B5B4",
"1  c #B6B6B5",
"2  c #B5B5B6",
"3  c #B5B6B6",
"4  c #B7B7B6",
"5  c #B7B7B7",
"6  c #B8B8B7",
"7  c #B7B8B8",
"8  c #B7BBBE",
"9  c #B9B9B9",
"0  c #BABAB9",
"q  c #B9B9BA",
"w  c #B9BABA",
"e  c #BABABB",
"r  c #BABBBB",
"t  c #BBBBBB",
"y  c #BCBCBB",
"u  c #BBBCBC",
"i  c #BCBCBC",
"p  c #BCBCBD",
"a  c gray74",
"s  c #BDBDBE",
"d  c #BDBEBE",
"f  c #BEBFBE",
"g  c #BFBFBE",
"h  c #BEBFBF",
"j  c gray75",
"k  c #BBC0C3",
"l  c #BEC5CA",
"z  c #BFC7CB",
"x  c #C0C0C0",
"c  c #C1C1C0",
"v  c #C1C1C1",
"b  c gray76",
"n  c #C2C2C3",
"m  c #C3C3C3",
"M  c gray77",
"N  c #C5C5C4",
"B  c #C4C4C5",
"V  c #C5C6C6",
"C  c #C6C6C6",
"Z  c gray78",
"A  c #C8C8C6",
"S  c #C8C8C7",
"D  c #C8C9C7",
"F  c #C6C9CA",
"G  c #C9C9C8",
"H  c gray79",
"J  c #C9CAC8",
"K  c #CACAC9",
"L  c #CBCBC9",
"P  c #CACACA",
"I  c #CBCBCA",
"U  c #CBCCCA",
"Y  c #CCCCCA",
"T  c #CCCCCB",
"R  c #C9CCCE",
"E  c gray80",
"W  c #CDCDCC",
"Q  c #CCCCCD",
"!  c #CDCDCD",
"~  c #CECECC",
"^  c #CECECD",
"/  c #CFCFCD",
"(  c #CDCECE",
")  c #CFCFCE",
"_  c #CECECF",
"`  c #CECFCF",
"'  c gray81",
"]  c #CFD0CE",
"[  c #D0D0CF",
"{  c #D1D1CF",
"}  c #C3CBD0",
"|  c #C5CCD1",
" . c #CBCFD2",
".. c #C5D0D6",
"X. c #CFD2D3",
"o. c #CFD4D7",
"O. c #CBD5DB",
"+. c #D0D0D0",
"@. c #D1D1D0",
"#. c gray82",
"$. c #D2D2D0",
"%. c #D1D2D2",
"&. c #D2D2D2",
"*. c #D3D3D2",
"=. c #D2D3D3",
"-. c #D4D4D2",
";. c #D3D4D4",
":. c #D0D5D7",
">. c #D1D5D7",
",. c #D5D5D4",
"<. c #D4D4D5",
"1. c #D5D5D5",
"2. c #D5D5D6",
"3. c gray84",
"4. c #D7D7D6",
"5. c #D6D7D7",
"6. c #D7D7D7",
"7. c #D7D7D8",
"8. c #D3D8DA",
"9. c #D2D8DB",
"0. c #D3D9DB",
"q. c #D7D8D8",
"w. c #D7DADB",
"e. c #D5DBDE",
"r. c #D5DBDF",
"t. c #D6DCDE",
"y. c #D6DCDF",
"u. c #D8D8D8",
"i. c #D9D9D8",
"p. c gray85",
"a. c #D9DAD9",
"s. c #DADAD9",
"d. c #DADADA",
"f. c #DADBDA",
"g. c #DADADB",
"h. c #DADBDB",
"j. c gray86",
"k. c #DCDCDB",
"l. c #DBDCDC",
"z. c #DBDCDD",
"x. c gainsboro",
"c. c #DCDDDD",
"v. c #DDDDDD",
"b. c #DEDEDD",
"n. c #DCDDDE",
"m. c #DDDDDE",
"M. c #DDDEDE",
"N. c gray87",
"B. c #DFDFDE",
"V. c #DEDFDF",
"C. c #DFDFDF",
"Z. c #E0E0DF",
"A. c #D7DEE1",
"S. c #D7DFE3",
"D. c #DDE0E1",
"F. c #DFE0E0",
"G. c #DFE1E2",
"H. c #DEE2E3",
"J. c #DBE2E6",
"K. c gray88",
"L. c #E0E1E1",
"P. c #E1E1E1",
"I. c #E1E2E1",
"U. c #E1E2E2",
"Y. c #E0E2E3",
"T. c #E1E2E3",
"R. c #E1E3E3",
"E. c #E2E2E2",
"W. c #E3E3E2",
"Q. c #E2E3E3",
"!. c gray89",
"~. c #E4E4E3",
"^. c #E2E3E4",
"/. c #E2E4E4",
"(. c #E3E4E4",
"). c #E3E4E5",
"_. c #E3E5E5",
"`. c #E0E5E7",
"'. c #E4E4E4",
"]. c #E5E5E4",
"[. c #E4E4E5",
"{. c #E4E5E5",
"}. c gray90",
"|. c #E4E5E6",
" X c #E5E5E6",
".X c #E4E6E6",
"XX c #E5E6E6",
"oX c #E4E6E7",
"OX c #E6E6E6",
"+X c #E6E6E7",
"@X c #E6E7E7",
"#X c #E7E7E7",
"$X c #E8E8E7",
"%X c #E5E7E8",
"&X c #E7E8E8",
"*X c gray91",
"=X c #E9E9E8",
"-X c #E8E9E9",
";X c #E9E9E9",
":X c #E9EAE9",
">X c #EAEAE9",
",X c #EAEAEA",
"<X c #EAEBEA",
"1X c #EBEBEA",
"2X c #EAEBEB",
"3X c gray92",
"4X c #EBECEB",
"5X c #ECECEB",
"6X c #E8EBEC",
"7X c #EBECEC",
"8X c #ECECEC",
"9X c #EDEDEC",
"0X c #ECEDED",
"qX c gray93",
"wX c #EEEEED",
"eX c #EEEEEE",
"rX c #EFEFEE",
"tX c #EEEEEF",
"yX c #EFEFEF",
"uX c #F0F0EF",
"iX c gray94",
"pX c #F1F1F1",
"aX c #F1F2F1",
"sX c #F1F2F2",
"dX c gray95",
"fX c #F3F3F2",
"gX c #F2F3F3",
"hX c #F3F4F3",
"jX c #F1F3F4",
"kX c #F5F5F4",
"lX c #F4F5F5",
"zX c None",
"xX c black",
"cX c black",
"vX c black",
"bX c black",
"nX c black",
"mX c black",
"MX c black",
"NX c black",
"BX c black",
"VX c black",
"CX c black",
"ZX c black",
"AX c black",
"SX c black",
"DX c black",
"FX c black",
"GX c black",
"HX c black",
"JX c black",
"KX c black",
"LX c black",
"PX c black",
"IX c black",
"UX c black",
/* pixels */
"zXzXzXzXzXzXzXzXzXzXzXzX,X].,X,XzXzXzXzXzXzXzXzXzXzXzXzX",
"zXzXzXzXzXzXzXzXzXzXzX,X].pXkXqX,XzXzXzXzXzXzXzXzXzXzXzX",
"zXzXzXzXzXzXzXzXzXzX,X].iXhXpXpX,X,X&X].].!.].].].,XzXzX",
"zXzXzXzXzXzXzXzXzX,X].qXpXqXqXpXpX,X].pXqXqXqXqX].].zXzX",
"zXzXzXzXzXzXzXzX,X'.5XqX,X,X,X,XqXqX].qX,X$X,XqX].,XzXzX",
"zXzXzXzXzXzXzX,X'.,X3X#X*X*X%X*X].,XqX,X$X!.].,X,XzXzXzX",
"zXzXzXzXzXzX,X].#X*X'.'.'.!.!.!.!.N._.$X!.N.!.].,XzXzXzX",
"zXzXzXzXzX,X!.].'.!.!.C.C.B.N.x.N.k.s.s.s.1.s.~.,XzXzXzX",
"zXzXzXzX,X!.!.!.N.x.x.x.s.s.u.u.1.1.1.1.&.&.;.Z.,XzXzXzX",
"zXzXzX,X!.Z.N.s.u.6.6.1.;.&.+.+.E X.X.E E R &.N.%XzXzXzX",
"zXzX,X!.s.i.&.E H Z B b x s u u r e 7 e s s N s.!.,XzXzX",
"zX,XN.-.{ N N v v j s u e 7 2 > & $ $ # @ X $ s E x.3XzX",
"zX!.&.&.H N N N N v h s u 7 7 2 > : & & & & & & g { N.zX",
",X1.-.;.X.&.&.{ [ E E E T T T H H H H H H H H H W { &.,X",
",Xk.$X,X&X_.].%X].].%X'.].].'.]._.].]._.]._._.].].].6.].",
",XN.kXpX6X&X&X_.].%X_._._._.).)._._._._._._._.%XqXpXx.$X",
",XN.jXJ.O.S.y.| o.'.).S.).C.).C.).S.!.!.!.S.!.!._.qXs.].",
",Xk.pXS...y.0.l  .'.).).).'.).C.'.'.!.!.).!.).!.).qXs.&X",
"$XN.pX_.y.D.D.:.w.'.).).).).!.).'.S.x.x.l.N.x.)._.0Xs.%X",
",Xs.pXe.| 0.:.k R %X).'.).).).).!.+.T Z Z H E x.].0Xs.&X",
",Xl.sX9.l :.%.8 R %X'. X'.'.'.%X!.W e # @ 2 H N.].0Xs.&X",
",Xl.qX_.D._._.N.C.].'.'.].%X].].!.W < . . & N N.].0Xs.].",
"&Xs.0X&X&X].].&X#X'.'.%X%X%X%X].!.W 2 X X & D N.].,Xs.$X",
",Xs.0X&X].$X]._.%X'.*X].%X'.].%X!.W g 2 X & D N.].,Xs.].",
",Xs.,X$X].].].].].%X].%X].].].].!.W 6 @ @ @ A N.].,X7.$X",
",Xq.4X,X,X,X,X,X,X&X*X,X,X,X,X,X~.] y # & 4 H !.,X,Xs.].",
"zXs.B.!.Z.Z.B.B.C.B.B.C.B.B.B.B.N.E I D D H W s.Z.N.s.,X",
"zX].N.k.k.l.N.N.N.x.x.N.x.x.N.x.k.N.k.k.s.N.k.k.N.N.].zX"
};
