/* XPM */
static char *home_sel[] = {
/* columns rows colors chars-per-pixel */
"28 28 256 2",
"   c gray40",
".  c #666667",
"X  c #666768",
"o  c #676868",
"O  c #676869",
"+  c DimGray",
"@  c #696A69",
"#  c #68696A",
"$  c #696A6A",
"%  c #696A6B",
"&  c #6A6A6A",
"*  c #6A6B6A",
"=  c #6A6A6B",
"-  c #6A6B6B",
";  c #6C6D6B",
":  c #6D6D6B",
">  c #6B6B6C",
",  c #6B6C6C",
"<  c #6D6D6C",
"1  c #6C6D6D",
"2  c #6D6E6C",
"3  c #6E6E6D",
"4  c #6D6E6E",
"5  c #6E6E6F",
"6  c #6E6F6F",
"7  c #6F6F6F",
"8  c #70706E",
"9  c #71716F",
"0  c #676E72",
"q  c #6E6F70",
"w  c #6F6F70",
"e  c #6F7070",
"r  c #697075",
"t  c #677279",
"y  c #68737A",
"u  c #69767D",
"i  c #6B777D",
"p  c gray44",
"a  c #707071",
"s  c #717271",
"d  c #727271",
"f  c #737371",
"g  c #717172",
"h  c #717272",
"j  c #717273",
"k  c #727372",
"l  c #727373",
"z  c gray45",
"x  c #737472",
"c  c #737474",
"v  c #747474",
"b  c #747475",
"n  c gray46",
"m  c #757576",
"M  c #767676",
"N  c #777776",
"B  c #767777",
"V  c #777777",
"C  c #787876",
"Z  c #787976",
"A  c #787877",
"S  c #787977",
"D  c #797977",
"F  c #7A7A77",
"G  c #737779",
"H  c #737A7E",
"J  c #74797C",
"K  c #797978",
"L  c #797979",
"P  c #797A78",
"I  c #7A7A78",
"U  c #7A7B79",
"Y  c #7B7B79",
"T  c #7B7B7A",
"R  c #7A7A7B",
"E  c #7A7B7B",
"W  c #7B7B7B",
"Q  c #7B7C7A",
"!  c #7C7C79",
"~  c #7C7C7A",
"^  c #7D7D7B",
"/  c #7E7E7B",
"(  c #7B7B7C",
")  c #7B7C7C",
"_  c #787D7F",
"`  c #7C7C7C",
"'  c #7D7D7C",
"]  c #7C7D7D",
"[  c gray49",
"{  c #7E7E7C",
"}  c #7E7E7D",
"|  c #7F7F7D",
" . c #7D7D7E",
".. c #7E7E7E",
"X. c #7E7E7F",
"o. c #7E7F7F",
"O. c gray50",
"+. c #80807E",
"@. c #81817F",
"#. c #677780",
"$. c #6C7B84",
"%. c #757D81",
"&. c #777E81",
"*. c #767F83",
"=. c #787E81",
"-. c #797E81",
";. c #787F83",
":. c #7F7F80",
">. c #778185",
",. c #778186",
"<. c #788083",
"1. c #7E8283",
"2. c #798285",
"3. c #788186",
"4. c #798287",
"5. c #768288",
"6. c #79848A",
"7. c #808080",
"8. c #808081",
"9. c #808181",
"0. c #818181",
"q. c #828281",
"w. c #818182",
"e. c gray51",
"r. c #838282",
"t. c #838382",
"y. c #828383",
"u. c #838383",
"i. c #848482",
"p. c #838384",
"a. c #828484",
"s. c #838484",
"d. c #838485",
"f. c #838585",
"g. c #818687",
"h. c #838687",
"j. c #848484",
"k. c #858584",
"l. c #848585",
"z. c gray52",
"x. c #858685",
"c. c #868685",
"v. c #848586",
"b. c #858686",
"n. c #858687",
"m. c #868686",
"M. c #868786",
"N. c #878786",
"B. c #868787",
"V. c gray53",
"C. c #888887",
"Z. c #808688",
"A. c #858788",
"S. c #858789",
"D. c #868788",
"F. c #878788",
"G. c #81888B",
"H. c #858889",
"J. c #868888",
"K. c #878888",
"L. c #868889",
"P. c #878889",
"I. c #878989",
"U. c #86888A",
"Y. c #86898A",
"T. c #87898A",
"R. c #86898B",
"E. c #878A8B",
"W. c #888888",
"Q. c #888988",
"!. c #898988",
"~. c #888989",
"^. c #898989",
"/. c #8A8A89",
"(. c #88898A",
"). c #89898A",
"_. c #898A8A",
"`. c #898A8B",
"'. c gray54",
"]. c #8A8B8A",
"[. c #8B8B8A",
"{. c #8A8A8B",
"}. c #8A8B8B",
"|. c #8B8B8B",
" X c #8B8C8B",
".X c #8C8C8B",
"XX c #8B8B8C",
"oX c #888C8D",
"OX c gray55",
"+X c #8C8D8C",
"@X c #8D8D8C",
"#X c #8C8C8D",
"$X c #8C8D8D",
"%X c #8D8D8D",
"&X c #8E8E8D",
"*X c #8C8D8E",
"=X c #8D8E8E",
"-X c #8E8E8E",
";X c #8F8F8E",
":X c #8E8F8F",
">X c gray56",
",X c #90908F",
"<X c #8F9090",
"1X c #8F9192",
"2X c #909090",
"3X c #909190",
"4X c #919190",
"5X c #909191",
"6X c gray57",
"7X c #919291",
"8X c #929291",
"9X c #919292",
"0X c #939392",
"qX c #929393",
"wX c #939393",
"eX c #989897",
"rX c #9D9D9D",
"tX c gray62",
"yX c #9F9F9E",
"uX c #A0A0A0",
"iX c gray63",
"pX c #A2A2A2",
"aX c #A3A3A2",
"sX c gray64",
"dX c #A4A4A3",
"fX c #A3A3A4",
"gX c #A4A4A4",
"hX c #A5A5A5",
"jX c #A7A7A7",
"kX c gray66",
"lX c #A9A9A9",
"zX c #AAAAAA",
"xX c #AEAEAE",
"cX c #B6B6B6",
"vX c gray72",
"bX c #BBBBBB",
"nX c gray80",
"mX c #CDCDCD",
"MX c gray81",
"NX c #D5D5D5",
"BX c gray85",
"VX c #DADADA",
"CX c gainsboro",
"ZX c gray88",
"AX c #E1E1E1",
"SX c gray89",
"DX c #E4E4E4",
"FX c gray90",
"GX c #E6E6E6",
"HX c #E6E6E7",
"JX c #E7E7E7",
"KX c gray91",
"LX c #E8E8E9",
"PX c #E9E9E9",
"IX c None",
"UX c black",
/* pixels */
"IXIXIXIXIXIXIXIXIXIXIXIXSXhXuXVXIXIXIXIXIXIXIXIXIXIXIXIX",
"IXIXIXIXIXIXIXIXIXIXIXSXtX2X2XtXZXIXIXIXIXIXIXIXIXIXIXIX",
"IXIXIXIXIXIXIXIXIXIXSXuX2X2X2XwXuXSXMXlXlXlXlXlXbXJXIXIX",
"IXIXIXIXIXIXIXIXIXJXuX;X2X;X2X2X2XuXwX>X;X;X;X;X!.VXIXIX",
"IXIXIXIXIXIXIXIXJXuX;X>X;X;XOX;X;X;XOX>X;X!.!.;X;XVXIXIX",
"IXIXIXIXIXIXIXJXjXOXOXOXXXXX!.!.!.|.;X|.!.R.!.;XbXIXIXIX",
"IXIXIXIXIXIXJXlX|.|.!.K.K.!.K.F.l.K.!.!.l.l.C. XMXIXIXIX",
"IXIXIXIXIXKXlX!.!.V.l.F.F.l.l.l.l.l.0.l.a.0.t.C.nXIXIXIX",
"IXIXIXIXLXlXC.!.l.l.l.l.q.q.0.8.0.:.........O.C.MXIXIXIX",
"IXIXIXKXlXC.l.0.q.0.8.8.O... . ._ ` ` ` ` L ..l.MXIXIXIX",
"IXIXLXlXi.0...^ L L c c c a a a w w w e w j B 0.uXLXIXIX",
"IXKXkXO.^ A b b c l g a a w > > @ @ O O X X O g ! gXKXIX",
"IXcX+.O.A b A b b b g g a w 3 > 3 @ @ @ * * @ @ f ^ xXIX",
"PX.X+./ ....^ ^ ^ ^ L L L F F L A A A A A A A A L ^ t.SX",
"JX X.X.XXXT.XX!.!.!.T.XXF.XX!.!.R.R.!.K.!.R.R.!.!.!.t.CX",
"JX;X2X1XoXT.T.R.R.R.U.U.U.U.U.F.R.F.F.R.R.R.R.R.*X1XC.CX",
"JX;XqX6.$.4.4.i %.F.Z.Z.F.U.F.Z.F.G.F.Z.F.Z.F.Z.F.*Xl.CX",
"JX!.2X5.#.,.4.t %.T.F.F.G.F.U.F.U.F.F.F.F.U.U.F.F.;Xl.CX",
"JX;X1XZ.,.Z.g._ 1.F.U.F.F.F.U.F.F.Z.a.a.a.a.v.F.R.;Xl.CX",
"JX!.;X,.i -.-.r J XXU.U.U.U.U.U.F.` L A b L ` v.!.;Xl.CX",
"HXXX:X*.t -._ 0 G !.F.U.R.U.!.T.l.^ 8 + @ : A l.!.;Xg.CX",
"HX!.;XR.Z.R.l.g.Z.XXXXF.!.F.XX!.C.! : . . @ A l.R. Xi.CX",
"HX!.;XXX!.XX!.XXXXF.XXU.XXF.!.XXR.L : . . + A l.!.;Xi.CX",
"JXXX#XXXXXXX!.!.!.XXK.XXF.XX!.!.C.^ f : . : A l. X.Xl.CX",
"JX!.XXXX!.!.!.!.XX!.!.XX|.C.|.!.C.L 3 + . @ A C. X.Xi.CX",
"JX!.;XOX.X.X;XXXXXXXXXXX|.|.|.|.!.^ 8 @ * : ! i. X.Xl.CX",
"IXwXl.l.V.l.l.l.V.l.l.l.V.V.l.V.i.^ A A A A ! t.C.l..XFX",
"IXNXlXhXdXhXhXhXdXhXhXhXdXdXdXdXdXdXdXdXdXdXsXdXdXjXMXIX"
};
