/* XPM */
static char *home_sel[] = {
/* columns rows colors chars-per-pixel */
"28 28 43 1",
"  c #656666",
". c #676869",
"X c gray42",
"o c #70706E",
"O c #676D72",
"+ c #6E6F70",
"@ c #6E7071",
"# c #677279",
"$ c #6A767D",
"% c #737474",
"& c #777875",
"* c #787976",
"= c #737779",
"- c #7C7C7B",
"; c #80807D",
": c #677780",
"> c #6B7A83",
", c #767E81",
"< c #7A7F81",
"1 c #7A8185",
"2 c #768188",
"3 c #79848A",
"4 c #848484",
"5 c #888887",
"6 c #858788",
"7 c #868889",
"8 c #8A8B8B",
"9 c #90908F",
"0 c #8F9091",
"q c #929292",
"w c #989897",
"e c gray60",
"r c #A2A2A2",
"t c #AEAEAE",
"y c #B4B4B4",
"u c gray74",
"i c gray76",
"p c #CDCDCD",
"a c gray86",
"s c #E4E4E4",
"d c gray91",
"f c black",
"g c None",
/* pixels */
"ggggggggggggduysgggggggggggg",
"gggggggggggdywqysggggggggggg",
"ggggggggggdyqqqqydaiiiiipdgg",
"gggggggggdyqq8q8qyt99898esgg",
"ggggggggdu99889889q99889esgg",
"gggggggduq88888888888559pggg",
"ggggggdi985555554458444qaggg",
"gggggdi8554554444444;449aggg",
"ggggdi954444;44;14-<--;9aggg",
"gggdi8444;4;<--<-------8aggg",
"ggdi84--*%%%%+++@XX@%%=4ydgg",
"gdi5-%%%%%%+++XXX...   @4idg",
"gp8;***%%%%++++XXXX..X.X%4ig",
"dr;;-<----*--****&&&&&&&*-ed",
"dr888778777777777777777888ws",
"drqq8887777777777777777789ws",
"drq3>3<:,66666666664766670ws",
"dr02:2,#,76666666666776670es",
"dr96136,<86766666444444668ws",
"dr9<$<,O=87766676-**%*=658ws",
"dr0,#,,O=86586565*o .X*458es",
"dr086664488656885-X  .*488ws",
"dr885888868787855-X  X*488ws",
"dr888868868858585-%X .*488ws",
"dr888888888588855*o  X&458es",
"de888888888888885-oXXX*588ws",
"gy885455585555555--*-*-455rd",
"gaiuiuuuuuuuiuuuuuuuiuuuuiag"
};
