/* XPM */
static char *home_dis[] = {
/* columns rows colors chars-per-pixel */
"28 28 91 1",
"  c #AAAAAB",
". c #AAABAB",
"X c #ACACAD",
"o c #ADAEAF",
"O c #AFAFAF",
"+ c #AEAFB0",
"@ c #AFB0B0",
"# c #B0B1B0",
"$ c gray70",
"% c #B5B5B4",
"& c #B6B7B6",
"* c #B7B7B7",
"= c #B6BBBE",
"- c #B8B8B9",
"; c #BABAB8",
": c #BBBBBA",
"> c #BBBBBB",
", c gray74",
"< c gray75",
"1 c #BFBFC0",
"2 c #BAC0C3",
"3 c #BDC5C9",
"4 c #C0C0C1",
"5 c gray76",
"6 c #C2C3C2",
"7 c gray77",
"8 c #C6C6C7",
"9 c #C8C8C6",
"0 c #C2CBCF",
"q c gray79",
"w c #CBCBCA",
"e c #CCCDCB",
"r c #C9CCCD",
"t c gray80",
"y c #CECECD",
"u c #CFCFCD",
"i c #CDCECE",
"p c #D1D1CF",
"a c #C5CFD6",
"s c #CACFD2",
"d c #CED2D3",
"f c #CED3D6",
"g c #CBD5DB",
"h c #D1D1D0",
"j c #D2D2D1",
"k c LightGray",
"l c #D5D5D3",
"z c #D0D4D6",
"x c #D1D5D6",
"c c gray83",
"v c gray84",
"b c #D8D8D7",
"n c #D2D7D9",
"m c #D3D8DA",
"M c #D4DBDE",
"N c #D8D8D8",
"B c #D9DAD9",
"V c #DADBDB",
"C c #DBDCDC",
"Z c gainsboro",
"A c #DDDEDE",
"S c #DFDFDF",
"D c #E0E0DF",
"F c #D7DEE2",
"G c #DCDFE0",
"H c #DFDFE0",
"J c #DFE0E0",
"K c #DDE1E2",
"L c #DBE2E6",
"P c gray89",
"I c #E2E4E5",
"U c #E0E5E7",
"Y c #E4E4E4",
"T c #E4E5E6",
"R c #E7E7E7",
"E c #E8E8E7",
"W c #E5E7E8",
"Q c #E7E8E8",
"! c gray91",
"~ c #E9E9E9",
"^ c #E8EAEB",
"/ c gray92",
"( c #EBECED",
") c #EDEDEC",
"_ c #F0F0EF",
"` c gray94",
"' c #F1F1F0",
"] c #F3F3F3",
"[ c #F4F4F4",
"{ c black",
"} c None",
/* pixels */
"}}}}}}}}}}}}~Y~~}}}}}}}}}}}}",
"}}}}}}}}}}}~Y'[)~}}}}}}}}}}}",
"}}}}}}}}}}~Y''''~~~YYYPPY~}}",
"}}}}}}}}}~Y)'))'`YW`))))Y~}}",
"}}}}}}}}~P~)~~~~))~)~~~~Y!}}",
"}}}}}}}~P~(~W~~YY~~~~PP~~}}}",
"}}}}}}~YE~YPIYYPHHYYZZH!~}}}",
"}}}}}~PYYZHZPZZZZCCBBBCP~}}}",
"}}}}~YYYZZZZBBbBcccckkcH~}}}",
"}}}/YZAbBBccckpsrddtqehC~}}}",
"}}EDCbuyq8841,::;&;:,17BDQ}}",
"}~Zky87441,:-*%$@@o@O.+,rD~}",
"}Pkkq887741,,**%%#######7pZ}",
"~ckkkkyyttttqttq99qq99qqquk~",
"EZEEQIQIYYYWYYPPEYYYIYYYYYbE",
"EZ[_QWWQQYIIIIYPLYUYYULE)_CY",
"~D[LgFMaxIIGYGHHIHHIGHIGE)CY",
"EA'FaMx3sYIYYYLYIIIIIIIIL)bE",
"EC_IMKDfBUIYLPPGIGBABAAPI)CQ",
"EA_M0mx2rIIIIYYYHkq8qqtBIQbY",
"EA'm3fd=qWPYUYYYPe:@+%qZE(CE",
"EC(IYYPCKQPYYYYIPe%  O8ZY~bY",
"QC(~QYYIYYIQYQY~P9% .@8HY/BY",
"~b(QYQYYY~YI~YYQPe1%.@qZYQBE",
"EbEYYYEIYYYEYYYYPt%@.@9ZY~bE",
"~C)EEE~~~~~~EE~~Pt:@#&yD~~bE",
"}bKYZKDDKZZPPZZPZyyq99ybDAbE",
"}YDbCCCDZZBZZZZZCCCbBZCCCDY}"
};
