/* XPM */
static char *home[] = {
/* columns rows colors chars-per-pixel */
"28 44 65 1",
"  c black",
". c gray4",
"X c #111111",
"o c gray13",
"O c #2F2F2F",
"+ c #313131",
"@ c gray23",
"# c gray26",
"$ c gray31",
"% c #535353",
"& c gray35",
"* c #626262",
"= c gray46",
"- c #7C7C7C",
"; c gray52",
": c gray54",
"> c #ABABAC",
", c #AFB0AF",
"< c #ADAEB0",
"1 c #AFB0B1",
"2 c #B3B4B4",
"3 c #BABAB6",
"4 c #B7B8B9",
"5 c #BBBCBC",
"6 c #C0C1BD",
"7 c #AEBBC3",
"8 c #ABBEC9",
"9 c #BEBFC0",
"0 c #ACC6D6",
"q c #B2C5D0",
"w c #BFCBD2",
"e c #B3CCDB",
"r c #C3C4C4",
"t c #C7C8C4",
"y c #C9C9C5",
"u c #C0C6CA",
"i c #C1C9CD",
"p c #CCCDCB",
"a c #D1D1CE",
"s c #C3CFD6",
"d c #CFCFD0",
"f c #C7D1D5",
"g c #CCD1D3",
"h c #C9D6DC",
"j c gray83",
"k c #D8D8D7",
"l c #D1D8DB",
"z c gainsboro",
"x c #E0E0DF",
"c c #C5D8E2",
"v c #C9DAE3",
"b c #D6DFE1",
"n c #DCDFE0",
"m c #D6E2E7",
"M c #DEE2E4",
"N c #E3E4E5",
"B c #E8E8E7",
"V c #E3E7E8",
"C c #E7E8E8",
"Z c #EAEAEA",
"A c #F0F0EF",
"S c #EFF1F1",
"D c gray95",
"F c black",
"G c None",
/* pixels */
"GGGGGGGGGGGGZBZZGGGGGGGGGGGG",
"GGGGGGGGGGGZNADZZGGGGGGGGGGG",
"GGGGGGGGGGBNAADAZBBNNNNNBBGG",
"GGGGGGGGGZNZAAAAABBAZAZANBGG",
"GGGGGGGGBNZAZZZZZZBAZBBZCBGG",
"GGGGGGGZNBZBCCCNBZZZBxNBBGGG",
"GGGGGGZNNCNNNxNxxxNNxzxNBGGG",
"GGGGGBNNNxxxxxznzkkzkkzNZGGG",
"GGGGBNxNzzzkzlkkjjjgjgjxBGGG",
"GGGZNzxkkkkjjdddddddppazCGGG",
"GGZNzkdpptr99954442455ujzZGG",
"GZzadrrr99554422<<<><>15azZG",
"GNaayyttr9955442211111116pzG",
"BjjjaaagpppppyyyyyyyyyyyyajC",
"BzCCCCVVNNNVNNNVNVNMNMNNCNkC",
"BzDSVMMMNMMMMMMMMMMMMMMMZAzC",
"BzDvevhqsMnnMnnMnMnmnMnnMSzN",
"ZnDc0hh8wVMnMMMnMMnNMnMMnSzB",
"BzAbhbbsvNMNMNMMNzbnzzzNMZlN",
"BzAh0hs7iNMMNMMNndprtypzVZzC",
"ZzAs8sf7iNNNNNNnnp3,,2yzNZkC",
"BzSMnNMnnNNNNNNNxp2>>,tzNZkC",
"BkZVNNVNNNNNNNNNNp2>>,tzNZkC",
"ZzZZCNNNCNNNNCNNNt92>>tzNZkN",
"BzZBCNNCNNCNNCNNNp2>>>yzNZkB",
"NkZZCCBBCCBBBBBBCp3223yzBZkB",
"GzzxxxxzxxxxzxxxzpyttypzxnkB",
"GCzzzzzzzzzzzzzzzzzzzzzzzzNG",
"GGGGGGGGGGGGGGGGGGGGGGGGGGGG",
"GGGGGGGGGGGGGGGGGGGGGGGGGGGG",
"GGGGGGGGGGGGGGGGGGGGGGGGGGGG",
"GGGGGGGGGGGGGGGGGGGGGGGGGGGG",
" GGGG GGGGGGGGGGGGGGGGGGGGGG",
" GGGG GGGGGGGGGGGGGGGGGGGGGG",
" GGGG Gp+ @zGG >o.;:.*GGk# o",
"      G#-C-&GG $yr =y.GG$>C>",
" GGGG G.nGN.GG CGG CG GG.   ",
" GGGG G.zGz GG GGG GG GGXzGG",
" GGGG G#-N-@GG GGG GG GG&%jN",
" GGGG GyO OtGG GGG GG GGz&..",
"GGGGGGGGGGGGGGGGGGGGGGGGGGGG",
"GGGGGGGGGGGGGGGGGGGGGGGGGGGG",
"GGGGGGGGGGGGGGGGGGGGGGGGGGGG",
"GGGGGGGGGGGGGGGGGGGGGGGGGGGG"
};
