/* XPM */
static char *home[] = {
/* columns rows colors chars-per-pixel */
"28 28 49 1",
"  c #ABACAC",
". c #AFB0AF",
"X c #ADAEB0",
"o c #AFB0B1",
"O c #ABB7BE",
"+ c #B3B4B4",
"@ c #BABAB6",
"# c #B7B8B9",
"$ c #BBBCBC",
"% c #C0C1BD",
"& c #AEBBC3",
"* c #ABBEC9",
"= c #BEBFC0",
"- c #ACC6D6",
"; c #B2C5D0",
": c #BFCBD2",
"> c #B3CCDB",
", c #C3C4C4",
"< c #C7C8C4",
"1 c #C9C9C5",
"2 c #C1C9CD",
"3 c #CDCDCB",
"4 c #CFD0CE",
"5 c #D1D1CE",
"6 c #C3CFD6",
"7 c #CFCFD0",
"8 c #C7D1D5",
"9 c #C6D5DD",
"0 c #C9D6DC",
"q c gray83",
"w c #D8D8D7",
"e c #D1D8DB",
"r c gainsboro",
"t c #E0E0DF",
"y c #C5D8E2",
"u c #C9DAE3",
"i c #D6DFE1",
"p c #DCDFE0",
"a c #D6E2E7",
"s c #DEE2E4",
"d c #E3E4E5",
"f c #E8E8E7",
"g c #E3E7E8",
"h c #E7E8E8",
"j c #EAEAEA",
"k c #F0F0EF",
"l c gray95",
"z c black",
"x c None",
/* pixels */
"xxxxxxxxxxxxjdjjxxxxxxxxxxxx",
"xxxxxxxxxxxjdkljfxxxxxxxxxxx",
"xxxxxxxxxxjdkllljffddddddjxx",
"xxxxxxxxxjdjkjkkkfdkkjjkdfxx",
"xxxxxxxxffjjjjjjjkfkjdfjdfxx",
"xxxxxxxfdjjfffdfdfjjfddjfxxx",
"xxxxxxjdffdddddttpddtrthjxxx",
"xxxxxjddfrttrtrrwwrrwrwdfxxx",
"xxxxjddtrrrrrrwwwqq777qtjxxx",
"xxxjdrrrwwwq77777637777rhxxx",
"xxjdww731<,====######=,qpfxx",
"xjr55<,,===$##+oXXXXX X=4rjx",
"xtq53,,,,===###++ooooooo%4rx",
"jqq57777333331111111111,15qj",
"jrffhgddddgddgddgsdgdsddddqf",
"jrllgsggsssssssssssssssdjlwf",
"frlu>u0;6dpppspppgspspspskwh",
"jrly-y0*:sppssspspssssssskwh",
"frla0ii8edpdspgpsiipwrppsjwh",
"frk9-08&:gdpgssgpq3,<<3pdjwh",
"jrj9*86O2dddpdddt3@ o+<rdfwh",
"hrjgpsdrpdddddddt3+  X,pdjwh",
"jwjjddddgdddddddd3+  o<rdjwf",
"jwjhfdddddgdgddht3$+ o1rffwf",
"jwjhddfddddfdfddd3@   <rffwf",
"hwjjffffjfffffffd3@.o@3tfjwf",
"xrrdtttrtrttttrtr31<<<3wtrwf",
"xdrrrrrrrrrrrrrrrrrrrrrrrrfx"
};
