/* XPM */
static char *home_sel[] = {
/* columns rows colors chars-per-pixel */
"28 28 114 2",
"   c #656566",
".  c #676768",
"X  c #676869",
"o  c #696968",
"O  c #696A6A",
"+  c #696A6B",
"@  c #6A6B6B",
"#  c #6C6C6B",
"$  c #6D6D6B",
"%  c #6B6C6D",
"&  c #6F6F6D",
"*  c #6D6E6F",
"=  c #6E6E6F",
"-  c #70706E",
";  c #676D72",
":  c #6F7071",
">  c #667279",
",  c #69757C",
"<  c #6B767D",
"1  c #717171",
"2  c #727271",
"3  c #717272",
"4  c gray45",
"5  c #737471",
"6  c #747574",
"7  c gray46",
"8  c #767676",
"9  c #777777",
"0  c #777875",
"q  c #7A7A77",
"w  c #737779",
"e  c #74797B",
"r  c #777C7E",
"t  c #787879",
"y  c #797A78",
"u  c #7B7B79",
"i  c #7B7C7A",
"p  c #7C7D7B",
"a  c #7B7B7C",
"s  c #7B7C7C",
"d  c #7C7C7C",
"f  c #7E7E7C",
"g  c #7D7E7E",
"h  c gray50",
"j  c #80807D",
"k  c #80807F",
"l  c #677780",
"z  c #6B7A83",
"x  c #757C80",
"c  c #767E83",
"v  c #777F83",
"b  c #787E80",
"n  c #7F7F80",
"m  c #778085",
"M  c #7D8283",
"N  c #788286",
"B  c #768188",
"V  c #79848A",
"C  c #828281",
"Z  c #838382",
"A  c #828283",
"S  c #838383",
"D  c #848483",
"F  c #838384",
"G  c #808586",
"H  c #828687",
"J  c #848485",
"K  c #868786",
"L  c #878786",
"P  c #80878A",
"I  c #848688",
"U  c #878788",
"Y  c #858889",
"T  c #878889",
"R  c #85898A",
"E  c #868A8B",
"W  c #888888",
"Q  c #898988",
"!  c #88898A",
"~  c #8B8B8A",
"^  c #8B8B8B",
"/  c #8C8C8B",
"(  c #888C8D",
")  c #8B8D8E",
"_  c #8D8E8F",
"`  c #8E8E8E",
"'  c #90908F",
"]  c #8E9192",
"[  c gray57",
"{  c #979797",
"}  c #9E9E9D",
"|  c #A0A09F",
" . c #A0A0A0",
".. c gray64",
"X. c #A4A4A3",
"o. c #A4A4A4",
"O. c #A7A7A6",
"+. c #A7A7A7",
"@. c gray66",
"#. c #AEAEAD",
"$. c #B6B6B5",
"%. c #B7B7B7",
"&. c #BBBBBB",
"*. c gray80",
"=. c gray81",
"-. c #D5D5D5",
";. c #D8D8D8",
":. c gainsboro",
">. c gray89",
",. c #E7E7E7",
"<. c gray91",
"1. c #E9E9E9",
"2. c black",
"3. c None",
/* pixels */
"3.3.3.3.3.3.3.3.3.3.3.3.>.+. .;.3.3.3.3.3.3.3.3.3.3.3.3.",
"3.3.3.3.3.3.3.3.3.3.3.>.} ` [ } :.3.3.3.3.3.3.3.3.3.3.3.",
"3.3.3.3.3.3.3.3.3.3.>.| ' [ [ [ } >.=.@.@.@.@.@.&.,.3.3.",
"3.3.3.3.3.3.3.3.3.>. .` ' ` ` ` ` } { ` ' ` ` ' Q ;.3.3.",
"3.3.3.3.3.3.3.3.<. .` ' ` ` ` Q ` ` / [ ` Q Q ` ` ;.3.3.",
"3.3.3.3.3.3.3.,.+.^ ^ Q Q Q ` Q W W ` ^ Q Q Q ` &.3.3.3.",
"3.3.3.3.3.3.,.+.Q Q Q U U Q U U F W R Q W J J / =.3.3.3.",
"3.3.3.3.3.,.@.Q Q J Q J J J F F F D D k S S D Q =.3.3.3.",
"3.3.3.3.1.@.J L J J F D S S g S M k k k s v g J =.3.3.3.",
"3.3.3.1.@.L J k S S g g g g d d s i s t t q g J =.3.3.3.",
"3.3.<.O.D D e d t 9 9 6 7 1 4 - = % % : 5 : w g  .<.3.3.",
"3.1.O.g p q 9 4 4 4 = 4 % % % + % X . . X . . 4 t o.1.3.",
"3.$.g g 0 t t t 9 4 4 4 1 = = $ % % + + + + + + 6 t #.3.",
"1.Q k f s n i i t s t t t t q 9 0 0 9 0 0 0 0 e q p D >.",
"<.Q ~ / Q Q Q W Q Q U R R U L W R U W R W W U R Q Q D :.",
",.` ' [ ) E R R Q R R R W R U U U R U U R U Q R ) [ D :.",
",.Q [ V z N N < x U P P U U U U P J V U U P J U R ' F :.",
",.` [ m l m v > x R U U U U W V U R U U U U P U J ) F :.",
",.Q ] P N P G v n E U U V W U U P U A F F F F U U ` F :.",
",.Q ' m < b b ; e R R R W W U U U a t 7 9 t t F Q ` J :.",
"<.^ ' v > N a % w U E W U U Q L F d $ + . + q S Q ` D :.",
"<.U ) E M R J M U Q U R ^ E Q R L q $     % 9 S R ) F :.",
"<.U ' W Q E Q ) R W R U R W R Q Q t $     + q S Q ` D :.",
"<.W ^ / / ~ Q R ^ W ^ ^ W ^ ` Q Q t 4 +   + q F Q / D :.",
",.U Q ^ Q Q Q Q ` Q Q ` Q Q Q Q Q q = X   + q D Q Q J :.",
",.U ' ^ Q ` ` Q Q ) / Q / / ` Q Q p - + + $ q D ~ ` D :.",
"3.[ F F J J J F J F J J J J J F J t q 9 0 9 q Z J D Q 1.",
"3.-.@.@. .o.+.o.@.o. .+.X.X.+. .X. .+.| @.| X.X.X.+.=.3."
};
