/* XPM */
static char *home[] = {
/* columns rows colors chars-per-pixel */
"28 28 64 1",
"  c #ABACAD",
". c #AFB0AF",
"X c #B0B0AF",
"o c #ADAFB0",
"O c #AFB1B1",
"+ c #ACB7BE",
"@ c #B3B4B3",
"# c #B7B8B6",
"$ c #BABAB7",
"% c #B6B7B8",
"& c #B7B8BA",
"* c #BBBCBC",
"= c #C0C1BE",
"- c #AEBBC3",
"; c #ABBECA",
": c #BFBFC0",
"> c #ADC0CB",
", c #AEC5D3",
"< c #B2C6D1",
"1 c #B3CDDB",
"2 c gray77",
"3 c #C9C9C6",
"4 c #C0C7CA",
"5 c #C2CACE",
"6 c #CDCDCB",
"7 c #CFD0CC",
"8 c #D1D1CE",
"9 c #C0CCD2",
"0 c #C6D1D7",
"q c #CBD1D3",
"w c #C6D5DD",
"e c #C8D6DC",
"r c #CAD8DE",
"t c #D3D4D3",
"y c #D9D9D7",
"u c #D7D7D8",
"i c #D2D9DB",
"p c #DBDCDC",
"a c #DFE0DF",
"s c #E0E0DF",
"d c #C5D8E3",
"f c #CADBE4",
"g c #D7DFE1",
"h c #D6E1E5",
"j c #DEE2E4",
"k c #E4E5E5",
"l c #E7E8E6",
"z c #E8E8E7",
"x c #E3E6E8",
"c c #E7E8E9",
"v c #EAEAEA",
"b c #EFF0EF",
"n c #F0F0EF",
"m c #EEF2F4",
"M c gray95",
"N c None",
"B c black",
"V c black",
"C c black",
"Z c black",
"A c black",
"S c black",
"D c black",
"F c black",
/* pixels */
"NNNNNNNNNNNNvlvvNNNNNNNNNNNN",
"NNNNNNNNNNNvknMvvNNNNNNNNNNN",
"NNNNNNNNNNvlnMMMvvvsllkklvNN",
"NNNNNNNNNvkvMvnMnllnvnvnkzNN",
"NNNNNNNNvlvvvvvvnvvnvvknklNN",
"NNNNNNNzkvvllzzzkvvvlskvvNNN",
"NNNNNNvkllkkkkksaakksaakvNNN",
"NNNNNvkklsaaaaspppppuupkzNNN",
"NNNNzkskppppuuuuuttttqtavNNN",
"NNNvkssuyyuutttt88q6668gvNNN",
"NNvsyyt6622::*&&&&&-:::usvNN",
"Nvptt22::::*&%%@Oo    o:7avN",
"Nstt32322::*:&%@@@@@o@@@:7sN",
"vytt8tq8866636333323332338tv",
"vplzcxkxkkxxkxkkkkkkxjkklkyl",
"lsMMxxxjkkgkkgkkxgxgkjgxvnyl",
"vaMf1dr<0jjgjjjkagkagjjjkbuk",
"lpMd1d0;9kjjjjjjjjjkjjjjgngk",
"vpMhdgg0gjxgjjkjjpgppggaknuv",
"zpne<eq-5xjkjjjkjt32238pkvuk",
"vpnw;0q+2xxkkkkks6$.X@3pkvpl",
"zpvxgkkpjkkkkkkks6@  X3akvuv",
"vpvvxzxkkkkkkxkks8@  X3pkvyz",
"zyvzkkxkckkxkkkls6:@ X3pkvyz",
"vyvzzklklkkllkklk6#  .3skvyl",
"zpvvzzzzvzcvzzzzk8*XX#3svvyl",
"Nyssssssssaassssp763336pssyl",
"NlagpppappppappgpppyppppppzN"
};
