/* XPM */
static char *new[] = {
/* columns rows colors chars-per-pixel */
"32 32 128 2",
"   c black",
".  c gray1",
"X  c #070707",
"o  c gray4",
"O  c #0B0B0B",
"+  c gray5",
"@  c gray6",
"#  c #202020",
"$  c gray14",
"%  c #252525",
"&  c #282828",
"*  c gray38",
"=  c #6A6A6A",
"-  c gray43",
";  c #717171",
":  c #727272",
">  c gray45",
",  c #747474",
"<  c #767676",
"1  c #777777",
"2  c gray47",
"3  c #797979",
"4  c #818181",
"5  c gray51",
"6  c #838383",
"7  c gray52",
"8  c #868686",
"9  c gray53",
"0  c #888888",
"q  c #8D8D8D",
"w  c gray56",
"e  c #979797",
"r  c #989898",
"t  c #9B9B9B",
"y  c #9D9D9D",
"u  c gray62",
"i  c #A4A4A4",
"p  c #A5A5A5",
"a  c gray69",
"s  c #B7B7B7",
"d  c #B9B9B9",
"f  c gray73",
"g  c #BCBCBC",
"h  c gray74",
"j  c #C1C1C1",
"k  c gray77",
"l  c LightGray",
"z  c #D5D5D5",
"x  c #D8D8D8",
"c  c gray85",
"v  c gray86",
"b  c #DFDFDF",
"n  c gray88",
"m  c #E1E1E1",
"M  c #E2E2E2",
"N  c gray89",
"B  c gray90",
"V  c #E6E6E6",
"C  c #E7E7E7",
"Z  c #E9E9E9",
"A  c gray92",
"S  c #ECECEC",
"D  c gray93",
"F  c #EEEEEE",
"G  c gray94",
"H  c #F1F1F1",
"J  c gray95",
"K  c #F3F3F3",
"L  c #F6F6F6",
"P  c gray97",
"I  c #F8F8F8",
"U  c #F9F9F9",
"Y  c #FBFBFB",
"T  c gray99",
"R  c #FDFDFD",
"E  c #FEFEFE",
"W  c gray100",
"Q  c None",
"!  c black",
"~  c black",
"^  c black",
"/  c black",
"(  c black",
")  c black",
"_  c black",
"`  c black",
"'  c black",
"]  c black",
"[  c black",
"{  c black",
"}  c black",
"|  c black",
" . c black",
".. c black",
"X. c black",
"o. c black",
"O. c black",
"+. c black",
"@. c black",
"#. c black",
"$. c black",
"%. c black",
"&. c black",
"*. c black",
"=. c black",
"-. c black",
";. c black",
":. c black",
">. c black",
",. c black",
"<. c black",
"1. c black",
"2. c black",
"3. c black",
"4. c black",
"5. c black",
"6. c black",
"7. c black",
"8. c black",
"9. c black",
"0. c black",
"q. c black",
"w. c black",
"e. c black",
"r. c black",
"t. c black",
"y. c black",
"u. c black",
/* pixels */
"Q Q Q Q Q Q Q Q Q Q Q Q Q Q Q Q Q Q Q Q Q Q Q Q Q Q Q Q Q Q Q Q ",
"Q Q Q Q Q Q Q Q Q Q Q Q Q Q Q Q Q Q Q Q Q Q Q Q Q Q Q Q Q Q Q Q ",
"Q Q Q Q c t 3 < < < < < < < < < < < < < < < < < < < 5 f A Q Q Q ",
"Q Q Q N 3 t z c c c c c c c c c c c c c c c c c c c k ; a Q Q Q ",
"Q Q Q f 7 E E E E E E E E E E E E E E E E E E E E E E l < A Q Q ",
"Q Q Q p y E E E E E E E E E E E E E E E E E E E E E E A - N Q Q ",
"Q Q Q p y E E E E E E E E E E E E E E E E E E E E E E F ; N Q Q ",
"Q Q Q p y E E E E I E E E E E I E E E E E E E E E E E F ; N Q Q ",
"Q Q Q p y E E A A A C A A A A C A C A A C A A A F E E F ; N Q Q ",
"Q Q Q p y E E L L L L L L L L L L L L L L L L L I E E A ; N Q Q ",
"Q Q Q p y E E G G F F F G G G G F F G G F F F F L E E F ; N Q Q ",
"Q Q Q p y E E G F F F F F F F F F F F F F F F F G E E F ; N Q Q ",
"Q Q Q p y E E I I I L L I I L L I L L L L I I L I E E A ; N Q Q ",
"Q Q Q p y E E F F F F F F F F F F F F F F F F F G E E A ; N Q Q ",
"Q Q Q p y E E E E E E E E E E E E E E E E E E E E E E F ; N Q Q ",
"Q Q Q p y E E E E E E E E E E E E E E E E E E E E E E F ; N Q Q ",
"Q Q Q p y E E E E E E E E E E E E E E E E E E E E E E F ; N Q Q ",
"Q Q Q p y E E E E E E E E E E E E E E E E E E E E E E A ; N Q Q ",
"Q Q Q p y E E E E E E E E E E E E E E E E E E E E E E F ; N Q Q ",
"Q Q Q p y E E E E E E E E E E E E E E E E E E E E E E F ; N Q Q ",
"Q Q Q p y E E E E E E E E E E E E E E E E E E E E E E A ; N Q Q ",
"Q Q Q p y E E E E E E E E E E E E E E E E E E E E E E A ; N Q Q ",
"Q Q Q p y E E E E E E E E E E E E E E E E E E E E E E F ; N Q Q ",
"Q Q Q s < k g g g g c E E E E E E E E E E E E E E E E F ; N Q Q ",
"Q Q Q C 7 % + O O   - E E E E E E E E E E E E E E E E F ; N Q Q ",
"Q Q Q Q C 7 # O     = E E E E E E E E E E E E E E E E A ; N Q Q ",
"Q Q Q Q Q C 7 % +   = E E E E E E E E E E E E E E E E F ; N Q Q ",
"Q Q Q Q Q Q C 7 & O = E E E E E E E E E E E E E E E E N ; C Q Q ",
"Q Q Q Q Q Q Q C 0 & < L L L L L L I L L L L L L L I F q e Q Q Q ",
"Q Q Q Q Q Q Q Q C 7 * 5 5 5 5 5 5 5 5 5 5 5 5 5 5 5 ; q N Q Q Q ",
"Q Q Q Q Q Q Q Q Q C b b N b b b b b N b b b b b b b N A Q Q Q Q ",
"Q Q Q Q Q Q Q Q Q Q Q Q Q Q Q Q Q Q Q Q Q Q Q Q Q Q Q Q Q Q Q Q "
};
