/* XPM */
static char *new[] = {
/* columns rows colors chars-per-pixel */
"28 44 58 1",
"  c black",
". c gray2",
"X c gray3",
"o c #0C0C0C",
"O c #111111",
"+ c #131313",
"@ c #181818",
"# c #1E1E1E",
"$ c #232323",
"% c #282828",
"& c #2C2C2C",
"* c gray19",
"= c #353535",
"- c #393939",
"; c #3C3C3C",
": c #434343",
"> c #444444",
", c #484848",
"< c gray31",
"1 c #515151",
"2 c #565656",
"3 c gray35",
"4 c gray37",
"5 c gray38",
"6 c #646464",
"7 c gray42",
"8 c gray43",
"9 c gray44",
"0 c #747474",
"q c gray47",
"w c #7C7C7C",
"e c #808080",
"r c #898989",
"t c gray56",
"y c #909090",
"u c gray60",
"i c #9D9D9D",
"p c #A9A9A9",
"a c gray70",
"s c #B4B4B4",
"d c #BBBBBB",
"f c gray",
"g c #C0C0C0",
"h c #C1C1C1",
"j c gray80",
"k c LightGray",
"l c #DADADA",
"z c gray87",
"x c gray88",
"c c #E6E6E6",
"v c #EAEAEA",
"b c #ECECEC",
"n c #F1F1F1",
"m c gray96",
"M c gray98",
"N c gray100",
"B c black",
"V c None",
/* pixels */
"VVg8444444444444444444445txV",
"Vk7fvbbvbvbvbbbvbvvbvvvbzryV",
"ViiNNNNNNNNNNNNNNNNNNNNNNb9z",
"VtsNNNNNNNNNNNNNNNNNNNNNNm0k",
"VtsNNNNNNNNNNNNNNNNNNNNNNM9k",
"VtsNNMMMMMMMMMMMMMMMMMMNNM0k",
"VtsNMvvvvcvvvvvvvvvvvvvNNm0k",
"VtsNMmmmmmmmmmmmmmmmmmmNNM0k",
"VtsNMnnnnnnnnnnnnnnnnnnMNm0k",
"VtsNMbbbbbbbbbbbbbbbbbnNNM0k",
"VtsNNMmMmMMMMmMmMMMmMmMNNM9k",
"VtsNMbbvbbbvbbvvbvbbbbbNNm0k",
"VtsNNNNNNNNNNNNNNNNNNNNNNm9k",
"VtsNNNNNNNNNNNNNNNNNNNNNNM0k",
"VtsNNNNNNNNNNNNNNNNNNNNNNM0k",
"VtsNNNNNNNNNNNNNNNNNNNNNNm0k",
"VtsNNNNNNNNNNNNNNNNNNNNNNm0k",
"VtsNNNNNNNNNNNNNNNNNNNNNNM0k",
"VtsNNNNNNNNNNNNNNNNNNNNNNM9k",
"VtsNNNNNNNNNNNNNNNNNNNNNNm0k",
"VtsNNNNNNNNNNNNNNNNNNNNNNM9k",
"VirkjjjjcNNNNNNNNNNNNNNNNM0k",
"Vz7$+ooowNNNNNNNNNNNNNNNNm0k",
"VVl6@.  qNNNNNNNNNNNNNNNNM0k",
"VVVl6@X qNNNNNNNNNNNNNNNNm0k",
"VVVVl7$.qNNNNNNNNNNNNNNNNn9k",
"VVVVVl7#eNNNNNNNNNNNNNNNNawv",
"VVVVVVl2<ewwweweewewewee85jV",
"VVVVVVVVVVVVVVVVVVVVVVVVVVVV",
"VVVVVVVVVVVVVVVVVVVVVVVVVVVV",
"VVVVVVVVVVVVVVVVVVVVVVVVVVVV",
"VVVVVVVVVVVVVVVVVVVVVVVVVVVV",
"VVV eVVV VVVVVVVVVVVVVVVVVVV",
"VVV XjVV VVVVVVVVVVVVVVVVVVV",
"VVV 5:vV VVk>.$fV#kV4,Vz%VVV",
"VVV z+iV VV1pxp*V4yv&+vi7VVV",
"VVV Vi+z VV.    Vu1g2;f2aVVV",
"VVV Vv>5 VV+zVVVVl+wuqw$cVVV",
"VVV VVjo VV31kxdVV*@la@3VVVV",
"VVV VVVw VVz4oX-VV8=VcXiVVVV",
"VVVVVVVVVVVVVVVVVVVVVVVVVVVV",
"VVVVVVVVVVVVVVVVVVVVVVVVVVVV",
"VVVVVVVVVVVVVVVVVVVVVVVVVVVV",
"VVVVVVVVVVVVVVVVVVVVVVVVVVVV"
};
