/* XPM */
static char *new_sel[] = {
/* columns rows colors chars-per-pixel */
"28 28 38 1",
"  c black",
". c #060606",
"X c #090909",
"o c #0E0E0E",
"O c #111111",
"+ c #161616",
"@ c gray18",
"# c #434343",
"$ c gray28",
"% c #494949",
"& c gray30",
"* c #515151",
"= c gray34",
"- c #585858",
"; c #606060",
": c #656565",
"> c gray42",
", c #6C6C6C",
"< c #727272",
"1 c #7B7B7B",
"2 c #7E7E7E",
"3 c #868686",
"4 c gray54",
"5 c gray55",
"6 c #939393",
"7 c #979797",
"8 c gray60",
"9 c #9D9D9D",
"0 c #C0C0C0",
"q c gray80",
"w c LightGray",
"e c #D7D7D7",
"r c #DADADA",
"t c gainsboro",
"y c gray88",
"u c gray91",
"i c black",
"p c None",
/* pixels */
"pp0:%$$%$$%%$%$$%$$%$$%%&4yp",
"pw=<555555555555555555553=5p",
"p9;88888888888888888888885-t",
"p5,88888888888888887888886=e",
"p5,88878778888887887878887=w",
"p5,88777777777777777777786=w",
"p5,87545445555445555445786=w",
"p5,87666666666666666667887*w",
"p5,87665656655656566656886=w",
"p5,87555655556565555655786=w",
"p5,87777776777767767777887*w",
"p5>77555455555555555455776=w",
"p5,88888788888788888788886=w",
"p5,88888888888888888888887*w",
"p5,88888888888888888888886=w",
"p5,88888888888888888888887*w",
"p5,88888888888888888888887*w",
"p5,88888888888888888888876=w",
"p5,88888888888888888888877*w",
"p5,88888888888888888888877=w",
"p5,88888888888888888888887*w",
"p8=22111488888888888888876=w",
"pt:+oXX.&88888888888888887=w",
"ppr;o   $88888888888888876=w",
"pppr;O. %88888888888888886=w",
"ppppt;+ %88888888888888886=e",
"pppppr:+&8888888887888887><u",
"ppppppr*@&&%&&%&&&&%&&&%#-qp"
};
