/* XPM */
static char *new_dis[] = {
/* columns rows colors chars-per-pixel */
"32 32 128 2",
"   c black",
".  c #0C0C0C",
"X  c #131313",
"o  c #161616",
"O  c #1E1E1E",
"+  c gray13",
"@  c gray21",
"#  c #3E3E3E",
"$  c #3F3F3F",
"%  c gray25",
"&  c #414141",
"*  c gray28",
"=  c #494949",
"-  c gray29",
";  c #4B4B4B",
":  c #565656",
">  c #646464",
",  c gray46",
"<  c #7B7B7B",
"1  c gray49",
"2  c #7E7E7E",
"3  c gray50",
"4  c #808080",
"5  c #818181",
"6  c gray51",
"7  c #848484",
"8  c gray53",
"9  c #888888",
"0  c gray54",
"q  c #8B8B8B",
"w  c gray57",
"e  c #989898",
"r  c #9B9B9B",
"t  c gray62",
"y  c gray63",
"u  c #A7A7A7",
"i  c #A9A9A9",
"p  c gray71",
"a  c #B7B7B7",
"s  c #C0C0C0",
"d  c #C3C3C3",
"f  c gray77",
"g  c #C5C5C5",
"h  c #CBCBCB",
"j  c #CDCDCD",
"k  c #CECECE",
"l  c #D0D0D0",
"z  c gray82",
"x  c #D5D5D5",
"c  c #D8D8D8",
"v  c gray85",
"b  c #DADADA",
"n  c gainsboro",
"m  c #DDDDDD",
"M  c gray88",
"N  c #E1E1E1",
"B  c #E2E2E2",
"V  c #E4E4E4",
"C  c gray90",
"Z  c gray91",
"A  c #E9E9E9",
"S  c #EAEAEA",
"D  c #EFEFEF",
"F  c gray94",
"G  c #F1F1F1",
"H  c gray95",
"J  c #F3F3F3",
"K  c #F4F4F4",
"L  c #F6F6F6",
"P  c gray97",
"I  c #F9F9F9",
"U  c gray98",
"Y  c #FBFBFB",
"T  c gray99",
"R  c #FEFEFE",
"E  c gray100",
"W  c None",
"Q  c black",
"!  c black",
"~  c black",
"^  c black",
"/  c black",
"(  c black",
")  c black",
"_  c black",
"`  c black",
"'  c black",
"]  c black",
"[  c black",
"{  c black",
"}  c black",
"|  c black",
" . c black",
".. c black",
"X. c black",
"o. c black",
"O. c black",
"+. c black",
"@. c black",
"#. c black",
"$. c black",
"%. c black",
"&. c black",
"*. c black",
"=. c black",
"-. c black",
";. c black",
":. c black",
">. c black",
",. c black",
"<. c black",
"1. c black",
"2. c black",
"3. c black",
"4. c black",
"5. c black",
"6. c black",
"7. c black",
"8. c black",
"9. c black",
"0. c black",
"q. c black",
"w. c black",
"e. c black",
"r. c black",
"t. c black",
"y. c black",
"u. c black",
/* pixels */
"W W W W W W W W W W W W W W W W W W W W W W W W W W W W W W W W ",
"W W W W W W W W W W W W W W W W W W W W W W W W W W W W W W W W ",
"W W W W W W W W W W W W W W W W W W W W W W W W W W W W W W W W ",
"W W W W W W M y 4 1 4 1 4 1 4 1 1 4 1 4 4 1 1 4 4 w z W W W W W ",
"W W W W W A q e b m m m m m m m m m m m m m m m b a , b W W W W ",
"W W W W W x 1 P R R R R R R R R R R R R R R R R R R y i W W W W ",
"W W W W W h q R R R R R R R R R R R R R R R R R R R a e W W W W ",
"W W W W W h 8 R R R R R R R R R R R R R R R R R R R a e W W W W ",
"W W W W W h q R R U P H H H P H P H H H H H H H U R a e W W W W ",
"W W W W W h 8 R R U H H H H H D H H H H H H H H U R a r W W W W ",
"W W W W W h q R R U D D D D D D D D D D D H D H U R a e W W W W ",
"W W W W W h 8 R R U H H H H H H H H H H H H H H U R a e W W W W ",
"W W W W W h 8 R R U P H H P H P H H P H H H P H U R a r W W W W ",
"W W W W W h q R R U D D D D D D D D D D D D D D U R a e W W W W ",
"W W W W W h q R R R R R U R R R R R R U R R R R R R a e W W W W ",
"W W W W W h 8 R R R R R R R R R R R R R R R R R R R a e W W W W ",
"W W W W W h q R R R R R R R R R R R R R R R R R R R a e W W W W ",
"W W W W W h 8 R R R R R R R R R R R R R R R R R R R a r W W W W ",
"W W W W W h 8 R R R R R R R R R R R R R R R R R R R a e W W W W ",
"W W W W W h q R R R R R R R R R R R R R R R R R R R a e W W W W ",
"W W W W W h q R R R R R R R R R R R R R R R R R R R a r W W W W ",
"W W W W W h 8 R R R R R R R R R R R R R R R R R R R a r W W W W ",
"W W W W W h q R R R R R R R R R R R R R R U P P P U i r W W W W ",
"W W W W W h 8 R R R R R R R R R R R R R A : # # & ; > k W W W W ",
"W W W W W h q R R R R R R R R R R R R R M O     . & g W W W W W ",
"W W W W W h 8 R R R R R R R R R R R R R M O   o * g W W W W W W ",
"W W W W W z 4 R R R R R R R R R R R R R M + o - g W W W W W W W ",
"W W W W W V < s P P U P U P P P P U P U b @ ; g W W W W W W W W ",
"W W W W W W k 4 8 q q q q q q q q q q q 4 > g W W W W W W W W W ",
"W W W W W W W A V M m M M V M M M M M M M V A W W W W W W W W W ",
"W W W W W W W W W W W W W W W W W W W W W W W W W W W W W W W W ",
"W W W W W W W W W W W W W W W W W W W W W W W W W W W W W W W W "
};
