/* XPM */
static char *new_sel[] = {
/* columns rows colors chars-per-pixel */
"28 28 40 1",
"  c black",
". c #060606",
"X c #090909",
"o c #0C0C0C",
"O c gray7",
"+ c gray13",
"@ c gray17",
"# c gray18",
"$ c gray20",
"% c #373737",
"& c #393939",
"* c #3C3C3C",
"= c #414141",
"- c #484848",
"; c gray30",
": c gray32",
"> c #565656",
", c gray37",
"< c DimGray",
"1 c #6C6C6C",
"2 c #727272",
"3 c #7B7B7B",
"4 c #7E7E7E",
"5 c #868686",
"6 c #898989",
"7 c gray55",
"8 c #939393",
"9 c gray59",
"0 c gray60",
"q c gray62",
"w c #B2B2B2",
"e c gray",
"r c gray78",
"t c #CBCBCB",
"y c gray80",
"u c #D0D0D0",
"i c #D7D7D7",
"p c #E7E7E7",
"a c black",
"s c None",
/* pixels */
"ssq$##################$#@:is",
"se$2777777777777777777775:>s",
"s<,00000000000000000000007%u",
"s>100000000000000000000009*e",
"s>100000000000000000000009*e",
"s>100999999900999999999099&e",
"s>109777777777777777777008*e",
"s>109888888888888888888909*e",
"s>109878878877887878788908*e",
"s>109787877778778787778909*e",
"s>109999999999999999999009*e",
"s>109777777777777777778908&e",
"s>100900000000000090000008&e",
"s>100000000000000000000009*e",
"s>100000000000000000000099*e",
"s>100000000000000000000009&e",
"s>100000000000000000000009&e",
"s>100000000000000000000008*e",
"s>100000000000000000000009&e",
"s>100000000000000000000009*e",
"s><00000000000000000000009&e",
"s<:43333600000000000000008*e",
"su$OoXX.;00000000000000009*e",
"sst#o   -00000000000000099*e",
"sssy#o. -00000000000000008*e",
"ssssy#O -00000000000000008&r",
"sssssy#O;0000000000000000<*p",
"sssssst+#;;;;-;;-;;;;;;;=#ws"
};
