/* XPM */
static char *new_sel[] = {
/* columns rows colors chars-per-pixel */
"32 32 128 2",
"   c black",
".  c #070707",
"X  c #0C0C0C",
"o  c gray5",
"O  c gray7",
"+  c gray8",
"@  c #191919",
"#  c #1B1B1B",
"$  c gray13",
"%  c #252525",
"&  c gray15",
"*  c #2C2C2C",
"=  c #2D2D2D",
"-  c gray18",
";  c #343434",
":  c #3A3A3A",
">  c #3E3E3E",
",  c #414141",
"<  c gray26",
"1  c #434343",
"2  c #444444",
"3  c gray27",
"4  c #484848",
"5  c gray29",
"6  c #4C4C4C",
"7  c gray31",
"8  c gray34",
"9  c #5A5A5A",
"0  c #606060",
"q  c #646464",
"w  c #656565",
"e  c DimGray",
"r  c #6C6C6C",
"t  c #6D6D6D",
"y  c gray43",
"u  c gray45",
"i  c #777777",
"p  c gray51",
"a  c #838383",
"s  c #848484",
"d  c gray52",
"f  c gray53",
"g  c #8B8B8B",
"h  c gray56",
"j  c #909090",
"k  c gray57",
"l  c #929292",
"z  c gray58",
"x  c #959595",
"c  c gray59",
"v  c #979797",
"b  c #989898",
"n  c gray60",
"m  c #A2A2A2",
"M  c #A4A4A4",
"N  c #A5A5A5",
"B  c gray65",
"V  c #AFAFAF",
"C  c gray69",
"Z  c #B4B4B4",
"A  c gray71",
"S  c #B9B9B9",
"D  c gray73",
"F  c gray76",
"G  c #C8C8C8",
"H  c #D7D7D7",
"J  c #DADADA",
"K  c gray86",
"L  c #DFDFDF",
"P  c gray88",
"I  c gray90",
"U  c #E9E9E9",
"Y  c #EAEAEA",
"T  c None",
"R  c black",
"E  c black",
"W  c black",
"Q  c black",
"!  c black",
"~  c black",
"^  c black",
"/  c black",
"(  c black",
")  c black",
"_  c black",
"`  c black",
"'  c black",
"]  c black",
"[  c black",
"{  c black",
"}  c black",
"|  c black",
" . c black",
".. c black",
"X. c black",
"o. c black",
"O. c black",
"+. c black",
"@. c black",
"#. c black",
"$. c black",
"%. c black",
"&. c black",
"*. c black",
"=. c black",
"-. c black",
";. c black",
":. c black",
">. c black",
",. c black",
"<. c black",
"1. c black",
"2. c black",
"3. c black",
"4. c black",
"5. c black",
"6. c black",
"7. c black",
"8. c black",
"9. c black",
"0. c black",
"q. c black",
"w. c black",
"e. c black",
"r. c black",
"t. c black",
"y. c black",
"u. c black",
/* pixels */
"T T T T T T T T T T T T T T T T T T T T T T T T T T T T T T T T ",
"T T T T T T T T T T T T T T T T T T T T T T T T T T T T T T T T ",
"T T T T T T T T T T T T T T T T T T T T T T T T T T T T T T T T ",
"T T T T T T H r 1 1 1 1 1 1 1 1 1 > 1 1 > 1 1 1 1 8 D T T T T T ",
"T T T T T U 7 9 a s s s s s s a s s s s s s s s s r : G T T T T ",
"T T T T T F 1 z n n n n n n n n n n n n n n n n n n 0 i T T T T ",
"T T T T T C 7 z n n n n n n n n n n n n n n n n n n r w T T T T ",
"T T T T T V 7 n n n n n n n n n n n n n n n n n n n r w T T T T ",
"T T T T T V 7 n n z z l l l l l l l l l l l l l z n r w T T T T ",
"T T T T T V 5 n n z l l h l l h h l h l h l h l z n r w T T T T ",
"T T T T T V 5 n n z h h h h h h h h h h h h h h n n r w T T T T ",
"T T T T T V 7 n n z l l h l l l l l h l l l h l z n r w T T T T ",
"T T T T T C 5 n n z l l l l l l l l l l l l l l n n r w T T T T ",
"T T T T T C 7 n n z h h h l h l h h h h h l l h z n r w T T T T ",
"T T T T T C 7 n n n n n z n z n n z z n n z n z n n r w T T T T ",
"T T T T T C 5 n n n n n n n n n n n n n n n n n n n r w T T T T ",
"T T T T T V 5 n n n n n n n n n n n n n n n n n n n r w T T T T ",
"T T T T T V 7 n n n n n n n n n n n n n n n n n n n r w T T T T ",
"T T T T T V 5 n n n n n n n n n n n n n n n n n n n r w T T T T ",
"T T T T T V 7 n n n n n n n n n n n n n n n n n n n r w T T T T ",
"T T T T T C 7 n n n n n n n n n n n n n n n n n n n r w T T T T ",
"T T T T T V 5 n n n n n n n n n n n n n n n n n n n r w T T T T ",
"T T T T T V 7 n n n n n n n n n n n n n n z z z z z w e T T T T ",
"T T T T T V 5 n n n n n n n n n n n n n g ; % % % - - A T T T T ",
"T T T T T C 7 n n n n n n n n n n n n n s O     . + B T T T T T ",
"T T T T T C 5 n n n n n n n n n n n n n g O   o # B T T T T T T ",
"T T T T T D 2 n n n n n n n n n n n n n s + o # B T T T T T T T ",
"T T T T T L > i z z z l z z z z z z z z a $ # B T T T T T T T T ",
"T T T T T T A 1 2 7 5 5 5 5 5 5 5 5 5 5 2 - m T T T T T T T T T ",
"T T T T T T T I J J J J J J J J J J J J J L U T T T T T T T T T ",
"T T T T T T T T T T T T T T T T T T T T T T T T T T T T T T T T ",
"T T T T T T T T T T T T T T T T T T T T T T T T T T T T T T T T "
};
