/* XPM */
static char *new_sel[] = {
/* columns rows colors chars-per-pixel */
"32 32 128 2",
"   c black",
".  c #020202",
"X  c #040404",
"o  c #060606",
"O  c gray3",
"+  c #090909",
"@  c #0E0E0E",
"#  c #101010",
"$  c #111111",
"%  c #131313",
"&  c #2D2D2D",
"*  c #373737",
"=  c #3A3A3A",
"-  c #3C3C3C",
";  c gray24",
":  c gray25",
">  c gray26",
",  c #434343",
"<  c gray27",
"1  c #4B4B4B",
"2  c #4C4C4C",
"3  c gray30",
"4  c #4E4E4E",
"5  c #535353",
"6  c #555555",
"7  c gray36",
"8  c #5D5D5D",
"9  c gray37",
"0  c #5F5F5F",
"q  c gray38",
"w  c #717171",
"e  c gray45",
"r  c #747474",
"t  c #767676",
"y  c gray50",
"u  c #808080",
"i  c gray51",
"p  c #848484",
"a  c gray53",
"s  c gray55",
"d  c #8D8D8D",
"f  c #8E8E8E",
"g  c gray56",
"h  c #909090",
"j  c gray57",
"k  c #929292",
"l  c #939393",
"z  c gray58",
"x  c #959595",
"c  c gray59",
"v  c #979797",
"b  c #989898",
"n  c gray60",
"m  c #CDCDCD",
"M  c #D5D5D5",
"N  c #D8D8D8",
"B  c gray85",
"V  c gray86",
"C  c gainsboro",
"Z  c #E1E1E1",
"A  c #E2E2E2",
"S  c #E4E4E4",
"D  c #E7E7E7",
"F  c gray91",
"G  c None",
"H  c black",
"J  c black",
"K  c black",
"L  c black",
"P  c black",
"I  c black",
"U  c black",
"Y  c black",
"T  c black",
"R  c black",
"E  c black",
"W  c black",
"Q  c black",
"!  c black",
"~  c black",
"^  c black",
"/  c black",
"(  c black",
")  c black",
"_  c black",
"`  c black",
"'  c black",
"]  c black",
"[  c black",
"{  c black",
"}  c black",
"|  c black",
" . c black",
".. c black",
"X. c black",
"o. c black",
"O. c black",
"+. c black",
"@. c black",
"#. c black",
"$. c black",
"%. c black",
"&. c black",
"*. c black",
"=. c black",
"-. c black",
";. c black",
":. c black",
">. c black",
",. c black",
"<. c black",
"1. c black",
"2. c black",
"3. c black",
"4. c black",
"5. c black",
"6. c black",
"7. c black",
"8. c black",
"9. c black",
"0. c black",
"q. c black",
"w. c black",
"e. c black",
"r. c black",
"t. c black",
"y. c black",
"u. c black",
/* pixels */
"G G G G G G G G G G G G G G G G G G G G G G G G G G G G G G G G ",
"G G G G G G G G G G G G G G G G G G G G G G G G G G G G G G G G ",
"G G G G m q ; = = = = = = = = = = = = = = = = = = = < l D G G G ",
"G G G V = 7 i i i i i i i i i i i i i i i i i i i i r ; p G G G ",
"G G G l 1 n n n n n n n n n n n n n n n n n n n n n n y = D G G ",
"G G G r 8 n n n n n n n n n n n n n n n n n n n n n n f * C G G ",
"G G G e 8 n n n n n n n n n n n n n n n n n n n n n n f * V G G ",
"G G G e 8 n n v n v v v n v v v n v v n v v n v n n n f * V G G ",
"G G G e 8 n v s s s s s s s s s s s s s s f s s f n n f * V G G ",
"G G G e 8 n n v l l l l l v l l l l l v l l l l v n n f * V G G ",
"G G G e 8 n v l f l f l l f l f f l l f f l f l l v n f * V G G ",
"G G G e 8 v v f f f f f f f f f f f f f f f f f f n n f * V G G ",
"G G G e 8 n v v v v v l l v v l v l v l v l v l v n n f * V G G ",
"G G G e 8 n v l f f f f f f f f f f f f f f f f f n n f * V G G ",
"G G G e 8 n n n v v n n v v n n n n v n n n n n n n n f * V G G ",
"G G G e 8 n n n n n n n n n n n n n n n n n n n n n n f * V G G ",
"G G G e 8 n n n n n n n n n n n n n n n n n n n n n n f * V G G ",
"G G G e 8 n n n n n n n n n n n n n n n n n n n n n n f * V G G ",
"G G G r 8 n n n n n n n n n n n n n n n n n n n n n n f * V G G ",
"G G G r 8 n n n n n n n n n n n n n n n n n n n n n n f * V G G ",
"G G G e 8 n n n n n n n n n n n n n n n n n n n n n n f * V G G ",
"G G G e 8 n n n n n n n n n n n n n n n n n n n n n n f * V G G ",
"G G G e 8 v n v n n n n n n n n n n n n n n n n n n n f * V G G ",
"G G G f , e e w e e i n n n n n n n n n n n n n n n n f * V G G ",
"G G G A 2 % O o o   , n n n n n n n n n n n n n n n n f = V G G ",
"G G G G A 1 @ o     , v n n n n n n n n n n n n n n n f * V G G ",
"G G G G G A 1 @ o   ; n n n n n n n n n n n n n n n n f * C G G ",
"G G G G G G A 2 % o , v n n n n n n n n n n n n n n n p * A G G ",
"G G G G G G G A 2 % < v l l l v v l v l v l l l l v f 5 8 G G G ",
"G G G G G G G G A 2 & < < < < < , < < , < < < < , < = 6 V G G G ",
"G G G G G G G G G D M M M M M M M M M M M M M M M M V D G G G G ",
"G G G G G G G G G G G G G G G G G G G G G G G G G G G G G G G G "
};
