/* XPM */
static char *new_window_dis[] = {
/* columns rows colors chars-per-pixel */
"32 32 256 2",
"   c #91AD7A",
".  c #93B578",
"X  c #97B67E",
"o  c #9CBD7E",
"O  c #99B582",
"+  c #9AB386",
"@  c #9BB08A",
"#  c #9CB28B",
"$  c #A0B78E",
"%  c #A2BA8C",
"&  c #A5B897",
"*  c #A8BB9C",
"=  c #ACBCA0",
"-  c #AEBCA3",
";  c #AFBCA4",
":  c #AEAEB2",
">  c #AEAFB4",
",  c #B1B3B9",
"<  c #B3B5B9",
"1  c #B3B5BA",
"2  c #B5B6B8",
"3  c #B7B7B9",
"4  c #B4B6BA",
"5  c #B4B6BB",
"6  c #B5B6BB",
"7  c #B6B7BD",
"8  c #B7B9BE",
"9  c gray72",
"0  c #B8B9BB",
"q  c gray73",
"w  c #B8BABF",
"e  c #BBBCBE",
"r  c #BBBCBF",
"t  c gray74",
"y  c #A2C084",
"u  c #A7C292",
"i  c #A7C094",
"p  c #ABC594",
"a  c #AEC897",
"s  c #B2CB9F",
"d  c #B2C6A1",
"f  c #B2C6A6",
"g  c #B4C6A7",
"h  c #B7C9A8",
"j  c #B9D1A3",
"k  c #BBC6B2",
"l  c #BED2B0",
"z  c #C1DF9B",
"x  c #C2E29B",
"c  c #C5DBAB",
"v  c #C0D1B3",
"b  c #C5D2BB",
"n  c #C7D7B9",
"m  c #C7D5BD",
"M  c #C9DBBB",
"N  c #CCDEBC",
"B  c #CCDDBE",
"V  c #CAE9A2",
"C  c #D3EFAB",
"Z  c #D3EFAE",
"A  c #D7F2AE",
"S  c #D7F3AE",
"D  c #D7F3AF",
"F  c #D9F3AF",
"G  c #CDE3B0",
"H  c #CCE2B8",
"J  c #CEE4B9",
"K  c #CFE3BD",
"L  c #D0E6B5",
"P  c #D5EDBB",
"I  c #D5ECBF",
"U  c #D9F4B2",
"Y  c #DBF5B2",
"T  c #DDF6B3",
"R  c #D9F1BA",
"E  c #D8F0BE",
"W  c #E0F8B6",
"Q  c #E1F9B6",
"!  c #B9BBC0",
"~  c #BABBC0",
"^  c #BBBDC2",
"/  c #BEBEC0",
"(  c #BFBFC1",
")  c #BCBEC2",
"_  c #BFBFC3",
"`  c #BEBFC5",
"'  c #BEC0C5",
"]  c #C1C1C1",
"[  c #C0C0C2",
"{  c #C1C2C3",
"}  c #C1C1C5",
"|  c #C0C1C7",
" . c #C2C3C6",
".. c #C0C6C6",
"X. c gray77",
"o. c #C5CDC0",
"O. c #C0C2C8",
"+. c #C2C4C9",
"@. c #C3C5CB",
"#. c #C4C5C8",
"$. c #C4C5C9",
"%. c #C7C7C9",
"&. c #C6C7CB",
"*. c #C4C6CC",
"=. c #C7C8CC",
"-. c #C6C8CE",
";. c #C8C9CA",
":. c #CACACA",
">. c #CACACC",
",. c #CACBCC",
"<. c #CBCBCD",
"1. c #C9CACE",
"2. c #CECECE",
"3. c #CCD5C6",
"4. c #CCDBC2",
"5. c #C9CBD0",
"6. c #C9CBD1",
"7. c #CBCCD0",
"8. c #CBCDD3",
"9. c #CCCDD0",
"0. c #CDCED1",
"q. c #CDCED2",
"w. c #CECFD2",
"e. c #CED0D3",
"r. c #CFD0D3",
"t. c #CFD0D4",
"y. c #CED0D6",
"u. c #CFD1D7",
"i. c #D0D0D2",
"p. c #D1D1D3",
"a. c LightGray",
"s. c #D0D1D5",
"d. c #D1D2D6",
"f. c #D2D3D7",
"g. c #D4D5D6",
"h. c #D7D7D7",
"j. c #D8DAD5",
"k. c #D3D4D8",
"l. c #D2D4DA",
"z. c #D2D4DB",
"x. c #D2D5DB",
"c. c #D4D5D9",
"v. c #D7D7D9",
"b. c #D4D6DA",
"n. c #D6D7DB",
"m. c #D4D6DC",
"M. c #D4D6DD",
"N. c #D7D9DC",
"B. c #D7D9DD",
"V. c #D6D8DF",
"C. c #D7D9DF",
"Z. c #D8D8D9",
"A. c #DBDCDE",
"S. c gray87",
"D. c #DEDEDF",
"F. c #D1E5C0",
"G. c #D5E7C0",
"H. c #D0E1C4",
"J. c #D3E3C4",
"K. c #D5E6C6",
"L. c #D6E9C5",
"P. c #D8EEC4",
"I. c #D9EEC6",
"U. c #DAEFC7",
"Y. c #D3E1C9",
"T. c #DBE7CD",
"R. c #DCF0CA",
"E. c #DEE0DB",
"W. c #E0EFCF",
"Q. c #E0E5DC",
"!. c #E3EDDA",
"~. c #E4EDDF",
"^. c #E5EDDF",
"/. c #E4F2D8",
"(. c #E5F3D8",
"). c #E7F3DC",
"_. c #D9DBE2",
"`. c #E0E0E2",
"'. c #E2E2E2",
"]. c #E2E3E2",
"[. c #E4E4E5",
"{. c #E7E7E7",
"}. c #E9E9E9",
"|. c #EAEAEA",
" X c #EAEFE9",
".X c #E8E9ED",
"XX c #ECEFEC",
"oX c #EDF7E4",
"OX c #F0F7EA",
"+X c #F0F1F2",
"@X c #F0F0F4",
"#X c #F0F1F4",
"$X c #F1F2F5",
"%X c #F1F3F5",
"&X c #F2F3F5",
"*X c #F3F3F5",
"=X c #F2F3F6",
"-X c #F3F4F5",
";X c #F2F4F6",
":X c #F3F4F6",
">X c #F3F4F7",
",X c #F4F4F6",
"<X c #F4F5F6",
"1X c #F5F5F7",
"2X c #F5F6F7",
"3X c #F6F6F6",
"4X c #F6F6F7",
"5X c #F6F7F8",
"6X c #F7F7F8",
"7X c #F8F8F9",
"8X c #F8F9F9",
"9X c #F9F9F9",
"0X c #F9F9FA",
"qX c #F9FAFA",
"wX c gray98",
"eX c #FAFBFB",
"rX c #FBFBFB",
"tX c gray99",
"yX c #FDFDFD",
"uX c #FEFEFE",
"iX c gray100",
"pX c None",
"aX c black",
"sX c black",
"dX c black",
"fX c black",
"gX c black",
"hX c black",
"jX c black",
"kX c black",
"lX c black",
"zX c black",
"xX c black",
"cX c black",
"vX c black",
"bX c black",
"nX c black",
"mX c black",
"MX c black",
"NX c black",
"BX c black",
"VX c black",
"CX c black",
"ZX c black",
"AX c black",
"SX c black",
"DX c black",
"FX c black",
"GX c black",
"HX c black",
"JX c black",
"KX c black",
"LX c black",
"PX c black",
"IX c black",
"UX c black",
/* pixels */
"pXpXpXpXpXpXpXpXpXpXpXpXpXpXpXpXpXpXpXpXpXpXpXpXpXpXpXpXpXpXpXpX",
"pXpXpXpXpXpXpXpXpXpXpXpXpXpXpXpXpXpXpXpXpXpXpXpXpXpXpXpXpXpXpXpX",
"pXpXpXpXpXpXpXpXpXpXpXpXpXpXpXpXpXpXpXpXpXpXpXpXpXpXpXpXpXpXpXpX",
"pXpXpXpXpXpXpXpXpXpXpXpXpXpXpXpXpXpXpXpXpXpXpXpXpXpXpXpXpXpXpXpX",
"pXpXpXpXpXpXpXpXpXpXpXpXpXpXpXpXpXpXpXpXpXpXpXpXpXpXpXpXpXpXpXpX",
"pXpXpXS.g.g.g.g.g.g.g.g.g.g.g.g.g.g.g.g.g.g.g.g.g.g.g.g.Z.|.pXpX",
"pXpX<.0 ;.;.<.<.v.v.v.v.v.v.v.v.v.v.v.v.v.v.v.v.v.v.v.p.( 3 pXpX",
"pXpXt ;.{ ' ( { p.p.p.p.p.p.p.p.p.p.p.p.p.p.p.p.p.p.p.&.{ 3 pXpX",
"pXpXt ( 3 3 4 3 4 5 4 4 3 4 4 8 4 8 7 3 4 8 3 8 3 4 8 4 r : pXpX",
"pXpX! 5 3XyXyXyXyXyXyXyXyXyXyXyXyXyXyXyXyXyXyXyXyXyXyXyX+.: pXpX",
"pXpX` 8 tXtXyXyXyXyXyXyXyXyXyXyXyXyXyXyXyXyXyXyXyXyXyXyX7., pXpX",
"pXpX} ! 7XrX7X7X7XeXeXeXrXrXrXtXyXeXeXyXyXyXeXeXyXyXyXyX0.3 pXpX",
"pXpX} ^ 7X7X7X7X7X7X7X7XrX7X7XrX7X7XtX7XrXrXrXrXrXyXyXeX0.7 pXpX",
"pXpX&.' 6X6X6X2X6X7X6X6X7X7X7X7X7X7X7X7XqX7X6XrX7X7X7X7Xt.! pXpX",
"pXpX&.} 6X2X2X2X2X2X2X3X3X7X7X3X3X8X7X8X6X6X7X7X7X7X7X7Xt.^ pXpX",
"pXpX=.+.:X:X2X2X2X2X2X2X2X2X2X2X3X3X2X2X6X6X6X6X6X6X6X6Xs.` pXpX",
"pXpX=.*.<X%X<X<X*X2X:X2X2X:X:X:X2X2X,X2X2X2X2X2X2X2X6X,Xf.O.pXpX",
"pXpX7.=.*X*X*X%X*X*X%X:X:X2X:X:X2X,X,X2X2X%X<X<X2X2X>X>Xf.*.pXpX",
"pXpX0.7.*X*X%X%X*X*X*X*X*X*X*X:X,X,X,X,X:X2X%X XM l H.oXn.*.pXpX",
"pXpXe.7.*X*X:X#X*X*X*X*X*X*X*X*X*X*X*X,X:X Xs # - k - + f 7.pXpX",
"pXpXz.t.$X:X$X:X*X*X*X#X$X:X$X:X*X*X:X:X#Xu = m B Y.n b @ * pXpX",
"pXpXx.t.:X$X:X$X*X*X%X%X*X$X:X$X*X*X%X:X4.# K R.(.yXL.R.B   Q.pX",
"pXpXx.x.$X$X%X%X$X*X%X%X$X*X=X=X*X%X:X:Xi J I P.).yXK.K H j v pX",
"pXpXv.v.:X$X:X$X:X*X*X:X=X=X=X*X$X:X%X:Xa E oXyXyXyXyXyXJ.P d pX",
"pXpXV.V.:X*X*X*X*X*X*X$X=X=X*X$X*X*X*X*Xa R R.(.OXyX!.T.c Z h pX",
"pXpXV._..X*X@X$X@X*X$X@X$X$X@X$X$X$X*X*Xg C U F W.yXL S S x 3.pX",
"pXpXA.n._.v.z.z.z.z.z.z.z.x.x.z.z.z.x.x...y T W L.^.G W A % |.pX",
"pXpXpX[._._.]._.`.]._.]._.`.`.].`.`.]._.].o.o V T W F x O E.pXpX",
"pXpXpXpXpXpXpXpXpXpXpXpXpXpXpXpXpXpXpXpXpX|.j.& X . O - ].|.pXpX",
"pXpXpXpXpXpXpXpXpXpXpXpXpXpXpXpXpXpXpX|.].h.2.X.t 9 0 { ;.a.S.{.",
"pXpXpXpXpXpXpXpXpXpXpXpXpXpXpXpXpXpXpXpXpXpXpX|.}.}.|.|.|.pXpXpX",
"pXpXpXpXpXpXpXpXpXpXpXpXpXpXpXpXpXpXpXpXpXpXpXpXpXpXpXpXpXpXpXpX"
};
