/* XPM */
static char *new_dis[] = {
/* columns rows colors chars-per-pixel */
"28 28 42 1",
"  c black",
". c gray2",
"X c gray3",
"o c #0C0C0C",
"O c #101010",
"+ c #151515",
"@ c #181818",
"# c #1E1E1E",
"$ c #232323",
"% c #272727",
"& c gray33",
"* c #585858",
"= c gray39",
"- c #646464",
"; c gray42",
": c gray44",
"> c gray46",
", c #7C7C7C",
"< c #7E7E7E",
"1 c #848484",
"2 c #8B8B8B",
"3 c gray56",
"4 c #909090",
"5 c gray59",
"6 c gray60",
"7 c #9D9D9D",
"8 c #AEAEAE",
"9 c #C0C0C0",
"0 c #C6C6C6",
"q c gray80",
"w c LightGray",
"e c #D7D7D7",
"r c #DADADA",
"t c gainsboro",
"y c #E2E2E2",
"u c #E7E7E7",
"i c gray91",
"p c #F6F6F6",
"a c #FBFBFB",
"s c gray100",
"d c black",
"f c None",
/* pixels */
"ff9:-====================3tf",
"fw;wssssssssssssssssssssp54f",
"f78sssssssssssssssssssssss>t",
"f40sssssssssssssssssssssss,e",
"f40sssssssssssssssssssssss,w",
"f40sssssssssssssssssssssss,w",
"f40sssssssssssssssssssssss,w",
"f40sssssssssssssssssssssss,w",
"f30sssssssssssssssssssssss,w",
"f30sssssssssssssssssssssss,w",
"f30sssssssssssssssssssssss,w",
"f40sssssssssssssssssssssss,w",
"f40sssssssssssssssssssssss,w",
"f40sssssssssssssssssssssss,q",
"f40sssssssssssssssssssssss,e",
"f30sssssssssssssssssssssss,w",
"f40sssssssssssssssssssssss,w",
"f40sssssssssssssssssssssss,w",
"f40sssssssssssssssssssssss,q",
"f40sssssssssssssssssssssss,w",
"f30sssssssssssssssssssssss,w",
"f76uyyyyasssssssssssssssss,w",
"ft;%+OOo2sssssssssssssssss,w",
"ffr-@.  1sssssssssssssssss,w",
"fffr-#X 1sssssssssssssssss,w",
"ffffr;$.1sssssssssssssssss>e",
"fffffr;$3ssssssssssssssss0,i",
"ffffffr*&322222222222222,-qf"
};
