/* XPM */
static char *new_window[] = {
/* columns rows colors chars-per-pixel */
"32 32 128 2",
"   c #60B51C",
".  c #68AD2F",
"X  c #6ABD21",
"o  c #69B62B",
"O  c #6EB535",
"+  c #70B535",
"@  c #74C029",
"#  c #75B342",
"$  c #7EBA46",
"%  c #7DB350",
"&  c #7FC24B",
"*  c #95DF36",
"=  c #91E231",
"-  c #9BE938",
";  c #8AB865",
":  c #89BB6D",
">  c #95BC75",
",  c #9ABC7E",
"<  c #83C54B",
"1  c #88C84E",
"2  c #82C053",
"3  c #8DCB5E",
"4  c #95D15E",
"5  c #A8EF44",
"6  c #A8EF4C",
"7  c #AEF346",
"8  c #AEF348",
"9  c #B3F44D",
"0  c #BCF952",
"q  c #94C66B",
"w  c #94C677",
"e  c #9CC977",
"r  c #99C678",
"t  c #A3DB63",
"y  c #A0D27C",
"u  c #ADE364",
"i  c #B0E66C",
"p  c #B2ED6F",
"a  c #B5F167",
"s  c #ADE379",
"d  c #B2EC7C",
"f  c #B5F072",
"g  c #9CBC81",
"h  c #A5A9B3",
"j  c #A7ABB9",
"k  c #ACAFBA",
"l  c #ADB2BF",
"z  c #B3B5BB",
"x  c #B7B8BE",
"c  c gray73",
"v  c #A8D186",
"b  c #AED78C",
"n  c #ADDB8B",
"m  c #B1DE8C",
"M  c #AAC693",
"N  c #B3D399",
"B  c #B5DB9C",
"V  c #B2E385",
"C  c #B9E785",
"Z  c #B7EE85",
"A  c #B4E589",
"S  c #BAEF8B",
"D  c #BCE496",
"F  c #B9E990",
"G  c #B7E198",
"H  c #BFF090",
"J  c #B9CDAC",
"K  c #BFE1A4",
"L  c #C9EF9E",
"P  c #C0D5AF",
"I  c #C8E7A7",
"U  c #D1F3AF",
"Y  c #D5EDBD",
"T  c #CEF2B0",
"R  c #D4F3B9",
"E  c #AFB3C0",
"W  c #B2B5C2",
"Q  c #B5B9C6",
"!  c #BBBDC3",
"~  c #B6BBC8",
"^  c #B9BECC",
"/  c #BDC1C4",
"(  c #BDC0CA",
")  c #BEC2D1",
"_  c gray76",
"`  c #C3C5CB",
"'  c #CACACC",
"]  c #D3DACD",
"[  c #C3C6D3",
"{  c #C6C9D3",
"}  c #CCCED4",
"|  c #C5CADB",
" . c #CACEDC",
".. c #CED2DB",
"X. c #D3D4D6",
"o. c #D5D5D9",
"O. c #D7D8DE",
"+. c gray87",
"@. c #D9E5CF",
"#. c #D7EDCB",
"$. c #DAEDCB",
"%. c #DDF7C8",
"&. c #DAE0D4",
"*. c #E1E3DF",
"=. c #E3EFDF",
"-. c #E6F7D7",
";. c #CCD1E2",
":. c #DDDEE2",
">. c #E3E3E4",
",. c #E1E4ED",
"<. c #E9EAE9",
"1. c #ECEEF5",
"2. c #EEF0F5",
"3. c #F2F3F6",
"4. c #F6F6F8",
"5. c #F7F8F9",
"6. c gray99",
"7. c None",
"8. c black",
"9. c black",
"0. c black",
"q. c black",
"w. c black",
"e. c black",
"r. c black",
"t. c black",
"y. c black",
"u. c black",
/* pixels */
"7.7.7.7.7.7.7.7.7.7.7.7.7.7.7.7.7.7.7.7.7.7.7.7.7.7.7.7.7.7.7.7.",
"7.7.7.7.7.7.7.7.7.7.7.7.7.7.7.7.7.7.7.7.7.7.7.7.7.7.7.7.7.7.7.7.",
"7.7.7.7.7.7.7.7.7.7.7.7.7.7.7.7.7.7.7.7.7.7.7.7.7.7.7.7.7.7.7.7.",
"7.7.7.7.7.7.7.7.7.7.7.7.7.7.7.7.7.7.7.7.7.7.7.7.7.7.7.7.7.7.7.7.",
"7.7.7.7.7.7.7.7.7.7.7.7.7.7.7.7.7.7.7.7.7.7.7.7.7.7.7.7.7.7.7.7.",
"7.7.7.+.X.X.X.X.o.X.o.X.X.X.X.X.X.X.X.X.X.X.X.X.X.X.X.X.o.<.7.7.",
"7.7.' z ' ' ' ' X.o.o.o.o.o.o.o.o.o.o.o.o.o.o.o.o.o.X.} ! z 7.7.",
"7.7.x ` ! ! ! ! } } } X.} } } } } } } } } } } } } } } ` _ z 7.7.",
"7.7.x W k k k l k l k k k k k l k l l l l l k l l k l l z h 7.7.",
"7.7.x l 5.6.6.6.6.6.6.6.6.6.6.6.6.6.6.6.6.6.6.6.6.6.6.6.^ h 7.7.",
"7.7.W l 6.6.6.6.6.6.6.6.6.6.6.6.6.6.6.6.6.6.6.6.6.6.6.6.{ j 7.7.",
"7.7.! z 5.5.5.5.5.5.6.6.6.5.6.6.6.6.6.6.6.6.6.6.6.6.6.6.' k 7.7.",
"7.7.! W 5.5.4.4.5.5.5.5.5.5.5.5.5.6.5.5.5.6.5.6.6.6.5.6.{ k 7.7.",
"7.7.^ Q 4.4.4.4.5.5.5.5.5.5.5.5.5.5.5.5.5.5.5.5.5.5.5.5.{ E 7.7.",
"7.7.( Q 3.4.3.4.4.4.3.3.3.4.4.5.4.5.5.5.4.4.4.4.5.4.5.5.{ W 7.7.",
"7.7.` ^ 3.3.3.3.3.3.4.3.3.4.3.3.3.3.4.3.3.4.4.4.4.4.4.4.| Q 7.7.",
"7.7.` ^ 2.2.3.3.3.3.3.3.3.3.3.3.3.3.3.3.3.3.4.3.3.3.4.4. .~ 7.7.",
"7.7.[ ) 2.3.1.3.2.2.2.3.2.3.2.3.3.3.3.3.2.3.3.3.3.3.3.3.| ^ 7.7.",
"7.7.{ ( 2.2.3.1.1.3.2.2.3.2.2.3.2.2.2.3.3.3.1.%.n y G =...^ 7.7.",
"7.7.{ ` 2.2.1.3.3.1.3.2.2.2.2.2.3.2.3.2.3.<.3 % g M g # w ) 7.7.",
"7.7.| [ 1.2.1.1.1.1.3.1.2.2.2.2.2.1.1.3.1.< > N m I b N % : 7.7.",
"7.7. .{ 2.1.1.2.1.1.1.1.1.2.2.2.2.2.2.2.B % A S T 6.F S m . @.7.",
"7.7.} | 1.1.1.1.2.1.2.1.1.1.1.1.1.2.1.2.2 s d Z R 6.D A s 4 v 7.",
"7.7... .1.1.1.2.1.1.1.2.1.1.1.1.2.1.3.1.< f %.6.6.6.6.6.D p q 7.",
"7.7.;.;.1.1.1.1.1.1.1.1.1.1.1.1.1.1.1.2.1 a L U -.6.Y I t 6 e 7.",
"7.7.o.;.,.1.,.1.1.1.1.1.1.,.1.1.1.1.1.1.w 5 7 7 L 6.i 7 7 * P 7.",
"7.7.O.| ;.| | | | | | | | | | | ) ;.| | / @ 9 0 C $.u 0 8 $ <.7.",
"7.7.7.>.:.:.:.:.:.:.:.:.:.:.:.:.:.:.:.:.*.J @ - 0 0 9 = + &.7.7.",
"7.7.7.7.7.7.7.7.7.7.7.7.7.7.7.7.7.7.7.7.7.<.] ; o   O , *.<.7.7.",
"7.7.7.7.7.7.7.7.7.7.7.7.7.7.7.7.7.7.7.<.>.X.' _ c c c _ ' X.+.<.",
"7.7.7.7.7.7.7.7.7.7.7.7.7.7.7.7.7.7.7.7.7.7.7.<.<.<.<.<.<.7.7.7.",
"7.7.7.7.7.7.7.7.7.7.7.7.7.7.7.7.7.7.7.7.7.7.7.7.7.7.7.7.7.7.7.7."
};
