/* XPM */
static char *new_dis[] = {
/* columns rows colors chars-per-pixel */
"28 28 43 1",
"  c black",
". c gray2",
"X c #0B0B0B",
"o c gray6",
"O c #131313",
"+ c #161616",
"@ c #1B1B1B",
"# c #232323",
"$ c #4C4C4C",
"% c #565656",
"& c #5D5D5D",
"* c #606060",
"= c #646464",
"- c gray42",
"; c gray43",
": c #727272",
"> c #747474",
", c gray47",
"< c gray50",
"1 c #808080",
"2 c gray55",
"3 c gray56",
"4 c gray57",
"5 c gray62",
"6 c #B2B2B2",
"7 c #B4B4B4",
"8 c gray",
"9 c #C0C0C0",
"0 c #CDCDCD",
"q c LightGray",
"w c #D7D7D7",
"e c #DADADA",
"r c gainsboro",
"t c gray88",
"y c #E4E4E4",
"u c #EAEAEA",
"i c #ECECEC",
"p c #F3F3F3",
"a c gray96",
"s c #FBFBFB",
"d c gray100",
"f c black",
"g c None",
/* pixels */
"gg9;&&&&&&&&&&&&&&&&&&&&*3eg",
"gq-8uuuiuiiuiiiuuuuiuiuit34g",
"g55ddddddddddddddddddddddu:e",
"g37dddddddddddddddddddddds:q",
"g37dddddddddddddddddddddda>q",
"g37ddssssssssssssssssssdds:q",
"g37dsuuuyuuuuuuuuuuuuyidds:q",
"g37dsaaaaaaapaaaaaaaaaadda>q",
"g37dspippipippippipppiadda>q",
"g37dspiiiiiiiiiiiiiiiiidds>q",
"g37dsasassasassaassasasdda>q",
"g37dsiiuiiiiiiiiiiuuiiidds:q",
"g37dddsdddddddddddddddddds>q",
"g37dddddddddddddddddddddda:q",
"g37dddddddddddddddddddddda>q",
"g37dddddddddddddddddddddds>q",
"g37dddddddddddddddddddddda>q",
"g37dddddddddddddddddddddds>q",
"g37dddddddddddddddddddddda:q",
"g37dddddddddddddddddddddds>q",
"g36dddddddddddddddddddddds:q",
"g53q0000ydddddddddddddddda>q",
"ge-#OooX1dddddddddddddddds:q",
"gge=+.  >dddddddddddddddda>q",
"ggge=@X ,dddddddddddddddda>q",
"ggggr=# ,ddddddddddddddddp:w",
"ggggge-#1dddddddddddddddd6<y",
"ggggggw%$<<<<<<<<<<<<<<<;=0g"
};
