/* XPM */
static char *open[] = {
/* columns rows colors chars-per-pixel */
"32 32 128 2",
"   c #020202",
".  c gray7",
"X  c gray11",
"o  c #252525",
"O  c #373737",
"+  c gray24",
"@  c #205D0F",
"#  c #1B6605",
"$  c #196D01",
"%  c #2D731C",
"&  c #2C7919",
"*  c #36771D",
"=  c #345E26",
"-  c #346422",
";  c #3A7B20",
":  c #3E6233",
">  c #434343",
",  c #5B5B5B",
"<  c #4B6441",
"1  c #4E6A46",
"2  c #53674B",
"3  c #546E4E",
"4  c #62715C",
"5  c #6A6A6A",
"6  c #657560",
"7  c #1D8400",
"8  c #1F8900",
"9  c #218206",
"0  c #208B00",
"q  c #299F15",
"w  c #28A911",
"e  c #3FB917",
"r  c #3BB41B",
"t  c #3FB919",
"y  c #378724",
"u  c #3A8425",
"i  c #368922",
"p  c #3A8926",
"a  c #3B882A",
"s  c #3EB521",
"d  c #43B719",
"f  c #45B91C",
"g  c #428C26",
"h  c #458B2A",
"j  c #488B2E",
"k  c #46952F",
"l  c #498A30",
"z  c #51983D",
"x  c #41B625",
"c  c #45BA22",
"v  c #48BA25",
"b  c #43B72B",
"n  c #45B92B",
"m  c #4ABB2C",
"M  c #50AE3E",
"N  c #46B537",
"B  c #47B830",
"V  c #4CBA33",
"C  c #4EBC3A",
"Z  c #50BC36",
"A  c #53BC3C",
"S  c #54C13D",
"D  c #599741",
"F  c #5D9D44",
"G  c #5E9F4E",
"H  c #52A545",
"J  c #5FA14F",
"K  c #54B243",
"L  c #55BC43",
"P  c #5ABD47",
"I  c #58B149",
"U  c #5BBD4C",
"Y  c #5EBE51",
"T  c #64A356",
"R  c #66BC57",
"E  c #758270",
"W  c #788375",
"Q  c #6DA860",
"!  c #76AD61",
"~  c #75AC68",
"^  c #7EB172",
"/  c #5FC151",
"(  c #64C456",
")  c #65C956",
"_  c #69C55C",
"`  c #6BC95E",
"'  c #6DC860",
"]  c #71C565",
"[  c #71C865",
"{  c #74CB68",
"}  c #79CA6E",
"|  c #7BCC70",
" . c #86CF7B",
".. c #81D077",
"X. c #85D17B",
"o. c #89D17E",
"O. c #848484",
"+. c #8D8D8D",
"@. c #869383",
"#. c #929292",
"$. c #9B9B9B",
"%. c #9CA09B",
"&. c #A4A6A3",
"*. c #A9A9A9",
"=. c #B3B5B3",
"-. c #8CD282",
";. c #95D58E",
":. c #9FD697",
">. c gray76",
",. c #CACACA",
"<. c #D5D4D4",
"1. c #D3DED1",
"2. c gainsboro",
"3. c #E0DFDF",
"4. c #DEE6DD",
"5. c gray89",
"6. c #E6EAE6",
"7. c #E8ECE7",
"8. c gray92",
"9. c #EDF1ED",
"0. c #F3F3F3",
"q. c #F7FAF7",
"w. c #F8F7F9",
"e. c gray100",
"r. c None",
"t. c black",
"y. c black",
"u. c black",
/* pixels */
"r.r.r.r.r.r.r.r.r.r.r.r.r.r.r.r.r.r.r.r.r.r.r.r.r.r.r.r.r.r.r.r.",
"r.r.r.r.r.r.r.r.r.r.r.r.r.r.r.r.r.r.r.r.r.r.r.r.r.r.r.r.r.r.r.r.",
"r.r.r.r.r.r.r.r.r.r.r.r.r.r.r.r.r.r.r.r.r.r.r.r.r.r.r.r.r.r.r.r.",
"r.r.r.r.r.r.r.r.r.r.r.r.5.>.+.#.,.5.r.r.r.r.r.r.r.r.r.r.r.r.r.r.",
"r.r.r.r.r.r.r.r.r.r.5.=.#.*.$.o + 5 *.2.8.r.r.r.r.r.r.r.r.r.r.r.",
"r.r.r.r.r.r.r.8.<.&.#.=.8.e.8.+   . X + O.,.r.r.r.r.r.r.r.r.r.r.",
"r.r.r.r.r.8.,.$.#.>.0.e.e.e.e.#.    . , &.O.2.r.r.r.r.r.r.r.r.r.",
"r.r.r.r.<.#.$.<.w.e.e.e.e.e.e.2.> 5 >.w.e.*.*.r.r.r.r.r.r.r.r.r.",
"r.r.r.r.+.>.e.e.e.e.e.e.e.e.e.e.8.w.e.e.e.5.O.5.r.r.r.r.r.r.r.r.",
"r.r.r.5.O.0.e.e.e.e.e.e.e.e.e.e.e.e.e.e.e.e.$.=.7.5.5.6.r.r.r.r.",
"r.r.r.r.+.<.e.e.e.e.e.e.e.e.e.e.e.e.e.e.e.e.<.3 J J J ~ 1.r.r.r.",
"r.7.5.6.=.#.e.e.e.e.e.e.e.e.e.e.e.e.e.e.e.e.e.W % p a y T 4.r.r.",
"r.5.! F D < 5.e.e.e.e.e.e.e.e.e.e.e.e.e.e.e.e.,.= i p a y ^ r.r.",
"r.4.F j j - $.e.e.e.e.e.e.e.e.e.e.e.e.e.e.e.e.w.6 & i y y T 8.r.",
"r.4.F j j u 2 8.e.e.e.e.e.e.e.e.e.e.e.e.e.w.w.e.=.@ 9 9 9 z 5.r.",
"r.4.F j h h = =.e.e.e.e.e.e.e.e.e.e.e.w.9.8.w.e.0.1 7 0 9 k 4.r.",
"r.4.F j h h ; 4 w.e.e.e.e.e.e.e.w.0.8.0.w.9.9.w.e.&.# 8 7 k 4.r.",
"r.4.F h h g g - >.e.e.e.e.e.w.9.8.w.0.0.8.0.0.0.e.5.: 7 7 k 4.r.",
"r.4.F j h g p * E q.q.q.0.7.7.0.9.7.7.7.7.9.9.7.0.q.@.$ 8 k 4.r.",
"r.4.R I K K K H H } | } ] [ { [ _ ' ' ( ( ` ( Y ( ) L q w N 4.r.",
"r.4.` Y Y U P P L C C N V N B b b b x s s s s r r r r r r S 4.r.",
"r.4.` U U P L L L A A C V V V B b b b b b x s s r r r r r C 4.r.",
"r.4.` U P P P K A A A N V B V n b b x x x s s r r r r r r S 4.r.",
"r.6.-.L P P L A A C Z Z V V m m m m v v c c f c d d d d e S 4.r.",
"r.r.4.X.L L S A A Z S Z m m m v v v v v v f f c c d f f d S 4.r.",
"r.r.r.5.X.A A A Z Z m m m m m n m v c v f c c f d f f d f S 4.r.",
"r.r.r.r.4.X.A Z C V V B m m v c c c c d c f t t t t t e d S 4.r.",
"r.r.r.r.r.4.:.-.-.-.-.-.-.-.-.-.-.X.o.o.o.X. . .X.X.X.X...;.7.r.",
"r.r.r.r.r.r.r.r.r.r.r.8.8.8.8.8.7.8.8.8.8.8.8.8.8.r.r.r.r.r.r.r.",
"r.r.r.r.r.r.r.r.r.r.8.5.3.3.3.5.3.5.5.2.2.3.3.3.5.8.8.r.r.r.r.r.",
"r.r.r.r.r.r.r.r.r.r.8.3.2.2.2.2.2.2.2.<.<.<.<.<.2.5.8.r.r.r.r.r.",
"r.r.r.r.r.r.r.r.r.r.8.8.3.3.5.5.2.3.2.2.2.2.2.2.2.5.7.r.r.r.r.r."
};
