/* XPM */
static char *open_dis[] = {
/* columns rows colors chars-per-pixel */
"28 28 106 2",
"   c #020202",
".  c #0C0C0C",
"X  c #151515",
"o  c #18141C",
"O  c #1C1B1D",
"+  c #271C2F",
"@  c gray13",
"#  c #2D2D2E",
"$  c #4B4B4B",
"%  c #524D52",
"&  c #565656",
"*  c #5A545E",
"=  c gray36",
"-  c #5F5562",
";  c #614C68",
":  c #615A64",
">  c #655C6A",
",  c #6A5672",
"<  c #6B5A75",
"1  c #70597B",
"2  c #646364",
"3  c #6B676D",
"4  c #6D6C6D",
"5  c #716775",
"6  c gray45",
"7  c #7E7E7E",
"8  c #745381",
"9  c #765882",
"0  c #7D558A",
"q  c #7A5991",
"w  c #895E9A",
"e  c #807F80",
"r  c #84718F",
"t  c #9269AF",
"y  c #AD7FD4",
"u  c #818181",
"i  c #8E8E8E",
"p  c #908F90",
"a  c gray57",
"s  c gray62",
"d  c #9F8CAA",
"f  c #A38CB2",
"g  c #A896B2",
"h  c #AD9BB7",
"j  c #AD9AB8",
"k  c #A4A4A4",
"l  c #A8A7A8",
"z  c gray67",
"x  c gray70",
"c  c #BDBCBD",
"v  c #BFC1BF",
"b  c #8F80D4",
"n  c #9481D6",
"m  c #9484DB",
"M  c #AF81D7",
"N  c #A486DE",
"B  c #AD84DB",
"V  c #B283DB",
"C  c #B7A4C2",
"Z  c #BEA7CD",
"A  c #ADA2DD",
"S  c #9989E2",
"D  c #9D8CE8",
"F  c #AA87E1",
"G  c #AB8BE1",
"H  c #B48AE6",
"J  c #B78DEB",
"K  c #BB8EED",
"L  c #B191E3",
"P  c #B899E6",
"I  c #A593F4",
"U  c #AE98FD",
"Y  c #BD91F2",
"T  c #B5AAE2",
"R  c #BCB1E6",
"E  c #CEBEDA",
"W  c #C7ABEC",
"Q  c #CBB2ED",
"!  c #C6BCE9",
"~  c #D5BCF1",
"^  c #C3C3C3",
"/  c #CDCDCD",
"(  c #CFC2D8",
")  c #D4CCDA",
"_  c gray83",
"`  c #D9D7DB",
"'  c #DCDBDC",
"]  c #CCC3EC",
"[  c #D4C7E8",
"{  c #D4CAEB",
"}  c #DCCEEB",
"|  c #D6D1EC",
" . c #DDD9EE",
".. c #D8C8F4",
"X. c #E0DEE2",
"o. c #E5DCED",
"O. c gray89",
"+. c #E6E8E6",
"@. c #E8E5EC",
"#. c gray92",
"$. c #EDEAF3",
"%. c #F4F4F4",
"&. c #F8F8F7",
"*. c gray98",
"=. c black",
"-. c None",
/* pixels */
"-.-.^ 4 = = = = = = = = = = = = = = = = = = = = = p O.-.",
"-._ 4 c +.+.+.#.@.+.+.+.@.#.#.+.+.+.+.@.+.#.#.@.' u a -.",
"-.s l *.*.*.*.*.*.*.*.*.*.&.&.*.*.*.*.*.*.*.*.&.*.+.4 ' ",
"-.a c *.%.%.%.%.%.%.%.%.%.%.%.%.%.%.%.&.%.%.%.%.&.#.6 _ ",
"-.a x %.%.#.%.$.%.#.#.%.#.#.%.#.#.%.#.#.#.%.%.#.#.#.6 / ",
"-.a x #.#.+.+.+.+.#.#.#.#.#.#.#.+.+.#.#.+.#.+.+.#.+.4 _ ",
"-.a z +.+.+.O.+.O.O.O.O.+.+.O.+.O.+.O.+.+.+.+.+.+.O.4 _ ",
"-.a z +.O.X.O.X.O.O.X.' X.' ' X.O.O.O.X.O.O.O.O.X.X.4 _ ",
"-.p l O.' ' ' ' _ _ _ / / / / _ z a x ' ' ' ' ' ' ' 4 _ ",
"-.i k ' ' _ _ _ / _ _ _ _ _ / i 3 a = k _ _ _ ' ' ' 4 _ ",
"-.a k ' _ _ _ _ _ _ _ _ _ _ ^ 2 X.*.^ 2 _ _ _ _ ` ` 4 _ ",
"-.a s ' ' _ _ ` ` ` ` _ ` ` ^ 4 $.%.| 3 _ ` _ ` ` _ 4 / ",
"-.i k ' ' ' ' ' ' ' ' ' ' ' ^ 4 @.$.) 4 _ ' ' ' ' ' 4 _ ",
"-.a k O.' ' ' ' ' ' ' ' ' ' / 4 o.@.) 4 ' ' ' ' ' ' 4 _ ",
"-.i k O.' O.' O.X.O.O.O.O.O./ 4 }  .( 4 O.O.O.O.O.O.4 _ ",
"-.a k +.O.O.O.O.X.l e e e e 6 : } | ( % 7 7 u u u x 4 _ ",
"-.i z +.+.+.+.@.s > g j j j h E [ ] { C h h h j d * $ _ ",
"-.i z #.+.+.+.+.3 Z { ] ] ! R T A A A T R ] ] ] ..d # _ ",
"-.i z #.#.#.#.#.6 f ~ W P G F m y b n N G L P Q ~ r # _ ",
"-.p z %.%.#.$.%./ - 1 9 8 8 8 w m b B 0 8 8 8 9 < 4 = / ",
"-.a z *.%.%.%.%.%.' ^ v ^ v x ; H S M - v v ^ v ^ O.6 _ ",
"-.s u ^ ^ ^ ^ ^ ' %.&.%.&.%.O., H D y 5 %.&.&.%.%.#.6 _ ",
"-.' 3 @ X . . . 7 &.&.%.%.&.O., J D M 5 %.%.%.&.%.%.6 _ ",
"-.-.' 2 X       6 *.&.&.&.*.+., Y I V 5 %.&.&.&.%.%.6 _ ",
"-.-.-.' 2 O .   6 *.*.*.*.*.#., Y I V 5 *.*.*.*.*.%.6 _ ",
"-.-.-.-.' 2 O . 6 *.*.*.*.*.#., Y U V 5 *.*.*.*.*.%.6 ` ",
"-.-.-.-.-.' 3 @ u *.*.*.*.*.*.6 t K q a *.*.*.*.*.x 7 +.",
"-.-.-.-.-.-.` & $ u u u u 9 e = o + O 6 u u u 9 4 2 / -."
};
