/* XPM */
static char *open_sel[] = {
/* columns rows colors chars-per-pixel */
"32 32 128 2",
"   c #010101",
".  c #0B0B0B",
"X  c #151515",
"o  c #232323",
"O  c #282828",
"+  c gray20",
"@  c #3F3F3F",
"#  c #533D1F",
"$  c #4B3C2A",
"%  c #433C31",
"&  c #4B3F31",
"*  c #5D411B",
"=  c #654418",
"-  c #7E451F",
";  c #74491E",
":  c #7F4F1E",
">  c #77511F",
",  c #7E551E",
"<  c #4D4334",
"1  c #4D453B",
"2  c #564431",
"3  c #5E4A34",
"4  c #7E4620",
"5  c #7F4923",
"6  c #7A5624",
"7  c #7C5825",
"8  c #665039",
"9  c #7B5734",
"0  c #755839",
"q  c #7A5D3E",
"w  c gray27",
"e  c #4E4943",
"r  c gray30",
"t  c #55514C",
"y  c #535352",
"u  c #5D5852",
"i  c gray35",
"p  c #6A5A42",
"a  c #7B694D",
"s  c #63615F",
"d  c #7C6C52",
"f  c #646363",
"g  c #6D6C6C",
"h  c gray46",
"j  c #7B7B7B",
"k  c #82431F",
"l  c #80561D",
"z  c #82581F",
"x  c #824422",
"c  c #824B25",
"v  c #834D29",
"b  c #825121",
"n  c #815820",
"m  c #83522D",
"M  c #805C29",
"N  c #855532",
"B  c #855935",
"V  c #865C3A",
"C  c #885E3D",
"Z  c #87613D",
"A  c #8A643E",
"S  c #856342",
"D  c #896543",
"F  c #896946",
"G  c #876748",
"H  c #86694C",
"J  c #8A6C4B",
"K  c #926F47",
"L  c #97714E",
"P  c #9A734C",
"I  c #826F52",
"U  c #8A6E52",
"Y  c #847356",
"T  c #89785D",
"R  c #9B7752",
"E  c #9C7856",
"W  c #A48460",
"Q  c #A68769",
"!  c #848484",
"~  c #8E8A85",
"^  c #878788",
"/  c #8D8D8D",
"(  c #908F8D",
")  c #92908F",
"_  c #8F8F90",
"`  c #8F9090",
"'  c #939393",
"]  c #989796",
"[  c #999896",
"{  c #979798",
"}  c gray60",
"|  c #A4A4A4",
" . c gray67",
".. c #B4B4B4",
"X. c #BBBBBB",
"o. c #BEBFC0",
"O. c #C4C5C5",
"+. c #CFCAC2",
"@. c #CCCDCD",
"#. c #D0CBC3",
"$. c #D3D4D4",
"%. c #DED9D2",
"&. c #D7D9DA",
"*. c #DDDEDE",
"=. c #E1DED9",
"-. c #E4E0DC",
";. c #DFE0E1",
":. c #E4E4E4",
">. c #E8E7E5",
",. c #E6E7E8",
"<. c #E9E9E9",
"1. c None",
"2. c black",
"3. c black",
"4. c black",
"5. c black",
"6. c black",
"7. c black",
"8. c black",
"9. c black",
"0. c black",
"q. c black",
"w. c black",
"e. c black",
"r. c black",
"t. c black",
"y. c black",
"u. c black",
/* pixels */
"1.1.1.1.1.1.1.1.1.1.1.1.1.1.1.1.1.1.1.1.1.1.1.1.1.1.1.1.1.1.1.1.",
"1.1.1.1.1.1.1.1.1.1.1.1.1.1.1.1.1.1.1.1.1.1.1.1.1.1.1.1.1.1.1.1.",
"1.1.1.1.1.1.1.1.1.1.1.1.1.1.1.1.1.1.1.1.1.1.1.1.1.1.1.1.1.1.1.1.",
"1.1.1.1.1.1.1.1.1.1.1.1.:.} r i  .:.1.1.1.1.1.1.1.1.1.1.1.1.1.1.",
"1.1.1.1.1.1.1.1.1.1.&.! r f i X X + j O.<.1.1.1.1.1.1.1.1.1.1.1.",
"1.1.1.1.1.1.1.<.O.g r g ` } ` o   . . X w ..1.1.1.1.1.1.1.1.1.1.",
"1.1.1.1.1.,...f y h ` [ } } } i     . + f w $.1.1.1.1.1.1.1.1.1.",
"1.1.1.1.O.y i j { } } } } } } ! O @ h ' } f h 1.1.1.1.1.1.1.1.1.",
"1.1.1.1.r h [ } } } } } } } } { / ] } } } ^ w -.1.1.1.1.1.1.1.1.",
"1.1.1.*.r ' } } } } } } } } } } { } } } } } i ) >.:.-.>.1.1.1.1.",
"1.1.1.1.r j } } } } } } { } } } } } } } } } ! + a a a Y #.1.1.1.",
"1.<.=.-.~ i } } } } } } } } } } } } } } } } { y 8 d d d a #.1.1.",
"1.=.K A A < ^ [ } } [ } } } } } } } } } } } } j < d d d a T 1.1.",
"1.%.A U J 8 s [ } } } } } } } } } } } } } } } ' e p a a d Y <.1.",
"1.%.D U J F 1 / } } } } } } } } } } { } } ' ' } g * 7 6 6 M =.1.",
"1.%.A J J J 3 g } } } } } } } } } } { ' ` ` ' } ` < > n , z %.1.",
"1.%.D J F F a e ' } } } } } } } ] ' / ` ' _ _ ' } f # z z z =.1.",
"1.=.D J F F A 2 h } } } } } { ) ` ' ' ` _ ` _ ' { / $ , l z %.1.",
"1.=.A F F F F 0 t ' } } ' ( ( ' ( / ( ( / _ _ / ' ] u = l n %.1.",
"1.%.D J F G G D q U U U G G J J G G G S S S S S S S 9 ; l l %.1.",
"1.%.A D D S S C C V V N B N N N 9 m v v 5 7 v 5 5 4 4 4 4 c %.1.",
"1.=.A D G D C C C V B B B N N N m m v 7 v v 5 5 5 4 4 - - c %.1.",
"1.%.A D D C C C C B V B N N N N m m m v 5 5 5 5 5 5 - - - b %.1.",
"1.>.E C S C C V B V B N N N v N v v v c v c v c x c x x k c %.1.",
"1.1.=.L V C V V B B N N N v v v v v v v v x x x x x x k k c %.1.",
"1.1.1.%.L B V B B N N N N v v v v v x x x c x x x x k k k c %.1.",
"1.1.1.1.=.P B B N N N N N v v v v v c c v x x c x x k k k c %.1.",
"1.1.1.1.1.=.Q E E E E E E E E R R R R P R P P L P P P P P W -.1.",
"1.1.1.1.1.1.1.1.;.@.o.o.$.;.$.&.%.&.:.<.<.<.<.:.*.:.1.1.1.1.1.1.",
"1.1.1.1.1.1.1.,.o.| / {  . . .| |  ...X.......|  .X.*.1.1.1.1.1.",
"1.1.1.1.1.1.1.,.X.| _ { | | ..{ |  .}  .| ' | / }  .@.1.1.1.1.1.",
"1.1.1.1.1.1.1.<.$. .} | .. . .| |  .|  . .' | ' }  .&.1.1.1.1.1."
};
