/* XPM */
static char *open[] = {
/* columns rows colors chars-per-pixel */
"28 44 140 2",
"   c #010101",
".  c #080708",
"X  c #0B0B0B",
"o  c #12081C",
"O  c #131313",
"+  c #19141F",
"@  c #1D1D1D",
"#  c #1A002F",
"$  c #222222",
"%  c #2D2D2E",
"&  c #323232",
"*  c #393939",
"=  c #5F0E7E",
"-  c #582268",
";  c #5D2B71",
":  c #602B72",
">  c gray26",
",  c #4B4B4B",
"<  c #514452",
"1  c #54465E",
"2  c gray33",
"3  c gray36",
"4  c #5C4C64",
"5  c #5D476A",
"6  c #605F60",
"7  c #6A5E6E",
"8  c #6D5375",
"9  c #656566",
"0  c #6B656D",
"q  c #6D6D6D",
"w  c #706E6F",
"e  c #6B6077",
"r  c #716F72",
"t  c gray45",
"y  c #7E7E7E",
"u  c #570391",
"i  c #600E81",
"p  c #69068A",
"a  c #621181",
"s  c #641882",
"d  c #71049A",
"f  c #6600AF",
"g  c #73448F",
"h  c #7F7E80",
"j  c #2701D4",
"k  c #2802DB",
"l  c #3201D7",
"z  c #2B02E2",
"x  c #2D01EA",
"c  c #2E00F5",
"v  c #3800FD",
"b  c #4A02DD",
"n  c #6802DB",
"m  c #7300D5",
"M  c #7500DB",
"N  c #5703E1",
"B  c #5A08E1",
"V  c #6900E6",
"C  c #6900EC",
"Z  c #7F00EA",
"A  c #6616E3",
"S  c #6A00F1",
"D  c #7200F3",
"F  c #7325E6",
"G  c #7E33E8",
"H  c #6247DC",
"J  c #664BDD",
"K  c #6F54E1",
"L  c #7559E3",
"P  c #7E63E6",
"I  c #807D81",
"U  c #8D5AAA",
"Y  c #8E53B2",
"T  c #9064A9",
"R  c #9B6DB5",
"E  c #9D6EB8",
"W  c #9E70B7",
"Q  c #A76ECD",
"!  c #A777C2",
"~  c #AD7DCA",
"^  c #904AEC",
"/  c #9859ED",
"(  c #846AE7",
")  c #8E75E9",
"_  c #927BEA",
"`  c #AC6DF1",
"'  c #818181",
"]  c #8E8E8E",
"[  c #908F8F",
"{  c #8E8C93",
"}  c #929292",
"|  c gray62",
" . c #A19FA0",
".. c #A5A4A5",
"X. c #A8A6A8",
"o. c #ABAAAB",
"O. c #AEB4AC",
"+. c gray71",
"@. c #BBBBBB",
"#. c #BFC2BE",
"$. c #C0C3BF",
"%. c #BC95DA",
"&. c #9B85EC",
"*. c #9F8AEC",
"=. c #A799E9",
"-. c #B595E8",
";. c #AB89F2",
":. c #B5A9EC",
">. c #C1BAC5",
",. c #C1A1D8",
"<. c #C8B0D9",
"1. c #CFBDDB",
"2. c #C5A3EB",
"3. c #CEB2EB",
"4. c #C4BAEE",
"5. c gray77",
"6. c #CCCDCC",
"7. c #D6CADD",
"8. c gray83",
"9. c #D8D7D8",
"0. c gainsboro",
"q. c #E0E0DF",
"w. c #D7C2ED",
"e. c #DED7E2",
"r. c #D2CAF1",
"t. c #DED9F5",
"y. c #E0DFE0",
"u. c #E0D1EF",
"i. c gray89",
"p. c #E6E9E5",
"a. c #E8E7E8",
"s. c gray92",
"d. c #EAE6F8",
"f. c #F0EFF0",
"g. c #F5F5F4",
"h. c #F7F8F6",
"j. c #FCF7FF",
"k. c #FBFBFB",
"l. c black",
"z. c None",
/* pixels */
"z.z.>.q 6 3 3 3 3 3 3 3 3 3 3 3 3 3 3 3 3 3 3 3 6 ] 0.z.",
"z.8.q 5.p.a.a.a.a.a.a.s.a.a.a.a.s.a.s.a.a.a.s.a.e.' } z.",
"z.| X.k.k.h.k.k.h.k.k.k.j.h.k.h.h.k.h.j.k.h.h.j.k.a.w 0.",
"z.} @.h.g.g.g.h.g.g.g.g.h.g.g.g.g.g.g.g.g.g.g.g.h.s.t 8.",
"z.{ +.g.s.g.s.g.f.f.f.f.f.f.f.f.f.f.f.f.f.f.f.f.f.a.q 8.",
"z.{ +.s.a.s.a.a.a.s.s.a.a.s.a.s.s.a.s.a.s.a.a.s.s.p.q 8.",
"z.} o.s.i.p.p.p.i.a.i.p.p.i.p.p.p.i.a.a.p.a.i.p.p.y.r 8.",
"z.[ o.a.y.y.i.y.i.y.y.y.0.y.0.0.y.i.i.y.y.y.i.y.y.y.q 8.",
"z.} X.i.q.0.0.9.8.8.8.6.6.8.6.6.o.} +.9.0.0.0.0.e.0.q 8.",
"z.[ ..0.9.8.8.8.8.8.6.8.8.8.8.] 9 } 3 X.8.8.9.0.0.0.q 8.",
"z.[  .0.8.8.8.8.8.8.8.8.8.8.5.6 e.j.>.9 8.8.8.8.8.9.q 8.",
"z.[  .0.9.9.9.9.9.9.9.9.9.9.5.0 d.d.7.0 8.9.8.9.9.9.q 8.",
"z.]  .y.0.0.0.9.0.9.0.0.0.0.5.0 u.t.1.0 8.0.0.0.9.9.q 8.",
"z.[ ..y.0.0.0.q.0.0.0.0.0.0.6.e w.r.<.0 0.0.0.0.0.0.q 8.",
"z.[ ..i.y.y.y.e.q.p.i.i.p.i.6.7 3.4.,.0 y.i.i.p.i.y.q 8.",
"z.] X.p.i.i.i.i.q.o.y y y h t 4 2.:.%.< y I I I ' +.q 8.",
"z.{ X.s.a.a.p.a.| 5 R E E W E ~ -.=.-.! E E E E T 1 > 8.",
"z.[ X.s.a.a.a.a.0 Q ;.*.&.) P K J H J L ( _ &.&.;.U % 8.",
"z.[ o.f.s.s.s.s.r Y ` ^ F B N b l j l b B A G / ` g % 8.",
"z.[ o.g.s.f.s.f.5.5 : a a a = d N k n p = i i s : 0 6 8.",
"z.] O.h.h.g.g.g.g.e.#.#.#.#.O.- V z m 1 @.$.$.#.5.i.r 8.",
"z.| I 5.5.5.5.5.0.g.h.h.h.h.i.; V x m 8 g.h.g.h.h.s.t 8.",
"z.0.9 $ O X X X y k.h.g.h.h.i.: V x M 8 g.g.h.h.h.f.t 8.",
"z.z.0.9 O .     t k.h.h.h.h.p.; C c M 8 g.h.h.h.h.f.r 8.",
"z.z.z.0.9 @ .   t k.k.k.k.k.p.: S c M 8 k.k.k.k.k.g.t 8.",
"z.z.z.z.0.0 $   y k.k.k.k.k.p.; D v M 8 k.k.k.k.j.g.t 9.",
"z.z.z.z.z.0.9 $ ' k.k.k.k.k.k.e f Z u { k.k.k.k.k.O.y a.",
"z.z.z.z.z.z.0.2 , ' ' ' ' ' ' 3 o # + q ' ' y y q 9 6.z.",
"z.z.z.z.z.z.z.z.z.z.z.z.z.z.z.z.z.z.z.z.z.z.z.z.z.z.z.z.",
"z.z.z.z.z.z.z.z.z.z.z.z.z.z.z.z.z.z.z.z.z.z.z.z.z.z.z.z.",
"z.z.z.z.z.z.z.z.z.z.z.z.z.z.z.z.z.z.z.z.z.z.z.z.z.z.z.z.",
"z.z.z.z.z.z.z.z.z.z.z.z.z.z.z.z.z.z.z.z.z.z.z.z.z.z.z.z.",
"z.} $   $ } z.z.z.z.z.z.z.z.z.z.z.z.z.z.z.z.z.z.z.z.z.z.",
"| $ @.p.+.@ ..z.z.z.z.z.z.z.z.z.z.z.z.z.z.z.z.z.z.z.z.z.",
"& o.z.z.z.X.& z.z.  ] X @ +.z.z.0.> . $ @.z.z.  o.$ X y ",
". i.z.z.z.i.. z.z.  ' q.] & z.z., X.i.o.& z.z.  , 6.@.X ",
". 0.z.z.z.e.X z.z.  z.z.q.. z.z.X         z.z.  i.z.a.  ",
"& o.z.z.z.o.& z.z.  z.z.9.X z.z.O 0.z.z.z.z.z.  z.z.z.  ",
"| $ @.p.+.$  .z.z.  | i.t , z.z.3 , 8.i.@.z.z.  z.z.z.  ",
"z.} @   $ } z.z.z.  q . % 6.z.z.0.3 X X * z.z.  z.z.z.  ",
"z.z.z.z.z.z.z.z.z.  z.z.z.z.z.z.z.z.z.z.z.z.z.z.z.z.z.z.",
"z.z.z.z.z.z.z.z.z.  z.z.z.z.z.z.z.z.z.z.z.z.z.z.z.z.z.z.",
"z.z.z.z.z.z.z.z.z.z.z.z.z.z.z.z.z.z.z.z.z.z.z.z.z.z.z.z.",
"z.z.z.z.z.z.z.z.z.z.z.z.z.z.z.z.z.z.z.z.z.z.z.z.z.z.z.z."
};
