/* XPM */
static char *open_sel[] = {
/* columns rows colors chars-per-pixel */
"28 28 110 2",
"   c #020202",
".  c #0B0B0B",
"X  c #0A0511",
"o  c #0F0C12",
"O  c #0F001C",
"+  c gray7",
"@  c #1E1E1E",
"#  c #35143E",
"$  c gray13",
"%  c #2C2C2C",
"&  c #302831",
"*  c #37273A",
"=  c #352C3C",
"-  c #382B3B",
";  c #353435",
":  c #373837",
">  c #383738",
",  c #3A3A3A",
"<  c #3A094D",
"1  c #361A43",
"2  c #391A45",
"3  c #340257",
"4  c #3F0352",
"5  c #3E3C40",
"6  c #17007F",
"7  c #3D0069",
"8  c #43025C",
"9  c #413345",
"0  c #403B42",
"q  c #452855",
"w  c #563C65",
"e  c #55326B",
"r  c #444344",
"t  c #4C4C4C",
"y  c #565656",
"u  c #555458",
"i  c #585659",
"p  c #5A595A",
"a  c #5E426E",
"s  c #605F60",
"d  c #644774",
"f  c #64427B",
"g  c #674B79",
"h  c #646364",
"j  c #686768",
"k  c gray42",
"l  c #746F76",
"z  c #747574",
"x  c #7E7E7E",
"c  c #1B0181",
"v  c #1A018B",
"b  c #1B0093",
"n  c #2C0185",
"m  c #330286",
"M  c #3E0183",
"N  c #390887",
"B  c #3F008C",
"V  c #3D0D88",
"C  c #210098",
"Z  c #3F0090",
"A  c #3C2C84",
"S  c #450083",
"D  c #4C008C",
"F  c #45168A",
"G  c #4C1E8B",
"H  c #440091",
"J  c #562C8D",
"K  c #433287",
"L  c #463588",
"P  c #4D3D8A",
"I  c #5B358E",
"U  c #5A4C8D",
"Y  c #5E518D",
"T  c #645B8C",
"R  c #6C5A8C",
"E  c #715982",
"W  c #664191",
"Q  c #684290",
"!  c #655390",
"~  c #6C658D",
"^  c #746181",
"/  c #786982",
"(  c #76628D",
")  c #756F8F",
"_  c #7C6B8D",
"`  c #7C7183",
"'  c #7E7991",
"]  c #807985",
"[  c #81748E",
"{  c #867D8F",
"}  c #848484",
"|  c #878986",
" . c #888A87",
".. c #858188",
"X. c gray55",
"o. c #858293",
"O. c #8B8591",
"+. c #8C8A95",
"@. c #908F90",
"#. c gray58",
"$. c #979499",
"%. c #989898",
"&. c #B2B2B2",
"*. c gray74",
"=. c gray78",
"-. c #CBCBCB",
";. c #D2D2D2",
":. c #E7E7E7",
">. c black",
",. c None",
/* pixels */
",.,.%.> % % % % % % % % % % % % % % % % % % % % % y ;.,.",
",.*.; z X.X.X.X.X. .X.X. .X.X.X.X.X.X.X.X.X.X.X.} t i ,.",
",.k h %.$.#.$.$.$.#.$.%.$.#.#.#.#.#.#.#.#.#.$.$.$.X.; ;.",
",.y l #.@.#.#.@.@.#.#.@.#.#.@.#.#.#.#.#.@.#.#.@.@.@., *.",
",.p k #.+.@.@.@.@.@.@.@.@.@.@.@.@.@.@.@.@.@.@.#.@.X., *.",
",.y k @.X.X.X.X.X.X.X.X.X.X.X.X.X.X.X.X.X.X.X.X.X.X.; *.",
",.p j  .X.| X. .X.| X.X. .X. . .X.X. .X. . . . . .| , *.",
",.y j  .| | | | | } | } } } | | .. . ... . .| } | | > *.",
",.y h | } | } } ] x x x x x x z j p k } } } } } } } : *.",
",.y h | } x x x x x x x x x x y , i > h x x x } } } : *.",
",.i s } x x x x x x } x x x z , ..$.z 5 x x x } ` } : *.",
",.i s } } x } x } x x } } } z 0 O.+.] 5 x } } x x } : *.",
",.i s } } ] } } x } ] } } } z 0 { o.` 5 } } } } } } : *.",
",.i h | } } | } } | | } } } z 0 [ ' / 0 } } } ..} } : *.",
",.y h | .. ...}  . .X. . . .x 9 _ ) ^ 0 } }  .X. . .> *.",
",.i s X. .X. . . .h t t t t r - ( ~ E & t t t t t k > *.",
",.y h X. . .X.X.s 1 a a a a a g R T R d a a a a w = @ *.",
",.y j X.X.X.X. .5 f T Y Y U P K A A A L P U Y U ! w . *.",
",.y j X.X.X.X.@.r e W J F N m n c 6 c n N V G I Q q . *.",
",.y j #.@.@.@.@.z = 1 < < < < 8 m c M 4 < < < < 2 5 % *.",
",.y k %.#.#.@.#.@.| z z z z j # M v S * z z z z z  ., *.",
",.k t z z z l z } #.#.#.#.#. .2 B v S 9 @.#.#.@.#.@., *.",
",.-.% + .   . . t #.#.#.#.#. .1 B v S 5 @.#.#.#.#.@., *.",
",.,.-.% .       r #.#.#.#.#. .2 Z b S 5 #.#.#.#.#.@., *.",
",.,.,.-.% +     r #.#.%.#.%. .2 Z b S 9 #.#.%.#.%.#., *.",
",.,.,.,.-.% +   t %.#.%.%.%.X.1 H C D 5 #.%.%.#.%.@.: =.",
",.,.,.,.,.-.; + t %.%.%.%.%.#.0 7 D 3 u %.%.%.%.%.k 5 :.",
",.,.,.,.,.,.=.$ % t t t t t t : X O o 5 t t t t r % &.,."
};
