/* XPM */
static char *open_dis[] = {
/* columns rows colors chars-per-pixel */
"32 32 128 2",
"   c #020202",
".  c gray7",
"X  c gray11",
"o  c #252525",
"O  c #373737",
"+  c gray24",
"@  c #455D3E",
"#  c #48663F",
"$  c #434343",
"%  c #4D5E48",
"&  c #5B5B5B",
"*  c #4B6D42",
"=  c #4F6248",
"-  c #53654D",
";  c #5A6456",
":  c #5F675C",
">  c #5F6A5C",
",  c #577350",
"<  c #5D7753",
"1  c #5A7953",
"2  c #617B57",
"3  c #636E61",
"4  c #6A6A6A",
"5  c #6D736B",
"6  c #59824E",
"7  c #5C8451",
"8  c #5E8852",
"9  c #608B53",
"0  c #67855E",
"q  c #678660",
"w  c #6D8A63",
"e  c #708B65",
"r  c #6F9F67",
"t  c #75956C",
"y  c #7E837C",
"u  c #7E9775",
"i  c #7B9874",
"p  c #76A96C",
"a  c #849E7B",
"s  c #84A57F",
"d  c #83B476",
"f  c #86B57A",
"g  c #89B77E",
"h  c #8BB97B",
"j  c #848484",
"k  c #8D8D8D",
"l  c #8E938D",
"z  c #929292",
"x  c #9B9B9B",
"c  c #86A180",
"v  c #8AA384",
"b  c #88AE81",
"n  c #94AA8D",
"m  c #8BB483",
"M  c #8DBA83",
"N  c #8EB688",
"B  c #8FB988",
"V  c #90BC87",
"C  c #93BC8B",
"Z  c #96AC91",
"A  c #9EA09E",
"S  c #96BD91",
"D  c #98BD93",
"F  c #9DB198",
"G  c #A5A6A5",
"H  c #A9A9A9",
"J  c #B4B5B4",
"K  c #96C18C",
"L  c #9BC296",
"P  c #9FC29A",
"I  c #A1C69C",
"U  c #A3C89D",
"Y  c #A5C8A1",
"T  c #AACAA5",
"R  c #B2CFAD",
"E  c #B2D0AE",
"W  c #B5D2B1",
"Q  c #BBD5B9",
"!  c #C0D6BD",
"~  c gray76",
"^  c #CACACA",
"/  c #D5D5D5",
"(  c gainsboro",
")  c #E0DFDF",
"_  c #E3E5E3",
"`  c #E6E8E6",
"'  c gray92",
"]  c #EEF0EE",
"[  c #F3F3F3",
"{  c gray100",
"}  c None",
"|  c black",
" . c black",
".. c black",
"X. c black",
"o. c black",
"O. c black",
"+. c black",
"@. c black",
"#. c black",
"$. c black",
"%. c black",
"&. c black",
"*. c black",
"=. c black",
"-. c black",
";. c black",
":. c black",
">. c black",
",. c black",
"<. c black",
"1. c black",
"2. c black",
"3. c black",
"4. c black",
"5. c black",
"6. c black",
"7. c black",
"8. c black",
"9. c black",
"0. c black",
"q. c black",
"w. c black",
"e. c black",
"r. c black",
"t. c black",
"y. c black",
"u. c black",
/* pixels */
"} } } } } } } } } } } } } } } } } } } } } } } } } } } } } } } } ",
"} } } } } } } } } } } } } } } } } } } } } } } } } } } } } } } } ",
"} } } } } } } } } } } } } } } } } } } } } } } } } } } } } } } } ",
"} } } } } } } } } } } } _ ~ k z ^ _ } } } } } } } } } } } } } } ",
"} } } } } } } } } } _ J z H x o O 4 H / ' } } } } } } } } } } } ",
"} } } } } } } ' / H k J ' { ' +   . X + j ^ } } } } } } } } } } ",
"} } } } } ' ^ x z ~ [ { { { { z     . & G j ( } } } } } } } } } ",
"} } } } / z x / [ { { { { { { ( $ 4 ~ { { H H } } } } } } } } } ",
"} } } } k ~ { { { { { { { { { { ' { { { { _ j _ } } } } } } } } ",
"} } } _ j [ { { { { { { { { { { { { { { { { x J ' _ ` ` } } } } ",
"} } } } l / { { { { { { { { { { { { { { { { ( 3 c c a Z ( } } } ",
"} ' _ ` J z { { { { { { { { { { { { { { { { { y , w w q v ( } } ",
"} _ n a a & ) { { { { { { { { { { { { { { { { ~ = w q w q F } } ",
"} _ a e e = A { { { { { { { { { { { { { { { { { 5 1 q 0 0 n ' } ",
"} _ a e e 0 > ] { { { { { { { { { { { { { [ [ { J % 7 7 6 i _ } ",
"} _ a w 0 e = J { { { { { { { { { { { [ ] [ [ { ] > 6 8 8 t _ } ",
"} _ a e w w 2 5 [ { { { { { { { { [ ' [ [ ] ] { { G * 8 7 t _ } ",
"} ) a e e w w % ~ { { { { { { ] ' [ [ [ ] [ ] [ { ` - 6 7 t _ } ",
"} _ s e e w e < y { { { [ ' ] [ ] ' ' ] ' ] [ ' [ { l * 8 t _ } ",
"} _ D n b m m b c Y T T U U Y Y P U U P P U L L P P B r p m _ } ",
"} _ I K S C S C B B B M M M M m M f g g f f f d d d d d d K _ } ",
"} ` U S S S C C C B B B M M M m g m g g g g f d d f d d d K _ } ",
"} _ U S S C C C V V B M M M M h M M g g f f f d f d d d d K _ } ",
"} ` W C S C C C V V B B V M M V g h g g g h h h h h f h f K _ } ",
"} } ` E C C C V V V V V h V V h K h M h h h h h h h h h h K _ } ",
"} } } _ E V C C V V V V V h h V h M h h h h h h h h h h h K ` } ",
"} } } } _ R K V V V V M M V h h h h h h h h h f d h h d h K ` } ",
"} } } } } ` ! W W W W W E W W W W E W E W W W R E E E E E Q ` } ",
"} } } } } } } } } } } ' ' ' ' ' ' ' ' ' ' ' ' ' ' } } } } } } } ",
"} } } } } } } } } } ' _ ) ) ) ) _ _ _ ( ( ) ) ) _ ' ' } } } } } ",
"} } } } } } } } } } ' _ ( ( ( ( / ( ( / / / / / ( _ ' } } } } } ",
"} } } } } } } } } } ' ` _ ) _ _ _ ) ) ( ( ( ( ( ( _ ' } } } } } "
};
