/* XPM */
static char *open_dis[] = {
/* columns rows colors chars-per-pixel */
"32 32 128 2",
"   c #020202",
".  c gray7",
"X  c gray11",
"o  c #252525",
"O  c #373737",
"+  c gray24",
"@  c #434343",
"#  c #5B5B5B",
"$  c #6A6A6A",
"%  c #7C7367",
"&  c #7E776D",
"*  c #7D7973",
"=  c #8A7B67",
"-  c #827B73",
";  c #837F7B",
":  c #9B886F",
">  c #908477",
",  c #A99375",
"<  c #848484",
"1  c #8D8C8C",
"2  c #9C8F80",
"3  c #908C88",
"4  c #929292",
"5  c #9A9893",
"6  c #9B9B9B",
"7  c #AA9B8B",
"8  c #ADA394",
"9  c #B5AA99",
"0  c #A5A5A4",
"q  c #A9A8A6",
"w  c #A9A9A9",
"e  c #B5B4B4",
"r  c #B9B7B6",
"t  c gray72",
"y  c #C1A588",
"u  c #C7AE8C",
"i  c #CDB28E",
"p  c #C2AF9A",
"a  c #D3AD95",
"s  c #D8AE97",
"d  c #D7AF98",
"f  c #D8AE98",
"g  c #CDB593",
"h  c #CDB59E",
"j  c #D4B196",
"k  c #D8B097",
"l  c #D5BA95",
"z  c #D6B49A",
"x  c #DAB39C",
"c  c #D6BF9F",
"v  c #D9B89F",
"b  c #C8B4A0",
"n  c #CEBBA6",
"m  c #DCB7A0",
"M  c #D6BDA0",
"N  c #DCBCA4",
"B  c #DFBFA8",
"V  c #E0BFA8",
"C  c #CCC1AF",
"Z  c #DEC2AB",
"A  c #CDC3B3",
"S  c #CEC6B8",
"D  c #D0C5B4",
"F  c #DBC6B1",
"G  c #DDC8B3",
"H  c #D0C8BC",
"J  c #E0C3AC",
"K  c #E2C7B0",
"L  c #E2CAB4",
"P  c #E2CEBA",
"I  c #E5D1BC",
"U  c #E8D3BC",
"Y  c #C3C3C3",
"T  c gray80",
"R  c LightGray",
"E  c gray86",
"W  c #E3D2C2",
"Q  c #E9D5C0",
"!  c #E4D7CB",
"~  c #E4E2DF",
"^  c #E4E4E4",
"/  c #E9E7E5",
"(  c #E9E8E7",
")  c gray92",
"_  c #F0EFEE",
"`  c #F1F0EF",
"'  c #F3F3F3",
"]  c #F8F7F6",
"[  c gray100",
"{  c None",
"}  c black",
"|  c black",
" . c black",
".. c black",
"X. c black",
"o. c black",
"O. c black",
"+. c black",
"@. c black",
"#. c black",
"$. c black",
"%. c black",
"&. c black",
"*. c black",
"=. c black",
"-. c black",
";. c black",
":. c black",
">. c black",
",. c black",
"<. c black",
"1. c black",
"2. c black",
"3. c black",
"4. c black",
"5. c black",
"6. c black",
"7. c black",
"8. c black",
"9. c black",
"0. c black",
"q. c black",
"w. c black",
"e. c black",
"r. c black",
"t. c black",
"y. c black",
"u. c black",
/* pixels */
"{ { { { { { { { { { { { { { { { { { { { { { { { { { { { { { { { ",
"{ { { { { { { { { { { { { { { { { { { { { { { { { { { { { { { { ",
"{ { { { { { { { { { { { { { { { { { { { { { { { { { { { { { { { ",
"{ { { { { { { { { { { { ^ Y 1 4 T ^ { { { { { { { { { { { { { { ",
"{ { { { { { { { { { ^ e 4 w 6 o O $ w E ) { { { { { { { { { { { ",
"{ { { { { { { ) R 0 1 e ) [ ) +   . X + < T { { { { { { { { { { ",
"{ { { { { ) T 6 4 Y ' [ [ [ [ 4     . # 0 < E { { { { { { { { { ",
"{ { { { R 4 6 R ] [ [ [ [ [ [ E @ $ Y ] [ w w { { { { { { { { { ",
"{ { { { 1 Y [ [ [ [ [ [ [ [ [ [ ) ] [ [ [ ^ < ^ { { { { { { { { ",
"{ { { ^ 1 ' [ [ [ [ [ [ [ [ [ [ [ [ [ [ [ [ 6 e ) ( ( ( { { { { ",
"{ { { { 1 R [ [ [ [ [ [ [ [ [ [ [ [ [ [ [ [ E * n A A S ~ { { { ",
"{ ) / ) t 4 [ [ [ [ [ [ [ [ [ [ [ [ [ [ [ [ ] 1 8 S S C A ^ { { ",
"{ ( I G G - ^ [ [ [ [ [ [ [ [ [ [ [ [ [ [ [ [ T - C A S n H { { ",
"{ / P U Q 7 0 [ [ [ [ [ [ [ [ [ [ [ [ [ [ [ [ ] > 9 C A A S ) { ",
"{ / P U Q F * ) [ [ [ [ [ [ [ [ [ [ [ [ [ ' ' [ t = g g g M / { ",
"{ / P U I U 2 e [ [ [ [ [ [ [ [ [ [ [ ] _ ' ' [ _ & u l l M / { ",
"{ / I U I U n > ] [ [ [ [ [ [ [ ] ' _ ' ] ' ) ] [ q : l l c ( { ",
"{ / L I I I G > Y [ [ [ [ [ ] ` ` ' ' _ ) ' ` ] [ ^ % i l M / { ",
"{ ( L I I L I p 1 ] [ [ ] ) ) ] ' ) _ _ ) ` ' ) ] [ 5 , l c / { ",
"{ ( I I L I L L b U Q W P P U P G P G F G L Z C G K h y j c / { ",
"{ ( L I L L L K K Z Z Z Z N N N N m M z z z z d a a a a a c ^ { ",
"{ ( L L L L K K J Z Z Z Z N N M m M m z z z z z j a a a a v / { ",
"{ ( I L L L K K J Z Z B B N N N M m z m z z z d d a a a a M / { ",
"{ ) W K K K K J J Z Z N N N N N m m m z z z x f f j a a a N / { ",
"{ { ( W J K J J B B V B N N m m m m x x m f f x x f f d f N ^ { ",
"{ { { ( W J J J J B B N V N N m m m m x f x x f f f f f f N / { ",
"{ { { { ( W J J Z B B N m m m m x m x x x x d j k x k f d N / { ",
"{ { { { { ^ ! Q W W W ! W W W W W W W W P W W W W G W G G W ) { ",
"{ { { { { { { { ( ^ E E ^ ^ ^ ( ^ ^ ^ ) ) ) ( ) ( ^ { { { { { { ",
"{ { { { { { { ) E T Y Y R R R T T R R E E R R T R E ^ { { { { { ",
"{ { { { { { { ) R R Y T T T R Y T R T R R Y T Y T R ^ { { { { { ",
"{ { { { { { { ) E R T T E R R R T R T R T T T Y T R ^ { { { { { "
};
