/* XPM */
static char *open_sel[] = {
/* columns rows colors chars-per-pixel */
"32 32 128 2",
"   c #010101",
".  c #0B0B0B",
"X  c #151515",
"o  c #103D03",
"O  c #133809",
"+  c #1F3A16",
"@  c #203B16",
"#  c #253B1F",
"$  c #232323",
"%  c #282828",
"&  c #263822",
"*  c #293923",
"=  c #323E2D",
"-  c gray20",
";  c #3F3F3F",
":  c #0F4200",
">  c #124E02",
",  c #1A490F",
"<  c #135200",
"1  c #1A5309",
"2  c #185F0D",
"3  c #1B4511",
"4  c #1F5510",
"5  c #234A14",
"6  c #235216",
"7  c #285517",
"8  c #245119",
"9  c #2A531A",
"0  c #275A1B",
"q  c #2A5919",
"w  c #18660A",
"e  c #1A6A0F",
"r  c #1F7113",
"t  c #246D0F",
"y  c #2A6F0F",
"u  c #256D13",
"i  c #2A6F13",
"p  c #276E18",
"a  c #2A6E1C",
"s  c #257113",
"d  c #2A7016",
"f  c #2D701B",
"g  c #2F402A",
"h  c #2C5E21",
"j  c #3B4437",
"k  c #3C463A",
"l  c #2E6F21",
"z  c #306D25",
"x  c #326329",
"c  c #3A6729",
"v  c #336B29",
"b  c #39682E",
"n  c #2F7121",
"m  c #317124",
"M  c #35722B",
"N  c #38712F",
"B  c #3B7533",
"V  c #3E7936",
"C  c #3F7438",
"Z  c #426E37",
"A  c #44763D",
"S  c #43783B",
"D  c gray27",
"F  c #464E43",
"G  c #484F46",
"H  c gray30",
"J  c #50584F",
"K  c #525352",
"L  c gray35",
"P  c #497942",
"I  c #5E605D",
"U  c gray39",
"Y  c #6B6C6B",
"T  c gray46",
"R  c #7B7B7B",
"E  c #47863E",
"W  c #48863F",
"Q  c #468B3D",
"!  c #488C3F",
"~  c #4C8C43",
"^  c #508C47",
"/  c #508D48",
"(  c #5B9955",
")  c #64995D",
"_  c #848484",
"`  c #868B85",
"'  c #8C8D8C",
"]  c #8E918E",
"[  c #908F90",
"{  c #939393",
"}  c #959895",
"|  c gray60",
" . c #A4A3A3",
".. c gray67",
"X. c #B0AFAF",
"o. c #B3B2B2",
"O. c #BAB9B9",
"+. c #BDCABB",
"@. c #C4C3C3",
"#. c gray80",
"$. c #D4D3D3",
"%. c #D2DBD1",
"&. c #DCDEDC",
"*. c #DDE2DD",
"=. c gray90",
"-. c #E4E8E4",
";. c #E8E7E8",
":. c #E9E9E9",
">. c None",
",. c black",
"<. c black",
"1. c black",
"2. c black",
"3. c black",
"4. c black",
"5. c black",
"6. c black",
"7. c black",
"8. c black",
"9. c black",
"0. c black",
"q. c black",
"w. c black",
"e. c black",
"r. c black",
"t. c black",
"y. c black",
"u. c black",
/* pixels */
">.>.>.>.>.>.>.>.>.>.>.>.>.>.>.>.>.>.>.>.>.>.>.>.>.>.>.>.>.>.>.>.",
">.>.>.>.>.>.>.>.>.>.>.>.>.>.>.>.>.>.>.>.>.>.>.>.>.>.>.>.>.>.>.>.",
">.>.>.>.>.>.>.>.>.>.>.>.>.>.>.>.>.>.>.>.>.>.>.>.>.>.>.>.>.>.>.>.",
">.>.>.>.>.>.>.>.>.>.>.>.=.| K L ..=.>.>.>.>.>.>.>.>.>.>.>.>.>.>.",
">.>.>.>.>.>.>.>.>.>.$._ H U I X X - R @.:.>.>.>.>.>.>.>.>.>.>.>.",
">.>.>.>.>.>.>.:.@.T K Y ' | ' $   . . X D o.>.>.>.>.>.>.>.>.>.>.",
">.>.>.>.>.:.o.U K T [ | | | | L     . - U D $.>.>.>.>.>.>.>.>.>.",
">.>.>.>.@.K L R | | | | | | | _ % ; T { | U R >.>.>.>.>.>.>.>.>.",
">.>.>.>.K T { | | | | | | | | | ' { | | | ' D &.>.>.>.>.>.>.>.>.",
">.>.>.&.H [ | | | | | | | | | | | | | | | } L ' :.*.*.-.>.>.>.>.",
">.>.>.>.K R | | | | | | | | | | | | | | | | _ & 0 0 0 b +.>.>.>.",
">.:.&.*.` K | | | | | | | | | | | | | | | | } G 3 6 8 8 h +.>.>.",
">.%.Z 7 7 # ' | | | | | | | | | | | | | | | | R + 4 6 8 6 Z >.>.",
">.%.9 9 9 @ I | | | | | | | | | | | | | | | | } k , 6 6 6 x :.>.",
">.%.q 9 9 5 = [ | | | | | | | | | | | | | { { | Y O > > > 4 &.>.",
">.%.q 9 9 9 @ Y | | | | | | | | | | | { [ { { | [ = > < > 1 %.>.",
">.%.q 9 9 9 5 j { | | | | | | | | { [ [ { [ [ { | U o < < 1 %.>.",
">.$.q 9 5 7 7 @ T | | | | | | { ' [ { [ ] ] [ { | ' # > < 1 %.>.",
">.%.q q q 9 7 , F } | | { ' ] ] ' ' [ [ ' ' ] ' { } J o < 1 %.>.",
">.%.z v v c x z x P P A A A A A C S C C V V B N B V l w w e %.>.",
">.%.M B N M M M m z m l l a a a p p p p u u u u t e t t t r %.>.",
">.%.M N N N M M m m m l l l a a a p p p p p u u u u u t t r %.>.",
">.*.M M M v M M m z l l n a a f a p p p p u u u u t t t t r %.>.",
">.-.~ M M M m m m m n n a n f f f p f d d i i i i t u y t s %.>.",
">.>.%.~ n M m m n n n n f f f d f d d i d d d y i y y y y s %.>.",
">.>.>.%.W n m m m m f f f f f d d d i d y y d d i y y y y s *.>.",
">.>.>.>.%.! m m f n f f d d d d d d d s d y t t t t t y t s %.>.",
">.>.>.>.>.%.) ~ ^ ^ ^ ^ / ^ ^ ~ ~ ~ ~ Q ~ Q ~ ! ! ! Q Q Q ( *.>.",
">.>.>.>.>.>.>.>.>.>.>.:.;.;.;.=.:.;.;.;.=.=.;.;.:.>.>.>.>.>.>.>.",
">.>.>.>.>.>.>.>.>.>.;.$.@.@.@.#.#.#.#.@.@.@.@.@.$.=.:.>.>.>.>.>.",
">.>.>.>.>.>.>.>.>.>.=.#.o.o.O.O.o.o.X. . . . . .o.#.-.>.>.>.>.>.",
">.>.>.>.>.>.>.>.>.>.;.&.$.#.$.#.@.@.@.O.O.O.O.O.O.#.:.>.>.>.>.>."
};
