/* XPM */
static char *open_dis[] = {
/* columns rows colors chars-per-pixel */
"28 28 86 1",
"  c #020202",
". c #0C0C0C",
"X c gray7",
"o c #1B1B1C",
"O c #232323",
"+ c gray18",
"@ c #302A34",
"# c gray30",
"$ c gray33",
"% c #595859",
"& c gray39",
"* c #6B666C",
"= c #6A6A6B",
"- c #6F6372",
"; c #726D74",
": c #776D7C",
"> c #7A6E7E",
", c #757475",
"< c #777578",
"1 c #787779",
"2 c gray48",
"3 c #7B7281",
"4 c #7F7981",
"5 c #817587",
"6 c #807E81",
"7 c #86748D",
"8 c #907B98",
"9 c #818181",
"0 c #8D8C8D",
"q c #908F8F",
"w c #908F90",
"e c #978D9D",
"r c gray57",
"t c gray61",
"y c #A088AA",
"u c #A2A2A2",
"i c #AFAFAF",
"p c #B5AABB",
"a c #B4B4B4",
"s c #BBBBBB",
"d c #B19AC1",
"f c #BFB5C4",
"g c #C4BACA",
"h c #C5BCEA",
"j c #D5BBEA",
"k c #D9BFEF",
"l c #C3C3C3",
"z c #C8C7C8",
"x c #CBCBCB",
"c c #CFC5D5",
"v c #D8CEDF",
"b c gray83",
"n c #D8D6D8",
"m c #DADADA",
"M c #D9CCE1",
"N c #CAC1F1",
"B c #D5C3F3",
"V c #DAC4F4",
"C c #DAC8F7",
"Z c #D4CAFC",
"A c #DDCCF9",
"S c #D9D3F3",
"D c #DDD3FF",
"F c #DFD9F8",
"G c #E3CCFD",
"H c #EACEFF",
"J c #E4D3FD",
"K c #EBD3FF",
"L c #E3DAFC",
"P c #EADBFF",
"I c gray90",
"U c #EAE3EF",
"Y c gray92",
"T c #EEEAF1",
"R c #ECE3FE",
"E c #EEE9FF",
"W c #F2EFF4",
"Q c #F2E5FF",
"! c #F2EDFF",
"~ c #FAECFF",
"^ c #F3F3F3",
"/ c #F7F2FF",
"( c #FAF4FD",
") c #FEFEFE",
"_ c black",
"` c None",
/* pixels */
"``l,&&&&&&&&&&&&&&&&&&&&&0I`",
"`b,x))))))))))))))))))))^rr`",
"`ua))))))))))))))))))))))),n",
"`rx)))))))))))))))))))))))2b",
"`rz))))))))))))))))))))))),b",
"`rl))))))))))))))))))))))),b",
"`rl))))))))))))))))))))))(2b",
"`rs)^(^^(^^^^^^^^)(^^^^)^^1b",
"`ra)^^^YYIIIIIIIsulY^^^^^^,b",
"`ra^YYIIIIIIIIIt;u=aIYYYYY,b",
"`raYYYYYYYYYYYm=()n,YYYYYT,b",
"`wa^YYYYYYYYYYn2))W,IYYYYY,b",
"`wa^^^^YY^Y^Y^m2))T,YY^^^Y2b",
"`wa^^^^^^^^^^^m,))U1^^^^^^,b",
"`qs)^^^^^))^()I2()U2^^^))^,b",
"`qa)^)))^s00009*//U%0w00wz,b",
"`qs)))))i;fggggv/!!cggggp&#b",
"`qs)))))<M/!!RLFSSSLRE!!(p@b",
"`ws)))))9f~RJACBhhhBCAPQ~e+b",
"`qs)))))m*57777yCNB877771,&b",
"`wl))))))^nnbnl-CZj*bnbbn(2b",
"`t0nnnnnY))))))>GZj4))))))2b",
"`m=OXXX.0)))))(<HAj6))))))2b",
"``n&o   9)))))):KDk6))))))2b",
"```m=o. 9))))))3KLV6))))))2n",
"````m=O 9)))))):KPk6))))))1n",
"`````m=O0))))))6dH8u)))))l2Y",
"``````n%$000000&o@O200001=x`"
};
