/* XPM */
static char *open[] = {
/* columns rows colors chars-per-pixel */
"32 32 128 2",
"   c #020202",
".  c gray7",
"X  c gray11",
"o  c #252525",
"O  c #373737",
"+  c gray24",
"@  c #434343",
"#  c #5B5B5B",
"$  c #7C6546",
"%  c #7E6C54",
"&  c #6A6A6A",
"*  c #7D7364",
"=  c #9B6C2D",
"-  c #8A6634",
";  c #A97229",
":  c #D66E36",
">  c #D86D36",
",  c #D86F38",
"<  c #C17A32",
"1  c #D37436",
"2  c #D87235",
"3  c #D37837",
"4  c #D77239",
"5  c #D9743B",
"6  c #D47B3C",
"7  c #DA793D",
"8  c #826E58",
"9  c #82725A",
"0  c #907251",
"q  c #9C7B56",
"w  c #817363",
"e  c #84796D",
"r  c #827C73",
"t  c #D67F40",
"y  c #DB7C42",
"u  c #C78833",
"i  c #CD8931",
"p  c #D38432",
"a  c #D48F33",
"s  c #CD913D",
"d  c #D69134",
"f  c #AA865E",
"g  c #90867C",
"h  c #AD946E",
"j  c #B5996E",
"k  c #D78243",
"l  c #DB8346",
"z  c #DC854A",
"x  c #DB8A4D",
"c  c #D6974E",
"v  c #D69C4E",
"b  c #DC8D52",
"n  c #CD9157",
"m  c #C2935F",
"M  c #D69051",
"N  c #DD9155",
"B  c #DD955A",
"V  c #DE985E",
"C  c #E08F55",
"Z  c #E0945B",
"A  c #E19A5E",
"S  c #D1A15D",
"D  c #C89665",
"F  c #CE9E69",
"G  c #DE9C63",
"H  c #E19B63",
"J  c #E29F68",
"K  c #DCA36C",
"L  c #DFA772",
"P  c #DAA974",
"I  c #E1A167",
"U  c #E2A46C",
"Y  c #E3A771",
"T  c #E3AB74",
"R  c #E2AE7A",
"E  c #E5B075",
"W  c #E4B27B",
"Q  c #E8B47B",
"!  c #848484",
"~  c #8D8982",
"^  c #8D8D8D",
"/  c #9A9388",
"(  c #929292",
")  c #9B9B9B",
"_  c #A4A29F",
"`  c #A7A7A7",
"'  c #A9A6A2",
"]  c #A9A9A9",
"[  c #B5B4B4",
"{  c #B9B5B1",
"}  c #B8B8B7",
"|  c #CCAF82",
" . c #CDB085",
".. c #CDB38B",
"X. c #D0B48B",
"o. c #CEB793",
"O. c #CEB997",
"+. c #D0BC9D",
"@. c #E3B584",
"#. c #E9B882",
"$. c #E2B68B",
"%. c #E4B88D",
"&. c #E3BA93",
"*. c #E1BF99",
"=. c #E4C4A4",
"-. c #C3C3C3",
";. c gray80",
":. c LightGray",
">. c #D7D8D8",
",. c #DBDBDC",
"<. c #E4DFD8",
"1. c #E9E4DE",
"2. c #E3E4E4",
"3. c #E9E6E2",
"4. c #E9E8E7",
"5. c #E7E8E9",
"6. c gray92",
"7. c #F0EEEB",
"8. c #F3F1EE",
"9. c #EFF0F0",
"0. c #F4F4F4",
"q. c #F8F6F3",
"w. c gray100",
"e. c None",
"r. c black",
"t. c black",
"y. c black",
"u. c black",
/* pixels */
"e.e.e.e.e.e.e.e.e.e.e.e.e.e.e.e.e.e.e.e.e.e.e.e.e.e.e.e.e.e.e.e.",
"e.e.e.e.e.e.e.e.e.e.e.e.e.e.e.e.e.e.e.e.e.e.e.e.e.e.e.e.e.e.e.e.",
"e.e.e.e.e.e.e.e.e.e.e.e.e.e.e.e.e.e.e.e.e.e.e.e.e.e.e.e.e.e.e.e.",
"e.e.e.e.e.e.e.e.e.e.e.e.2.-.^ ( ;.2.e.e.e.e.e.e.e.e.e.e.e.e.e.e.",
"e.e.e.e.e.e.e.e.e.e.2.[ ( ] ) o O & ` >.6.e.e.e.e.e.e.e.e.e.e.e.",
"e.e.e.e.e.e.e.6.>.` ^ [ 6.w.6.+   . X @ ! ;.e.e.e.e.e.e.e.e.e.e.",
"e.e.e.e.e.5.;.) ( -.0.w.w.w.w.(     . # ` ! ,.e.e.e.e.e.e.e.e.e.",
"e.e.e.e.:.( ) :.0.w.w.w.w.w.w.,.@ & -.q.w.` ] e.e.e.e.e.e.e.e.e.",
"e.e.e.e.( -.w.w.w.w.w.w.w.w.w.w.6.q.w.w.w.2.! 2.e.e.e.e.e.e.e.e.",
"e.e.e.2.! 9.w.w.w.w.w.w.w.w.w.w.w.w.w.w.w.w.) [ 6.4.2.6.e.e.e.e.",
"e.e.e.e.^ :.w.w.w.w.w.w.w.w.w.w.w.w.w.w.w.w.>.*  .....O.<.e.e.e.",
"e.6.3.3.{ ( w.w.w.w.w.w.w.w.w.w.w.w.w.w.w.w.w.! h .... ...1.e.e.",
"e.3.$.W P 9 2.w.w.w.w.w.w.w.w.w.w.w.w.w.w.w.w.;.9  .X...| +.e.e.",
"e.1.P #.#.f ' w.w.w.w.w.w.w.w.w.w.w.w.w.w.w.w.q.r j |  .| o.6.e.",
"e.1.W #.Q P * 6.w.w.w.w.w.w.w.w.w.w.w.w.w.q.q.w.} - s s s S 3.e.",
"e.1.W #.Q Q q [ w.w.w.w.w.w.w.w.w.w.w.0.9.0.q.w.6.8 u d a v 1.e.",
"e.1.R Q W Q F e 0.w.w.w.w.w.w.w.w.0.6.0.0.0.6.q.w.' = d d v 1.e.",
"e.1.W Q W E E 0 -.w.w.w.w.w.q.0.6.0.0.0.6.0.9.0.w.5.$ i a v 1.e.",
"e.1.W W E E E m g w.w.q.q.6.6.8.8.4.6.7.6.7.7.7.q.w./ ; a v 1.e.",
"e.1.R W E T T K D @.%.@.@.R @.W L R R K Y Y K F K U n < p c 1.e.",
"e.1.R T T Y U I J V V B N N b b x x k k k k 6 6 3 3 3 1 1 M 1.e.",
"e.1.R T Y U I J G G V B B N N x x x z z k k t t 6 3 3 1 1 c 1.e.",
"e.1.T T Y U J J G V V B b N b x x z k k k t 6 6 6 3 1 1 1 M 1.e.",
"e.4.&.I I J H H A Z C b b C z z k l k y t 6 7 5 4 4 : : : b 1.e.",
"e.e.1.%.H J H A Z C C C z z z z l y y y y 5 5 5 5 4 > > > b 1.e.",
"e.e.e.3.%.A H Z Z C C b C z z y y y y 7 5 5 5 5 4 , > > > b 1.e.",
"e.e.e.e.1.%.Z C Z C b x z z l l l y y 7 7 7 5 5 4 2 2 > 2 b 1.e.",
"e.e.e.e.e.3.=.&.&.&.&.&.&.&.&.&.&.%.%.$.$.$.$.$.$.$.X.@.@.*.4.e.",
"e.e.e.e.e.e.e.e.5.,.,.,.2.5.2.5.2.2.6.6.6.6.6.5.2.5.e.e.e.e.e.e.",
"e.e.e.e.e.e.e.6.,.;.-.;.:.;.:.;.;.:.>.:.:.>.:.;.:.>.4.e.e.e.e.e.",
"e.e.e.e.e.e.e.6.>.:.-.;.;.;.:.-.;.:.;.:.:.-.;.-.;.:.,.e.e.e.e.e.",
"e.e.e.e.e.e.e.6.,.:.;.;.>.:.:.:.;.:.;.:.;.;.;.-.;.:.2.e.e.e.e.e."
};
