/* XPM */
static char *open[] = {
/* columns rows colors chars-per-pixel */
"28 28 136 2",
"   c #020202",
".  c #080708",
"X  c gray5",
"o  c #12081C",
"O  c gray8",
"+  c #19141F",
"@  c #1B1B1B",
"#  c #1A002F",
"$  c gray13",
"%  c #2C2C2E",
"&  c #5F0E7E",
"*  c #582268",
"=  c #5D2B71",
"-  c #5F277B",
";  c #5D3275",
":  c #602B72",
">  c #4B4B4B",
",  c #514452",
"<  c #565656",
"1  c gray36",
"2  c #5C4162",
"3  c #5C4C64",
"4  c #5D476A",
"5  c #605F60",
"6  c #6A5E6E",
"7  c #6D5375",
"8  c #656566",
"9  c #6B656D",
"0  c #6D6C6D",
"q  c #706E6F",
"w  c #6B6077",
"e  c #716F72",
"r  c #747374",
"t  c #7E7E7E",
"y  c #5F0E81",
"u  c #570391",
"i  c #69068A",
"p  c #621181",
"a  c #71049A",
"s  c #6600AF",
"d  c #73448F",
"f  c #7F7E80",
"g  c #2701D4",
"h  c #2D01D6",
"j  c #3201D7",
"k  c #2B02E2",
"l  c #2D01EA",
"z  c #2E00F5",
"x  c #3800FD",
"c  c #4A02DD",
"v  c #5003DF",
"b  c #6802DB",
"n  c #7300D5",
"m  c #7500DB",
"M  c #5A08E1",
"N  c #6900E6",
"B  c #6900EC",
"V  c #7F00EA",
"C  c #6616E3",
"Z  c #6A00F1",
"A  c #7200F3",
"S  c #7325E6",
"D  c #7E33E8",
"F  c #6247DC",
"G  c #664BDD",
"H  c #6F54E1",
"J  c #7559E3",
"K  c #7E63E6",
"L  c #807D81",
"P  c #8D5AAA",
"I  c #8E53B2",
"U  c #9064A9",
"Y  c #9B6DB5",
"T  c #9D6EB8",
"R  c #9E70B8",
"E  c #A76ECD",
"W  c #A777C2",
"Q  c #904AEC",
"!  c #9859ED",
"~  c #846AE7",
"^  c #8E75E9",
"/  c #927BEA",
"(  c #AC6DF1",
")  c #818181",
"_  c #8E8E8E",
"`  c #908F8F",
"'  c #8E8C93",
"]  c gray57",
"[  c gray62",
"{  c #A5A3A4",
"}  c #A8A6A8",
"|  c #ABAAAB",
" . c #AEB4AC",
".. c gray70",
"X. c #BDBCBD",
"o. c #BFC2BE",
"O. c #C0C3BF",
"+. c #BC95DA",
"@. c #9B85EC",
"#. c #9F8AEC",
"$. c #A799E9",
"%. c #B595E8",
"&. c #AB89F2",
"*. c #B5A9EC",
"=. c #C1BAC5",
"-. c #C1A1D8",
";. c #C8B0D9",
":. c #CFBDDB",
">. c #C5A3EB",
",. c #CEB2EB",
"<. c #C4BAEE",
"1. c gray77",
"2. c #CCCDCC",
"3. c #D6CADD",
"4. c gray83",
"5. c #D8D7D8",
"6. c #DCDBDB",
"7. c #E0E0DF",
"8. c #D7C2ED",
"9. c #DED7E2",
"0. c #D2CAF1",
"q. c #DED9F5",
"w. c #E0DFE0",
"e. c #E9DEF2",
"r. c gray89",
"t. c #E6E9E5",
"y. c #E8E7E8",
"u. c gray92",
"i. c #EAE6F8",
"p. c #F0EFF0",
"a. c #F5F5F4",
"s. c #F7F8F6",
"d. c #FCF7FF",
"f. c #FBFBFB",
"g. c black",
"h. c None",
/* pixels */
"h.h.1.0 1 1 1 1 1 1 1 1 1 1 1 1 1 1 1 1 1 1 1 1 5 ] r.h.",
"h.4.0 X.y.y.y.u.y.y.u.y.y.y.u.y.u.r.y.y.u.y.y.y.6.) ] h.",
"h.[ } f.s.f.f.f.f.s.f.s.f.s.s.d.f.f.f.a.f.s.f.s.f.y.0 6.",
"h.] X.f.a.a.a.a.a.a.a.a.a.a.a.a.a.a.a.a.a.a.a.a.a.u.e 4.",
"h.] ..a.p.p.p.p.a.u.u.a.p.p.p.p.u.p.u.a.u.p.p.p.a.u.q 4.",
"h.] ..u.u.u.u.u.u.u.u.u.y.u.y.u.u.u.u.u.u.u.u.u.u.r.0 4.",
"h.] | u.r.r.r.r.r.r.r.r.r.t.r.y.r.u.r.r.r.t.r.r.r.w.e 4.",
"h.] | r.r.6.r.r.6.r.r.6.7.7.9.6.r.r.r.6.r.r.7.r.r.6.q 4.",
"h._ } r.7.6.6.5.5.4.4.2.4.2.4.2.} ] ..5.6.6.6.6.6.6.0 4.",
"h._ { 6.5.4.4.4.2.4.4.2.4.2.4._ 9 ] 5 { 4.4.5.5.6.6.0 2.",
"h._ { 6.4.4.4.4.5.4.4.4.4.4.1.5 w.d.=.8 4.4.4.5.5.5.0 4.",
"h._ [ 6.5.5.5.5.5.5.5.5.5.5.1.9 e.i.3.8 4.5.5.5.5.5.9 4.",
"h.] { 6.6.6.6.6.6.6.6.6.6.6.1.9 q.q.:.9 5.6.6.6.5.6.0 4.",
"h._ { r.6.6.6.6.6.6.6.6.6.7.2.9 8.0.;.6 6.6.6.6.6.6.0 4.",
"h._ { r.7.7.7.7.w.r.r.r.r.r.2.6 ,.<.-.9 7.r.r.r.r.r.0 4.",
"h._ } r.r.r.r.r.9.| L L L L e 3 >.*.+., t t f f ) ..0 4.",
"h.` } u.r.r.u.t.[ 4 Y R T R R +.$.#.%.W T T T T U 2 > 4.",
"h._ | u.u.r.u.r.9 E &.#.@.^ K H F F G J ~ / @.@.&.P % 4.",
"h._ | p.u.u.u.u.e I ( Q S M M c h g j v v C D ! ( d % 4.",
"h.` | a.a.u.u.a.1.3 - p y y & a v h b i & p p & ; 8 5 2.",
"h._  .f.a.a.a.a.a.6.1.o.O.O. .* N k n 2 O.O.O.O.1.r.r 4.",
"h.[ ) 1.1.1.1.=.6.a.a.s.s.s.7.: N l n 7 s.s.s.s.s.u.r 4.",
"h.6.8 $ O X X . t s.a.a.s.s.7.= N l n 7 p.s.a.s.s.p.r 4.",
"h.h.6.8 O       r f.f.f.s.s.t.: B z n 7 s.s.s.s.s.p.r 4.",
"h.h.h.6.8 @ .   r f.f.f.f.f.y.= Z z m 7 f.f.f.f.f.a.r 4.",
"h.h.h.h.6.8 $ . r f.f.f.f.f.u.= A x m 7 f.f.f.f.f.a.r 5.",
"h.h.h.h.h.6.9 $ ) f.f.f.f.f.s.w s V u ' f.f.f.f.f...t t.",
"h.h.h.h.h.h.5.< > ) ) ) t t ) 5 o # + e ) ) ) ) 9 8 2.h."
};
