/* XPM */
static char *open_sel[] = {
/* columns rows colors chars-per-pixel */
"28 28 108 2",
"   c #020202",
".  c gray4",
"X  c #0A0511",
"o  c #0F0C12",
"O  c #0F001C",
"+  c gray8",
"@  c #35143E",
"#  c #2B2B2C",
"$  c #302831",
"%  c #37273A",
"&  c #352C3C",
"*  c #373837",
"=  c #3C3B3C",
"-  c #3A094D",
";  c #361A43",
":  c #391A45",
">  c #39174A",
",  c #340257",
"<  c #3F0352",
"1  c #3E3C40",
"2  c #3D0069",
"3  c #43025C",
"4  c #413345",
"5  c #403B42",
"6  c #452855",
"7  c #45007F",
"8  c #553666",
"9  c #563C65",
"0  c #55326B",
"q  c #464546",
"w  c #4C4B4C",
"e  c #535253",
"r  c #555458",
"t  c #585659",
"y  c #5A595A",
"u  c #5E426E",
"i  c #605F60",
"p  c #644774",
"a  c #64427B",
"s  c #674B79",
"d  c #646364",
"f  c #686C67",
"g  c #686768",
"h  c #6C6B6C",
"j  c #747574",
"k  c #7E7E7E",
"l  c #1B0181",
"z  c #1A018B",
"x  c #1B0093",
"c  c #2C0185",
"v  c #330286",
"b  c #3E0183",
"n  c #390887",
"m  c #3F008C",
"M  c #3D0D88",
"N  c #210098",
"B  c #3F0090",
"V  c #3C2C84",
"C  c #460083",
"Z  c #4C008C",
"A  c #45168A",
"S  c #4C1E8B",
"D  c #440091",
"F  c #562C8D",
"G  c #433287",
"H  c #463588",
"J  c #4D3D8A",
"K  c #5B358E",
"L  c #55468B",
"P  c #5A4C8D",
"I  c #5E518D",
"U  c #645B8C",
"Y  c #6C5A8C",
"T  c #715982",
"R  c #684290",
"E  c #655390",
"W  c #685192",
"Q  c #6C658D",
"!  c #746181",
"~  c #786982",
"^  c #76628D",
"/  c #756F8F",
"(  c #7C6B8D",
")  c #7C7183",
"_  c #7E7991",
"`  c #807985",
"'  c #81748E",
"]  c #867D8F",
"[  c #848484",
"{  c #878986",
"}  c #888A87",
"|  c #858188",
" . c gray55",
".. c #858293",
"X. c #8B8591",
"o. c #8C8A95",
"O. c #908F90",
"+. c gray58",
"@. c #979499",
"#. c #989898",
"$. c #C0C0C0",
"%. c gray80",
"&. c LightGray",
"*. c #DADADA",
"=. c gray88",
"-. c gray91",
";. c black",
":. c None",
/* pixels */
":.:.$.g q q q q q q q q q q q q q q q q q q q q e  .=.:.",
":.&.t j  . . . . . . . . . . . . . . . . . . . .[ e  .:.",
":.#.d #.+.@.@.@.+.+.+.+.+.+.+.@.+.+.@.@.@.+.@.+.@.} y *.",
":. .h +.+.O.+.O.+.+.+.+.+.O.+.+.+.+.+.O.+.O.+.O.+.O.t &.",
":.+.h +.O.o.O.O.O.O. .O.O.O.O.O.O.O.O.O.O.O.O.O.O. .e &.",
":.O.h  . . . . . . . . . . . . . . . . . . . . . .} e &.",
":. .h  . .} }  . . . . .}  . . .} } }  . .} } }  .{ e &.",
":. .g } { { { { { [ { [ [ [ [ [ { X.} [ } } { } { [ e &.",
":. .d { [ { [ [ k k k k k k k j g y h k [ [ { [ [ [ e &.",
":. .d [ ` k k k k k k k k k k e = t = d k k k [ [ k e &.",
":.O.i [ [ k k k k k [ k k k j = | @.j 1 k k k k [ k e %.",
":. .i [ k [ [ k [ k k [ [ [ j 5  .o.` 1 k [ [ ` k [ e &.",
":. .i { [ [ [ [ [ [ ` [ [ [ j 5 ] ..) 1 ) [ [ [ [ [ e &.",
":.O.i { [ [ [ [ [ [ [ [ [ [ k 5 ' _ ~ 1 [ [ [ | [ [ w &.",
":. .i  .{ [ [ [ }  .{ } { { k 4 ( / ! 1 { }  .} } { e &.",
":.O.i  .{ {  . .[ d w w w w q % ^ Q T $ w w w w w h e &.",
":. .d  .}  .}  .i 1 8 u u u u s U U Y p u u u u 9 & = &.",
":.O.g  . . . . .1 a E I I L J G V V V H J P E P W 8 # &.",
":. .g  . . . . .q 0 R F A n v c l l l c v M S K R 6 # &.",
":. .g +.O.O.O.O.j & > - < - - 3 v l b < - - - - ; = q &.",
":. .g +.+.+.+.O.+.[ j h j j f @ m l C % j j j h j { e &.",
":.#.e j j j j j [ O.+.+.+.+.{ : m z 7 4 +.+.+.+.+.O.t &.",
":.*.d + . . .   q #.+.+.+.+.{ : m x C 1 O.+.+.+.+.O.e &.",
":.:.*.d .       q #.+.+.+.+.{ : m x C 1 +.+.+.+.+.+.e &.",
":.:.:.*.d +     q #.#.+.+.#.{ ; B x C 4 +.+.+.+.+.+.e &.",
":.:.:.:.*.d +   q #.#.#.+.#. .; D N C 1 #.#.#.#.#.O.t *.",
":.:.:.:.:.*.g + w #.#.+.#.#.#.1 2 Z , r #.#.#.#.#.h j -.",
":.:.:.:.:.:.*.e # w w w w w w * X O o 5 w w w w 1 t %.:."
};
