/* XPM */
static char *paste_dis[] = {
/* columns rows colors chars-per-pixel */
"32 32 256 2",
"   c black",
".  c #413927",
"X  c #4D4837",
"o  c #534B34",
"O  c #534E3D",
"+  c #595037",
"@  c #575038",
"#  c #5D553A",
"$  c #645B3E",
"%  c #685E3F",
"&  c #555040",
"*  c #675F41",
"=  c #685F41",
"-  c #6C6342",
";  c #6E684B",
":  c #716745",
">  c #736C45",
",  c #766C48",
"<  c #796D49",
"1  c #7D744B",
"2  c #6D6A54",
"3  c #68665B",
"4  c #736E5D",
"5  c #767256",
"6  c #787453",
"7  c #7F7A57",
"8  c #73705F",
"9  c #696763",
"0  c #6A6964",
"q  c #767262",
"w  c #787770",
"e  c #7E7E7A",
"r  c #83754F",
"t  c #857D52",
"y  c #8B7D54",
"u  c #817C5C",
"i  c #878051",
"p  c #8A8656",
"a  c #87825C",
"s  c #8B845B",
"d  c #908256",
"f  c #938559",
"g  c #98865B",
"h  c #958D59",
"j  c #9B8B5E",
"k  c #9A925C",
"l  c #8E8867",
"z  c #8B856D",
"x  c #928E6A",
"c  c #969261",
"v  c #9F9369",
"b  c #8D8A75",
"n  c #81817E",
"m  c #908C70",
"M  c #969276",
"N  c #9B9677",
"B  c #9C947E",
"V  c #A39B62",
"C  c #B19E6A",
"Z  c #AAA066",
"A  c #ADA468",
"S  c #B5A26D",
"D  c #B6B06F",
"F  c #BAA770",
"G  c #BCA871",
"H  c #B5B271",
"J  c #BEB372",
"K  c #BDB873",
"L  c #C1AD74",
"P  c #C2B574",
"I  c #C4BA76",
"U  c #CAB679",
"Y  c #C5BD7A",
"T  c #CABE7A",
"R  c #D0BC7D",
"E  c #CBC27E",
"W  c #D3D17F",
"Q  c #8F8F8A",
"!  c #9C9581",
"~  c #96958E",
"^  c #979797",
"/  c #9D9C96",
"(  c #9B9B9A",
")  c #A19A82",
"_  c #A09D94",
"`  c #A7A088",
"'  c #ACA48D",
"]  c #ADA99E",
"[  c #B3B094",
"{  c #B4B298",
"}  c gray65",
"|  c #A9A7A0",
" . c #ABAAA3",
".. c gray67",
"X. c #B4B3AD",
"o. c #B8B7AC",
"O. c #B5B4B3",
"+. c #B8B8B5",
"@. c #BCBCBB",
"#. c #C5BC84",
"$. c #C7C382",
"%. c #CDC382",
"&. c #CCCA81",
"*. c #D1C583",
"=. c #DAC583",
"-. c #D4CA86",
";. c #DECA86",
":. c #D5CB8C",
">. c #D9CE89",
",. c #D2D287",
"<. c #DBDA84",
"1. c #D3D289",
"2. c #DBD08B",
"3. c #C9C59E",
"4. c #C9C89C",
"5. c #D7CD92",
"6. c #D8CE93",
"7. c #D5CD9E",
"8. c #D5D293",
"9. c #DBD493",
"0. c #DCD49C",
"q. c #E0CB87",
"w. c #E1D79F",
"e. c #E0DE9B",
"r. c #C5C2A2",
"t. c #CCC9A2",
"y. c #D2CBA2",
"u. c #D1D0A4",
"i. c #DFDBA5",
"p. c #DBD4A9",
"a. c #DDDCAA",
"s. c #CAC8B1",
"d. c #D1D0B4",
"f. c #E0D7A0",
"g. c #E2DAA4",
"h. c #E6DEAB",
"j. c #E0DFBE",
"k. c #E2E0A3",
"l. c #E4E1AD",
"z. c #EAE2B3",
"x. c #EAE8B7",
"c. c #EDE6BB",
"v. c #EEE8BB",
"b. c gray77",
"n. c #CECECE",
"m. c #DBDACD",
"M. c LightGray",
"N. c #D9D8D3",
"B. c #DBDBDA",
"V. c #E0E0C0",
"C. c #EEE9C3",
"Z. c #E3E2CC",
"A. c #F0EAC6",
"S. c #F1EDCA",
"D. c #E3E3D6",
"F. c #E4E4DC",
"G. c #E8E6DD",
"H. c #F5F1D6",
"J. c #DCDDE0",
"K. c gray89",
"L. c #E9E8E5",
"P. c #E6E7EA",
"I. c #EAEAEA",
"U. c #EDEEF1",
"Y. c #EFF0F1",
"T. c gray95",
"R. c #F7F7F8",
"E. c #FEFEFE",
"W. c None",
"Q. c black",
"!. c black",
"~. c black",
"^. c black",
"/. c black",
"(. c black",
"). c black",
"_. c black",
"`. c black",
"'. c black",
"]. c black",
"[. c black",
"{. c black",
"}. c black",
"|. c black",
" X c black",
".X c black",
"XX c black",
"oX c black",
"OX c black",
"+X c black",
"@X c black",
"#X c black",
"$X c black",
"%X c black",
"&X c black",
"*X c black",
"=X c black",
"-X c black",
";X c black",
":X c black",
">X c black",
",X c black",
"<X c black",
"1X c black",
"2X c black",
"3X c black",
"4X c black",
"5X c black",
"6X c black",
"7X c black",
"8X c black",
"9X c black",
"0X c black",
"qX c black",
"wX c black",
"eX c black",
"rX c black",
"tX c black",
"yX c black",
"uX c black",
"iX c black",
"pX c black",
"aX c black",
"sX c black",
"dX c black",
"fX c black",
"gX c black",
"hX c black",
"jX c black",
"kX c black",
"lX c black",
"zX c black",
"xX c black",
"cX c black",
"vX c black",
"bX c black",
"nX c black",
"mX c black",
"MX c black",
"NX c black",
"BX c black",
"VX c black",
"CX c black",
"ZX c black",
"AX c black",
"SX c black",
"DX c black",
"FX c black",
"GX c black",
"HX c black",
"JX c black",
"KX c black",
"LX c black",
"PX c black",
"IX c black",
"UX c black",
/* pixels */
"W.W.W.W.W.W.W.W.W.W.W.W.W.W.W.W.W.W.W.W.W.W.W.W.W.W.W.W.W.W.W.W.",
"W.W.W.W.W.W.W.W.W.W.W.W.W.W.W.W.W.W.W.W.W.W.W.W.W.W.W.W.W.W.W.W.",
"W.W.W.W.W.W.W.W.W.W.W.W.W.W.W.L.I.W.W.W.W.W.W.W.W.W.W.W.W.W.W.W.",
"W.W.W.W.W.W.W.W.W.W.I.Z.a.9.W <.<.W 9.a.Z.L.W.W.W.W.W.W.W.W.W.W.",
"W.W.W.W.W.W.W.W.I.V.1.e.x.S.H.H.H.H.S.x.0.,.j.P.W.W.W.W.W.W.W.W.",
"W.W.W.W.W.W.W.G.1.k.C.S.C.C.v.v.v.v.C.C.S.C.k.8.G.W.W.W.W.W.W.W.",
"W.W.W.W.W.W.Z.&.l.A.c.p.N 3 n e e n 0 m u.v.C.h.&.Z.W.W.W.W.W.W.",
"W.W.W.W.W.D.$.l.z.z.7.5 b.Y.E.E.E.E.R.M.2 0.x.c.l.E D.W.W.W.W.W.",
"W.W.W.W.L.$.a.z.7.l q Q K.B.M.n.n.M.N.L.( 8 s #.l.i.$.L.W.W.W.W.",
"W.W.W.W.t.0.l.h.; y / P.b.b.b.b.b.b.b.n.P./ d : 9.h.0.u.W.W.W.W.",
"W.W.W.D.K h.g.g.- #.4 0 0 0 0 0 0 0 0 0 w q T y 2.9.h.K D.W.W.W.",
"W.W.W.4.6.f.g.g.= =.V _  . . . . . . . .z C ;.1 2.2.9.8.4.W.W.W.",
"W.W.I.H 0.w.f.g.= U ' E.E.E.E.E.E.E.E.E.@.j q.1 >.2.>.w.H P.W.W.",
"I.I.N.K 9.0.0.f.= U ) U.I.W.W.W.W.W.I.T.O.f =.1 2.-.-.8.E m.W.W.",
"L.L.d.E 8.0.0.g.= U ) K.K.B.B.N.B.B.B.P...d =.1 2.-.-.>.$.d.W.W.",
"L.G.t.E >.6.6.g.$ L ! B.M.M.M.M.M.M.M.B. .d R , -.;.*.*.$.r.W.W.",
"L.G.r.Y :.5.6.0.$ L B J.B.B.B.B.B.B.B.J. .y #., T T E E T 3.W.W.",
"L.L.r.Y -.:.5.5.# F B P.K.K.J.K.J.K.K.I...y R : I U T E P 3.W.W.",
"I.I.s.H %.:.:.:.+ S ! I.W.P.I.I.I.L.P.I.X.r U - I I T E D s.W.W.",
"W.W.m.V %.%.*.%.+ C ! R.E.T.I.Y.I.Y.T.R.O.r L - I E E E V m.W.W.",
"W.W.I.c U %.%.%.+ S z ( ( M.R.T.R.T.R.E.O.1 L - E I E Y c I.W.W.",
"W.W.W.[ A E E E + S j .   ( E.E.E.E.E.E.@.< G - T E I A [ W.W.W.",
"W.W.W.D.p I T Y o F S C o ^ T.I.I.I.I.I.] g L $ I I I p B.W.W.W.",
"W.W.W.W.{ V I Y : $ = - $ X @ O O O @ & + - = - E I V { W.W.W.W.",
"W.W.W.W.P.x V I I I I I I I P I I I I I I I I I P V x P.W.W.W.W.",
"W.W.W.W.W.B.t V P P P P P K P P P P P P K P P P V i B.W.W.W.W.W.",
"W.W.W.W.W.W.N.a k P K K J J P P J K J J P J P k s N.W.W.W.W.W.W.",
"W.W.W.W.W.W.W.K.M t V J G K J D J J J J J V i M F.W.W.W.W.W.W.W.",
"W.W.W.W.W.W.I.J.M.o.u 1 h Z A J D Z C h 1 u o.M.B.I.W.W.W.W.W.W.",
"W.W.W.W.W.W.M.b.b.@.../ b a 7 , > 6 7 z ^ ..@.b.b.M.W.W.W.W.W.W.",
"W.W.W.W.W.W.W.W.P.B.@.} } } } } } ..} } } O.B.I.W.W.W.W.W.W.W.W.",
"W.W.W.W.W.W.W.W.I.B.@...} ....} ........O.b.B.I.W.W.W.W.W.W.W.W."
};
