/* XPM */
static char *paste_sel[] = {
/* columns rows colors chars-per-pixel */
"32 32 256 2",
"   c black",
".  c #271B00",
"X  c #2E270E",
"o  c #312603",
"O  c #352903",
"+  c #3C2E03",
"@  c #3D3104",
"#  c #322B12",
"$  c #3E3C2B",
"%  c #3F3E37",
"&  c #423301",
"*  c #4A3600",
"=  c #453C03",
"-  c #4B3A02",
";  c #443C0A",
":  c #523D00",
">  c #413D1C",
",  c #453E23",
"<  c #403E37",
"1  c #403F3A",
"2  c #4B4202",
"3  c #494109",
"4  c #534201",
"5  c #5B4300",
"6  c #504A00",
"7  c #594D00",
"8  c #524A09",
"9  c #5F4D0E",
"0  c #565001",
"q  c #5C5000",
"w  c #474117",
"e  c #534C15",
"r  c #554D1B",
"t  c #6B4E00",
"y  c #615500",
"u  c #6E5100",
"i  c #655A00",
"p  c #685A00",
"a  c #735500",
"s  c #775900",
"d  c #7B5C00",
"f  c #6C6502",
"g  c #746400",
"h  c #786701",
"j  c #726A04",
"k  c #7A6A04",
"l  c #766E0C",
"z  c #7C6D0B",
"x  c #777402",
"c  c #7A7701",
"v  c #7F7C01",
"b  c #7F700D",
"n  c #766915",
"m  c #7F7012",
"M  c #454127",
"N  c #4A4520",
"B  c #4C4821",
"V  c #47422A",
"C  c #554620",
"Z  c #554A28",
"A  c #565026",
"S  c #5D5626",
"D  c #48463C",
"F  c #5E5232",
"G  c #615632",
"H  c #645935",
"J  c #675C39",
"K  c #6F682C",
"L  c #7F7B21",
"P  c #7F732F",
"I  c #716D34",
"U  c #7E7437",
"Y  c #7F7A31",
"T  c #7F7A39",
"R  c #4C4B46",
"E  c #4D4D49",
"W  c #545243",
"Q  c #56554E",
"!  c #5C5B4B",
"~  c #5E5D56",
"^  c #5B5B5D",
"/  c #605B4D",
"(  c #686152",
")  c #676458",
"_  c #646463",
"`  c #6A6A66",
"'  c #6B6A69",
"]  c #71706F",
"[  c gray46",
"{  c gray49",
"}  c #836400",
"|  c #806F08",
" . c #827F06",
".. c #82720B",
"X. c #807E08",
"o. c #827315",
"O. c #83741A",
"+. c #857622",
"@. c #847924",
"#. c #81742D",
"$. c #857E2D",
"%. c #887B2A",
"&. c #827C34",
"*. c #8A7E32",
"=. c #837939",
"-. c #817D62",
";. c #838201",
":. c #86831F",
">. c #878429",
",. c #888529",
"<. c #908E25",
"1. c #898434",
"2. c #8B8239",
"3. c #8E8444",
"4. c #8C8940",
"5. c #8F864D",
"6. c #8E884F",
"7. c #948F4A",
"8. c #8F8A52",
"9. c #908650",
"0. c #908A54",
"q. c #918958",
"w. c #969454",
"e. c #A4A354",
"r. c #A6A558",
"t. c #848066",
"y. c #938D64",
"u. c #B4B375",
"i. c #7F8085",
"p. c #848484",
"a. c #85868A",
"s. c #86888C",
"d. c gray55",
"f. c #92918E",
"g. c #8C8E91",
"h. c #8F9091",
"j. c #939393",
"k. c #949698",
"l. c gray60",
"z. c #B9B785",
"x. c #B6B48C",
"c. c #B6B496",
"v. c gray63",
"b. c #BEBDAD",
"n. c #B9B9B9",
"m. c #C5C39F",
"M. c #C7C6A8",
"N. c #C9C9AD",
"B. c #C9C6BB",
"V. c #CBCABB",
"C. c #D0CCB3",
"Z. c #D0D0B4",
"A. c #C5C5C5",
"S. c gray79",
"D. c #D6D5C5",
"F. c #D8D5C2",
"G. c #D3D2CA",
"H. c #DAD9CA",
"J. c gray84",
"K. c #DEDDDA",
"L. c #E1E0D7",
"P. c #E4E3DC",
"I. c #E7E7E5",
"U. c #E8E7E5",
"Y. c #E9E8E6",
"T. c gray91",
"R. c None",
"E. c black",
"W. c black",
"Q. c black",
"!. c black",
"~. c black",
"^. c black",
"/. c black",
"(. c black",
"). c black",
"_. c black",
"`. c black",
"'. c black",
"]. c black",
"[. c black",
"{. c black",
"}. c black",
"|. c black",
" X c black",
".X c black",
"XX c black",
"oX c black",
"OX c black",
"+X c black",
"@X c black",
"#X c black",
"$X c black",
"%X c black",
"&X c black",
"*X c black",
"=X c black",
"-X c black",
";X c black",
":X c black",
">X c black",
",X c black",
"<X c black",
"1X c black",
"2X c black",
"3X c black",
"4X c black",
"5X c black",
"6X c black",
"7X c black",
"8X c black",
"9X c black",
"0X c black",
"qX c black",
"wX c black",
"eX c black",
"rX c black",
"tX c black",
"yX c black",
"uX c black",
"iX c black",
"pX c black",
"aX c black",
"sX c black",
"dX c black",
"fX c black",
"gX c black",
"hX c black",
"jX c black",
"kX c black",
"lX c black",
"zX c black",
"xX c black",
"cX c black",
"vX c black",
"bX c black",
"nX c black",
"mX c black",
"MX c black",
"NX c black",
"BX c black",
"VX c black",
"CX c black",
"ZX c black",
"AX c black",
"SX c black",
"DX c black",
"FX c black",
"GX c black",
"HX c black",
"JX c black",
"KX c black",
"LX c black",
"PX c black",
"IX c black",
"UX c black",
/* pixels */
"R.R.R.R.R.R.R.R.R.R.R.R.R.R.R.R.R.R.R.R.R.R.R.R.R.R.R.R.R.R.R.R.",
"R.R.R.R.R.R.R.R.R.R.R.R.R.R.R.R.R.R.R.R.R.R.R.R.R.R.R.R.R.R.R.R.",
"R.R.R.R.R.R.R.R.R.R.R.R.R.R.R.P.L.R.R.R.R.R.R.R.R.R.R.R.R.R.R.R.",
"R.R.R.R.R.R.R.R.R.R.P.u.<. .v ;.;. .X.<.u.I.R.R.R.R.R.R.R.R.R.R.",
"R.R.R.R.R.R.R.R.I.r.v :.2.0.y.y.y.y.8.2.>.v r.I.R.R.R.R.R.R.R.R.",
"R.R.R.R.R.R.R.Z.X.,.6.0.0.5.3.3.3.3.5.6.q.6.>.v Z.R.R.R.R.R.R.R.",
"R.R.R.R.R.R.z.c 1.6.3.=.S , E R R R D A U 3.8.1.c z.R.R.R.R.R.R.",
"R.R.R.R.R.m.x 2.3.2.P w [ h.l.l.l.l.j.{ w P 2.5.2.x m.R.R.R.R.R.",
"R.R.R.R.H.x >.2.U r V Q s.p.{ { i.-.i.d.~ V 8 n *.$.x H.R.R.R.R.",
"R.R.R.R.,.@.*.*.; : ~ a.[ [ [ [ [ [ [ { s.~ : = o.%.@.,.R.R.R.R.",
"R.R.R.N.j *.%.%.& d , % < % < < 1 1 1 < D , k 4 ..o.1.x M.R.R.R.",
"R.R.R.L +.+.%.%.@ } 9 ! ) ) ) ) ) ) ) ) Z t } - ....O.O.L R.R.R.",
"R.R.I.f @.@.@.%.& d J k.k.l.k.l.l.l.l.l.] 5 } * ......@.f I.R.R.",
"U.U.x.l o.@.@.@.@ s H g.g.d.d.d.g.g.d.g.` t } * ......o.l x.R.R.",
"L.H.7.l o.+.+.%.@ s H a.a.a.p.{ i.a.p.s.` : } * ....| ..n w.R.R.",
"F.C.$.l o.O.O.%.@ a F i.t.i.i.i.i.-.i.p._ : h * | | x b l 1.R.R.",
"F.C.@.l m O.O.@.+ a F i.p.p.p.p.p.p.p.a._ : } & h h k k l Y R.R.",
"L.H.Y j m m O.m + t F a.d.a.p.s.a.a.p.d.` : s * h h k k j =.R.R.",
"T.U.q.f z m m m O t F g.d.d.d.d.d.d.d.h.` : a & h d h k f 0.R.R.",
"R.R.c.y k z z z O t H j.j.f.d.f.h.h.h.j.' : a & h h h k i c.R.R.",
"R.R.U.0 h z z z O t C ^ ^ { j.j.f.f.f.l.' * a & h h h k 0 I.R.R.",
"R.R.R.K i k k z O t 5 .   ^ l.l.l.l.l.l.[ * t & k k k i K R.R.R.",
"R.R.R.V.6 h k k o a u t o ^ f.d.d.d.d.d.( : a & h h h 6 V.R.R.R.",
"R.R.R.R.I q h h & + + & + X # # # # # # O & & & h h y I R.R.R.R.",
"R.R.R.R.K.8 y h h g h g g h h g g g g g h g g h g q 8 K.R.R.R.R.",
"R.R.R.R.R.V.2 q g g g g g g g g g g g g g g g h y 2 V.R.R.R.R.R.",
"R.R.R.R.R.R.b.2 q g s g g g g g g g g g g s g 7 2 b.R.R.R.R.R.R.",
"R.R.R.R.R.R.R.G.e 6 q g p g p g g p g f g q 6 e G.R.R.R.R.R.R.R.",
"R.R.R.R.R.R.T.J.A.-.; 2 7 i p p g p p 7 2 = -.A.J.T.R.R.R.R.R.R.",
"R.R.R.R.R.R.n.v.l.a.[ ! B 3 3 ; = ; ; w W [ j.v.v.n.R.R.R.R.R.R.",
"R.R.R.R.R.R.R.R.I.A.{ _ _ _ _ _ _ _ _ _ ^ [ A.T.R.R.R.R.R.R.R.R.",
"R.R.R.R.R.R.R.R.T.A.{ ' ` _ ' _ _ _ ' ' [ d.S.T.R.R.R.R.R.R.R.R."
};
