/* XPM */
static char *paste[] = {
/* columns rows colors chars-per-pixel */
"32 32 256 2",
"   c black",
".  c #412D00",
"X  c #523F02",
"o  c #513E09",
"O  c #574202",
"+  c #5A4504",
"@  c #5E4A05",
"#  c #57450A",
"$  c #4D4117",
"%  c #53471D",
"&  c #634D05",
"*  c #684F03",
"=  c #665107",
"-  c #6C5303",
";  c #6A5B01",
":  c #785700",
">  c #735B03",
",  c #7C5D02",
"<  c #6E5E16",
"1  c #736400",
"2  c #7C6203",
"3  c #7D6D00",
"4  c #786D1C",
"5  c #7F731A",
"6  c #554920",
"7  c #6D652F",
"8  c #766C27",
"9  c #73673B",
"0  c #686447",
"q  c #756B42",
"w  c #75704A",
"e  c #69675B",
"r  c #6A685B",
"t  c #6B6960",
"y  c #787564",
"u  c #7E7D74",
"i  c #835F00",
"p  c #866300",
"a  c #896600",
"s  c #8B6A01",
"d  c #926D00",
"f  c #986C00",
"g  c #877500",
"h  c #8A7F08",
"j  c #9B7300",
"k  c #837713",
"l  c #857916",
"z  c #8B7A13",
"x  c #B07E00",
"c  c #817524",
"v  c #877C21",
"b  c #8D7536",
"n  c #8D7B43",
"m  c #8B800B",
"M  c #958000",
"N  c #9A8500",
"B  c #9F8017",
"V  c #968C12",
"C  c #A28D00",
"Z  c #B48400",
"A  c #BB8901",
"S  c #A59700",
"D  c #AB9300",
"F  c #AD9800",
"G  c #B6A605",
"H  c #BEA300",
"J  c #B5AD0B",
"K  c #BFAE0C",
"L  c #BCB503",
"P  c #8E802D",
"I  c #92882C",
"U  c #90863F",
"Y  c #C08D00",
"T  c #C49100",
"R  c #C99600",
"E  c #CD9C00",
"W  c #D09D00",
"Q  c #C1A600",
"!  c #C5AA00",
"~  c #C9AE04",
"^  c #D5A100",
"/  c #D9A500",
"(  c #DDAA01",
")  c #CDB106",
"_  c #C0B00C",
"`  c #CCB20C",
"'  c #C3B90F",
"]  c #D2B60A",
"[  c #D5BA0E",
"{  c #C5B614",
"}  c #CDB312",
"|  c #D5BB15",
" . c #D9BE12",
".. c #D0B718",
"X. c #D4BC1D",
"o. c #E0AC01",
"O. c #C5AF23",
"+. c #D6BE23",
"@. c #D8BE24",
"#. c #D7BF2A",
"$. c #C8C30C",
"%. c #D3CE00",
"&. c #DBD801",
"*. c #CCC811",
"=. c #C7C21E",
"-. c #DBC114",
";. c #D2D016",
":. c #D3D019",
">. c #DDC423",
",. c #DAC12B",
"<. c #D8D327",
"1. c #D4D22C",
"2. c #DBC335",
"3. c #D6C836",
"4. c #DEC63A",
"5. c #DEC83C",
"6. c #DAD03F",
"7. c #E1C93C",
"8. c #E0DA34",
"9. c #88814B",
"0. c #968D45",
"q. c #9B8F40",
"w. c #958C48",
"e. c #8D8752",
"r. c #9C8952",
"t. c #9C8B5B",
"y. c #A18F53",
"u. c #A79559",
"i. c #AC995F",
"p. c #81807A",
"a. c #B3AC66",
"s. c #B4AF6E",
"d. c #D3BF4E",
"f. c #C5BE6C",
"g. c #C2BC74",
"h. c #DACF40",
"j. c #D7C24B",
"k. c #DFD44D",
"l. c #C9C35B",
"z. c #D2C15B",
"x. c #DBCA5F",
"c. c #DDDA5E",
"v. c #E1CB43",
"b. c #E3CE4A",
"n. c #E2DD46",
"m. c #E5D04A",
"M. c #E6D253",
"N. c #E3DC56",
"B. c #E8D55E",
"V. c #E5DB5F",
"C. c #CCC463",
"Z. c #D1CD60",
"A. c #C7C271",
"S. c #EAD760",
"D. c #E4DB60",
"F. c #EBD961",
"G. c #EDDC6E",
"H. c #EDDC73",
"J. c #EFDF7C",
"K. c #EAE56B",
"L. c #8F8E82",
"P. c #969482",
"I. c #9D9B8C",
"U. c #979696",
"Y. c #9D9C91",
"T. c #92959D",
"R. c #97989A",
"E. c #98999B",
"W. c #A09881",
"Q. c #ADA288",
"!. c #ACA693",
"~. c #B6B297",
"^. c #B8B59A",
"/. c gray65",
"(. c #A9A7A1",
"). c #ACAAA4",
"_. c gray67",
"`. c #B3B2AC",
"'. c gray71",
"]. c #B8B7B1",
"[. c #BCBBBB",
"{. c #CAC68C",
"}. c #D2CD83",
"|. c #D0CE8C",
" X c #EFDF83",
".X c #E0DF8E",
"XX c #EEE383",
"oX c #F0E086",
"OX c #F1E58D",
"+X c #F2E593",
"@X c #DCDBB5",
"#X c #D9D7BB",
"$X c #E3E2A5",
"%X c #F4EBA5",
"&X c #F5ECA9",
"*X c #E2E0B0",
"=X c #C3C3C4",
"-X c #CDCDCD",
";X c #D9D8C9",
":X c LightGray",
">X c #DEDDD1",
",X c #D3D6DD",
"<X c gray86",
"1X c #E3E2C3",
"2X c #E5E5CC",
"3X c #E8E4CE",
"4X c #E6E5D7",
"5X c #E9E6D6",
"6X c #E3E2D9",
"7X c #E9E7DA",
"8X c #D7D9E0",
"9X c #DDDFE3",
"0X c #DEE0E5",
"qX c #E2E2E2",
"wX c #EAE9E5",
"eX c #E3E5EA",
"rX c #E5E8EF",
"tX c #EAEAEA",
"yX c #F3F2ED",
"uX c #E6E9F1",
"iX c #EDEFF1",
"pX c #EFF0F2",
"aX c gray95",
"sX c #F4F6FB",
"dX c #FEFEFE",
"fX c None",
"gX c black",
"hX c black",
"jX c black",
"kX c black",
"lX c black",
"zX c black",
"xX c black",
"cX c black",
"vX c black",
"bX c black",
"nX c black",
"mX c black",
"MX c black",
"NX c black",
"BX c black",
"VX c black",
"CX c black",
"ZX c black",
"AX c black",
"SX c black",
"DX c black",
"FX c black",
"GX c black",
"HX c black",
"JX c black",
"KX c black",
"LX c black",
"PX c black",
"IX c black",
"UX c black",
/* pixels */
"fXfXfXfXfXfXfXfXfXfXfXfXfXfXfXfXfXfXfXfXfXfXfXfXfXfXfXfXfXfXfXfX",
"fXfXfXfXfXfXfXfXfXfXfXfXfXfXfXfXfXfXfXfXfXfXfXfXfXfXfXfXfXfXfXfX",
"fXfXfXfXfXfXfXfXfXfXfXfXfXfXfXwXwXfXfXfXfXfXfXfXfXfXfXfXfXfXfXfX",
"fXfXfXfXfXfXfXfXfXfXtX$XV.<.%.&.&.%.<.c.$XwXfXfXfXfXfXfXfXfXfXfX",
"fXfXfXfXfXfXfXfXwX.X:.1.K.OX&X%X%X&XOXK.1.:..XtXfXfXfXfXfXfXfXfX",
"fXfXfXfXfXfXfX3X1.n.XXOXoXJ.H.H.K.G. X X+XOXn.1.2XfXfXfXfXfXfXfX",
"fXfXfXfXfXfX*X*.N. XH.x.U q p.u n p.t 0.z.H.OXN.*.*XfXfXfXfXfXfX",
"fXfXfXfXfX1X$.V.G.V.j.8 =XyXdXdXdXdXsX-X7 j.V.H.V.$.1XfXfXfXfXfX",
"fXfXfXfX7X=.k.S.d.b w p.qX<X:X-X-X-X:XeXY.q l O.M.m.=.7XfXfXfXfX",
"fXfXfXfXZ.h.M.M.< s I.tX=X=X=X=X=X-X=X-XeXY.s 1 >.m.h.Z.fXfXfXfX",
"fXfXfX2XL M.b.v.; ^ 9 t e e r r r r e e y q ^ s -.>.M.L 1XfXfXfX",
"fXfXfXl.3.v.v.v.= ( B W.!.!.!.!.!.!.!.!.n Z ( 2 -.-.>.3.l.fXfXfX",
"fXfXtXJ 5.7.v.v.= E i.dXdXdXdXdXdXdXdXdX[.j ( 2  . . .5.J tXfXfX",
"tXwX@X' ,.5.4.h.= R u.uXtXfXfXfXfXfXtXaX`.d ( 2  . .| >.' @XfXfX",
"wX5X}.{ +.2.2.b.= R t.0X9X<X<X<X<X<X<XeX).d / , -. .| | { |.fXfX",
"5X3XC.{ -.2.2.v.& T r.,X:X:X:X:X:X:X:X<X(.s ^ , [ ] ] [ { A.fXfX",
"5X3Xl.{ X.#.#.4.& A r.8X<X<X<X<X<X<X<X0X).s W : ~ ~ ) ] ` A.fXfX",
"wX7Xf._ ..@.@.#.@ A r.9XqX6X9XqX<XqXqXeX).a E - ! ~ ~ ) K s.fXfX",
"wXwX{.G } X.X.X.# A r.rXfXtXtXtXtXtXwXiX`.p R - ! ! ~ ) G |.fXfX",
"fXfX#XS ` ......+ x t.sXdXaXtXyXtXtXyXsX`.i T - ~ ! ~ ) S #XfXfX",
"fXfXwXV ~ } } { + Z b T.R.:XsXaXaXaXaXdX]., Y - ! ) ~ ! V wXfXfX",
"fXfXfXa.F ) ` ` O Z j .   R.dXdXdXdXdXdX[.: A - ) ! ) F a.fXfXfX",
"fXfXfX>Xm ~ ~ ~ X A Z Z o U.yXwXwXwXwXtXQ.f T * ! ! ! m >XfXfXfX",
"fXfXfXfXs.N ! ~ > * * * & $ 6 % % % % % # - * ; ! ! C s.fXfXfXfX",
"fXfXfXfXwXI C ! ! ! ! ! ! ! ! ! Q ! ! ! ! Q ! ! ! S I qXfXfXfXfX",
"fXfXfXfXfX>Xl C Q Q Q Q Q H Q Q Q Q Q Q Q Q Q Q C k >XfXfXfXfXfX",
"fXfXfXfXfXfX;Xv N Q H H H H H H Q H H H H Q Q N v ;XfXfXfXfXfXfX",
"fXfXfXfXfXfXfX6Xw.g C H H H H H H H H H H C g 0.6XfXfXfXfXfXfXfX",
"fXfXfXfXfXfXtX<X<X^.5 3 M D D G H D D j 3 c ~.,X<XtXfXfXfXfXfXfX",
"fXfXfXfXfXfX:X=X[.[._.Y.e.c 5 1 1 4 5 9.P._.[.=X=X:XfXfXfXfXfXfX",
"fXfXfXfXfXfXfXfXtX<X[././././././._./././.'.<XtXfXfXfXfXfXfXfXfX",
"fXfXfXfXfXfXfXfXtX<X[._._._._._._._._._.].=X9XtXfXfXfXfXfXfXfXfX"
};
