/* XPM */
static char *paste[] = {
/* columns rows colors chars-per-pixel */
"28 44 112 2",
"   c #010101",
".  c gray4",
"X  c #151515",
"o  c gray11",
"O  c #232323",
"+  c #2F2F2F",
"@  c gray24",
"#  c #473609",
"$  c #4D3D0F",
"%  c #524212",
"&  c #594510",
"*  c #514418",
"=  c #594C1E",
"-  c #6C5400",
";  c #745603",
":  c #7C5C02",
">  c #655314",
",  c #7B621D",
"<  c #524625",
"1  c #574821",
"2  c #5E5227",
"3  c #4E4933",
"4  c #544D33",
"5  c #575034",
"6  c #5A5130",
"7  c #6F5D2A",
"8  c #625938",
"9  c #434343",
"0  c #4E4E4D",
"q  c #535353",
"w  c #5B5C5C",
"e  c #7C7048",
"r  c #676252",
"t  c #6A6452",
"y  c #6B675E",
"u  c #6C685D",
"i  c #7F7250",
"p  c #626262",
"a  c #6D6B64",
"s  c #6D6C6C",
"d  c #75736C",
"f  c #747473",
"g  c #7B7A73",
"h  c #7C7C7C",
"j  c #815F02",
"k  c #836302",
"l  c #886703",
"z  c #8C6A02",
"x  c #926D01",
"c  c #8F7004",
"v  c #937202",
"b  c #9B7301",
"n  c #9D7801",
"m  c #90720C",
"M  c #A17700",
"N  c #A57A00",
"B  c #A97D00",
"V  c #85743A",
"C  c #81754E",
"Z  c #817652",
"A  c #867A51",
"S  c #827858",
"D  c #A78002",
"F  c #AD8300",
"G  c #AF8804",
"H  c #B28600",
"J  c #B48900",
"K  c #BA8D00",
"L  c #BE9100",
"P  c #C29500",
"I  c #C69900",
"U  c #CA9C00",
"Y  c #CFA001",
"T  c #D2A301",
"R  c #968B64",
"E  c #8D8774",
"W  c #8D8874",
"Q  c #85837F",
"!  c #948C74",
"~  c #958D78",
"^  c #979079",
"/  c #9D957B",
"(  c #818181",
")  c #8A8986",
"_  c #8C8C8B",
"`  c #939393",
"'  c #9E9E9D",
"]  c #A39C82",
"[  c #A7A7A7",
"{  c #A9A9A9",
"}  c #B0B0AF",
"|  c #B4B4B3",
" . c #B8B8B7",
".. c #B7B7B8",
"X. c #BCBCBB",
"o. c #C3C3C3",
"O. c #CBCBCB",
"+. c gray83",
"@. c #D6D6D8",
"#. c #D7D8D9",
"$. c gainsboro",
"%. c #DEDEE0",
"&. c #E2E2E3",
"*. c #E6E6E8",
"=. c #E7E8E9",
"-. c #EAEAEA",
";. c #EEEFF1",
":. c #F2F3F3",
">. c #F6F6F8",
",. c #FBFBFB",
"<. c black",
"1. c None",
/* pixels */
"1.1.1.1.1.1.1.1.*.| _ _ _ _ _ _ _ _ | -.1.1.1.1.1.1.1.1.",
"1.1.1.1.1.1.#.` ( q ' { [ { { { { ' q ( ' &.1.1.1.1.1.1.",
"1.1.1.1.1.1.} f X.O.,.,.,.,.,.,.,.,.O...p +.1.1.1.1.1.1.",
"1.1.1.1. .( w ` >.:.-.-.-.-.-.-.-.-.;.:.f s _ $.1.1.1.1.",
"1.*.{ _ 0 ' } o.+.O.O.o.o.o.o.o.O.O.+.+.X.| a s ` X.-.1.",
"1.' > c * | o. . . . . . . .X.X. .X.X.X.X.+.g - c 2 X.1.",
"-.u G Y > { X.X.X.X.X.X.X.X.X.X.X.X.o.X.X.o.d n T v ) 1.",
"*.t J Y k 6 4 3 3 3 3 3 3 3 3 3 3 3 3 3 5 8 = G Y n Q 1.",
"*.t J Y I m i W W E E E E E E E W W W W e n L I U v Q 1.",
"-.t G U L R >.,.,.,.,.,.,.,.,.,.,.,.,.,.&.V P I U v Q 1.",
"=.t F I J ] >.:.:.:.:.:.:.:.:.:.:.:.:.:.;.S L I U v ( 1.",
"*.t F I G / ;.-.-.-.-.=.-.-.-.-.-.-.-.-.=.A J P I v Q 1.",
"*.t D P F / *.&.*.&.&.&.&.&.%.&.*.&.&.&.&.A J L P v Q 1.",
"-.t D L F ! &.$.#.#.+.+.+.+.+.+.#.#.$.%.$.Z J L P z Q 1.",
"-.t D L D ! #.+.+.+.+.+.+.+.+.+.+.+.+.#.#.C H L L z Q 1.",
"*.t N L D ! #.+.@.#.+.+.+.+.+.+.+.+.#.+.+.C F J K z Q 1.",
"-.t N J N ! %.$.$.$.$.$.$.$.$.$.$.$.$.$.$.Z B J K l ) 1.",
"=.t M J M ~ &.%.%.&.%.%.%.%.&.&.%.%.%.&.$.C B J J l Q 1.",
"=.t n H n ~ -.*.&.&.&.&.&.&.&.&.&.&.&.&.&.Z N H H k ( 1.",
"=.t b H n ~ -.-.-.-.-.-.-.-.-.-.-.-.-.-.*.Z N H H k Q 1.",
"=.t b B b ^ :.-.-.-.-.-.-.;.;.-.-.;.-.-.-.A M F H k Q 1.",
"*.t b B b ~ :.-.:.:.:.:.:.:.;.;.:.:.:.:.;.A M B B k ( 1.",
"=.t x B M 7 y w w ` :.>.:.:.>.>.:.>.:.:.:.Z M B B j Q 1.",
"*.t x B B x # .   r :.,.,.>.,.,.,.>.,.>.:.Z b B B : Q 1.",
"*.t x N N N b $ X w ,.,.,.,.,.,.,.,.,.,.>.C b N N : Q 1.",
"-.t z B N M M b $ p $.$.%.%.$.$.%.%.%.$.| , M N B ; _ 1.",
"1.' % j j j j j ; $ 1 1 1 1 1 1 1 1 1 1 & : j j : < X.1.",
"1.&.' a y y y a a u y y u u u y y y y y y y a y s | -.1.",
"1.1.1.1.1.1.1.1.1.1.1.1.1.1.1.1.1.1.1.1.1.1.1.1.1.1.1.1.",
"1.1.1.1.1.1.1.1.1.1.1.1.1.1.1.1.1.1.1.1.1.1.1.1.1.1.1.1.",
"1.1.1.1.1.1.1.1.1.1.1.1.1.1.1.1.1.1.1.1.1.1.1.1.1.1.1.1.",
"1.1.1.1.1.1.1.1.1.1.1.1.1.1.1.1.1.1.1.1.1.1.1.1.1.1.1.1.",
"      o ` 1.1.1.1.1.1.1.1.1.1.1.1.1.1.1.O.1.1.1.1.1.1.1.",
"  *.%._ X 1.1.1.1.1.1.1.1.1.1.1.1.1.1.1.  1.1.1.1.1.1.1.",
"  1.1.%.. 1.1.1.9 . w 1.1.1.s . o 1.1.      1.1.+.9 . O ",
"  -.O.q 0 1.1.1.O.+.. 1.1.1.. O.O.1.1.1.  1.1.1.q { &.[ ",
"    X w $.1.1.| + .   1.1.1.f 9 { -.1.1.  1.1.1..       ",
"  1.1.1.1.1.1.o _ &.  1.1.1.1.O.p 0 1.1.  -.1.1.X #.1.1.",
"  1.1.1.1.1.1.. o.{   +.1.1.{ $.... 1.1.. O.1.1.q q +.&.",
"  1.1.1.1.1.1.h . s p o 1.1.@ . o _ 1.1.w . 1.1.%.w . . ",
"1.1.1.1.1.1.1.1.1.1.1.1.1.1.1.1.1.1.1.1.1.1.1.1.1.1.1.1.",
"1.1.1.1.1.1.1.1.1.1.1.1.1.1.1.1.1.1.1.1.1.1.1.1.1.1.1.1.",
"1.1.1.1.1.1.1.1.1.1.1.1.1.1.1.1.1.1.1.1.1.1.1.1.1.1.1.1.",
"1.1.1.1.1.1.1.1.1.1.1.1.1.1.1.1.1.1.1.1.1.1.1.1.1.1.1.1."
};
