/* XPM */
static char *paste[] = {
/* columns rows colors chars-per-pixel */
"32 32 256 2",
"   c #070706",
".  c #4B3A0B",
"X  c #59440A",
"o  c #765E07",
"O  c #725E1C",
"+  c #766105",
"@  c #7D6306",
"#  c #7A6408",
"$  c #7C621E",
"%  c #5E512F",
"&  c #5D5435",
"*  c #5D553A",
"=  c #62562A",
"-  c #505050",
";  c #59595A",
":  c #7E7248",
">  c #7A7459",
",  c #7D7A68",
"<  c #826505",
"1  c #8C6702",
"2  c #846906",
"3  c #896D07",
"4  c #826909",
"5  c #896D0B",
"6  c #946C01",
"7  c #8D720A",
"8  c #9C7300",
"9  c #91750A",
"0  c #987709",
"q  c #8D7410",
"w  c #907016",
"e  c #A07600",
"r  c #A57A00",
"t  c #AA7E00",
"y  c #957927",
"u  c #9A7D26",
"i  c #937728",
"p  c #917D2A",
"a  c #847B4C",
"s  c #867F6B",
"d  c #AE8300",
"f  c #B28600",
"g  c #B68A00",
"h  c #BA8C00",
"j  c #BE9100",
"k  c #B79B0E",
"l  c #AD8A15",
"z  c #B49B11",
"x  c #9F8228",
"c  c #9B892F",
"v  c #A38629",
"b  c #A5882B",
"n  c #C39500",
"m  c #C69900",
"M  c #C99B00",
"N  c #D6B514",
"B  c #D6BA14",
"V  c #DBBC14",
"C  c #D5B81C",
"Z  c #E1BF12",
"A  c #C7B126",
"S  c #CFB420",
"D  c #C6B028",
"F  c #D1B722",
"G  c #D6BB21",
"H  c #D8BD25",
"J  c #D8BC2C",
"K  c #C7B133",
"L  c #C6B23B",
"P  c #C9B63C",
"I  c #D1BC36",
"U  c #D9BE35",
"Y  c #D1BC3C",
"T  c #DEC115",
"R  c #DEC21D",
"E  c #E2C112",
"W  c #EBC612",
"Q  c #EDC911",
"!  c #E1C71E",
"~  c #EBCA1A",
"^  c #F2CE15",
"/  c #F1CE19",
"(  c #F5D217",
")  c #F5D31D",
"_  c #FAD61B",
"`  c #D6C334",
"'  c #DDCC34",
"]  c #DAC13C",
"[  c #DBCD3E",
"{  c #E3CE2B",
"}  c #EBCF2B",
"|  c #E9D127",
" . c #EBD52B",
".. c #F4D323",
"X. c #FCDA24",
"o. c #F5D52B",
"O. c #F7D829",
"+. c #ECD632",
"@. c #EBDB36",
"#. c #F6D733",
"$. c #F4DA36",
"%. c #F9DC32",
"&. c #F5D73B",
"*. c #F4DB3C",
"=. c #ECE13C",
"-. c #F0E537",
";. c #F1E639",
":. c #F6ED3E",
">. c #9D8F47",
",. c #968C53",
"<. c #9F9657",
"1. c #A18F55",
"2. c #A99A50",
"3. c #858374",
"4. c #8B8573",
"5. c #A09578",
"6. c #A39A7C",
"7. c #CAB641",
"8. c #CFBC41",
"9. c #C8B54B",
"0. c #D0BD4D",
"q. c #C6B555",
"w. c #CCBB53",
"e. c #C4BB5E",
"r. c #C2B66A",
"t. c #D3C145",
"y. c #D9C340",
"u. c #D3C24C",
"i. c #DAC348",
"p. c #E7CF42",
"a. c #EADB4E",
"s. c #F5DC43",
"d. c #F8DB44",
"f. c #F7DE4E",
"g. c #E6D25E",
"h. c #ECD458",
"j. c #E1D95D",
"k. c #F2E245",
"l. c #F6EE42",
"z. c #F3E34F",
"x. c #F2E84B",
"c. c #F8EE4F",
"v. c #FBF243",
"b. c #FAF34C",
"n. c #F7E052",
"m. c #F5E954",
"M. c #FAEF51",
"N. c #F7F251",
"B. c #CFC16E",
"V. c #D3CA65",
"C. c #D6C86A",
"Z. c #D8CB6D",
"A. c #DFD367",
"S. c #DBD069",
"D. c #CCC17B",
"F. c #D8CD74",
"G. c #DCD170",
"H. c #E9D365",
"J. c #E7D66D",
"K. c #E5DC6D",
"L. c #E9DD6D",
"P. c #F4DF6E",
"I. c #E4DA74",
"U. c #EADE72",
"Y. c #EDE566",
"T. c #EDE76C",
"R. c #EFE96F",
"E. c #F4EB65",
"W. c #F3E46D",
"Q. c #F0E96A",
"!. c #F7F36B",
"~. c #908E89",
"^. c #959595",
"/. c #9E9D99",
"(. c #A69D81",
"). c #A89F85",
"_. c #AAA184",
"`. c #A7A6A2",
"'. c #AAAAA6",
"]. c #ABABAA",
"[. c #B4B4B4",
"{. c #BCBCBC",
"}. c #C2BEB1",
"|. c #CDC282",
" X c #CDC389",
".X c #DDD69F",
"XX c #E1D881",
"oX c #E3DB8F",
"OX c #E8E082",
"+X c #E9E189",
"@X c #F3EF86",
"#X c #F4F080",
"$X c #EAE59E",
"%X c #EFEB9D",
"&X c #F2EE93",
"*X c #F0ED99",
"=X c #D3CDA9",
"-X c #DCD5A4",
";X c #DFD8AD",
":X c #D3D1BE",
">X c #DAD6BA",
",X c #E2DDA0",
"<X c #E0DCAE",
"1X c #E1DCB4",
"2X c #E2DCBD",
"3X c #EEEAA5",
"4X c #E3E0AF",
"5X c #E9E6AB",
"6X c #ECEAAF",
"7X c #F0EFA3",
"8X c #F0EEA9",
"9X c #EFECB4",
"0X c #E8E7BE",
"qX c #EDEBBD",
"wX c gray76",
"eX c #C8C8C7",
"rX c #CBCBCC",
"tX c #D6D4C3",
"yX c #DBD7C1",
"uX c #DDDAC3",
"iX c #DCDACE",
"pX c gray83",
"aX c #DEDCD1",
"sX c gray86",
"dX c #E3DDC2",
"fX c #EBE7C7",
"gX c #ECEBC4",
"hX c #ECECCE",
"jX c #E6E5D6",
"kX c #EBE7D2",
"lX c #EBE9D5",
"zX c #E3E2DE",
"xX c #EAE9DB",
"cX c #E4E3E4",
"vX c #E8E7E4",
"bX c #EAEAE4",
"nX c #E6E6E8",
"mX c #EAEAEA",
"MX c #F4F4F4",
"NX c #F6F6F8",
"BX c #FAFAFB",
"VX c None",
"CX c black",
"ZX c black",
"AX c black",
"SX c black",
"DX c black",
"FX c black",
"GX c black",
"HX c black",
"JX c black",
"KX c black",
"LX c black",
"PX c black",
"IX c black",
"UX c black",
/* pixels */
"VXVXVXVXVXVXVXVXVXVXVXVXVXVXVXVXVXVXVXVXVXVXVXVXVXVXVXVXVXVXVXVX",
"VXVXVXVXVXVXVXVXVXVXVXbXhXgX9X8X9X9XgXhXxXmXVXVXVXVXVXVXVXVXVXVX",
"VXVXVXVXVXVXVXVXmXxXqX&X!.b.v.v.:.:.b.!.&XqXxXmXVXVXVXVXVXVXVXVX",
"VXVXVXVXVXVXVXbXgX@Xl.c.E.V.r.r.r.r.V.j.N.v.#XgXbXVXVXVXVXVXVXVX",
"VXVXVXVXVXVXbX8XN.m.W.C.,., `.`.'.`./.> <.A.m.N.7XxXVXVXVXVXVXVX",
"VXVXVXVXVXbX*Xl.m.P.H.>.].zXNXNXBXBXNXsX/.2.J.m.l.&XbXVXVXVXVXVX",
"VXVXVXVXbX3Xl.z.g.9.a 3.rXcXsXsXiXpXsXcXwX3.a q.a.l.%XbXVXVXVXVX",
"VXVXVXmXqXx.k.h.p # > rXwXwX{.{.{.{.{.{.{.rX> # c k.x.9XmXVXVXVX",
"VXVXVXlXR.k.n.i.7 m : ].].].'.'.'.'.'.'.`.].a n 7 p.k.Q.kXVXVXVX",
"VXVXbX9X;.s.f.] 9 M 0 O * * * * * * * * * = 6 M 7  .k.;.3XbXVXVX",
"VXVXxXT.*.s.d.] q M n 1.sXzXzXzXzXzXzXzXcX}.l M 7 ~ %.*.Y.lXVXVX",
"VXVXgX=.*.d.d.y.9 M h _.NXMXMXMXMXMXMXMXMXzXb n 7 ~ X.$.=.qXVXVX",
"mXbX5X@.#.&.*.U 7 n g _.mXmXnXmXnXnXnXmXnXpXb n 7 ~ _ O.@.$XbXVX",
"bXxX+X+.o.&.s.] 7 n d 6.cXzXsXsXsXsXsXsXzXpXv h 7 ~ _ ) +.OXxXVX",
"lXfXU.o.o.#.*.] 5 j d 6.sXpXpXpXrXpXpXpXpXrXu h 3 ~ _ (  .K.xXVX",
"xXfXL. .o.o.#.U 5 h d (.sXpXsXsXsXpXsXsXsXeXu h 2 Z ( (  .K.xXVX",
"bXkXI. ...o.o.J 5 g r (.cXzXzXsXzXsXsXcXsXrXu f 2 Z ^ ^ | I.xXVX",
"mXxXoX{ ) o.o.H 4 g r (.cXcXcXvXcXcXcXcXcXpXy f 2 Z ^ / { I.vXVX",
"VXmX<X' / ....G 4 f e ).mXmXbXbXmXmXnXmXnXsXi f 2 Z ^ ^ { ,XbXVX",
"VXVXfX[ ~ ) ..C < t 8 ).NXmXMXmXmXMXmXMXMXzXi t < Z ^ / [ 0XVXVX",
"VXVXxXS.! ~ ) C < t e ).NXMXMXMXNXNXMX[.^.~.w t < E ^ ! S.lXVXVX",
"VXVXbX0X] W ^ N o t 8 ).BXBXBXBXNXNXMX-   X r r @ E Q ` ;XbXVXVX",
"VXVXVXzXF.! ^ N < t 8 5.BXBXBXBXBXBXBX; . 8 r r @ E R Z.jXVXVXVX",
"VXVXVXmXdX0.Z N o 6 6 O 4.4.4.4.4.4.4.& 1 6 6 1 # B t.2XmXVXVXVX",
"VXVXVXVXbX;XY V k 4 4 @ + + o + + + + @ 4 4 4 4 z I -XbXVXVXVXVX",
"VXVXVXVXVXbX-X8.V W ^ W Q Q Q Q Q Q Q Q Q Q W V Y .XbXVXVXVXVXVX",
"VXVXVXVXVXVXbX1Xw.F Z W W W W W W Q W W W E F 0.;XvXVXVXVXVXVXVX",
"VXVXVXVXVXmXnXvXtX X7.S V Z E W W E Z B S P |.tXcXbXmXVXVXVXVXVX",
"VXVXVXVXVXnXcXvXmXzXdX-Xr.q.L D A K 9.D.=X:XsXcXsXsXmXVXVXVXVXVX",
"VXVXVXVXVXmXnXmXmXmXnXcXvXaXuX>X>X>XiXzXcXcXcXvXnXvXmXVXVXVXVXVX",
"VXVXVXVXVXVXVXVXmXnXsXsXsXzXsXsXzXsXsXpXsXpXsXsXnXmXVXVXVXVXVXVX",
"VXVXVXVXVXVXVXVXmXnXcXsXzXsXsXsXsXsXpXpXpXpXpXsXzXmXVXVXVXVXVXVX"
};
