/* XPM */
static char *paste_sel[] = {
/* columns rows colors chars-per-pixel */
"32 32 256 2",
"   c #040403",
".  c #2D2306",
"X  c #362906",
"o  c #3A321B",
"O  c #373323",
"+  c #383322",
"@  c gray20",
"#  c #473A03",
"$  c #4C3D04",
"%  c #523E03",
"&  c #443911",
"*  c #4A3B12",
"=  c #4E4006",
"-  c #544306",
";  c #5B4402",
":  c #5B4806",
">  c #56450A",
",  c #5B4A17",
"<  c #584718",
"1  c #574B19",
"2  c #5F4E18",
"3  c #5D521C",
"4  c #604700",
"5  c #644A00",
"6  c #694E00",
"7  c #6C5200",
"8  c #68530D",
"9  c #6D5D09",
"0  c #715600",
"q  c #755A00",
"w  c #785D00",
"e  c #625119",
"r  c #7D6C0D",
"t  c #766813",
"y  c #7C6E14",
"u  c #786B1C",
"i  c #7F711C",
"p  c #4C452B",
"a  c #504A2B",
"s  c #5E562B",
"d  c #494635",
"f  c #4E4A30",
"g  c #4B493F",
"h  c #5A5432",
"j  c #605633",
"k  c #625B32",
"l  c #796C21",
"z  c #786C2E",
"x  c #776D33",
"c  c #746E3F",
"v  c #767038",
"b  c #7F793C",
"n  c #514E43",
"m  c #545045",
"M  c #565552",
"N  c #5D5D5B",
"B  c #625D4B",
"V  c #655F50",
"C  c #67614E",
"Z  c #746D40",
"A  c #656051",
"S  c #666563",
"D  c #6C6C6C",
"F  c #75726A",
"G  c #727272",
"H  c #7C7C7C",
"J  c #816E0C",
"K  c #85730B",
"L  c #8A750B",
"P  c #8E780B",
"I  c #927D0D",
"U  c #806E11",
"Y  c #817213",
"T  c #867A12",
"R  c #8C7C11",
"E  c #81731A",
"W  c #8D7C1A",
"Q  c #927E13",
"!  c #927F18",
"~  c #827423",
"^  c #8B7C27",
"/  c #83752B",
"(  c #847933",
")  c #8E7F35",
"_  c #857D3E",
"`  c #8B7F3B",
"'  c #807840",
"]  c #8E8116",
"[  c #968112",
"{  c #928A15",
"}  c #93811B",
"|  c #968F1C",
" . c #979018",
".. c #99931D",
"X. c #8E842F",
"o. c #938323",
"O. c #928825",
"+. c #93852A",
"@. c #938B2C",
"#. c #9B9720",
"$. c #9D9921",
"%. c #97902B",
"&. c #9C962C",
"*. c #878236",
"=. c #8D8233",
"-. c #948731",
";. c #958C33",
":. c #908639",
">. c #938D3A",
",. c #9C9335",
"<. c #9F9A31",
"1. c #9C933C",
"2. c #A19B32",
"3. c #A3A031",
"4. c #8A8044",
"5. c #8B834E",
"6. c #928642",
"7. c #928941",
"8. c #9C9446",
"9. c #A39C46",
"0. c #A49D55",
"q. c #ACA944",
"w. c #A8A04E",
"e. c #AFAB4B",
"r. c #B5B25A",
"t. c #9D9773",
"y. c #A49C6D",
"u. c #A7A06A",
"i. c #ACA86B",
"p. c #B3AF68",
"a. c #B9B663",
"s. c #BAB669",
"d. c #ABA472",
"f. c #B1AB7E",
"g. c #BEBB73",
"h. c #BAB77A",
"j. c #C2C07A",
"k. c #838383",
"l. c #888786",
"z. c #888887",
"x. c #878788",
"c. c #8B8B8C",
"v. c #939393",
"b. c #969798",
"n. c #989899",
"m. c #ABA78B",
"M. c #ADA98C",
"N. c #B5AF85",
"B. c #B6B280",
"V. c #B9B48B",
"C. c #A8A592",
"Z. c #B1AD95",
"A. c #B0AD9A",
"S. c #BDB796",
"D. c #B4B19D",
"F. c #BBB79A",
"G. c #A2A1A1",
"H. c #ADACAC",
"J. c #B0AFAF",
"K. c #B4B2A1",
"L. c #B8B6A9",
"P. c #B2B1B1",
"I. c #B8B7B7",
"U. c #BEBCB0",
"Y. c #BCBBBC",
"T. c #C2BC9F",
"R. c #C0BFBF",
"E. c #C5C383",
"W. c #C7C28D",
"Q. c #C9C68D",
"!. c #C9C88C",
"~. c #CCC694",
"^. c #CAC997",
"/. c #C6C599",
"(. c #CECC9B",
"). c #CFCCA6",
"_. c #CECDA9",
"`. c #D0CCA5",
"'. c #D8D7B5",
"]. c #D8D8B7",
"[. c #D7D3BA",
"{. c #D9D7BC",
"}. c #DAD9BF",
"|. c gray76",
" X c #C8C7C2",
".X c #CCCCC6",
"XX c #CBCACA",
"oX c #D4D3C1",
"OX c #DBD7C2",
"+X c #DCDAC6",
"@X c #D9D7CC",
"#X c #DDDBCA",
"$X c #CFCFD0",
"%X c LightGray",
"&X c #DFDED3",
"*X c #DDDDDD",
"=X c #E0DFCE",
"-X c #E0DFD3",
";X c #E3E2D5",
":X c #E4E3DC",
">X c #E5E4E3",
",X c #E9E8E6",
"<X c #E9E9E9",
"1X c None",
"2X c black",
"3X c black",
"4X c black",
"5X c black",
"6X c black",
"7X c black",
"8X c black",
"9X c black",
"0X c black",
"qX c black",
"wX c black",
"eX c black",
"rX c black",
"tX c black",
"yX c black",
"uX c black",
"iX c black",
"pX c black",
"aX c black",
"sX c black",
"dX c black",
"fX c black",
"gX c black",
"hX c black",
"jX c black",
"kX c black",
"lX c black",
"zX c black",
"xX c black",
"cX c black",
"vX c black",
"bX c black",
"nX c black",
"mX c black",
"MX c black",
"NX c black",
"BX c black",
"VX c black",
"CX c black",
"ZX c black",
"AX c black",
"SX c black",
"DX c black",
"FX c black",
"GX c black",
"HX c black",
"JX c black",
"KX c black",
"LX c black",
"PX c black",
"IX c black",
"UX c black",
/* pixels */
"1X1X1X1X1X1X1X1X1X1X1X1X1X1X1X1X1X1X1X1X1X1X1X1X1X1X1X1X1X1X1X1X",
"1X1X1X1X1X1X1X1X1X1X1X:X].(.!.E.E.!.(.].:X<X1X1X1X1X1X1X1X1X1X1X",
"1X1X1X1X1X1X1X1X<X=X^.r.3.#.....#.#.$.3.r.!.=X<X1X1X1X1X1X1X1X1X",
"1X1X1X1X1X1X1X>X`.e...@.1.b c Z Z v v *.%...q.(.:X1X1X1X1X1X1X1X",
"1X1X1X1X1X1X:Xj.#.@.7.' h g S S S S N d h 4.@...g.:X1X1X1X1X1X1X",
"1X1X1X1X1X:Xa. .;.6.*.s S z.v.v.v.v.v.k.V k 4.>. .r.;X1X1X1X1X1X",
"1X1X1X1X>Xg. .@.` z a m H z.k.k.H k.k.k.G m d x X. .s.:X1X1X1X1X",
"1X1X1X<X^...+.=.1 $ d H G G G G G G G G G H d $ 3 O.| !.<X1X1X1X",
"1X1X1X+X2.O.-./ > w p S S S S S S S S S S S p q > ^ O.2.}.1X1X1X",
"1X1X,XE.{ +.-.~ : w : & + + + + + + + + + o - w : W O.{ g.<X1X1X",
"1X1X+X2.o.+.+.~ > w q j k.z.z.k.z.z.k.z.z.F 8 w - R o.} &.}.1X1X",
"1X1X).{ o.o.+.~ : q 0 A v.v.v.v.v.v.v.v.v.z.e q - P [ O.{ ^.1X1X",
",X>Xh.] } o.+.~ - q 7 C c.c.c.c.c.x.c.c.c.k.e q - P [ [ ] p.>X1X",
":XOXw.] } o.o.~ - q 7 B z.z.k.k.t.H k.k.k.H , q - L [ [ ] 9.-X1X",
"+X`.,.W } } o.~ - 0 7 C k.k.H H H H H k.H H , 0 - L I [ R ,.#X1X",
"+X`.,.Q } } } ~ % 7 6 M k.k.k.k.k.H k.k.k.H , 7 - K I [ ] ;.#X1X",
":X[.1.W ! ! ! E % 7 6 B x.l.l.l.x.x.x.k.x.H < 7 % L I I R -.#X1X",
",X-X0.R Q ! ! E % 7 5 B z.l.l.c.x.x.x.x.c.H < 6 % K I I R 8.-X1X",
"1X,XB.T Q Q ! U $ 7 4 B c.c.c.c.c.c.c.c.c.k.< 6 % K I I T i.>X1X",
"1X1X_.T L Q Q U $ 6 4 V v.v.c.v.v.c.v.v.v.x.< 6 $ K I P T /.1X1X",
"1X1X#X;.L Q Q r $ 5 ; V v.v.v.v.v.v.c.D N M % 6 = K P L +.OX1X1X",
"1X1X,XV.Y P I J $ 5 4 V n.n.v.v.b.v.v.@   X 5 5 $ L P Y N.,X1X1X",
"1X1X1X@X:.K P J % 5 ; B n.n.n.n.b.b.b.@ . 4 5 5 $ K K =.oX1X1X1X",
"1X1X1X,XT.E L J # % % * g m n n m m n O $ % % % $ r E S.,X1X1X1X",
"1X1X1X1X>Xf.y K 9 $ $ $ # # # # # # # $ = $ $ = 9 y d.>X1X1X1X1X",
"1X1X1X1X1X:Xd.y K P I P P P P P P P P P P P P K y u.:X1X1X1X1X1X",
"1X1X1X1X1X1X>XN.~ J K L P P P P P P P P P K r E f.:X1X1X1X1X1X1X",
"1X1X1X1X1X<X,X-XA.5.u r J L L L L L K J r u 4.A.&X>X<X1X1X1X1X1X",
"1X1X1X1X1X,X%X>X<X%XF.y.( l u t t t u _ t.C.XX*X$XXX,X1X1X1X1X1X",
"1X1X1X1X1X<X>X,X<X<X*X%X XU.A.m.m.Z.L.XX%X$X%X*X*X*X,X1X1X1X1X1X",
"1X1X1X1X1X1X1X1X<X*XR.P.I.Y.Y.Y.Y.Y.H.H.H.H.J.R.*X<X1X1X1X1X1X1X",
"1X1X1X1X1X1X1X1X<X*XXXY.R.R.I.J.P.H.G.C.G.G.G.H.XX,X1X1X1X1X1X1X"
};
