/* XPM */
static char *paste[] = {
/* columns rows colors chars-per-pixel */
"28 28 99 2",
"   c black",
".  c #0C0C0B",
"X  c #473609",
"o  c #4D3D0F",
"O  c #594510",
"+  c #514418",
"@  c #594C1E",
"#  c #6C5400",
"$  c #745603",
"%  c #7C5C02",
"&  c #655314",
"*  c #7B621D",
"=  c #574821",
"-  c #4E4933",
";  c #544D33",
":  c #575034",
">  c #5A5130",
",  c #6F5D2A",
"<  c #625938",
"1  c #4E4E4C",
"2  c gray33",
"3  c #5B5B5B",
"4  c #7C7048",
"5  c #676252",
"6  c #6A6452",
"7  c #6B675E",
"8  c #6C685D",
"9  c #626261",
"0  c #6D6B64",
"q  c #6D6C6C",
"w  c #75736C",
"e  c #717171",
"r  c #7B7A73",
"t  c #815F02",
"y  c #836302",
"u  c #886703",
"i  c #8C6A02",
"p  c #926D01",
"a  c #8F7004",
"s  c #937202",
"d  c #9B7301",
"f  c #9D7801",
"g  c #90720C",
"h  c #A17700",
"j  c #A57A00",
"k  c #A97D00",
"l  c #85743A",
"z  c #81754E",
"x  c #817652",
"c  c #867A51",
"v  c #827858",
"b  c #A78002",
"n  c #AD8300",
"m  c #AF8804",
"M  c #B28600",
"N  c #B48900",
"B  c #BA8D00",
"V  c #BE9100",
"C  c #C29500",
"Z  c #C69900",
"A  c #CA9C00",
"S  c #CFA001",
"D  c #D2A301",
"F  c #968B64",
"G  c #8D8774",
"H  c #8D8874",
"J  c #85837F",
"K  c #948C74",
"L  c #979079",
"P  c #9D957B",
"I  c #818181",
"U  c #8A8986",
"Y  c #8C8B8B",
"T  c #939392",
"R  c #9E9E9D",
"E  c #A39C82",
"W  c #A9A9A9",
"Q  c #B0B0AF",
"!  c #B5B5B4",
"~  c #B8B8B7",
"^  c #B7B7B8",
"/  c #BCBCBB",
"(  c #C3C3C3",
")  c #CACACA",
"_  c gray83",
"`  c #D6D6D8",
"'  c #D7D8D9",
"]  c #DBDBDC",
"[  c #DEDEE0",
"{  c #E2E2E2",
"}  c #E6E6E8",
"|  c #E7E8E9",
" . c #EAEAEA",
".. c #EEEFF1",
"X. c #F2F3F3",
"o. c #F6F6F8",
"O. c #FBFBFB",
"+. c black",
"@. c None",
/* pixels */
"@.@.@.@.@.@.@.@.| ! Y Y Y Y Y Y Y Y ! | @.@.@.@.@.@.@.@.",
"@.@.@.@.@.@.] T I 2 R W W W W W W R 2 J R } @.@.@.@.@.@.",
"@.@.@.@.@.@.Q e / ) o.O.O.O.O.O.O.o.) ~ 9 _ @.@.@.@.@.@.",
"@.@.@.@./ I 3 T o... . . . . . . .....X.e e Y ] @.@.@.@.",
"@.} W U 1 R Q ( _ ) ) ( ) ( ( ( ) ) _ _ / ! q q Y / } @.",
"@.R & a + ! ( / ^ ^ ^ ^ ~ ~ ~ / / / ~ / ( ) r # i < ( @.",
"| 8 N D & W / / / / / / / / / / / / ( / / ( w f D s U @.",
"| 6 N A y > : - - - - - ; - - ; - - - - : < @ m D d J @.",
"| 6 m S Z g v G G G G G G H H H K G G G 4 f V A A s J @.",
" .6 m Z B F X.O.O.O.O.O.O.O.O.O.O.O.O.O.{ l C Z A d J @.",
"} 6 n Z N E o.X.X.X.X.X.X.X.X.X.X.X.X.X...c B C A s J @.",
" .6 n C m P ..|  . . . . . . . . . . . .| c B C C s J @.",
"} 6 n C n P } { { { { { { { { { { { { { { c N C C s J @.",
" .6 b V n K { ] ] ` _ _ _ _ _ _ ` ` ] [ ] z N V C i J @.",
"| 6 b V b K ] _ _ _ _ _ _ _ _ _ _ _ ` ' ` z M B V i J @.",
"| 6 j B k G ] _ ` _ ` _ _ ` _ _ ` ` ` ` ' 4 n B B i J @.",
"} 6 j B j G [ ] ] ] ] ] ] ] ] ] ] ] ] ] ] z k B B u I @.",
"| 6 f N j K { [ [ [ { [ { [ [ [ [ { { [ [ z k N B u J @.",
" .6 f N j K | { { { { { { { { { { { { { { x k M N y J @.",
"} 6 d n d L  . . . . . . . . . . . . . .} x h M M y I @.",
"} 5 p M d L X. ... ... . . ..... . ..... .x h k n t J @.",
"} 5 d n d K X.X...X.X.X.X.X.X.X.X.X...X...x h k n t J @.",
"| 5 p k j , 9 3 3 T o.X.X.o.X.X.X.o.X.o.X.x h k k t I @.",
"| 5 p k j p X .   5 o.O.o.o.O.o.O.o.O.o.X.x h j k % J @.",
" .5 p j j j d o . 9 O.O.O.O.O.O.O.O.O.O.o.z d j j % v @.",
" .6 i j h h j d o 9 ] [ ] ] [ [ ] ] [ [ Q * h j k $ T @.",
"@.R O t t t t t $ o = = @ = = = = = = = O % t t $ - ( @.",
"@.{ R 0 7 7 7 0 0 8 8 8 7 7 0 8 8 8 8 8 7 7 0 7 w ! ..@."
};
