/* XPM */
static char *paste_dis[] = {
/* columns rows colors chars-per-pixel */
"28 28 93 2",
"   c black",
".  c #0C0C0C",
"X  c #47402E",
"o  c #4D4734",
"O  c #524C39",
"+  c #59513C",
"@  c #4E4C43",
"#  c #4E4E4D",
"$  c #524D40",
"%  c #575142",
"&  c #595341",
"*  c #575449",
"=  c #5A5649",
"-  c #5E5948",
";  c gray33",
":  c #5B5B5B",
">  c #645D43",
",  c #625E51",
"<  c #676046",
"1  c #6C6341",
"2  c #736746",
"3  c #7A6D4A",
"4  c #7E724D",
"5  c #6F6854",
"6  c #68665F",
"7  c #7B7156",
"8  c #626262",
"9  c #696760",
"0  c #6B6965",
"q  c #6D6C6C",
"w  c #7C7767",
"e  c #747371",
"r  c #7D7D7C",
"t  c #81744E",
"y  c #847750",
"u  c #867952",
"i  c #8B7D54",
"p  c #857E67",
"a  c #817D6E",
"s  c #827D70",
"d  c #8E8157",
"f  c #908357",
"g  c #938559",
"h  c #96895B",
"j  c #9A8B5D",
"k  c #85806F",
"l  c #9E8F60",
"z  c #878272",
"x  c #A08F60",
"c  c #A59463",
"v  c #A89765",
"b  c #AB9A66",
"n  c #AE9D69",
"m  c #B19F6A",
"M  c #B4A26C",
"N  c #B9A76F",
"B  c #B9A86F",
"V  c #BDAB71",
"C  c #C4B276",
"Z  c #C7B578",
"A  c #C9B679",
"S  c #CDBA7B",
"D  c #858482",
"F  c #8D8B83",
"G  c #8C8B8B",
"H  c #928F85",
"J  c #949185",
"K  c #969389",
"L  c #9B988D",
"P  c #939393",
"I  c #9F9C92",
"U  c #9E9E9D",
"Y  c #A3A096",
"T  c #A9A9A9",
"R  c #B4B4B4",
"E  c #B7B7B8",
"W  c #BCBCBB",
"Q  c #D5C280",
"!  c #C3C3C3",
"~  c #CACACA",
"^  c gray83",
"/  c #D7D7D8",
"(  c #DBDCDC",
")  c #DFDFE0",
"_  c #E2E2E2",
"`  c #E7E7E8",
"'  c #EAEAEA",
"]  c #EFF0F1",
"[  c gray95",
"{  c #F7F7F8",
"}  c #FBFBFB",
"|  c black",
" . c None",
/* pixels */
" . . . . . . . .' R G G G G G G G G E '  . . . . . . . .",
" . . . . . .( P r ; U T T T T T T U ; r U _  . . . . . .",
" . . . . . .T e W ~ { } } } } } } { ~ E 8 ^  . . . . . .",
" . . . .E D 8 P { [ ' ' ' ' ' ' ' ] ] [ e e G (  . . . .",
" ._ T G # U T ~ ^ ~ ~ ~ ! ! ! ~ ~ ~ ~ / W R 0 q G ! _  .",
" .U > f O R ! W E E E E E E E E W W W W ! ~ r 1 d - !  .",
"' 0 M S < T W W W W W W W W W W W W ! W W ~ e l Q f G  .",
"' 9 M S 4 = * @ @ @ @ @ $ @ # $ @ @ @ @ * < & n S j D  .",
"` 0 m Z C g z F F F F F F F F F H F F F w j V C S h D  .",
"` 0 m Z B J [ } } } } } } } } } } } } } _ k C C A h D  .",
"` 6 n Z n Y { [ [ [ [ [ [ [ [ [ [ [ [ [ [ z B C Z g D  .",
"' 6 n Z n I ] ' ' ' ' ' ' ' ' ' ' ' ' ' ' k B C C g D  .",
"' 6 n C n L ` _ _ _ _ ) _ _ _ _ _ _ _ _ _ a N V C f D  .",
"` 6 b V b K _ ( ( / ^ ^ ^ ^ ^ / ^ ( ( ) ( a M V V d D  .",
"' 6 c V v J ( ^ ^ ^ ^ ^ ^ ^ ^ ^ ^ ^ ^ ( ( a m V V i D  .",
"` 6 c B c H ( / / ^ / ^ ^ ^ ^ ^ / ^ ^ ^ ^ a n V V i D  .",
"' 6 c B c J ) ( ( ( ( ( ( ( ( ( ( ( ( ( ( a b N N u D  .",
"' 6 l M l J _ ) ) _ ) _ ) ) ) ) ) ) ) ) ) p v M N u D  .",
"` 6 l M l K ` _ _ _ _ _ _ _ _ _ _ _ _ _ _ a v m M y D  .",
"` 6 j m l K ' ' ` ' ' ` ' ' ' ' ' ' ' ' ` a c m m y D  .",
"` 6 h n j K [ ' ] ' ] ] ' ] ] ' ' ] ] ' ' a x n n t D  .",
"` 6 h n j K [ [ ] [ ] ] [ ] [ [ [ [ ] [ ] s x b n 4 D  .",
"` 6 h c c 5 8 : : P [ { { [ { [ [ { [ { [ s l v n 4 D  .",
"` 6 h c c h X .   , { { { { { } { { } { [ a j v v 3 D  .",
"` 6 f c c c j o . 8 } } } } } } } } } } { a j v v 3 D  .",
"' 0 f c c c c j o 8 ( ) ( ) ) ( ( ) ( ) E 7 x c v 2 G  .",
" .U + 3 y t t t 2 O % % % % % % % % & & O 3 y y 3 O !  .",
" ._ U q 0 0 0 0 0 0 0 0 0 0 0 0 0 0 0 0 0 0 0 0 e R '  ."
};
