/* XPM */
static char *paste_dis[] = {
/* columns rows colors chars-per-pixel */
"32 32 256 2",
"   c #070707",
".  c #4B4431",
"X  c #595139",
"o  c #5D594E",
"O  c #505050",
"+  c #59595A",
"@  c #625D4C",
"#  c #766D4A",
"$  c #7D734D",
"%  c #7C7256",
"&  c #79766C",
"*  c #7D796B",
"=  c #7D7C75",
"-  c #80754F",
";  c #817750",
":  c #847952",
">  c #8A7D55",
",  c #8A7F58",
"<  c #827F6E",
"1  c #8C8157",
"2  c #8E835A",
"3  c #908157",
"4  c #93855B",
"5  c #9B8B5E",
"6  c #85816D",
"7  c #918967",
"8  c #9F8E60",
"9  c #948969",
"0  c #988D6A",
"q  c #9C926E",
"w  c #86847D",
"e  c #96927B",
"r  c #9D977B",
"t  c #A08F60",
"y  c #A59463",
"u  c #A99765",
"i  c #AB9966",
"p  c #AF9D69",
"a  c #B19F6A",
"s  c #A39772",
"d  c #A59A74",
"f  c #AD9F70",
"g  c #B4A36C",
"h  c #B8A66F",
"j  c #B5AB73",
"k  c #BDAB72",
"l  c #C1AF74",
"z  c #C4B175",
"x  c #C7B578",
"c  c #C9B678",
"v  c #CAB879",
"b  c #898780",
"n  c #8C8A82",
"m  c #908F8D",
"M  c #9F9C82",
"N  c #959595",
"B  c #9E9E9C",
"V  c #A19A82",
"C  c #A29E92",
"Z  c #A9A385",
"A  c #A5A195",
"S  c #A7A398",
"D  c #A9A59A",
"F  c #ACA89C",
"G  c #A7A6A5",
"H  c #A9A9A7",
"J  c #ABABA9",
"K  c #B4B4B4",
"L  c #BCBCBC",
"P  c #C6BE87",
"I  c #C6BE8D",
"U  c #C3BE9D",
"Y  c #CFC489",
"T  c #D1C78B",
"R  c #D6CA8A",
"E  c #D9CC8A",
"W  c #DDD18D",
"Q  c #C9C194",
"!  c #CFC896",
"~  c #C4C19B",
"^  c #C9C299",
"/  c #CFC99E",
"(  c #D3CB95",
")  c #D8CD92",
"_  c #D2CB9C",
"`  c #D9CF99",
"'  c #DED391",
"]  c #DBD29B",
"[  c #E1D48E",
"{  c #E3D691",
"}  c #ECDE95",
"|  c #E3DB99",
" . c #EADF9A",
".. c #EBE29E",
"X. c #F3E59B",
"o. c #F7E99E",
"O. c #F8EA9F",
"+. c #CDC9AC",
"@. c #D3D0A7",
"#. c #DAD1A0",
"$. c #D6D0AB",
"%. c #D9D5AD",
"&. c #DFDAAF",
"*. c #CDC9B2",
"=. c #C2C1BB",
"-. c #D8D4B0",
";. c #DCD8B1",
":. c #E7DEA5",
">. c #E1DEAC",
",. c #E4DEB2",
"<. c #E1DEBB",
"1. c #ECE4A1",
"2. c #ECE8A6",
"3. c #EAE4AC",
"4. c #F3E7A1",
"5. c #F5E9A5",
"6. c #FBEDA3",
"7. c #F4EAAB",
"8. c #F8EDAC",
"9. c #F6F3AE",
"0. c #E6E1B5",
"q. c #EAE2B4",
"w. c #EDEAB7",
"e. c #E5E1B9",
"r. c #E9E5BC",
"t. c #EEECBB",
"y. c #F5EDB2",
"u. c #F8EDB1",
"i. c #F2ECBD",
"p. c #F6F2B5",
"a. c #F9F5B4",
"s. c #FBF8B3",
"d. c #F6F4BE",
"f. c gray76",
"g. c #CBCBCB",
"h. c #D3D0C2",
"j. c #DAD7C4",
"k. c #DDDAC6",
"l. c #D4D3CC",
"z. c #DCDACC",
"x. c gray83",
"c. c #DCDBD3",
"v. c #DCDBDB",
"b. c #E0DECD",
"n. c #E2DFD3",
"m. c #E3E0C1",
"M. c #E9E6C3",
"N. c #E3E1CB",
"B. c #ECEBCD",
"V. c #F0EFCC",
"C. c #F4F2C5",
"Z. c #F3F1CB",
"A. c #E2E0D3",
"S. c #E8E7D7",
"D. c #EDECD4",
"F. c #E1E0DF",
"G. c #EDEBDB",
"H. c #F0EFD4",
"J. c #F0F0D1",
"K. c #E4E4E3",
"L. c #EAEAE4",
"P. c #E7E7E8",
"I. c #EAEAEA",
"U. c #F4F4F4",
"Y. c #F7F7F8",
"T. c #F7F8F8",
"R. c #FBFBFB",
"E. c None",
"W. c black",
"Q. c black",
"!. c black",
"~. c black",
"^. c black",
"/. c black",
"(. c black",
"). c black",
"_. c black",
"`. c black",
"'. c black",
"]. c black",
"[. c black",
"{. c black",
"}. c black",
"|. c black",
" X c black",
".X c black",
"XX c black",
"oX c black",
"OX c black",
"+X c black",
"@X c black",
"#X c black",
"$X c black",
"%X c black",
"&X c black",
"*X c black",
"=X c black",
"-X c black",
";X c black",
":X c black",
">X c black",
",X c black",
"<X c black",
"1X c black",
"2X c black",
"3X c black",
"4X c black",
"5X c black",
"6X c black",
"7X c black",
"8X c black",
"9X c black",
"0X c black",
"qX c black",
"wX c black",
"eX c black",
"rX c black",
"tX c black",
"yX c black",
"uX c black",
"iX c black",
"pX c black",
"aX c black",
"sX c black",
"dX c black",
"fX c black",
"gX c black",
"hX c black",
"jX c black",
"kX c black",
"lX c black",
"zX c black",
"xX c black",
"cX c black",
"vX c black",
"bX c black",
"nX c black",
"mX c black",
"MX c black",
"NX c black",
"BX c black",
"VX c black",
"CX c black",
"ZX c black",
"AX c black",
"SX c black",
"DX c black",
"FX c black",
"GX c black",
"HX c black",
"JX c black",
"KX c black",
"LX c black",
"PX c black",
"IX c black",
"UX c black",
/* pixels */
"E.E.E.E.E.E.E.E.E.E.E.E.E.E.E.E.E.E.E.E.E.E.E.E.E.E.E.E.E.E.E.E.",
"E.E.E.E.E.E.E.E.E.E.E.I.G.G.G.J.J.G.G.G.L.I.E.E.E.E.E.E.E.E.E.E.",
"E.E.E.E.E.E.E.E.I.L.G.V.C.s.s.s.s.9.s.C.Z.D.L.I.E.E.E.E.E.E.E.E.",
"E.E.E.E.E.E.E.I.G.C.a.a.d.@.U U U +.~ 3.d.s.C.G.I.E.E.E.E.E.E.E.",
"E.E.E.E.E.E.I.J.a.p.C.$.e = G G G G B & M ;.p.p.J.I.E.E.E.E.E.E.",
"E.E.E.E.E.L.B.a.y.i.,.r H K.Y.Y.T.T.U.v.B Z ,.p.9.Z.L.E.E.E.E.E.",
"E.E.E.E.L.D.9.y.,.Q 6 b g.K.v.v.x.c.v.K.f.w 6 U 3.9.B.L.E.E.E.E.",
"E.E.E.I.G.y.7.3.7 % & g.f.f.L L L L L L f.g.& $ q 7.p.D.I.E.E.E.",
"E.E.E.L.r.7.y.#.4 z < J J J J J J J J G H J * l 2 3.7.t.L.E.E.E.",
"E.E.I.D.7.7.y.] 7 c 4 # o o o o o o o o o @ 4 x 2  .7.2.J.I.E.E.",
"E.E.L.w.7.7.u.` 4 v l V v.K.F.K.K.F.F.K.K.=.f x 2  .6.7.w.L.E.E.",
"E.E.G.2.7.8.u.` 4 x h F Y.U.U.U.U.U.U.U.U.K.d z 2  .6.7.2.G.E.E.",
"I.I.D.1.5.7.8.` , z g D I.I.I.I.P.P.I.P.I.v.s z 1 } 6.5.1.B.I.E.",
"L.L.M.1.5.7.8.` , l g S K.F.v.v.v.v.v.v.K.g.q k 1  .6.o...r.L.E.",
"L.G.r...5.7.7.` , l p C v.x.x.g.x.x.x.x.x.g.q k > { o.o...0.L.E.",
"L.G.r...4.5.7.` , h i C v.v.v.v.v.x.v.x.c.g.0 h > [ o.o...0.L.E.",
"L.G.e...4.4.5.) : h u C K.v.K.v.v.v.K.v.v.g.0 g : { X.X. .,.L.E.",
"I.L.b. .X.4.5.) : g y A P.K.K.K.K.K.K.K.K.x.9 g : ' X.X.| <.L.E.",
"E.I.n.] X.4.4.) : a y S I.I.L.I.I.I.I.P.I.v.9 a ; [ X.X.| N.I.E.",
"E.E.S.] } 4.4.R ; p 8 S U.U.I.U.I.U.I.U.U.n.9 u ; [ X.} ] S.E.E.",
"E.E.L.;.{ X.X.R % i 5 D T.T.U.Y.Y.U.U.K N m 4 u - [ X.{ %.L.E.E.",
"E.E.I.N.( } X.R $ u 5 D R.R.T.T.T.T.U.O   X y y - [ ..( b.L.E.E.",
"E.E.E.K.-.{ } R - u 5 C R.R.R.R.R.R.R.+ . t u y $ [ { %.K.E.E.E.",
"E.E.E.I.n.( [ W # > 4 % w n n w n n n o : 4 4 > # E _ A.L.E.E.E.",
"E.E.E.E.I.z.( W j : : $ $ # # # # # # $ - - ; : j T k.I.E.E.E.E.",
"E.E.E.E.E.L.k.! W }  .} } } X.} X.} } } X.}  .) ( k.L.E.E.E.E.E.",
"E.E.E.E.E.E.I.z._ T W } } } } } } } } } } [ R _ z.L.E.E.E.E.E.E.",
"E.E.E.E.E.I.I.P.l.*.Q Y E [ [ } } [ W R Y Y +.l.K.I.I.E.E.E.E.E.",
"E.E.E.E.E.P.K.P.I.K.c.j.+.^ I P v I Q +.h.l.v.K.v.v.I.E.E.E.E.E.",
"E.E.E.E.E.I.P.P.I.L.P.K.F.v.x.z.z.c.x.K.K.K.K.P.P.P.I.E.E.E.E.E.",
"E.E.E.E.E.E.E.E.I.P.F.v.v.F.K.v.K.v.v.x.v.v.v.v.P.I.E.E.E.E.E.E.",
"E.E.E.E.E.E.E.E.I.P.K.v.v.F.v.x.v.v.x.x.x.x.x.x.K.P.E.E.E.E.E.E."
};
