/* XPM */
static char *paste_sel[] = {
/* columns rows colors chars-per-pixel */
"28 28 73 1",
"  c #030302",
". c gray3",
"X c #2A2005",
"o c #2E2409",
"O c #30260B",
"+ c #33290C",
"@ c #3D330D",
"# c #2F2B1E",
"$ c #342B14",
"% c #392E10",
"& c #3A3522",
"* c gray21",
"= c #3A3A3A",
"- c #493601",
"; c #4D3901",
": c #523E01",
"> c #423711",
", c #4A3B11",
"< c #433819",
"1 c #463F26",
"2 c #564202",
"3 c #5B4400",
"4 c #5E4800",
"5 c #614700",
"6 c #644A00",
"7 c #684E00",
"8 c #6C5200",
"9 c #715600",
"0 c #755A00",
"q c #795D00",
"w c #7D6100",
"e c #4D462E",
"r c #504522",
"t c #4D4631",
"y c #4E4832",
"u c #514931",
"i c #5A533C",
"p c #444442",
"a c #484848",
"s c #545145",
"d c #595446",
"f c #5A5548",
"g c #5E594A",
"h c #5F5B51",
"j c gray36",
"k c #605D51",
"l c #646157",
"z c #66645E",
"x c #656665",
"c c #696864",
"v c #6E6D6D",
"b c #70706F",
"n c #727372",
"m c gray49",
"M c #82817F",
"N c #838383",
"B c #888886",
"V c #878788",
"C c #8B8B8B",
"Z c #8F8F90",
"A c #939393",
"S c #969798",
"D c gray60",
"F c #ACACAB",
"G c gray70",
"H c #BCBCBC",
"J c #C0C0C0",
"K c #D0D0D0",
"L c #DADADA",
"P c #E4E4E4",
"I c gray91",
"U c black",
"Y c None",
/* pixels */
"YYYYYYYYIGVCCCCCZCGIYYYYYYYY",
"YYYYYYLCMpxxxxxxxjpmDPYYYYYY",
"YYYYYYFanmASSSASAAmnaKYYYYYY",
"YYYYHmjjAZCCCCCCCZZZavZLYYYY",
"YPFCpjvnmmmnnnnmmmmmnxtvCJIY",
"YD>2+vnbvvvvnbbvvvvvnma@21JY",
"Il8w@xbbbbvnnbnnnnnnnny2w2CY",
"Ik8w;&##############&&$8w3MY",
"Ik8w02yssssssssssssse300q3MY",
"Ih808iASSSSSSSSSSSSSVr0qq3MY",
"Ih808lAAZAAAAAZAAAZAZy8q03MY",
"Ik608gZCCCCCCCCCCCCCCy8002MY",
"Ik608fCVVVCVVCBVVVCCVu8002MY",
"Ih607dVNNNmNmmmMNNNNNe8902MY",
"Ik696dVmmmmmmmmmmmmNNe8992MY",
"Ik496sNmNNmNNmMNNmMNme789:MY",
"Ik496dVNNNNNNNNNNNNNN1798:MY",
"Ik484fVVVVVNVVVVNVVVVt698:MY",
"Ik484dVVVCVVBBBCBCBVVt677:MY",
"Ik464fZCCCCCCCCCCCCCZt577:NY",
"Ih374fZCZZZZZZZCZCZZZy577:MY",
"Ik373dAAZZZZZZZZAZZZZ1566;MY",
"Ih364<=**jAAAAAAAAAASy566;NY",
"Ih:663X. 1ASAASSSAASS1566-MY",
"Ih:666:o.=SSDDSDSSSDA1556-NY",
"Ik:66665o1NVNNNNNNNNv,666-CY",
"YD%;;;;;-O##$$$$$$$$+-;;-1JY",
"YIDckczczzxkzzzzzzzzzzzzvGIY"
};
