/* XPM */
static char *preferences[] = {
/* columns rows colors chars-per-pixel */
"28 28 157 2",
"   c #423F3E",
".  c #685430",
"X  c #645836",
"o  c #765832",
"O  c #4B4941",
"+  c #555144",
"@  c #5D5142",
"#  c #50504F",
"$  c #54524C",
"%  c #545452",
"&  c #585857",
"*  c #5A5A59",
"=  c #5C5C5A",
"-  c #5F5D5B",
";  c #604D43",
":  c #675841",
">  c #675A44",
",  c #69574E",
"<  c #615950",
"1  c #625955",
"2  c #685D5B",
"3  c #725A53",
"4  c #666359",
"5  c #67655B",
"6  c #60605F",
"7  c #66645F",
"8  c #786259",
"9  c #636361",
"0  c #646460",
"q  c #676767",
"w  c #6B6160",
"e  c #686767",
"r  c #686865",
"t  c #686867",
"y  c #6C6B6A",
"u  c #6C6C69",
"i  c #716C67",
"p  c #726E69",
"a  c #737370",
"s  c gray45",
"d  c #777672",
"f  c #767675",
"g  c #7A7A77",
"h  c #7B7B7A",
"j  c gray50",
"k  c #FC0904",
"l  c #FC1408",
"z  c #FC1D0A",
"x  c #FC1B1A",
"c  c #FD2105",
"v  c #FD2506",
"b  c #FD290C",
"n  c #FE3414",
"m  c #82562C",
"M  c #93532C",
"N  c #975B2E",
"B  c #AA592C",
"V  c #93762E",
"C  c #94752F",
"Z  c #BC6F2B",
"A  c #B57C30",
"S  c #FD450D",
"D  c #FD4618",
"F  c #FB5C18",
"G  c #FD6B04",
"H  c #FF7509",
"J  c #FE6413",
"K  c #D05A38",
"L  c #FE402B",
"P  c #F75821",
"I  c #FE483A",
"U  c #CD7E2A",
"Y  c #F07A24",
"T  c #FE746E",
"R  c #B4802F",
"E  c #FE8B01",
"W  c #FF9500",
"Q  c #FF9A02",
"!  c #FF960C",
"~  c #E9871C",
"^  c #EC981B",
"/  c #FFA301",
"(  c #FFA709",
")  c #FEAE17",
"_  c #DB8D27",
"`  c #C2912F",
"'  c #C3962F",
"]  c #D2972D",
"[  c #D8A32C",
"{  c #82827F",
"}  c #94847F",
"|  c #FE8379",
" . c #828281",
".. c #848483",
"X. c #888887",
"o. c #8B8B87",
"O. c gray54",
"+. c #8E8F8A",
"@. c #8F8F8B",
"#. c gray55",
"$. c #92928E",
"%. c #9F908C",
"&. c #929292",
"*. c #939292",
"=. c #959595",
"-. c #979796",
";. c #999994",
":. c gray60",
">. c gray62",
",. c #B8998F",
"<. c #A0A0A0",
"1. c gray64",
"2. c #A6A6A3",
"3. c #A7A7A7",
"4. c #A9A9A4",
"5. c #A7A8A8",
"6. c #AEAEA9",
"7. c gray69",
"8. c #B4B4B4",
"9. c #B6B6B6",
"0. c #B9B9B5",
"q. c #B9B9B9",
"w. c #BCBCB8",
"e. c #BEBEBA",
"r. c gray",
"t. c #E09081",
"y. c #F19D85",
"u. c #FD9892",
"i. c #C8A6A5",
"p. c #C7ABA7",
"a. c #F7AFA8",
"s. c #EFB1A5",
"d. c #E8B7B1",
"f. c #FFB9B5",
"g. c #FFBDB7",
"h. c #C2C2BD",
"j. c #C1C1C1",
"k. c #C5C5C5",
"l. c #C9C9C6",
"z. c #CBCBCB",
"x. c #CECECE",
"c. c #D0D0D0",
"v. c LightGray",
"b. c gray83",
"n. c #DADADA",
"m. c #DDDDDD",
"M. c #DFDFDF",
"N. c #FEC8C5",
"B. c #FFCCCB",
"V. c #FFD2CD",
"C. c gray89",
"Z. c #E4E4E4",
"A. c #E6E6E6",
"S. c #E7E7E7",
"D. c #E9E9E9",
"F. c black",
"G. c None",
/* pixels */
"G.G.G.G.G.G.G.G.G.G.G.G.G.G.G.G.G.G.G.G.D.c.8.n.G.G.G.G.",
"G.G.G.G.G.G.G.G.G.G.G.G.G.G.G.G.G.G.G.8.q 9 % -.G.G.G.G.",
"G.G.G.G.G.G.G.G.G.G.G.G.G.G.G.G.G.G.G.d o.l.;.X.G.G.G.G.",
"G.G.G.G.G.G.G.G.G.G.G.G.G.G.G.G.G.G.S.q 2.x.@.h G.G.G.G.",
"G.G.G.G.G.G.G.G.G.G.G.G.G.G.G.G.G.G.-.s r.q $ O.G.G.G.G.",
"G.G.G.G.G.G.G.G.G.G.G.G.G.G.G.G.G.7.7 h.t #.M.S.G.G.G.G.",
"G.G.G.G.G.G.G.G.G.G.G.G.G.G.G.G.r.= 0.{ h S.G.G.G.G.G.G.",
"G.G.G.G.G.G.G.G.G.G.G.G.G.G.G.c.& 4.;.q M.G.G.G.G.G.G.G.",
"G.G.G.G.G.G.G.G.G.G.G.G.G.G.M.t &.6.* x.G.G.G.G.G.G.G.G.",
"G.G.G.G.G.G.G.G.G.G.G.G.G.S.j g w.6 r.G.G.G.G.G.G.G.G.G.",
"G.G.G.G.G.G.G.G.G.G.G.G.G.<.t h.t 5.G.G.G.G.G.G.G.G.G.G.",
"G.G.G.G.G.G.G.G.G.C.&.y e = w.g #.D.G.G.G.G.G.G.G.G.G.G.",
"G.G.G.G.G.G.G.G.D.&.w p.2 @.@.s Z.G.G.G.G.G.G.G.G.G.G.G.",
"G.G.G.G.G.G.G.G.c.1 d.B.i.7   8.G.G.G.G.G.G.G.G.G.G.G.G.",
"G.G.G.G.G.G.G.G.<.3 a.f.N.B.%.-.G.G.G.G.G.G.G.G.G.G.G.G.",
"G.G.G.G.G.G.G.q., t.T u.g.V.} :.G.G.G.G.G.G.G.G.G.G.G.G.",
"G.G.G.G.G.G.j.; K I x | s.,.$ z.G.G.G.G.G.G.G.G.G.G.G.G.",
"G.G.G.G.G.c.% K n k L y.8 = 9.G.G.G.G.G.G.G.G.G.G.G.G.G.",
"G.G.G.G.M.i B D l v F m ..S.G.G.G.G.G.G.G.G.G.G.G.G.G.G.",
"G.G.G.Z.d N F l b P M q M.G.G.G.G.G.G.G.G.G.G.G.G.G.G.G.",
"G.G.S.j m J c b J B p M.G.G.G.G.G.G.G.G.G.G.G.G.G.G.G.G.",
"G.8.9 o Y b c J Z < b.G.G.G.G.G.G.G.G.G.G.G.G.G.G.G.G.G.",
"q.> A ~ S z H U @ k.G.G.G.G.G.G.G.G.G.G.G.G.G.G.G.G.G.G.",
"0 R ! E G H _ : q.G.G.G.G.G.G.G.G.G.G.G.G.G.G.G.G.G.G.G.",
"4 ] Q W W ^ . 5.G.G.G.G.G.G.G.G.G.G.G.G.G.G.G.G.G.G.G.G.",
" .C ) / ( ` $ Z.G.G.G.G.G.G.G.G.G.G.G.G.G.G.G.G.G.G.G.G.",
"c.5 V [ ' X <.G.G.G.G.G.G.G.G.G.G.G.G.G.G.G.G.G.G.G.G.G.",
"G.b.g + O <.D.G.G.G.G.G.G.G.G.G.G.G.G.G.G.G.G.G.G.G.G.G."
};
