/* XPM */
static char *preferences_dis[] = {
/* columns rows colors chars-per-pixel */
"32 32 128 2",
"   c gray39",
".  c #646464",
"X  c gray50",
"o  c #848484",
"O  c gray52",
"+  c #868686",
"@  c gray53",
"#  c gray54",
"$  c gray55",
"%  c #8D8D8D",
"&  c gray56",
"*  c #909090",
"=  c gray57",
"-  c #929292",
";  c #939393",
":  c gray58",
">  c #959595",
",  c #979797",
"<  c #989898",
"1  c gray60",
"2  c #9A9A9A",
"3  c #9B9B9B",
"4  c gray61",
"5  c #9D9D9D",
"6  c gray62",
"7  c #9F9F9F",
"8  c gray63",
"9  c #A2A2A2",
"0  c gray64",
"q  c #A4A4A4",
"w  c #A5A5A5",
"e  c #A7A7A7",
"r  c gray66",
"t  c #A9A9A9",
"y  c #AAAAAA",
"u  c gray67",
"i  c #ABACAC",
"p  c #ACACAC",
"a  c #AEAEAE",
"s  c #AFAFAF",
"d  c gray69",
"f  c #B1B1B1",
"g  c #B2B2B2",
"h  c gray70",
"j  c #B4B4B4",
"k  c gray71",
"l  c #B7B7B7",
"z  c gray72",
"x  c #B9B9B9",
"c  c gray73",
"v  c #BCBCBC",
"b  c gray74",
"n  c gray",
"m  c gray75",
"M  c #C0C0C0",
"N  c #C1C1C1",
"B  c gray76",
"V  c #C3C3C3",
"C  c gray77",
"Z  c #C5C5C5",
"A  c #C6C6C6",
"S  c gray78",
"D  c #C8C8C8",
"F  c gray79",
"G  c #CACACA",
"H  c #CBCBCB",
"J  c gray80",
"K  c #CDCDCD",
"L  c #CECECE",
"P  c gray81",
"I  c #D0D0D0",
"U  c gray82",
"Y  c #D2D2D2",
"T  c LightGray",
"R  c gray83",
"E  c #D5D4D4",
"W  c #D5D5D5",
"Q  c gray84",
"!  c #D7D7D7",
"~  c #D8D8D8",
"^  c gray85",
"/  c #DADADA",
"(  c gray86",
")  c gainsboro",
"_  c #DDDDDD",
"`  c gray87",
"'  c #DFDFDF",
"]  c gray88",
"[  c #E1E1E1",
"{  c #E2E2E2",
"}  c gray89",
"|  c #E4E4E4",
" . c gray90",
".. c #E6E6E6",
"X. c #E7E7E7",
"o. c gray91",
"O. c #E9E9E9",
"+. c #EAEAEA",
"@. c gray92",
"#. c #ECECEC",
"$. c gray93",
"%. c #EEEEEE",
"&. c #EFEFEF",
"*. c gray94",
"=. c #F1F1F1",
"-. c gray95",
";. c #F3F3F3",
":. c #F4F4F4",
">. c gray96",
",. c #F6F6F6",
"<. c gray97",
"1. c #F8F8F8",
"2. c #F9F9F9",
"3. c gray98",
"4. c #FBFBFB",
"5. c gray99",
"6. c #FDFDFD",
"7. c #FEFEFE",
"8. c gray100",
"9. c None",
"0. c black",
"q. c black",
"w. c black",
"e. c black",
"r. c black",
"t. c black",
"y. c black",
"u. c black",
/* pixels */
"9.9.9.9.9.9.9.9.9.9.9.9.9.9.9.9.9.9.9.9.9.9.9.9.9.9.9.9.9.9.9.9.",
"9.9.9.9.9.9.9.9.9.9.9.9.9.9.9.9.9.9.9.9.9.9.9.9.9.9.9.9.9.9.9.9.",
"9.9.9.9.9.9.9.9.9.9.9.9.9.9.9.9.9.9.9.9.9.9.9.9.9.9.9.9.9.9.9.9.",
"9.9.o.' ' ' ' ' ' ' ' ' ' ' ' ' ' ' ' ' ' ' ' ' ' ' ' ' { | 9.9.",
"9.9.{ N L L I L L L I L I L L L L L L L L I L L I L I D n ' 9.9.",
"9.9.{ D 8.8.8.8.8.8.8.8.8.8.8.8.8.8.8.8.8.8.8.8.8.8.8.%.A ' 9.9.",
"9.9.' D 8.%.' *.8.4.4.8.8.4.8.4.8.4.8.4.8.4.8.8.o.' :.o.N ' 9.9.",
"9.9.' A 8.( y ' 4.4.4.4.4.4.4.4.4.4.4.4.4.4.4.4.D f o.o.N ' 9.9.",
"9.9.' N 8.%.( o.4.4.4.:.4.4.:.4.4.4.4.4.4.4.4.4.o.' *.o.N ' 9.9.",
"9.9.' N 8.4.:.4.:.4.4.:.:.4.4.:.:.:.:.:.:.:.:.4.:.4.4.| n ( 9.9.",
"9.9.' n 8.*.:.:.:.:.:.:.:.4.4.4.4.4.4.:.:.:.:.:.:.:.:.o.x ( 9.9.",
"9.9.' n 8.:.*.:.:.*.:.*.*.8 % - - % 8 %.*.*.:.*.*.:.:.| x ( 9.9.",
"9.9.( x 4.%.*.*.*.*.%.*.*.8 j D D j 3 ( { o.*.*.*.*.*.| j ( 9.9.",
"9.9.' j 8.%.%.%.%.%.%.%.%.s R ' { R e D ( o.%.%.%.%.%.| f ( 9.9.",
"9.9.( j 4.o.o.o.o.%.o.%.o.s e y y e e A I | %.o.o.o.%.{ s ( 9.9.",
"9.9.( s 4.| o.o.o.o.o.| o.s 8 y e 8 e N L { o.o.o.o.| { s R 9.9.",
"9.9.R s 4.{ | { | | | { | y ( %.o.( 8 N L ' { | | | { { y R 9.9.",
"9.9.( s 4.{ { { { { { { { 8 L | | I 5 n D ' { { { { { { e R 9.9.",
"9.9.R y :.' ' ' { ' ' ' { 3 j I R f > n D ( ' ' { ' ' ] e R 9.9.",
"9.9.R e :.' ) ' ' ' ( ' ' 3 e x x 5 # x A R ' ) ' ' ) ' 7 R 9.9.",
"9.9.R 8 4.( ( ( ( ( ) ) ( f - - > % > x A R ( ' ) ) ) ' 5 T 9.9.",
"9.9.R 8 :.( ( ' ( ( ) ) ' ( 3 # @ % x n L ( ( ( ) ) ) ' 3 I 9.9.",
"9.9.R 5 4.( ' ' ( ) ) ) ( ( ' R L D D L R ( ' ( ' ' ( ' 3 I 9.9.",
"9.9.R 3 :.L A R ' ) ) ) ' ( ( ( ( R ( ( ' ( ( ' H A ( { > I 9.9.",
"9.9.R 3 :.D f I ' ( ( ' ( ( ( ' ' ) ) ) ( ( ( ' n j R { > L 9.9.",
"9.9.I > 1.R L R ( ( ( ( ( ( ( ' ( ( ( ' ( ( ( ' T L R { - L 9.9.",
"9.9.D > 8.:.4.:.:.:.*.*.:.:.:.:.:.:.:.:.:.4.:.:.4.:.1.o.- A o.9.",
"o.| x . @ @ @ @ @ @ @ o @ @ @ @ @ @ o @ @ @ @ @ @ @ @ X   f { o.",
"o.{ L y e e y e y e y e y e y y y e y e y y y e y e y y y D ] o.",
"o.o.{ { { { ' { { { ' { ' { { | ' { { { { { ' { ] { { { { { o.o.",
"9.o.%.o.o.o.o.o.o.%.o.o.o.o.o.o.o.o.o.o.@.o.o.o.o.o.o.o.%.o.o.9.",
"9.9.9.9.9.9.9.9.9.9.9.9.9.9.9.9.9.9.9.9.9.9.9.9.9.9.9.9.9.9.9.9."
};
