/* XPM */
static char *preferences[] = {
/* columns rows colors chars-per-pixel */
"32 32 128 2",
"   c #515151",
".  c gray33",
"X  c DimGray",
"o  c #6A6A6A",
"O  c #717171",
"+  c gray45",
"@  c #767676",
"#  c #777777",
"$  c #797979",
"%  c #7C7C7C",
"&  c gray50",
"*  c gray51",
"=  c #838383",
"-  c #848484",
";  c #868686",
":  c gray53",
">  c #898989",
",  c #8B8B8B",
"<  c #8D8D8D",
"1  c #8E8E8E",
"2  c gray57",
"3  c #929292",
"4  c gray58",
"5  c #959595",
"6  c gray59",
"7  c #989898",
"8  c #9A9A9A",
"9  c gray61",
"0  c #9D9D9D",
"q  c #9F9F9F",
"w  c #A0A0A0",
"e  c gray63",
"r  c #A2A2A2",
"t  c gray64",
"y  c #A4A4A4",
"u  c #A5A5A5",
"i  c #A7A7A7",
"p  c #AAAAAA",
"a  c gray67",
"s  c gray68",
"d  c #AEAEAE",
"f  c gray69",
"g  c #B1B1B1",
"h  c gray70",
"j  c #B4B4B4",
"k  c #B6B6B6",
"l  c #B7B7B7",
"z  c gray72",
"x  c #B9B9B9",
"c  c gray73",
"v  c #BCBCBC",
"b  c gray",
"n  c gray75",
"m  c #C0C0C0",
"M  c #C1C2C2",
"N  c gray76",
"B  c #C3C3C3",
"V  c gray77",
"C  c #C5C5C5",
"Z  c #C6C6C6",
"A  c gray78",
"S  c #C8C8C8",
"D  c #CACACA",
"F  c #CDCDCD",
"G  c gray81",
"H  c gray82",
"J  c #D2D2D2",
"K  c LightGray",
"L  c gray83",
"P  c #D5D5D5",
"I  c gray84",
"U  c #D8D8D8",
"Y  c gray85",
"T  c #DADADA",
"R  c gainsboro",
"E  c #DDDDDD",
"W  c gray87",
"Q  c #DFDFDF",
"!  c gray88",
"~  c #E2E2E2",
"^  c gray89",
"/  c #E4E4E4",
"(  c gray90",
")  c #E6E6E6",
"_  c #E7E7E7",
"`  c gray91",
"'  c #E9E9E9",
"]  c #ECECEC",
"[  c gray93",
"{  c #EFEFEF",
"}  c gray95",
"|  c #F4F4F4",
" . c #F6F6F6",
".. c #F8F8F8",
"X. c gray98",
"o. c #FBFBFB",
"O. c #FDFDFD",
"+. c #FEFEFE",
"@. c gray100",
"#. c None",
"$. c black",
"%. c black",
"&. c black",
"*. c black",
"=. c black",
"-. c black",
";. c black",
":. c black",
">. c black",
",. c black",
"<. c black",
"1. c black",
"2. c black",
"3. c black",
"4. c black",
"5. c black",
"6. c black",
"7. c black",
"8. c black",
"9. c black",
"0. c black",
"q. c black",
"w. c black",
"e. c black",
"r. c black",
"t. c black",
"y. c black",
"u. c black",
/* pixels */
"#.#.#.#.#.#.#.#.#.#.#.#.#.#.#.#.#.#.#.#.#.#.#.#.#.#.#.#.#.#.#.#.",
"#.#.#.#.#.#.#.#.#.#.#.#.#.#.#.#.#.#.#.#.#.#.#.#.#.#.#.#.#.#.#.#.",
"#.#.#.#.#.#.#.#.#.#.#.#.#.#.#.#.#.#.#.#.#.#.#.#.#.#.#.#.#.#.#.#.",
"#.#.#.#.#.#.#.#.#.#.#.#.#.#.#.#.#.#.#.#.#.#.#.#.#.#.#.#.#.#.#.#.",
"#.#.v v v v v v c c v c v c c c v v v v v v c c v v v c v v ` #.",
"#.#.c @.@.@.@.@.@.@.@.@.@.@.@.@.@.@.@.@.@.@.@.@.@.@.@.@.! v ` #.",
"#.#.k @.@.@.@.@.@.@.@...@...@.@.@.@.@...@...@.@.@.@.@.@.E v _ #.",
"#.#.k @...w A ....@...@...@...@.......@...@...@...9 D ..! c ` #.",
"#.#.h @...k N ....@.......@.........@.....@.......k N ..! k _ #.",
"#.#.h @............................. ......... ....... .! k _ #.",
"#.#.a @. . . . . . ... . . . . ... . . . . . . . . . . .E h _ #.",
"#.#.a @.}  .} } | | |  .}  .}  . . .}  .}  . .}  . .}  .E s _ #.",
"#.#.a @.} } } } } } } } } X X X X o o ` #.} } } } } } } ! a _ #.",
"#.#.w @.{ { { { { { { { { 7 E { ` E 9 H T ` { { { { { { E a _ #.",
"#.#.w @.{ { { { { { { { { w E E E E w A H ! { { ` { { { E y _ #.",
"#.#.9 @.#.#.#.#.#.#.#.#.#.w w w w w w N F E #.#.#.#.#.#.! w _ #.",
"#.#.7 @._ ` _ ` _ ` ` ` ` w 9 w y 9 w N D E _ _ _ _ ` ` E 9 _ #.",
"#.#.5 @._ ! _ _ _ ! _ ! _ 9 ` } } ` 9 v D T ! _ ! _ ! _ ! 7 _ #.",
"#.#.2 @.! ! ! ! ! ! ! _ ! 5 T _ ` T 7 v A L ! _ ! ! _ ! E 5 _ #.",
"#.#.1 @.! ! ! ! ! ! ! ! ! 1 N T E v 1 c A L ! ! ! ! ! ! E 2 _ #.",
"#.#., @.E E E E E E E E E , a v v w = c N L E E E E E E ! 1 _ #.",
"#.#.; @.E E E E E E E E T 5 9 s s w $ k N H T E E E E E ! , _ #.",
"#.#.= @.E T E T T E E E T E X X X X c k A H E E E T T E E ; ! #.",
"#.#.& @.E T E E E E T E E E T H A v N A H T E T E E E E ! = _ #.",
"#.#.& @.T E E T E T E E E T E T L H L L T E E T T E R R E = ! #.",
"#.#.$ @.T w D E E T E T E E T E E E E T T T E E E w A R ! & _ #.",
"#.#.@ @.R j N T E E T E T T E E E E E E E E T E T h N R ! $ ! #.",
"#.#.+ @.R R R R T E E E E E E T E T T E E T E E E E R R E $ _ #.",
"` T + @.@.@.@.@.@.......@.@.@.@.@.@.@.@.@.@.@.@.@.@.@.@.! # H ` ",
"! A   . . . . . .   . . . . .   . . . . .   . . . . . . .   N ! ",
"! T D A A D A A A A A D A A D A A A A A D A A D A A D A A D L / ",
"#._ ! _ ! ! / ! _ ! ! ! _ ! ! _ ! ! _ ! ! _ ! ! / ! ! _ ! ! / ` "
};
