/* XPM */
static char *preferences_sel[] = {
/* columns rows colors chars-per-pixel */
"32 32 128 2",
"   c #313131",
".  c #323232",
"X  c #3F3F3F",
"o  c gray25",
"O  c #444444",
"+  c gray27",
"@  c gray28",
"#  c #494949",
"$  c gray29",
"%  c #4C4C4C",
"&  c #4E4E4E",
"*  c gray31",
"=  c #505050",
"-  c #515151",
";  c gray32",
":  c #535353",
">  c #555555",
",  c gray34",
"<  c #585858",
"1  c gray35",
"2  c #5A5A5A",
"3  c #5B5B5B",
"4  c gray36",
"5  c gray37",
"6  c #5F5F5F",
"7  c #606060",
"8  c gray38",
"9  c #626262",
"0  c gray39",
"q  c #646464",
"w  c gray40",
"e  c #676767",
"r  c #686868",
"t  c #6A6A6A",
"y  c gray42",
"u  c #6C6C6C",
"i  c #6D6D6D",
"p  c gray43",
"a  c #6F6F6F",
"s  c gray44",
"d  c #717171",
"f  c #727272",
"g  c gray45",
"h  c #747474",
"j  c gray46",
"k  c #767676",
"l  c #777777",
"z  c gray47",
"x  c #797979",
"c  c #7B7B7B",
"v  c #7C7C7C",
"b  c gray49",
"n  c gray50",
"m  c #808080",
"M  c gray51",
"N  c #838383",
"B  c #848484",
"V  c gray52",
"C  c #868686",
"Z  c #888888",
"A  c #898989",
"S  c #8B8B8B",
"D  c gray55",
"F  c #8E8E8E",
"G  c gray56",
"H  c gray57",
"J  c #929292",
"K  c gray58",
"L  c #959595",
"P  c gray59",
"I  c #979797",
"U  c #989898",
"Y  c gray60",
"T  c #9D9D9D",
"R  c #A9A9A9",
"E  c gray67",
"W  c gray72",
"Q  c #C3C3C3",
"!  c #C8C8C8",
"~  c #CACACA",
"^  c gray83",
"/  c #D7D7D7",
"(  c gray85",
")  c #DADADA",
"_  c gray86",
"`  c gainsboro",
"'  c #DDDDDD",
"]  c #E6E6E6",
"[  c gray91",
"{  c None",
"}  c black",
"|  c black",
" . c black",
".. c black",
"X. c black",
"o. c black",
"O. c black",
"+. c black",
"@. c black",
"#. c black",
"$. c black",
"%. c black",
"&. c black",
"*. c black",
"=. c black",
"-. c black",
";. c black",
":. c black",
">. c black",
",. c black",
"<. c black",
"1. c black",
"2. c black",
"3. c black",
"4. c black",
"5. c black",
"6. c black",
"7. c black",
"8. c black",
"9. c black",
"0. c black",
"q. c black",
"w. c black",
"e. c black",
"r. c black",
"t. c black",
"y. c black",
"u. c black",
/* pixels */
"{ { { { { { { { { { { { { { { { { { { { { { { { { { { { { { { { ",
"{ { { { { { { { { { { { { { { { { { { { { { { { { { { { { { { { ",
"{ { { { { { { { { { { { { { { { { { { { { { { { { { { { { { { { ",
"{ { { { { { { { { { { { { { { { { { { { { { { { { { { { { { { { ",
"{ { d d d d d d d d d d d d d d d d d d d d d d d d d d d d ' { ",
"{ { d Y Y Y Y Y I Y Y I I Y I Y I Y I Y Y Y Y Y Y Y Y Y C d ' { ",
"{ { i Y I Y Y I Y I I Y Y I I I Y I Y I Y I Y I Y I Y I C d _ { ",
"{ { i Y I 7 z I I I I I I I I I I I I I I I I I I 7 z Y C i ' { ",
"{ { y Y I i d I I I I I I I I I I I I I I I I I I y d I C i ' { ",
"{ { y Y H I I I H I I H H I H I H I H I I H I H I I I I C y _ { ",
"{ { e Y H I H I H I H I H I H I I H I H H I I I H I H I C y _ { ",
"{ { e Y H I H H H H H H I H H H H H H H H H H H H H H H C y _ { ",
"{ { e Y H H H H H H H H H o o o o o o F F F H H H H H H C e _ { ",
"{ { 7 Y F F F F F H F F F 5 C F F C 5 v m S F F H F F F C 7 _ { ",
"{ { 7 Y F F F F F F F F F 7 C C C C 5 k v S F F F F F F C 7 _ { ",
"{ { 5 Y F S F S F S S F S 7 7 7 7 7 7 k z C F S S F F F C 7 _ { ",
"{ { 2 Y S S S S S S S S S 7 5 7 7 5 7 d z C F S S S S S C 5 _ { ",
"{ { 2 Y S C S S C S C S S 5 F H H F 5 d k C S C S S C S C 5 _ { ",
"{ { > Y C S C C S C C S C 2 m F F m 2 d k m C S C C S C C 2 _ { ",
"{ { > I C C C C C C C C C > k m C d > d k m C C C C C C C > _ { ",
"{ { : Y C C m C C C C C C : e d d 5 * i k v C m C C C C C > _ { ",
"{ { : Y C C C C m C C m m 2 5 e y 5 $ i k m C C m C m C C : _ { ",
"{ { * I C m C m m C m C C C o o X o i i k m C m C C C m C : / { ",
"{ { $ Y C m C C C C m C m C C v k d k k v m C C C m C m C * / { ",
"{ { $ I m C m C C m C C C m C m m m m m m m m C C m C m C * / { ",
"{ { $ Y C 7 k C C m C m C C m C C m C m C C C C C 7 z C C * / { ",
"{ { @ Y C i k m C C m C m m C C C m C C C C C m C i d m C $ / { ",
"{ { @ Y C m C C m C C m C C C m C C m C C m C C m C C C C $ / { ",
"[ ~ @ Y Y Y Y Y Y I I I Y Y Y Y Y Y Y Y Y Y Y Y Y Y Y Y C @ W ] ",
"_ R                                             .           T / ",
"_ ~ R R R R R R R R R R R R R R R R R R R R R R R R R R R R Q _ ",
"{ ' ' _ _ _ ' ' ' _ _ _ ' ' ' _ _ ' _ ' _ _ ' _ ' ' ' _ _ _ _ ] "
};
