/* XPM */
static char *preferences_dis[] = {
/* columns rows colors chars-per-pixel */
"32 32 256 2",
"   c #4B4237",
".  c #47443F",
"X  c #4E4439",
"o  c #50463B",
"O  c #53493D",
"+  c #4C4946",
"@  c #564C42",
"#  c #594D41",
"$  c #5B5143",
"%  c #57524B",
"&  c #5B544C",
"*  c #5B5751",
"=  c #655748",
"-  c #65594B",
";  c #6B5D4D",
":  c #625A52",
">  c #605D59",
",  c #6E6052",
"<  c #6D6359",
"1  c #756554",
"2  c #786757",
"3  c #786857",
"4  c #72675C",
"5  c #74695D",
"6  c #7B6C5C",
"7  c #7E705F",
"8  c #656463",
"9  c #6D6662",
"0  c #6C6A67",
"q  c #6F6E6D",
"w  c #766C61",
"e  c #796E61",
"r  c #716F6B",
"t  c #7E7162",
"y  c #73726E",
"u  c #7D746A",
"i  c #787774",
"p  c #7C7B79",
"a  c #80705F",
"s  c #837362",
"d  c #887260",
"f  c #837669",
"g  c #8A766D",
"h  c #85796B",
"j  c #897C6E",
"k  c #997C6B",
"l  c #847B71",
"z  c #8B7F71",
"x  c #8B806F",
"c  c #958269",
"v  c #8D8173",
"b  c #8F837E",
"n  c #918775",
"m  c #91867A",
"M  c #938A7B",
"N  c #988E7E",
"B  c #99907F",
"V  c #AA8476",
"C  c #A08E70",
"Z  c #AB8C75",
"A  c #A49473",
"S  c #AF9C79",
"D  c #BC9D7F",
"F  c #838381",
"G  c #8D8D8B",
"H  c #958C82",
"J  c #958D8D",
"K  c #999183",
"L  c #91908E",
"P  c #9A938A",
"I  c #9B9690",
"U  c #9F9A94",
"Y  c #9B9B99",
"T  c #A19A8F",
"R  c #A59E92",
"E  c #AB9E9B",
"W  c #BE9E96",
"Q  c #AAA295",
"!  c #A0A09E",
"~  c #A9A39B",
"^  c #AEA89F",
"/  c #A6A6A4",
"(  c #A7A8A6",
")  c #ACACAA",
"_  c #B1A7A5",
"`  c #B5AFA5",
"'  c #B2AFAC",
"]  c #B6B2AB",
"[  c #B9B2A8",
"{  c #BBB7B2",
"}  c #BEB9B2",
"|  c #CCAD88",
" . c #CCB789",
".. c #FEA39B",
"X. c #FEA89C",
"o. c #E9BA97",
"O. c #F4B49E",
"+. c #FCB69E",
"@. c #FFBB9E",
"#. c #C0BAB1",
"$. c #C1BEBA",
"%. c #FDABA2",
"&. c #F8B3A1",
"*. c #FEBEBC",
"=. c #EDCD98",
"-. c #FFC59D",
";. c #FECC9A",
":. c #F0D49B",
">. c #FFD69C",
",. c #FFDA9C",
"<. c #C5C2BD",
"1. c #C8C4BC",
"2. c #C6C4C1",
"3. c #C9C7C3",
"4. c #CDCAC5",
"5. c #CDCCCA",
"6. c #D1CEC8",
"7. c #CFD0CF",
"8. c #D4D2CD",
"9. c #D5D4D3",
"0. c #DCDCDB",
"q. c #E0C6C3",
"w. c #F3CBC4",
"e. c #FED1CF",
"r. c #E0DFDE",
"t. c #E1E0DE",
"y. c #E5E5E4",
"u. c #E8E7E7",
"i. c #E8E8E7",
"p. c #E9E9E9",
"a. c #F7E4E3",
"s. c #FCE5E4",
"d. c #FFE8E5",
"f. c None",
"g. c black",
"h. c black",
"j. c black",
"k. c black",
"l. c black",
"z. c black",
"x. c black",
"c. c black",
"v. c black",
"b. c black",
"n. c black",
"m. c black",
"M. c black",
"N. c black",
"B. c black",
"V. c black",
"C. c black",
"Z. c black",
"A. c black",
"S. c black",
"D. c black",
"F. c black",
"G. c black",
"H. c black",
"J. c black",
"K. c black",
"L. c black",
"P. c black",
"I. c black",
"U. c black",
"Y. c black",
"T. c black",
"R. c black",
"E. c black",
"W. c black",
"Q. c black",
"!. c black",
"~. c black",
"^. c black",
"/. c black",
"(. c black",
"). c black",
"_. c black",
"`. c black",
"'. c black",
"]. c black",
"[. c black",
"{. c black",
"}. c black",
"|. c black",
" X c black",
".X c black",
"XX c black",
"oX c black",
"OX c black",
"+X c black",
"@X c black",
"#X c black",
"$X c black",
"%X c black",
"&X c black",
"*X c black",
"=X c black",
"-X c black",
";X c black",
":X c black",
">X c black",
",X c black",
"<X c black",
"1X c black",
"2X c black",
"3X c black",
"4X c black",
"5X c black",
"6X c black",
"7X c black",
"8X c black",
"9X c black",
"0X c black",
"qX c black",
"wX c black",
"eX c black",
"rX c black",
"tX c black",
"yX c black",
"uX c black",
"iX c black",
"pX c black",
"aX c black",
"sX c black",
"dX c black",
"fX c black",
"gX c black",
"hX c black",
"jX c black",
"kX c black",
"lX c black",
"zX c black",
"xX c black",
"cX c black",
"vX c black",
"bX c black",
"nX c black",
"mX c black",
"MX c black",
"NX c black",
"BX c black",
"VX c black",
"CX c black",
"ZX c black",
"AX c black",
"SX c black",
"DX c black",
"FX c black",
"GX c black",
"HX c black",
"JX c black",
"KX c black",
"LX c black",
"PX c black",
"IX c black",
"UX c black",
/* pixels */
"f.f.f.f.f.f.f.f.f.f.f.f.f.f.f.f.f.f.f.f.f.f.f.f.f.f.f.f.f.f.f.f.",
"f.f.f.f.f.f.f.f.f.f.f.i.r.8.6.4.4.6.8.r.u.p.f.f.f.f.f.f.f.f.f.f.",
"f.f.f.f.f.f.f.f.p.y.6.#.Q K n n n n N Q #.6.y.p.f.f.f.f.f.f.f.f.",
"f.f.f.f.f.f.f.i.9.[ N m M K K P K P H N n M ` 8.i.f.f.f.f.f.f.f.",
"f.f.f.f.f.p.5.] K m M H H H H M H H H H H H M K 1.y.f.f.f.f.f.f.",
"f.f.f.f.f.0.q y & i H m m m z m v z m m m H H v n #.y.f.f.f.f.f.",
"f.f.f.f.p.] q 7.L : M z z z v v z m z z z m m M v n <.y.f.f.f.f.",
"f.f.f.p.8.v + F ) * g z z z z v z z z z j g d g v j M 6.p.f.f.f.",
"f.f.f.t.Q x u & i ! & j z v z z c x x h s s s s h j x Q 0.f.f.f.",
"f.f.i.4.x x v v & G L & z z z v z x a s s s d s d h j x <.u.f.f.",
"f.f.t.R g j j x h % Y p : z z z h f a s s a a d a d h h T 0.f.f.",
"f.f.9.v h j j x v h & ( 0 < z z d a s s a s a s a a s h x 8.f.f.",
"f.f.4.h f h j j v v t * ) < 4 6 7 d s s d s s a a a a s f } u.f.",
"f.f.} s s h g j v j v < 0 / + 0 @ 6 s s d a s s a a 7 a s ^ y.f.",
"f.f.] t s f h x v z z v % 8 L a.E $ s s a a a a a a 6 7 s T t.f.",
"f.f.` t t f f g j v z z * { a.d.q.% 3 s a a a 6 2 2 6 6 7 I t.f.",
"f.f.] 6 6 s s f h j z z & _ d.e.*.W @ 2 2 2 2 2 2 2 2 a 2 T r.f.",
"f.f.{ 7 6 t s s s s g j w @ m w.%.%.V o 1 2 2 1 1 2 1 a 6 Q y.f.",
"f.f.2.6 3 t t 6 6 6 6 e a 6 O g &...%.k O 2 1 1 2 2 2 2 6 { y.f.",
"f.f.9.f 2 6 e 6 6 3 1 1 2 3 2   k +...O.a O 1 1 2 2 2 1 t 6.f.f.",
"f.f.t.I 1 2 6 6 3 3 2 1 1 1 1 ; o Z @...O.2 o 1 2 2 2 1 P 0.f.f.",
"f.f.i.3.6 1 2 6 3 3 2 1 1 1 1 1 ; X D @.X.o.c O , 2 1 5 $.p.f.f.",
"f.f.f.r.P < 2 2 2 2 1 2 1 1 1 1 1 ; O | -.;.>.N # 2 , K 0.f.f.f.",
"f.f.f.p.5.f ; 1 1 1 1 1 1 1 1 1 1 2 = $ =.>.,.S # ; u 4.p.f.f.f.",
"f.f.f.f.i.} e ; 1 1 1 1 1 , 1 1 1 1 1   A :. .$ $ 5 { u.f.f.f.f.",
"f.f.f.f.f.u.{ e ; 1 1 1 1 1 1 1 1 1 1 ;   $ O # e ] u.f.f.f.f.f.",
"f.f.f.f.f.f.u.<.l : ; 1 1 1 1 1 1 1 2 1 1 = : u $.y.f.f.f.f.f.f.",
"f.f.f.f.f.p.u.y.2.U w : = ; ; 1 ; ; ; = - 4 I 2.y.u.p.f.f.f.f.f.",
"f.f.f.f.f.u.t.y.p.t.3.{ J u < & = ; p P ) $.0.y.0.9.u.f.f.f.f.f.",
"f.f.f.f.f.p.u.p.u.u.y.y.0.9.5.2.2.3.9.y.y.y.y.u.y.u.p.f.f.f.f.f.",
"f.f.f.f.f.f.f.f.p.y.0.0.0.0.0.0.t.0.9.0.9.0.0.u.p.f.f.f.f.f.f.f.",
"f.f.f.f.f.f.f.f.u.y.0.0.y.0.0.0.0.9.9.9.9.9.9.0.u.f.f.f.f.f.f.f."
};
