/* XPM */
static char *preferences_dis[] = {
/* columns rows colors chars-per-pixel */
"28 28 118 2",
"   c #474646",
".  c #4D4D4B",
"X  c #565554",
"o  c #585754",
"O  c #5A5958",
"+  c #5B5B5B",
"@  c #5E5E5D",
"#  c #615F5B",
"$  c #60605F",
"%  c #626262",
"&  c #646260",
"*  c #666462",
"=  c #676766",
"-  c #686665",
";  c #696866",
":  c #6D6A65",
">  c DimGray",
",  c gray43",
"<  c #716C64",
"1  c #706C6A",
"2  c #70706F",
"3  c gray44",
"4  c #767373",
"5  c gray46",
"6  c #7D7776",
"7  c #7B7B7B",
"8  c #7C7978",
"9  c #7E7E7D",
"0  c #8F857C",
"q  c #808080",
"w  c #828281",
"e  c #868685",
"r  c #8F8580",
"t  c #888888",
"y  c gray54",
"u  c #8E8E8E",
"i  c #939292",
"p  c #959595",
"a  c #979797",
"s  c gray60",
"d  c #9D9D9C",
"f  c #9E9E9D",
"g  c #A2938B",
"h  c #A19B8B",
"j  c #A6988F",
"k  c #A29C8C",
"l  c #A39F9E",
"z  c #B8A89D",
"x  c #BBA99F",
"c  c #A0A0A0",
"v  c gray64",
"b  c #A7A7A7",
"n  c #A8A8A7",
"m  c gray66",
"M  c #AFABAB",
"N  c gray69",
"B  c #B4B4B4",
"V  c #B6B6B6",
"C  c #B7B7B7",
"Z  c #B9B9B9",
"A  c gray",
"S  c #BFBFBE",
"D  c #C6BBA9",
"F  c #C8BBAA",
"G  c #CFBEAF",
"H  c #D1BAB1",
"J  c #D5CBB5",
"K  c #D7CDB6",
"L  c #E1D0BD",
"P  c #C1C1C1",
"I  c #C5C5C5",
"U  c #CBC4C2",
"Y  c #CBCBCB",
"T  c #CECECE",
"R  c #D0D0D0",
"E  c gray83",
"W  c #D6D6D5",
"Q  c #DBD4D3",
"!  c #DCD5D4",
"~  c #DADADA",
"^  c gainsboro",
"/  c #DFDFDF",
"(  c #E4CAC3",
")  c #E7DAC2",
"_  c #EEE2C8",
"`  c #F1E0CA",
"'  c #FFEBD3",
"]  c #FFE0DF",
"[  c #FFEEDB",
"{  c #FFF1D6",
"}  c gray88",
"|  c #E2E2E2",
" . c gray89",
".. c #E6E6E6",
"X. c #E7E7E7",
"o. c gray91",
"O. c #E9E9E9",
"+. c #F7E5E2",
"@. c #FFE2E0",
"#. c #FFE7E0",
"$. c #FFE7E1",
"%. c #FFE4E4",
"&. c #FFEDE0",
"*. c #FFEEE4",
"=. c #FFEDE9",
"-. c #FFEFEC",
";. c #FFF0E3",
":. c #FFF6E0",
">. c #FFF5E4",
",. c #FFFAE2",
"<. c #FFFEE0",
"1. c #FFFFE4",
"2. c #FFF5F3",
"3. c #FFF9F7",
"4. c #FFFCFA",
"5. c gray100",
"6. c black",
"7. c None",
/* pixels */
"7.7.7.7.7.7.7.7.7.7.7.7.7.7.7.7.7.7.7.7.X.R B ~ 7.7.7.7.",
"7.7.7.7.7.7.7.7.7.7.7.7.7.7.7.7.7.7.7.V > > + p 7.7.7.7.",
"7.7.7.7.7.7.7.7.7.7.7.7.7.7.7.7.7.7.7.5 s / n t 7.7.7.7.",
"7.7.7.7.7.7.7.7.7.7.7.7.7.7.7.7.7.7.X.= V  .f 8 7.7.7.7.",
"7.7.7.7.7.7.7.7.7.7.7.7.7.7.7.7.7.7.a 9 R , X y 7.7.7.7.",
"7.7.7.7.7.7.7.7.7.7.7.7.7.7.7.7.7.N , W 5 u / X.7.7.7.7.",
"7.7.7.7.7.7.7.7.7.7.7.7.7.7.7.7.S % Y u 8 o.7.7.7.7.7.7.",
"7.7.7.7.7.7.7.7.7.7.7.7.7.7.7.R O Z m > } 7.7.7.7.7.7.7.",
"7.7.7.7.7.7.7.7.7.7.7.7.7.7./ > c S @ T 7.7.7.7.7.7.7.7.",
"7.7.7.7.7.7.7.7.7.7.7.7.7.X.q e T = S 7.7.7.7.7.7.7.7.7.",
"7.7.7.7.7.7.7.7.7.7.7.7.7.c 3 W 2 b 7.7.7.7.7.7.7.7.7.7.",
"7.7.7.7.7.7.7.7.7. .i , > % R e u O.7.7.7.7.7.7.7.7.7.7.",
"7.7.7.7.7.7.7.7.o.i 8 Q 2 f f 5  .7.7.7.7.7.7.7.7.7.7.7.",
"7.7.7.7.7.7.7.7.R = 2.5.! 4   B 7.7.7.7.7.7.7.7.7.7.7.7.",
"7.7.7.7.7.7.7.7.l 8 5.5.5.5.M a 7.7.7.7.7.7.7.7.7.7.7.7.",
"7.7.7.7.7.7.7.Z 1 +.3.5.5.5.l s 7.7.7.7.7.7.7.7.7.7.7.7.",
"7.7.7.7.7.7.P & ( -.#.4.3.U O Y 7.7.7.7.7.7.7.7.7.7.7.7.",
"7.7.7.7.7.R * H ;.] =.2.0 $ V 7.7.7.7.7.7.7.7.7.7.7.7.7.",
"7.7.7.7. .3 x *.] ] *.0 q X.7.7.7.7.7.7.7.7.7.7.7.7.7.7.",
"7.7.7. .6 j ;.@.#.;.g > / 7.7.7.7.7.7.7.7.7.7.7.7.7.7.7.",
"7.7...0 0 *.] [ >.z 2 ^ 7.7.7.7.7.7.7.7.7.7.7.7.7.7.7.7.",
"7.V = 6 [ #.#.>.J $ W 7.7.7.7.7.7.7.7.7.7.7.7.7.7.7.7.7.",
"Z : D ' *.#.>.L $ I 7.7.7.7.7.7.7.7.7.7.7.7.7.7.7.7.7.7.",
"= D 1.1.[ ,._ : Z 7.7.7.7.7.7.7.7.7.7.7.7.7.7.7.7.7.7.7.",
"> ) 1.{ { { 1 m 7.7.7.7.7.7.7.7.7.7.7.7.7.7.7.7.7.7.7.7.",
"q k 1.1.1.K o  .7.7.7.7.7.7.7.7.7.7.7.7.7.7.7.7.7.7.7.7.",
"R > k _ K : v 7.7.7.7.7.7.7.7.7.7.7.7.7.7.7.7.7.7.7.7.7.",
"7.E 8 X . f O.7.7.7.7.7.7.7.7.7.7.7.7.7.7.7.7.7.7.7.7.7."
};
