/* XPM */
static char *preferences_dis[] = {
/* columns rows colors chars-per-pixel */
"28 28 135 2",
"   c #424140",
".  c #4B4A47",
"X  c #55534E",
"o  c #505050",
"O  c #545351",
"+  c #5D5852",
"@  c #585858",
"#  c #5A5A5A",
"$  c #5C5C5B",
"%  c #5F5E5D",
"&  c #605854",
"*  c #615E5A",
"=  c #625E5D",
"-  c #686052",
";  c #676158",
":  c #69625E",
">  c #766A5B",
",  c #606060",
"<  c #646463",
"1  c #656564",
"2  c #676767",
"3  c #686463",
"4  c #686867",
"5  c #686868",
"6  c #6C6C6B",
"7  c #726966",
"8  c #726C6A",
"9  c #72716F",
"0  c #78706C",
"q  c gray45",
"w  c #777775",
"e  c #7A7A79",
"r  c #7B7B7B",
"t  c gray50",
"y  c #827160",
"u  c #827168",
"i  c #93796A",
"p  c #977F6D",
"a  c #93876B",
"s  c #94876C",
"d  c #A78B76",
"f  c #AA8A77",
"g  c #818181",
"h  c #848484",
"j  c #888887",
"k  c gray54",
"l  c #8F8F8D",
"z  c #8F8F8E",
"x  c #948E8C",
"c  c #929292",
"v  c #959595",
"b  c #979797",
"n  c #999997",
"m  c #9F9997",
"M  c gray60",
"N  c gray62",
"B  c #BE9483",
"V  c #B59F80",
"C  c #BC9D82",
"Z  c gray64",
"A  c #A9A9A7",
"S  c gray66",
"D  c #AEAEAC",
"F  c #B8ACA8",
"G  c gray69",
"H  c #B4B4B4",
"J  c #B7B7B7",
"K  c #B9B9B8",
"L  c #BCBCBA",
"P  c #BEBEBC",
"I  c #FC9B99",
"U  c #FC9D9A",
"Y  c #FC9F9B",
"T  c #C2AE87",
"R  c #CDAD8B",
"E  c #C3B188",
"W  c #D0A093",
"Q  c #D2BA90",
"!  c #DBBC93",
"~  c #FCA39A",
"^  c #FCA39B",
"/  c #FDA79A",
"(  c #FDA89C",
")  c #FDB39D",
"_  c #C7BCBA",
"`  c #C8BABA",
"'  c #FCA2A2",
"]  c #FEADA0",
"[  c #F7B7A1",
"{  c #FDB4A2",
"}  c #F6BEA1",
"|  c #FAB9A2",
" . c #FBBCA0",
".. c #FEB2A9",
"X. c #FEB5AF",
"o. c #D8C393",
"O. c #E9C297",
"+. c #ECCA98",
"@. c #F0C09E",
"#. c #FDC299",
"$. c #FFC59E",
"%. c #FED099",
"&. c #FFD499",
"*. c #FFD59E",
"=. c #FFDA99",
"-. c #FFDC9C",
";. c #FEC0A0",
":. c #FEDEA1",
">. c #E0C0BA",
",. c #C2C2C0",
"<. c #C5C5C5",
"1. c #C9C9C8",
"2. c #CBCBCB",
"3. c #D0D0D0",
"4. c gray83",
"5. c #DADADA",
"6. c #DFDFDF",
"7. c #FEC7C4",
"8. c #F1CFC6",
"9. c #FECDC8",
"0. c #E8D5D2",
"q. c #EFD6D1",
"w. c #FDD5D2",
"e. c #F7DAD8",
"r. c gray89",
"t. c #E4E4E4",
"y. c #E7E7E7",
"u. c #E9E9E9",
"i. c #FFE3E1",
"p. c #FFE4E2",
"a. c #F7E8E7",
"s. c #FFEAEA",
"d. c #FFEDEB",
"f. c black",
"g. c None",
/* pixels */
"g.g.g.g.g.g.g.g.g.g.g.g.g.g.g.g.g.g.g.g.y.3.H 5.g.g.g.g.",
"g.g.g.g.g.g.g.g.g.g.g.g.g.g.g.g.g.g.g.H 5 1 X b g.g.g.g.",
"g.g.g.g.g.g.g.g.g.g.g.g.g.g.g.g.g.g.g.w k 2.b j g.g.g.g.",
"g.g.g.g.g.g.g.g.g.g.g.g.g.g.g.g.g.g.y.1 Z 3.l e g.g.g.g.",
"g.g.g.g.g.g.g.g.g.g.g.g.g.g.g.g.g.g.b w P 1 O k g.g.g.g.",
"g.g.g.g.g.g.g.g.g.g.g.g.g.g.g.g.g.G , ,.6 l 6.u.g.g.g.g.",
"g.g.g.g.g.g.g.g.g.g.g.g.g.g.g.g.P % K g e t.g.g.g.g.g.g.",
"g.g.g.g.g.g.g.g.g.g.g.g.g.g.g.3.# S M 5 6.g.g.g.g.g.g.g.",
"g.g.g.g.g.g.g.g.g.g.g.g.g.g.6.4 c D # 2.g.g.g.g.g.g.g.g.",
"g.g.g.g.g.g.g.g.g.g.g.g.g.y.t e L , P g.g.g.g.g.g.g.g.g.",
"g.g.g.g.g.g.g.g.g.g.g.g.g.N 4 ,.< S g.g.g.g.g.g.g.g.g.g.",
"g.g.g.g.g.g.g.g.g.r.c 6 5 $ P e l u.g.g.g.g.g.g.g.g.g.g.",
"g.g.g.g.g.g.g.g.u.c 8 _ 3 x l q y.g.g.g.g.g.g.g.g.g.g.g.",
"g.g.g.g.g.g.g.g.3.= 0.s.` 4   H g.g.g.g.g.g.g.g.g.g.g.g.",
"g.g.g.g.g.g.g.g.N 7 e.i.s.a.m b g.g.g.g.g.g.g.g.g.g.g.g.",
"g.g.g.g.g.g.g.K 3 >.7.w.p.d.x M g.g.g.g.g.g.g.g.g.g.g.g.",
"g.g.g.g.g.g.,.& W X.' 9.q.F O 2.g.g.g.g.g.g.g.g.g.g.g.g.",
"g.g.g.g.g.3.: B ( I ..8.0 , H g.g.g.g.g.g.g.g.g.g.g.g.g.",
"g.g.g.g.6.6 f { Y / [ u h y.g.g.g.g.g.g.g.g.g.g.g.g.g.g.",
"g.g.g.r.w p | Y /  .i 1 6.g.g.g.g.g.g.g.g.g.g.g.g.g.g.g.",
"g.g.u.h y } ^ / ;.d 9 6.g.g.g.g.g.g.g.g.g.g.g.g.g.g.g.g.",
"g.H 1 > @.( / $.C * 4.g.g.g.g.g.g.g.g.g.g.g.g.g.g.g.g.g.",
"L ; f +.) ^ $.R + <.g.g.g.g.g.g.g.g.g.g.g.g.g.g.g.g.g.g.",
"6 f *.%.#.$.! ; K g.g.g.g.g.g.g.g.g.g.g.g.g.g.g.g.g.g.g.",
"4 Q =.=.&.+.- S g.g.g.g.g.g.g.g.g.g.g.g.g.g.g.g.g.g.g.g.",
"j a :.=.-.E O r.g.g.g.g.g.g.g.g.g.g.g.g.g.g.g.g.g.g.g.g.",
"3.< a o.E - Z g.g.g.g.g.g.g.g.g.g.g.g.g.g.g.g.g.g.g.g.g.",
"g.4.e X . N u.g.g.g.g.g.g.g.g.g.g.g.g.g.g.g.g.g.g.g.g.g."
};
