/* XPM */
static char *preferences_sel[] = {
/* columns rows colors chars-per-pixel */
"32 32 128 2",
"   c #3C3C3C",
".  c #4C4C4C",
"X  c gray31",
"o  c #505050",
"O  c #515151",
"+  c #535353",
"@  c gray33",
"#  c #555555",
"$  c #565656",
"%  c gray34",
"&  c #585858",
"*  c gray35",
"=  c #5A5A5A",
"-  c #5B5B5B",
";  c gray36",
":  c #5D5D5D",
">  c gray37",
",  c #5F5F5F",
"<  c #606060",
"1  c gray38",
"2  c #626262",
"3  c gray39",
"4  c #646464",
"5  c #656565",
"6  c gray40",
"7  c #676767",
"8  c DimGray",
"9  c #6A6A6A",
"0  c gray42",
"q  c #6C6C6C",
"w  c #6D6D6D",
"e  c gray43",
"r  c #6F6F6F",
"t  c gray44",
"y  c #717171",
"u  c #727272",
"i  c gray45",
"p  c #747474",
"a  c gray46",
"s  c #767676",
"d  c #777777",
"f  c gray47",
"g  c #797979",
"h  c gray48",
"j  c #7B7B7B",
"k  c #7C7C7C",
"l  c #7C7D7D",
"z  c gray49",
"x  c #7E7E7E",
"c  c gray50",
"v  c #807F7F",
"b  c #808080",
"n  c #818181",
"m  c gray51",
"M  c #838383",
"N  c #848484",
"B  c gray52",
"V  c #868686",
"C  c gray53",
"Z  c #888888",
"A  c #898989",
"S  c gray54",
"D  c #8B8B8B",
"F  c gray55",
"G  c #8D8D8D",
"H  c #8E8E8E",
"J  c #8F8E8E",
"K  c gray56",
"L  c #909090",
"P  c gray57",
"I  c #929292",
"U  c #939393",
"Y  c gray58",
"T  c #959595",
"R  c gray59",
"E  c #979797",
"W  c #989898",
"Q  c gray60",
"!  c gray64",
"~  c #A7A7A7",
"^  c gray66",
"/  c #AAAAAA",
"(  c gray67",
")  c #ACACAC",
"_  c #AEAEAE",
"`  c #AFAFAF",
"'  c gray69",
"]  c #B1B1B1",
"[  c #B2B2B2",
"{  c gray70",
"}  c #B4B4B4",
"|  c gray71",
" . c #B6B6B6",
".. c #B7B7B7",
"X. c gray72",
"o. c #B9B9B9",
"O. c gray73",
"+. c #BBBBBB",
"@. c #BCBCBC",
"#. c gray74",
"$. c gray",
"%. c gray75",
"&. c #C0C0C0",
"*. c #C1C1C1",
"=. c #D5D5D5",
"-. c #D8D8D8",
";. c gray85",
":. c #DADADA",
">. c gainsboro",
",. c #DDDDDD",
"<. c gray88",
"1. c #E4E4E4",
"2. c #E6E6E6",
"3. c gray91",
"4. c #E9E9E9",
"5. c #EAEAEA",
"6. c None",
"7. c black",
"8. c black",
"9. c black",
"0. c black",
"q. c black",
"w. c black",
"e. c black",
"r. c black",
"t. c black",
"y. c black",
"u. c black",
/* pixels */
"6.6.6.6.6.6.6.6.6.6.6.6.6.6.6.6.6.6.6.6.6.6.6.6.6.6.6.6.6.6.6.6.",
"6.6.6.6.6.6.6.6.6.6.6.6.6.6.6.6.6.6.6.6.6.6.6.6.6.6.6.6.6.6.6.6.",
"6.6.6.6.6.6.6.6.6.6.6.6.6.6.6.6.6.6.6.6.6.6.6.6.6.6.6.6.6.6.6.6.",
"6.6.<.................o.......................o.........o.,.6.6.",
"6.6.&.p k k k k k k k k k k k k f k k k k k k k k k k f y o.6.6.",
"6.6.&.f W W W W W W W W W W W W W W W W W W W W W W W S p o.6.6.",
"6.6.&.f W K B I W R E W W W R W W W W W W W W W K B I K p o.6.6.",
"6.6.%.f W B 7 B W R R R R W R R W R R R W R R W f 9 S K p ..6.6.",
"6.6.%.p W K m K R R R R R R R R R R R R R R R R K m I S y ..6.6.",
"6.6.%.p W R R R I Y I I R I I I I R I R I R I R R R R S y ..6.6.",
"6.6.%.y W U I I I I I R I R R R R I I I I I I I I I I S q { 6.6.",
"6.6.%.y W I I I I I I I I 3 # & # # 3 K K I I I I I I S q ..6.6.",
"6.6.%.q W I K K I K K K L , q j f q , m S K K K K K K S q ..6.6.",
"6.6.o.q R K K K K K K K K 9 k B S m 7 d k K K K K K K S q { 6.6.",
"6.6.o.q R K S K K K S K K 9 3 7 7 3 3 p k S K K K S K S 9 ` 6.6.",
"6.6.o.9 R S S S S S S S S 7 3 3 3 3 7 p k B S S S S S B 7 { 6.6.",
"6.6...7 R S S S S S B S S 7 m K K m 3 y f B S S B S S B 7 ` 6.6.",
"6.6...7 R B B S B B S S B 7 f S S f , y f B S S S B S B 7 ` 6.6.",
"6.6...3 U B B B B S S B B , q k k 9 & y f m B B B B C S 3 ` 6.6.",
"6.6...3 R B B B B B B B B & 3 y y , # y f m B B B B B B , ( 6.6.",
"6.6...3 R m M B M B m B m 9 # & & # & y p m M B B m B C , ( 6.6.",
"6.6.{ , U B B M B M M B B B , # + # y y k m B M B B B B , ~ 6.6.",
"6.6.{ , R m B B m B B m m B B m k f f j m M B B B B B B & ~ 6.6.",
"6.6.{ & R k p m B M B B B M B m m m m m m B M B f f m S & ( 6.6.",
"6.6.{ & R p 9 k B m B B M B B B m B B B B m B B y q k S & ~ 6.6.",
"6.6.{ & R m f m B B m B M m m m M B m m m B m B m k m B & ~ 6.6.",
"6.6.! # R R R R I I I I R I I I R I I R R R I I R I R S & W 2.6.",
"4.,.S   + X X + X X X + X + + + X + X X + X + + X + X X   k =.4.",
"4.;.{ p y y p p p p p p p y p y y y p p y p p y y p p y p ` =.2.",
"4.2.;.;.-.-.=.;.=.;.;.=.;.;.;.;.;.;.;.;.;.;.;.;.;.;.;.;.;.;.2.4.",
"6.5.4.4.4.4.4.4.4.4.4.4.4.4.4.4.4.4.4.4.4.4.4.4.4.4.4.4.4.4.4.6.",
"6.6.6.6.6.6.6.6.6.6.6.6.6.6.6.6.6.6.6.6.6.6.6.6.6.6.6.6.6.6.6.6."
};
