/* XPM */
static char *preferences[] = {
/* columns rows colors chars-per-pixel */
"28 44 171 2",
"   c black",
".  c #070707",
"X  c gray4",
"o  c #0C0C0C",
"O  c #131313",
"+  c #161616",
"@  c #1D1D1D",
"#  c #232323",
"$  c gray19",
"%  c gray24",
"&  c #423F3E",
"*  c #685430",
"=  c #645836",
"-  c #765832",
";  c gray26",
":  c #444444",
">  c #4B4941",
",  c #4C4C4C",
"<  c #555144",
"1  c #5D5142",
"2  c #50504F",
"3  c #54524C",
"4  c #56514E",
"5  c #515151",
"6  c #545452",
"7  c gray34",
"8  c gray35",
"9  c #5C5C5A",
"0  c #5E5E5D",
"q  c #604D43",
"w  c #675841",
"e  c #69574E",
"r  c #635951",
"t  c #625955",
"y  c #685D5B",
"u  c #725A53",
"i  c #666359",
"p  c #67655B",
"a  c #60605F",
"s  c #72635E",
"d  c #786259",
"f  c #636361",
"g  c #656562",
"h  c #646464",
"j  c #676767",
"k  c #6B6160",
"l  c #686767",
"z  c #686865",
"x  c #686867",
"c  c #6C6B6A",
"v  c #6C6C69",
"b  c #6F6F6F",
"n  c #716C67",
"m  c #726E69",
"M  c gray45",
"N  c #777672",
"B  c #767676",
"V  c #797976",
"C  c gray48",
"Z  c #FC0904",
"A  c #FC1D06",
"S  c #FC1408",
"D  c #FC1D0A",
"F  c #FC1B1A",
"G  c #FD2405",
"H  c #FD2506",
"J  c #FD290C",
"K  c #82562C",
"L  c #93532C",
"P  c #975B2E",
"I  c #AA592C",
"U  c #BE562C",
"Y  c #93762E",
"T  c #94752F",
"R  c #BC6F2B",
"E  c #B57C30",
"W  c #FD450D",
"Q  c #FD4618",
"!  c #FB5C18",
"~  c #FA581D",
"^  c #FD6B04",
"/  c #FF6A0F",
"(  c #FF7509",
")  c #FE6413",
"_  c #D05A38",
"`  c #FE402B",
"'  c #F75821",
"]  c #FE483A",
"[  c #CD7E2A",
"{  c #F66A21",
"}  c #F07A24",
"|  c #FE746E",
" . c #B4802F",
".. c #FE8B01",
"X. c #FF9500",
"o. c #FF9A02",
"O. c #FF960C",
"+. c #E9871C",
"@. c #EC981B",
"#. c #FFA301",
"$. c #FFA709",
"%. c #FEAE17",
"&. c #DB8D27",
"*. c #C2912F",
"=. c #C3962F",
"-. c #D2972D",
";. c #D8A32C",
":. c #82827F",
">. c #94847F",
",. c #828281",
"<. c gray52",
"1. c #868686",
"2. c #8B8B87",
"3. c gray54",
"4. c #8E8F8A",
"5. c #8D8D8D",
"6. c #92928E",
"7. c #9F908C",
"8. c #929292",
"9. c #979796",
"0. c #999995",
"q. c gray60",
"w. c gray62",
"e. c #B8998F",
"r. c #A0A0A0",
"t. c #A6A6A3",
"y. c #A7A7A7",
"u. c #A9A9A4",
"i. c #A7A8A8",
"p. c #A9A9A9",
"a. c #AEAEA9",
"s. c gray69",
"d. c #B4B4B4",
"f. c #B9B9B5",
"g. c #B9B9B9",
"h. c #BEBEBA",
"j. c gray",
"k. c #E09081",
"l. c #F19D85",
"z. c #FD9892",
"x. c #C8A6A5",
"c. c #C7ABA7",
"v. c #F7AFA8",
"b. c #EFB1A5",
"n. c #E8B7B1",
"m. c #FFB9B5",
"M. c #FFBDB7",
"N. c #C2C2BD",
"B. c #C1C1C1",
"V. c #C5C5C5",
"C. c #C9C9C6",
"Z. c gray79",
"A. c #CBCBCB",
"S. c #CECECC",
"D. c #CECECE",
"F. c #D2D2D2",
"G. c gray83",
"H. c #D7D7D7",
"J. c #DADADA",
"K. c gainsboro",
"L. c #DDDDDD",
"P. c gray87",
"I. c #FEC8C5",
"U. c #FFCCCB",
"Y. c #F7D1CF",
"T. c #FFD2CD",
"R. c gray88",
"E. c #E4E4E4",
"W. c #E9E9E9",
"Q. c black",
"!. c None",
/* pixels */
"!.!.!.!.!.!.!.!.!.!.!.!.!.!.!.!.!.!.!.!.E.F.d.J.!.!.!.!.",
"!.!.!.!.!.!.!.!.!.!.!.!.!.!.!.!.!.!.!.d.l f 6 9.!.!.!.!.",
"!.!.!.!.!.!.!.!.!.!.!.!.!.!.!.!.!.!.!.B 2.C.0.3.!.!.!.!.",
"!.!.!.!.!.!.!.!.!.!.!.!.!.!.!.!.!.!.E.z t.S.4.C !.!.!.!.",
"!.!.!.!.!.!.!.!.!.!.!.!.!.!.!.!.!.!.9.M h.j 2 3.!.!.!.!.",
"!.!.!.!.!.!.!.!.!.!.!.!.!.!.!.!.!.s.g N.v 5.R.E.!.!.!.!.",
"!.!.!.!.!.!.!.!.!.!.!.!.!.!.!.!.j.0 f.,.C E.!.!.!.!.!.!.",
"!.!.!.!.!.!.!.!.!.!.!.!.!.!.!.F.8 u.0.z L.!.!.!.!.!.!.!.",
"!.!.!.!.!.!.!.!.!.!.!.!.!.!.R.j 6.a.8 S.!.!.!.!.!.!.!.!.",
"!.!.!.!.!.!.!.!.!.!.!.!.!.E.,.V h.f j.!.!.!.!.!.!.!.!.!.",
"!.!.!.!.!.!.!.!.!.!.!.!.!.r.z N.j y.!.!.!.!.!.!.!.!.!.!.",
"!.!.!.!.!.!.!.!.!.E.8.c l 9 h.V 4.E.!.!.!.!.!.!.!.!.!.!.",
"!.!.!.!.!.!.!.!.W.8.s c.y 4.4.M R.!.!.!.!.!.!.!.!.!.!.!.",
"!.!.!.!.!.!.!.!.F.t n.U.x.k & d.!.!.!.!.!.!.!.!.!.!.!.!.",
"!.!.!.!.!.!.!.!.w.u v.m.I.Y.7.9.!.!.!.!.!.!.!.!.!.!.!.!.",
"!.!.!.!.!.!.!.g.e k.| z.M.T.>.q.!.!.!.!.!.!.!.!.!.!.!.!.",
"!.!.!.!.!.!.B.q _ ] F z.b.e.4 S.!.!.!.!.!.!.!.!.!.!.!.!.",
"!.!.!.!.!.F.r U J Z ` l.d 0 d.!.!.!.!.!.!.!.!.!.!.!.!.!.",
"!.!.!.!.L.m I Q Z H ' K 1.E.!.!.!.!.!.!.!.!.!.!.!.!.!.!.",
"!.!.!.R.N P ~ S H ! L l L.!.!.!.!.!.!.!.!.!.!.!.!.!.!.!.",
"!.!.W.,.K { D H ) I m L.!.!.!.!.!.!.!.!.!.!.!.!.!.!.!.!.",
"!.d.g - } J A / R r G.!.!.!.!.!.!.!.!.!.!.!.!.!.!.!.!.!.",
"g.w E +.W D ( [ 1 V.!.!.!.!.!.!.!.!.!.!.!.!.!.!.!.!.!.!.",
"g  .O...^ ( &.w g.!.!.!.!.!.!.!.!.!.!.!.!.!.!.!.!.!.!.!.",
"i -.o.X.X.@.* i.!.!.!.!.!.!.!.!.!.!.!.!.!.!.!.!.!.!.!.!.",
",.T %.#.$.*.4 R.!.!.!.!.!.!.!.!.!.!.!.!.!.!.!.!.!.!.!.!.",
"F.p Y ;.=.= y.!.!.!.!.!.!.!.!.!.!.!.!.!.!.!.!.!.!.!.!.!.",
"!.G.V < > w.W.!.!.!.!.!.!.!.!.!.!.!.!.!.!.!.!.!.!.!.!.!.",
"!.!.!.!.!.!.!.!.!.!.!.!.!.!.!.!.!.!.!.!.!.!.!.!.!.!.!.!.",
"!.!.!.!.!.!.!.!.!.!.!.!.!.!.!.!.!.!.!.!.!.!.!.!.!.!.!.!.",
"!.!.!.!.!.!.!.!.!.!.!.!.!.!.!.!.!.!.!.!.!.!.!.!.!.!.!.!.",
"!.!.!.!.!.!.!.!.!.!.!.!.!.!.!.!.!.!.!.!.1.X + !.!.!.!.!.",
"!.      @ 9.!.!.!.!.!.!.!.!.!.!.!.!.!.!.O A.F.!.!.!.!.!.",
"!.  W.L.5.O !.!.!.!.!.!.!.!.!.!.!.!.!.!.  W.!.!.!.!.!.!.",
"!.  !.!.L.. !.!.  1.X !.!.H.; . # j.!.      !.!.b . + !.",
"!.  E.S.7 , !.!.  M L.!.!.5 p.R.p.$ !.!.  !.!.!.. S.S.!.",
"!.    + 0 L.!.!.  E.!.!.!.X         !.!.  !.!.!.B : p.W.",
"!.  !.!.!.!.!.!.  !.!.!.!.O L.!.!.!.!.!.  !.!.!.!.D.h 5 ",
"!.  !.!.!.!.!.!.  !.!.!.!.8 5 G.R.g.!.!.  !.!.!.i.P.g.X ",
"!.  !.!.!.!.!.!.  !.!.!.!.L.8 o X % !.!.  !.!.!.% . + 5.",
"!.!.!.!.!.!.!.!.!.!.!.!.!.!.!.!.!.!.!.!.!.!.!.!.!.!.!.!.",
"!.!.!.!.!.!.!.!.!.!.!.!.!.!.!.!.!.!.!.!.!.!.!.!.!.!.!.!.",
"!.!.!.!.!.!.!.!.!.!.!.!.!.!.!.!.!.!.!.!.!.!.!.!.!.!.!.!.",
"!.!.!.!.!.!.!.!.!.!.!.!.!.!.!.!.!.!.!.!.!.!.!.!.!.!.!.!."
};
