/* XPM */
static char *preferences_sel[] = {
/* columns rows colors chars-per-pixel */
"28 28 153 2",
"   c #1C1B15",
".  c #2C1F17",
"X  c #201F1A",
"o  c #242117",
"O  c #2A2217",
"+  c #22201F",
"@  c #2C241E",
"#  c #352C16",
"$  c #382C14",
"%  c #332818",
"&  c #322919",
"*  c #212120",
"=  c #262321",
"-  c #252524",
";  c #272624",
":  c #2D2B23",
">  c #2C2B27",
",  c #2E2C24",
"<  c #2B2B28",
"1  c #2D2D2B",
"2  c #2F2D2B",
"3  c gray18",
"4  c #352823",
"5  c #36322D",
"6  c #323130",
"7  c #343433",
"8  c #393937",
"9  c #3E3836",
"0  c #3B3B39",
"q  c #3D3D3B",
"w  c #3E3E3C",
"e  c #3F3F3F",
"r  c #422F16",
"t  c #4C3217",
"y  c #573018",
"u  c #593519",
"i  c #66351A",
"p  c #64391A",
"a  c #72331A",
"s  c #4C3224",
"d  c #41322E",
"f  c #443630",
"g  c #413835",
"h  c #403A39",
"j  c #7C3621",
"k  c #58451B",
"l  c #6D4A1D",
"z  c #6C4D1C",
"x  c #71421A",
"c  c #7B4B19",
"v  c #755A1C",
"b  c #7E5A1B",
"n  c #424240",
"m  c #444444",
"M  c #484846",
"N  c #494949",
"B  c #4D4D4B",
"V  c gray30",
"C  c #584E4B",
"Z  c #535351",
"A  c #535353",
"S  c #555653",
"D  c #565656",
"F  c #5F5654",
"G  c #5B5B59",
"H  c #5B5A5A",
"J  c #5B5B5B",
"K  c gray37",
"L  c #6E5B55",
"P  c #616160",
"I  c #656562",
"U  c #686865",
"Y  c #6A6B6A",
"T  c #6D6D6D",
"R  c #776664",
"E  c #786363",
"W  c #72726F",
"Q  c #717171",
"!  c #747471",
"~  c #777777",
"^  c #787877",
"/  c #787879",
"(  c #7B7B7A",
")  c #970502",
"_  c #970804",
"`  c #970C05",
"'  c #971103",
"]  c #981603",
"[  c #971807",
"{  c #97100F",
"}  c #981F0C",
"|  c #972908",
" . c #982A0E",
".. c #96370E",
"X. c #983C0B",
"o. c #982619",
"O. c #963511",
"+. c #982B22",
"@. c #994207",
"#. c #994605",
"$. c #985300",
"%. c #995A00",
"&. c #995C01",
"*. c #904915",
"=. c #835417",
"-. c #8C5111",
";. c #8D5B10",
":. c #996200",
">. c #996405",
",. c #98680D",
"<. c #82621A",
"1. c #984542",
"2. c #984F48",
"3. c #86564D",
"4. c #905E50",
"5. c #985B58",
"6. c #8F6A63",
"7. c #8B6E6A",
"8. c #946964",
"9. c #996F6D",
"0. c #99716D",
"q. c #987876",
"w. c #947D7C",
"e. c #997A79",
"r. c #997E7B",
"t. c gray52",
"y. c #8B8B8B",
"u. c #8F8F8E",
"i. c gray57",
"p. c #939393",
"a. c #9B9B9B",
"s. c #9F9F9F",
"d. c #A5A5A5",
"f. c gray69",
"g. c #B6B6B6",
"h. c #B9B9B9",
"j. c gray",
"k. c gray75",
"l. c #C1C1C1",
"z. c #CBCBCB",
"x. c #D0D0D0",
"c. c LightGray",
"v. c gray83",
"b. c #D7D7D7",
"n. c gray86",
"m. c gray87",
"M. c #DFDFDF",
"N. c #E1E1E1",
"B. c #E4E4E4",
"V. c gray91",
"C. c #E9E9E9",
"Z. c black",
"A. c None",
/* pixels */
"A.A.A.A.A.A.A.A.A.A.A.A.A.A.A.A.A.A.A.A.N.h.u.z.A.A.A.A.",
"A.A.A.A.A.A.A.A.A.A.A.A.A.A.A.A.A.A.A.u.3 6 1 K A.A.A.A.",
"A.A.A.A.A.A.A.A.A.A.A.A.A.A.A.A.A.A.A.0 Z ^ G V A.A.A.A.",
"A.A.A.A.A.A.A.A.A.A.A.A.A.A.A.A.A.A.m.3 I ( D e A.A.A.A.",
"A.A.A.A.A.A.A.A.A.A.A.A.A.A.A.A.A.A.K n W w * A A.A.A.A.",
"A.A.A.A.A.A.A.A.A.A.A.A.A.A.A.A.A.t.7 ! w D x.B.A.A.A.A.",
"A.A.A.A.A.A.A.A.A.A.A.A.A.A.A.A.a.< T V w m.A.A.A.A.A.A.",
"A.A.A.A.A.A.A.A.A.A.A.A.A.A.A.h.; I J 3 x.A.A.A.A.A.A.A.",
"A.A.A.A.A.A.A.A.A.A.A.A.A.A.v.3 D U ; g.A.A.A.A.A.A.A.A.",
"A.A.A.A.A.A.A.A.A.A.A.A.A.B.m M W 3 a.A.A.A.A.A.A.A.A.A.",
"A.A.A.A.A.A.A.A.A.A.A.A.A.T 8 ! 8 ~ A.A.A.A.A.A.A.A.A.A.",
"A.A.A.A.A.A.A.A.A.m.J 6 3 3 W m A C.A.A.A.A.A.A.A.A.A.A.",
"A.A.A.A.A.A.A.A.C.J g R 9 S S 8 m.A.A.A.A.A.A.A.A.A.A.A.",
"A.A.A.A.A.A.A.A.j.> 7.e.E h + y.A.A.A.A.A.A.A.A.A.A.A.A.",
"A.A.A.A.A.A.A.A.Y d 8.9.q.w.F P A.A.A.A.A.A.A.A.A.A.A.A.",
"A.A.A.A.A.A.A.p.4 3.1.5.0.r.C I A.A.A.A.A.A.A.A.A.A.A.A.",
"A.A.A.A.A.A.s.. j +.{ 2.6.L = f.A.A.A.A.A.A.A.A.A.A.A.A.",
"A.A.A.A.A.l.@ a } ) o.4.d ; u.A.A.A.A.A.A.A.A.A.A.A.A.A.",
"A.A.A.A.v.5 i  ._ ] O.s B N.A.A.A.A.A.A.A.A.A.A.A.A.A.A.",
"A.A.A.v.9 u O.` ] ..y 3 v.A.A.A.A.A.A.A.A.A.A.A.A.A.A.A.",
"A.A.B.M t *.` ] X.p 6 x.A.A.A.A.A.A.A.A.A.A.A.A.A.A.A.A.",
"A.u.> r *.[ ] X.x @ l.A.A.A.A.A.A.A.A.A.A.A.A.A.A.A.A.A.",
"p.% l -.| ' @.c O d.A.A.A.A.A.A.A.A.A.A.A.A.A.A.A.A.A.A.",
"< z &.$.X.#.=.% p.A.A.A.A.A.A.A.A.A.A.A.A.A.A.A.A.A.A.A.",
": b &.%.%.;.$ / A.A.A.A.A.A.A.A.A.A.A.A.A.A.A.A.A.A.A.A.",
"M k ,.:.>.v   m.A.A.A.A.A.A.A.A.A.A.A.A.A.A.A.A.A.A.A.A.",
"j., k <.v # Q A.A.A.A.A.A.A.A.A.A.A.A.A.A.A.A.A.A.A.A.A.",
"A.l.w o   Y B.A.A.A.A.A.A.A.A.A.A.A.A.A.A.A.A.A.A.A.A.A."
};
