/* XPM */
static char *preferences[] = {
/* columns rows colors chars-per-pixel */
"32 32 256 2",
"   c #2C230E",
".  c #36290D",
"X  c #3A2C0F",
"o  c #2E2510",
"O  c #332912",
"+  c #3B2D13",
"@  c #3F2E1E",
"#  c #39311E",
"$  c #2E2C25",
"%  c #332B24",
"&  c #3E3524",
"*  c #3D3824",
"=  c #353128",
"-  c #3B362A",
";  c #48330E",
":  c #513A0A",
">  c #593E08",
",  c #472F1B",
"<  c #433314",
"1  c #573F11",
"2  c #403F3B",
"3  c #603924",
"4  c #5E430B",
"5  c #5E4313",
"6  c #584219",
"7  c #67480D",
"8  c #694B0F",
"9  c #654B13",
"0  c #6E4F10",
"q  c #634D1C",
"w  c #704F11",
"e  c #6E5314",
"r  c #6D571B",
"t  c #6F591D",
"y  c #745413",
"u  c #7A5717",
"i  c #7E5A16",
"p  c #7E5B18",
"a  c #7F671B",
"s  c #7E691E",
"d  c #4F4227",
"f  c #5D4B24",
"g  c #54462A",
"h  c #544A2B",
"j  c #5E4C2C",
"k  c #4C4435",
"l  c #43423C",
"z  c #48453D",
"x  c #5C4D31",
"c  c #604125",
"v  c #644F26",
"b  c #624F2B",
"n  c #6A5527",
"m  c #69552B",
"M  c #715620",
"N  c #7B5C22",
"B  c #635231",
"V  c #695733",
"C  c #7F6321",
"Z  c #766231",
"A  c #7A663D",
"S  c #474744",
"D  c #4C4A44",
"F  c #4A4A49",
"G  c #515144",
"H  c #57544D",
"J  c #535452",
"K  c #5A5A57",
"L  c #5E5E5A",
"P  c #6A5F40",
"I  c #62615F",
"U  c #716752",
"Y  c #7B6055",
"T  c #666360",
"R  c #6A6A6A",
"E  c #706461",
"W  c #7A6B64",
"Q  c #7D706A",
"!  c #777777",
"~  c #FD0404",
"^  c #FD0E06",
"/  c #FF1907",
"(  c #FE1208",
")  c #FF2703",
"_  c #FF2A0F",
"`  c #FF3404",
"'  c #FF3807",
"]  c #FF2F2D",
"[  c #815E1A",
"{  c #816816",
"}  c #85611D",
"|  c #8D741A",
" . c #90771D",
".. c #86592D",
"X. c #846522",
"o. c #896624",
"O. c #836924",
"+. c #8D6925",
"@. c #856A28",
"#. c #8D6C2A",
"$. c #906C27",
"%. c #926E29",
"&. c #907925",
"*. c #94712B",
"=. c #967F2B",
"-. c #8F6F30",
";. c #956830",
":. c #927233",
">. c #987734",
",. c #907B31",
"<. c #95753A",
"1. c #96783D",
"2. c #99793A",
"3. c #B47231",
"4. c #FD5005",
"5. c #FF4514",
"6. c #FF5D1A",
"7. c #FF721F",
"8. c #F55F2C",
"9. c #C87234",
"0. c #FC7823",
"q. c #FC742A",
"w. c #E86E31",
"e. c #836D40",
"r. c #83714B",
"t. c #957D41",
"y. c #9A7D44",
"u. c #967D4A",
"i. c #917A72",
"p. c #FC4743",
"a. c #DE7C51",
"s. c #FC7F62",
"d. c #97802D",
"f. c #9D8A3D",
"g. c #A98834",
"h. c #B38034",
"j. c #BA8436",
"k. c #FF8002",
"l. c #FF9300",
"z. c #FF9F02",
"x. c #FF9709",
"c. c #FF8E12",
"v. c #FF841D",
"b. c #FF891B",
"n. c #FF9015",
"m. c #FFAA02",
"M. c #FFAC1B",
"N. c #FFBA1E",
"B. c #CA8D2A",
"V. c #EF9E2E",
"C. c #D3A835",
"Z. c #EFAE2F",
"A. c #F8BF31",
"S. c #9B8444",
"D. c #978548",
"F. c #9E824B",
"G. c #9F8C4E",
"H. c #9E8951",
"J. c #A1854E",
"K. c #A18550",
"L. c #A48953",
"P. c #A58F5A",
"I. c #A4915E",
"U. c #9C8E6B",
"Y. c #9F9373",
"T. c #A69663",
"R. c #A99162",
"E. c #AA9A66",
"W. c #A7956A",
"Q. c #AD976B",
"!. c #AC9B6D",
"~. c #AB9B74",
"^. c #AB9E7B",
"/. c #B09C76",
"(. c #B19F7A",
"). c #B3A46D",
"_. c #AEA078",
"`. c #B3A47E",
"'. c #FF8873",
"]. c #898985",
"[. c #8D8D89",
"{. c #969692",
"}. c #9C9C9A",
"|. c #B5A482",
" X c #B8AC8D",
".X c #B6AD92",
"XX c #B9AC90",
"oX c #B0A99C",
"OX c #BCB292",
"+X c #A5A5A5",
"@X c #ACACA7",
"#X c gray67",
"$X c gray71",
"%X c #B9B9B4",
"&X c #BBBBBA",
"*X c #CF9F95",
"=X c #FD9690",
"-X c #D5A08E",
";X c #C4BA96",
":X c #C6BC98",
">X c #FBA195",
",X c #C5B3B0",
"<X c #FFB8AC",
"1X c #FFBAB4",
"2X c #CFC7AC",
"3X c #CFCBBE",
"4X c #D1CBB6",
"5X c #D0CAB9",
"6X c #F2C7BC",
"7X c #FFC0BD",
"8X c #C3C3C2",
"9X c #CECECE",
"0X c #D9D4C5",
"qX c #D2D1CA",
"wX c #DAD5C9",
"eX c #DCD9CD",
"rX c #D6D6D4",
"tX c #DAD7D2",
"yX c #DDDAD2",
"uX c #DCDCDB",
"iX c #E7C2C1",
"pX c #EECAC9",
"aX c #FFC9C7",
"sX c #F1D6CF",
"dX c #E2DED8",
"fX c #FFD4D1",
"gX c #E3E1DC",
"hX c #FFE0DC",
"jX c #E5E5E3",
"kX c #E8E6E4",
"lX c #E9E8E7",
"zX c #E9E9E9",
"xX c None",
"cX c black",
"vX c black",
"bX c black",
"nX c black",
"mX c black",
"MX c black",
"NX c black",
"BX c black",
"VX c black",
"CX c black",
"ZX c black",
"AX c black",
"SX c black",
"DX c black",
"FX c black",
"GX c black",
"HX c black",
"JX c black",
"KX c black",
"LX c black",
"PX c black",
"IX c black",
"UX c black",
/* pixels */
"xXxXxXxXxXxXxXxXxXxXxXxXxXxXxXxXxXxXxXxXxXxXxXxXxXxXxXxXxXxXxXxX",
"xXxXxXxXxXxXxXxXxXxXxXxXxXxXxXxXxXxXxXxXxXxXxXxXxXxXxXxXxXxXxXxX",
"xXxXxXxX+XF ! $XlXxXxXxXxXxXxXkXkXxXxXxXxXxXxXxXxXxXxXxXxXxXxXxX",
"xXxXxXxXR {.{.S +XxXkX2X).f.|  . .| f.).2XkXxXxXxXxXxXxXxXxXxXxX",
"xXxXxXxXR $XzX{.{.:Xd.D.E.`. X X X X`.E.f.=.:XlXxXxXxXxXxXxXxXxX",
"xXxXxXxXH K @X8X, D._.|./.~.Q.Q.Q.Q././.|.~.J.f.eXxXxXxXxXxXxXxX",
"xXxXxXxX8X}.l &X}.k Q.I.P.L.L.L.L.L.L.P.R.!.(.P.&.4XxXxXxXxXxXxX",
"xXxXxXxXxX0Xs $ tX].b L.L.L.L.L.L.L.L.L.L.L.R.!.T. .0XxXxXxXxXxX",
"xXxXxXxXgX,.H.r.D uXI V J.J.L.J.J.J.J.J.J.>.>.>.L.H.,.dXxXxXxXxX",
"xXxXxXxX!.D.P.L.B T gXl A K.J.J.J.J.J.>.*.*.*.*.>.H.D.!.xXxXxXxX",
"xXxXxXeX{ L.K.K.J.g [.qX% u.K.F.J.2.*.*.*.%.%.*.%.>.L.{ wXxXxXxX",
"xXxXxXT.y.y.J.K.F.F.# %X@X& H.H.y.%.%.%.%.%.%.%.%.%.1.t.T.xXxXxX",
"xXxXlXa S.y.J.y.J.J.u.- 9X].g A t $.%.%.%.$.%.$.+.%.*.y.{ zXxXxX",
"zXlX4XO.<.y.y.y.J.J.H.-.z jXJ E i.o $.%.*.%.%.*.%.%.+.>.@.5XxXxX",
"jXgX X@.:.y.y.J.L.J.J.J.j L T iXhXi.q %.%.%.%.%.%.$.+.#.@.OXxXxX",
"dXyX!.@.:.1.1.y.J.F.J.J.x ,XpXaX7X*X+ %.%.*.%.$.$.+.o.+.@._.xXxX",
"uXyXW.@.#.<.<.u.J.J.F.J.d sXfX1X=X>XY 6 #.+.o.} } } } $.O.~.xXxX",
"jXgX~.C #.:.:.<.y.F.K.F.v W 6X<Xp.] s.3 4 ..} } [ } } } } _.xXxX",
"lXlX.Xp +.-.-.;.#.:.1.F.1.< % -X'.~ / 8., 9 [ [ [ [ } } p .XxXxX",
"xXxX3Xe X.#.#.-.#.X.X.o.#.#.N * a.' ~ _ w.+ 0 [ } [ } } e 3XxXxX",
"xXxXlXt [ o.o.@.o.[ [ [ i ..} 4 , q.` ~ 5.9.  [ } } } } r zXxXxX",
"xXxXxXU.y X.o.o.X.[ [ [ [ p p [ 1 c 0.` ~ 6.3.  p } } y U.xXxXxX",
"xXxXxXyXq [ [ X.[ [ [ [ i i p p p ; ..v.` ^ 7.;.+ 9 [ 9 yXxXxXxX",
"xXxXxXxXW.w [ [ [ [ [ [ [ [ i i p [ . %.b.) ( b.j.j : Y.xXxXxXxX",
"xXxXxXxXjXZ 0 p i [ [ [ [ i [ [ [ [ u X h.c.4.k.x.V.# jXxXxXxXxX",
"xXxXxXxXxXyXq e [ i i i [ i p i u [ u u o B.z.l.l.M.P xXxXxXxXxX",
"xXxXxXxXxXxXqXn 9 [ i i i i i i [ [ p [ 5 Z N.z.m.Z.H xXxXxXxXxX",
"xXxXxXxXxXxXxXdXr.4 0 i i i i i i i u i y o g.A.C.h #XxXxXxXxXxX",
"xXxXxXxXxXxXzXjXrXoXm > 7 y y u u y y 7 > f - J J #XxXxXxXxXxXxX",
"xXxXxXxXxXxXxXxXzXkXuX9X8XB f : : 6 v U 8XrXzXzXxXxXxXxXxXxXxXxX",
"xXxXxXxXxXxXxXxXzXuX&X+X+X+X+X+X@X#X#X+X+X$XuXzXxXxXxXxXxXxXxXxX",
"xXxXxXxXxXxXxXxXzXuX&X#X#X#X#X#X+X#X#X#X$X8XuXzXxXxXxXxXxXxXxXxX"
};
