/* XPM */
static char *preferences_sel[] = {
/* columns rows colors chars-per-pixel */
"32 32 256 2",
"   c #2D1F0F",
".  c #2E200F",
"X  c #35220F",
"o  c #2F2010",
"O  c #2B261E",
"+  c #332312",
"@  c #3A2611",
"#  c #362913",
"$  c #3D2A14",
"%  c #33271B",
"&  c #362A1F",
"*  c #3A2C1C",
"=  c #2E2925",
"-  c #352D23",
";  c #392E21",
":  c #3C3125",
">  c #373129",
",  c #3A352F",
"<  c #353431",
"1  c #3E3B35",
"2  c #3C3B39",
"3  c #452D15",
"4  c #482F16",
"5  c #5C2F17",
"6  c #443017",
"7  c #493017",
"8  c #44311B",
"9  c #4C341B",
"0  c #4C3A1D",
"q  c #523116",
"w  c #5C3016",
"e  c #593D17",
"r  c #50371D",
"t  c #50381F",
"y  c #662C17",
"u  c #663916",
"i  c #443422",
"p  c #4C3720",
"a  c #4E3923",
"s  c #4E3C29",
"d  c #533527",
"f  c #513C25",
"g  c #523E2A",
"h  c #413832",
"j  c #4B3F32",
"k  c #413E39",
"l  c #604518",
"z  c #624B19",
"x  c #694D19",
"c  c #714316",
"v  c #7A4D15",
"b  c #7A5B16",
"n  c #544225",
"m  c #54412C",
"M  c #42403B",
"N  c #564633",
"B  c #574937",
"V  c #5D4D35",
"C  c #56443D",
"Z  c #5A4C3B",
"A  c #724236",
"S  c #63543A",
"D  c #484643",
"F  c #4B4946",
"G  c #4F4E4C",
"H  c #5A4E40",
"J  c #594E4E",
"K  c #5C5043",
"L  c #555552",
"P  c #5D5D5A",
"I  c #64554D",
"U  c #6A5C49",
"Y  c #6A5C58",
"T  c #6F614C",
"R  c #74664D",
"E  c #60605D",
"W  c #796B53",
"Q  c #7A6E5C",
"!  c #656663",
"~  c #726563",
"^  c #7C756D",
"/  c #7C7D7B",
"(  c #980E04",
")  c #981205",
"_  c #981806",
"`  c #981A11",
"'  c #97230E",
"]  c #972F0B",
"[  c #993507",
"{  c #993309",
"}  c #942D11",
"|  c #913812",
" . c #983935",
".. c #994205",
"X. c #994D02",
"o. c #8E5E0E",
"O. c #995D00",
"+. c #995B08",
"@. c #8C4511",
"#. c #996104",
"$. c #906611",
"%. c #92574C",
"&. c #985652",
"*. c #86605C",
"=. c #837660",
"-. c #867964",
";. c #847A6C",
":. c #897E6D",
">. c #99706E",
",. c #847B70",
"<. c #887F72",
"1. c #947776",
"2. c #997672",
"3. c #957978",
"4. c #8F8471",
"5. c #948A7C",
"6. c #958D83",
"7. c #96918B",
"8. c #9D968A",
"9. c #9B9690",
"0. c #9D9995",
"q. c #A09788",
"w. c #A49B89",
"e. c #A59E96",
"r. c #A89F92",
"t. c #A49F9A",
"y. c #AAA192",
"u. c #A3A09C",
"i. c #ADA69C",
"p. c #AFA89C",
"a. c #B0A99D",
"s. c #A3A2A2",
"d. c #AEADAD",
"f. c #B4ADA0",
"g. c #B1AEAB",
"h. c #B8B1A5",
"j. c #BAB5AB",
"k. c #B3B2B2",
"l. c #BCBCBC",
"z. c #C7C2B9",
"x. c #CAC6BF",
"c. c #C5C4C4",
"v. c #C9C6C2",
"b. c #CCC8C2",
"n. c #CCCBCB",
"m. c #D0CDC7",
"M. c #D1CFCA",
"N. c #D3D0CD",
"B. c #D3D2D2",
"V. c #D8D6D3",
"C. c #D9D8D6",
"Z. c #DEDDDC",
"A. c #E0DFDE",
"S. c #E2E1DF",
"D. c #E4E4E4",
"F. c #E8E7E7",
"G. c #E8E8E7",
"H. c #E9E9E9",
"J. c None",
"K. c black",
"L. c black",
"P. c black",
"I. c black",
"U. c black",
"Y. c black",
"T. c black",
"R. c black",
"E. c black",
"W. c black",
"Q. c black",
"!. c black",
"~. c black",
"^. c black",
"/. c black",
"(. c black",
"). c black",
"_. c black",
"`. c black",
"'. c black",
"]. c black",
"[. c black",
"{. c black",
"}. c black",
"|. c black",
" X c black",
".X c black",
"XX c black",
"oX c black",
"OX c black",
"+X c black",
"@X c black",
"#X c black",
"$X c black",
"%X c black",
"&X c black",
"*X c black",
"=X c black",
"-X c black",
";X c black",
":X c black",
">X c black",
",X c black",
"<X c black",
"1X c black",
"2X c black",
"3X c black",
"4X c black",
"5X c black",
"6X c black",
"7X c black",
"8X c black",
"9X c black",
"0X c black",
"qX c black",
"wX c black",
"eX c black",
"rX c black",
"tX c black",
"yX c black",
"uX c black",
"iX c black",
"pX c black",
"aX c black",
"sX c black",
"dX c black",
"fX c black",
"gX c black",
"hX c black",
"jX c black",
"kX c black",
"lX c black",
"zX c black",
"xX c black",
"cX c black",
"vX c black",
"bX c black",
"nX c black",
"mX c black",
"MX c black",
"NX c black",
"BX c black",
"VX c black",
"CX c black",
"ZX c black",
"AX c black",
"SX c black",
"DX c black",
"FX c black",
"GX c black",
"HX c black",
"JX c black",
"KX c black",
"LX c black",
"PX c black",
"IX c black",
"UX c black",
/* pixels */
"J.J.J.J.J.J.J.J.J.J.J.J.J.J.J.J.J.J.J.J.J.J.J.J.J.J.J.J.J.J.J.J.",
"J.J.J.J.J.J.J.J.J.J.J.A.z.f.y.w.w.y.f.z.S.H.J.J.J.J.J.J.J.J.J.J.",
"J.J.J.J.J.J.J.J.H.V.a.-.S m n n n n n S -.y.N.H.J.J.J.J.J.J.J.J.",
"J.J.J.J.J.J.J.D.h.W n m B Z K K K K Z V m n R f.S.J.J.J.J.J.J.J.",
"J.J.J.J.J.H.k.;.m m Z Z Z Z Z Z Z Z Z Z H Z m m 5.Z.J.J.J.J.J.J.",
"J.J.J.J.J.n.< k - j Z B N N g m m m N N B Z Z N n -.C.J.J.J.J.J.",
"J.J.J.J.S.4.1 / P ; N N g m m m m m m m N m N B m n 4.S.J.J.J.J.",
"J.J.J.H.p.p O G ! > d g m m m m m m m m f f d f n n n y.G.J.J.J.",
"J.J.J.M.S n s - D P - g m m m m m m f r r r r r s g n S v.J.J.J.",
"J.J.G.8.0 m N m ; L L - m m m m m f d r q r 9 9 9 f n 0 5.F.J.J.",
"J.J.M.S a g m m g - P F ; m m m f 0 r 9 d 9 r 9 r r f a V b.J.J.",
"J.J.j.0 s g g g m s - ! k i m m r r r r 9 r 9 9 9 9 r f 0 p.J.J.",
"J.J.8.0 a s g g m m s , ! , i i 9 r r r 7 r r 9 9 9 0 0 9 4.A.J.",
"J.J.;.9 a f g g m m m i k ! = h % 7 r 9 r r r r r 9 9 9 9 T V.J.",
"J.J.Q 9 0 f f m g m g m & 2 J 3.I @ r r r 9 r r 9 7 7 9 9 Z N.J.",
"J.J.Q 7 0 a f d m m m m ; ~ 1.>.*.& 4 9 r 9 7 7 4 4 7 9 9 V M.J.",
"J.J.~ 3 7 a 0 s f m g g * Y >.&. .A + 4 4 4 4 4 4 4 4 7 7 Z N.J.",
"J.J.4.6 9 a 9 p a a d g i % C %.` ` y o 3 3 3 4 3 4 4 7 6 U C.J.",
"J.J.8.6 6 0 9 9 9 7 7 0 r 9 X d } ( ` 5 + 3 3 3 4 4 4 7 7 ;.S.J.",
"J.J.j.8 3 9 9 9 9 7 3 4 4 4 3   5 ] ( } q + 3 3 4 4 4 3 6 p.J.J.",
"J.J.N.Z 6 7 9 8 7 4 4 3 3 3 3 3 + u { ) | 4 + 3 7 7 7 3 N b.J.J.",
"J.J.G.8.$ 7 7 7 6 4 4 3 3 3 3 3 3   c [ _ @.e + 3 3 3 $ 6.D.J.J.",
"J.J.J.n.Z $ 3 7 7 7 3 4 3 3 3 3 3 $ + v ..X.+.l + 3 3 N b.J.J.J.",
"J.J.J.G.i.9 @ 3 3 7 3 3 3 3 3 3 3 3 @ # o.O.#.x + $ 6 u.D.J.J.J.",
"J.J.J.J.D.5.$ $ 3 3 3 3 3 3 3 3 3 3 3   z $.b # @ $ <.D.J.J.J.J.",
"J.J.J.J.J.S.4.$ @ 3 3 3 3 3 3 3 3 3 3 3 o # o + $ ;.Z.J.J.J.J.J.",
"J.J.J.J.J.J.A.7.i $ 3 3 3 3 3 3 3 3 3 3 3 @ @ 8 5.Z.J.J.J.J.J.J.",
"J.J.J.J.J.H.D.Z.u.J $ + 3 3 3 3 3 3 3 $ + $ J 0.C.D.H.J.J.J.J.J.",
"J.J.J.J.J.D.B.A.H.B.t.,.N 8 * + X @ i H ^ 7.c.C.c.n.D.J.J.J.J.J.",
"J.J.J.J.J.H.D.F.H.A.B.B.c.k.t.7.6.7.d.B.B.B.C.D.A.A.H.J.J.J.J.J.",
"J.J.J.J.J.J.J.J.D.n.k.l.l.l.l.l.l.k.d.d.d.d.l.B.D.J.J.J.J.J.J.J.",
"J.J.J.J.J.J.J.J.D.B.l.l.l.l.k.d.k.s.s.s.s.s.s.l.A.J.J.J.J.J.J.J."
};
