/* XPM */
static char *preferences_sel[] = {
/* columns rows colors chars-per-pixel */
"32 32 256 2",
"   c #1B1609",
".  c #1E190B",
"X  c #141310",
"o  c #181714",
"O  c #1E1A16",
"+  c #1C1C1B",
"@  c #231A0A",
"#  c #2A1F0A",
"$  c #231D12",
"%  c #2B1C10",
"&  c #201D18",
"*  c #2D2207",
"=  c #322406",
"-  c #372806",
";  c #392A07",
":  c #33260B",
">  c #36280C",
",  c #3C2C0A",
"<  c #262117",
"1  c #2E2714",
"2  c #2F2817",
"3  c #23211A",
"4  c #3A2516",
"5  c #332811",
"6  c #3B2E14",
"7  c #342B1A",
"8  c #382E1B",
"9  c #3B321D",
"0  c #2B2924",
"q  c #2E2D2C",
"w  c #3A3323",
"e  c #333432",
"r  c #383836",
"t  c #3C3B3A",
"y  c #422F0A",
"u  c #45320C",
"i  c #4C370E",
"p  c #4C390E",
"a  c #443413",
"s  c #4A3714",
"d  c #4E3911",
"f  c #423618",
"g  c #473A1D",
"h  c #523C14",
"j  c #50351B",
"k  c #503F18",
"l  c #5A3F1D",
"z  c #493D25",
"x  c #4A3A33",
"c  c #433C3A",
"v  c #54450E",
"b  c #4E4016",
"n  c #4F4018",
"m  c #554314",
"M  c #574810",
"N  c #594C15",
"B  c #56421B",
"V  c #58431A",
"C  c #6C441D",
"Z  c #6B4D1F",
"A  c #78441F",
"S  c #65521F",
"D  c #795519",
"F  c #4F4126",
"G  c #594623",
"H  c #5B4925",
"J  c #50452E",
"K  c #5E4D2B",
"L  c #5D5026",
"P  c #5D522D",
"I  c #49403C",
"U  c #5B4F30",
"Y  c #5F5231",
"T  c #5F5538",
"R  c #604F2E",
"E  c #704F20",
"W  c #61502F",
"Q  c #604F30",
"!  c #625332",
"~  c #665835",
"^  c #695C32",
"/  c #64573A",
"(  c #665B3B",
")  c #6A5F3F",
"_  c #7F6520",
"`  c #6E6132",
"'  c #6C613D",
"]  c #4B4340",
"[  c #574944",
"{  c #52524F",
"}  c #545451",
"|  c #5C5C5B",
" . c #685C43",
".. c #6A5F49",
"X. c #7C5F59",
"o. c #6B624C",
"O. c #6F6756",
"+. c #7C7152",
"@. c #7C7359",
"#. c #646464",
"$. c #6C6C6B",
"%. c #766B6A",
"&. c #71716F",
"*. c #7B7468",
"=. c #757574",
"-. c #7C7C7A",
";. c #980202",
":. c #980B04",
">. c #991702",
",. c #991E03",
"<. c #991909",
"1. c #991C1B",
"2. c #992203",
"3. c #99290C",
"4. c #983003",
"5. c #993810",
"6. c #93391A",
"7. c #972B28",
"8. c #994D01",
"9. c #995C01",
"0. c #99560C",
"q. c #8B421D",
"w. c #994413",
"e. c #974815",
"r. c #994F11",
"t. c #974619",
"y. c #8F5F1C",
"u. c #995210",
"i. c #996601",
"p. c #8F681C",
"a. c #996710",
"s. c #997012",
"d. c #95731D",
"f. c #854A31",
"g. c #974C3B",
"h. c #995245",
"j. c #985A56",
"k. c #806055",
"l. c #976159",
"z. c #82785A",
"x. c #996E67",
"c. c #99706C",
"v. c #8B7474",
"b. c #8F7979",
"n. c #917771",
"m. c #997371",
"M. c #997977",
"N. c #997F7D",
"B. c #8A805D",
"V. c #8D8360",
"C. c #80807D",
"Z. c #91807C",
"A. c #A0987C",
"S. c #838382",
"D. c #888885",
"F. c gray55",
"G. c #998684",
"H. c #A7A18B",
"J. c #A8A28E",
"K. c #AAA391",
"L. c #ABA799",
"P. c gray63",
"I. c gray66",
"U. c #B9B4A3",
"Y. c #BAB7AE",
"T. c #BEB9AB",
"R. c #B6B6B6",
"E. c gray75",
"W. c #C1BDB0",
"Q. c #C6C1B6",
"!. c #C6C3BC",
"~. c #C5C5C5",
"^. c gray79",
"/. c #D1CCC5",
"(. c #D1CFCA",
"). c #D5D2CC",
"_. c gray84",
"`. c #DDDDDB",
"'. c #E1E1DD",
"]. c #E7E6E5",
"[. c #E8E8E6",
"{. c gray91",
"}. c None",
"|. c black",
" X c black",
".X c black",
"XX c black",
"oX c black",
"OX c black",
"+X c black",
"@X c black",
"#X c black",
"$X c black",
"%X c black",
"&X c black",
"*X c black",
"=X c black",
"-X c black",
";X c black",
":X c black",
">X c black",
",X c black",
"<X c black",
"1X c black",
"2X c black",
"3X c black",
"4X c black",
"5X c black",
"6X c black",
"7X c black",
"8X c black",
"9X c black",
"0X c black",
"qX c black",
"wX c black",
"eX c black",
"rX c black",
"tX c black",
"yX c black",
"uX c black",
"iX c black",
"pX c black",
"aX c black",
"sX c black",
"dX c black",
"fX c black",
"gX c black",
"hX c black",
"jX c black",
"kX c black",
"lX c black",
"zX c black",
"xX c black",
"cX c black",
"vX c black",
"bX c black",
"nX c black",
"mX c black",
"MX c black",
"NX c black",
"BX c black",
"VX c black",
"CX c black",
"ZX c black",
"AX c black",
"SX c black",
"DX c black",
"FX c black",
"GX c black",
"HX c black",
"JX c black",
"KX c black",
"LX c black",
"PX c black",
"IX c black",
"UX c black",
/* pixels */
"}.}.}.}.}.}.}.}.}.}.}.}.}.}.}.}.}.}.}.}.}.}.}.}.}.}.}.}.}.}.}.}.",
"}.}.}.}.}.}.}.}.}.}.}.}.}.}.}.}.}.}.}.}.}.}.}.}.}.}.}.}.}.}.}.}.",
"}.}.}.}.&.o t F.[.}.}.}.}.}.}.'.'.}.}.}.}.}.}.}.}.}.}.}.}.}.}.}.",
"}.}.}.}.e | | 0 =.}.'.A.` N M M M v N ` A.'.}.}.}.}.}.}.}.}.}.}.",
"}.}.}.}.q &.F.| | B.M L ( ..O.O.O.O.o.( L M B.[.}.}.}.}.}.}.}.}.",
"}.}.}.}.+ e #.=.O P o.o... .) )  .)  ...o.o.Y N Q.}.}.}.}.}.}.}.",
"}.}.}.}.I.#.o &.| 0  ./ / Q ! ! W ! ! / /  ...! v H.}.}.}.}.}.}.",
"}.}.}.}.}.U.p + b.{ 8 ! ! ! ! W ! W ! W ! ! /  ./ v U.}.}.}.}.}.",
"}.}.}.}.).m P J q C.t 9 W W W R R R W W R H V Z ! Y m /.}.}.}.}.",
"}.}.}.}.^ P ! ! 9 t D.0 z ! W ! W W R V V V V V V Y L ~ }.}.}.}.",
"}.}.}.W.p ! Q R P 7 } C.& K Q Q W R V V V V V V V G ! v T.}.}.}.",
"}.}.}.W H K R R K K < $.#.$ U K H V V h V V m V V V G H W }.}.}.",
"}.}.].p H H K R W W K 3 -.} 7 z a V V V l m V h V B B H p ].}.}.",
"[.[.J.b H K K K W W W F 0 D.e c I @ V V V V V V V m B G b K.}.}.",
"`.).+.n B H H U W W W W 8 r t v.G.[ , V m V V V V h m B n z.}.}.",
"/.Q.~ m G H H K R W R R 8 %.b.M.m.X.@ V V V V V V h h m B ' }.}.",
"/.Q.~ d B G G K R ! K ! 7 Z.N.c.j.l.x 5 l k h h i h h h h ^ }.}.",
"`.).( d B B G G K K Q Q 6 c n.c.7.1.g.4 > h h h i i d d h ) }.}.",
"{.].@.s h B B B B B G K H # & k.h.;.:.6.% , i d i d h h s @.}.}.",
"}.}.L.u h B B B B h h h B l s % f.2.;.<.q.@ y i h i d h u L.}.}.",
"}.}.]., d h k k h d d d i h h > % t.2.;.3.A   d p h p h , ].}.}.",
"}.}.}.Y u h h h d d d i i i i i > 4 w.2.;.5.C   h p h u P }.}.}.",
"}.}.}.!.; i h i i h i i i i i i i # j r.,.;.w.B @ , p ; !.}.}.}.",
"}.}.}.}./ y i h p d i d i i i i p i @ l 0.>.:.u.Z 7 * / }.}.}.}.",
"}.}.}.}.`., u p d i d i i i i i p i i @ Z 0.4.8.9.y.. `.}.}.}.}.",
"}.}.}.}.}.!.- y i i i i i i i i i i i u   D 9.9.9.a.9 }.}.}.}.}.",
"}.}.}.}.}.}.Y.> y i i d i i i i i i i i > g s.9.i.p.+ }.}.}.}.}.",
"}.}.}.}.}.}.}.(.f - y u i i i i i i i i u . S d.y.1 S.}.}.}.}.}.",
"}.}.}.}.}.}.{._.~.*.: = y u u u i u y y > * X 3 + -.}.}.}.}.}.}.",
"}.}.}.}.}.}.}.}.{.`.~.P.F.5 5 : = : : w D.R.`.{.}.}.}.}.}.}.}.}.",
"}.}.}.}.}.}.}.}.].~.-.#.| #.#.#.#.#.#.#.| =.~.{.}.}.}.}.}.}.}.}.",
"}.}.}.}.}.}.}.}.{.~.S.$.#.#.#.#.#.#.$.#.=.F.^.{.}.}.}.}.}.}.}.}."
};
