/* XPM */
static char *print_dis[] = {
/* columns rows colors chars-per-pixel */
"32 32 256 2",
"   c #333949",
".  c #3C4354",
"X  c #454B5B",
"o  c #484E5D",
"O  c #5C6A43",
"+  c #667648",
"@  c #6D7D4E",
"#  c #6F7E54",
"$  c #6D7858",
"%  c #717F56",
"&  c #737E5C",
"*  c #4C5261",
"=  c #505664",
"-  c #545864",
";  c #555C6D",
":  c #585F6E",
">  c #5D626F",
",  c #5E6473",
"<  c #747E61",
"1  c #6C717D",
"2  c #718254",
"3  c #778856",
"4  c #74835C",
"5  c #7A8B5B",
"6  c #7E915D",
"7  c #7F8D67",
"8  c #7D8573",
"9  c #82935E",
"0  c #869861",
"q  c #889A63",
"w  c #88966F",
"e  c #8A9E6A",
"r  c #878F7F",
"t  c #898F7D",
"y  c #889374",
"u  c #8D9B72",
"i  c #8D977B",
"p  c #909F71",
"a  c #939F7D",
"s  c #8DA46C",
"d  c #93A66C",
"f  c #95A86E",
"g  c #8FA771",
"h  c #94A573",
"j  c #96AA73",
"k  c #98AC73",
"l  c #97A57B",
"z  c #9BAE7A",
"x  c #9FB277",
"c  c #9CB37B",
"v  c #9DBA7A",
"b  c #A0B378",
"n  c #A0BD7D",
"m  c #6C7487",
"M  c #767A83",
"N  c #7B7E85",
"B  c #737A8D",
"V  c #7A7F8E",
"C  c #777F92",
"Z  c #7E8185",
"A  c #7D828C",
"S  c #7B8294",
"D  c #7E8698",
"F  c #868686",
"G  c #828489",
"H  c #898989",
"J  c #8B9281",
"K  c #949E82",
"L  c #979E8D",
"P  c #828793",
"I  c #888B91",
"U  c #80879A",
"Y  c #828A9A",
"T  c #8A8F9C",
"R  c #8D9095",
"E  c #8D929D",
"W  c #929292",
"Q  c #91959C",
"!  c #97999E",
"~  c #9A9A9A",
"^  c #97A183",
"/  c #9AA48B",
"(  c #9CA29A",
")  c #A1AF82",
"_  c #A2B283",
"`  c #A3BE83",
"'  c #A3AD94",
"]  c #A0A59B",
"[  c #A5AC9C",
"{  c #AAB497",
"}  c #ABB49B",
"|  c #AFBE9B",
" . c #B1BD9D",
".. c #9397A2",
"X. c #9599A3",
"o. c #999CA3",
"O. c #969CA8",
"+. c #9A9EA9",
"@. c #9EA1A4",
"#. c #9DA1AB",
"$. c #A3A3A1",
"%. c #A6AAA3",
"&. c #A8ADA4",
"*. c #A2A5AD",
"=. c #A6A9AD",
"-. c #A9ACAC",
";. c #ABB1A6",
":. c #ADB2AA",
">. c #B2BDA2",
",. c #B2B6AB",
"<. c #A3A7B0",
"1. c #A6AAB2",
"2. c #ABAEB4",
"3. c #ADB1B6",
"4. c #AFB2B9",
"5. c #B2B3B4",
"6. c #B7BDB3",
"7. c #B2B5BB",
"8. c #B6B9BC",
"9. c #BABBBC",
"0. c #A9C28C",
"q. c #B3C996",
"w. c #B6C59D",
"e. c #B9CD9F",
"r. c #B6C4A1",
"t. c #BCCDA4",
"y. c #BCC4AF",
"u. c #BFD1A7",
"i. c #BCC4B0",
"p. c #BFC9B0",
"a. c #BDC0BD",
"s. c #C0CFA1",
"d. c #C3D2A5",
"f. c #C5D4A9",
"g. c #C9D7AD",
"h. c #CAD8AF",
"j. c #C1CAB4",
"k. c #CBDAB3",
"l. c #CBD7BD",
"z. c #D0DDB7",
"x. c #D2DEBB",
"c. c #D5E0BE",
"v. c #B7BAC0",
"b. c #BBBDC2",
"n. c #BEC1C5",
"m. c #C2C2C3",
"M. c #C4C6CA",
"N. c #C6C9CC",
"B. c #CACBCD",
"V. c #CFD5C7",
"C. c #D2D6CD",
"Z. c #D4DBCB",
"A. c #C7CAD0",
"S. c #CBCDD2",
"D. c #CFD1D6",
"F. c #D0D0D0",
"G. c #D7D9D3",
"H. c #D1D4DA",
"J. c #D7D9DD",
"K. c #DADBDA",
"L. c #D6E1C1",
"P. c #D9E3C5",
"I. c #DCE6CA",
"U. c #DCE0D6",
"Y. c #DDE1D8",
"T. c #E3EBD3",
"R. c #E1E3DD",
"E. c #DCDDE2",
"W. c #E4E4E2",
"Q. c #E7E8E5",
"!. c #E8E9E7",
"~. c #E3E5EA",
"^. c #E9E9E9",
"/. c None",
"(. c black",
"). c black",
"_. c black",
"`. c black",
"'. c black",
"]. c black",
"[. c black",
"{. c black",
"}. c black",
"|. c black",
" X c black",
".X c black",
"XX c black",
"oX c black",
"OX c black",
"+X c black",
"@X c black",
"#X c black",
"$X c black",
"%X c black",
"&X c black",
"*X c black",
"=X c black",
"-X c black",
";X c black",
":X c black",
">X c black",
",X c black",
"<X c black",
"1X c black",
"2X c black",
"3X c black",
"4X c black",
"5X c black",
"6X c black",
"7X c black",
"8X c black",
"9X c black",
"0X c black",
"qX c black",
"wX c black",
"eX c black",
"rX c black",
"tX c black",
"yX c black",
"uX c black",
"iX c black",
"pX c black",
"aX c black",
"sX c black",
"dX c black",
"fX c black",
"gX c black",
"hX c black",
"jX c black",
"kX c black",
"lX c black",
"zX c black",
"xX c black",
"cX c black",
"vX c black",
"bX c black",
"nX c black",
"mX c black",
"MX c black",
"NX c black",
"BX c black",
"VX c black",
"CX c black",
"ZX c black",
"AX c black",
"SX c black",
"DX c black",
"FX c black",
"GX c black",
"HX c black",
"JX c black",
"KX c black",
"LX c black",
"PX c black",
"IX c black",
"UX c black",
/* pixels */
"/./././././././././././././././././././././././././././././././.",
"/./././././././././././././././././././././././././././././././.",
"/././././././././././././././.!.!./././././././././././././././.",
"/./././././././././.!.Z.u.0.v n n v 0.t.Z.!././././././././././.",
"/./././././././.!.l.0.q.k.P.T.T.T.T.P.k.q.` l.!././././././././.",
"/././././././.R.0.e.c.P.Z.x.z.z.z.x.c.L.I.L.e.0.R./././././././.",
"/./././././.Z.v d.c.c.h.g.d.f.f.d.d.d.r.} ;.-.3./ V././././././.",
"/././././.U.c f.z.h.d.d.d.d.s.r.{ [ -.7.3.4.8.8.N.;.C./././././.",
"/./././.W._ t.g.f.u.u.w.} [ %.-.v.v.7.7.4.*.3.7.3.N.6.Y././././.",
"/./././.r.q.d.w.{ ' &.%.2.4.3.2.1.2.4.4.7.4.*.7.4.7.A.r././././.",
"/././.Y.g { ( @.3.3.1.*.<.<.<.<.<.<.#.#.#.*.#.=.v.3.D./ Y./././.",
"/././.| :.n.4.o...O.#.#.+.O.E D D S S D D D D o.n.3.A.:.| /././.",
"/./.!.s -.n.2.v.o.X.X.T S B B C B S D U Y U U E v.4.N.a.s ^././.",
"^.^.C.j %.D.4.4.7.E S B m C S S D U D D Y O.1.#.7.2.M.6.j C././.",
"!.Q.p.z =.D.v.2.v...m B S S S S S Y X.<.2...N R v.7.7.3.z p././.",
"W.R.w.z ;.H.n.4.v.=.B C C S T O.1.1...M - .   Z v.2.N.b.z r././.",
"W.R.| k -.H.A.2.v.2.P E #.1.<.Q 1 * o * : 1 1 Z 2.m.N.' j  ././.",
"!.W.>.h ~ J.S.3.7.7.#.o.G > o * , A ..#.1.1.1...o.] p b h >././.",
"^.!.y.e [ H.S.3.7.b.I X . ; A +.1.2.1.#.#.o.+.1.o.8 k x e y././.",
"/./.C.9 _ 9.D.3.v.n.o.= V #.1.1.<.o.#.2.7.b.2.+.1.+.J z 6 C././.",
"/./.^.5 k { S.5.<.2.$.G X.1.<.#.*.v.F.J.E.J.S.=.o.o.@.u 5 ^././.",
"/././.{ 0 b :.S.M.H.M.v.~ Q <.#.=.H.E.B.b.5.5.7.=.7.D.y ' /././.",
"/././.K.% d ) ;.%.L t L m.o.Q *.O.1.7.2.N.J.~.E.a.:.' 3 K./././.",
"/./././.' 9 k h d k k k / N.o.X.o.Q -.E.~.N.( a l j 5 { /./././.",
"/./././.Q.9 7 f f f f f f K m.9.n.F.B.[ i a d d f 9 9 ~././././.",
"/././././.K.% 6 d d f f f f a a.,.K p d f d f d 6 # K./././././.",
"/./././././.G.4 9 d d d f d d d d d d f f f d 5 4 G././././././.",
"/././././././.R.y @ 9 d d d d d d d d d d 9 @ y R./././././././.",
"/./././././.^.W.K.,.& + 3 0 q d d 0 0 3 + & ,.G.W.^././././././.",
"/./././././.B.m.9.9.5.%.J < $ O O $ & t ] 8.m.m.m.F././././././.",
"/./././././././.^.W.N.5.$.W W H W W W W ] m.E.^././././././././.",
"/./././././././.^.B.~ H F H H H F H H F F ~ B.^././././././././."
};
