/* XPM */
static char *print_sel[] = {
/* columns rows colors chars-per-pixel */
"32 32 256 2",
"   c #0B193C",
".  c #17184E",
"X  c #121555",
"o  c #151857",
"O  c #1C1F53",
"+  c #13165B",
"@  c #18175B",
"#  c #13185E",
"$  c #1A1B5C",
"%  c #1B2745",
"&  c #1B2B50",
"*  c #1F205A",
"=  c #212E4E",
"-  c #212354",
";  c #23245B",
":  c #223051",
">  c #2F3D5E",
",  c #343D53",
"<  c #131762",
"1  c #141962",
"2  c #1B1D64",
"3  c #1B1F68",
"4  c #201F66",
"5  c #221F69",
"6  c #1F2166",
"7  c #1E2269",
"8  c #212566",
"9  c #252966",
"0  c #2B2C60",
"q  c #24246A",
"w  c #29256D",
"e  c #26296A",
"r  c #2A2C6B",
"t  c #2D3169",
"y  c #323463",
"u  c #31326E",
"i  c #3B3E6F",
"p  c #2E2A71",
"a  c #322E72",
"s  c #333572",
"d  c #383377",
"f  c #363973",
"g  c #3A3B73",
"h  c #393478",
"j  c #3C3B79",
"k  c #403F73",
"l  c #403B7F",
"z  c #374055",
"x  c #39445C",
"c  c #3A4869",
"v  c #354772",
"b  c #3F4174",
"n  c #374873",
"m  c #3B4C76",
"M  c #3C4E78",
"N  c #3E507A",
"B  c #404D6C",
"V  c #4B5365",
"C  c #525865",
"Z  c #555C6A",
"A  c #424474",
"S  c #464975",
"D  c #4B4C77",
"F  c #45457C",
"G  c #4A4B79",
"H  c #4A5673",
"J  c #4C5874",
"K  c #42547C",
"L  c #4F5078",
"P  c #4B5B7F",
"I  c #555875",
"U  c #535579",
"Y  c #525F7D",
"T  c #5B606C",
"R  c #54627E",
"E  c #5D627C",
"W  c #5D687D",
"Q  c #63657E",
"!  c #676E7B",
"~  c #6A6F7B",
"^  c #6C717E",
"/  c #71747D",
"(  c #433F81",
")  c #494783",
"_  c #4D4C86",
"`  c #4D4989",
"'  c #534F8C",
"]  c #445680",
"[  c #4C5C80",
"{  c #535382",
"}  c #505F81",
"|  c #59568F",
" . c #5D5893",
".. c #615E95",
"X. c #635E99",
"o. c #546283",
"O. c #5B6481",
"+. c #5F6984",
"@. c #656781",
"#. c #656B83",
"$. c #6B6D83",
"%. c #61608C",
"&. c #616D89",
"*. c #6B7384",
"=. c #6C758C",
"-. c #6E788F",
";. c #727485",
":. c #767A83",
">. c #797D85",
",. c #727388",
"<. c #70798C",
"1. c #797E8B",
"2. c #666494",
"3. c #68649D",
"4. c #6B699A",
"5. c #6F7890",
"6. c #717A91",
"7. c #76749E",
"8. c #78779B",
"9. c #6C6BA0",
"0. c #7473A2",
"q. c #7A76A7",
"w. c #7D7BA6",
"e. c #7B77A8",
"r. c #7F7BA8",
"t. c #77808C",
"y. c #7E838D",
"u. c #7B8395",
"i. c #828486",
"p. c #82848C",
"a. c #85898F",
"s. c #8A8B8D",
"d. c #858C93",
"f. c #8C8D90",
"g. c #858C98",
"h. c #8C9094",
"j. c #899299",
"k. c #939495",
"l. c #989897",
"z. c #979798",
"x. c gray60",
"c. c #8789A0",
"v. c #8C8CA6",
"b. c #8683AC",
"n. c #8D8BA9",
"m. c #9292AA",
"M. c #9A9BAE",
"N. c #9491B3",
"B. c #9D9DB2",
"V. c #9C99BB",
"C. c #A7A6A6",
"Z. c #A8A8A7",
"A. c #ACABAB",
"S. c #B0AFAF",
"D. c #ADACB3",
"F. c #A5A4BB",
"G. c #ADAEBD",
"H. c #B5B4B4",
"J. c #B8B7B7",
"K. c #B2B2B9",
"L. c #BAB9BA",
"P. c #AAABC2",
"I. c #B4B4C5",
"U. c #BBBBC1",
"Y. c #B4B3CA",
"T. c #BCBCCE",
"R. c #C4C3C4",
"E. c #CBCBCA",
"W. c #C2C1D1",
"Q. c #C8C7D5",
"!. c #C7C8D4",
"~. c #CCCBD6",
"^. c #CDCCD8",
"/. c #D5D5D5",
"(. c #D4D4DC",
"). c #DDDDDE",
"_. c #E0E0DF",
"`. c #DCDCE2",
"'. c #E4E4E5",
"]. c #E7E7E8",
"[. c #E9E9E9",
"{. c None",
"}. c black",
"|. c black",
" X c black",
".X c black",
"XX c black",
"oX c black",
"OX c black",
"+X c black",
"@X c black",
"#X c black",
"$X c black",
"%X c black",
"&X c black",
"*X c black",
"=X c black",
"-X c black",
";X c black",
":X c black",
">X c black",
",X c black",
"<X c black",
"1X c black",
"2X c black",
"3X c black",
"4X c black",
"5X c black",
"6X c black",
"7X c black",
"8X c black",
"9X c black",
"0X c black",
"qX c black",
"wX c black",
"eX c black",
"rX c black",
"tX c black",
"yX c black",
"uX c black",
"iX c black",
"pX c black",
"aX c black",
"sX c black",
"dX c black",
"fX c black",
"gX c black",
"hX c black",
"jX c black",
"kX c black",
"lX c black",
"zX c black",
"xX c black",
"cX c black",
"vX c black",
"bX c black",
"nX c black",
"mX c black",
"MX c black",
"NX c black",
"BX c black",
"VX c black",
"CX c black",
"ZX c black",
"AX c black",
"SX c black",
"DX c black",
"FX c black",
"GX c black",
"HX c black",
"JX c black",
"KX c black",
"LX c black",
"PX c black",
"IX c black",
"UX c black",
/* pixels */
"{.{.{.{.{.{.{.{.{.{.{.{.{.{.[.[.].[.{.{.{.{.{.{.{.{.{.{.{.{.{.{.",
"{.{.{.{.{.{.{.{.{.{.[.^.V.e.3.X.X.3.e.V.Q.].{.{.{.{.{.{.{.{.{.{.",
"{.{.{.{.{.{.{.{.[.T.0.` h a a s a a a d ) 9.Y.[.{.{.{.{.{.{.{.{.",
"{.{.{.{.{.{.{.`.b.( p g S L U U U U L S g a l r.(.{.{.{.{.{.{.{.",
"{.{.{.{.{.{.^.X.p g D D F A A b A A A G L D g a  .Q.{.{.{.{.{.{.",
"{.{.{.{.{.^.' w g S A g g f f s s s f g b A D g w ` Q.{.{.{.{.{.",
"{.{.{.{.`.2.q g m g f f s s s s s s s s s f b A g w | (.{.{.{.{.",
"{.{.{.'.b.w u g f f s s s s s s s g F I #.,.y.*.A s w r.'.{.{.{.",
"{.{.{.T.a s f f s s s s s f A U $.>.a.d.p.d.d.h.a.U a a I.{.{.{.",
"{.{.'.0.5 u s s u s b U @.;.y.a.d.d.u.j.d.y.d.j.f.y.g 5 4._.{.{.",
"{.{.W.a r s g S E ;.y.y.u.1.t.u.u.u.u.u.u.u.y.j.d.k.S r a T.{.{.",
"[.{.F.5 r L y.i.:.<.*.=.-.-.=.+.o.} } } o.o.&.j.d.k.Y w 4 N.[.{.",
"].`.7.4 e ;.f.d.p.&.&.+.o.K m m m M N K K ] R d.d.k.*.q 4 2.`.{.",
"(.T._ 8 8 $.l.d.j.t.R M v v m M N K K ] P W ! d.j.k.,.7 2 ) (.{.",
"!.P.j 6 e $.x.f.d.d.J v m m N N K P O.&.^ T T d.g.s.$.7 2 h ~.{.",
"^.P.j 2 8 $.x.k.d.j.W m M K R W ^ ^ Z z %   z d.d.h.,.6 2 g !.{.",
"_.W.F 1 6 #.x.k.a.j.<.W *./ ! V , = : > B H Z >.f.y.b 2 1 g ^.{.",
"[.`.%.$ 2 @.x.z.d.j.a.T x = & > H +.=.6.6.6.<.~ I q 1 2 $ _ (.{.",
"{.[.n.$ 2 A k.z.p.j.d.z & c +.<.6.6.-.<.<.1.6.<.I 9 2 1 $ 8.'.{.",
"{.{.I.$ 1 7 @.z.a.d.d.C J 6.6.6.6.>.a.h.k.k.1.<.6.E 8 1 $ F.{.{.",
"{.{.(.S + 1 t p.s.d.s.i./ =.6.<.>.z.x.l.k.s.i.:.>.i.r + A ~.{.{.",
"{.{.{.B.$ # 1 S f.p.:.Q i./ *.6.,.a.s.a.s.k.l.k.s.Q 8 @ m.[.{.{.",
"{.{.{.(.D + < 2 e q 2 1 A p.:.*.-./ i.x.l.a.Q A e 1 + S ~.{.{.{.",
"{.{.{.{.I.0 X 1 < < 1 < 1 g i.s.s.f.a.#.A 9 2 < 1 + ; G.[.{.{.{.",
"{.{.{.{.[.B.$ X # 1 1 1 1 < i *.@.A e 1 < < 1 $ X $ m.'.{.{.{.{.",
"{.{.{.{.{.].m.; X + < < 1 < < 1 1 < < < < 1 1 + - v.'.{.{.{.{.{.",
"{.{.{.{.{.{.'.F.y X X # < < < < 1 < < < # + X ; B.[.{.{.{.{.{.{.",
"{.{.{.{.{.[.'._.U.$.; o X + + # + + # # X - Q K./._.[.{.{.{.{.{.",
"{.{.{.{.{.'./._.[.).U.M.Y y - . . * y { g.D./.).E.E.'.{.{.{.{.{.",
"{.{.{.{.{.[.].]._.E.E.E.E.R.L.H.D.D.U.E.E./.'.].'.'.[.{.{.{.{.{.",
"{.{.{.{.{.{.{.[./.J.H.J.L.J.H.J.S.Z.Z.Z.C.A.R.).[.{.{.{.{.{.{.{.",
"{.{.{.{.{.{.{.[.).E.R.E.E.L.J.J.H.A.A.A.A.A.J./.[.{.{.{.{.{.{.{."
};
