/* XPM */
static char *print[] = {
/* columns rows colors chars-per-pixel */
"32 32 256 2",
"   c #122A64",
".  c #2D4173",
"X  c #1F2595",
"o  c #1F269C",
"O  c #33388F",
"+  c #3C3E8D",
"@  c #202593",
"#  c #232993",
"$  c #292D97",
"%  c #23299E",
"&  c #2C2F9B",
"*  c #2C3198",
"=  c #313691",
"-  c #353A95",
";  c #38379F",
":  c #1F26A3",
">  c #2027A4",
",  c #2229A4",
"<  c #292FA6",
"1  c #262DA8",
"2  c #282FA9",
"3  c #2B32AA",
"4  c #3536A4",
"5  c #343AA6",
"6  c #3C3BA0",
"7  c #3337AC",
"8  c #363BAB",
"9  c #3A3DAB",
"0  c #343AB0",
"q  c #393FB2",
"w  c #284487",
"e  c #344B84",
"r  c #3E418D",
"t  c #3A5085",
"y  c #385189",
"u  c #3F409B",
"i  c #3D43AB",
"p  c #3C42B0",
"a  c #4B4E95",
"s  c #46479E",
"d  c #4B4D9C",
"f  c #555797",
"g  c #52549F",
"h  c #595B9C",
"j  c #5B6987",
"k  c #51638E",
"l  c #5C6B8E",
"z  c #4E659D",
"x  c #5E6F98",
"c  c #61729B",
"v  c #4646A2",
"b  c #4E4DA4",
"n  c #4243AD",
"m  c #4844AF",
"M  c #4048A8",
"N  c #595BA2",
"B  c #4245B2",
"V  c #4A46B1",
"C  c #4649B4",
"Z  c #4B4BB5",
"A  c #4F4AB8",
"S  c #534DBA",
"D  c #4B51B0",
"F  c #5450B7",
"G  c #565CB5",
"H  c #5455BA",
"J  c #5A55BE",
"K  c #555ABD",
"L  c #595CBD",
"P  c #5D62BE",
"I  c #5976BE",
"U  c #5B78BF",
"Y  c #6162A6",
"T  c #6669A4",
"R  c #6C6EA5",
"E  c #6D6FAC",
"W  c #6077AF",
"Q  c #6263BC",
"!  c #6965BD",
"~  c #656BBE",
"^  c #6D69BD",
"/  c #6D71BE",
"(  c #7C7CB6",
")  c #7474BC",
"_  c #7978BA",
"`  c #5D56C0",
"'  c #565BC0",
"]  c #5B5DC1",
"[  c #6059C1",
"{  c #5D61C1",
"}  c #5E7BC1",
"|  c #6663C0",
" . c #6469C1",
".. c #6A6DC2",
"X. c #736BC6",
"o. c #6F73C3",
"O. c #607DC3",
"+. c #7275C3",
"@. c #7877C0",
"#. c #7579C4",
"$. c #7A7BC5",
"%. c #7C7BC9",
"&. c #817CCB",
"*. c #7D8BA9",
"=. c #6B80B3",
"-. c #7C8FBD",
";. c #6481C6",
":. c #6684CA",
">. c #6886CC",
",. c #6B89CF",
"<. c #7E80C5",
"1. c #7B8FC1",
"2. c #718BCA",
"3. c #7B92C4",
"4. c #6E8CD2",
"5. c #728FD4",
"6. c #7E97D3",
"7. c #7F99D5",
"8. c #8893A9",
"9. c #8183B7",
"0. c #8484BA",
"q. c #8889BA",
"w. c #8E99B1",
"e. c #8294BF",
"r. c #9092B8",
"t. c #9A9BB8",
"y. c #97A0B4",
"u. c #98A0B5",
"i. c #A0A1BC",
"p. c #8383C5",
"a. c #8B8AC4",
"s. c #8984CD",
"d. c #868ACB",
"f. c #8B8ECA",
"g. c #8E93C3",
"h. c #8C90C9",
"j. c #9093C2",
"k. c #9999C6",
"l. c #9490CE",
"z. c #909BC9",
"x. c #9E9CCD",
"c. c #869ED4",
"v. c #889FD4",
"b. c #859DD8",
"n. c #9792D1",
"m. c #9B97D3",
"M. c #9E9CD4",
"N. c #A29FD1",
"B. c #99A4CB",
"V. c #99A9CD",
"C. c #8BA2D4",
"Z. c #87A0DA",
"A. c #8BA3DB",
"S. c #9CA0D5",
"D. c #9AADD0",
"F. c #91A7DB",
"G. c #96AAD8",
"H. c #9DAFDB",
"J. c #9FB0DB",
"K. c #A5A8CE",
"L. c #ABA9CD",
"P. c #ACB5C8",
"I. c #B6B7CE",
"U. c #B1B9CD",
"Y. c #A3A2D6",
"T. c #A7ABD3",
"R. c #AAAAD5",
"E. c #ABACD9",
"W. c #B0ACD8",
"Q. c #ABB9D2",
"!. c #A0B1D8",
"~. c #ADB0D8",
"^. c #A7B9DE",
"/. c #B8B7D3",
"(. c #B3BCD1",
"). c #BBBBD2",
"_. c #B3B4D9",
"`. c #B4BCDD",
"'. c #BBBDDC",
"]. c #A0B5E3",
"[. c #A4B9E7",
"{. c #BABDE1",
"}. c #C1BEDF",
"|. c #B7C0D4",
" X c #BBC2D2",
".X c #B5C0DA",
"XX c #AEC0EA",
"oX c #B5C3E4",
"OX c #BCC4E5",
"+X c #BCCAE2",
"@X c #B4C5EC",
"#X c #B8C7EC",
"$X c #B7C8EE",
"%X c #BBC9EC",
"&X c #BDCCF2",
"*X c #C2C2D5",
"=X c #C3C9D5",
"-X c #CECED3",
";X c #C5C4DE",
":X c #C6CCDA",
">X c #CDCDDC",
",X c #D0CFD7",
"<X c #CAD1DA",
"1X c #D5D5D6",
"2X c #D8D7D7",
"3X c #D4D4DB",
"4X c #D7DADE",
"5X c #DCDBDB",
"6X c #E0DFDF",
"7X c #C3C5E1",
"8X c #CCCCE1",
"9X c #C0CCEA",
"0X c #C9D0E0",
"qX c #C7D6E9",
"wX c #C9D3E9",
"eX c #D4D4E3",
"rX c #D6DCE6",
"tX c #DCDCE5",
"yX c #D5D6EA",
"uX c #D4DBEA",
"iX c #DCDDEA",
"pX c #C9D5F1",
"aX c #CCD9F5",
"sX c #CFDCFA",
"dX c #D1DEFB",
"fX c #E0DFE7",
"gX c #D7E3EF",
"hX c #DDE2ED",
"jX c #DAE5F2",
"kX c #DEE9F4",
"lX c #DBE6FA",
"zX c #DEEBFA",
"xX c #E4E3E4",
"cX c #E4E4E9",
"vX c #E7EAED",
"bX c #E9E9E9",
"nX c #E3E4F0",
"mX c #E3EBF4",
"MX c #EAEDF1",
"NX c #E0EEFB",
"BX c #EEF1F3",
"VX c #E4F2FE",
"CX c #F2F3F6",
"ZX c #F5F6F9",
"AX c #F7F8FA",
"SX c #FDFDFD",
"DX c None",
"FX c black",
"GX c black",
"HX c black",
"JX c black",
"KX c black",
"LX c black",
"PX c black",
"IX c black",
"UX c black",
/* pixels */
"DXDXDXDXDXDXDXDXDXDXDXDXDXDXbXbXbXvXDXDXDXDXDXDXDXDXDXDXDXDXDXDX",
"DXDXDXDXDXDXDXDXDXDXbXtX}.E.m.m.m.N.E.}.rXbXDXDXDXDXDXDXDXDXDXDX",
"DXDXDXDXDXDXDXDXbXeXY.s.X.[ ` J ` ` [ X.s.Y.8XbXDXDXDXDXDXDXDXDX",
"DXDXDXDXDXDXDXcX_.&.` | $.p.f.f.f.f.p.%.| J &.W.fXDXDXDXDXDXDXDX",
"DXDXDXDXDXDXtXm.] | $.<.#.o..... ...o.$.<.<.| J n.tXDXDXDXDXDXDX",
"DXDXDXDXDXtXf.S P <.o. .{ ] ] ' ' ] ] {  .+.$...S s.rXDXDXDXDXDX",
"DXDXDXDXxXm.S Q ..{ { ' ' ' K ' ' ' ' ' ' P ....Q A l.fXDXDXDXDX",
"DXDXDXbX_.F K | { L K L ' ' K K K P #.f.E.+XyX`.+.F F E.bXDXDXDX",
"DXDXDXeX..F { L L K K H K P o.f.~.8XhXhXrXkXNXmXnXs.H ! 8XDXDXDX",
"DXDXcXR.V H L K H L ..d.E.7XrXgXjXgXlXzXlXuXNXzXMXyXL C Y.xXDXDX",
"DXDXeX^ Z H P @.S.'.yXuXqXqXpXpXsXsXaXdXdXaXuXVXkXCX%.C ! >XDXDX",
"bXDX;Xm C d.yXrX:X+XoX@X$X$XXX].F.Z.Z.Z.Z.A.^.VXkXCXS.B m }.bXDX",
"bXbXR.m B '.BXjXuX^.].].Z.2.;.I O.;.>.4.4.5.C.NXzXCX{.q m x.xXDX",
"fXeXa.n 9 _.SXjXVXqXC.;.I U ;.:.>.4.4.4.b.G.Q.kXVXCX{.0 9 p.fXDX",
"tX8X) 9 p `.SXMXzXzX3.I ;.;.;.>.,.6.G.`.U.u.y.NXNXnX'.7 9 ) tXDX",
"tX8X) 8 8 `.SXCXjXVXD.;.;.2.C.D..XU.w.l .   j kXjXBX{.3 4 ) tXDX",
"cXeXp.4 7 ~.SXZXkXVX+XV..X|.P.*.k e t z W 3.w.<XMXyX~ 1 4 _ tXDX",
"bXxXk.4 3 T.SXSXkXVXgXy.c t e z 3.J.@X&X&XpX%X(.g.9 1 1 4 q.xXDX",
"DXbX/.6 1 #.ZXSXhXVXkXx w I J.$X&X&X#X#X9X9X%X%Xz.i 1 1 ; L.cXDX",
"DXDX3Xb % 7 E.SXgXNXjX8.e.%X&X&X%XwXcXMXAXCXwX%X&XB.i > v ;XDXDX",
"DXDXfX0.& 1 Z uXbXvXvX4X X.X&X#X0XAXSXSXBXcXhX=X:XtXZ # ( tXDXDX",
"DXDXDX*Xs % 1 / cXiX7XK.tX=X`.$X%XhXcXcXvXAXSXCXhXE.5 s ).bXDXDX",
"DXDXDXtXq.* > 3 B 8 < , / hX:XoX+X).hXSXSXnX~.+.B 1 $ 9.tXDXDXDX",
"DXDXDXDX<XY # : , , , : : Q uXcXvXMXtX~.) i , : : @ N >XbXDXDXDX",
"DXDXDXDXbX*Xg @ > > > , , : G '.~.) i , : : , o @ d ).bXDXDXDXDX",
"DXDXDXDXDXbX).N # % > , , : o < : : : : , : : # g I.cXDXDXDXDXDX",
"DXDXDXDXDXDXbX*XR - X o : : , , : , > , o X O T *XbXDXDXDXDXDXDX",
"DXDXDXDXDXbXbXxX1Xu.h + # X X o o o o > - f t.-XxXxXbXDXDXDXDXDX",
"DXDXDXDXDXbX5XxXbXxX3X Xr.R f r r a E g.I.-X6XxX2X2XbXDXDXDXDXDX",
"DXDXDXDXDXbXbXbXbXxXxXxXxX5X4X1X,X,X5XxXxXxXbXbXbXbXbXDXDXDXDXDX",
"DXDXDXDXDXDXDXbXxX5X5X5X5X5X5X5X2X2X2X2X1X2X6XbXbXDXDXDXDXDXDXDX",
"DXDXDXDXDXDXDXbXxXxX6X6XxX5X5X5X2X2X2X2X2X2X5XxXbXDXDXDXDXDXDXDX"
};
