/* XPM */
static char *print_dis[] = {
/* columns rows colors chars-per-pixel */
"32 32 256 2",
"   c #434D64",
".  c #575F73",
"X  c #636D85",
"o  c #6C6D8E",
"O  c #677085",
"+  c #697389",
"@  c #757B87",
"#  c #767D8E",
"$  c #656792",
"%  c #666995",
"&  c #6B6D94",
"*  c #6B6D9C",
"=  c #6E7095",
"-  c #6E709E",
";  c #777995",
":  c #7D7D97",
">  c #76769D",
",  c #7B7C9D",
"<  c #6E71A3",
"1  c #7174A5",
"2  c #7877A0",
"3  c #7778A2",
"4  c #7A7BA5",
"5  c #7477A8",
"6  c #7578A9",
"7  c #7C7DAB",
"8  c #7A808E",
"9  c #7E879D",
"0  c #7F81AC",
"q  c #7F81B0",
"w  c #81839D",
"e  c #848A9B",
"r  c #8484A3",
"t  c #8C8DA5",
"y  c #8283AD",
"u  c #8F90A6",
"i  c #8F99AF",
"p  c #9293AC",
"a  c #989DA9",
"s  c #8385B1",
"d  c #8886B1",
"f  c #8789B2",
"g  c #8A8AB5",
"h  c #8E8CB8",
"j  c #908EB7",
"k  c #918EBA",
"l  c #8F92B5",
"z  c #8F91BA",
"x  c #969FB3",
"c  c #9F9FB6",
"v  c #9494BD",
"b  c #9698BD",
"n  c #9A9BBD",
"m  c #A09FBC",
"M  c #9CA0A9",
"N  c #96A2BE",
"B  c #9FA1BE",
"V  c #A2A4B3",
"C  c #A5A9B1",
"Z  c #AAADB6",
"A  c #A3A3BB",
"S  c #A5ACBE",
"D  c #AAABB8",
"F  c #B1B1BC",
"G  c #9597C0",
"H  c #9996C0",
"J  c #9698C0",
"K  c #9C9CC1",
"L  c #9DA3C2",
"P  c #9EA9C5",
"I  c #A3A4C3",
"U  c #A3AAC5",
"Y  c #ACACC5",
"T  c #A3AFCB",
"R  c #ABAACA",
"E  c #B1AFCC",
"W  c #A7B0C4",
"Q  c #AEB0C3",
"!  c #A6B2CD",
"~  c #AFB1CB",
"^  c #B4B4C6",
"/  c #B2B2CB",
"(  c #B7BCCB",
")  c #BCBDCD",
"_  c #AAB6D2",
"`  c #ADB9D4",
"'  c #B4BDD3",
"]  c #BDBCD3",
"[  c #C0BED5",
"{  c #BDC0C8",
"}  c #B7C1D7",
"|  c #BBC1D4",
" . c #B6C0D8",
".. c #BCC5DA",
"X. c #C4C5CE",
"o. c #C3C3D5",
"O. c #C4C8D2",
"+. c #CACBD3",
"@. c #C7C6D9",
"#. c #C8C7D8",
"$. c #C5C9DA",
"%. c #CBCCDA",
"&. c #CED0D5",
"*. c #CCD0DD",
"=. c #D4D4D6",
"-. c #D3D4DC",
";. c gray86",
":. c #E0DFDF",
">. c #CBD3E4",
",. c #D4D5E1",
"<. c #D4D9E4",
"1. c #DCDCE2",
"2. c #D5DBEA",
"3. c #D9DEEC",
"4. c #DFE0E4",
"5. c #DCE1EA",
"6. c #DDE3F2",
"7. c #E3E3E5",
"8. c #E4E5E9",
"9. c #E6E9EE",
"0. c #E9E9EA",
"q. c #E1E6F1",
"w. c #E5EAF5",
"e. c #EBEEF1",
"r. c #E9EEFA",
"t. c #EDF1F5",
"y. c #EEF3F9",
"u. c #F3F4F5",
"i. c #F2F6FB",
"p. c #F4FAFE",
"a. c #FCFCFD",
"s. c None",
"d. c black",
"f. c black",
"g. c black",
"h. c black",
"j. c black",
"k. c black",
"l. c black",
"z. c black",
"x. c black",
"c. c black",
"v. c black",
"b. c black",
"n. c black",
"m. c black",
"M. c black",
"N. c black",
"B. c black",
"V. c black",
"C. c black",
"Z. c black",
"A. c black",
"S. c black",
"D. c black",
"F. c black",
"G. c black",
"H. c black",
"J. c black",
"K. c black",
"L. c black",
"P. c black",
"I. c black",
"U. c black",
"Y. c black",
"T. c black",
"R. c black",
"E. c black",
"W. c black",
"Q. c black",
"!. c black",
"~. c black",
"^. c black",
"/. c black",
"(. c black",
"). c black",
"_. c black",
"`. c black",
"'. c black",
"]. c black",
"[. c black",
"{. c black",
"}. c black",
"|. c black",
" X c black",
".X c black",
"XX c black",
"oX c black",
"OX c black",
"+X c black",
"@X c black",
"#X c black",
"$X c black",
"%X c black",
"&X c black",
"*X c black",
"=X c black",
"-X c black",
";X c black",
":X c black",
">X c black",
",X c black",
"<X c black",
"1X c black",
"2X c black",
"3X c black",
"4X c black",
"5X c black",
"6X c black",
"7X c black",
"8X c black",
"9X c black",
"0X c black",
"qX c black",
"wX c black",
"eX c black",
"rX c black",
"tX c black",
"yX c black",
"uX c black",
"iX c black",
"pX c black",
"aX c black",
"sX c black",
"dX c black",
"fX c black",
"gX c black",
"hX c black",
"jX c black",
"kX c black",
"lX c black",
"zX c black",
"xX c black",
"cX c black",
"vX c black",
"bX c black",
"nX c black",
"mX c black",
"MX c black",
"NX c black",
"BX c black",
"VX c black",
"CX c black",
"ZX c black",
"AX c black",
"SX c black",
"DX c black",
"FX c black",
"GX c black",
"HX c black",
"JX c black",
"KX c black",
"LX c black",
"PX c black",
"IX c black",
"UX c black",
/* pixels */
"s.s.s.s.s.s.s.s.s.s.s.s.s.s.0.0.0.0.s.s.s.s.s.s.s.s.s.s.s.s.s.s.",
"s.s.s.s.s.s.s.s.s.s.0.8.-.#.[ [ ] [ #.-.7.0.s.s.s.s.s.s.s.s.s.s.",
"s.s.s.s.s.s.s.s.0.1.@./ I H H v v v H I E [ 1.0.s.s.s.s.s.s.s.s.",
"s.s.s.s.s.s.s.8.#.R H H I E E E E E E I K v R #.0.s.s.s.s.s.s.s.",
"s.s.s.s.s.s.7.] H K Y U U I I L I I I U R Y n b ] 4.s.s.s.s.s.s.",
"s.s.s.s.s.7./ k n I I K K J J J G G K K K K R K k E 7.s.s.s.s.s.",
"s.s.s.s.7.] h b L K G G G G b J G G G G G J K L v h / 0.s.s.s.s.",
"s.s.s.0.%.k v K J G v G v G v b v b I / @.,.8.%.I v j @.0.s.s.s.",
"s.s.s.1.K k b b v v v v v b A / %.<.9.w.4.t.t.t.9./ v n ,.s.s.s.",
"s.s.0.o.d v b v v v L ~ ..<.5.9.e.e.y.i.y.8.i.y.e.8.v d [ 0.s.s.",
"s.s.1.n g z b I ] *.1.8.5.5.6.w.r.r.r.r.y.w.5.p.e.i.R d n 1.s.s.",
"0.s.-.d g ~ 8.4.-.<.<.2.2.5.5.>... . . . ...*.i.e.u.[ g d %.0.s.",
"0.0.[ y d -.u.e.q.*.>.>.} ! P N P P ! ! ` ` ' y.u.i.>.s y ( 7.s.",
"8.:.Y y s +.a.9.p.5.} P N N P P ! ! ` ` ' o.O.y.i.i.,.q 0 Y 7.s.",
"4.,.A 0 y %.a.u.y.y.W N P P T ! _ ' ..$.O.D C i.i.9.%.7 7 m 7.s.",
"7.,.I 7 q %.a.u.e.p.| N P W  ...*.{ C 8 .   @ e.e.u.,.7 7 m :.s.",
"0.1.A 7 0 #.a.u.e.p.-.{ *.+.{ a # X + 9 x S V =.e.8.n 6 4 B :.s.",
"0.0.^ 3 6 o.a.a.e.p.9.Z 9 O X 9 U $.2.5.q.q.3.O.Y 7 5 5 3 Y 7.s.",
"s.0.O.2 1 U p.a.6.p.e.9 X i $.6.6.6.5.2.2.2.6.3.^ 0 6 5 > [ 9.s.",
"s.s.-.r 1 7 @.a.4.p.w.M S 6.6.6.3.5.9.t.a.u.3.3.5.( 0 < , -.s.s.",
"s.s.7.A - 5 f 8.t.e.e.;.+.*.5.3.;.p.a.a.u.8.7.&.;.7.d * V 7.s.s.",
"s.s.s.&., - 5 A e.9.;.{ 9.&.*.6.2.9.0.0.u.u.a.u.q.#.4 > O.0.s.s.",
"s.s.s.7.A - < 6 y 0 1 1 n 7.&.,.2.+.:.a.a.e.@.I d 1 & V 7.s.s.s.",
"s.s.s.s.-.t % < < 1 1 < < v 8.0.0.e.9.+.A 0 1 < < $ r -.0.s.s.s.",
"s.s.s.s.0.&.w $ - 1 1 < < < l >.@.B 0 < < < 1 > $ , O.0.s.s.s.s.",
"s.s.s.s.s.0.O.r & * 1 1 1 < < 1 < < < 1 < < * $ r X.0.s.s.s.s.s.",
"s.s.s.s.s.s.0.=.u o $ * < < < < 1 < 1 < - % o t +.0.s.s.s.s.s.s.",
"s.s.s.s.s.0.7.7.=.F w o $ % % * * % * - * , Z =.7.7.0.s.s.s.s.s.",
"s.s.s.s.s.0.:.7.0.7.;.&.Z u : o o ; p Q X.=.:.:.=.;.0.s.s.s.s.s.",
"s.s.s.s.s.0.0.0.0.7.:.7.:.;.;.;.=.=.;.7.:.7.0.0.0.0.0.s.s.s.s.s.",
"s.s.s.s.s.s.s.0.7.;.;.:.;.;.;.;.;.=.=.;.=.;.:.0.0.s.s.s.s.s.s.s.",
"s.s.s.s.s.s.s.0.0.:.:.:.:.:.;.;.;.;.=.;.=.;.;.7.0.s.s.s.s.s.s.s."
};
