/* XPM */
static char *redo_dis[] = {
/* columns rows colors chars-per-pixel */
"28 28 129 2",
"   c #333E2C",
".  c #373E32",
"X  c #37432E",
"o  c #3A4631",
"O  c #3D4A33",
"+  c #40493A",
"@  c #45543A",
"#  c #4A5A3E",
"$  c #4C5645",
"%  c #4E5C43",
"&  c #525D4B",
"*  c #5E5F5E",
"=  c #536645",
"-  c #556946",
";  c #576C49",
":  c #586C48",
">  c #5B714B",
",  c #576050",
"<  c #586152",
"1  c #5C6158",
"2  c #60764F",
"3  c #60665C",
"4  c #636B5D",
"5  c #647C52",
"6  c #697E5B",
"7  c #646464",
"8  c #696D66",
"9  c #6C6F6B",
"0  c #6C7367",
"q  c #6E716B",
"w  c #70726F",
"e  c #737F6A",
"r  c #727371",
"t  c #797C76",
"y  c #7C7D7B",
"u  c #698257",
"i  c #6C8659",
"p  c #6E895B",
"a  c #728D5D",
"s  c #72905D",
"d  c #75806E",
"f  c #769261",
"g  c #799663",
"h  c #7C9A66",
"j  c #7F9D68",
"k  c #7E837B",
"l  c #809F6A",
"z  c #838B7E",
"x  c #83A36C",
"c  c #87A96E",
"v  c #8AAB72",
"b  c #8EA57E",
"n  c #8EAF78",
"m  c #8DB173",
"M  c #90B476",
"N  c #92B47A",
"B  c #97BA7F",
"V  c #838483",
"C  c #868884",
"Z  c #8E958A",
"A  c #939493",
"S  c #979896",
"D  c #9B9C9B",
"F  c #90A383",
"G  c #9AAB8F",
"H  c #98B784",
"J  c #9BBC83",
"K  c #9EBB8A",
"L  c #99A292",
"P  c #9EA09D",
"I  c #A2BE8F",
"U  c #A1A69E",
"Y  c #A1AA9B",
"T  c #A7A7A7",
"R  c #A7A8A7",
"E  c #ABACAB",
"W  c #AFB9A7",
"Q  c #B4B4B4",
"!  c #BBBBBB",
"~  c #9BC082",
"^  c #A3C18F",
"/  c #A5C88E",
"(  c #A5C291",
")  c #A8C496",
"_  c #AAC598",
"`  c #AEC89B",
"'  c #B0CF9B",
"]  c #B5CDA5",
"[  c #B9CEAB",
"{  c #B8D3A6",
"}  c #BBD3AB",
"|  c #BBC2B5",
" . c #BFD5B0",
".. c #C5CEBE",
"X. c #C1D5B3",
"o. c #C4DAB5",
"O. c #C4D3B9",
"+. c #C6DAB9",
"@. c #C3C3C3",
"#. c gray79",
"$. c #CDDAC4",
"%. c #CFD2CE",
"&. c #CFDBC8",
"*. c #D2DCCB",
"=. c #D5D4D5",
"-. c #D5DED0",
";. c #DDDDDD",
":. c #D1E2C5",
">. c #D6E3CC",
",. c #D8E6CF",
"<. c #D7E0D2",
"1. c #D9E2D3",
"2. c #DDE9D5",
"3. c #DFE4DC",
"4. c #E0E5DD",
"5. c #E3EDDC",
"6. c #E4E7E3",
"7. c #E6EBE3",
"8. c #E8ECE5",
"9. c #EBEBEA",
"0. c #EAF1E4",
"q. c #EDF3E9",
"w. c #F1F6ED",
"e. c #F3F5F2",
"r. c #F5F8F2",
"t. c #F9FBF7",
"y. c #FDFEFD",
"u. c black",
"i. c None",
/* pixels */
"i.i.i.i.i.i.i.i.6.*.X. .X.o.o.} } O.*.6.i.i.i.i.i.i.i.i.",
"i.i.i.i.i.i.6.$.} &.5.w.t.t.y.t.w.5.$.o.*.7.i.i.i.i.i.i.",
"i.i.i.i.i.<.} :.w.t.t.t.9.C E t.t.y.t.q.$.X.3.i.i.i.i.i.",
"i.i.i.9.$.} 5.r.r.r.r.r.6.1 7 P w.r.r.r.r.2.} <.i.i.i.i.",
"i.i.i.&.{ 5.q.q.q.q.q.q.q.k ! V C 4.w.q.q.w.2.[ 1.i.i.i.",
"i.i.1.] 2.0.7.5.5.5.8.0.q.U D t.D 9 | 8.0.5.8.>.] 6.i.i.",
"i.6.] $.2.2.2.5.5.$.| U Z 8 9 y.y.#.w z ..5.5.5.+.X.9.i.",
"i.$.( :.>.>.O.L e 9 y A E @.;.y.y.y.w.R 8 k W &.>.) -.i.",
"7.) N ` [ z 8 A #.9.y.y.y.y.y.y.y.y.y.y.9.Q y q d x [ i.",
"*.N n g & S 9.y.y.y.y.y.y.y.y.y.y.y.y.y.y.y.=.V . a J 3.",
"[ m l $ @.y.y.y.y.y.y.y.y.y.y.y.y.y.y.e.! q % ; f x m $.",
"^ v = T y.y.y.y.y.y.y.t.=.Q Q y.y.y.@.8 % p x v v x c [ ",
"J l , 9.y.y.t.t.t.e.R 3 % O r y.7.C $ u x x x x x x x _ ",
"N a 0 r.r.r.r.t.9.t % a x - E %.* = h x x l l l l l x ^ ",
"M a 4 q.q.q.q.w.U # l l h $ S $ 5 l l l l h h j j h l ^ ",
"B g & *.5.5.5.5.0 u l l s . + i l h h h h h h h h h j ) ",
"I l # Y 2.,.,.,.4 u j h h > i h h g g g g h g g g g j [ ",
"[ x 5 < +.:.:.:.d : h g g h g g f g f f f f f f f f x $.",
"*.v g @ z o.o.o.G O f f f g f f f f f f f f f f a f N 4.",
"6.I g i O F { { ] , > f f p f a f a a f p f p f a g [ i.",
"i.$.x f u O b ' ' b O i a f a s p f a p p p p f a v 1.i.",
"i.6.) g p > O h / / u O i p p p i p i i i p i i g [ 9.i.",
"i.i.1.N a p 2 o 5 J ~ ; O i p p i i i i i u i p I 6.i.i.",
"i.i.i.&.v a i 5 O @ h M ; o > i u u u u u 6 f H 1.i.i.i.",
"i.i.i.9.$.N a i u = o # p > X # u u u 5 u s K 1.i.i.i.i.",
"i.i.i.i.i.1.I h i u 5 = o o X   5 6 u p j ] 3.i.i.i.i.i.",
"i.i.i.i.i.i.6.$.K j p p u 5 : 5 i a x ) *.9.i.i.i.i.i.i.",
"i.i.i.i.i.i.i.i.7.*.] K n c v N I  .-.6.i.i.i.i.i.i.i.i."
};
