/* XPM */
static char *redo_sel[] = {
/* columns rows colors chars-per-pixel */
"32 32 256 2",
"   c #172613",
".  c #1B2D16",
"X  c #1E2C1A",
"o  c #1B3214",
"O  c #1F311A",
"+  c #222F1E",
"@  c #22311D",
"#  c #243B1D",
"$  c #253221",
"%  c #2A3E25",
"&  c #2F3D2B",
"*  c #303D2C",
"=  c #353F32",
"-  c #17430E",
";  c #19430E",
":  c #1A4B0D",
">  c #1D530F",
",  c #185D0E",
"<  c #1E4514",
"1  c #1C4B12",
"2  c #1D5611",
"3  c #1F5911",
"4  c #204416",
"5  c #224B15",
"6  c #24431C",
"7  c #264F1B",
"8  c #235415",
"9  c #235E12",
"0  c #2A531E",
"q  c #255F18",
"w  c #2B5B1D",
"e  c #1A6412",
"r  c #1C6B14",
"t  c #1E6D18",
"y  c #246113",
"u  c #286416",
"i  c #26611A",
"p  c #2A651B",
"a  c #2D6A1C",
"s  c #2E4426",
"d  c #2E4927",
"f  c #2D5223",
"g  c #2D5C20",
"h  c #36572D",
"j  c #375B2C",
"k  c #374333",
"l  c #394635",
"z  c #3C4539",
"x  c #3D493A",
"c  c #3B5434",
"v  c #3D5B35",
"b  c #2F6820",
"n  c #346426",
"m  c #336B23",
"M  c #356B2B",
"N  c #3B6D2D",
"B  c #35732D",
"V  c #3D6334",
"C  c #3D6E32",
"Z  c #3D7334",
"A  c #3C7C34",
"S  c #414B3D",
"D  c #41503D",
"F  c #406E33",
"G  c #456D3B",
"H  c #486A3E",
"J  c #417134",
"K  c #45733B",
"L  c #49723D",
"P  c #444B41",
"I  c #475244",
"U  c #4C5449",
"Y  c #4F594B",
"T  c #51584E",
"R  c #575E54",
"E  c #496C40",
"W  c #467340",
"Q  c #4C7442",
"!  c #4A7942",
"~  c #507446",
"^  c #54754C",
"/  c #5A6256",
"(  c #5B6258",
")  c #597751",
"_  c #5E7758",
"`  c #5F7859",
"'  c #607859",
"]  c #626760",
"[  c #646962",
"{  c #686B66",
"}  c #6A7367",
"|  c #6D7669",
" . c #70766D",
".. c #747772",
"X. c #777C74",
"o. c #7A7E77",
"O. c #7C7E7A",
"+. c #5D8955",
"@. c #638A5D",
"#. c #64975F",
"$. c #71856C",
"%. c #689962",
"&. c #7D827A",
"*. c #81857E",
"=. c #81A97D",
"-. c #858584",
";. c #858983",
":. c #8B8C8B",
">. c #949593",
",. c #989795",
"<. c #979896",
"1. c #999897",
"2. c gray60",
"3. c #90B18C",
"4. c #93A090",
"5. c #94AF91",
"6. c #96B192",
"7. c #9EB39B",
"8. c #A4A4A4",
"9. c #A9A9A9",
"0. c #A7BEA4",
"q. c #B2BFAF",
"w. c #BBBBBB",
"e. c #B0C4AC",
"r. c #B3C6B0",
"t. c #B7CBB6",
"y. c #BBCBB6",
"u. c #BCCEBA",
"i. c #C0C9BE",
"p. c gray76",
"a. c #C3C9C2",
"s. c #CBCBCA",
"d. c #C8D4C6",
"f. c #CED6CC",
"g. c LightGray",
"h. c #DCDEDB",
"j. c #DAE0DA",
"k. c #E0E4DF",
"l. c #E4E6E4",
"z. c #E8E8E6",
"x. c gray91",
"c. c None",
"v. c black",
"b. c black",
"n. c black",
"m. c black",
"M. c black",
"N. c black",
"B. c black",
"V. c black",
"C. c black",
"Z. c black",
"A. c black",
"S. c black",
"D. c black",
"F. c black",
"G. c black",
"H. c black",
"J. c black",
"K. c black",
"L. c black",
"P. c black",
"I. c black",
"U. c black",
"Y. c black",
"T. c black",
"R. c black",
"E. c black",
"W. c black",
"Q. c black",
"!. c black",
"~. c black",
"^. c black",
"/. c black",
"(. c black",
"). c black",
"_. c black",
"`. c black",
"'. c black",
"]. c black",
"[. c black",
"{. c black",
"}. c black",
"|. c black",
" X c black",
".X c black",
"XX c black",
"oX c black",
"OX c black",
"+X c black",
"@X c black",
"#X c black",
"$X c black",
"%X c black",
"&X c black",
"*X c black",
"=X c black",
"-X c black",
";X c black",
":X c black",
">X c black",
",X c black",
"<X c black",
"1X c black",
"2X c black",
"3X c black",
"4X c black",
"5X c black",
"6X c black",
"7X c black",
"8X c black",
"9X c black",
"0X c black",
"qX c black",
"wX c black",
"eX c black",
"rX c black",
"tX c black",
"yX c black",
"uX c black",
"iX c black",
"pX c black",
"aX c black",
"sX c black",
"dX c black",
"fX c black",
"gX c black",
"hX c black",
"jX c black",
"kX c black",
"lX c black",
"zX c black",
"xX c black",
"cX c black",
"vX c black",
"bX c black",
"nX c black",
"mX c black",
"MX c black",
"NX c black",
"BX c black",
"VX c black",
"CX c black",
"ZX c black",
"AX c black",
"SX c black",
"DX c black",
"FX c black",
"GX c black",
"HX c black",
"JX c black",
"KX c black",
"LX c black",
"PX c black",
"IX c black",
"UX c black",
/* pixels */
"c.c.c.c.c.c.c.c.c.c.c.c.c.c.c.c.c.c.c.c.c.c.c.c.c.c.c.c.c.c.c.c.",
"c.c.c.c.c.c.c.c.c.c.c.c.c.c.c.j.j.c.c.c.c.c.c.c.c.c.c.c.c.c.c.c.",
"c.c.c.c.c.c.c.c.c.c.l.=.A t r r r r t A %.x.c.c.c.c.c.c.c.c.c.c.",
"c.c.c.c.c.c.c.c.l.%.r m W ^ ` _ ` ' ^ W M r #.l.c.c.c.c.c.c.c.c.",
"c.c.c.c.c.c.c.u.t B ^ ^ ^ ~ Q Q ! Q ~ ) ) ~ Z t t.c.c.c.c.c.c.c.",
"c.c.c.c.c.c.3.e J ^ ~ L K J J H k Q J J L ~ ^ J r 3.c.c.c.c.c.c.",
"c.c.c.c.c.0.e K L L J C J J J H x S L Z J K K ~ K e e.c.c.c.c.c.",
"c.c.c.c.f.e C K J J J J J C N G x &.k H N m m m J C u f.c.c.c.c.",
"c.c.c.c.A M K J F C J N C C F F * &.:.U v m a a m Z N A c.c.c.c.",
"c.c.c.r., G F C F C F V v c x l P o.,.1.| l j n a m J , e.c.c.c.",
"c.c.c.B M N C C F v * U  .:.>.,.<.,.1.1.2.<.| k s g M M B c.c.c.",
"c.c.l.3 N N N h S [ :.1.2.2.,.,.1.1.1.>.1.<.2.>.} k @ N 3 l.c.c.",
"x.z.6.q M N d U >.2.,.,.,.,.,.2.2.<.1.,.2.<.o.Y s 6 g b i 5.c.c.",
"j.f.+.i m j S <.,.,.,.,.,.2.:. .] *.2.>.&.x # w a a p a i #.c.c.",
"d.y.J p m # ..2.,.,.,.2.;.T s #   &.<./ # w a a u a p a p ! c.c.",
"d.y.A i a X ;.1.,.,.2.;.* f a a & *.x 6 a a u u y y u u i K c.c.",
"j.f.W q a O *.2.,.,.1.T f a a 0 I * 7 u y y y y y y y u y L c.c.",
"x.l.@.9 p 6 { ,.,.1.1.S M a a 0 @ 7 y y 9 y y y y y y u y @.c.c.",
"c.c.7.2 u w k >.1.,.1.z p a a p 9 9 9 y 9 y y y y y u u 3 7.c.c.",
"c.c.l.> y p # ] 1.,.1.T 5 u u y 9 y 9 9 y y 9 y y u u y > z.c.c.",
"c.c.c.C 8 u i @ O.2.2.X.@ 9 9 9 9 9 y 9 y y 9 y u y u 3 C c.c.c.",
"c.c.c.a.: y u 0 $ &.2.<.I 4 9 9 9 9 y y y y 9 y y y y : u.c.c.c.",
"c.c.c.c.E > y y 5 @ o.2.*.@ 8 9 9 9 9 y y e 9 y y y 3 E c.c.c.c.",
"c.c.c.c.h.1 3 y y 5 X ( ,.X.+ 8 y y y y 9 y y y y 2 1 h.c.c.c.c.",
"c.c.c.c.c.i.: > 9 y 8 o * &.X.+ 5 9 9 9 y 9 9 9 > : i.c.c.c.c.c.",
"c.c.c.c.c.c.q.1 > y y y 5 . S R + . 9 9 9 9 9 2 1 e.c.c.c.c.c.c.",
"c.c.c.c.c.c.c.f.f : 8 9 9 9 1 o @   8 9 9 > 1 w f.c.c.c.c.c.c.c.",
"c.c.c.c.c.c.x.g.s.$.: ; > 3 3 9 9 3 3 > : 1  .s.g.x.c.c.c.c.c.c.",
"c.c.c.c.c.c.p.x.c.x.x.x.4.6 1 o - ; f a.s.g.h.g.w.w.c.c.c.c.c.c.",
"c.c.c.c.c.c.c.c.x.k.s.w.8.2.>.:.:.,.>.>.8.s.k.x.c.c.c.c.c.c.c.c.",
"c.c.c.c.c.c.c.c.x.g.2.-.;.-.-.-.-.-.-.-.*.2.g.x.c.c.c.c.c.c.c.c.",
"c.c.c.c.c.c.c.c.x.g.8.:.-.:.:.-.:.:.:.:.<.9.g.x.c.c.c.c.c.c.c.c."
};
