/* XPM */
static char *redo_dis[] = {
/* columns rows colors chars-per-pixel */
"28 28 111 2",
"   c #3F443A",
".  c #41443E",
"X  c #43493E",
"o  c #464D41",
"O  c #484F44",
"+  c #4A5145",
"@  c #4D5348",
"#  c #4F5849",
"$  c #525A4D",
"%  c #575F50",
"&  c #595E55",
"*  c #5B6355",
"=  c #5E6857",
"-  c #5F655A",
";  c #626A5B",
":  c #67715F",
">  c #666A62",
",  c #686A66",
"<  c #6B6C6B",
"1  c #6B7663",
"2  c #6F7B66",
"3  c #707C67",
"4  c #71766E",
"5  c #717D68",
"6  c #747672",
"7  c #777A75",
"8  c #787977",
"9  c #7B7C79",
"0  c #76836D",
"q  c #78856E",
"w  c #7C8972",
"e  c #7F807E",
"r  c #7F8B78",
"t  c #818E76",
"y  c #85937A",
"u  c #88977D",
"i  c #8A997F",
"p  c #838681",
"a  c #868C83",
"s  c #8C8C8B",
"d  c #8D9C82",
"f  c #909F84",
"g  c #929A8E",
"h  c #939492",
"j  c #979C93",
"k  c #8FA083",
"l  c #92A186",
"z  c #95A589",
"x  c #98A58F",
"c  c #96A88A",
"v  c #9AAA8E",
"b  c #9DAE91",
"n  c #A0A39D",
"m  c #A1B395",
"M  c #A5B798",
"N  c #A7B99A",
"B  c #AABC9D",
"V  c #A4A4A3",
"C  c #A7A8A6",
"Z  c gray67",
"A  c #A9B5A1",
"S  c #ADBFA1",
"D  c #AEB1AC",
"F  c #B3BCAD",
"G  c #B4B7B2",
"H  c #B6BBB3",
"J  c #BCBCBB",
"K  c #AFC2A1",
"L  c #B2C5A5",
"P  c #B4C8A6",
"I  c #B8C7AD",
"U  c #B7CAAA",
"Y  c #BACDAD",
"T  c #BDCCB2",
"R  c #BFD4B1",
"E  c #C0CEB6",
"W  c #C1D1B7",
"Q  c #C5D4BB",
"!  c #C8DBBC",
"~  c gray77",
"^  c #C6CCC2",
"/  c #CACACA",
"(  c #CBD7C3",
")  c #CDD9C4",
"_  c #D1D6CE",
"`  c #D3DECC",
"'  c #D5D5D5",
"]  c #D6DED1",
"[  c #D8DFD3",
"{  c #DEDDDE",
"}  c #D3E4C7",
"|  c #D5E2CD",
" . c #DAE1D5",
".. c #DCEAD4",
"X. c #DEE3DB",
"o. c #E0E4DD",
"O. c #E6EFDF",
"+. c #E5F1DD",
"@. c #E4E7E3",
"#. c #E7E8E6",
"$. c #E9E9E9",
"%. c #EAF3E4",
"&. c #EEF8E7",
"*. c #EFF5EA",
"=. c #F2FAEC",
"-. c #F3F3F3",
";. c #F6FEF1",
":. c #FAFEF5",
">. c #FEFEFE",
",. c black",
"<. c None",
/* pixels */
"<.<.<.<.<.<.<.<.#. .` | ....o...| ] X.#.<.<.<.<.<.<.<.<.",
"<.<.<.<.<.<.#.[  .%.>.>.>.>.>.>.>.:.%.|  .$.<.<.<.<.<.<.",
"<.<.<.<.<.o.| *.>.>.>.>.>.h J >.>.>.>.>.%.` @.<.<.<.<.<.",
"<.<.<.$. .| :.>.>.>.>.>.:.< < D >.>.>.>.>.;.| X.<.<.<.<.",
"<.<.<.[ | >.>.>.>.>.>.>.>.s / h h :.>.>.>.>.:.` o.<.<.<.",
"<.<.X.} :.>.>.>.>.>.>.>.>.G Z >.Z 8 ' >.>.>.>.;.) #.<.<.",
"<.#.) %.:.:.:.:.:.%._ G n 7 9 >.>.{ 9 h X.:.:.:.+.` $.<.",
"<.] ! *.=.=.o.D p 8 s C J ' -.>.>.>.>.J 8 s ^ %.=.! X.<.",
"#.W P ) ] j 6 V { >.>.>.>.>.>.>.>.>.>.>.>.~ s 7 y N ( <.",
" .P L x > C >.>.>.>.>.>.>.>.>.>.>.>.>.>.>.>.$.h o i Y @.",
") K v * ' >.>.>.>.>.>.>.>.>.>.>.>.>.>.>./ 9 - 5 d M K  .",
"W B > G >.>.>.>.>.>.>.>.$.~ / >.>.>.' 4 ; y m N M m N ( ",
"P v > >.>.>.>.>.>.>.H < - @ e >.>.h & y m m m m m m m Q ",
"P d 7 >.>.>.>.>.>.p - d m ; J #., : v m m b m b b b m T ",
"L i 6 >.>.>.>.>.G * b m v * C & w m v v v b v v x b b T ",
"P z - *.>.:.>.>.9 w b b d . + y b v v v v x v v x x b E ",
"T b * H :.;.;.;.4 r v v z q y v c x z z z z z z z l b ( ",
") m w > O.%.&.=.a 1 c z z z z z l z z l l z l l l l m  .",
" .N z % g +.+.+.F $ k k l l l l l l d l f f d d d d L @.",
"$.T z y + M ....| ; 5 k d d d d d d d d d d d d d z ( <.",
"<.] m d w O A | } A O y d d d d i i y d d d d y i B X.<.",
"<.#.E z d 3 o x ! ! r @ y i y u i i a d y y y y z ( $.<.",
"<.<.o.K d i 0 X w Y R 1 # y y y y y y y y y y d T #.<.<.",
"<.<.<. .B i y w # $ c P 1 o q y t y t t t t d P o.<.<.<.",
"<.<.<.$. .S d t t : o * u 5 X = t t t t t l I o.<.<.<.<.",
"<.<.<.<.<.o.T v y y w ; + +     w w r y b Q @.<.<.<.<.<.",
"<.<.<.<.<.<.$.] I v i u t q 2 w y k m T  .$.<.<.<.<.<.<.",
"<.<.<.<.<.<.<.<.#. .( U B N N K T ) X.$.<.<.<.<.<.<.<.<."
};
