/* XPM */
static char *redo[] = {
/* columns rows colors chars-per-pixel */
"32 32 256 2",
"   c #273D1F",
".  c #27401F",
"X  c #2A541E",
"o  c #266F17",
"O  c #296F18",
"+  c #2B7B15",
"@  c #2D4B25",
"#  c #314A2A",
"$  c #2E5423",
"%  c #305326",
"&  c #34512C",
"*  c #375F2B",
"=  c #374D31",
"-  c #3A4F32",
";  c #3B5234",
":  c #3B642F",
">  c #386A2B",
",  c #357124",
"<  c #367D21",
"1  c #387C25",
"2  c #3B712D",
"3  c #3C6032",
"4  c #3E6D31",
"5  c #3F7031",
"6  c #405739",
"7  c #406534",
"8  c #45663B",
"9  c #48693F",
"0  c #487F3A",
"q  c #4E6747",
"w  c #4F6549",
"e  c #50664A",
"r  c #4C7240",
"t  c #4C7941",
"y  c #5A6B54",
"u  c #5C7355",
"i  c #5F7658",
"p  c #63735D",
"a  c #647D5D",
"s  c #677861",
"d  c #6A7B64",
"f  c #6E7C68",
"g  c #707A6C",
"h  c #2E8017",
"j  c #2E8E1D",
"k  c #30841D",
"l  c #328C19",
"z  c #35941B",
"x  c #3C9F1E",
"c  c #2AA11C",
"v  c #2BAF1C",
"b  c #3BA01F",
"n  c #348322",
"m  c #398326",
"M  c #358C26",
"N  c #3C8A24",
"B  c #3E822B",
"V  c #379723",
"C  c #3C9322",
"Z  c #319F22",
"A  c #3B9B20",
"S  c #3D9E28",
"D  c #3DA221",
"F  c #33AB26",
"G  c #3CA02B",
"H  c #37AF2A",
"J  c #2FB021",
"K  c #3BB52E",
"L  c #3DB431",
"P  c #41832D",
"I  c #42882B",
"U  c #459D2D",
"Y  c #448434",
"T  c #468A32",
"R  c #498B36",
"E  c #4C8D3C",
"W  c #479331",
"Q  c #489631",
"!  c #4B9A34",
"~  c #41A423",
"^  c #43AB26",
"/  c #44A32E",
"(  c #46AB29",
")  c #4AAD2D",
"_  c #4CB22F",
"`  c #4CA632",
"'  c #44AD37",
"]  c #4FAD35",
"[  c #54AD3B",
"{  c #4CB230",
"}  c #4ABA3F",
"|  c #52B537",
" . c #55B33B",
".. c #4F8242",
"X. c #589047",
"o. c #5A9D47",
"O. c #5C924C",
"+. c #608656",
"@. c #629455",
"#. c #619852",
"$. c #64935A",
"%. c #659858",
"&. c #55A040",
"*. c #5AAF43",
"=. c #4CB942",
"-. c #52B645",
";. c #59B047",
":. c #5BB24D",
">. c #5EB852",
",. c #62B54B",
"<. c #63B94B",
"1. c #66A556",
"2. c #65B656",
"3. c #6AB655",
"4. c #67B951",
"5. c #6ABA54",
"6. c #6EBB5B",
"7. c #72BC5E",
"8. c #6B8264",
"9. c #71806B",
"0. c #778971",
"q. c #7E8D79",
"w. c #75AE64",
"e. c #78B167",
"r. c #72BB65",
"t. c #79BE65",
"y. c #79B46A",
"u. c #74BF6B",
"i. c #7DBF6B",
"p. c #7BAE71",
"a. c #7CBB72",
"s. c #77C86E",
"d. c #7AC070",
"f. c #808A7B",
"g. c #83937D",
"h. c #80B977",
"j. c #83B07A",
"k. c #85BB7B",
"l. c #81C26F",
"z. c #85C274",
"x. c #8BC37D",
"c. c #869381",
"v. c #919C8C",
"b. c #88BA80",
"n. c #96A390",
"m. c #98A393",
"M. c #A5B99F",
"N. c #A4ADA1",
"B. c #A9B1A5",
"V. c #A7BBA2",
"C. c #ADB3AA",
"Z. c gray",
"A. c #8CC482",
"S. c #93C685",
"D. c #97C78F",
"F. c #9DC593",
"G. c #9EC895",
"H. c #9CD298",
"J. c #A0C894",
"K. c #A0D39A",
"L. c #B3C2AE",
"P. c #B1D8AD",
"I. c #BBC3B6",
"U. c #BDCABB",
"Y. c #BBDAB7",
"T. c #BDD7BA",
"R. c #BED8BB",
"E. c #C1C6BE",
"W. c gray76",
"Q. c #C7CDC2",
"!. c #C8CFC5",
"~. c #CACACA",
"^. c #C4D4C1",
"/. c #CDD4C7",
"(. c #C9DEC6",
"). c #CDD3C9",
"_. c #CEDBCB",
"`. c #D0D4CD",
"'. c #D2DACD",
"]. c LightGray",
"[. c #D5DDD2",
"{. c #D8DDD5",
"}. c #DBDCDB",
"|. c #CFE0CC",
" X c #D3E3D1",
".X c #DBE3D7",
"XX c #DDE4DA",
"oX c #E1E5DD",
"OX c #E2E3E2",
"+X c #E5E9E5",
"@X c #EAECE5",
"#X c #E9E9E9",
"$X c #F7F5F3",
"%X c #F6FAF3",
"&X c #F8FCF6",
"*X c #FEFDFC",
"=X c None",
"-X c black",
";X c black",
":X c black",
">X c black",
",X c black",
"<X c black",
"1X c black",
"2X c black",
"3X c black",
"4X c black",
"5X c black",
"6X c black",
"7X c black",
"8X c black",
"9X c black",
"0X c black",
"qX c black",
"wX c black",
"eX c black",
"rX c black",
"tX c black",
"yX c black",
"uX c black",
"iX c black",
"pX c black",
"aX c black",
"sX c black",
"dX c black",
"fX c black",
"gX c black",
"hX c black",
"jX c black",
"kX c black",
"lX c black",
"zX c black",
"xX c black",
"cX c black",
"vX c black",
"bX c black",
"nX c black",
"mX c black",
"MX c black",
"NX c black",
"BX c black",
"VX c black",
"CX c black",
"ZX c black",
"AX c black",
"SX c black",
"DX c black",
"FX c black",
"GX c black",
"HX c black",
"JX c black",
"KX c black",
"LX c black",
"PX c black",
"IX c black",
"UX c black",
/* pixels */
"=X=X=X=X=X=X=X=X=X=X=X=X=X=X=X=X=X=X=X=X=X=X=X=X=X=X=X=X=X=X=X=X",
"=X=X=X=X=X=X=X=X=X=X=X=X=X=X=X+X+X=X=X=X=X=X=X=X=X=X=X=X=X=X=X=X",
"=X=X=X=X=X=X=X=X=X=X+XP.s.} v J J v } s.P.+X=X=X=X=X=X=X=X=X=X=X",
"=X=X=X=X=X=X=X=X@XK.K -.u.A.G.F.F.J.A.u.-.K H.@X=X=X=X=X=X=X=X=X",
"=X=X=X=X=X=X=X X} <.x.x.x.z.l.d.l.l.z.x.D.x.<.=. X=X=X=X=X=X=X=X",
"=X=X=X=X=X=XY.H 5.x.z.d.7.7.6.y.u i.7.7.d.z.x.6.H Y.=X=X=X=X=X=X",
"=X=X=X=X=X(.H r.l.t.6.5.5.5.4.e.f 8.r.5.5.7.t.z.r.F |.=X=X=X=X=X",
"=X=X=X=XXX' 2.r.7.5.5.5.5.5.3.7.a '.y w.<.| | | 6.2.' .X=X=X=X=X",
"=X=X=X=Xd.:.7.6.5.3.4.5.5.4.3.3.w '.@Xf.X. .{ { { 5.:.d.=X=X=X=X",
"=X=X=X|.c 6.5.4.4.4.3.1.%.+.a p g /.*X&XI.p X.[ { | 7.c |.=X=X=X",
"=X=X=Xr.*.,.4.4.3.$.w q.I.@X$X*X*X*X*X*X*X&XI.u r &.*.;.r.=X=X=X",
"=X=X#XZ ,.:.4.O.8.B.#X*X*X*X*X*X*X*X*X*X*X*X*X&XL.y & :.Z #X=X=X",
"#X#XT.G  .,.t q.%X*X*X*X&X*X*X*X*X*X*X*X*X&X).g.r 5 Q | G R.=X=X",
"+XXXD./  .o.f *X*X*X*X*X*X*XoXE.N.'.*X&X'.8.3 Q ] ) ( ] / G.=X=X",
".X Xh./ [ 3 W.*X*X*X*X*XoXf.8 >   ^.&Xm.3 Q _ _ ^ ( ( ( / k.=X=X",
".X Xi./ ] # .X*X*X*X*X.Xe R { ` w XXs 2 ) ( ( ~ ~ D ~ ^ / h.=X=X",
"OXXXk.G ] @ {.*X*X*X*Xc.E _ ) T 0.y B ~ ~ ~ D ~ D D ~ ~ U k.=X=X",
"#X@XF.V ( 4 C.*X&X*X*Xs [ | { R - P b b b b b b D D ~ ~ z G.=X=X",
"=X=X^.j ~ ! y &X*X*X*Xp ` ) ) ) x b x x b b b D b D ~ ^ j ^.=X=X",
"=X=X@XM G ( : N.*X&X*Xc.1 ~ ~ b x x x b b b b D ~ ~ ~ D M #X=X=X",
"=X=X=Xp.z D / ; ).*X*X!.% D x x x x x x b b D D ~ D D z p.=X=X=X",
"=X=X=X Xn D ~ I 6 `.*X&Xg , D x x x x x b D D D D D D k [.=X=X=X",
"=X=X=X=Xj.l D ~ 1 ; ).*X.X- I x x x x D b D D D D D l j.=X=X=X=X",
"=X=X=X=XOXE l D D m # m.*X^.# N ~ x x b b b b b b z E #X=X=X=X=X",
"=X=X=X=X=X[.B l x x C X y ].E.; 1 x x x x x x b j n [.=X=X=X=X=X",
"=X=X=X=X=X=X_.Y l x x x < X f v.- % z x b b x k Y _.=X=X=X=X=X=X",
"=X=X=X=X=X=X=X.X@.+ z x x x < X %   N x x z + #..X=X=X=X=X=X=X=X",
"=X=X=X=X=X=X#XOX}.V.Y + k z z x x z z h + Y V.}.OX#X=X=X=X=X=X=X",
"=X=X=X=X=X=X{.#X=X#X#X#XE...0 O O 0 @.{.}.XX#X}.].].=X=X=X=X=X=X",
"=X=X=X=X=X=X=X=X#X#XOX].].~.W.W.W.~.W.~.~.}.#X#X=X=X=X=X=X=X=X=X",
"=X=X=X=X=X=X=X=X#XOX~.Z.Z.Z.Z.Z.Z.Z.Z.Z.Z.~.OX#X=X=X=X=X=X=X=X=X",
"=X=X=X=X=X=X=X=X#XOX~.W.W.W.W.Z.E.W.W.W.~.].OX#X=X=X=X=X=X=X=X=X"
};
