/* XPM */
static char *redo[] = {
/* columns rows colors chars-per-pixel */
"28 44 194 2",
"   c #010101",
".  c gray4",
"X  c #131313",
"o  c gray11",
"O  c #223E0D",
"+  c #243E12",
"@  c #232323",
"#  c #2F2F2F",
"$  c #313131",
"%  c #3A3A3A",
"&  c #26460E",
"*  c #27490E",
"=  c #2B500F",
"-  c #2E5B0F",
";  c #264410",
":  c #2A4716",
">  c #2B4916",
",  c #2D4819",
"<  c #2E5214",
"1  c #305713",
"2  c #335C14",
"3  c #385F1A",
"4  c #356611",
"5  c #386715",
"6  c #376B12",
"7  c #386C11",
"8  c #3A6619",
"9  c #3A6B1A",
"0  c #3B7313",
"q  c #3F7A13",
"w  c #334922",
"e  c #3D5C26",
"r  c #417D14",
"t  c #405F2B",
"y  c #405531",
"u  c #437920",
"i  c #4B603B",
"p  c #434343",
"a  c #4E4E4E",
"s  c gray33",
"d  c #5A5B5A",
"f  c #566B47",
"g  c #54614A",
"h  c #59664E",
"j  c #5D6C52",
"k  c #617F4B",
"l  c #626D5A",
"z  c #627356",
"x  c #67715F",
"c  c #646463",
"v  c #696F64",
"b  c #697263",
"n  c #6C7A61",
"m  c #6F726C",
"M  c #70736E",
"N  c #747C6E",
"B  c #717171",
"V  c #7A7D77",
"C  c #7C7D7C",
"Z  c #458415",
"A  c #468B13",
"S  c #498C17",
"D  c #4B8F18",
"F  c #459010",
"G  c #4B9414",
"H  c #4C9C13",
"J  c #4D9318",
"K  c #4E9818",
"L  c #509F16",
"P  c #519C19",
"I  c #4FA213",
"U  c #51A316",
"Y  c #53A914",
"T  c #55A31B",
"R  c #58A61C",
"E  c #57AB1B",
"W  c #58A81C",
"Q  c #56B316",
"!  c #5CB51D",
"~  c #599631",
"^  c #5CAD23",
"/  c #61BB24",
"(  c #62B22B",
")  c #64B929",
"_  c #67B431",
"`  c #6BB737",
"'  c #6CBE33",
"]  c #71C836",
"[  c #658053",
"{  c #6A8C54",
"}  c #6AA542",
"|  c #73BB42",
" . c #78BE48",
".. c #73A353",
"X. c #738367",
"o. c #768E64",
"O. c #7B8276",
"+. c #7B8871",
"@. c #77C244",
"#. c #7BC44A",
"$. c #7EC151",
"%. c #82897C",
"&. c #859579",
"*. c #80AB64",
"=. c #8BA27A",
"-. c #81C454",
";. c #87C857",
":. c #8ECE62",
">. c #92CC6B",
",. c #91D564",
"<. c #95D16D",
"1. c #96CD71",
"2. c #99CF74",
"3. c #9CCF7A",
"4. c #9BD475",
"5. c #9ED47A",
"6. c #A0D77A",
"7. c #A2DA7C",
"8. c #838483",
"9. c #848881",
"0. c #8B8B8B",
"q. c #91998C",
"w. c #959694",
"e. c #979897",
"r. c gray61",
"t. c #92AB82",
"y. c #97A68C",
"u. c #96A988",
"i. c #9BA395",
"p. c #A0B98D",
"a. c #A7A7A7",
"s. c #A7ACA3",
"d. c #AAABAA",
"f. c gray71",
"g. c #B8B7B8",
"h. c #BCBCBC",
"j. c #A4CC85",
"k. c #A3D483",
"l. c #A9DA87",
"z. c #A9D68B",
"x. c #AFDE8F",
"c. c #ACC29B",
"v. c #AEDA91",
"b. c #B2DE93",
"n. c #B2D19B",
"m. c #B4D89D",
"M. c #B4E295",
"N. c #B6E199",
"B. c #B2C2A6",
"V. c #B8CEA7",
"C. c #BADAA4",
"Z. c #BDDBAA",
"A. c #BDE1A2",
"S. c #C0DCAE",
"D. c #C2DDB1",
"F. c #C7DEB9",
"G. c #C3E6AB",
"H. c #C6EBAE",
"J. c #C9E8B4",
"K. c #CBE0BD",
"L. c #CEE9B9",
"P. c #D1EBBE",
"I. c #C3C3C4",
"U. c #CBCBCB",
"Y. c #CCD2C7",
"T. c #D4D3D4",
"R. c #DDDDDD",
"E. c #CDE1C1",
"W. c #D5EEC3",
"Q. c #D8E6CE",
"!. c #DAEECB",
"~. c #DCF0CC",
"^. c #D7E4D1",
"/. c #DAE5D4",
"(. c #DFE6DD",
"). c #E1E7DE",
"_. c #E2E8DF",
"`. c #E1F3D4",
"'. c #E5F4DA",
"]. c #E2E3E2",
"[. c #E6EBE3",
"{. c #E9ECE7",
"}. c #EAEAEA",
"|. c #ECF7E5",
" X c #EEF8E7",
".X c #EEF7E9",
"XX c #EFF8E9",
"oX c #F0F9EA",
"OX c #F3F3F3",
"+X c #F6FBF3",
"@X c #F9FCF7",
"#X c #FEFEFE",
"$X c black",
"%X c None",
/* pixels */
"%X%X%X%X%X%X%X%X).Z.k.4.4.6.6.4.5.z.K.].%X%X%X%X%X%X%X%X",
"%X%X%X%X%X%X(.C.6.N.!.|.+X@X@XOX|.P.b.7.D.[.%X%X%X%X%X%X",
"%X%X%X%X%XE.4.N.'.+X+X+X{.8.d.#X+X@X+X`.x.k.Q.%X%X%X%X%X",
"%X%X%X}.Z.<.P..X X X X X/.h c i.|. X XXX XJ.4.Y.%X%X%X%X",
"%X%X%XS.<.W.'.'.`.'.'.'.'.O.g.8.%.Q.'.'.'.|.L.<.E.%X%X%X",
"%X%XK.:.J.~.!.!.!.!.!.~.`.y.r.OXr.v B.!.!.!.!.G.<./.%X%X",
"%X_.<.b.P.J.L.P.L.S.c.u.&.l B #X#XU.m +.V.P.P.P.l.k.{.%X",
"%Xm.@.m.G.G.n.=.n b V w.d.I.R.#X#X#XOXa.v X.p.Z.A.#.E.%X",
"_.#.! ;.j.o.l w.I.}.#X#X#X#X#X#X#X#X#X#X}.f.V x [ T >.%X",
"D.! ! P i e.}.#X#X#X#X#X#X#X#X#X#X#X#X#X#X#XT.C w A ' ^.",
"2.Q P y h.#X#X#X#X#X#X#X#X#X#X#X#X#X#XOXg.v t u D R E C.",
"@.E 8 a.#X#X#X#X#X#X#XOXT.f.f.@X#X#XI.l 3 Z T W R T Y 4.",
") L i }.#X@X@X@X@XOXs.h e * M #X}.9.3 Z T T T T T T T -.",
"! A l .XXXXXoXoX|.N 2 S T 5 s.U.g 4 P P T P P T P P U @.",
"! A j '.'.'.'.'.i.2 L T P t q.y r P P P P P P P P P L @.",
") G t F.W.W.P.W.z q P P S + w Z P P P P K P P K P P L -.",
"@.U 2 t.H.H.A.H.f Z P K K q S K K P J K K K K J J J H 2.",
"2.I q i v.M.M.M.k 7 P J J K J J J J J J J J J J J J U C.",
"Z.^ J 1 { l.l.7.*.< J J J J J J J D J D D D D D D J _ ^.",
"(. .H A > ..,.,.:.t 9 D D D S S D D D D D S D S S G 1.%X",
"%XC.I S q , } #.-.} > Z S S S S S S D S Z D S S S ^ K.%X",
"%X[.$.G S 0 : ~ ] ] Z = Z S S S S Z S Z S Z S Z H 3.}.%X",
"%X%XE.( F S q & u / ) 9 < Z S A Z Z Z Z Z Z Z S  ./.%X%X",
"%X%X%XZ.^ A Z r = < K ! 6 * 0 Z Z Z Z Z Z r D ` E.%X%X%X",
"%X%X%X}.Z.( F Z Z 4 ; - A 0 ; - Z Z r Z Z F | E.%X%X%X%X",
"%X%X%X%X%XE.$.H Z Z r 4 * * O O q r r Z H >./.%X%X%X%X%X",
"%X%X%X%X%X%X_.m. .H F Z r q 0 q Z F R -.S.}.%X%X%X%X%X%X",
"%X%X%X%X%X%X%X%X_.Z.>.| ^ E E (  .3.F.[.%X%X%X%X%X%X%X%X",
"%X%X%X%X%X%X%X%X%X%X%X%X%X%X%X%X%X%X%X%X%X%X%X%X%X%X%X%X",
"%X%X%X%X%X%X%X%X%X%X%X%X%X%X%X%X%X%X%X%X%X%X%X%X%X%X%X%X",
"%X%X%X%X%X%X%X%X%X%X%X%X%X%X%X%X%X%X%X%X%X%X%X%X%X%X%X%X",
"%X%X%X%X%X%X%X%X%X%X%X%X%X%X%X%X%X%X%X%X%X%X%X%X%X%X%X%X",
"%X      o a.%X%X%X%X%X%X%X%X%X%X%X%X%X%X  %X%X%X%X%X%X%X",
"%X  }.R.8.X %X%X%X%X%X%X%X%X%X%X%X%X%X%X  %X%X%X%X%X%X%X",
"%X  %X%XR.. %X%X%XR.p . @ g.%X%XU.$ . B   %X%XU.$   % R.",
"%X  }.U.d d %X%X%Xa a.].d.$ %X%Xa B ].e.  %X%Xp C }.C s ",
"%X      % ].%X%X%X.         %X%X. R.%X%X  %X%X. R.%XR.. ",
"%X  %Xr.. h.%X%X%XX R.%X%X%X%X%X. R.%X%X  %X%X. R.%XR.. ",
"%X  %X%XB @ R.%X%Xd s T.].f.%X%X$ 0.R.8.  %X%Xp V ].C % ",
"%X  %X%X}.p s %X%XR.d . . % %X%Xf.o . 0.  %X%XU.#   # I.",
"%X%X%X%X%X%X%X%X%X%X%X%X%X%X%X%X%X%X%X%X%X%X%X%X%X%X%X%X",
"%X%X%X%X%X%X%X%X%X%X%X%X%X%X%X%X%X%X%X%X%X%X%X%X%X%X%X%X",
"%X%X%X%X%X%X%X%X%X%X%X%X%X%X%X%X%X%X%X%X%X%X%X%X%X%X%X%X",
"%X%X%X%X%X%X%X%X%X%X%X%X%X%X%X%X%X%X%X%X%X%X%X%X%X%X%X%X"
};
