/* XPM */
static char *redo[] = {
/* columns rows colors chars-per-pixel */
"28 28 178 2",
"   c #223E0D",
".  c #2D3E20",
"X  c #26460E",
"o  c #27490E",
"O  c #2B500F",
"+  c #2E5B0F",
"@  c #264410",
"#  c #2A4716",
"$  c #2B4916",
"%  c #2D4819",
"&  c #2E5214",
"*  c #305713",
"=  c #335C14",
"-  c #385F1A",
";  c #356611",
":  c #386715",
">  c #376B12",
",  c #3A6619",
"<  c #3A6B1A",
"1  c #3B7313",
"2  c #3F7A13",
"3  c #334922",
"4  c #385721",
"5  c #3D5C26",
"6  c #3F572D",
"7  c #417D14",
"8  c #405F2B",
"9  c #405531",
"0  c #445B33",
"q  c #437920",
"w  c #4A7E27",
"e  c #4B603B",
"r  c #566B47",
"t  c #54614A",
"y  c #59664E",
"u  c #626D5A",
"i  c #627356",
"p  c #67715F",
"a  c #646463",
"s  c #696F64",
"d  c #697263",
"f  c #6C7A61",
"g  c #6F726C",
"h  c #70736E",
"j  c #747C6E",
"k  c #7A7D77",
"l  c #7A7D78",
"z  c #458415",
"x  c #468B13",
"c  c #498C17",
"v  c #4B8F18",
"b  c #459010",
"n  c #4B9414",
"m  c #4C9C13",
"M  c #4D9318",
"N  c #4E9818",
"B  c #509F16",
"V  c #519C19",
"C  c #51A316",
"Z  c #53A914",
"A  c #55A31B",
"S  c #58A61C",
"D  c #57AB1B",
"F  c #58A81C",
"G  c #56B316",
"H  c #5CB51D",
"J  c #599631",
"K  c #5CAD23",
"L  c #61BB24",
"P  c #62B22B",
"I  c #64B929",
"U  c #67B431",
"Y  c #6BB737",
"T  c #6CBE33",
"R  c #62C023",
"E  c #71C836",
"W  c #658053",
"Q  c #6A8C54",
"!  c #6AA542",
"~  c #73BB42",
"^  c #78BE48",
"/  c #73A353",
"(  c #738367",
")  c #768E64",
"_  c #7B8276",
"`  c #7B8871",
"'  c #77C244",
"]  c #7BC44A",
"[  c #82897C",
"{  c #859579",
"}  c #81CF4D",
"|  c #81C454",
" . c #87C857",
".. c #8ECE62",
"X. c #92CC6B",
"o. c #91D564",
"O. c #95D16D",
"+. c #96CD71",
"@. c #99CF74",
"#. c #9CCF7A",
"$. c #9BD475",
"%. c #9ED47A",
"&. c #A0D77A",
"*. c #A2DA7C",
"=. c #838482",
"-. c #848881",
";. c #91998C",
":. c #959694",
">. c #979897",
",. c #9B9C9B",
"<. c #92AB82",
"1. c #97A68C",
"2. c #96A988",
"3. c #9BA395",
"4. c #A0B98D",
"5. c #A7A7A7",
"6. c #A7ACA3",
"7. c #ABACAA",
"8. c #B3B4B3",
"9. c #B8B7B8",
"0. c #BCBBBC",
"q. c #A4CC85",
"w. c #A3D483",
"e. c #A9DA87",
"r. c #A9D68B",
"t. c #AEDA91",
"y. c #B2DE93",
"u. c #B2D19B",
"i. c #B4D89D",
"p. c #B4E295",
"a. c #B6E199",
"s. c #B2C2A6",
"d. c #B8CEA7",
"f. c #BADAA4",
"g. c #BDDBAA",
"h. c #BDE1A2",
"j. c #C0DCAE",
"k. c #C2DDB1",
"l. c #C7DEB9",
"z. c #C3E6AB",
"x. c #C6EBAE",
"c. c #C9E8B4",
"v. c #CBE0BD",
"b. c #CEE9B9",
"n. c #D1EBBE",
"m. c #C3C2C3",
"M. c gray79",
"N. c #CCD2C7",
"B. c #D4D3D5",
"V. c #DDDDDD",
"C. c #CDE1C1",
"Z. c #D0E2C4",
"A. c #D5EEC3",
"S. c #D8E6CE",
"D. c #DAEECB",
"F. c #DCF0CC",
"G. c #D7E4D1",
"H. c #DAE5D4",
"J. c #DFE6DD",
"K. c #E1E7DE",
"L. c #E2E8DF",
"P. c #E1F3D4",
"I. c #E5F4DA",
"U. c #E3E7E3",
"Y. c #E6EBE3",
"T. c #E9ECE7",
"R. c #EAEAEA",
"E. c #ECF7E5",
"W. c #EEF8E7",
"Q. c #EEF7E9",
"!. c #EFF8E9",
"~. c #F0F9EA",
"^. c #F3F3F3",
"/. c #F6FBF3",
"(. c #F9FCF7",
"). c #FEFEFE",
"_. c black",
"`. c None",
/* pixels */
"`.`.`.`.`.`.`.`.J.g.w.$.%.%.%.$.$.r.l.U.`.`.`.`.`.`.`.`.",
"`.`.`.`.`.`.L.f.&.a.A.W./.(.(./.E.A.t.w.k.Y.`.`.`.`.`.`.",
"`.`.`.`.`.C.$.p.I./././.R.=.7././././.I.t.w.G.`.`.`.`.`.",
"`.`.`.R.j.O.n.W.!.!.W.W.K.y a 3.W.Q.W.~.!.c.O.C.`.`.`.`.",
"`.`.`.g.O.A.I.I.I.I.I.I.I._ 9.=.[ S.I.I.I.E.b.O.C.`.`.`.",
"`.`.Z...b.D.D.D.D.F.F.P.P.2.,.(.,.s s.F.D.D.D.z.X.J.`.`.",
"`.U.X.y.b.b.b.n.b.j.4.1.{ u h ).).M.h ` d.n.n.n.e.w.R.`.",
"`.i.E h.z.z.u.{ f p l :.7.m.V.).).).^.5.s ( 4.j.h.] C.`.",
"L.] H  .q.) u :.M.R.).).).).).).).).).).R.8.k u W A +.`.",
"k.H H N 0 >.U.).).).).).).).).).).).).).).).B.=.. c T G.",
"@.G V 9 m.).).).).).).).).).).).).).).^.0.d 5 1 M A G f.",
"' D , 5.).).).).).).).^.B.8.8.).).).m.u - z A F S S Z +.",
"I B e R.(.(.(.(.(.^.6.y 5 o g (.T.-.4 z S S S S A A C | ",
"H x i ~.!.!.~.~.E.j = x A : 6.N.t : V V V V V V V A C ' ",
"H x u P.I.I.I.I.3.* V A V 6 ;.9 7 V V V V V V V V V B ' ",
"I n 0 l.A.A.n.A.i 7 V V c % 3 z V V V V V V N N V N B | ",
"~ C = <.x.z.x.z.r z N N N 2 c N N N V M N V M M M M m @.",
"@.C 7 e t.y.p.a.W < N N N N M N M M M M M M M M M M Z f.",
"j.F N * Q *.*.*./ 4 v M M M M v v M v v v v v v M c U G.",
"L.^ n x $ / o.o...8 1 M v v v v v v v v v v v v v n X.`.",
"`.i.C v 7 % ! } ] ! & z v v v c c c c c c c c z x K v.`.",
"`.K.| n c 1 # J E E z $ z c z c z c z c c z c z m #.T.`.",
"`.`.Z.P x x 7 @ q L R < & z z z z c z z z z 7 v ^ J.`.`.",
"`.`.`.j.K x z 7 O & N G > o 2 z z 7 z z z z c Y Z.`.`.`.",
"`.`.`.R.g.P b z z ; X + x 1   + 7 z 7 w z b Y C.`.`.`.`.",
"`.`.`.`.`.C.^ N z z 7 ; o o @   7 7 7 x V X.H.`.`.`.`.`.",
"`.`.`.`.`.`.K.i.~ A x x z 1 1 2 x x S | k.Y.`.`.`.`.`.`.",
"`.`.`.`.`.`.`.`.K.j.+.Y K D D P ^ #.l.U.`.`.`.`.`.`.`.`."
};
