/* XPM */
static char *redo[] = {
/* columns rows colors chars-per-pixel */
"32 32 256 2",
"   c #29541C",
".  c #2D641D",
"X  c #2E701B",
"o  c #2F7D19",
"O  c #317C1A",
"+  c #314F28",
"@  c #2F5F21",
"#  c #315C25",
"$  c #375A2C",
"%  c #395C30",
"&  c #377325",
"*  c #377228",
"=  c #3A732A",
"-  c #3C7D2A",
";  c #3F6633",
":  c #3F6B33",
">  c #416D35",
",  c #46633D",
"<  c #466A3B",
"1  c #486C3D",
"2  c #427434",
"3  c #447935",
"4  c #4A6343",
"5  c #536C4C",
"6  c #55774B",
"7  c #53784A",
"8  c #576F51",
"9  c #5A7053",
"0  c #5B7B52",
"q  c #627C5B",
"w  c #697E63",
"e  c #34841C",
"r  c #378C1E",
"t  c #36931B",
"y  c #38951E",
"u  c #3B9E1E",
"i  c #3BA01E",
"p  c #378C21",
"a  c #3A8C25",
"s  c #3E8429",
"d  c #3D8D28",
"f  c #3D9623",
"g  c #3B9B22",
"h  c #3F9D29",
"j  c #3DA221",
"k  c #408E2B",
"l  c #41932A",
"z  c #459B2C",
"x  c #448234",
"c  c #468D34",
"v  c #498C37",
"b  c #4E873E",
"n  c #4A893B",
"m  c #429730",
"M  c #499436",
"N  c #469833",
"B  c #4C9339",
"V  c #51953F",
"C  c #41A523",
"Z  c #43A926",
"A  c #44A42A",
"S  c #48A62C",
"D  c #46AA29",
"F  c #49AC2C",
"G  c #4CB22E",
"H  c #49A732",
"J  c #4DAB35",
"K  c #4DA53B",
"L  c #4CAB3B",
"P  c #51AD37",
"I  c #52AC3B",
"U  c #4EB133",
"Y  c #51B535",
"T  c #54B439",
"R  c #59B33E",
"E  c #528345",
"W  c #548E45",
"Q  c #549543",
"!  c #589747",
"~  c #559943",
"^  c #579248",
"/  c #599449",
"(  c #62805A",
")  c #68825F",
"_  c #649757",
"`  c #619852",
"'  c #51A142",
"]  c #56AA45",
"[  c #5CA34B",
"{  c #55B246",
"}  c #5CB444",
"|  c #5EB844",
" . c #5CB54D",
".. c #5BB84F",
"X. c #5DAE50",
"o. c #5FB352",
"O. c #5EBB52",
"+. c #62AB4E",
"@. c #63B54C",
"#. c #65B94E",
"$. c #67A35B",
"%. c #67AE5B",
"&. c #64B654",
"*. c #67B951",
"=. c #6ABB54",
"-. c #64B459",
";. c #6BB15E",
":. c #65BC59",
">. c #6DBC5A",
",. c #72BD5C",
"<. c #6C8863",
"1. c #73896C",
"2. c #6F9E63",
"3. c #7C9375",
"4. c #7F9179",
"5. c #6DA060",
"6. c #6DAC61",
"7. c #71A665",
"8. c #73A966",
"9. c #76A76A",
"0. c #79A76C",
"q. c #75BD63",
"w. c #7ABD6C",
"e. c #7CB472",
"r. c #6CC264",
"t. c #7AC067",
"y. c #74C46B",
"u. c #7DC06B",
"i. c #77C570",
"p. c #78C370",
"a. c #839B7B",
"s. c #85AF7B",
"d. c #81C16F",
"f. c #85C275",
"g. c #83C47B",
"h. c #8BC37D",
"j. c #84C97D",
"k. c #869580",
"l. c #8A9B84",
"z. c #8FAE88",
"x. c #94BF8D",
"c. c #98A593",
"v. c #9EAA98",
"b. c #9CBD93",
"n. c #A0AF9A",
"m. c #AAB7A5",
"M. c #ABB8A5",
"N. c #B1B3AD",
"B. c #B4BDAF",
"V. c #B8BFB4",
"C. c #8CC483",
"Z. c #8CCC85",
"A. c #90C584",
"S. c #95C689",
"D. c #91CD89",
"F. c #9EC796",
"G. c #9BCD94",
"H. c #9CD296",
"J. c #9DD398",
"K. c #A4C49E",
"L. c #A4CD9D",
"P. c #A3D39E",
"I. c #A7C3A1",
"U. c #A8C4A1",
"Y. c #AFCFAB",
"T. c #B1C1AC",
"R. c #B4CDAF",
"E. c #A8D6A3",
"W. c #ADD6A9",
"Q. c #B1D6AD",
"!. c #B1D8AC",
"~. c #B6C0B0",
"^. c #BCC6B7",
"/. c #BACCB6",
"(. c #BCDBB9",
"). c #C2CCBC",
"_. c #C0D9BD",
"`. c #C7CDC3",
"'. c #CACFC8",
"]. c #C7D2C3",
"[. c #CBD3C6",
"{. c #C7DFC3",
"}. c #C8DDC6",
"|. c #CDD3C8",
" X c #CDDCCB",
".X c #D2DACE",
"XX c #D7D6D6",
"oX c #D8D7D7",
"OX c #D4DCD2",
"+X c #D8DCD5",
"@X c #DCDCDB",
"#X c #E0DFDF",
"$X c #C7E0C5",
"%X c #CEE1CC",
"&X c #D6E3D4",
"*X c #DEE5DB",
"=X c #E0E6DE",
"-X c #E4E5E3",
";X c #E6E9E5",
":X c #E8ECE4",
">X c #E9EAE9",
",X c #EBF0E6",
"<X c #EFF2EB",
"1X c #F1F3EC",
"2X c #F5F6F1",
"3X c #FAFBF6",
"4X c #FEFCFB",
"5X c None",
"6X c black",
"7X c black",
"8X c black",
"9X c black",
"0X c black",
"qX c black",
"wX c black",
"eX c black",
"rX c black",
"tX c black",
"yX c black",
"uX c black",
"iX c black",
"pX c black",
"aX c black",
"sX c black",
"dX c black",
"fX c black",
"gX c black",
"hX c black",
"jX c black",
"kX c black",
"lX c black",
"zX c black",
"xX c black",
"cX c black",
"vX c black",
"bX c black",
"nX c black",
"mX c black",
"MX c black",
"NX c black",
"BX c black",
"VX c black",
"CX c black",
"ZX c black",
"AX c black",
"SX c black",
"DX c black",
"FX c black",
"GX c black",
"HX c black",
"JX c black",
"KX c black",
"LX c black",
"PX c black",
"IX c black",
"UX c black",
/* pixels */
"5X5X5X5X5X5X5X5X5X5X5X5X5X5X5X>X>X>X5X5X5X5X5X5X5X5X5X5X5X5X5X5X",
"5X5X5X5X5X5X5X5X5X5X5X:X$X!.J.H.H.J.E.(.&X>X5X5X5X5X5X5X5X5X5X5X",
"5X5X5X5X5X5X5X5X5X*X!.D.i.:.O.*.O.*.O.r.j.J.{.;X5X5X5X5X5X5X5X5X",
"5X5X5X5X5X5X5X;X(.Z.:.=.y.C.D.S.S.S.C.j.q.O.y.E.&X5X5X5X5X5X5X5X",
"5X5X5X5X5X5X-XW.:.:.f.h.f.d.u.t.t.t.d.f.h.h.u.O.Z.%X>X5X5X5X5X5X",
"5X5X5X5X5X;XP...=.d.d.t.,.,.=.=.=.=.=.,.t.u.f.u...y.%X5X5X5X5X5X",
"5X5X5X5X>XQ...&.s.,.>.=.=.=.=./ 1 +.=.=.=.=.=.,.q.{ g.&X5X5X5X5X",
"5X5X5X>X}.>. .q.,.=.=.=.=.=.*./ <.0 +.#.| T Y Y @.*.{ G.-X5X5X5X",
"5X5X5X-Xg. .>.,.&.=.#.=.=.=.=.X.3.].q c G G G G U | #.&.(.5X5X5X",
"5X5X>X(. .@.>.&.&.=.=.=.@.! ! E 8 :X=Xa.3 z G G G U @.L C.*X5X5X",
"5X5X-Xg.] #.#.#.*.#./ 7 ( a.v.B.|.2X4X2X).<.3 l S G Y { o.(.5X5X",
">X5X&X-.I @.#.#.~ 7 l.[.>X4X4X4X4X3X4X4X4X2X|.a.< - U { L P.>X5X",
">X>X_.X.I @.@.b w .X3X4X4X4X4X4X4X4X4X4X4X,XT.<.: s F U H C.*X5X",
"-X*XL.] P } V q :X4X4X4X4X4X1X+X].1X4X1XM.6 - l S G F F H e.OX5X",
"*X&XD.L J R 3 V.4X4X4X4X1Xn.0 > 4 :XOX) * z G F F Z D D H ;.}.5X",
"*X&XS.K F I 2 .X4X4X4X1X4.* A l 1.B.< a F F Z Z C j j Z A ;.}.5X",
"-X=XF.K F J : [.4X4X4X`.> Y G - 8 > f C C i C C i i C C A ;. X5X",
">X>XR.' A U - c.4X4X4XN.x T F k @ y j u i i i i i C C C h e.+X5X",
"5X5X X[ g J z 5 ;X4X4XV.& F F F j i u i i i i i i j Z Z f x.-X5X",
"5X5X*X6.g Z D & a.3X4X@X> u C i u u j u i i i i Z i C i m W.5X5X",
"5X5X>XF.N j A z $ n.3X4X4.X u u i i i i i i i Z Z j j g 6. X5X5X",
"5X5X5X+X$.f C Z y # v.4X=X, e i u i i i i i i i j j j d I.>X5X5X",
"5X5X5X>XK.N u j i y # l.1X^.% r j i i u i z i i j j t 8.OX5X5X5X",
"5X5X5X5X*Xs.p y i i y . 9 ).m.% e i i i i i i i g t Q /.>X5X5X5X",
"5X5X5X5X5XOX7.p y i i u O # q 1.+ . u u u i i u t M U.>X5X5X5X5X",
"5X5X5X5X5X>X X9.f y u i i u o .     u u i u u p B I.-X5X5X5X5X5X",
"5X5X5X5X5X5X>XOXs.v r y u u u i u y u u u t d ` R.-X5X5X5X5X5X5X",
"5X5X5X5X5X>X>X-XoXT.2.B f y r t t t t y d W z.`.#X-X>X5X5X5X5X5X",
"5X5X5X5X5X>X#X-X5X>X+X[.b.0._ n v E $.b.^.'.@X-X@XoX-X5X5X5X5X5X",
"5X5X5X5X5X>X>X>X>X>X-X#X-X@X+XXXOXOXoX#X-X#X-X>X>X>X>X5X5X5X5X5X",
"5X5X5X5X5X5X5X5X>X-X@XoX@X#X@X@X@XoXoXoXXXXXoX#X-X>X5X5X5X5X5X5X",
"5X5X5X5X5X5X5X5X>X>X-X#X-X#X#X@X@X@XoXoXoXoXoX@X-X>X5X5X5X5X5X5X"
};
