/* XPM */
static char *redo_dis[] = {
/* columns rows colors chars-per-pixel */
"32 32 256 2",
"   c #434F3F",
".  c #43543E",
"X  c #4A5C45",
"o  c #4D5C49",
"O  c #4D6347",
"+  c #4E6448",
"@  c #506749",
"#  c #56704E",
"$  c #566552",
"%  c #596356",
"&  c #5A6A55",
"*  c #5D6D59",
"=  c #5C7355",
"-  c #5E7D55",
";  c #5F7259",
":  c #626D5E",
">  c #62775C",
",  c #637B5C",
"<  c #646D62",
"1  c #677065",
"2  c #697765",
"3  c #697866",
"4  c #6E7B6A",
"5  c #70796D",
"6  c #757E72",
"7  c #64845B",
"8  c #68845F",
"9  c #6A8C5F",
"0  c #698361",
"q  c #6C8D63",
"w  c #6E8069",
"e  c #6F8869",
"r  c #70866A",
"t  c #718B6A",
"y  c #6D9263",
"u  c #719566",
"i  c #739967",
"p  c #74956A",
"a  c #769D6B",
"s  c #789E6D",
"d  c #768172",
"f  c #768D70",
"g  c #788F72",
"h  c #7D8879",
"j  c #779670",
"k  c #7B9575",
"l  c #779870",
"z  c #7E9A76",
"x  c #77A06C",
"c  c #79A16D",
"v  c #7DA471",
"b  c #7FA874",
"n  c #80897D",
"m  c #82977D",
"M  c #82987C",
"N  c #80A776",
"B  c #82AA76",
"V  c #82A57B",
"C  c #85AC7A",
"Z  c #88AD7E",
"A  c #87B07C",
"S  c #89B27D",
"D  c #889086",
"F  c #8B9E87",
"G  c #8D958A",
"H  c #929B8E",
"J  c #949B92",
"K  c #85A380",
"L  c #8AA284",
"P  c #87AD81",
"I  c #8AAC82",
"U  c #8EAE88",
"Y  c #92A68D",
"T  c #92AB8C",
"R  c #8DB383",
"E  c #8DB388",
"W  c #90B486",
"Q  c #93B58B",
"!  c #95B88D",
"~  c #99BA8F",
"^  c #95A790",
"/  c #94AF90",
"(  c #9EAF9A",
")  c #95B590",
"_  c #95BB91",
"`  c #9BBB92",
"'  c #9DB499",
"]  c #9FBB99",
"[  c #A0A59E",
"{  c #A2AE9F",
"}  c #A2BE9B",
"|  c #A5AAA3",
" . c #A9AFA7",
".. c #AEBDAB",
"X. c #B1BEAE",
"o. c #B2B5B0",
"O. c #B3B8B1",
"+. c #B9BDB7",
"@. c #BCBFBA",
"#. c #9FC29C",
"$. c #A5C09D",
"%. c #A6C2A1",
"&. c #AAC2A5",
"*. c #ADC4A9",
"=. c #AEC9AB",
"-. c #B2C6AD",
";. c #B7C4B4",
":. c #B8C3B6",
">. c #B4CCB1",
",. c #B9CDB6",
"<. c #BBC1B9",
"1. c #BDCDBA",
"2. c #BDD3BB",
"3. c #C2CABF",
"4. c #C0D3BE",
"5. c #C2C6C0",
"6. c #C5CDC3",
"7. c #C8CDC6",
"8. c #CBCECA",
"9. c #C5D6C4",
"0. c #C9D8C7",
"q. c #CDD1CB",
"w. c #CEDACD",
"e. c #D0D3CE",
"r. c #D0DBCF",
"t. c #D6D6D5",
"y. c #D6DBD5",
"u. c #D8DCD7",
"i. c #DBDCDB",
"p. c #E0DFDF",
"a. c #D6E0D5",
"s. c #DDE2DC",
"d. c #E0E2DF",
"f. c #E4E5E4",
"g. c #E6E8E6",
"h. c #E8EAE7",
"j. c #E9EAE9",
"k. c #EEF0EC",
"l. c #F1F2EF",
"z. c #F4F4F2",
"x. c #F9FAF7",
"c. c #FEFDFC",
"v. c None",
"b. c black",
"n. c black",
"m. c black",
"M. c black",
"N. c black",
"B. c black",
"V. c black",
"C. c black",
"Z. c black",
"A. c black",
"S. c black",
"D. c black",
"F. c black",
"G. c black",
"H. c black",
"J. c black",
"K. c black",
"L. c black",
"P. c black",
"I. c black",
"U. c black",
"Y. c black",
"T. c black",
"R. c black",
"E. c black",
"W. c black",
"Q. c black",
"!. c black",
"~. c black",
"^. c black",
"/. c black",
"(. c black",
"). c black",
"_. c black",
"`. c black",
"'. c black",
"]. c black",
"[. c black",
"{. c black",
"}. c black",
"|. c black",
" X c black",
".X c black",
"XX c black",
"oX c black",
"OX c black",
"+X c black",
"@X c black",
"#X c black",
"$X c black",
"%X c black",
"&X c black",
"*X c black",
"=X c black",
"-X c black",
";X c black",
":X c black",
">X c black",
",X c black",
"<X c black",
"1X c black",
"2X c black",
"3X c black",
"4X c black",
"5X c black",
"6X c black",
"7X c black",
"8X c black",
"9X c black",
"0X c black",
"qX c black",
"wX c black",
"eX c black",
"rX c black",
"tX c black",
"yX c black",
"uX c black",
"iX c black",
"pX c black",
"aX c black",
"sX c black",
"dX c black",
"fX c black",
"gX c black",
"hX c black",
"jX c black",
"kX c black",
"lX c black",
"zX c black",
"xX c black",
"cX c black",
"vX c black",
"bX c black",
"nX c black",
"mX c black",
"MX c black",
"NX c black",
"BX c black",
"VX c black",
"CX c black",
"ZX c black",
"AX c black",
"SX c black",
"DX c black",
"FX c black",
"GX c black",
"HX c black",
"JX c black",
"KX c black",
"LX c black",
"PX c black",
"IX c black",
"UX c black",
/* pixels */
"v.v.v.v.v.v.v.v.v.v.v.v.v.v.v.j.j.j.v.v.v.v.v.v.v.v.v.v.v.v.v.v.",
"v.v.v.v.v.v.v.v.v.v.v.g.a.0.2.2.2.2.9.r.s.h.v.v.v.v.v.v.v.v.v.v.",
"v.v.v.v.v.v.v.v.v.f.0.>.%.#.! _ _ _ _ #.=.2.a.h.v.v.v.v.v.v.v.v.",
"v.v.v.v.v.v.v.h.r.>.` ~ %.*.=.-.-.-.=.&.$._ $.4.s.v.v.v.v.v.v.v.",
"v.v.v.v.v.v.g.9.} ` ..&.&.$.%.} $.$.$.&.&.&.$.~ =.s.j.v.v.v.v.v.",
"v.v.v.v.v.g.2.! ` } $.} } ` } ` ` ` ` } } $.$.$.Q %.s.v.v.v.v.v.",
"v.v.v.v.j.9.) _ } } ~ } ~ ` ` k > T ` ` ` ~ ` $.#.E &.s.v.v.v.v.",
"v.v.v.h.y.` Q ] } ~ ~ ` ~ ~ ` k 6 4 V ` ! W S W ! ! E ,.g.v.v.v.",
"v.v.v.g.*.Q ` ` ~ ~ ~ ~ ` ` ` I D e.5 t S S S S R Q ! ) w.v.v.v.",
"v.v.h.r.Q W ` ~ ~ ~ ' ~ T V k r 1 j.h.G > s A S A S ! I =.f.v.v.",
"v.v.g.*.U Q ! ~ ` Q k w d D | +.e.z.c.x.7.h > p b A R E Q w.v.v.",
"j.v.s.) I ! Q ! k 3 J e.k.c.c.c.c.c.c.c.c.x.e.H & , A R V 1.h.v.",
"h.j.w.U Z W Q r 6 u.c.c.c.c.c.c.c.c.c.c.c.j.<.h & 8 C R V *.f.v.",
"g.f.1.I I W z 4 j.c.c.c.c.c.z.u.q.l.c.z.X.3 > p B A B C B ] i.v.",
"f.s.-.P Z R 3 +.c.c.c.c.l. .4 & % j.u.d = s A A B B B B b ) y.v.",
"f.s.*.V B I ; y.c.c.c.z.D ; v p n <.* q C B B b v v v V v Q y.v.",
"j.f.;.K B Z * q.c.c.c.8.: S S 7 : $ p B c c c c c N c N c T y.v.",
"j.j.6.b v Z > ( c.c.c.o.8 W S 0 O p c x x c c c c c v v c } s.v.",
"v.v.y.K l C j < h.c.c.<.= C C B c x x x x x c c c c v N p *.f.v.",
"v.v.f./ i b b = H x.c.d.$ i c c x x x x c c c c c N v c p 6.v.v.",
"v.v.j.;.l v b v o  .x.c.D # s s x x x x x c c c c v v p T u.v.v.",
"v.v.v.u.L y v v u X  .c.p.% 7 c x a a x c c c c c v x p :.h.v.v.",
"v.v.v.g.:.j i v c y X H l.3.X q c a x c c c c c c x y T u.v.v.v.",
"v.v.v.v.d.( y i c c u o 1 7.o.@ 7 c c x x x c c x y k 7.h.v.v.v.",
"v.v.v.v.v.u.Y q u c c x - X 5 n X @ i x x a x a y p :.g.v.v.v.v.",
"v.v.v.v.v.h.u.Y e u x x x i - +   . i x x a a e k :.g.v.v.v.v.v.",
"v.v.v.v.v.v.j.u.( t q p a x x x u i x a i y e z 3.f.v.v.v.v.v.v.",
"v.v.v.v.v.j.g.g.u.+.F p u y y y u y y y e k | 8.p.f.j.v.v.v.v.v.",
"v.v.v.v.v.h.p.f.v.j.i.t.;.^ D r q t L X.5.e.i.f.i.t.g.v.v.v.v.v.",
"v.v.v.v.v.h.j.j.j.g.f.p.p.i.u.t.u.t.i.p.f.f.f.j.j.g.j.v.v.v.v.v.",
"v.v.v.v.v.v.v.v.j.f.i.i.i.i.i.i.p.i.t.t.t.t.t.p.g.j.v.v.v.v.v.v.",
"v.v.v.v.v.v.v.v.j.j.f.p.p.f.p.i.i.i.i.t.t.t.i.i.f.j.v.v.v.v.v.v."
};
