/* XPM */
static char *redo_sel[] = {
/* columns rows colors chars-per-pixel */
"28 28 132 2",
"   c #142507",
".  c #172A09",
"X  c #192C0B",
"o  c #1C340B",
"O  c #1F3A0A",
"+  c #1C2515",
"@  c #1E2C14",
"#  c #213E0C",
"$  c #233615",
"%  c #213910",
"&  c #25341B",
"*  c #29361E",
"=  c #2D3A23",
"-  c #343B2E",
";  c #383937",
":  c #3C3C3B",
">  c #23430B",
",  c #264A0B",
"<  c #294E0D",
"1  c #2A5D07",
"2  c #27530A",
"3  c #2B540D",
"4  c #2E5A0E",
"5  c #305D0F",
"6  c #2A4A15",
"7  c #325F10",
"8  c #355A1D",
"9  c #2C6306",
"0  c #2E6308",
"q  c #306B07",
"w  c #31620D",
"e  c #326B0B",
"r  c #36700D",
"t  c #336210",
"y  c #386D12",
"u  c #3B7315",
"i  c #3E7618",
"p  c #33402A",
"a  c #3A4C2D",
"s  c #374131",
"d  c #3B4235",
"f  c #3D4D32",
"g  c #3E433B",
"h  c #3F6327",
"j  c #40761C",
"k  c #43791E",
"l  c #434C3C",
"z  c #47553C",
"x  c #406328",
"c  c #457523",
"v  c #437820",
"b  c #4D7C2E",
"n  c #456231",
"m  c #4D673C",
"M  c #527B35",
"N  c #557E3A",
"B  c #434441",
"V  c #494C47",
"C  c #4C4D4C",
"Z  c #4E514C",
"A  c #505949",
"S  c #575C54",
"D  c #5B5C5B",
"F  c #536149",
"G  c #58664E",
"H  c #5A6453",
"J  c #5D6259",
"K  c #606F54",
"L  c #627A50",
"P  c #67745D",
"I  c #6A7D5D",
"U  c #646564",
"Y  c #656863",
"T  c #6C6C6C",
"R  c #6B7463",
"E  c #6E7C64",
"W  c #747374",
"Q  c #7A7E77",
"!  c #787879",
"~  c #51822F",
"^  c #538433",
"/  c #578935",
"(  c #56813A",
")  c #59823D",
"_  c #5B8B3A",
"`  c #5D8343",
"'  c #628D44",
"]  c #61834A",
"[  c #669149",
"{  c #668452",
"}  c #688257",
"|  c #6B8659",
" . c #6C885A",
".. c #6B9450",
"X. c #718562",
"o. c #758A66",
"O. c #75846B",
"+. c #778D68",
"@. c #7A8C6E",
"#. c #7E8D73",
"$. c #808F76",
"%. c #828E7A",
"&. c #84917B",
"*. c #81A56A",
"=. c #88AA72",
"-. c #8EAE7A",
";. c #93B27F",
":. c #7F7E80",
">. c gray52",
",. c #858A80",
"<. c #8A8F87",
"1. c #8D8D8C",
"2. c #899282",
"3. c #8F948A",
"4. c #90958C",
"5. c #949693",
"6. c #969895",
"7. c #989898",
"8. c #96B384",
"9. c #A3BC94",
"0. c #ACC19E",
"q. c #ADC2A0",
"w. c #B0C4A4",
"e. c #C3D1BB",
"r. c #CCD6C6",
"t. c #D5DDD2",
"y. c #D9DFD5",
"u. c #DEE2DC",
"i. c #E1E4E0",
"p. c #E9E9E8",
"a. c black",
"s. c None",
/* pixels */
"s.s.s.s.s.s.s.s.t.8.' ( ) ` ` ) ( ..9.u.s.s.s.s.s.s.s.s.",
"s.s.s.s.s.s.y.*.) | #.3.5.5.5.5.3.#.] ' 8.i.s.s.s.s.s.s.",
"s.s.s.s.s.0.( | 2.5.5.5.3.C Y 5.5.5.5.2.{ ' e.s.s.s.s.s.",
"s.s.s.p.-.N #.3.3.3.3.3.,.; : J 3.3.3.4.3.@.N 0.s.s.s.s.",
"s.s.s.-.N $.2.2.2.2.2.2.2.V T Z Z %.1.2.2.3.@.M w.s.s.s.",
"s.s.q.b @.%.%.$.%.%.%.%.&.H D 7.D g R %.%.%.%.o.^ r.s.s.",
"s.y.^ } @.@.@.#.@.O.P H A : B 7.7.! l V E #.#.#.{ [ p.s.",
"s.*.c X.o.o.I F g g V D Y W >.7.7.7.1.U l l K E X.c 9.s.",
"y.i y M L z d S ! 3.5.7.7.7.7.7.7.7.7.7.1.T V l a w / s.",
"8.e y 5 = D 1.7.7.7.7.7.7.7.7.7.7.7.7.7.7.7.:.Z + 3 r e.",
"_ e 5 & W 5.7.7.7.7.7.7.7.7.7.7.7.7.7.5.W g $ > 3 t e =.",
"i w % U 7.7.7.7.7.7.7.5.:.T T 5.7.5.W ; % < w t t t w _ ",
"q w = 1.7.5.6.6.7.4.U - $ X B 7.<.C $ 3 t 7 7 7 t t w k ",
"q 3 d 4.4.4.4.4.<.B # 3 7 # Y Q - # 5 5 7 7 7 7 t t w i ",
"q 3 s 2.2.&.&.2.J o w 7 5 $ S & > t 7 7 7 7 5 7 7 7 5 u ",
"q 4 * O.$.$.$.$.d < 5 5 3 + @ < 7 7 3 5 5 5 5 5 5 7 1 k ",
"u 5 o G +.o.+.o.p < 5 5 4 , 6 t 5 4 7 3 7 7 8 3 5 3 0 _ ",
"_ 0 , = } | |  .f # 4 4 4 4 3 7 4 4 7 3 3 3 4 4 4 3 1 =.",
"8.0 5 o z ] ] ] m o 3 4 3 4 4 4 3 4 3 3 3 7 3 3 3 4 w r.",
"y.i 4 < X n ( N N * > 4 3 3 3 3 3 3 3 7 3 3 3 3 3 4 / s.",
"s.*.0 3 , X x b b h X < 3 3 3 3 3 3 3 3 3 3 3 3 3 q 9.s.",
"s.u.j 4 3 > X 8 v v 6 X < 3 < 3 3 < 3 3 3 6 < 3 1 _ p.s.",
"s.s.0.e 3 3 > X 6 y u > o < 3 3 6 3 < < 3 < < 3 i r.s.s.",
"s.s.s.-.9 3 < , X o 4 e > . > 3 < < < < < 3 3 e w.s.s.s.",
"s.s.s.p.-.q 3 < < # . o 2 > . O < < < < < 3 r q.s.s.s.s.",
"s.s.s.s.s.0.i 1 < < , O . .     , , , 3 1 ~ e.s.s.s.s.s.",
"s.s.s.s.s.s.y.*.y 1 3 2 , , > , 3 2 1 k 8.i.s.s.s.s.s.s.",
"s.s.s.s.s.s.s.s.t.;./ r 9 9 9 e u ' 9.u.s.s.s.s.s.s.s.s."
};
