/* XPM */
static char *redo_sel[] = {
/* columns rows colors chars-per-pixel */
"28 28 136 2",
"   c #142507",
".  c #15250B",
"X  c #172A09",
"o  c #192C0B",
"O  c #1D340B",
"+  c #1F3A0A",
"@  c #1C2515",
"#  c #1E2C14",
"$  c #213E0C",
"%  c #233615",
"&  c #213910",
"*  c #25341B",
"=  c #2D3A23",
"-  c #343B2E",
";  c #383937",
":  c #3C3C3B",
">  c #23430B",
",  c #264A0B",
"<  c #294E0D",
"1  c #27530A",
"2  c #2B540D",
"3  c #2E5A0E",
"4  c #305D0F",
"5  c #2A4A15",
"6  c #325F10",
"7  c #355A1D",
"8  c #31620E",
"9  c #346A0D",
"0  c #346311",
"q  c #386C12",
"w  c #3C6D19",
"e  c #3A7215",
"r  c #3F7519",
"t  c #33402A",
"y  c #3A4C2D",
"u  c #374131",
"i  c #3B4235",
"p  c #3D4D32",
"a  c #3E433B",
"s  c #3F6327",
"d  c #40751C",
"f  c #434C3C",
"g  c #47553C",
"h  c #406328",
"j  c #437421",
"k  c #437820",
"l  c #497D26",
"z  c #4C7B2B",
"x  c #456231",
"c  c #4D673C",
"v  c #517834",
"b  c #557D3B",
"n  c #434441",
"m  c #454A42",
"M  c #494C47",
"N  c #4C4D4C",
"B  c #4E514C",
"V  c #505949",
"C  c #565756",
"Z  c #575C54",
"A  c #5B5C5B",
"S  c #58664E",
"D  c #5A6453",
"F  c #5D6259",
"G  c #606F54",
"H  c #627A50",
"J  c #67745D",
"K  c #6A7D5D",
"L  c #646564",
"P  c #656863",
"I  c #6C6C6C",
"U  c #6B7463",
"Y  c #6E7C64",
"T  c #747374",
"R  c #7A7E77",
"E  c #787879",
"W  c #52832F",
"Q  c #558236",
"!  c #5D883F",
"~  c #618D44",
"^  c #61834A",
"/  c #648C49",
"(  c #669248",
")  c #668351",
"_  c #688257",
"`  c #6A8C53",
"'  c #6B8659",
"]  c #6E8A5B",
"[  c #718A5F",
"{  c #6D9553",
"}  c #75975E",
"|  c #74985C",
" . c #718562",
".. c #748A65",
"X. c #75846B",
"o. c #778D68",
"O. c #7A8C6E",
"+. c #7A9C63",
"@. c #7E8E73",
"#. c #808F77",
"$. c #828E7A",
"%. c #84917B",
"&. c #83A46D",
"*. c #86A86F",
"=. c #89AA73",
"-. c #8DAB79",
";. c #91AE7D",
":. c #7F7E80",
">. c gray52",
",. c #858A80",
"<. c #8A8F87",
"1. c #8D8D8C",
"2. c #899282",
"3. c #8F948A",
"4. c #90958C",
"5. c #949693",
"6. c #969895",
"7. c #989898",
"8. c #97B185",
"9. c #ABC09D",
"0. c #B0C4A3",
"q. c #B5C7A9",
"w. c #B8CAAE",
"e. c #BBCBB0",
"r. c #C2CFBA",
"t. c #C5D2BD",
"y. c #C7D3C0",
"u. c #C9D4C2",
"i. c #D5DDD1",
"p. c #DAE0D7",
"a. c #DFE3DD",
"s. c #E1E4DF",
"d. c #E4E6E4",
"f. c #E9E9E9",
"g. c black",
"h. c None",
/* pixels */
"h.h.h.h.h.h.h.h.s.w.-.| ` ` ` ` +.8.r.d.h.h.h.h.h.h.h.h.",
"h.h.h.h.h.h.s.9.+...#.3.6.6.6.5.2.#.[ &.e.d.h.h.h.h.h.h.",
"h.h.h.h.h.t.+.[ 2.5.5.4.3.N P 4.5.5.4.<.[ -.i.h.h.h.h.h.",
"h.h.h.f.q.` #.4.3.3.3.3.,.; : F 3.4.4.4.4.o.} y.h.h.h.h.",
"h.h.h.q./ #.2.2.2.2.<.2.2.M I B N $.<.2.2.3.O.{ u.h.h.h.",
"h.h.y./ O.$.#.%.#.$.$.$.%.F A 6.A n U $.$.$.$. .| p.h.h.",
"h.d.| ' @.O.@.O.O.X.J D V i n 7.7.E f M Y @.#.#.) 8.f.h.",
"h.9.z  . ...K V f i M C I T >.7.7.7.1.L f f G Y  .Q t.h.",
"d./ q v H g i C E 1.7.7.7.7.7.7.7.7.7.7.1.I M a y 8 *.h.",
"w.r q 3 = A 1.7.7.7.7.7.7.7.7.7.7.7.7.7.7.7.:.N @ 2 W i.",
"=.9 6 * T 6.7.7.7.7.7.7.7.7.7.7.7.7.7.5.I f % > 2 q q 0.",
"~ 9 $ L 7.6.7.7.7.7.7.5.:.I I 5.7.7.T ; $ 2 6 0 0 0 8 =.",
"l 3 = <.7.6.6.6.6.4.P - % X n 7.1.N % < 0 0 0 8 6 6 8 { ",
"d 2 i 4.4.4.3.4.<.m & 2 6 $ P R - $ 4 8 4 8 4 4 6 6 8 ~ ",
"d 1 u 2.%.2.2.2.F & 4 8 4 % Z * > 8 6 6 4 4 4 4 4 4 8 ~ ",
"l 2 = X.#.@.#.#.u , 4 4 2 @ # < 6 4 4 4 4 4 4 4 4 4 4 { ",
"~ 8 O S o.......t < 4 3 3 , 5 6 6 6 3 3 3 3 3 3 4 2 8 *.",
"=.8 , = _ ' ] ] p > 3 3 3 3 3 3 3 2 3 3 7 2 2 3 3 2 q 0.",
"w.w 4 O g ^ H ^ c o 3 3 3 3 2 3 3 2 3 3 2 3 2 3 2 3 z i.",
"s.~ 3 2 o x b Q b * > 2 3 2 2 2 2 2 2 2 2 2 2 2 2 3 =.h.",
"h.9.8 2 , o h z z s o 2 2 2 2 2 2 2 2 2 2 2 2 2 2 d t.h.",
"h.s.{ 3 1 > o 7 k k 5 o < 2 2 2 2 < 2 2 5 2 2 5 3 ;.f.h.",
"h.h.u.z 2 2 , . 5 q e $ o 2 2 < < < < < 2 < < 2 ( p.h.h.",
"h.h.h.q.j 2 < < O O 3 9 > X > 2 < < < < < 2 2 Q u.h.h.h.",
"h.h.h.f.q.z 1 < < $ X O 1 > X + < < < < < 2 ! t.h.h.h.h.",
"h.h.h.h.h.u.{ 8 1 < < + X X .   , < , 2 0 &.i.h.h.h.h.h.",
"h.h.h.h.h.h.s.9.~ q 1 1 < , > , 1 2 w { w.f.h.h.h.h.h.h.",
"h.h.h.h.h.h.h.h.a.w.&.! j w w j ~ ;.r.d.h.h.h.h.h.h.h.h."
};
