/* XPM */
static char *saveas_sel[] = {
/* columns rows colors chars-per-pixel */
"28 28 143 2",
"   c #191413",
".  c #1F1B14",
"X  c #171718",
"o  c #1E1E1E",
"O  c #2A1204",
"+  c #381F0C",
"@  c #27221F",
"#  c #2D2419",
"$  c #322914",
"%  c #312318",
"&  c #30291F",
"*  c #201F21",
"=  c #242323",
"-  c #21262D",
";  c #25292F",
":  c #2D2C2C",
">  c #332D23",
",  c #3E2F23",
"<  c #383126",
"1  c #3C352C",
"2  c #262A30",
"3  c #292C31",
"4  c #2E3135",
"5  c #2C3239",
"6  c #333434",
"7  c #3F3831",
"8  c #3C3C3C",
"9  c #481D00",
"0  c #422607",
"q  c #4A2E05",
"w  c #472D0D",
"e  c #5F2900",
"r  c #6E2C00",
"t  c #7B2D00",
"y  c #753000",
"u  c #7B3000",
"i  c #7E3A0C",
"p  c #40382C",
"a  c #553A26",
"s  c #423B32",
"d  c #413E3B",
"f  c #5D452F",
"g  c #42413E",
"h  c #48433D",
"j  c #564A38",
"k  c #7F4D28",
"l  c #674E3B",
"z  c #303742",
"x  c #333A44",
"c  c #3A3D41",
"v  c #3D4147",
"b  c #3C424B",
"n  c #444444",
"m  c #484847",
"M  c #41464C",
"N  c #45484D",
"B  c #4C4C4C",
"V  c #504F4E",
"C  c #50504F",
"Z  c #404650",
"A  c #454B53",
"S  c #494E55",
"D  c #4D5156",
"F  c #4D525A",
"G  c #535353",
"H  c #52565C",
"J  c #54585F",
"K  c #5B5B5B",
"L  c #7D6554",
"P  c #7A6B5F",
"I  c #555A60",
"U  c #595D62",
"Y  c #5C6066",
"T  c #646464",
"R  c #686664",
"E  c #61656B",
"W  c #67696C",
"Q  c #6C6C6C",
"!  c #7A6F66",
"~  c #70706F",
"^  c #7B736D",
"/  c #666A70",
"(  c #6C6E72",
")  c #6F7278",
"_  c #727373",
"`  c #787470",
"'  c #787877",
"]  c #74767A",
"[  c #76787C",
"{  c #7C7C7C",
"}  c #840201",
"|  c #8C0401",
" . c #830900",
".. c #800E0E",
"X. c #930300",
"o. c #8C1E00",
"O. c #931F00",
"+. c #991C00",
"@. c #811313",
"#. c #831B1A",
"$. c #812800",
"%. c #922D00",
"&. c #852322",
"*. c #862827",
"=. c #883332",
"-. c #893938",
";. c #804920",
":. c #8A4241",
">. c #8B4847",
",. c #8B4D4C",
"<. c #8A514F",
"1. c #8B5650",
"2. c #8C5C50",
"3. c #87634E",
"4. c #8C6353",
"5. c #8F6961",
"6. c #8F6C6B",
"7. c #90736A",
"8. c #917675",
"9. c #917B74",
"0. c #927F7F",
"q. c #80807F",
"w. c #7B7D80",
"e. c #858584",
"r. c #888887",
"t. c gray55",
"y. c #948987",
"u. c gray57",
"i. c #989090",
"p. c #9C9C9D",
"a. c gray63",
"s. c gray66",
"d. c #B9B9B8",
"f. c #C4C3C3",
"g. c #CBCBCB",
"h. c #D7D7D7",
"j. c #D8D7D7",
"k. c #D8D8D7",
"l. c gray85",
"z. c #E4E4E4",
"x. c #E9E9E9",
"c. c black",
"v. c None",
/* pixels */
"v.x.f.p.u.u.u.u.u.u.u.u.u.u.u.u.u.u.u.u.u.u.s.z.v.v.v.v.",
"v.d.{ [ [ [ w.r.r.r.r.t.r.r.r.r.r.r.r.r.{ w.[ a.v.v.v.v.",
"x.e.[ _ _ _ e.u.u.u.u.u.u.e.{ ' { u.u.u.[ _ ] [ d.v.v.v.",
"l.] ) ( ~ Q { u.u.u.u.u.u.{ Q _ ' u.u.t.' Q ( ) [ g.v.v.",
"l.( ( W W Q { u.u.t.t.u.u.{ Q W ' t.u.u._ W W Q ( { j.v.",
"l./ W R R T ' u.u.u.u.u.u.' T R Q t.t.t.Q R R T W W u.v.",
"l.W E T T K ` t.t.t.u.t.t.` K T R t.t.t.R T T T Y E ( v.",
"l.Y Y K K K _ u.u.u.t.u.u.{ ~ Q ' t.t.t.T K K K K Y E x.",
"l.J U K K K U Q _ ~ ~ ~ ~ _ ~ _ T m n V K G K K K U Y x.",
"l.H J G G G G G B G C S G C C B : T q.h 8 G G G G J K x.",
"l.S F G C C G G G G G G C C G n d i.i.` : G G G D F H x.",
"l.A D V B V C B B B m m m n m 8 d y.y.^ : V B B B D D x.",
"l.n S B B m 8 : = = * * o o o X s y.0.! @ n m B B S S x.",
"j.v Z n 6 : : m G G B C B G B n s 9.8.P X * 6 8 m Z N x.",
"h.5 x 6 : = ' r.r.r.e.{ ' { { W d 7.6.L d 8 * : 3 z c x.",
"h.- x 6 : 8 e.e.e._ 7 s s s s 1 j 5.4.L 1 1 & > > = = l.",
"l.- x c 6 d r.e.w.8 l 4.4.4.4.4.2.<.,.1.2.4.4.4.4.4., w.",
"h.- c n 6 8 e.e.0.1 3.,.>.-.*.#.@.......#.&.=.:.>.2.f G ",
"l.- M m 6 8 e.e.e.n a k i u u u $. .t  .t y t $.;.k % u.",
"l.- Z m 8 n r.e.e.' m 1 1 p p < q o.} t $ & # > # = - x.",
"k.; A B v g e.e.e.e.e.e.w.e.e.( w o.| y h R : B B b 5 x.",
"k.2 S G n 8 r.e.e.e.e.e.e.e.e.( w %.| y h T 6 D G A 6 x.",
"k.2 F G B 6 ~ r.r.e.e.r.e.e.r._ w o.| u d n d G G A 5 x.",
"l.2 G K G n 6 n B m B m B m m 8 0 +.X.u . 7 G H K S 4 x.",
"z.3 F K K K G m n m n n m n n 8 0 O.X.t > K K H K A c v.",
"v._ 5 F J J J J J J J J U J J S + %.+.r : I I I F ; t.v.",
"v.z.' 3 2 3 3 3 3 3 3 3 3 ; 3 ;   9 e O * 3 3 3 6 r.x.v.",
"v.v.v.z.l.k.l.l.l.l.h.l.l.l.l.l.g._ G a.l.l.l.l.x.v.v.v."
};
