/* XPM */
static char *save_dis[] = {
/* columns rows colors chars-per-pixel */
"32 32 256 2",
"   c #060A06",
".  c #080D08",
"X  c #0C140C",
"o  c #111B10",
"O  c #152315",
"+  c #1C211B",
"@  c #1A2C1A",
"#  c #1E321E",
"$  c #1E3125",
"%  c #252924",
"&  c #213621",
"*  c #223923",
"=  c #22382B",
"-  c #2B3B2B",
";  c #263F30",
":  c #383E38",
">  c #274027",
",  c #284328",
"<  c #2D4B2E",
"1  c #264030",
"2  c #2A4636",
"3  c #2E4C3B",
"4  c #384237",
"5  c #324C32",
"6  c #3D443C",
"7  c #304F3F",
"8  c #345434",
"9  c #375937",
"0  c #31523E",
"q  c #395539",
"w  c #375A39",
"e  c #3B5D3C",
"r  c #345443",
"t  c #385546",
"y  c #385B46",
"u  c #3C544B",
"i  c #3C5B4A",
"p  c #3E624C",
"a  c #424A41",
"s  c #414B49",
"d  c #4A4F49",
"f  c #475046",
"g  c #455F45",
"h  c #4B554A",
"j  c #415F4D",
"k  c #4C5452",
"l  c #435D52",
"z  c #436444",
"x  c #486349",
"c  c #4C6B4C",
"v  c #456354",
"b  c #456953",
"n  c #4F6B5A",
"m  c #506F50",
"M  c #5B625A",
"N  c #506B5B",
"B  c #4D715B",
"V  c #537254",
"C  c #577658",
"Z  c #587658",
"A  c #5D7B5E",
"S  c #5F6261",
"D  c #547663",
"F  c #577964",
"G  c #5D7B60",
"H  c #5F7F6D",
"J  c #636766",
"K  c #646C63",
"L  c #627D61",
"P  c #68736C",
"I  c #6D7A71",
"U  c #767F75",
"Y  c #7A7D7C",
"T  c #668266",
"R  c #61816D",
"E  c #698469",
"W  c #6B8A77",
"Q  c #6A8979",
"!  c #718276",
"~  c #728C72",
"^  c #7C857B",
"/  c #778A7C",
"(  c #7E887C",
")  c #76927F",
"_  c #7C937C",
"`  c #7F8582",
"'  c #769280",
"]  c #7D9484",
"[  c #7F9886",
"{  c #828484",
"}  c #838B84",
"|  c #858F88",
" . c #859B85",
".. c #889C87",
"X. c #88948B",
"o. c #829A8A",
"O. c #8A9C8C",
"+. c #8D9F91",
"@. c #909191",
"#. c #929E95",
"$. c #90A18F",
"%. c #8BA292",
"&. c #91A392",
"*. c #97A997",
"=. c #94A598",
"-. c #94AA9D",
";. c #9AAB9B",
":. c #98ADA1",
">. c #9DB0A4",
",. c #A1ADA3",
"<. c #A3B2A4",
"1. c #A5B4A8",
"2. c #A8B6A8",
"3. c #ADBAAE",
"4. c #B2BEB2",
"5. c #B6C1B6",
"6. c #B8C3B7",
"7. c #B9C4B9",
"8. c #C3C3C3",
"9. c #C4CCC4",
"0. c #CBCFCB",
"q. c #CCD2CC",
"w. c #D0D4CF",
"e. c #D1D5D1",
"r. c #D6DAD5",
"t. c #DBDFDB",
"y. c #DFE1DF",
"u. c #E5E6E5",
"i. c #E9E9E9",
"p. c None",
"a. c black",
"s. c black",
"d. c black",
"f. c black",
"g. c black",
"h. c black",
"j. c black",
"k. c black",
"l. c black",
"z. c black",
"x. c black",
"c. c black",
"v. c black",
"b. c black",
"n. c black",
"m. c black",
"M. c black",
"N. c black",
"B. c black",
"V. c black",
"C. c black",
"Z. c black",
"A. c black",
"S. c black",
"D. c black",
"F. c black",
"G. c black",
"H. c black",
"J. c black",
"K. c black",
"L. c black",
"P. c black",
"I. c black",
"U. c black",
"Y. c black",
"T. c black",
"R. c black",
"E. c black",
"W. c black",
"Q. c black",
"!. c black",
"~. c black",
"^. c black",
"/. c black",
"(. c black",
"). c black",
"_. c black",
"`. c black",
"'. c black",
"]. c black",
"[. c black",
"{. c black",
"}. c black",
"|. c black",
" X c black",
".X c black",
"XX c black",
"oX c black",
"OX c black",
"+X c black",
"@X c black",
"#X c black",
"$X c black",
"%X c black",
"&X c black",
"*X c black",
"=X c black",
"-X c black",
";X c black",
":X c black",
">X c black",
",X c black",
"<X c black",
"1X c black",
"2X c black",
"3X c black",
"4X c black",
"5X c black",
"6X c black",
"7X c black",
"8X c black",
"9X c black",
"0X c black",
"qX c black",
"wX c black",
"eX c black",
"rX c black",
"tX c black",
"yX c black",
"uX c black",
"iX c black",
"pX c black",
"aX c black",
"sX c black",
"dX c black",
"fX c black",
"gX c black",
"hX c black",
"jX c black",
"kX c black",
"lX c black",
"zX c black",
"xX c black",
"cX c black",
"vX c black",
"bX c black",
"nX c black",
"mX c black",
"MX c black",
"NX c black",
"BX c black",
"VX c black",
"CX c black",
"ZX c black",
"AX c black",
"SX c black",
"DX c black",
"FX c black",
"GX c black",
"HX c black",
"JX c black",
"KX c black",
"LX c black",
"PX c black",
"IX c black",
"UX c black",
/* pixels */
"p.p.p.p.p.p.p.p.p.p.p.p.p.p.p.p.p.p.p.p.p.p.p.p.p.p.p.p.p.p.p.p.",
"p.p.p.p.p.p.p.p.p.p.p.p.p.p.p.p.p.p.p.p.p.p.p.p.p.p.p.p.p.p.p.p.",
"p.p.p.p.i.r.q.q.q.0.q.q.q.q.q.q.q.q.q.q.q.q.q.q.y.i.p.p.p.p.p.p.",
"p.p.p.u.5.>.:.-.<.6.6.6.5.5.5.5.5.5.5.5.6.5.;.>.>.r.p.p.p.p.p.p.",
"p.p.p.9.-.=.%.%.2.w.w.w.e.w.e.7.<.1.4.q.e.q.;.&.-.<.y.p.p.p.p.p.",
"p.p.i.1.%. ... .<.w.w.w.w.w.w.2. . .*.q.q.0.$. .o.%.3.i.p.p.p.p.",
"p.p.i.-.o._ _ _ *.w.q.q.w.w.w.;._ _ $.q.q.0. ._ _ [ [ 6.i.p.p.p.",
"p.p.i.*.) ~ ~ ~ $.w.q.q.q.q.w.*.E ~  .q.q.9._ ~ ~ ~ ) [ q.p.p.p.",
"p.p.i.%.W E E T ..0.0.0.0.0.q.$.L L _ 9.9.9.~ T E E E Q :.p.p.p.",
"p.p.i.o.R A A Z  .q.q.q.q.q.q.<._ _ $.0.q.9.T A L G A R =.p.p.p.",
"p.p.i.] F V V m A $.$.$.$.$.$.$.$.$.$.$.$...m V V V V D +.p.p.p.",
"p.p.i.^ B c c c z z z z z z z z z z z z z z c c c c m B X.p.p.p.",
"p.p.i.! b z z z z z z z z z z z z z z z z z z z z z z v | p.p.p.",
"p.p.i.I p e e w e e e 9 9 5 5 < < 5 8 9 w e e e e w p i { p.p.p.",
"p.p.i.P y 9 8 8 > @ O o . .         . X o O # < 8 9 9 r { p.p.p.",
"p.p.i.K r , # o % M K K K K K K K K K K K K 6 o O # < r ^ p.p.p.",
"p.p.i.S & O o + *.7.7.7.7.7.8.4.6.6.6.6.5.5.4.d X O @ = Y p.p.p.",
"p.p.i.S $ @ O : 4.4.4.6.4.4.4.4.4.4.4.3.3.4.5.^ o @ @ # Y p.p.p.",
"p.p.i.S = * @ 6 4.4.4.4.4.4.4.4.4.4.4.4.4.4.5.( O & * - Y p.p.p.",
"p.p.i.J 1 > # 6 7.4.4.6.4.4.4.4.4.4.4.3.3.4.5.( O , , > Y p.p.p.",
"p.p.i.J 2 < * 6 4.4.7.4.4.4.4.4.4.4.4.4.3.4.5.( @ < < 2 Y p.p.p.",
"p.p.i.S 7 8 , 6 4.4.4.4.4.4.4.4.4.3.4.4.4.3.4.( # 8 8 3 Y p.p.p.",
"p.p.i.J q e 5 a 7.4.4.4.4.4.4.4.4.3.4.3.4.4.4.( & e e r Y p.p.p.",
"p.p.i.S t g q a 4.4.4.4.4.4.4.4.4.4.4.4.3.3.5.! - z z t Y p.p.p.",
"p.p.i.J j c z - | 4.7.4.4.7.4.4.5.4.5.4.4.4.<.a 9 c c i Y p.p.p.",
"p.p.i.J v m V g - d h h h h h h h h h h h h 4 6 m c m l Y p.p.p.",
"p.p.p.Y l G V Z C g g g g g g g g g g g g g c Z C C G u @.p.p.p.",
"p.p.p.8.s v N N N N N N N N N N N N N N N N n D n N l k e.p.p.p.",
"p.p.p.p.8.Y J J J J P J J J J J J J J J J J J J J J { w.p.p.p.p.",
"p.p.p.p.p.i.i.i.i.i.i.i.i.i.i.i.i.i.i.i.i.i.i.i.i.i.i.p.p.p.p.p.",
"p.p.p.p.p.p.p.p.p.p.p.p.p.p.p.p.p.p.p.p.p.p.p.p.p.p.p.p.p.p.p.p.",
"p.p.p.p.p.p.p.p.p.p.p.p.p.p.p.p.p.p.p.p.p.p.p.p.p.p.p.p.p.p.p.p."
};
