/* XPM */
static char *saveas_dis[] = {
/* columns rows colors chars-per-pixel */
"28 28 138 2",
"   c #282828",
".  c #32312E",
"X  c #3B352D",
"o  c #343434",
"O  c #3C3B3B",
"+  c #413E3C",
"@  c #40403F",
"#  c #4B453E",
"$  c #444444",
"%  c #484544",
"&  c gray30",
"*  c #5B4C41",
"=  c #504D48",
"-  c #56524B",
";  c #5B564E",
":  c #535353",
">  c #5D5951",
",  c #555658",
"<  c #5C5D5D",
"1  c #6E5C47",
"2  c #625B55",
"3  c #7C694E",
"4  c #65615B",
"5  c #6A655E",
"6  c #766550",
"7  c #7B6451",
"8  c #5E6165",
"9  c #636364",
"0  c #6D6A64",
"q  c #646669",
"w  c #64696F",
"e  c gray42",
"r  c #706760",
"t  c #6F706F",
"y  c #75726C",
"u  c #676B72",
"i  c #6C6F73",
"p  c #6E7072",
"a  c #747474",
"s  c #787570",
"d  c #71757B",
"f  c #7C7C7C",
"g  c #9F7B60",
"h  c #90887C",
"j  c #9D8C7E",
"k  c #B88C6E",
"l  c #C59676",
"z  c #CC9A7B",
"x  c #D09C7D",
"c  c #777B81",
"v  c #7D7F81",
"b  c #7D8086",
"n  c gray52",
"m  c #81858A",
"M  c #86898E",
"N  c gray55",
"B  c #868A90",
"V  c #8B8E93",
"C  c #8D9094",
"Z  c #8F9399",
"A  c gray58",
"S  c #929599",
"D  c #979A9E",
"F  c #9B9B9C",
"G  c #AB9B8E",
"H  c #999CA0",
"J  c #9EA0A4",
"K  c #A3A3A4",
"L  c #A5A7A9",
"P  c #A5A8AC",
"I  c gray67",
"U  c #ABAEB1",
"Y  c #ADB1B6",
"T  c #B3B3B4",
"R  c #B5B6B9",
"E  c #BBBBBB",
"W  c #D78182",
"Q  c #DA8983",
"!  c #D68A8B",
"~  c #D88E8E",
"^  c #DB9384",
"/  c #D79B81",
"(  c #DB9494",
")  c #DE9D9C",
"_  c #E08887",
"`  c #E78D8B",
"'  c #EC908E",
"]  c #E69D8A",
"[  c #F39492",
"{  c #FA9896",
"}  c #D2A586",
"|  c #C5AB97",
" . c #D6B196",
".. c #D4B39A",
"X. c #ECA38E",
"o. c #F2A691",
"O. c #F6A893",
"+. c #FAAB96",
"@. c #FFAB99",
"#. c #F4B192",
"$. c #C8BBB1",
"%. c #E3ADAC",
"&. c #E7B7B6",
"*. c #E8BCBC",
"=. c #CBC3BC",
"-. c #D5C3B7",
";. c #E1C7B6",
":. c #E1C9BB",
">. c #BBBEC2",
",. c #BFC0C0",
"<. c #C3C3C3",
"1. c #C8C6C3",
"2. c #CAC8C6",
"3. c #C2C4C8",
"4. c #C7C8CA",
"5. c #CBCCCD",
"6. c #CCCED1",
"7. c #CFD0D0",
"8. c LightGray",
"9. c gainsboro",
"0. c #EAC4C1",
"q. c #E9CDC3",
"w. c #EBCFCE",
"e. c #F3CEC5",
"r. c #EED6D3",
"t. c #F0DDD7",
"y. c #E0E0DF",
"u. c #F3E4DF",
"i. c #E2E2E2",
"p. c #ECECEC",
"a. c #F4E7E7",
"s. c #F6EBE7",
"d. c #F8F1EE",
"f. c #F2F2F1",
"g. c #FAF6F5",
"h. c #FEF9F8",
"j. c black",
"k. c None",
/* pixels */
"k.p.p.9.7.8.8.8.8.8.7.8.8.8.8.8.8.8.8.8.8.8.y.p.k.k.k.k.",
"k.i.8.6.6.4.8.i.p.i.p.i.i.i.i.i.i.i.p.y.5.7.5.9.k.k.k.k.",
"p.8.4.3.<.=.8.g.f.f.f.f.f.y.7.5.8.f.f.f.5.,.4.4.i.k.k.k.",
"i.<.3.R E R 8.f.f.f.f.f.f.8.R R 1.p.f.f.<.E E 3.4.i.k.k.",
"i.>.E T T U 5.f.f.f.p.f.f.5.T T ,.p.f.p.E U T R >.5.i.k.",
"i.R T I I I <.f.p.p.f.f.f.4.L L E p.p.p.T I I I T R 8.k.",
"i.T Y K K J =.f.f.p.p.p.p.=.F F I p.p.p.U K K K K Y R k.",
"i.I P F F A R f.p.f.f.p.f.7.E E <.p.p.a.K F F F F P I p.",
"i.K J A A A F ,.,.E ,.E E ,.,.,.I f t n C A A A A J K p.",
"i.J D N N N N n n n n n n n n f % I 9.y 2 N N N V H H p.",
"y.D Z n n n n N N m n M N n N y 0 h.h.1.& n M b n S F p.",
"y.C C b b h b n h f f a a a a 9 e d.d.2.& n n h n V A p.",
"y.M B v f f 4 & @ O O o o . o   9 s.a.1.O e f f f M V p.",
"y.n b t < @ $ f b h n n n n n t 0 u.u.$.o o : 9 a M M p.",
"y.p u : & @ 3.i.i.i.9.5.5.7.5.U y t.r.$.0 9 o & & w f p.",
"y.8 w < & 9 i.9.y.,.0 5 0 5 0 4 h r.w.-.4 2 = - - + : i.",
"y.8 p 9 : 0 y.9.9.e G q.q.q.:.q.q.*.*.0.q.q.q.q.q.:.r I ",
"y.8 d e , q i.9.8.2 ;.0.*.%.%.( ~ ! ! ! ( ) %.&.*.e.j N ",
"i.8 b p < e y.9.9.s h ..} x z z / Q W ^ x z x }  .| 2 E ",
"y.9 b f 9 e i.9.9.5.f 5 5 5 5 > 3 ] _ z # ; X # # O < i.",
"i.8 b h q t 9.9.9.9.9.8.9.8.9.E 6 X.` l s I & h n c p p.",
"i.8 B n t 0 y.9.9.9.9.9.9.9.9.E 6 o.' l s I & m n b i p.",
"i.8 C N n : E i.y.y.y.y.i.y.i.<.6 o.[ l e e e N N M p p.",
"i.w A C C a : a f f f f f f f q 1 O.[ z X < N A A V p p.",
"i.t Z D A A N a a a a a a a a 8 1 +.{ z = A S A F M d k.",
"k.L 8 Z D D F H H H H H D D F M * #.@.k & F F H Z < R k.",
"k.p.K t q q q q q q q q q q q 8 % 7 g * , q q q p T p.k.",
"k.k.k.i.y.i.y.i.y.i.i.i.i.i.i.i.9.K N <.i.i.y.i.i.k.k.k."
};
