/* XPM */
static char *save_sel[] = {
/* columns rows colors chars-per-pixel */
"32 32 128 2",
"   c #000600",
".  c #010B00",
"X  c #001300",
"o  c #001B00",
"O  c #0C140B",
"+  c #001E0B",
"@  c #0E1F1B",
"#  c #121911",
"$  c #012301",
"%  c #022C02",
"&  c #00230D",
"*  c #0D230D",
"=  c #0D2D0D",
"-  c #033404",
";  c #053806",
":  c #0B330B",
">  c #063908",
",  c #0B3C0B",
"<  c #002610",
"1  c #002C13",
"2  c #102410",
"3  c #13211E",
"4  c #1C271B",
"5  c #1D291C",
"6  c #023416",
"7  c #03321A",
"8  c #09361D",
"9  c #04391C",
"0  c #0B3C1F",
"q  c #123913",
"w  c #202C1F",
"e  c #0E3224",
"r  c #0A3B21",
"t  c #103C23",
"y  c #123728",
"u  c #123929",
"i  c #222924",
"p  c #262D2B",
"a  c #253223",
"s  c #223429",
"d  c #223D2B",
"f  c #313B2F",
"g  c #134213",
"h  c #184417",
"j  c #184619",
"k  c #1D491E",
"l  c #0E4324",
"z  c #174027",
"x  c #1C4A21",
"c  c #174128",
"v  c #154929",
"b  c #1C4D30",
"n  c #254D24",
"m  c #22432C",
"M  c #234A2E",
"N  c #27502A",
"B  c #2D542D",
"V  c #334131",
"C  c #3F4C3D",
"Z  c #255336",
"A  c #285032",
"S  c #235239",
"D  c #2E573A",
"F  c #2E583D",
"G  c #355734",
"H  c #355835",
"J  c #365B3F",
"K  c #3C5D3C",
"L  c #414F3F",
"P  c #3C4241",
"I  c #3B4B42",
"U  c #3B5442",
"Y  c #355C43",
"T  c #3E5D44",
"R  c #3E6046",
"E  c #3D614B",
"W  c #454949",
"Q  c #425140",
"!  c #495447",
"~  c #425D41",
"^  c #575959",
"/  c #466146",
"(  c #486146",
")  c #44634B",
"_  c #4C664C",
"`  c #456652",
"'  c #496753",
"]  c #4C6A53",
"[  c #536051",
"{  c #546B54",
"}  c #5A6C59",
"|  c #567259",
" . c #5F715F",
".. c #60715F",
"X. c #5F7260",
"o. c #627361",
"O. c #647D66",
"+. c #6E796D",
"@. c #707A6F",
"#. c #757D75",
"$. c #787F77",
"%. c #787F78",
"&. c #768977",
"*. c #7A807A",
"=. c #91A191",
"-. c #A2A2A2",
";. c #A6B2A6",
":. c #B6B6B6",
">. c #B6BEB6",
",. c gray73",
"<. c #C5CBC5",
"1. c #D5D7D5",
"2. c #D7DAD7",
"3. c #E6E6E6",
"4. c #E7E8E7",
"5. c #E9E9E9",
"6. c None",
"7. c black",
"8. c black",
"9. c black",
"0. c black",
"q. c black",
"w. c black",
"e. c black",
"r. c black",
"t. c black",
"y. c black",
"u. c black",
/* pixels */
"6.6.6.6.6.6.6.6.6.6.6.6.6.6.6.6.6.6.6.6.6.6.6.6.6.6.6.6.6.6.6.6.",
"6.6.6.6.6.6.6.6.6.6.6.6.6.6.6.6.6.6.6.6.6.6.6.6.6.6.6.6.6.6.6.6.",
"6.6.6.6.2.;.=.=.=.=.=.=.=.=.=.=.=.=.=.=.=.=.=.=.>.4.6.6.6.6.6.6.",
"6.6.6.<.X.' ' ' [ O.o.o.O.o.o.o.o.o.O.o.O...] ] ] ;.6.6.6.6.6.6.",
"6.6.6.&.` ) ) / } *.*.*.%.%.%.O.} } ..*.*.#._ ) ` ] <.6.6.6.6.6.",
"6.6.4.| E T K K { %.$.$.%.%.%.{ K L ( #.#.#./ K R E | 2.6.6.6.6.",
"6.6.4.E R H H G _ %.$.$.%.%.#.{ G G ~ #.$.@.L H H J Y O.3.6.6.6.",
"6.6.3.R F B B N ~ #.#.$.#.$.*._ B B K &.#.@.H B B B D D =.6.6.6.",
"6.6.4.J Z n n n K #.@.#.#.#.#./ k n G #.#.+.B n n n N S | 6.6.6.",
"6.6.4.D b k k k K *.#.#.$.$.$.[ H G / #.#.@.n k k x k b ) 6.6.6.",
"6.6.4.A v h h h k ( / ( _ ~ ~ _ ~ ( ( ( ~ ~ h h j h h v T 6.6.6.",
"6.6.4.M l g g , , , , , , , , , , , , , , , , g g g g l U 6.6.6.",
"6.6.4.m l , , , , , , , , , , , , , , , , , , , , > , r U 6.6.6.",
"6.6.4.d 9 ; ; ; > > ; ; : % % % % : - : ; ; ; ; > > > 9 I 6.6.6.",
"6.6.5.s 6 ; - - $ o X X .             . X X $ % ; - ; 7 I 6.6.6.",
"6.6.5.s 6 % o . # f V V V V V V V V V V V f i . X $ % 7 P 6.6.6.",
"6.6.5.i + X X O ^ +.o.o.o.O.o.o.o.o.o.o.o.O...a . X o & P 6.6.6.",
"6.6.5.p + o X 4 ..o.o.o.o.o.o.o.o.o.o.o. . .o.L X o o & P 6.6.6.",
"6.6.5.i & $ o 4 ..o.o...o.o..... .o...o... .o.Q X $ $ & P 6.6.6.",
"6.6.4.p & $ $ 5 o.o.o.o.o.o.o.o. . . . . . .o.Q o $ $ & P 6.6.6.",
"6.6.5.p < % $ 5 o.o.o.o.o...o.o.o. . . . . .o.Q o % % 1 P 6.6.6.",
"6.6.4.p 1 - % 5 o.o.o...o.......X. . . . . .o.Q o - - 1 P 6.6.6.",
"6.6.5.p 6 ; % 5 o.o.o.....o.o.....o. . . . . .L $ ; ; 7 P 6.6.6.",
"6.6.4.p 8 , ; w o.o.o.o.o.....o... . . . . .o.C $ , , 8 P 6.6.6.",
"6.6.5.p 8 g , * ! o.o.o.o.o.o.o.o.o.o.......} i : q g 8 P 6.6.6.",
"6.6.5.p t h g q 2 a a a a a a a a a a a a a 4 = g h h r P 6.6.6.",
"6.6.6.P y x j j k q q q q q q q q q q q q q h k j j x e ^ 6.6.6.",
"6.6.6.-.3 y c c c c c c c c c c c c c c c c c v c c y 3 ,.6.6.6.",
"6.6.6.6.-.P s p p p p p f p p p p p p p p p p p p p W :.6.6.6.6.",
"6.6.6.6.6.5.5.5.5.5.5.5.5.5.5.5.5.5.5.5.5.5.5.5.5.5.5.6.6.6.6.6.",
"6.6.6.6.6.6.6.6.6.6.6.6.6.6.6.6.6.6.6.6.6.6.6.6.6.6.6.6.6.6.6.6.",
"6.6.6.6.6.6.6.6.6.6.6.6.6.6.6.6.6.6.6.6.6.6.6.6.6.6.6.6.6.6.6.6."
};
