/* XPM */
static char *save[] = {
/* columns rows colors chars-per-pixel */
"28 44 88 1",
"  c #020202",
". c gray4",
"X c #131313",
"o c #1B1B1B",
"O c #222222",
"+ c #2F2F2F",
"@ c gray20",
"# c #3C3C3C",
"$ c #40403F",
"% c #434343",
"& c gray30",
"* c #545353",
"= c #575758",
"- c #5B5B5B",
"; c #60605E",
": c #4F5763",
"> c #4D5A6E",
", c #545B64",
"< c #595E67",
"1 c #5E6269",
"2 c #556172",
"3 c #596576",
"4 c #5A6678",
"5 c #646463",
"6 c #686867",
"7 c #6B6B6A",
"8 c #70706E",
"9 c #656A71",
"0 c #696D71",
"q c #616C7C",
"w c #747373",
"e c #77797C",
"r c #7B7B7B",
"t c #677181",
"y c #6A7483",
"u c #767B81",
"i c #787E87",
"p c #737C8B",
"a c #77808E",
"s c #7D848E",
"d c #768190",
"f c #7C8593",
"g c gray52",
"h c #84888D",
"j c #8B8B8B",
"k c #838A94",
"l c #898D92",
"z c #838C99",
"x c #8D939D",
"c c gray58",
"v c #9B9B9B",
"b c #8E95A0",
"n c #9399A3",
"m c #9CA0A7",
"M c #9AA1AC",
"N c gray64",
"B c #A9A9A6",
"V c #A6A9AD",
"C c #ABABAA",
"Z c #A1A9B4",
"A c #AAAEB4",
"S c #AAB0B9",
"D c gray70",
"F c #B8B8B7",
"G c #B2B5BB",
"H c #B7BABF",
"J c #BBBBBB",
"K c #B1B8C2",
"L c #BCBFC3",
"P c #B9BFC8",
"I c #BFC1C4",
"U c #C3C3C3",
"Y c #C8C8C7",
"T c #C2C6CC",
"R c #C5C9CE",
"E c #CBCBCB",
"W c #C5CAD1",
"Q c #CFD1D5",
"! c LightGray",
"~ c #D8D8D7",
"^ c gainsboro",
"/ c #E0E0DF",
"( c #E2E2E2",
") c #ECECEB",
"_ c #F0F0EF",
"` c #F2F2F1",
"' c black",
"] c None",
/* pixels */
"]))~!!!!!!!~!!!!!!!!Q!^)]]]]",
"](QWWT!(()((((((((((EWW^]]]]",
")QWIUL~``````/EE~```EUTY^]]]",
"(UPFFH!````_`~FFU_`_UFHPR(]]",
"(HGDDDE`_____EDDL___JDDDKY)]",
"(GACCBY______YBBF)))FBBBAS!]",
"(AZNNvU))__)_UvNC)))CNNNNZD]",
"(VMvvvJ`___))!FFY)_)BvvvvMV)",
"(NncccvLJJJJJJJJJJJJcvcccnm)",
"(nbjcjggjgjgggjggjggjjjjlbn)",
"(xzggggggjgjjjjjjggggggghfn)",
"(lfggggggrrwww8wrrrggggggfc)",
"(sarrr5&%#@@@@@@@##%=8rridl(",
"/ip7;$%rgggggggggggg;@*5wph)",
"/92*&$U(/(((////(///^8#*=3u)",
"(:2-&5/^^^^^^^^^^~^^/B#-->0(",
"(,45*6(^^^^^^^^^^^~^/C$5529)",
"/,q6=6/^^^^^^^^^~^^~/C%7730(",
"(,tw-6(^^^^^^^^~^^^~^C%wwq9)",
"/<pr56(^^^^^^^^^^~^^/C&ert9)",
"(<pg66(^^^^^^^^^~^^^^C&ggy0)",
"/<sgw6(~^^^^^~~^~^~^^B*ggp0(",
"(<kjg&F((/(/^(//^//^~77jjp9)",
"(<zccw*wrrrrrrrrrrrr;-jccf0)",
"(0fvccjewwwwwwwwwwwwgcccvpe]",
"]N,zbbxbbbxbbxbbbbbbxxbxf:F]",
"](C0111111111111111111110D)]",
"]]]((/((/((((/(/(//(/((()]]]",
"]]]]]]]]]]]]]]]]]]]]]]]]]]]]",
"]]]]]]]]]]]]]]]]]]]]]]]]]]]]",
"]]]]]]]]]]]]]]]]]]]]]]]]]]]]",
"]]]]]]]]]]]]]]]]]]]]]]]]]]]]",
"]No +]]]]]]]]]]]]]]]]]]]]]]]",
"]XN^C]]]]]]]]]]]]]]]]]]]]]]]",
"]oB]]]]]]% 5]]+v]]B+]]~% OJ]",
"]Fo#J]]]]Y!.]]g#]]%c]]&V(C@]",
"]](jOD]]D+  ]]~.YEX(]].    ]",
"]]]]Y.]]oc( ]]]=w77]]]X^]]]]",
"]cE(cO]].UC !]]DXXY]]]=*!(F]",
"]#..#U]]w.65X]])O%]]]]/-..#]",
"]]]]]]]]]]]]]]]]]]]]]]]]]]]]",
"]]]]]]]]]]]]]]]]]]]]]]]]]]]]",
"]]]]]]]]]]]]]]]]]]]]]]]]]]]]",
"]]]]]]]]]]]]]]]]]]]]]]]]]]]]"
};
