/* XPM */
static char *saveas_dis[] = {
/* columns rows colors chars-per-pixel */
"32 32 256 2",
"   c gray17",
".  c #32312D",
"X  c #3A362F",
"o  c #343434",
"O  c #383739",
"+  c #3B3A3A",
"@  c #59493D",
"#  c #444444",
"$  c #4B4741",
"%  c #4C4C4C",
"&  c #534E44",
"*  c #555049",
"=  c #5A544E",
"-  c gray33",
";  c #5F5C57",
":  c gray36",
">  c #725D4B",
",  c #605A56",
"<  c #645F58",
"1  c #75614B",
"2  c #7E6B4F",
"3  c #64615E",
"4  c #68625B",
"5  c #7C6952",
"6  c #5A5C60",
"7  c #5F6163",
"8  c #646463",
"9  c #6A6763",
"0  c #6E6A66",
"q  c #60656D",
"w  c #6D6D6C",
"e  c #706C65",
"r  c #706E6D",
"t  c #74706B",
"y  c #7B756F",
"u  c #676C73",
"i  c #6D6F72",
"p  c #6F7072",
"a  c #6D7178",
"s  c #727374",
"d  c #72777D",
"f  c #73787F",
"g  c #7C7C7D",
"h  c #856A54",
"j  c #837367",
"k  c #85786D",
"l  c #807E7B",
"z  c #A07A60",
"x  c #82807D",
"c  c #BD9171",
"v  c #C39575",
"b  c #C79678",
"n  c #C89778",
"m  c #C9997A",
"M  c #777B82",
"N  c #7B7E83",
"B  c #7D8086",
"V  c #7E8389",
"C  c #838383",
"Z  c #81858B",
"A  c #86888B",
"S  c gray54",
"D  c #978E82",
"F  c #868A90",
"G  c #8B8E92",
"H  c #8F9195",
"J  c #8F9398",
"K  c #939393",
"L  c #909398",
"P  c #96999F",
"I  c #9B9B9B",
"U  c #A9998C",
"Y  c #B29A88",
"T  c #9C9DA0",
"R  c #9EA0A4",
"E  c gray64",
"W  c #A6A7A8",
"Q  c #A5A8AD",
"!  c gray67",
"~  c #BEB3A8",
"^  c #ADB0B5",
"/  c gray70",
"(  c #BCBAB7",
")  c #B5B7BA",
"_  c #B7B9BC",
"`  c #BABABB",
"'  c #D88382",
"]  c #DB8984",
"[  c #D68A8A",
"{  c #D88D8D",
"}  c #DB9684",
"|  c #D49B80",
" . c #DC9493",
".. c #DF9D9C",
"X. c #E28B89",
"o. c #EB918E",
"O. c #E79C8B",
"+. c #F39692",
"@. c #F79895",
"#. c #FC9B97",
"$. c #CBA182",
"%. c #CCAC94",
"&. c #D0AE93",
"*. c #EBA18E",
"=. c #E0A09F",
"-. c #F2A491",
";. c #F9A996",
":. c #F0B090",
">. c #FFB299",
",. c #C1B9B2",
"<. c #CFBEB2",
"1. c #C2BEBA",
"2. c #E4ADAB",
"3. c #E8B8B7",
"4. c #E6BEBE",
"5. c #EABDBC",
"6. c #DCC3B4",
"7. c #E7C0BF",
"8. c #BDBFC1",
"9. c #BFC0C0",
"0. c #C2C3C3",
"q. c #C8C8C7",
"w. c #C4C5C8",
"e. c #CCCCCD",
"r. c #CCCED1",
"t. c #CFD1D3",
"y. c #D3D2D2",
"u. c #D7D7D8",
"i. c #DDDDDD",
"p. c #EBC5C1",
"a. c #EACDC4",
"s. c #EBD0C5",
"d. c #EDD0CF",
"f. c #F5D1C5",
"g. c #EFD6D0",
"h. c #F1DBD8",
"j. c #E0E0DF",
"k. c gray89",
"l. c #EAEAEA",
"z. c #F3E3E0",
"x. c #F6EAE8",
"c. c #F0F0EF",
"v. c gray95",
"b. c #F9F1F0",
"n. c #FCF8F6",
"m. c snow",
"M. c None",
"N. c black",
"B. c black",
"V. c black",
"C. c black",
"Z. c black",
"A. c black",
"S. c black",
"D. c black",
"F. c black",
"G. c black",
"H. c black",
"J. c black",
"K. c black",
"L. c black",
"P. c black",
"I. c black",
"U. c black",
"Y. c black",
"T. c black",
"R. c black",
"E. c black",
"W. c black",
"Q. c black",
"!. c black",
"~. c black",
"^. c black",
"/. c black",
"(. c black",
"). c black",
"_. c black",
"`. c black",
"'. c black",
"]. c black",
"[. c black",
"{. c black",
"}. c black",
"|. c black",
" X c black",
".X c black",
"XX c black",
"oX c black",
"OX c black",
"+X c black",
"@X c black",
"#X c black",
"$X c black",
"%X c black",
"&X c black",
"*X c black",
"=X c black",
"-X c black",
";X c black",
":X c black",
">X c black",
",X c black",
"<X c black",
"1X c black",
"2X c black",
"3X c black",
"4X c black",
"5X c black",
"6X c black",
"7X c black",
"8X c black",
"9X c black",
"0X c black",
"qX c black",
"wX c black",
"eX c black",
"rX c black",
"tX c black",
"yX c black",
"uX c black",
"iX c black",
"pX c black",
"aX c black",
"sX c black",
"dX c black",
"fX c black",
"gX c black",
"hX c black",
"jX c black",
"kX c black",
"lX c black",
"zX c black",
"xX c black",
"cX c black",
"vX c black",
"bX c black",
"nX c black",
"mX c black",
"MX c black",
"NX c black",
"BX c black",
"VX c black",
"CX c black",
"ZX c black",
"AX c black",
"SX c black",
"DX c black",
"FX c black",
"GX c black",
"HX c black",
"JX c black",
"KX c black",
"LX c black",
"PX c black",
"IX c black",
"UX c black",
/* pixels */
"M.M.M.M.M.M.M.M.M.M.M.M.M.M.M.M.M.M.M.M.M.M.M.M.M.M.M.M.M.M.M.M.",
"M.M.M.M.M.M.M.M.M.M.M.M.M.M.M.M.M.M.M.M.M.M.M.M.M.M.M.M.M.M.M.M.",
"M.M.M.M.l.k.i.i.i.i.i.i.i.i.i.i.i.i.i.i.i.i.i.i.k.l.M.M.M.M.M.M.",
"M.M.M.l.u.r.r.e.t.j.i.j.j.i.i.j.i.j.i.i.i.i.e.t.r.k.M.M.M.M.M.M.",
"M.M.M.i.r.w.0.0.t.v.v.n.v.v.v.k.y.y.i.v.v.v.e.0.e.e.k.M.M.M.M.M.",
"M.M.l.q.w.` ` ` t.v.v.v.v.v.v.t.` / 9.c.v.c.9.` 8.w.r.l.M.M.M.M.",
"M.M.l.9.8./ / / e.v.v.v.v.v.v.r./ / 6.l.v.l.8.) / ` 8.y.l.M.M.M.",
"M.M.l.` ) ! ! ! 9.v.c.v.v.v.c.r.! ! 8.l.c.l.^ Q ! ! ) _ i.M.M.M.",
"M.M.l.) ^ W E E ` c.l.v.c.l.c.9.T T / l.l.l.! E W E W ^ 0.M.M.M.",
"M.M.l./ ! I I I / v.c.v.c.l.v.r./ / q.l.l.l.E I I I I Q ) M.M.M.",
"M.M.l.! T L K K I 1.0.0.9.6.0.0.6.9./ l s K K K K K I T / M.M.M.",
"M.M.l.E T K S S S S S S S S S A A B % W y.9 0 G K S K P ! M.M.M.",
"M.M.l.T L S S S A S A S S S S S S r r n.m.( - S S A A J W M.M.M.",
"M.M.l.P G C C x C C C C g s y s d 8 y c.b.1.% C C C C G E M.M.M.",
"M.M.l.K F x N g 9 * # + + o o o o   0 x.x.,.+ s g g x A I M.M.M.",
"M.M.l.G Z w 7 # # d C C C S C C C r t z.z.( . O - 9 d V I M.M.M.",
"M.M.l.M u - - + ` k.k.k.i.y.t.e.t.! y h.h.~ w - + % - 7 H M.M.M.",
"M.M.l.p q : - - j.i.j.9.9 4 0 0 0 4 x g.d.6.3 ; * = = + w M.M.M.",
"M.M.l.p u 8 : : i.j.j.t U s.s.a.a.a.f.7.4.7.a.a.s.a.s.6.4 q.M.M.",
"M.M.l.p a r : : i.i.u.4 6.7.5.2.=. .{ } [ [  ...2.3.7.f.k / M.M.",
"M.M.l.p f s 9 : i.i.j.C j %.$.n n n | ] ' } m b m $.&.U , y.M.M.",
"M.M.l.p M g w 6 i.i.i.y.S 0 0 e e , 2 O.X.c & = o @ $ O g M.M.M.",
"M.M.l.p B C r 8 i.i.i.i.i.i.i.i.j.` 5 *.o.c l E - B C M C M.M.M.",
"M.M.l.p C S d : i.i.i.i.i.i.i.i.i.` 5 -.o.c x I ; S S M C M.M.M.",
"M.M.l.i A G S - W i.j.k.i.j.j.i.k.` 5 -.+.c w < s S K N B M.M.M.",
"M.M.l.s F K K x - 9 w w w w r w w : > ;.@.v . w K K K V C M.M.M.",
"M.M.M.C Z I L I K C N g C g C g C w 1 ;.#.v - I K I I d L M.M.M.",
"M.M.M.0.6 Z J K J K L J J J J J J N @ :.>.z - J L L B 7 y.M.M.M.",
"M.M.M.M.q.C p s s s p s s p s s s p : > h = w s s s S e.M.M.M.M.",
"M.M.M.M.M.l.l.l.l.l.l.l.l.l.l.l.l.l.l.9./ i.M.l.l.l.l.M.M.M.M.M.",
"M.M.M.M.M.M.M.M.M.M.M.M.M.M.M.M.M.M.M.M.M.M.M.M.M.M.M.M.M.M.M.M.",
"M.M.M.M.M.M.M.M.M.M.M.M.M.M.M.M.M.M.M.M.M.M.M.M.M.M.M.M.M.M.M.M."
};
