/* XPM */
static char *saveas[] = {
/* columns rows colors chars-per-pixel */
"32 32 256 2",
"   c #000400",
".  c #000900",
"X  c #031203",
"o  c #021B02",
"O  c #0A170A",
"+  c #012402",
"@  c #042D04",
"#  c #0A250A",
"$  c #0F360F",
"%  c #0B3A0C",
"&  c #182417",
"*  c #182B18",
"=  c #103210",
"-  c #183F18",
";  c #163B16",
":  c #25220B",
">  c #21241C",
",  c #292A16",
"<  c #2C3012",
"1  c #05372B",
"2  c #073531",
"3  c #252E24",
"4  c #203A21",
"5  c #2B3C2A",
"6  c #293E27",
"7  c #2B3E35",
"8  c #4F240A",
"9  c #493F1B",
"0  c #6F3306",
"q  c #7B3F07",
"w  c #773E12",
"e  c #713418",
"r  c #793E12",
"t  c #174518",
"y  c #1F471F",
"u  c #164739",
"i  c #224122",
"p  c #234A23",
"a  c #2C402B",
"s  c #2C4F2C",
"d  c #36432B",
"f  c #255028",
"g  c #2C522C",
"h  c #2D592E",
"j  c #225023",
"k  c #304F30",
"l  c #394538",
"z  c #3C4C3B",
"x  c #325C33",
"c  c #385A38",
"v  c #355337",
"b  c #366136",
"n  c #366239",
"m  c #396339",
"M  c #4A421B",
"N  c #7C4F10",
"B  c #4E4229",
"V  c #504836",
"C  c #594138",
"Z  c #5E4D39",
"A  c #5F5230",
"S  c #645934",
"D  c #665637",
"F  c #406A3F",
"G  c #6A603D",
"H  c #21564A",
"J  c #26584A",
"K  c #3E4E50",
"L  c #2B5B53",
"P  c #345B59",
"I  c #2B6352",
"U  c #326051",
"Y  c #3B6457",
"T  c #306856",
"R  c #326158",
"E  c #37695D",
"W  c #39705D",
"Q  c #3C6561",
"!  c #464D45",
"~  c #4C5D4A",
"^  c #495547",
"/  c #5A5644",
"(  c #485658",
")  c #595853",
"_  c #655E4C",
"`  c #426643",
"'  c #416B41",
"]  c #4B734B",
"[  c #416C5E",
"{  c #5A6559",
"}  c #5F6254",
"|  c #507750",
" . c #537A54",
".. c #587F59",
"X. c #557D58",
"o. c #67604C",
"O. c #71674B",
"+. c #776A47",
"@. c #67685A",
"#. c #406864",
"$. c #5D6365",
"%. c #5C6C6A",
"&. c #4B7465",
"*. c #437866",
"=. c #5D746B",
"-. c #606666",
";. c #636B64",
":. c #626868",
">. c #6B6A6A",
",. c #6F7B6B",
"<. c #66796B",
"1. c #72756C",
"2. c #727B6C",
"3. c #747B72",
"4. c #797C7E",
"5. c #75797B",
"6. c #BF0000",
"7. c #BC0D08",
"8. c #85320B",
"9. c #9E3100",
"0. c #BC3600",
"q. c #B63A00",
"w. c #BC3A00",
"e. c #C80300",
"r. c #D70400",
"t. c #C81B00",
"y. c #C3170C",
"u. c #D61C00",
"i. c #E00400",
"p. c #EC0400",
"a. c #F70400",
"s. c #E51F00",
"d. c #EB1F00",
"f. c #C62E00",
"g. c #DE2000",
"h. c #C13A00",
"j. c #C92614",
"k. c #D0381D",
"l. c #F42000",
"z. c #FF2900",
"x. c #EF3800",
"c. c #D23F22",
"v. c #AD670F",
"b. c #825C22",
"n. c #947A3E",
"m. c #A47530",
"M. c #C34502",
"N. c #C7630B",
"B. c #D84D27",
"V. c #DA582D",
"C. c #DF6732",
"Z. c #D66B45",
"A. c #DA7645",
"S. c #5B825C",
"D. c #598464",
"F. c #4E8070",
"G. c #5B8B7B",
"H. c #518371",
"J. c #618561",
"K. c #648964",
"L. c #6B8E6B",
"P. c #678474",
"I. c #748979",
"U. c #6D9172",
"Y. c #759775",
"T. c #789777",
"R. c #779877",
"E. c #789979",
"W. c #D68A2B",
"Q. c #EA832E",
"!. c #B99A62",
"~. c #BDA479",
"^. c #DF8B45",
"/. c #DD8045",
"(. c #D59340",
"). c #C89A56",
"_. c #E08F47",
"`. c #E19249",
"'. c #DE8F68",
"]. c #E39D68",
"[. c #797E80",
"{. c #788380",
"}. c #798B81",
"|. c #699687",
" X c #7B9385",
".X c #779F8E",
"XX c #77A090",
"oX c #7EA493",
"OX c #818485",
"+X c #859987",
"@X c #8C9691",
"#X c #939D90",
"$X c #84A283",
"%X c #8DAA8D",
"&X c #89A488",
"*X c #90AB8F",
"=X c #8DA395",
"-X c #84AA9B",
";X c #84A794",
":X c #91AC91",
">X c #91AD9B",
",X c #95A496",
"<X c #9DB49C",
"1X c #BFAC8C",
"2X c #A9A59F",
"3X c #8FB2A5",
"4X c #9BB4A4",
"5X c #9ABAAF",
"6X c #9BBBB1",
"7X c #A1B2A6",
"8X c #A6BDA6",
"9X c #A8BBAC",
"0X c #A7B4A7",
"qX c #BBB4A7",
"wX c #A1BFB2",
"eX c gray71",
"rX c #C1B49E",
"tX c #E3A683",
"yX c #E7B381",
"uX c #E8BA9D",
"iX c #A7C0AD",
"pX c #B0C4AF",
"aX c #AAC1B1",
"sX c #A3C1B6",
"dX c #B2C5B3",
"fX c #B6C8B5",
"gX c #B8C7BA",
"hX c #BACABB",
"jX c #ECC49C",
"kX c #EDCDB7",
"lX c #F0D4B6",
"zX c #C3C3C3",
"xX c #CBCBCB",
"cX c #D2CEC7",
"vX c #C5D5C5",
"bX c #C8D6C6",
"nX c #C9D8C7",
"mX c #CCD6CC",
"MX c #CBD9CA",
"NX c #D0DECF",
"BX c LightGray",
"VX c #D3DAD3",
"CX c #DADADA",
"ZX c #F2DECF",
"AX c #D9E3D7",
"SX c #DCE3DC",
"DX c #F4E2CD",
"FX c #E0E3DF",
"GX c #E0E9DF",
"HX c #E5ECE5",
"JX c #E8EEE7",
"KX c #E9EAE9",
"LX c #E6E6E6",
"PX c #FAEFE3",
"IX c #ECF1EC",
"UX c None",
/* pixels */
"UXUXUXUXUXUXUXUXUXUXUXUXUXUXUXUXUXUXUXUXUXUXUXUXUXUXUXUXUXUXUXUX",
"UXUXUXUXUXUXUXUXUXUXUXUXUXUXUXUXUXUXUXUXUXUXUXUXUXUXUXUXUXUXUXUX",
"UXUXUXUXKXSXmXmXmXmXmXmXmXmXmXmXmXmXmXmXmXmXmXmXFXKXUXUXUXUXUXUX",
"UXUXUXLXvXsXwXsXdXMXMXMXMXMXmXMXmXMXMXMXMXnXiXsXaXCXUXUXUXUXUXUX",
"UXUXUXmX5X4X4X<XhXIXIXIXIXIXIXNXfXfXvXJXIXHXiX<X5XaXLXUXUXUXUXUX",
"UXUXKXsX3X*X%X%XpXIXIXJXJXJXJXfX%X%X8XHXHXHX<X%X>X3XdXKXUXUXUXUX",
"UXUXJX3XXX~.$X.X8XKXJXKXJXJXJXpX$X$X<XHXHXGX:X$X$X;X-XhXKXUXUXUX",
"UXUXIXoXXXE.E.Y.<XJXHXJXJXKXJX8XY.Y.%XHXHXSX$XE.E.E.XXoXmXUXUXUX",
"UXUXKX=X|.L.L.L.*XJXGXHXHXHXHX<XK.K.+XSXHXAXT.L.L.L.U.|.7XUXUXUX",
"UXUXKX+XG.J.J.S.&XJXHXHXHXHXHXpX$X$X<XHXSXAXL.S.S.J.D.G.=XUXUXUX",
"UXUXKX XD. .S.| K.<X<X<X<X<X<X<X<X<X,X3.1.I. ..... ...F.@XUXUXUX",
"UXUXLX|.*.] ] ] ' F F F ' F ' ' F m 5 2XcX) k ] ] ] ] *.+XUXUXUX",
"UXUXKXP.Q U U F ' F F F F ' ' ' ' c @.PXPXqX< ' F F U W  XUXUXUX",
"UXUXKX<.T m n n m m m x x h g g h i O.ZXZXrX6 m m m m I }.UXUXUX",
"UXUXKX=.I b h h i ; # X . . . . .   o.lXkXrX* p h x c L {.UXUXUX",
"UXUXKX%.n t $ o 3 ;.1.2.2.2.2.2.2.{ O.jXuX~., O @ t f H {.UXUXUX",
"UXUXLX$.1 + o & 0XNXNXNXvXhXhXfXhX,X+.yXtX!.;.! X o @ 2 4.UXUXUX",
"UXUXKX$.1 @ + l nXnXnX8X) S G o.o.S n.].'.).S A M M B 3 >.UXUXUX",
"UXUXJX$.1 % @ l nXnXvX} m.`.^.^.^.^./.Z.Z.A./.^.^.`.`.W.D xXUXUX",
"UXUXLX$.u t $ z nXnXvXZ W.C.V.c.j.y.y.7.7.7.7.j.k.B.V.Q.b.eXUXUX",
"UXUXKX$.u j t v nXvXnX<.N N.M.w.w.w.f.e.6.t.0.0.w.M.N.v.Z BXUXUX",
"UXUXKX$.H h i V vXnXbXgX2._ o.o._ / N u.e.q.B V : < , > 1.UXUXUX",
"UXUXKX$.J m s z bXvXnXvXvXvXvXvXvX7Xw u.r.q.1.|.4 n n H [.UXUXUX",
"UXUXKX:.P ' x z bXnXvXvXvXvXvXvXvX7Xw s.i.w.1.~.i Y ' L [.UXUXUX",
"UXUXKX:.Y ] ` 5 #XNXbXbXbXnXnXnXMX0Xr d.p.0.@.^ c ] ] R [.UXUXUX",
"UXUXKX:.W |  .` 7 ~ ~ ~ ~ ~ ~ ~ ~ z 0 l.p.h.> v ] |  .Y [.UXUXUX",
"UXUXUX4.Q D.S.S. .` ` ` ` ` ` ` ` v 0 l.a.h.d S.S.S.S.P @XUXUXUX",
"UXUXUXzXK Q &.&.&.&.&.&.&.&.&.&.&.Y 8 x.z.9.7 &.&.&.E ( BXUXUXUX",
"UXUXUXUXzX4.:.:.:.:.:.:.:.:.:.:.:.:.) e 8.C -.:.:.:.OXxXUXUXUXUX",
"UXUXUXUXUXKXKXKXKXKXKXKXKXKXKXKXKXKXLXzXeXCXUXKXKXKXKXUXUXUXUXUX",
"UXUXUXUXUXUXUXUXUXUXUXUXUXUXUXUXUXUXUXUXUXUXUXUXUXUXUXUXUXUXUXUX",
"UXUXUXUXUXUXUXUXUXUXUXUXUXUXUXUXUXUXUXUXUXUXUXUXUXUXUXUXUXUXUXUX"
};
