/* XPM */
static char *saveas[] = {
/* columns rows colors chars-per-pixel */
"28 44 187 2",
"   c #020202",
".  c gray4",
"X  c #131313",
"o  c #1B1B1B",
"O  c #3B2D19",
"+  c #222222",
"@  c #272728",
"#  c #2F2F2F",
"$  c #342D21",
"%  c #312F2C",
"&  c gray20",
"*  c #3B3636",
"=  c #3C3C3B",
"-  c #5E3415",
";  c #7D3B0D",
":  c #4B3D29",
">  c #583521",
",  c #413935",
"<  c #6E400C",
"1  c #7C4D08",
"2  c #764B17",
"3  c #784B17",
"4  c #544422",
"5  c #40403F",
"6  c #514535",
"7  c #544A3B",
"8  c #5B4E3A",
"9  c #624C3D",
"0  c #434343",
"q  c #484140",
"w  c #4C4C4C",
"e  c #5D5240",
"r  c #535353",
"t  c #505358",
"y  c gray36",
"u  c #625746",
"i  c #675B46",
"p  c #65594D",
"a  c #6A5C4A",
"s  c #705947",
"d  c #6A5E50",
"f  c #676056",
"g  c #6D6252",
"h  c #67615E",
"j  c #6F6559",
"k  c #6F685B",
"l  c #766A5A",
"z  c #4F5763",
"x  c #535A64",
"c  c #5A5E65",
"v  c #525D6F",
"b  c #5E6269",
"n  c #566172",
"m  c #5B6576",
"M  c gray39",
"N  c #6B6663",
"B  c #6B6864",
"V  c #66696D",
"C  c #6C6C6B",
"Z  c #756E63",
"A  c #6F706E",
"S  c #72706E",
"D  c #636A74",
"F  c #696D72",
"G  c #626C7B",
"H  c #747474",
"J  c #787877",
"K  c #77797C",
"L  c #7C7C7B",
"P  c #D70101",
"I  c #DA0F01",
"U  c #D6191A",
"Y  c #D81F1F",
"T  c #EC0701",
"R  c #F30601",
"E  c #FA0500",
"W  c #DB2801",
"Q  c #FF2F00",
"!  c #EC3400",
"~  c #F43300",
"^  c #FA3400",
"/  c #DA2727",
"(  c #DB2D2C",
")  c #DE3B39",
"_  c #9F4602",
"`  c #B84A00",
"'  c #C64F00",
"]  c #CC4C00",
"[  c #D74300",
"{  c #D04C00",
"}  c #C45000",
"|  c #CC5101",
" . c #D05002",
".. c #D25E10",
"X. c #F44C00",
"o. c #D26518",
"O. c #D67935",
"+. c #8E6240",
"@. c #9D7451",
"#. c #907B5D",
"$. c #DF4341",
"%. c #E35553",
"&. c #E76F6D",
"*. c #E97B7B",
"=. c #AB8262",
"-. c #C58351",
";. c #E19F74",
":. c #F3967F",
">. c #697483",
",. c #6F7886",
"<. c #767A80",
"1. c #7C7E82",
"2. c #737D8B",
"3. c #77808E",
"4. c #768190",
"5. c #7C8593",
"6. c gray52",
"7. c #84888D",
"8. c gray55",
"9. c #838A94",
"0. c #898D92",
"q. c #838C99",
"w. c #8D939D",
"e. c #949493",
"r. c #95989D",
"t. c #9B9B9B",
"y. c #8E95A0",
"u. c #9399A3",
"i. c #9B9EA2",
"p. c #9CA0A7",
"a. c #9AA1AC",
"s. c gray64",
"d. c #A6A9AD",
"f. c #ABABAA",
"g. c #A1A9B4",
"h. c #AAAEB4",
"j. c #AAB0B9",
"k. c gray70",
"l. c #B8B8B7",
"z. c #B2B5BB",
"x. c #B6B9BD",
"c. c #BBBBBB",
"v. c #E68484",
"b. c #E78885",
"n. c #E89086",
"m. c #E99A86",
"M. c #C8A88F",
"N. c #D5A98C",
"B. c #CBB29F",
"V. c #E1A682",
"C. c #E9A086",
"Z. c #E9A58A",
"A. c #EAA98B",
"S. c #CBB9AB",
"D. c #EBA3A2",
"F. c #EEB0A1",
"G. c #EFB5B3",
"H. c #C8C2BB",
"J. c #F0C1B0",
"K. c #B1B8C2",
"L. c #BCBFC2",
"P. c #B9BFC8",
"I. c #BFC1C4",
"U. c #C3C3C3",
"Y. c #C8C8C7",
"T. c #C2C6CC",
"R. c #C5C9CE",
"E. c #CBCCCC",
"W. c #C5CAD1",
"Q. c #CFD0D2",
"!. c LightGray",
"~. c #DDD9D6",
"^. c gainsboro",
"/. c #F1C5C4",
"(. c #F3CEC2",
"). c #F4D4D3",
"_. c #F6DBD2",
"`. c #E0E0DF",
"'. c #E2E2E2",
"]. c #ECECEB",
"[. c #F8E2E2",
"{. c #F0F0EF",
"}. c #FAF0EC",
"|. c #F2F2F1",
" X c #FEF1F0",
".X c black",
"XX c None",
/* pixels */
"XX].].^.Q.!.!.!.!.!.!.!.!.!.!.!.!.!.!.!.!.!.`.].XXXXXXXX",
"XX'.Q.W.W.T.!.'.].'.'.'.'.'.'.'.'.'.'.'.E.W.R.^.XXXXXXXX",
"].!.T.U.U.L.^.|.|.|.|.|.|.`.E.E.!.|.|.|.Y.I.I.I.^.XXXXXX",
"'.I.P.x.l.l.!.|.|.|.|.{.|.!.l.l.Y.{.|.|.T.l.I.I.R.'.XXXX",
"'.x.x.k.k.f.E.|.{.{.{.{.{.E.f.k.L.{.{.{.c.k.k.k.K.Y.].XX",
"'.z.h.f.f.f.Y.|.{.{.{.{.{.Y.f.f.l.].{.].k.f.f.f.h.j.!.XX",
"'.h.g.s.s.t.U.].].{.].{.{.H.t.s.f.].{.'.f.s.s.s.s.g.k.XX",
"'.d.a.t.t.t.c.|.{.{.{.{.{.Q.l.l.Y.].].].s.t.t.t.r.a.d.].",
"'.p.u.e.e.e.t.U.c.c.c.c.c.c.c.c.f.J S 6.e.e.e.e.e.u.p.].",
"'.u.w.8.8.8.6.6.6.6.6.6.8.6.8.L 0 f.~.S y e.8.8.0.y.i.'.",
"`.w.q.6.6.6.6.7.6.6.8.6.8.6.7.H B }. XU.w 6.6.6.6.q.u.].",
"'.9.9.6.6.6.6.6.6.L L L H H H M Z [.[.S.w 6.6.6.6.5.e.].",
"`.7.5.L L J M w 0 = * & % & & @ f _.).S.= C L L 1.2.0.].",
"`.1.2.C d 5 0 L 6.6.6.6.6.6.6.A j (./.B.% & r M H ,.7.].",
"`.D n t w 5 U.'.'.'.^.Q.E.E.!.f.l J.G.M.B M & w w v <.].",
"`.z v y w b '.^.^.L.h d g g g i #.F.D.N.i u 6 7 7 , t '.",
"`.x m M r V `.^.^.N =.A.A.A.Z.Z.m.b.v.n.C.Z.A.Z.Z.V.s f.",
"'.c G V r B `.`.Q.p ;.b.*.%.$.( Y U U Y / ) %.&.*.:.@.8.",
"`.x >.H d V `.^.^.H +.O.o.| ] ] [ I P W { ]  ...O.-.9 c.",
"'.c ,.K M C `.^.^.Q.L d a a a e 1 ! P | 4 8 O : : * y ].",
"`.c 2.6.V C `.^.^.^.^.^.^.!.^.l.2 ! T } Z f.w 1.1.>.F '.",
"`.c 4.6.S N `.^.^.^.^.^.^.^.^.x.2 ! T ' Z f.r 6.6.2.F ].",
"'.c 9.8.6.w c.'.`.`.^.'.^.`.'.L.3 ~ R ' k A V 8.8.4.F ].",
"`.b q.e.e.H r H L L L L L L L V < ~ R | $ y 8.e.e.5.F ].",
"].V q.r.e.e.8.L H H H H H H H M < ^ E ] 7 r.e.e.r.2.K XX",
"XXp.z q.w.w.w.w.y.w.w.y.y.w.y.3.- X.Q ` w y.w.w.q.t l.XX",
"XX'.f.F b b b b b b b b b b b c q ; _ > t b b b F k.].XX",
"XXXXXX'.'.`.'.'.'.`.'.'.`.'.`.'.^.s.8.U.'.`.'.'.].XXXXXX",
"XXXXXXXXXXXXXXXXXXXXXXXXXXXXXXXXXXXXXXXXXXXXXXXXXXXXXXXX",
"XXXXXXXXXXXXXXXXXXXXXXXXXXXXXXXXXXXXXXXXXXXXXXXXXXXXXXXX",
"XXXXXXXXXXXXXXXXXXXXXXXXXXXXXXXXXXXXXXXXXXXXXXXXXXXXXXXX",
"XXXXXXXXXXXXXXXXXXXXXXXXXXXXXXXXXXXXXXXXXXXXXXXXXXXXXXXX",
"XXs.o   # XXXXXXXXXXXXXXXXXXXXXXXXXXXXXXXXXXXXXXXXXXXXXX",
"XXX s.^.f.XXXXXXXXXXXXXXXXXXXXXXXXXXXXXXXXXXXXXXXXXXXXXX",
"XXo s.XXXXXXXXXXXX0   M XXXX# t.XXXXs.% XXXX^.0   + l.XX",
"XXl.o = c.XXXXXXXXY.!.. XXXX6.= XXXX0 e.XXXXw f.'.f.& XX",
"XXXX'.6.@ k.XXXXk.#     XXXX^.. Y.E.X '.XXXX          XX",
"XXXXXXXXU.X XXXXo e.'.  XXXXXXr H C V XXXXXXX ^.XXXXXXXX",
"XX8.Q.'.e.+ XXXX. U.f.  !.XXXXk.X X Y.XXXXXXy r !.'.l.XX",
"XX0 .   = U.XXXXH . V M o XXXX'.+ 0 XXXXXXXX^.y . . = XX",
"XXXXXXXXXXXXXXXXXXXXXXXXXXXXXXXXXXXXXXXXXXXXXXXXXXXXXXXX",
"XXXXXXXXXXXXXXXXXXXXXXXXXXXXXXXXXXXXXXXXXXXXXXXXXXXXXXXX",
"XXXXXXXXXXXXXXXXXXXXXXXXXXXXXXXXXXXXXXXXXXXXXXXXXXXXXXXX",
"XXXXXXXXXXXXXXXXXXXXXXXXXXXXXXXXXXXXXXXXXXXXXXXXXXXXXXXX"
};
