/* XPM */
static char *saveas[] = {
/* columns rows colors chars-per-pixel */
"28 28 184 2",
"   c #3B2D19",
".  c #272728",
"X  c #342D21",
"o  c #312F2C",
"O  c #333434",
"+  c #3B3636",
"@  c #3C3B3A",
"#  c #5E3415",
"$  c #7D3B0D",
"%  c #4B3D29",
"&  c #583521",
"*  c #413935",
"=  c #6E400C",
"-  c #7C4D08",
";  c #764B17",
":  c #784B17",
">  c #544422",
",  c #40403F",
"<  c #514535",
"1  c #544A3B",
"2  c #5B4E3A",
"3  c #624C3D",
"4  c #444443",
"5  c #484140",
"6  c #4C4C4C",
"7  c #5D5240",
"8  c #535353",
"9  c #505358",
"0  c #5D5D5D",
"q  c #625746",
"w  c #675B46",
"e  c #65594D",
"r  c #6A5C4A",
"t  c #705947",
"y  c #676056",
"u  c #6D6252",
"i  c #67615E",
"p  c #6F6559",
"a  c #6F685B",
"s  c #766A5A",
"d  c #4F5763",
"f  c #535A64",
"g  c #5A5E65",
"h  c #525D6F",
"j  c #5E6165",
"k  c #5E6269",
"l  c #566172",
"z  c #5B6576",
"x  c gray39",
"c  c #6B6663",
"v  c #6B6864",
"b  c #66696D",
"n  c #6C6C6B",
"m  c #756E63",
"M  c #6F706E",
"N  c #787065",
"B  c #72706E",
"V  c #696D72",
"C  c #626C7B",
"Z  c #747474",
"A  c #787877",
"S  c #77797C",
"D  c #7C7C7B",
"F  c #D70101",
"G  c #DA0F01",
"H  c #D6191A",
"J  c #D81F1F",
"K  c #E30602",
"L  c #EC0701",
"P  c #F30601",
"I  c #FA0500",
"U  c #DB2801",
"Y  c #E62F01",
"T  c #FF2F00",
"R  c #EC3400",
"E  c #F43300",
"W  c #FA3400",
"Q  c #DA2727",
"!  c #DB2D2C",
"~  c #DE3B39",
"^  c #9F4602",
"/  c #B84A00",
"(  c #C64F00",
")  c #CC4C00",
"_  c #D74300",
"`  c #D04C00",
"'  c #C45000",
"]  c #CC5101",
"[  c #D05002",
"{  c #D25E10",
"}  c #F44C00",
"|  c #D26518",
" . c #D67935",
".. c #8E6240",
"X. c #9D7451",
"o. c #907B5D",
"O. c #DF4341",
"+. c #E35553",
"@. c #E4605E",
"#. c #E76F6D",
"$. c #E87876",
"%. c #E97B7B",
"&. c #AB8262",
"*. c #D48043",
"=. c #C58351",
"-. c #E19F74",
";. c #F3967F",
":. c #697483",
">. c #767A80",
",. c #7C7E82",
"<. c #737D8B",
"1. c #77808E",
"2. c #7C838E",
"3. c #768190",
"4. c #7C8593",
"5. c gray52",
"6. c #84888D",
"7. c gray55",
"8. c #898D92",
"9. c #838C99",
"0. c #8D939D",
"q. c gray58",
"w. c #95989D",
"e. c #9B9B9C",
"r. c #8E95A0",
"t. c #9399A3",
"y. c #9B9EA2",
"u. c #9CA0A7",
"i. c #9AA1AC",
"p. c gray64",
"a. c #A2A5AB",
"s. c #A6A9AD",
"d. c #ABABAA",
"f. c #A1A9B4",
"g. c #AAAEB4",
"h. c #AAB0B9",
"j. c gray70",
"k. c #B8B8B7",
"l. c #B2B5BB",
"z. c #B6B9BD",
"x. c #BBBCBB",
"c. c #E68484",
"v. c #E78885",
"b. c #E89086",
"n. c #E99A86",
"m. c #C8A88F",
"M. c #D5A98C",
"N. c #E1A682",
"B. c #E9A086",
"V. c #E9A58A",
"C. c #EAA98B",
"Z. c #CBB9AB",
"A. c #EBA3A2",
"S. c #EEB0A1",
"D. c #EFB5B3",
"F. c #C8C2BB",
"G. c #F0C1B0",
"H. c #B1B8C2",
"J. c #BCBFC2",
"K. c #B9BFC8",
"L. c #BFC1C4",
"P. c #C3C3C3",
"I. c #C8C8C7",
"U. c #C2C6CC",
"Y. c #C5C9CE",
"T. c #CCCCCD",
"R. c #C5CAD1",
"E. c #CFD0D2",
"W. c LightGray",
"Q. c #DDD9D6",
"!. c gainsboro",
"~. c #F3CEC2",
"^. c #F4D4D3",
"/. c #E0E0DF",
"(. c #F8E6DF",
"). c #E2E2E2",
"_. c #ECECEC",
"`. c #F8E2E2",
"'. c #F0F0EF",
"]. c #FAF0EC",
"[. c #F2F2F1",
"{. c #FEF1F0",
"}. c black",
"|. c None",
/* pixels */
"|._.).!.W.W.W.W.W.W.Q.W.W.W.W.W.W.W.W.W.W.W.)._.|.|.|.|.",
"|.).W.R.R.Y.W.)._.).).).).).).).).)._.).T.Y.L.!.|.|.|.|.",
"_.W.R.L.P.x.Q.[.[.[.[.[.[.!.T.T.W.[.[.[.T.J.L.L./.|.|.|.",
").L.K.z.k.l.W.[.[.[.[.[.[.W.k.k.P.'.[.'.P.k.J.L.U._.|.|.",
").H.z.j.j.d.T.[.[.[.'.[.[.T.j.j.J._.[._.x.g.j.j.H.T._.|.",
").l.h.d.d.d.I.[._.[._.[.[.I.d.d.k._.'._.k.d.d.d.g.h.W.|.",
").g.f.p.p.p.P.'._.'._._.'.x.e.e.d._._._.d.p.p.p.p.f.h.|.",
").s.u.e.e.q.k.[._.[.'.'.'.W.k.k.F._._._.p.e.e.e.e.i.s._.",
"/.u.t.q.q.q.e.J.x.x.z.x.x.x.x.Z.d.D B 5.q.q.q.q.q.r.a.).",
").t.0.q.7.7.7.2.5.7.5.7.5.7.5.2.4 d.Q.B 0 7.q.7.8.0.y._.",
"/.0.8.5.5.5.4.4.5.7.5.5.5.5.7.Z v ].{.F.6 4.4.5.7.9.w._.",
"/.8.4.,.5.5.&.5.5.D A A A Z Z j v `.`.Z.6 &.2.D 5.4.q._.",
"/.2.2.D D A j 6 4 @ O O O o O . y (.^.Z.@ Z A D S <.8._.",
").1.1.n 0 , 4 D 2.2.3.&.5.5.5.M p ~.G.Z.o O 8 x Z <.6._.",
"/.b l 8 6 , P.)./.).!.E.E.E.E.d.s D.D.m.c x O 6 6 h >._.",
"/.f h 0 6 i /././.P.i e u u u e o.S.A.M.w q < 1 1 * 9 ).",
").f z x 8 n /.!.!.c &.V.B.V.V.V.n.v.c.b.n.V.C.V.V.N.t d.",
").f C n 8 n /.!.W.e -.;.$.@.O.! J H H J Q ~ +.#.%.;.X.7.",
"/.f C Z 0 v /./.!.Z ..*.| ] ) ) _ G F U ` ) [ {  .=.3 x.",
"/.g 1.A j n /.!.!.T.A w e r r 7 - Y F ] > 2   % % + g ).",
"/.g 1.5.n n /.!.!.!.!.!.!.W.!.z.; R K ' m d.6 D ,.:.V _.",
"/.g 1.7.M v /.!.!.!.!.!.!.!.!.z.; R L ( N d.8 5.5.<.V _.",
"/.j 4.7.5.6 x.)./././././././.L.: E P ] a M n 7.7.1.V ).",
").k 4.q.q.Z 8 Z D D D D D D D b = E P ] X 0 7.q.q.4.V _.",
").V 4.e.q.e.7.A Z Z Z Z Z Z Z j = W I ] 1 q.q.q.w.<.S |.",
"|.p.h 4.0.0.0.0.0.0.0.0.r.r.r.1.# } T / 6 0.r.r.4.d k.|.",
"|._.d.b k k k k k k k k k k k j 5 $ ^ & 9 k k k V j._.|.",
"|.|.|.)./.).).).).).).)./././.).!.p.7.P.)./.).)._.|.|.|."
};
