/* XPM */
static char *save[] = {
/* columns rows colors chars-per-pixel */
"32 32 128 2",
"   c #353535",
".  c gray23",
"X  c #434343",
"o  c gray30",
"O  c gray33",
"+  c #585857",
"@  c gray36",
"#  c #60605F",
"$  c #465469",
"%  c #4D5A6E",
"&  c #525760",
"*  c #585D63",
"=  c #525F72",
"-  c #546174",
";  c #586476",
":  c #5B6778",
">  c #5E697A",
",  c #646464",
"<  c #6D6D6C",
"1  c #666B72",
"2  c #696D73",
"3  c #626D7D",
"4  c #6D7074",
"5  c #747575",
"6  c gray49",
"7  c #6A7483",
"8  c #6D7889",
"9  c #757A80",
"0  c #7D7F82",
"q  c #717B8B",
"w  c #7E8083",
"e  c #78818E",
"r  c #778190",
"t  c #7B8593",
"y  c #838383",
"u  c #858789",
"i  c #898989",
"p  c #848B96",
"a  c #8D8E90",
"s  c #848C98",
"d  c #8D9096",
"f  c #88919F",
"g  c #939494",
"h  c #989896",
"j  c #93979C",
"k  c #969899",
"l  c gray61",
"z  c #8B93A0",
"x  c #9199A6",
"c  c #9B9EA1",
"v  c #9FA1A4",
"b  c #99A1AD",
"n  c #A4A4A3",
"m  c #A2A5A8",
"M  c #A6A9AE",
"N  c gray67",
"B  c #A2A9B5",
"V  c #ADAFB2",
"C  c #ACB2BB",
"Z  c gray70",
"A  c #B3B6BB",
"S  c gray73",
"D  c #B3B9C2",
"F  c #BCBEC1",
"G  c #BABFC8",
"H  c #BAC0C8",
"J  c gray76",
"K  c #C8C8C7",
"L  c #C1C5CC",
"P  c #C6C8CD",
"I  c #CCCCCD",
"U  c #C2C7D0",
"Y  c #C6CAD1",
"T  c #C8CDD3",
"R  c #CFD0D0",
"E  c #D2D2D2",
"W  c #D6D8DA",
"Q  c gainsboro",
"!  c #E0E0DE",
"~  c #E2E2E1",
"^  c #E8E8E7",
"/  c #EAEAEA",
"(  c #F0EFEF",
")  c #EFF0EF",
"_  c #F0F0EF",
"`  c gray95",
"'  c None",
"]  c black",
"[  c black",
"{  c black",
"}  c black",
"|  c black",
" . c black",
".. c black",
"X. c black",
"o. c black",
"O. c black",
"+. c black",
"@. c black",
"#. c black",
"$. c black",
"%. c black",
"&. c black",
"*. c black",
"=. c black",
"-. c black",
";. c black",
":. c black",
">. c black",
",. c black",
"<. c black",
"1. c black",
"2. c black",
"3. c black",
"4. c black",
"5. c black",
"6. c black",
"7. c black",
"8. c black",
"9. c black",
"0. c black",
"q. c black",
"w. c black",
"e. c black",
"r. c black",
"t. c black",
"y. c black",
"u. c black",
/* pixels */
"' ' ' ' ' ' ' ' ' ' ' ' ' ' ' ' ' ' ' ' ' ' ' ' ' ' ' ' ' ' ' ' ",
"' ' ' ' ' ' ' ' ' ' ' ' ' ' ' ' ' ' ' ' ' ' ' ' ' ' ' ' ' ' ' ' ",
"' ' ' ' ^ ~ Q Q Q Q ! ! Q Q Q W Q W Q Q Q W Q Q ^ ^ ' ' ' ' ' ' ",
"' ' ' ^ W T Y P R ! ! ! ! ! ! ! ! ! ! ! ! Q I T I Q ' ' ' ' ' ' ",
"' ' ' Q U L J J E ` ` ` ` ` ` ! E E W ` ` _ K J L I ^ ' ' ' ' ' ",
"' ' ^ P H S S S E ` ` ` ` ` ` E S Z K ( _ ( J S F G T ^ ' ' ' ' ",
"' ' ^ G D Z Z Z I _ _ ` ` ` _ E Z Z J ( _ ( S Z Z A D E / ' ' ' ",
"' ' ^ S C N N M J ` _ _ _ ` _ K N N S ( _ / Z N N N C A Q ' ' ' ",
"' ' ^ A B n n n S _ ( ( _ _ _ J l l Z / ( ^ N n m n m B F ' ' ' ",
"' ' ^ V b l l h Z ` ( ( _ _ _ R Z Z J ( ( ^ n l l l v x Z ' ' ' ",
"' ' ^ V x g g g l J J J J J J J K J S J J S g g g g h x V ' ' ' ",
"' ' ^ v j a a a i i u i i y i i i i i i i i i a a a a z N ' ' ' ",
"' ' ^ c s i u u i i i i i i i i i i i i u u u i u u u s m ' ' ' ",
"' ' ^ j t y y y y y y y 6 5 5 5 5 5 5 6 6 y y y y y u t m ' ' ' ",
"' ' ^ d r w 6 6 , o X .             . . X o + 5 6 6 w q l ' ' ' ",
"' ' / p q 2 # X X 6 y y y y y y y y y y y y +   + , 5 8 j ' ' ' ",
"' ' ^ 9 = O o . S ~ ~ ~ ~ ~ ~ ! ! ! ! ! ! ! Q # X + @ - a ' ' ' ",
"' ' ^ 1 = @ O + ! Q ! Q Q Q Q Q Q Q Q Q Q Q ! h . @ * $ 0 ' ' ' ",
"' ' / 1 = , + @ Q ! Q ! Q Q Q Q Q Q Q Q Q Q ! l X , , % 0 ' ' ' ",
"' ' / 1 : < @ @ Q Q ! Q Q Q Q Q Q Q Q Q Q Q ! l X < < , 0 ' ' ' ",
"' ' / 2 3 5 # @ Q Q ! Q Q Q Q Q Q Q W Q Q E ! n o 5 5 - 0 ' ' ' ",
"' ' / 2 7 6 < # Q ! Q Q Q Q Q Q Q Q Q Q Q Q ! l o 6 6 : 0 ' ' ' ",
"' ' ^ 2 7 y 4 # Q ! Q Q Q Q Q Q W Q Q Q Q Q Q l O y y 7 w ' ' ' ",
"' ' / 2 q i 6 @ Q Q Q Q Q Q Q Q Q W W Q Q E ! h + u u 7 w ' ' ' ",
"' ' / 2 r a i O n ! ! ! ! ! ! ! ! ! Q ! Q Q I , 5 a a 7 y ' ' ' ",
"' ' / 2 t g g 6 O , < < < < < < < < < < < < + , g g g q w ' ' ' ",
"' ' ' 0 q l h l g y 6 w y 6 y 6 6 6 6 y 6 6 i l g k c 3 g ' ' ' ",
"' ' ' J + q s s s s s s p p s s s s s s s s s s p s 7 * E ' ' ' ",
"' ' ' ' L 0 2 4 4 4 4 4 4 4 4 4 5 4 4 4 4 4 4 4 4 4 u I ' ' ' ' ",
"' ' ' ' ' ^ / / / ^ / / / / ^ / ^ ^ ^ / ^ / / / / / ^ ' ' ' ' ' ",
"' ' ' ' ' ' ' ' ' ' ' ' ' ' ' ' ' ' ' ' ' ' ' ' ' ' ' ' ' ' ' ' ",
"' ' ' ' ' ' ' ' ' ' ' ' ' ' ' ' ' ' ' ' ' ' ' ' ' ' ' ' ' ' ' ' "
};
