/* XPM */
static char *save_sel[] = {
/* columns rows colors chars-per-pixel */
"32 32 64 1",
"  c gray12",
". c gray14",
"X c #24282D",
"o c gray17",
"O c #30302F",
"+ c #2D3136",
"@ c #2A333F",
"# c gray20",
"$ c #383837",
"% c #323538",
"& c gray23",
"* c #2E3642",
"= c #333A45",
"- c #393D43",
"; c #373E48",
": c #383F49",
"> c #3C434C",
", c #434344",
"< c #42464C",
"1 c gray30",
"2 c #414750",
"3 c #434953",
"4 c #494D53",
"5 c #484F58",
"6 c #4D5054",
"7 c #4F535B",
"8 c #535353",
"9 c #52565C",
"0 c #575A5E",
"q c #5B5C5C",
"w c #555A62",
"e c #5B5E62",
"r c #5C6168",
"t c #646464",
"y c #63666A",
"u c #676A6E",
"i c #6C6C6C",
"p c #706F6F",
"a c #70706E",
"s c #676A70",
"d c #6B6E72",
"f c gray45",
"g c #727579",
"h c #76787D",
"j c #7B7B7B",
"k c #7D7E80",
"l c #858584",
"z c #888887",
"x c #8D8D8D",
"c c #90908F",
"v c #908F90",
"b c gray57",
"n c #A2A2A2",
"m c gray67",
"M c #B6B6B6",
"N c #BABAB9",
"B c gray77",
"V c #CECECE",
"C c #D0D0D0",
"Z c gray86",
"A c #E6E6E6",
"S c #E9E9E9",
"D c None",
"F c black",
/* pixels */
"DDDDDDDDDDDDDDDDDDDDDDDDDDDDDDDD",
"DDDDDDDDDDDDDDDDDDDDDDDDDDDDDDDD",
"DDDDZNmmmmmmmmmmmmmmmmmmBADDDDDD",
"DDDVljhhjlzzzzzlzlzzlljhjNDDDDDD",
"DDDbhggglbbbbbbzjklcccjfgjCDDDDD",
"DDSjgdppjbbbbbbjppjcccfpdglZDDDD",
"DDAgdiiijbbbbbbjipfcccppdddxADDD",
"DDAfuittfbbbbbbjttpxcxpttyuumDDD",
"DDSfyttefccccccftqpxxxtttttukDDD",
"DDSurqqqibccbbcjiifcxxtqqqqrgDDD",
"DDSreqqqtffgffffffaffaqqqqqwdDDD",
"DDSew8888188888188888888q889uDDD",
"DDS0788818888888888888888887yDDD",
"DDA9711181111,1,,,,111111145tDDD",
"DDS4511<&Oo...    ..oo$,1113eDDD",
"DDS12,$oo,811111181111$ #&<2qDDD",
"DDS-=#O.azzzzzllzzzzlll&.$$=6DDD",
"DDS+*$O#llllllllzllllllq.$$*,DDD",
"DDS+=&$$llllllllllllllzt.&&%<DDD",
"DDS+;,$$lllllllljllllllqo,,&,DDD",
"DDS+>,&$llllllllllllllzqo,,=<DDD",
"DDS%>1,$lllllllllljlllzq#11>,DDD",
"DDS+31,&llllklllllklkjzq#11>,DDD",
"DDS%311$llllllllllllllzq$88><DDD",
"DDS%488#tlllllllllllllj$,88<<DDD",
"DDS%50q1#&,,,,,,,,&,,,$&8q03,DDD",
"DDD,3qqqq11111111111118qqqe>qDDD",
"DDDnX376777987777877779797<XNDDD",
"DDDDn<%%%%%%%%%$%%%%%%%%%$4MDDDD",
"DDDDDSSSSSSSSSSSSSSSSSSSSSSDDDDD",
"DDDDDDDDDDDDDDDDDDDDDDDDDDDDDDDD",
"DDDDDDDDDDDDDDDDDDDDDDDDDDDDDDDD"
};
