/* XPM */
static char *saveas[] = {
/* columns rows colors chars-per-pixel */
"32 32 256 2",
"   c #2B2B2A",
".  c #322E26",
"X  c #3A2F20",
"o  c #343434",
"O  c #3C3532",
"+  c #363539",
"@  c #373839",
"#  c gray23",
"$  c #593013",
"%  c #713C18",
"&  c #74420B",
"*  c #7E4D09",
"=  c #7C4C15",
"-  c #53482E",
";  c #4B4032",
":  c #5A4438",
">  c #554938",
",  c #5A4E3D",
"<  c #444444",
"1  c #4C4C4C",
"2  c #57524B",
"3  c #5F5849",
"4  c #4D4F53",
"5  c #535353",
"6  c #5A5554",
"7  c #585857",
"8  c #5C5D5C",
"9  c #645746",
"0  c #605148",
"q  c #685648",
"w  c #675C4C",
"e  c #685C48",
"r  c #675C55",
"t  c #6C5F51",
"y  c #60605F",
"u  c #6E645A",
"i  c #706454",
"p  c #746A5D",
"a  c #7B6E5D",
"s  c #4D5A6D",
"d  c #525760",
"f  c #585D63",
"g  c #546073",
"h  c #5B6778",
"j  c #646463",
"k  c #696360",
"l  c #6E6961",
"z  c #67696C",
"x  c #6D6D6C",
"c  c #726D69",
"v  c #666B71",
"b  c #6A6E73",
"n  c #626D7E",
"m  c #6D7074",
"M  c #747474",
"N  c #777879",
"B  c gray49",
"V  c #D80202",
"C  c #DB0F02",
"Z  c #D61616",
"A  c #D71A1A",
"S  c #D81D1C",
"D  c #E20902",
"F  c #EB0B02",
"G  c #F50A01",
"H  c #FC0A00",
"J  c #DB3001",
"K  c #E72D02",
"L  c #EB3101",
"P  c #F23000",
"I  c #F93100",
"U  c #FF3E00",
"Y  c #DB2724",
"T  c #DC2B28",
"R  c #DF3B37",
"E  c #85400B",
"W  c #A04200",
"Q  c #BC4F00",
"!  c #BD5000",
"~  c #835B3D",
"^  c #C74D00",
"/  c #C94E00",
"(  c #D44601",
")  c #C25200",
"_  c #C95102",
"`  c #CC5F10",
"'  c #F04E00",
"]  c #CB6315",
"[  c #E0413D",
"{  c #CC7C3F",
"}  c #D07A36",
"|  c #856548",
" . c #B2774A",
".. c #817C75",
"X. c #E45652",
"o. c #E55E5A",
"O. c #E8706D",
"+. c #E97774",
"@. c #EA7D7B",
"#. c #978062",
"$. c #82807F",
"%. c #A98061",
"&. c #DC9C71",
"*. c #F59D7E",
"=. c #DBA27E",
"-. c #6A7584",
";. c #6D7889",
":. c #737983",
">. c #7E7F82",
",. c #717B8B",
"<. c #7E8083",
"1. c #78818E",
"2. c #778190",
"3. c #7B8593",
"4. c #838383",
"5. c #898787",
"6. c #858789",
"7. c #898A8A",
"8. c #848B95",
"9. c #8D8E90",
"0. c #848C98",
"q. c #8D9096",
"w. c #88919F",
"e. c #939393",
"r. c #93979C",
"t. c #969899",
"y. c #9B9B9C",
"u. c #BEA188",
"i. c #8B93A0",
"p. c #9199A6",
"a. c #9B9EA1",
"s. c #9FA1A4",
"d. c #99A1AD",
"f. c gray64",
"g. c #AAA7A4",
"h. c #A2A5A8",
"j. c #A6A9AE",
"k. c gray67",
"l. c #A2A9B5",
"z. c #ADAFB2",
"x. c #ACB2BB",
"c. c gray70",
"v. c #BCB6B0",
"b. c #B3B6BB",
"n. c #B6B8BB",
"m. c gray73",
"M. c #E68382",
"N. c #ED8780",
"B. c #E98F84",
"V. c #EA9784",
"C. c #EA9E86",
"Z. c #CFA587",
"A. c #C1AA97",
"S. c #E9A087",
"D. c #EBA58C",
"F. c #EBA98C",
"G. c #C1B0A2",
"H. c #C2B7AD",
"J. c #EDA5A3",
"K. c #EFAFA2",
"L. c #F0B6B4",
"P. c #F1C0B2",
"I. c #B3B9C2",
"U. c #BCBEC1",
"Y. c #BABFC8",
"T. c #BAC0C8",
"R. c gray76",
"E. c #C8C8C7",
"W. c #C1C5CC",
"Q. c #C6C8CD",
"!. c #CCCCCD",
"~. c #D3CFCC",
"^. c #C2C7D0",
"/. c #C6CAD1",
"(. c #C8CDD3",
"). c #CFD0D0",
"_. c LightGray",
"`. c #D6D7D8",
"'. c #D6D8DA",
"]. c #DDDDDD",
"[. c #F3C7C5",
"{. c #F4CEC3",
"}. c #F6D6D5",
"|. c #F7DCD3",
" X c #E0E0DF",
".X c gray89",
"XX c #E8E8E7",
"oX c #EAEAEA",
"OX c #F9E6E2",
"+X c #F0EFEF",
"@X c #EFF0EF",
"#X c #F0F0EF",
"$X c #FCF2EE",
"%X c gray95",
"&X c #FFF3F2",
"*X c None",
"=X c black",
"-X c black",
";X c black",
":X c black",
">X c black",
",X c black",
"<X c black",
"1X c black",
"2X c black",
"3X c black",
"4X c black",
"5X c black",
"6X c black",
"7X c black",
"8X c black",
"9X c black",
"0X c black",
"qX c black",
"wX c black",
"eX c black",
"rX c black",
"tX c black",
"yX c black",
"uX c black",
"iX c black",
"pX c black",
"aX c black",
"sX c black",
"dX c black",
"fX c black",
"gX c black",
"hX c black",
"jX c black",
"kX c black",
"lX c black",
"zX c black",
"xX c black",
"cX c black",
"vX c black",
"bX c black",
"nX c black",
"mX c black",
"MX c black",
"NX c black",
"BX c black",
"VX c black",
"CX c black",
"ZX c black",
"AX c black",
"SX c black",
"DX c black",
"FX c black",
"GX c black",
"HX c black",
"JX c black",
"KX c black",
"LX c black",
"PX c black",
"IX c black",
"UX c black",
/* pixels */
"*X*X*X*X*X*X*X*X*X*X*X*X*X*X*X*X*X*X*X*X*X*X*X*X*X*X*X*X*X*X*X*X",
"*X*X*X*X*X*X*X*X*X*X*X*X*X*X*X*X*X*X*X*X*X*X*X*X*X*X*X*X*X*X*X*X",
"*X*X*X*XXX.X].].].].]. X].].'.].].].].].].].].]..XXX*X*X*X*X*X*X",
"*X*X*XXX'.(./.Q.). X X X X X X X]. X].]. X].Q.(.(. X*X*X*X*X*X*X",
"*X*X*X].^.W.R.T._.%X%X%X%X%X%X X_._.].%X%X#XQ.R.Q.Q..X*X*X*X*X*X",
"*X*XXXQ.Y.m.m.m.).%X%X%X%X%X%X_.m.n.E.#X#X#XR.m.U.T.(.XX*X*X*X*X",
"*X*XXXT.I.c.c.c.E.%X%X%X%X%X%X).z.c.R.#X%XoXm.c.c.b.I._.oX*X*X*X",
"*X*XXXm.x.k.k.g.R.%X@X#X%X%X%XE.g.k.m.oX#XoXv.k.k.k.x.b.].*X*X*X",
"*X*XXXn.l.g.f.f.m.#X#X+X@X@X@XR.a.s.v.oX+XXXk.f.f.f.f.l.R.*X*X*X",
"*X*XXXz.d.y.y.y.c.%X#X#X@X@X@X!.v.c.R.oXoXoXf.y.a.y.y.d.c.*X*X*X",
"*X*XXXz.p.t.e.e.y.R.R.R.R.R.R.R.T.R.z.$.N e.e.e.t.e.e.p.z.*X*X*X",
"*X*XXXs.i.7.e.7.7.5.5.5.5.5.5.7.5.$.1 f.~.u z 7.9.9.e.w.j.*X*X*X",
"*X*XXXa.0.7.5.6.7.5.7.7.5.7.7.7.7.M l $X&Xv.5 7.6.6.6.0.h.*X*X*X",
"*X*XXXr.3.4.4.4.4.4.4.<.B N M M N y c OXOXH.1 5.4.4.4.3.f.*X*X*X",
"*X*XoXq.2.$.B N z 4 < # @ @ o o o   p |.}.G.# M B B >.,.y.*X*X*X",
"*X*XXX8.,.b j < ; N 6.4.4.4.$.5.4.x p {.[.A.  # 7 j N ;.r.*X*X*X",
"*X*XoX:.g 5 1 # m..X X.X].!.(.!.).k.a P.L.u.x 7 + 1 5 s 7.*X*X*X",
"*X*XoXv s 8 5 7 ]. X XT.u t i i i w #.K.J.Z.q q > 0 , O x *X*X*X",
"*X*XXXv g j 7 8 ]. X].x %.F.D.D.F.S.V.M.&.M.C.D.S.S.D.=.q Q.*X*X",
"*X*XoXv h m 8 8 ].].'.r &.N.+.o.[ T S Z Z A Y R X.O.@.C.| c.*X*X",
"*X*XXXb h M j y ].]. X$.~ { ] ^ ^ ^ ( C V J _ ^ ^ ` }  .0 `.*X*X",
"*X*XXXb -.B x y ].].]._.5.u i i u 3 * K D ! - , X ; ; o N *X*X*X",
"*X*XXXm :.4.m y ].].].].].].].].].n.= L F ! ..f.4 4.4.-.4.*X*X*X",
"*X*XoXb ,.7.N r ].].].].].].].].].n.= L F ! $.y.8 6.5.-.>.*X*X*X",
"*X*XoXb 2.7.7.5 g. X]..X]. X X]. Xm.= P G ! l j M 9.9.-.4.*X*X*X",
"*X*XXXm 3.e.e.4.5 j x x x x x x x 8 & I G _ . z 9.e.e.,.>.*X*X*X",
"*X*X*X<.,.a.t.t.e.4.B 4.4.B 4.B $.z & I H ) 2 y.t.t.a.n e.*X*X*X",
"*X*X*XR.d ,.8.8.0.0.0.0.0.8.0.0.0.;.$ ' U W 4 0.8.0.-.f _.*X*X*X",
"*X*X*X*XR.4.m m m m m m m m m m m m 6 % E : z m m m 6.!.*X*X*X*X",
"*X*X*X*X*XXXXXoXoXoXoXXXXXoXoXoXXXoX.XR.c.].*XXXoXoXXX*X*X*X*X*X",
"*X*X*X*X*X*X*X*X*X*X*X*X*X*X*X*X*X*X*X*X*X*X*X*X*X*X*X*X*X*X*X*X",
"*X*X*X*X*X*X*X*X*X*X*X*X*X*X*X*X*X*X*X*X*X*X*X*X*X*X*X*X*X*X*X*X"
};
