/* XPM */
static char *saveas_dis[] = {
/* columns rows colors chars-per-pixel */
"32 32 256 2",
"   c #030403",
".  c #060906",
"X  c #0A100A",
"o  c #111711",
"O  c #111C11",
"+  c #162416",
"@  c #1D241C",
"#  c #1C2D1D",
"$  c #24241C",
"%  c #1F332E",
"&  c #222522",
"*  c #242D24",
"=  c #2E2E25",
"-  c #2A2E2A",
";  c #253425",
":  c #2E3024",
">  c #273A28",
",  c #2C3B2C",
"<  c #233632",
"1  c #273B36",
"2  c #2F3A30",
"3  c #343D33",
"4  c #363E3A",
"5  c #4F3E34",
"6  c #354335",
"7  c #30443E",
"8  c #3C4239",
"9  c #3A4A3B",
"0  c #3D503E",
"q  c #4A4637",
"w  c #40453F",
"e  c #4A4738",
"r  c #4E493F",
"t  c #384B45",
"y  c #3F5040",
"u  c #444C44",
"i  c #484E47",
"p  c #4A4D4A",
"a  c #504D46",
"s  c #435243",
"d  c #43534B",
"f  c #475948",
"g  c #4B5B4B",
"h  c #57554E",
"j  c #5C544E",
"k  c #5F5A4C",
"l  c #494F50",
"z  c #415652",
"x  c #475B55",
"c  c #4A5B59",
"v  c #545552",
"b  c #565D55",
"n  c #5B5A53",
"m  c #525758",
"M  c #5D5E5A",
"N  c #6F5745",
"B  c #71584D",
"V  c #645E51",
"C  c #4F6150",
"Z  c #4D615C",
"A  c #526352",
"S  c #566559",
"D  c #586658",
"F  c #5A6B5A",
"G  c #77604E",
"H  c #7B634C",
"J  c #656152",
"K  c #65635C",
"L  c #6A6658",
"P  c #796150",
"I  c #7C6A51",
"U  c #546562",
"Y  c #546B64",
"T  c #596A66",
"R  c #5A7069",
"E  c #626564",
"W  c #666966",
"Q  c #6C6C65",
"!  c #666968",
"~  c #6A6C6A",
"^  c #716D62",
"/  c #637363",
"(  c #687767",
")  c #63746E",
"_  c #6B7B6B",
"`  c #777264",
"'  c #6B7470",
"]  c #647972",
"[  c #6F7F70",
"{  c #747572",
"}  c #757B74",
"|  c #787A77",
" . c #7B7D7C",
".. c #856454",
"X. c #82735B",
"o. c #9E735F",
"O. c #BD7574",
"+. c #BE7876",
"@. c #C37775",
"#. c #C27D79",
"$. c #CD7C7B",
"%. c #6D817A",
"&. c #748375",
"*. c #758578",
"=. c #7B857C",
"-. c #7C8B7C",
";. c #948A72",
":. c #B6846D",
">. c #B8876F",
",. c #AD916E",
"<. c #BC8771",
"1. c #BE8972",
"2. c #A49176",
"3. c #C28A75",
"4. c #C4807B",
"5. c #C88378",
"6. c #C39076",
"7. c #C59F7B",
"8. c #C9A07D",
"9. c #7D7F80",
"0. c #7D8080",
"q. c #778A84",
"w. c #798C85",
"e. c #828584",
"r. c #818E83",
"t. c #829185",
"y. c #85968F",
"u. c #8A958B",
"i. c #8C998C",
"p. c #839590",
"a. c #8E9591",
"s. c #8F9F98",
"d. c #919192",
"f. c #949D95",
"g. c #999D98",
"h. c #8FA099",
"j. c #96A296",
"k. c #95A49D",
"l. c #9AA49D",
"z. c #9EAA9E",
"x. c #B9AD97",
"c. c #9BAAA4",
"v. c #A0A5A1",
"b. c #A9A7A5",
"n. c #A1ACA2",
"m. c #A4B2AD",
"M. c #ABB3AB",
"N. c #BDB3A2",
"B. c #BFB7AA",
"V. c #ACB7B1",
"C. c #AEBBB7",
"Z. c gray71",
"A. c #B4BCB4",
"S. c #BBB8B3",
"D. c #B3BFBA",
"F. c #C98780",
"G. c #CA8982",
"H. c #D78381",
"J. c #D68B80",
"K. c #DE9285",
"L. c #D1958A",
"P. c #E08886",
"I. c #E88D8B",
"U. c #E59689",
"Y. c #EB9A8D",
"T. c #EF9190",
"R. c #F79694",
"E. c #F19E91",
"W. c #D9A494",
"Q. c #D6AB9C",
"!. c #DFAF9A",
"~. c #C8B69A",
"^. c #D6B891",
"/. c #DAB29F",
"(. c #D5BA99",
"). c #EFA68F",
"_. c #F7A294",
"`. c #FFA999",
"'. c #DEBBA1",
"]. c #DEBFAF",
"[. c #C1BCB3",
"{. c #B6C1BB",
"}. c #BDC5BD",
"|. c #EAC09F",
" X c #E1C1A4",
".X c #E3C7B2",
"XX c #E3CABD",
"oX c #E7D2BF",
"OX c #C2C6C2",
"+X c #C3C9C3",
"@X c #CBCBCB",
"#X c #CED4CE",
"$X c #D1D5CF",
"%X c #CFD6D0",
"&X c #D2D6D1",
"*X c #D4D9D3",
"=X c #D9DDD9",
"-X c #E8D6CA",
";X c #ECDCCC",
":X c #DFE2DE",
">X c #EDE0D7",
",X c #F0E5D9",
"<X c #E3E5E3",
"1X c #E6E9E6",
"2X c #EAEBEA",
"3X c #F3EBE4",
"4X c #EFF1EF",
"5X c #F0F2F0",
"6X c #FAF6F1",
"7X c None",
"8X c black",
"9X c black",
"0X c black",
"qX c black",
"wX c black",
"eX c black",
"rX c black",
"tX c black",
"yX c black",
"uX c black",
"iX c black",
"pX c black",
"aX c black",
"sX c black",
"dX c black",
"fX c black",
"gX c black",
"hX c black",
"jX c black",
"kX c black",
"lX c black",
"zX c black",
"xX c black",
"cX c black",
"vX c black",
"bX c black",
"nX c black",
"mX c black",
"MX c black",
"NX c black",
"BX c black",
"VX c black",
"CX c black",
"ZX c black",
"AX c black",
"SX c black",
"DX c black",
"FX c black",
"GX c black",
"HX c black",
"JX c black",
"KX c black",
"LX c black",
"PX c black",
"IX c black",
"UX c black",
/* pixels */
"7X7X7X7X7X7X7X7X7X7X7X7X7X7X7X7X7X7X7X7X7X7X7X7X7X7X7X7X7X7X7X7X",
"7X7X7X7X7X7X7X7X7X7X7X7X7X7X7X7X7X7X7X7X7X7X7X7X7X7X7X7X7X7X7X7X",
"7X7X7X7X2X:X*X&X*X%X%X%X:X%X%X%X&X&X*X*X#X%X%X%X<X2X7X7X7X7X7X7X",
"7X7X7X1X@X{.D.D.}.*X*X%X%X*X*X*X*X*X*X*X:X%X{.{.{.=X7X7X7X7X7X7X",
"7X7X7X%XC.V.M.M.}.5X5X5X4X4X5X*XOX}.#X2X4X2X{.M.A.D.<X7X7X7X7X7X",
"7X7X2XA.m.n.n.c.{.3X4X4X4X4X4X+Xz.z.A.4X2X1XV.z.n.m.}.2X7X7X7X7X",
"7X7X1XM.c.j.j.j.{.<X2X2X2X2X2X}.j.j.M.1X2X1Xc.j.k.c.c.+X2X7X7X7X",
"7X7X2Xn.h.i.i.i.{.4X2X2X2X2X2X{.u.i.z.1X2X,Xj.i.i.i.s.k.*X7X7X7X",
"7X7X2Xc.y.t.;.-.n.2X2X2X1X2X2XM.-.-.f.1X1X:Xu.r.r.r.t.p.M.7X7X7X",
"7X7X1Xf.w.*.%.&.k.4X2X2X1X1X2X}.j.j.M.1X1X>X-.&.&.&.&.q.l.7X7X7X",
"7X7X1Xa.%._ [ ( &.m.M.M.M.M.M.M.M.M.g.| ' w._ _ _ _ [ %.f.7X7X7X",
"7X7X1Xw.] / R / F F F F F D F F F C 3 b.&XM s / / / / ) a.7X7X7X",
"7X7X2X0.R D F F F F F F F F F F F f W 6X6XS.8 F F F F R u.7X7X7X",
"7X7X2X} Y C C A A A A g f s s r s 6 ^ 3X3XS.3 A C C S Z e.7X7X7X",
"7X7X2X' Z C g y 6 * @ o X X . . .   K ,X>XB.* 9 f g g c e.7X7X7X",
"7X7X2X~ t 0 ; O ; ( } { } } } } | E L ;X-XN.& o # , y z 0.7X7X7X",
"7X7X1XE < + o $ V.*X*X=X#X+XOX+X+Xv.` oXXXx.W p . O + < 9.7X7X7X",
"7X7X2XE % # + t *X&X*XV.b J L L L J ;..X].~.V V q q e = ~ 7X7X7X",
"7X7X2XE 1 > # u $X&X#XK 2. X X X X'.'.Q.Q./.'. X X X X(.V @X7X7X",
"7X7X1XT 7 6 ; u $X*X@XV ^./.W.L.G.#.@.O.O.@.#.5.L.L.!.|.X.Z.7X7X",
"7X7X2XW t y 6 u $X%X%X{ I 8.6.>.<.<.3.@.@.#.3.>.1.6.8.,.j *X7X7X",
"7X7X1XE y f 6 s $X%X%X+X| K L K K h H J.$.>.r a $ : : & | 7X7X7X",
"7X7X2XE x C r i &X%X%X%X%X%X#X#X%XM.P K.H.:.{ f.3 C A z 9.7X7X7X",
"7X7X1X! Z F g i %X%X%X%X#X#X#X#X#XM.P U.P.>.{ u.6 D F c 9.7X7X7X",
"7X7X2X! U W F 6 g.*X*X*X$X&X$X$X&XV.P Y.I.<.K h g / / Z 9.7X7X7X",
"7X7X2X! T ( _ D 8 v b b b b b b b i N E.T.1.$ d ( / _ U 9.7X7X7X",
"7X7X7X9.U &.[ [ _ D S S D D D D D i N _.R.3.8 } } &.&.c d.7X7X7X",
"7X7X7XOXl T ) ) ) ) ) ) ) ) ) ) ) U q ).`.o.4 ) ) ) Z m &X7X7X7X",
"7X7X7X7XOX .! ! ! ! ! ! ! ! ! ! ! W v B ..j E ! ! ! e.#X7X7X7X7X",
"7X7X7X7X7X2X2X2X2X2X2X2X2X2X2X2X2X2X1XOXZ.=X7X2X2X2X2X7X7X7X7X7X",
"7X7X7X7X7X7X7X7X7X7X7X7X7X7X7X7X7X7X7X7X7X7X7X7X7X7X7X7X7X7X7X7X",
"7X7X7X7X7X7X7X7X7X7X7X7X7X7X7X7X7X7X7X7X7X7X7X7X7X7X7X7X7X7X7X7X"
};
