/* XPM */
static char *save[] = {
/* columns rows colors chars-per-pixel */
"32 32 256 2",
"   c #000A00",
".  c #011401",
"X  c #001C00",
"o  c #002300",
"O  c #002C00",
"+  c #013401",
"@  c #003900",
"#  c #0A3D09",
"$  c #132112",
"%  c #1D291C",
"&  c #003212",
"*  c #003815",
"=  c #003B1A",
"-  c #163A16",
";  c #1B3C1A",
":  c #303E2E",
">  c #004201",
",  c #014B02",
"<  c #084D08",
"1  c #025402",
"2  c #045A05",
"3  c #095409",
"4  c #075D09",
"5  c #095D0A",
"6  c #004017",
"7  c #00461D",
"8  c #164C16",
"9  c #135513",
"0  c #1C5F1C",
"q  c #126413",
"w  c #196719",
"e  c #1B6B1C",
"r  c #004C22",
"t  c #004F28",
"y  c #035324",
"u  c #025B26",
"i  c #03542A",
"p  c #0B552F",
"a  c #0D5A2D",
"s  c #1F5F20",
"d  c #065E30",
"f  c #135D34",
"g  c #18543D",
"h  c #165E3A",
"j  c #2A4228",
"k  c #30442F",
"l  c #314730",
"z  c #384435",
"x  c #364A33",
"c  c #3D543B",
"v  c #08622C",
"b  c #1F6020",
"n  c #0D6636",
"m  c #0F6933",
"M  c #1B643A",
"N  c #166E3C",
"B  c #18713B",
"V  c #206321",
"C  c #226E22",
"Z  c #257126",
"A  c #277329",
"S  c #2A762B",
"D  c #2A7A34",
"F  c #2A7B38",
"G  c #337B34",
"H  c #397D38",
"J  c #424F3F",
"K  c #1D5D43",
"L  c #334B46",
"P  c #206045",
"I  c #266B42",
"U  c #207645",
"Y  c #237945",
"T  c #2E7F50",
"R  c #415450",
"E  c #51624E",
"W  c #566D52",
"Q  c #5D6664",
"!  c #5C6964",
"~  c #597363",
"^  c #597A64",
"/  c #606867",
"(  c #697F65",
")  c #777D7C",
"_  c #787E7D",
"`  c #3D823D",
"'  c #40813F",
"]  c #30814F",
"[  c #3E8A5B",
"{  c #3B8960",
"}  c #408441",
"|  c #4C8C4C",
" . c #579357",
".. c #589157",
"X. c #5A945A",
"o. c #60955F",
"O. c #598266",
"+. c #5A8A67",
"@. c #4C9265",
"#. c #55966B",
"$. c #59986A",
"%. c #5A9A72",
"&. c #6E866A",
"*. c #6F886C",
"=. c #649B64",
"-. c #689C67",
";. c #60916C",
":. c #6C9B6A",
">. c #7A8C76",
",. c #76827D",
"<. c #768C7D",
"1. c #669F71",
"2. c #699875",
"3. c #76947E",
"4. c #729F7C",
"5. c #6FA374",
"6. c #65A17D",
"7. c #76A275",
"8. c #78A175",
"9. c #71A57C",
"0. c #7DA97D",
"q. c #80AA7F",
"w. c #7A9981",
"e. c #7BA584",
"r. c #7FAB80",
"t. c #72A989",
"y. c #79AC8C",
"u. c #7AAD90",
"i. c #808484",
"p. c #809E86",
"a. c #8F9191",
"s. c #8AA087",
"d. c #81AD87",
"f. c #82AA8B",
"g. c #8CB18B",
"h. c #8EAD93",
"j. c #83B192",
"k. c #8DB494",
"l. c #92B592",
"z. c #98B195",
"x. c #9FBD9F",
"c. c #A0BD9F",
"v. c #9FBDA0",
"b. c #A1BEA1",
"n. c #A5C2A4",
"m. c #A8C2A7",
"M. c #A4C2A8",
"N. c #ABC5AA",
"B. c #B7CAB5",
"V. c #B6CCB8",
"C. c #BCCDBC",
"Z. c #C0CFBF",
"A. c #C0D0BF",
"S. c #C3C3C3",
"D. c #C0CFC0",
"F. c #CECECE",
"G. c #C3D1C3",
"H. c #C8D3C7",
"J. c #CAD5CA",
"K. c #CDD9CD",
"L. c #D0D0D0",
"P. c #D4DDD4",
"I. c #DBE1DB",
"U. c #E3E6E3",
"Y. c #E9E9E9",
"T. c None",
"R. c black",
"E. c black",
"W. c black",
"Q. c black",
"!. c black",
"~. c black",
"^. c black",
"/. c black",
"(. c black",
"). c black",
"_. c black",
"`. c black",
"'. c black",
"]. c black",
"[. c black",
"{. c black",
"}. c black",
"|. c black",
" X c black",
".X c black",
"XX c black",
"oX c black",
"OX c black",
"+X c black",
"@X c black",
"#X c black",
"$X c black",
"%X c black",
"&X c black",
"*X c black",
"=X c black",
"-X c black",
";X c black",
":X c black",
">X c black",
",X c black",
"<X c black",
"1X c black",
"2X c black",
"3X c black",
"4X c black",
"5X c black",
"6X c black",
"7X c black",
"8X c black",
"9X c black",
"0X c black",
"qX c black",
"wX c black",
"eX c black",
"rX c black",
"tX c black",
"yX c black",
"uX c black",
"iX c black",
"pX c black",
"aX c black",
"sX c black",
"dX c black",
"fX c black",
"gX c black",
"hX c black",
"jX c black",
"kX c black",
"lX c black",
"zX c black",
"xX c black",
"cX c black",
"vX c black",
"bX c black",
"nX c black",
"mX c black",
"MX c black",
"NX c black",
"BX c black",
"VX c black",
"CX c black",
"ZX c black",
"AX c black",
"SX c black",
"DX c black",
"FX c black",
"GX c black",
"HX c black",
"JX c black",
"KX c black",
"LX c black",
"PX c black",
"IX c black",
"UX c black",
/* pixels */
"T.T.T.T.T.T.T.T.T.T.T.T.T.T.T.T.T.T.T.T.T.T.T.T.T.T.T.T.T.T.T.T.",
"T.T.T.T.T.T.T.T.T.T.T.T.T.T.T.T.T.T.T.T.T.T.T.T.T.T.T.T.T.T.T.T.",
"T.T.T.T.U.P.G.G.G.A.G.A.G.G.A.Z.Z.G.G.G.A.G.G.G.I.Y.T.T.T.T.T.T.",
"T.T.T.U.M.u.y.y.g.m.m.m.m.m.m.m.m.m.m.n.m.n.d.u.j.K.T.T.T.T.T.T.",
"T.T.T.V.t.9.9.7.l.J.K.H.J.J.J.m.g.l.x.H.J.G.0.9.t.k.I.T.T.T.T.T.",
"T.T.Y.k.6.-.=.=.g.H.H.H.H.H.J.z.o.=.0.H.H.A.7.=.1.6.x.U.T.T.T.T.",
"T.T.U.f.%.X.X. .q.H.H.H.H.H.J.g. . .7.G.H.C.-.X. .#.%.M.Y.T.T.T.",
"T.T.Y.e.@.| | | 8.H.A.H.A.A.A.q.| | =.C.G.V.X.| | | @.#.G.T.T.T.",
"T.T.Y.9.@.` ` ` -.D.D.D.Z.Z.A.8.G G ..A.Z.B.| ` ' ' ] @.g.T.T.T.",
"T.T.Y.2.] G G S o.H.G.H.Z.Z.H.g.o.o.8.A.G.C.H G G ` G ] w.T.T.T.",
"T.T.Y.$.Y A Z C H 4.4.8.8.8.q.4.8.8.4.8.4.:.Z Z Z Z A U w.T.T.T.",
"T.T.Y.+.B e e e q q q q q q q q q q q q q q w e e e e B 3.T.T.T.",
"T.T.Y.O.m q q q q q q q q q q q q q q q q q q q q q q n <.T.T.T.",
"T.T.Y.^ v 5 5 5 5 5 5 5 3 < < < < < 3 3 5 5 5 5 5 5 5 d <.T.T.T.",
"T.T.Y.~ u 2 2 1 > O o . .             . X o + < 1 2 2 i ,.T.T.T.",
"T.T.Y.! y > O X % E W W W W W W W W W W W W z . o @ , i ,.T.T.T.",
"T.T.U.Q & o X $ s.N.m.m.m.m.n.n.m.m.n.n.n.n.b.J X o O * ) T.T.T.",
"T.T.Y.Q & O o : n.b.n.b.n.b.b.b.c.c.c.c.x.x.n.&.X O O & ) T.T.T.",
"T.T.Y.Q * @ O k n.b.n.v.b.v.b.c.c.c.c.c.x.x.n.*.o @ @ = ) T.T.T.",
"T.T.Y.W = > + k b.n.v.n.b.b.b.c.c.c.c.c.x.x.b.&.o > > = ) T.T.T.",
"T.T.Y.Q 7 1 @ k b.n.b.b.b.c.c.c.c.c.c.x.x.x.b.&.O , > r ) T.T.T.",
"T.T.Y.Q 7 1 , k b.b.b.b.b.b.b.c.c.c.x.x.x.x.x.&.+ 1 1 r ) T.T.T.",
"T.T.Y.Q i 4 < l b.b.b.b.c.c.c.c.c.c.x.x.x.x.x.&.+ 5 4 i ) T.T.T.",
"T.T.Y.Q a q 3 l b.b.b.b.c.c.c.c.c.c.x.x.x.x.b.&.# q q p ) T.T.T.",
"T.T.Y.Q f e w - >.b.b.n.n.n.n.n.n.b.n.b.b.b.z.x 9 e e f ) T.T.T.",
"T.T.Y.Q M Z C w ; c J J c c c J c c c c c c j 8 C C C M _ T.T.T.",
"T.T.T.) K F S S A V 0 V w s s s s s s s s s Z S A S F g a.T.T.T.",
"T.T.T.S.L K I I I I I I I I I I I I I I I I I I I I K R L.T.T.T.",
"T.T.T.T.S.) / / Q / / Q / / Q / / / Q / / / Q / Q / i.F.T.T.T.T.",
"T.T.T.T.T.Y.Y.Y.Y.Y.Y.Y.Y.Y.Y.Y.Y.Y.Y.Y.Y.Y.Y.Y.Y.Y.Y.T.T.T.T.T.",
"T.T.T.T.T.T.T.T.T.T.T.T.T.T.T.T.T.T.T.T.T.T.T.T.T.T.T.T.T.T.T.T.",
"T.T.T.T.T.T.T.T.T.T.T.T.T.T.T.T.T.T.T.T.T.T.T.T.T.T.T.T.T.T.T.T."
};
