/* XPM */
static char *save_dis[] = {
/* columns rows colors chars-per-pixel */
"28 28 58 1",
"  c #373737",
". c #3A3A3A",
"X c #444444",
"o c #4C4C4B",
"O c #555555",
"+ c gray36",
"@ c #646465",
"# c #656668",
"$ c #67686B",
"% c #6B6C6D",
"& c #6F7071",
"* c #737474",
"= c #74767A",
"- c #77797D",
"; c #7D7D7E",
": c #7B7E82",
"> c #7E8084",
", c #838484",
"< c #888887",
"1 c #838689",
"2 c gray55",
"3 c #90908F",
"4 c #8E9093",
"5 c gray58",
"6 c #949698",
"7 c #97999C",
"8 c #9B9B9C",
"9 c #9B9DA0",
"0 c #9EA0A3",
"q c #A3A3A4",
"w c #A4A6A9",
"e c #ABABAD",
"r c #ACADB0",
"t c #AFB0B2",
"y c #B3B3B4",
"u c #B7B7B9",
"i c #BBBBBC",
"p c #C0C0BF",
"a c #BFC0C0",
"s c #C3C3C4",
"d c #C3C5C8",
"f c gray80",
"g c #CFD0CF",
"h c #D0D0CF",
"j c #CFD0D1",
"k c LightGray",
"l c #D8D8D7",
"z c #D7D8D9",
"x c gainsboro",
"c c #E0E0DF",
"v c #DEE0E1",
"b c #E2E2E2",
"n c #EAEAEA",
"m c #F3F3F3",
"M c #F8F8F7",
"N c #FDFDFD",
"B c black",
"V c None",
/* pixels */
"VnnbxxxxxxxxxzxxxxxxxxbnVVVV",
"VnnnbbnNNNNNNNMNNNNMbbbbVVVV",
"nvvzkknNNNNNNmccnNNNbkvzbVVV",
"bkzfffnNNNNNNndfzNNNzfkzznVV",
"bfjsssbNNNNNNbsshNNNhppfkznV",
"bdfiiuxNNNNNNxuifNNNfipidfzV",
"basyytkNNNNNNkerpNNNptyyydaV",
"biueewgNNNNNNbfflNNNyeeeeiun",
"ctyqqqthkfkfhkhhhgggqqqqwten",
"cet8885555555555555558888een",
"bqq5555555558566555555555wqn",
"c88333335<<,,;;,<2233332408n",
"c5822,&OoX.      XXo@-1<275n",
"b25=@Xo<353333333333#.+%;75n",
"c--+OXkNNMMMMMNMMMMNm;X++:,n",
"c@-#O&MmmmmmmmmmmmnnMuX@$*&n",
"c@:&O*MmmmmmmmmmnmnmMiX&&-*n",
"b$,=@*Mmmmmnmmmmmmmmmio**>&n",
"c@2>#*mmmmmmmmmmnmnnmio;;1&n",
"b$4,&*MmmmmmnmmnmmmmMiO<12&n",
"c$52**MmmmmmmmnmmmmmmpO224*n",
"c%85;&Mmmmmnnmmmnmnnmu+556*n",
"c%q83+fMMMMMMMMMMMmMn;*887*n",
"c%qq8;+,<<<<<<<<<<<<$@8qq9*n",
"n*qwww5,;;;,;:;;;;;,3qqwe7;V",
"Vq$weeeyerrererrerreeeeeq@yV",
"Vbw*$%%%%%%%%%%%%&%%&%%%*ynV",
"VVVnbbbbbcbbbcbcccccbcccbVVV"
};
