/* XPM */
static char *saveas_dis[] = {
/* columns rows colors chars-per-pixel */
"28 28 109 2",
"   c #2C2C2C",
".  c #373736",
"X  c #393835",
"o  c #3A3A3A",
"O  c #413E39",
"+  c #444444",
"@  c #4B4B4B",
"#  c #534F4B",
"$  c #555555",
"%  c #5C5951",
"&  c #5C5C5B",
"*  c #675E57",
"=  c #64615D",
"-  c #646465",
";  c #696460",
":  c #6C6A66",
">  c #656668",
",  c #67686B",
"<  c #6B6C6D",
"1  c #796F64",
"2  c #74726E",
"3  c #6F7071",
"4  c #747474",
"5  c #787572",
"6  c #7A7876",
"7  c #74767A",
"8  c #77797D",
"9  c gray49",
"0  c #83796E",
"q  c #897E6F",
"w  c #887A70",
"e  c #817F7C",
"r  c #7B7E81",
"t  c #838383",
"y  c #888887",
"u  c gray55",
"i  c #9C928B",
"p  c #8D8F92",
"a  c #8E9093",
"s  c gray58",
"d  c #9F9A93",
"f  c #949698",
"g  c #97999C",
"h  c #9B9C9C",
"j  c #AF9B8C",
"k  c #ACA39B",
"l  c #9B9DA0",
"z  c #9EA0A3",
"x  c #A3A3A4",
"c  c #A4A6A9",
"v  c #ABABAC",
"b  c #BDB4AD",
"n  c #ACAEB0",
"m  c #AFB0B2",
"M  c #B3B3B4",
"N  c #B7B7B9",
"B  c #BBBBBC",
"V  c #CAB2A1",
"C  c #EDBEBE",
"Z  c #DAC0AE",
"A  c #C0C0BF",
"S  c #DDC3B1",
"D  c #E2C6B5",
"F  c #E5C8B7",
"G  c #E6CCBB",
"H  c #ECCCBD",
"J  c #BDBEC0",
"K  c #BFC0C0",
"L  c #C3C3C3",
"P  c #C3C5C8",
"I  c gray80",
"U  c #D0D0CF",
"Y  c #DCD5CF",
"T  c #CFD0D1",
"R  c LightGray",
"E  c #DBD9D6",
"W  c #D7D7D8",
"Q  c #D7D8D9",
"!  c gainsboro",
"~  c #ECC2C3",
"^  c #F3C5C3",
"/  c #F1CACA",
"(  c #FECCCB",
")  c #EBD7C9",
"_  c #FDD5CB",
"`  c #FFDACE",
"'  c #E1DDDB",
"]  c #F5D2D1",
"[  c #FFD3D2",
"{  c #FFDDD2",
"}  c #FCDCDB",
"|  c #E0E0DF",
" . c #EAE0DA",
".. c #FFE8D7",
"X. c #FFE5DA",
"o. c #DEE0E1",
"O. c #E2E2E3",
"+. c #E9E9E9",
"@. c #FEE6E6",
"#. c #FAEAE1",
"$. c #FEEBEA",
"%. c #FFF2EC",
"&. c #EFF0F0",
"*. c #F4F4F4",
"=. c #FFF5F3",
"-. c #FFF9F5",
";. c #FDFDFD",
":. c black",
">. c None",
/* pixels */
">.+.+.+.! o.! ! ! ! ! ! ! ! ! ! ! ! ! ! ! ! +.+.>.>.>.>.",
">.+.O.+.O.O.+.;.;.;.;.;.;.;.;.*.;.;.;.*.O.+.o.o.>.>.>.>.",
"+.O.o.Q R R +.;.;.;.;.;.;.*.! ! +.;.;.;.! R o.! O.>.>.>.",
"+.R Q I I I +.;.;.;.;.;.;.+.I I ! ;.;.;.W I T ! ! +.>.>.",
"O.I T P L L O.;.;.;.;.;.;.O.L L R ;.;.;.U L A I R R +.>.",
"O.L P B B N ! ;.;.;.;.;.;.! N N I ;.;.;.I B B B P I ! >.",
"O.J K M M m Y ;.;.;.;.;.;.Y n m A ;.;.;.B M M M N P L >.",
"O.N J v v c I ;.;.;.;.;.;.O.I I E ;.;.;.M v v v c B N +.",
"O.m M x z k m U I R U U U U U R B y 9 a k z x x x N m +.",
"O.v v h h h s s s s s s s s s u @ A *.9 > h h h h v c +.",
"O.z x s s s s s s s s s s s d 9 4 ;.;.! $ s s i s c x +.",
"o.h x u p p p s p u y t t 9 t < 6 ;.;.' $ a u a a z h +.",
"O.s h u y t 2 $ @ O o X . . .   2 ;.;.' + 9 y y u h g +.",
"| u s 7 > + @ y a s s s s s s 6 6 ;.;.E . o & < 9 s s +.",
"o.7 8 & $ + R ;.;.*.*.O.O.O.+.B e ;.-.Y 4 > o $ $ 7 t +.",
"| > 7 > $ < ;.*.*.R 4 2 5 5 5 < d =.=. .2 : $ * & + $ O.",
"O.> r 3 $ 4 *.*.&.4 b %.%.%.%.%.%.$.@.$.$.%.%.%.%.#.5 v ",
"| > t 7 - 4 *.*.+.: X.%.$.} ] / ~ ~ ~ ~ / ] } @.$.%.k u ",
"| > u 9 - 7 *.*.*.t i ) G D S F H H C ^ F D D G ) I ; N ",
"o., a y < 7 -.*.*.O.y 2 4 2 4 = q _ ^ D % = O # @ + = +.",
"| , f u 4 7 *.*.*.*.*.&.&.&.*.U 0 ` ( Z e B $ u u a 4 +.",
"| < h s 9 2 *.*.*.*.*.&.&.&.*.T 0 { _ Z t N & s s s 4 +.",
"O., z h s $ U -.*.*.;.*.*.*.*.R 0 { [ S 6 8 4 h h g 4 +.",
"| < x z z 9 & t y y y y y u y 7 1 X.} S X > h k l l 3 +.",
"+.3 c v x c h t 9 9 9 t 9 9 t < 1 X.} F $ x x x v g r >.",
">.x , c v v v v m n m v m v m f * ..#.V $ n v n x - N >.",
">.+.c 3 < < < < < < < < < < < < @ w j * & < < < 4 M +.>.",
">.>.>.O.| O.o.O.O.o.o.o.O.| o.o.! x u J O.| O.| +.>.>.>."
};
