/* XPM */
static char *save_dis[] = {
/* columns rows colors chars-per-pixel */
"28 28 63 1",
"  c gray20",
". c #3C3C3C",
"X c #40403F",
"o c #444444",
"O c #4D4D4C",
"+ c #535353",
"@ c #5B5B5C",
"# c #60605F",
"$ c #5C5F63",
"% c #5E6165",
"& c #636465",
"* c #646669",
"= c #64696F",
"- c gray42",
"; c #70706F",
": c #676B72",
"> c #6C6E72",
", c #6E7072",
"< c #6C7178",
"1 c gray45",
"2 c #71767C",
"3 c #7B7C7B",
"4 c #777B81",
"5 c #7D7E81",
"6 c #7C8086",
"7 c gray52",
"8 c #81848A",
"9 c #86898E",
"0 c #8B8B8B",
"q c #868A90",
"w c #8B8E93",
"e c #8D9094",
"r c #8F9399",
"t c gray58",
"y c #929599",
"u c #979A9E",
"i c #9B9B9C",
"p c #999BA0",
"a c gray64",
"s c #A8A8A7",
"d c #A5A7A9",
"f c #A5A8AC",
"g c gray67",
"h c #ABAEB1",
"j c #ADB1B6",
"k c #B3B3B4",
"l c #B5B6B9",
"z c #BBBBBB",
"x c #BBBEC2",
"c c #C3C3C3",
"v c #C8C8C7",
"b c #C2C4C8",
"n c #C7C8CA",
"m c #CACBCC",
"M c #CCCED1",
"N c #D3D3D4",
"B c gainsboro",
"V c #E0E0DF",
"C c #E2E2E2",
"Z c #ECECEC",
"A c #F2F2F1",
"S c black",
"D c None",
/* pixels */
"DZZBNNNNNNNNNNNNNNNNNBBZDDDD",
"DCNMmmNZCCCZCCCCCVCCmMmBDDDD",
"ZNmcczBAAAAAABMmNAAAmcvvCDDD",
"CbclzkNAAAAAANzzvAAZczzvnCDD",
"CxzkkgmAZAAAAmkkzZAZzkkzxnCD",
"CllgggvAAAZAAvsszZAZksggllND",
"CkhaaaxAZZZZAziigZZZgaaaajlD",
"ChfiitzAAAAZANzzvZZZsiiiifgZ",
"CdatttazzzzzzzczzzzztttttpdZ",
"Ciu000077777077770070000wuaC",
"Cyt7777777007000777777779tuZ",
"Ct07777773311111335777777wtZ",
"C99333#+X..       Xo@>333qeZ",
"V88-#Xo3777777777777@ +&189Z",
"V,:+OXcVVVVVVVVVVVVCB;.+@<3Z",
"C$=#O#VVBVBVBBBBBBBBBg.@@%-Z",
"V$<&O-VBBBBBBBBBBBBNVgX&&:>Z",
"V&2-@*CBVBBBBBBBNBBBVgo--<-Z",
"V%41@-VBBBBBBBBBBBBBBgo112>Z",
"C&53&-CBBBVBBBBBBBBNBgO334>C",
"C&77--VBBBBBBNBBBBBBVgO757-Z",
"V&99;-VBBBBBBBBBBBNBVs+796,Z",
"V*w07+zVCVVVVVVVBBVVN;-009,Z",
"V*t0t1+1333333333333##00tw,Z",
"C>rity031111111111117tttiq3D",
"Dd$yuuuiuupuuuppiippuuuuw@lD",
"DZa-********************,kZD",
"DDDCCVCCCVCCCVCVCVCCCVVCCDDD"
};
