/* XPM */
static char *search[] = {
/* columns rows colors chars-per-pixel */
"28 28 128 2",
"   c black",
".  c #131313",
"X  c #1B1B1B",
"o  c gray15",
"O  c #2A2A2A",
"+  c #2A2F30",
"@  c #323232",
"#  c gray24",
"$  c #40403F",
"%  c gray26",
"&  c #484848",
"*  c #5A5A5A",
"=  c #626262",
"-  c #646768",
";  c #6A6A6A",
":  c gray45",
">  c #7E7E7E",
",  c #72888F",
"<  c #73929B",
"1  c #79929A",
"2  c #7FA6B2",
"3  c #7DA9B6",
"4  c #7EACBA",
"5  c #838383",
"6  c #8B8B8B",
"7  c #939393",
"8  c #999997",
"9  c #9D9D9C",
"0  c #A1A19F",
"q  c #8DA0A5",
"w  c #82A2AB",
"e  c #8BA4AA",
"r  c #99A7AB",
"t  c #94A8AE",
"y  c #9DA8AB",
"u  c #8CA9B1",
"i  c #82AEBB",
"p  c #8BAEB8",
"a  c #90AAB2",
"s  c #9AADB3",
"d  c #83B1BE",
"f  c #89B1BD",
"g  c #A3A3A2",
"h  c #A8A8A7",
"j  c gray67",
"k  c #A4B1B5",
"l  c #A9B4B7",
"z  c #A6B8BD",
"x  c #ABB9BD",
"c  c #B4B4B4",
"v  c #B1B7B8",
"b  c #B4B8B9",
"n  c #BCBCBB",
"m  c #85B5C3",
"M  c #8AB6C3",
"N  c #86B8C7",
"B  c #89B9C6",
"V  c #87BAC8",
"C  c #8ABCCB",
"Z  c #90B9C5",
"A  c #95BEC9",
"S  c #B2BEC1",
"D  c #B9BFC0",
"F  c #97C1CD",
"G  c #9AC0CB",
"H  c #9DC7D3",
"J  c #A2C5CF",
"K  c #BAC1C3",
"L  c #A3C7D1",
"P  c #A5C9D4",
"I  c #A8CCD6",
"U  c #A5CCD8",
"Y  c #AACED8",
"T  c #C6C6C6",
"R  c #C5C7C8",
"E  c #C7CCCE",
"W  c #CACACA",
"Q  c gray83",
"!  c #D7D9D9",
"~  c gainsboro",
"^  c #E0E0DF",
"/  c #E3E3E2",
"(  c #E8E7E7",
")  c gray92",
"_  c #F3F3F3",
"`  c #F8F7F7",
"'  c #F8F8F7",
"]  c #FBFBFB",
"[  c None",
"{  c black",
"}  c black",
"|  c black",
" . c black",
".. c black",
"X. c black",
"o. c black",
"O. c black",
"+. c black",
"@. c black",
"#. c black",
"$. c black",
"%. c black",
"&. c black",
"*. c black",
"=. c black",
"-. c black",
";. c black",
":. c black",
">. c black",
",. c black",
"<. c black",
"1. c black",
"2. c black",
"3. c black",
"4. c black",
"5. c black",
"6. c black",
"7. c black",
"8. c black",
"9. c black",
"0. c black",
"q. c black",
"w. c black",
"e. c black",
"r. c black",
"t. c black",
"y. c black",
"u. c black",
/* pixels */
"[ [ [ [ [ [ [ [ [ [ [ [ [ [ [ [ [ [ [ [ [ [ [ [ [ ) ) ( ",
"[ [ [ E 6 > > > > > > > > > > > > > > > > > > 6 W [ ) ) ",
"[ [ ~ > n / ^ / / ^ / ~ ^ ^ / / ^ ^ ^ ^ / ^ ^ n : Q [ [ ",
"[ [ c 9 ] ] ] ] ] ] ] ] ] ' ] ] ] ] ] ] ] ] ] ] 0 j [ [ ",
"[ [ j j ` _ _ _ _ ` _ _ _ ` _ _ _ _ _ _ _ ` _ ' j g [ [ ",
"[ [ j h _ ) ) _ ) ) ) _ ) ) _ ) ) _ _ ) ) ) ) _ h g [ [ ",
"[ [ j g ) ( ( ( ( ( ( ( ( ( / / / ( ) ( ) ( ( ) h g [ [ ",
"[ [ j 0 ( / / / / / / ~ R l s s k n ! / / / / ( g g [ [ ",
"[ [ j 8 / ^ / ~ ~ ~ W r w i d 4 3 2 e K ~ ~ ~ / 0 g [ [ ",
"[ [ j 8 ^ ! Q Q Q R q i G J G i 4 4 3 w b ! ~ ^ 9 h [ [ ",
"[ [ j 8 ~ Q Q Q Q r i J P L J Z 4 4 4 4 e T Q ~ 0 h [ [ ",
"[ [ j 7 ~ ! ! ! T w A P P L L A d 4 4 i i k Q ~ 9 g [ [ ",
"[ [ j 8 / ~ ! ~ v i U I P P L A 4 4 m 4 i t Q / 0 g [ [ ",
"[ [ j 8 / ~ ^ ~ k M I I P P P A m 4 4 m d e Q / g g [ [ ",
"[ [ j 8 ( / / / l M I I I I J M 4 m m d m u Q ( g g [ [ ",
"[ [ j 8 ) ( / / n f I I I I F M m m m m f s ^ ( g h [ [ ",
"[ [ j 8 ) ( ( ) Q u H I Y P N m m m m m f S ( ) h h [ [ ",
"[ [ j 9 _ ( ) ) ) x M U H C N N N N M M 1 8 ( _ h h [ [ ",
"[ [ j 9 _ ) _ _ ) / k m C C V V V V V < + X 9 _ j h [ [ ",
"[ [ j g ] ` ` _ ` _ / x p m V V m f , - % . O c j h [ [ ",
"[ [ T : 7 7 7 7 9 ) ` _ ! K z z S E 6 6 7 $ X $ : h [ [ ",
"[ [ / g X       o / ] ` ] ` _ _ ` ' / 6 6 > $ O @ 0 [ [ ",
"[ [ [ ( g X     o / ] ] ] ` ] ] ' ] ] / 5 > : # @ * R [ ",
"[ [ [ [ ( g X   o / ] ] ] ] ] ] ] ] ] ] / 5 : - % # - W ",
"[ [ [ [ [ ) j X o / ] ] ] ] ] ] ] ] ] ] ] / > ; = & & : ",
"[ [ [ [ [ [ [ h # 7 g g 0 g g g 0 0 g g 0 g > * ; * = n ",
"[ [ [ [ [ [ [ ( Q T T T T T T R W T T T T T W b ; : T [ ",
"[ [ [ [ [ [ [ [ [ [ [ [ [ [ [ [ [ [ [ [ [ [ [ [ T W [ [ "
};
