/* XPM */
static char *search[] = {
/* columns rows colors chars-per-pixel */
"28 44 159 2",
"   c black",
".  c gray2",
"X  c #080807",
"o  c gray4",
"O  c #0E0E0E",
"+  c #131313",
"@  c #161616",
"#  c #1B1B1B",
"$  c #202020",
"%  c gray13",
"&  c #2A2C2D",
"*  c gray19",
"=  c #343434",
"-  c #474746",
";  c gray29",
":  c #4C4C4C",
">  c #4F4E4D",
",  c #525251",
"<  c #565656",
"1  c #5C5C5B",
"2  c #5F5F5E",
"3  c #60605F",
"4  c #5B6468",
"5  c gray39",
"6  c #636566",
"7  c gray40",
"8  c #696A6B",
"9  c #6B6E6F",
"0  c #6E6E6D",
"q  c #70706F",
"w  c #6D6F70",
"e  c #6D7071",
"r  c #6A7275",
"t  c #6A767B",
"y  c #727271",
"u  c #707272",
"i  c #707273",
"p  c gray46",
"a  c #787877",
"s  c #797979",
"d  c #797A7A",
"f  c #7B7B7B",
"g  c #7C7C7C",
"h  c gray49",
"j  c #707F84",
"k  c #77898F",
"l  c #808080",
"z  c gray51",
"x  c #838383",
"c  c gray52",
"v  c #868684",
"b  c #888888",
"n  c #888C8D",
"m  c gray56",
"M  c #90908F",
"N  c #909090",
"B  c #909191",
"V  c #929292",
"C  c #979B9D",
"Z  c #9A9A9A",
"A  c #9F9F9F",
"S  c #A1A19F",
"D  c #89A1A9",
"F  c #A2A2A0",
"G  c #A5A5A3",
"H  c #A6A6A5",
"J  c #A7A7A7",
"K  c #ABABA9",
"L  c gray67",
"P  c #ACACAB",
"I  c #ADADAC",
"U  c #AFAFAE",
"Y  c #B1B2B0",
"T  c #B2B2B1",
"R  c gray70",
"E  c #B6B6B6",
"W  c #BABAB9",
"Q  c gray75",
"!  c #95BACC",
"~  c #9ABFD0",
"^  c #B9BEC2",
"/  c #B8BFC3",
"(  c #ACC5CD",
")  c #BBC6CA",
"_  c #98DCFF",
"`  c #9CDDFF",
"'  c #9DDEFF",
"]  c #A3E2FF",
"[  c #A6E3FF",
"{  c #A5E4FF",
"}  c #ADE8FF",
"|  c #B7E0F6",
" . c #B7E4F5",
".. c #B1E6FB",
"X. c #B1E4FF",
"o. c #B6EBFF",
"O. c #BBEFFF",
"+. c #C0C0C0",
"@. c #C3C2C2",
"#. c gray77",
"$. c #C8C8C8",
"%. c #CBCBCB",
"&. c gray80",
"*. c #CECECE",
"=. c gray81",
"-. c #CFD1D0",
";. c #D1D0D0",
":. c gray82",
">. c LightGray",
",. c gray83",
"<. c #D5D5D5",
"1. c gray84",
"2. c #D7D6D6",
"3. c #D8D8D7",
"4. c #D8D8D8",
"5. c gray85",
"6. c #DBDBDA",
"7. c gray86",
"8. c gainsboro",
"9. c #DDDDDD",
"0. c #DEDEDD",
"q. c #DFDFDF",
"w. c #E0E0DF",
"e. c #D7EAF4",
"r. c #D1EFFF",
"t. c #C7F0FF",
"y. c #D7F1FF",
"u. c #DEF5FF",
"i. c gray88",
"p. c #E1E1E1",
"a. c #E3E3E2",
"s. c gray89",
"d. c #E4E4E4",
"f. c #E6E6E5",
"g. c #E7E7E7",
"h. c #E8E8E7",
"j. c #E3E9EC",
"k. c gray91",
"l. c gray92",
"z. c #EBEBEC",
"x. c #EFEFEE",
"c. c #EFEFEF",
"v. c #F0F0EF",
"b. c #EBF1F5",
"n. c #EFFAFD",
"m. c #ECFBFF",
"M. c #F1F1F1",
"N. c #F3F3F3",
"B. c #F4F4F4",
"V. c #F6F6F6",
"C. c gray97",
"Z. c #F1F7FB",
"A. c #F8F8F8",
"S. c gray98",
"D. c #FBFBFB",
"F. c gray99",
"G. c gray100",
"H. c black",
"J. c None",
/* pixels */
"J.J.+.0 2 2 1 1 3 2 1 2 1 1 2 1 1 1 1 1 3 1 1 1 3 M w.J.",
"J.>.0 Q k.k.k.k.k.k.h.k.k.k.k.k.k.k.k.k.k.k.k.k.q.v M J.",
"J.A H G.A.A.A.A.A.A.A.A.A.A.A.A.A.A.A.A.A.D.A.A.A.g.0 q.",
"J.V W A.V.V.V.V.N.V.V.B.V.V.V.V.V.V.V.V.N.V.V.V.V.c.q >.",
"J.V E M.c.M.M.c.c.c.c.c.c.c.c.c.c.c.b.c.c.c.v.c.c.k.q >.",
"J.V T c.k.k.k.k.z.k.k.z.k.z.k.h.k.k.k.h.l.k.k.h.l.g.0 >.",
"J.V L g.g.g.g.g.g.d.g.d.g.g.s.g.h.g.g.g.h.h.g.g.h.p.0 >.",
"J.M K g.q.p.p.p.i.q.q.q.8.q.q.q.p.p.q.q.w.p.q.w.w.q.0 >.",
"J.V H p.q.6.7.4.,.2.>.*.*.*.*.*.>.-.2.2.6.6.q.6.q.6.0 >.",
"J.M G q.4.2.,.-.>.-.=.>.>.>.,.>.-.,.-.-.*.>.2.6.6.3.0 >.",
"J.m S 6.,.,.,.>.,.,.>.,.2.>.2.2.>.2.2.,.2.>.>.2.2.3.0 >.",
"J.m S 6.2.2.2.2.2.2.2.6.>.Q Q $.4.2.2.2.2.2.2.2.2.2.0 >.",
"J.m F q.6.6.2.6.7.6.7.E w w u 8 z $.8.7.6.6.3.6.6.2.0 >.",
"J.m F w.q.6.q.q.7.q.E 6 / b.Z.j.C w >.q.9.w.9.9.q.q.0 >.",
"J.m G g.q.p.q.q.q.q.e / m.y.r.u.m.n C s.p.w.q.p.q.q.0 >.",
"J.m H g.p.p.p.g.s.=.w e.X.` ` [ t.) d d.d.w.d.p.p.9.0 >.",
"J.m H h.g.g.g.g.g.>.w  ._ ` [ [ ..( f h.k.g.g.g.g.p.q >.",
"J.m L c.g.k.g.h.k.p.u ! [ ] [ } O.k h z.k.k.g.h.k.g.q >.",
"J.m L c.k.c.k.c.z.c.W 4 ~ ..o. .D & - H c.k.z.z.k.h.u ,.",
"J.m L M.c.c.c.c.c.c.c.E 9 t j r > > I 3 H b.c.c.M.k.u ,.",
"J.m P A.V.M.V.V.M.M.M.M.h.&.+.3.p.d g I 3 J M.M.v.c.q ,.",
"J.A z #.#.#.+.#.6.M.M.V.V.V.C.V.N.k.p g =.7 L B.N.c.y ,.",
"J.8.8 % + O O o d A.V.V.V.V.V.A.V.C.k.d N =.5 L C.c.q ,.",
"J.J.8.5 @ .     p G.A.A.A.A.A.A.C.C.A.c.f v T 2 U N.u >.",
"J.J.J.6.7 # X   p F.A.A.D.D.V.A.A.A.G.A.c.p a P , =.p ,.",
"J.J.J.J.6.7 % . p F.G.A.F.G.G.A.G.A.G.A.G.c.h 1 f s.u 6.",
"J.J.J.J.J.6.8 % k D.G.G.G.G.F.G.G.A.G.G.G.G.c.P h.R f h.",
"J.J.J.J.J.J.2.< > h h z g l g l h z f z h d z z q 7 &.J.",
"J.J.J.J.J.J.J.J.J.J.J.J.J.J.J.J.J.J.J.J.J.J.J.J.J.J.J.J.",
"J.J.J.J.J.J.J.J.J.J.J.J.J.J.J.J.J.J.J.J.J.J.J.J.J.J.J.J.",
"J.J.J.J.J.J.J.J.J.J.J.J.J.J.J.J.J.J.J.J.J.J.J.J.J.J.J.J.",
"J.J.J.J.J.J.J.J.J.J.J.J.J.J.J.J.J.J.J.J.J.J.J.J.J.J.J.J.",
"J.J.J.J.        J.J.  J.J.J.J.J.J.J.J.J.J.J.J.J.  J.J.J.",
"J.J.J.J.  J.J.J.J.J.J.J.J.J.J.J.J.J.J.J.J.J.J.J.  J.J.J.",
"J.J.J.J.  J.J.J.J.J.  J.J.  L % X h J.J.*.* . u   J.J.J.",
"J.J.J.J.      J.J.J.  J.J.  : $.Q o J.J.> u p.Z   J.J.J.",
"J.J.J.J.  J.J.J.J.J.  J.J.  p.J.k.  J.J.o 6.J.J.  J.J.J.",
"J.J.J.J.  J.J.J.J.J.  J.J.  J.J.J.  J.J.. q.J.J.  J.J.J.",
"J.J.J.J.  J.J.J.J.J.  J.J.  J.J.J.  J.J.= b q.h   J.J.J.",
"J.J.J.J.  J.J.J.J.J.  J.J.  J.J.J.  J.J.E # O m   J.J.J.",
"J.J.J.J.J.J.J.J.J.J.J.J.J.J.J.J.J.J.J.J.J.J.J.J.J.J.J.J.",
"J.J.J.J.J.J.J.J.J.J.J.J.J.J.J.J.J.J.J.J.J.J.J.J.J.J.J.J.",
"J.J.J.J.J.J.J.J.J.J.J.J.J.J.J.J.J.J.J.J.J.J.J.J.J.J.J.J.",
"J.J.J.J.J.J.J.J.J.J.J.J.J.J.J.J.J.J.J.J.J.J.J.J.J.J.J.J."
};
