/* XPM */
static char *search_sel[] = {
/* columns rows colors chars-per-pixel */
"28 28 130 2",
"   c black",
".  c #040404",
"X  c #060606",
"o  c gray3",
"O  c #0B0B0B",
"+  c gray7",
"@  c #131313",
"#  c #191A1B",
"$  c gray13",
"%  c #2B2B2A",
"&  c #2C2C2B",
"*  c #2C2C2C",
"=  c gray18",
"-  c #2F2F2F",
";  c #313130",
":  c #343434",
">  c #353535",
",  c #383837",
"<  c #363C3E",
"1  c #3A3A3A",
"2  c #3B3B3A",
"3  c gray23",
"4  c #3B3C3D",
"5  c #3F4040",
"6  c gray25",
"7  c #414142",
"8  c #414344",
"9  c #434445",
"0  c #464646",
"q  c #404749",
"w  c #434C4F",
"e  c #484848",
"r  c gray29",
"t  c #4B4B4B",
"y  c #4C4C4C",
"u  c #4E4E4D",
"i  c #4E4E4E",
"p  c #4F504F",
"a  c #475256",
"s  c #535353",
"d  c #555555",
"f  c #565656",
"g  c gray34",
"h  c #585858",
"j  c #5A5D5E",
"k  c #5D5D5D",
"l  c #60605F",
"z  c #526065",
"x  c #596F7A",
"c  c #5C727C",
"v  c gray39",
"b  c #646463",
"n  c #646464",
"m  c #676767",
"M  c gray42",
"N  c #6D6D6C",
"B  c #6D6D6D",
"V  c #6E6D6D",
"C  c #6F6F6F",
"Z  c #6F7274",
"A  c #67767B",
"S  c #717171",
"D  c #737372",
"F  c #757474",
"G  c #767676",
"H  c #707779",
"J  c gray47",
"K  c #7B7A7A",
"L  c #7C7C7C",
"P  c #7C7D7D",
"I  c gray49",
"U  c gray50",
"Y  c #5B8499",
"T  c #5D8499",
"R  c #6E8693",
"E  c #6A8A97",
"W  c #618799",
"Q  c #638999",
"!  c #648999",
"~  c #6A8899",
"^  c #698C99",
"/  c #6D8D99",
"(  c #708F99",
")  c #7D8F99",
"_  c #818180",
"`  c #818181",
"'  c gray51",
"]  c #848483",
"[  c #848484",
"{  c #848485",
"}  c gray52",
"|  c gray53",
" . c #888887",
".. c #888888",
"X. c #898988",
"o. c #898989",
"O. c #8B8B8A",
"+. c #8B8B8B",
"@. c #8C8C8B",
"#. c gray55",
"$. c #8F8F8E",
"%. c gray56",
"&. c #90908F",
"*. c #818C92",
"=. c #8D9193",
"-. c #819099",
";. c #859399",
":. c #8F9698",
">. c #8E9699",
",. c gray57",
"<. c #929292",
"1. c #939393",
"2. c #919496",
"3. c gray58",
"4. c #959595",
"5. c gray59",
"6. c #989898",
"7. c gray60",
"8. c gray62",
"9. c #B2B2B2",
"0. c gray",
"q. c gray78",
"w. c #C8C8C8",
"e. c #CBCBCB",
"r. c gray80",
"t. c #D0D0D0",
"y. c #D7D7D7",
"u. c #E7E7E7",
"i. c black",
"p. c None",
/* pixels */
"p.p.8.: * * * * * & * * * % & & * * * * * * * * * s y.p.",
"p.0.: D X.$.+.+.$.X.X.$.X.$.$.X.#.+.#.X.#.#.#.#.] y h p.",
"p.M v 7.4.4.4.4.4.4.4.4.4.4.4.4.4.4.4.4.3.3.4.4.4.#.> t.",
"p.h C 4.1.,.1.,.,.,.,.4.4.,.,.,.1.,.1.,.,.3.3.,.3.%.2 0.",
"p.h C $.$.&.,.$.&.&.&.&.&.,.&.&.,.&.&.,.&.%.%.%.%.#., 0.",
"p.h M $.X.$.X.$.+.+.$.X.$.X.X.$.#.+.+.#.$.#.#.#.%.X., 0.",
"p.g M @.X.X.X.X.| +.| X.X.| X.X.X.X.X.X.X.X.X.X. .| 2 0.",
"p.g b X. .| X.| | | | | | | | | { | X.| | | | | | } , 0.",
"p.g v | { { | ` U U P P P U I I P U ` ] ` { { { | { , 0.",
"p.d v { ] P I P P P P P P P I I U P P P P U ` ` ` ` , 0.",
"p.g l ] U U P ` U U U P U ` U U ` P U P ` U U U ` ` , 0.",
"p.g l { ` ` ` ` ` ` ` { U F S J ` ` ` ` ` ` ` ` ` _ : 0.",
"p.g v | ] ` ` ` { { { V 8 7 9 7 y L | ` ` ` ] _ ` ` , 0.",
"p.g v | ] } | { ] { V 4 S =.>.X.j 6 L | | ] | } | ` , 0.",
"p.g v | } } | | { { 9 D >.-.) ;.2.g k | | | | | | ] , 0.",
"p.g v |  . .| | | L 8 *.~ T T W ( H t  . .|  . .| | 1 0.",
"p.g n $.X.X.X.X.X.P 8 R Y T Q Q ^ A t  . .X.X.X.X.| 1 0.",
"p.g n $.X.$.X.$.+.| 0 x Q W ! ^ ( a t $.$.X.X.,.$.X.1 0.",
"p.g b ,.,.X.$.$.$.$.N < c ~ / ~ z # % n $.$.,.X.$.X.1 0.",
"p.g n ,.$.$.$.$.$.$.$.C 5 q w 8 & ; M : v &.$.,.,.X.1 0.",
"p.h C 4.,.,.,.4.,.,.,.,.#.K F ` | t y n : n ,.,.,.$.1 0.",
"p.n t F F F F D { ,.,.,.,.,.4.,.,.X.0 t P 4 m 1.,.$.1 0.",
"p.t.* @ O o o X t 4.4.,.4.,.,.4.4.,.X.t g P 4 n ,.,.1 0.",
"p.p.e.* O .     0 4.4.4.4.4.4.4.4.4.4.$.t i C : M ,.1 0.",
"p.p.p.r.* @     0 7.4.4.4.4.4.4.4.4.4.6.$.0 e M * L 4 0.",
"p.p.p.p.r.* @ X 0 7.4.7.6.4.7.6.6.6.4.6.7.$.t : y X.1 q.",
"p.p.p.p.p.r.* @ y 7.7.7.7.6.7.7.6.6.6.6.6.6.,.n $.M 5 u.",
"p.p.p.p.p.p.e.$ * y t y y y y y y y t y y t i i 5 * 9.p."
};
