/* XPM */
static char *search_sel[] = {
/* columns rows colors chars-per-pixel */
"28 28 64 1",
"  c #020202",
". c #0B0B0B",
"X c #151515",
"o c #1B1B1C",
"O c gray15",
"+ c #272728",
"@ c #2A2A2A",
"# c gray20",
"$ c #3C3C3C",
"% c #3F4040",
"& c gray26",
"* c gray30",
"= c #445256",
"- c #45585D",
"; c #49585C",
": c gray33",
"> c #585857",
", c gray36",
"< c #60605F",
"1 c #4E6166",
"2 c #4C666E",
"3 c #546165",
"4 c #5D6466",
"5 c #55666A",
"6 c #596568",
"7 c #53686E",
"8 c #5D686B",
"9 c #4B6770",
"0 c #4E6A72",
"q c #516D75",
"w c #516F78",
"e c #527079",
"r c #5B747B",
"t c gray39",
"y c #646B6D",
"u c gray43",
"i c #646F72",
"p c #686F71",
"a c #6E7374",
"s c #61777D",
"d c #63787E",
"f c #747474",
"g c #767878",
"h c gray48",
"j c #807F7F",
"k c #657A81",
"l c gray52",
"z c #8C8C8B",
"x c gray58",
"c c gray60",
"v c gray64",
"b c #A9A9A9",
"n c #B4B4B4",
"m c #BBBBBB",
"M c #CACACA",
"N c #E7E7E7",
"B c #EAEAEA",
"V c None",
"C c black",
"Z c black",
"A c black",
"S c black",
"D c black",
"F c black",
/* pixels */
"VVVVVVVVVVVVVVVVVVVVVVVVVBBB",
"VVVn:&&&&&&&&&&&%&&&&&&*bVBB",
"VVM$flzllzlllzlllzlzlzlf$mVV",
"VVl,cxxxxxxcxxcxxcxxxxxc,hVV",
"VVhtxxxxxxxxxxxzxxxxxxxxtfVV",
"VVhtxzzzzzzzzxxzzzzzzzzxtuVV",
"VVhtzzzzzzzzzzlzzzzzzzzztuVV",
"VVh<zzlzlzzlgy88yajzlzlztuVV",
"VVh,llllllg41799223flllz<uVV",
"VVh>lllhhg37rsr92921ulll<fVV",
"VVh>lljjj42ssssw99991fll<fVV",
"VVg>ljllg1rdddsr99q92yhl,uVV",
"VVh>llllu7kdddds009926ll<uVV",
"VVh>llllyqkkddsr99w9q3jl<fVV",
"VVh>zlllyqkkkdsq9qq996jztuVV",
"VVh,zzzzfqkkkdrqww9qw8lztfVV",
"VVh>zzzzj5kkkkww0wwwqazztgVV",
"VVh<xzzzzp0kkewwww0w;>zztfVV",
"VVh,xxxzzzyqeeewwww-oX<xtgVV",
"VVh,xxxxxxli90ww00=%O.oytgVV",
"VVv$>>>>tzxxlaiiah*::OXO&gVV",
"VVBu    Xlxxxxxxxxz::*OXoyVV",
"VVVBu   Xzxxxxxxxxcl:*&Oo@vV",
"VVVVBu  Xzcccxccccccl*&%OO#v",
"VVVVVBg Xzcccccccccccl*&$+@$",
"VVVVVVVgX:,,,,,,,,,,,t&#%$#l",
"VVVVVVVNmbbbbbbbbbbbbbbl$$vV",
"VVVVVVVVVVVVVVVVVVVVVVVVxvVV"
};
