/* XPM */
static char *search_dis[] = {
/* columns rows colors chars-per-pixel */
"28 28 86 1",
"  c black",
". c #060606",
"X c #0C0C0C",
"o c #101010",
"O c #151515",
"+ c #181818",
"@ c #1E1E1E",
"# c #232323",
"$ c #252525",
"% c #303131",
"& c #4E4E4E",
"* c gray33",
"= c #555555",
"- c #585858",
"; c #5A5A5A",
": c #626261",
"> c gray39",
", c #656565",
"< c gray42",
"1 c #6D6D6D",
"2 c #717171",
"3 c gray46",
"4 c #787877",
"5 c #797978",
"6 c #7B7B7B",
"7 c #7D7E7E",
"8 c #7F8081",
"9 c #808080",
"0 c #818181",
"q c #838687",
"w c gray53",
"e c #888888",
"r c #8B8B8B",
"t c gray56",
"y c #90908F",
"u c #8D9091",
"i c #939393",
"p c #9A9B9B",
"a c #989C9E",
"s c #9D9D9D",
"d c #9F9F9F",
"f c #A0A0A0",
"g c gray67",
"h c #ABACAC",
"j c #B1B1B0",
"k c #B4B4B4",
"l c #B7B7B7",
"z c #B3B8BA",
"x c gray73",
"c c gray",
"v c #C0C0C0",
"b c #C4C4C3",
"n c gray78",
"m c #C8C8C7",
"M c gray79",
"N c #CBCBCB",
"B c gray80",
"V c LightGray",
"C c #D3D4D5",
"Z c #D7D7D7",
"A c #D8D8D8",
"S c #DBDEDE",
"D c #DDDCDC",
"F c #D4DCE0",
"G c #DAE0E2",
"H c #D9E1E5",
"J c gray88",
"K c #E1E1E1",
"L c gray89",
"P c #E4E4E4",
"I c gray91",
"U c gray92",
"Y c #ECECEC",
"T c #EFEFEF",
"R c gray94",
"E c #F3F3F3",
"W c #F4F4F3",
"Q c gray96",
"! c #F6F6F6",
"~ c gray97",
"^ c #F8F8F8",
"/ c gray98",
"( c #FBFBFB",
") c gray100",
"_ c black",
"` c None",
/* pixels */
"``v2>>>>:::>;>>>>;>>>>;>,tD`",
"`V2V))))))))))))))))))))Qii`",
"`dl)))))))))))))))))))))))2D",
"`iB)))))))))))))))))))))))4V",
"`iM)))))))))))))))))))))))4V",
"`iv)))))))))))))))))))))))4V",
"`ic))))))/)//)//)))))/)///3V",
"`ix)QQQQ/QQQQEQWQQQQ/Q/QQQ3V",
"`txQEEQYUUUPPLLLPUUYEEQEEE3V",
"`ylWUUUPPPPPPULUPPPPPUYYRY3V",
"`ijQUUYUUUUUUUUUUUUUUUUUYY3V",
"`tjYYUYYYYUYUCVDYYUUUYUUYY3V",
"`tjQRYQYEYEn6473yLEERRYEEY3V",
"`tl/WQWEWQm2C)))h4LWEEWWER3V",
"`tl/QQQQQW7C)))))ph/QQQQ^Q3V",
"`tl)/////P6))))))Sw//////Q4V",
"`tl))/)))P7))))))Fw)))/))^3V",
"`tx))))))/7F)))))ar)))))))4V",
"`yc)))))))M2H)))z%&x))))))6V",
"`yc))))))))M6qt8**v,l)))))4V",
"`tv))))))))))LCUQwrc,x))))6V",
"`dtACCACY)))))))))7rL1c)))3V",
"`D<$OooXr))))))))))wfP1c))3V",
"``A,+.  7)))))))))))wib,v)7V",
"```A<@. 0))))))))))))00v;L7V",
"````A<#.0)))))))))))))r>w/4Z",
"`````A<#r))))))))))))))c)M7U",
"``````A;*trrrrrrrrrrrrtt6,M`"
};
