/* XPM */
static char *search_dis[] = {
/* columns rows colors chars-per-pixel */
"28 28 128 2",
"   c black",
".  c #131313",
"X  c #1B1B1B",
"o  c gray15",
"O  c gray16",
"+  c #2E2F30",
"@  c #323232",
"#  c #3E3E3E",
"$  c gray26",
"%  c #484848",
"&  c #5A5A5A",
"*  c #626262",
"=  c #666868",
"-  c #6A6A6A",
";  c gray45",
":  c #7E7E7E",
">  c gray51",
",  c #838C8F",
"<  c #8B8B8B",
"1  c #8D979A",
"2  c #8B989B",
"3  c #949493",
"4  c gray61",
"5  c #A0A09F",
"6  c #9BA3A5",
"7  c #9BA6AA",
"8  c #9BA9AD",
"9  c #9EAEB3",
"0  c #9FB2B7",
"q  c gray64",
"w  c #A8A8A7",
"e  c #A3AAAC",
"r  c gray67",
"t  c #A3AEB1",
"y  c #A0B2B7",
"u  c #ACB2B4",
"i  c #A3B5BA",
"p  c #A6B9BE",
"a  c #A8B9BE",
"s  c #B3B4B5",
"d  c #B6BABC",
"f  c #BCBCBC",
"g  c #AABDC3",
"h  c #BABFC1",
"j  c #ADC1C6",
"k  c #AEC3C8",
"l  c #BEC0C1",
"z  c #B4C5CA",
"x  c #BACACE",
"c  c #BECDD2",
"v  c #C6C6C6",
"b  c #C7C8C8",
"n  c #CACACA",
"m  c #C1CFD3",
"M  c #C3D1D6",
"N  c #C5D4D8",
"B  c gray83",
"V  c gainsboro",
"C  c #E0E0DF",
"Z  c gray89",
"A  c gray92",
"S  c #F4F4F4",
"D  c #F8F7F7",
"F  c #FBFBFB",
"G  c None",
"H  c black",
"J  c black",
"K  c black",
"L  c black",
"P  c black",
"I  c black",
"U  c black",
"Y  c black",
"T  c black",
"R  c black",
"E  c black",
"W  c black",
"Q  c black",
"!  c black",
"~  c black",
"^  c black",
"/  c black",
"(  c black",
")  c black",
"_  c black",
"`  c black",
"'  c black",
"]  c black",
"[  c black",
"{  c black",
"}  c black",
"|  c black",
" . c black",
".. c black",
"X. c black",
"o. c black",
"O. c black",
"+. c black",
"@. c black",
"#. c black",
"$. c black",
"%. c black",
"&. c black",
"*. c black",
"=. c black",
"-. c black",
";. c black",
":. c black",
">. c black",
",. c black",
"<. c black",
"1. c black",
"2. c black",
"3. c black",
"4. c black",
"5. c black",
"6. c black",
"7. c black",
"8. c black",
"9. c black",
"0. c black",
"q. c black",
"w. c black",
"e. c black",
"r. c black",
"t. c black",
"y. c black",
"u. c black",
/* pixels */
"G G G G G G G G G G G G G G G G G G G G G G G G G A A A ",
"G G G n < : : : > : : : : : : : : : : : : : : < n G A A ",
"G G V : f Z Z Z Z V Z C Z V Z Z C C Z Z Z C Z f ; B G G ",
"G G s 4 F F F F F F F F F F F F F F F F F F F F 4 r G G ",
"G G r r D S S S S S S S S S S S S S S S S S S S r w G G ",
"G G r w S A A A A A S A A A S A A A A A S A A S w q G G ",
"G G r q A A Z A A A A Z A A Z Z A A A A A Z A A w q G G ",
"G G r 5 A Z Z Z Z Z Z V v u u u u h B Z Z Z Z A q q G G ",
"G G r 4 Z V C V V B b e 8 a a y 0 0 8 l V C V Z 5 q G G ",
"G G r 4 Z V B B B v 6 i z x z i 0 0 0 8 d V V Z 4 w G G ",
"G G r 3 V B B B B e y c m x b k p 0 0 0 6 v B V q q G G ",
"G G r 3 V B B V v 7 x m m c c z 0 p p 0 9 u B V 4 w G G ",
"G G r 3 Z V V V d i c M M m m z 0 p p p p e B Z 5 q G G ",
"G G r 4 Z V V C u g N M M m b z g p p p p e B Z q q G G ",
"G G r 3 Z Z Z Z s g N M N c c j p p g p p t B Z q q G G ",
"G G r 4 A A Z Z l p N N N M x g g g g g p u V A w w G G ",
"G G r 4 A Z A A B t c N N c k j g g g g p l A A w w G G ",
"G G r 4 S A A A A d g N c k j j j j g j 2 3 A S w w G G ",
"G G r 4 S A A S S Z s g z k k k j j j 2 @ X 3 S r w G G ",
"G G r q F F S S D S Z d p g j j g g , = $ . O u r w G G ",
"G G v ; 3 3 3 < 6 A S S V l d d l n > < 3 $ X $ ; w G G ",
"G G A 4 X       o Z F S F D S S D F A < < : # o @ 5 G G ",
"G G G A q X     o Z F F D F F F D F F Z > : ; # @ & b G ",
"G G G G A q X   o Z F F F F F F F F F F Z > ; - $ # = n ",
"G G G G G A w X o Z F F F F F F F F F F F C : - * % % ; ",
"G G G G G G G w # 3 q q 5 5 q q 6 q q q 5 q : & - & * f ",
"G G G G G G G A B v v b b b v v b b v b b b n s - ; b G ",
"G G G G G G G G G G G G G G G G G G G G G G G G v b G G "
};
