/* XPM */
static char *search_dis[] = {
/* columns rows colors chars-per-pixel */
"32 32 64 1",
"  c #020202",
". c #090909",
"X c gray7",
"o c #1B1B1B",
"O c gray14",
"+ c #2F2F2F",
"@ c #343434",
"# c #3D3E3E",
"$ c #403F3F",
"% c #434343",
"& c #4A4C4C",
"* c gray33",
"= c #5A5A5A",
"- c gray39",
"; c #65696A",
": c gray42",
"> c #747474",
", c gray49",
"< c #838382",
"1 c #888887",
"2 c #8B8B8B",
"3 c #929392",
"4 c #9B9B9B",
"5 c #94A1A4",
"6 c #9BA3A5",
"7 c #9CA9AD",
"8 c #9EAEB2",
"9 c #9EB0B5",
"0 c gray65",
"q c #A4ACAE",
"w c #A9ADAE",
"e c #A2AEB1",
"r c #AAAFB0",
"t c #A5B1B5",
"y c #ACB3B5",
"u c #A3B5BA",
"i c #ADB7B9",
"p c #A6B9BE",
"a c #A8BABF",
"s c #B4B6B6",
"d c #B0B7B9",
"f c #B5B9BA",
"g c #BCBDBC",
"h c #AABDC2",
"j c #ADC1C6",
"k c #AEC3C8",
"l c #B1C1C6",
"z c #BEC2C3",
"x c #B3C5CA",
"c c #BBCACE",
"v c #BECDD1",
"b c #C5C5C4",
"n c gray80",
"m c #C1CFD3",
"M c #C3D1D6",
"N c #C6D4D8",
"B c #D5D5D4",
"V c gray86",
"C c #E4E4E4",
"Z c gray92",
"A c #F5F5F4",
"S c gray99",
"D c None",
"F c black",
/* pixels */
"DDDDDDDDDDDDDDDDDDDDDDDDDDDDDDDD",
"DDDDDDDDDDDDDDDDDDDDDDDDDDDDDDDD",
"DDDDDDDDDDDDDDDDDDDDDDDDDDDDZZDD",
"DDDDDZBnBnnnnnBnnBnnBnnnnBZDZZDD",
"DDDDC3><<<<<<<<<<<<<<<<<<,1VDZDD",
"DDDD03ASSSSSSSSSSSSSSSSSSA34DDDD",
"DDDD<BSAAAAAAAAASASAAAAAASB<DDDD",
"DDDD1BAAAAAAAAAAAZAAAAAAAAB,ZDDD",
"DDDD<nAZZZZZZZZZZZZZZZZZZZB,ZDDD",
"DDDD<nZCZCCZCZZCVVCCZZCCCZn,ZDDD",
"DDDD<bCCVCCCCBgwqeeybCCCCCn,ZDDD",
"DDDD<bVVVVVBg68hhut87yVVVCb,ZDDD",
"DDDD<gVVBBBg6hcccpt9u7qBVVb,ZDDD",
"DDDD<gBBBBn6ammccluuuu7sBVb,CDDD",
"DDDD<gVVVVg7cMmvmxpuuutqBVb,ZDDD",
"DDDD<gVVVVwaMMmmmxuhpuu7nVb,ZDDD",
"DDDD<gCVVVelNMMvmxppppp8bCb<ZDDD",
"DDDD<gZVCCrlNMNMvkhhphpenCn,CDDD",
"DDDD<bZCCCdhNNNNxhhhhhheBCn,DDDD",
"DDDD<bZZZZnuvNNvxjhhhhpiCCB<DDDD",
"DDDD<bZZZZZyxNMkkjjhjj83CZB<DDDD",
"DDDD,nAZZZABtxxkkkkkk8&o1ZB<DDDD",
"DDDD<nAAAAAZByphkkjh5;$XO4B<DDDD",
"DDDD33gsgsbAAZndiiiz<,3%o@2<DDDD",
"DDDDV=... %ZASSAZZZSC23<$O@>ZDDD",
"DDDDDB*   #ASASSSSSSSV,<>$+&gDDD",
"DDDDDDB*  #ASSSSSSSSSSV,,:%#=bDD",
"DDDDDDDV= #ASSSSSSSSSSSV>>;%%;BD",
"DDDDDDDDV*@bnnnnnnnnnnnn4=:=&>BD",
"DDDDDDDDDV4444444444444443:-<VDD",
"DDDDDDDDDDDDDDDDDDDDDDDDDDs3VDDD",
"DDDDDDDDDDDDDDDDDDDDDDDDDDZZDDDD"
};
