/* XPM */
static char *search_sel[] = {
/* columns rows colors chars-per-pixel */
"28 28 122 2",
"   c black",
".  c gray1",
"X  c #040404",
"o  c #060606",
"O  c gray3",
"+  c #0B0B0B",
"@  c #0E0E0E",
"#  c #111111",
"$  c #151515",
"%  c #191A1B",
"&  c #2A2A2A",
"*  c gray18",
"=  c #2F2F2E",
"-  c #313130",
";  c #353535",
":  c #363C3E",
">  c gray22",
",  c #393938",
"<  c gray23",
"1  c #3B3C3D",
"2  c #3F4040",
"3  c #414142",
"4  c #404243",
"5  c #434343",
"6  c #414344",
"7  c #444545",
"8  c #464646",
"9  c #474746",
"0  c gray28",
"q  c #404749",
"w  c #434C4F",
"e  c #484848",
"r  c gray29",
"t  c #4C4C4C",
"y  c gray31",
"u  c #4F504F",
"i  c #475256",
"p  c #535352",
"a  c #545453",
"s  c gray33",
"d  c #565757",
"f  c gray34",
"g  c #585858",
"h  c #5A5D5E",
"j  c #5D5D5D",
"k  c #526065",
"l  c #5C727C",
"z  c gray38",
"x  c gray39",
"c  c #646463",
"v  c #656565",
"b  c gray40",
"n  c #676867",
"m  c #686867",
"M  c #6A6A6A",
"N  c gray42",
"B  c #6C6C6C",
"V  c #6F6F6F",
"C  c #6E7275",
"Z  c #67767B",
"A  c #737372",
"S  c #747474",
"D  c gray46",
"F  c #767676",
"G  c #707779",
"H  c gray48",
"J  c #7B7C7C",
"K  c #7C7C7C",
"L  c gray49",
"P  c #5B8499",
"I  c #5D8499",
"U  c #6E8693",
"Y  c #6D8993",
"T  c #628799",
"R  c #648899",
"E  c #648999",
"W  c #678B99",
"Q  c #6A8899",
"!  c #6D8D99",
"~  c #708F99",
"^  c #7D8F99",
"/  c #808080",
"(  c #818181",
")  c #848483",
"_  c #848484",
"`  c #858584",
"'  c gray52",
"]  c #868686",
"[  c #888887",
"{  c #898988",
"}  c #8A8A89",
"|  c #8B8B8A",
" . c #8C8C8B",
".. c gray55",
"X. c #8D8D8C",
"o. c #8E8E8E",
"O. c #8F8F8E",
"+. c gray56",
"@. c #818C92",
"#. c #8D9193",
"$. c #819099",
"%. c #8F9698",
"&. c #8E9699",
"*. c #909090",
"=. c gray57",
"-. c #939393",
";. c #919496",
":. c gray58",
">. c #979797",
",. c #989898",
"<. c gray61",
"1. c gray62",
"2. c #C0C0C0",
"3. c gray80",
"4. c LightGray",
"5. c #D7D7D7",
"6. c #D8D8D8",
"7. c gainsboro",
"8. c gray88",
"9. c gray91",
"0. c black",
"q. c None",
/* pixels */
"q.q.2.b r 8 8 8 8 8 8 8 8 8 8 8 8 8 8 7 8 8 8 8 p } 7.q.",
"q.4.g A } o.o.} } o.o.o.} o.o.}  .o. .o.} } } o.( d o.q.",
"q.1.b ,.:.:.:.:.=.:.:.:.:.:.:.:.:.:.,.:.:.:.:.:.,.} g 7.",
"q.o.V :.:.:.=.=.=.:.:.=.:.=.=.=.:.=.=.;.:.=.:.=.=.o.p 5.",
"q.o.V =.o.o.o.*.o.o.o.o.=.=.o.*.o.o.=.o.o.*.o.o.*.o.p 4.",
"q.o.M o.o.o.} o.o...o...o.} o.o. .o....... .o.o.} } p 4.",
"q.o.b  .} } } } } } } } } } } } } } } o.} } [ } } [ a 4.",
"q.o.b } ' ' ' } ' ' ' ' _ ' ' _ ' ' ' ' ' ' } ' [ ' u 4.",
"q...v ' _ _ _ ( ( ( ( K K K K L L L / ( _ _ ' _ ' ( y 4.",
"q.o.x _ ( ( L K L L K J K K K ( L L L L L L ( ( ( ( p 4.",
"q.o.z _ ( L L ( ( ( L ( ( ( ( ( / / / / / / ( / ( ( p 4.",
"q.o.j _ ( ( ( ( ( ( ( ( ( S V F ( ( ( ( / ( / / ( ( y 4.",
"q.} x ' _ _ ( _ _ ' _ M 4 2 4 4 t H _ ( ' ( ( ) ) ( p 4.",
"q.o.x ' _ ' _ _ _ ' B 1 C #.%. .j 5 L _ ' ' ' ' ' ) p 4.",
"q.o.x [ _ ' ' [ _ _ 7 S %.$.^ $.;.d j [ ' ' ' ' ' ) p 4.",
"q.} v } o.' } ' ' K 4 @.Q I I R ! G r } [ } [ [ } ' y 4.",
"q.o.z  .} } } } } L 2 U P I E E W Z t [ ..} } } } } p 4.",
"q.o.b o.o.} } o.o.} 2 l E T E W ! i t ....} ......} p 4.",
"q.} b =.o.o.o.o.o.o.V : l ! ! ! k % & v o.....o.o.} p 4.",
"q.o.b =.o.o.o.o.o.o.o.V 6 2 w 2 - - M > z *.o.*.o...p 4.",
"q.} M :.=.=.=.=.=.=.=.=.o.H F ( ' r r b > b #.=.=.o.a 4.",
"q.1.y F F F F F ' =.=.=.=.=.:.=.:.} 8 r J 1 n =.=.o.a 4.",
"q.7.z $ + + o o r :.=.:.=.:.:.:.=.:.} r d J 1 b :.*.a 4.",
"q.q.7.z @       r :.:.:.:.:.:.:.:.:.:.o.r p M , m =.d 4.",
"q.q.q.7.z #     r ,.:.,.,.:.:.:.:.:.:.,.o.e r M - L d 4.",
"q.q.q.q.7.b $   8 ,.,.:.,.,.,.,.,.,.,.,.,.*.r ; r ' d 5.",
"q.q.q.q.q.5.b $ y :.,.,.:.:.,.:.,.,.,.,.:.,.o.M o.M F 9.",
"q.q.q.q.q.q.7.p = r y y y r y y t t t y t t t t 4 d 3.q."
};
