/* XPM */
static char *search_dis[] = {
/* columns rows colors chars-per-pixel */
"28 28 139 2",
"   c black",
".  c gray2",
"X  c gray4",
"o  c #0E0E0E",
"O  c #131313",
"+  c #161616",
"@  c #1B1B1B",
"#  c #222222",
"$  c #2B2C2D",
"%  c #474746",
"&  c #4C4C4C",
"*  c #525251",
"=  c #565656",
"-  c gray36",
";  c #5D5D5D",
":  c #5F5F5E",
">  c #606060",
",  c gray39",
"<  c #646464",
"1  c #656566",
"2  c #636668",
"3  c #6A6A6A",
"4  c #6E6E6D",
"5  c #6F6F6F",
"6  c #70706F",
"7  c #6F7070",
"8  c #727271",
"9  c #727272",
"0  c gray45",
"q  c #717475",
"w  c #767676",
"e  c #74797B",
"r  c gray47",
"t  c #797979",
"y  c #7B7B7B",
"u  c #7C7C7C",
"i  c gray49",
"p  c #7E7E7E",
"a  c #7C8284",
"s  c #808080",
"d  c gray51",
"f  c #838383",
"g  c gray52",
"h  c #868685",
"j  c #858D8F",
"k  c #8D8D8D",
"l  c gray56",
"z  c #90908F",
"x  c #929292",
"c  c #9B9B9B",
"v  c #9A9C9D",
"b  c #9F9F9F",
"n  c #9CA6A9",
"m  c #A2A2A2",
"M  c #A5A5A5",
"N  c #A8A8A7",
"B  c #A9A9A9",
"V  c #ACACAC",
"C  c gray68",
"Z  c #AFAFAE",
"A  c #B0B0AF",
"S  c #B2B2B1",
"D  c gray70",
"F  c gray71",
"G  c #BABAB9",
"H  c gray74",
"J  c gray75",
"K  c #BEC1C3",
"L  c #B6C4CC",
"P  c #BAC9D0",
"I  c #C0C0C0",
"U  c #C3C2C2",
"Y  c gray77",
"T  c #C5C5C5",
"R  c #C4C9CA",
"E  c #C0CACD",
"W  c #C8C8C8",
"Q  c #CBCBCB",
"!  c #CDCDCC",
"~  c #CECECE",
"^  c #D0D0D0",
"/  c gray82",
"(  c LightGray",
")  c gray83",
"_  c #D5D5D5",
"`  c #D7D6D6",
"'  c #D7D7D7",
"]  c #D8D8D7",
"[  c #D8D8D8",
"{  c #D9D9D8",
"}  c #DADADA",
"|  c gray86",
" . c #DCDCDB",
".. c gainsboro",
"X. c #DDDDDD",
"o. c gray87",
"O. c #DFDFDF",
"+. c #DDEDF6",
"@. c #D7F1FF",
"#. c #D8F2FF",
"$. c #DBF3FF",
"%. c #DBF4FF",
"&. c #DFF6FF",
"*. c gray88",
"=. c #E1E1E1",
"-. c #E2E2E2",
";. c gray89",
":. c #E4E4E4",
">. c gray90",
",. c #E7E7E7",
"<. c #E8E8E7",
"1. c #E9E9E9",
"2. c gray92",
"3. c #E9EBEC",
"4. c #EBEBEC",
"5. c #ECECEC",
"6. c #EEEEEE",
"7. c #EFEFEF",
"8. c #E8F0F4",
"9. c #E0F4FF",
"0. c #E1F7FF",
"q. c #E3F8FF",
"w. c #E8F9FF",
"e. c #ECF8FF",
"r. c #EFF9FF",
"t. c gray94",
"y. c #F3F3F3",
"u. c #F1F4F5",
"i. c #F4F4F4",
"p. c gray97",
"a. c #F7F9FB",
"s. c #F1FBFF",
"d. c #F8F8F8",
"f. c gray98",
"g. c #F8FCFD",
"h. c gray99",
"j. c #FEFEFE",
"k. c black",
"l. c None",
/* pixels */
"l.l.I 5 : : : : - - : - - : - - ; ; - ; ; ; ; ; > k *.l.",
"l.( 5 J 1.1.>.1.1.<.1.1.>.1.1.1.<.5.<.<.<.<.<.5.O.h z l.",
"l.b M j.j.d.d.d.d.d.d.j.j.d.d.d.f.f.f.f.f.f.f.f.d.<.6 o.",
"l.x G d.i.i.i.i.i.i.i.i.i.i.i.i.y.y.y.y.y.y.y.y.i.7.6 ( ",
"l.x F y.6.y.6.6.6.y.8.6.6.y.6.6.7.7.7.7.t.8.6.8.t.5.5 ( ",
"l.x S 6.1.>.1.1.1.1.4.1.1.1.1.1.1.5.<.5.5.1.5.1.5.>.5 ( ",
"l.x C 1.>.>.>.;.>.>.>.>.>.>.>.>.<.:.<.>.>.:.>.>.>.;.5 ( ",
"l.x B >.;.;.;.;.o.;.*.o.o.o.o.*.O.O.O.-.O.-.O.;.;.o.5 ( ",
"l.x M ;...o. .` ` ( ( ~ ^ ~ ^ ^ ^ ( ( ` } } o...o.} 4 ( ",
"l.l M *.` ) ) ( ^ ( ( ( ( ( ( ^ ^ ( ( ( ( ( ` [ } ` 4 ( ",
"l.l m } ` ) ) ) ( ` ) ( ( ` ` ( ` ( ( ` ( ( ` ` ` ] 5 ( ",
"l.l b ..` ` ` ` ` ` ` [ ` I J T ] ` ` ` ` ` ` ` ` ` 5 ( ",
"l.l m o.} } } } } }  .F 8 5 8 3 f Q } } } } } } } ] 5 ( ",
"l.l m ;...o.o...o.*.F 1 K y.a.1.v 5 ( o.o.o.o.o.o. .5 ( ",
"l.l M >.*.*.*.O.*...0 K g.r.e.s.g.l c ;.O.*.o.o.o.o.5 ( ",
"l.l M >.;.;.;.;.:.~ 7 8.9.@.@.%.w.R r ;.;.;.;.;.;.*.5 ( ",
"l.l M 1.>.>.<.>.>.( 7 +.@.@.@.%.&.E i <.>.>.>.>.>.;.5 ( ",
"l.l B 6.1.1.1.1.1.>.8 L %.#.&.&.q.j i 1.<.1.1.1.1.>.8 ( ",
"l.l B t.1.6.6.1.1.6.G 2 P #.9.+.n $ % N 6.5.7.5.6.<.6 ( ",
"l.l C y.6.6.6.6.6.6.6.F 5 e a w & & A : M 7.6.6.6.1.8 ( ",
"l.l C i.i.y.i.i.y.y.y.y.1.( I ] ;.y i C : B y.y.y.1.8 ( ",
"l.b f T T T T I } i.y.y.y.i.i.i.y.>.w i ~ 1 B y.y.6.8 ( ",
"l.o.3 # O o o X i d.i.i.i.i.i.d.i.d.<.y l ( , V d.y.8 ( ",
"l.l.} 1 + .     w j.d.d.d.d.d.d.d.d.a.1.y g S : C i.0 ( ",
"l.l.l.} 1 @ .   w j.d.d.d.d.j.i.d.d.d.j.4.w y C * ~ w ( ",
"l.l.l.l.} 3 # . w j.j.j.j.i.j.j.j.j.h.g.j.6.i - y ;.8 ` ",
"l.l.l.l.l.} 3 # f j.j.d.j.j.j.j.j.j.j.h.j.j.6.C 1.S y <.",
"l.l.l.l.l.l.` = & f i f i i u y i i i i s i i f 5 , ~ l."
};
