/* XPM */
static char *spellcheck[] = {
/* columns rows colors chars-per-pixel */
"32 32 256 2",
"   c #010101",
".  c gray5",
"X  c #151515",
"o  c gray11",
"O  c #232323",
"+  c #353535",
"@  c #393939",
"#  c gray28",
"$  c #484848",
"%  c gray34",
"&  c gray37",
"*  c #686868",
"=  c #747474",
"-  c gray49",
";  c #448E08",
":  c #469309",
">  c #489709",
",  c #4C9D09",
"<  c #4D9712",
"1  c #519F12",
"2  c #569E1C",
"3  c #4FA30A",
"4  c #50A60A",
"5  c #52AB0A",
"6  c #56B30B",
"7  c #5ABC0C",
"8  c #54A910",
"9  c #56A318",
"0  c #5AB412",
"q  c #5FBE13",
"w  c #5EB01C",
"e  c #538B25",
"r  c #599B22",
"t  c #5A8C31",
"y  c #5F9137",
"u  c #629D32",
"i  c #62943A",
"p  c #669B3C",
"a  c #5BA025",
"s  c #5EAA23",
"d  c #64B225",
"f  c #67BF21",
"g  c #6BA43D",
"h  c #6CB234",
"j  c #70B737",
"k  c #5EC30C",
"l  c #62C90D",
"z  c #63C315",
"x  c #66C41A",
"c  c #6ACC1B",
"v  c #72DC1D",
"b  c #6BC225",
"n  c #6EC925",
"m  c #72CD2B",
"M  c #79CC36",
"N  c #72A945",
"B  c #77AF49",
"V  c #77B446",
"C  c #7ABD44",
"Z  c #7AB24D",
"A  c #80DE35",
"S  c #80D33F",
"D  c #80BB51",
"F  c #82B758",
"G  c #82A962",
"H  c #85AA68",
"J  c #8BBD63",
"K  c #8EBC69",
"L  c #80C34B",
"P  c #83D343",
"I  c #86D24A",
"U  c #89D64B",
"Y  c #84C451",
"T  c #8CC75E",
"R  c #8DCA5C",
"E  c #8AD151",
"W  c #8FDF50",
"Q  c #90D25C",
"!  c #97DD5F",
"~  c #93CE63",
"^  c #9CC27D",
"/  c #9FDA71",
"(  c #A4D67C",
")  c #A9DF7D",
"_  c #A5E474",
"`  c #848484",
"'  c gray54",
"]  c #909090",
"[  c gray62",
"{  c #9EB58B",
"}  c gray64",
"|  c gray68",
" . c #B4B4B4",
".. c #B5B8B3",
"X. c #BCBCBC",
"o. c #A5C18F",
"O. c #A8CE8A",
"+. c #ACCE90",
"@. c #B3D399",
"#. c #B2E38A",
"$. c #B3EA88",
"%. c #B7E592",
"&. c #B6CCA5",
"*. c #B7C5AB",
"=. c #BDCFAD",
"-. c #BCDAA4",
";. c #BFD4AE",
":. c #BDCDB1",
">. c #C4D6B5",
",. c #C5D8B6",
"<. c #C6D5BA",
"1. c #CBDCBC",
"2. c #C4E5AA",
"3. c #C3C3C3",
"4. c gray80",
"5. c #CFD9C6",
"6. c #D2DFC8",
"7. c gray83",
"8. c #D8DED3",
"9. c gray86",
"0. c #D7E7CA",
"q. c #D7E0D0",
"w. c #DAE4D2",
"e. c #DEE4D9",
"r. c #E2E9DD",
"t. c #E4E4E4",
"y. c #E6E9E4",
"u. c #E8EAE7",
"i. c #E9E9E9",
"p. c None",
"a. c black",
"s. c black",
"d. c black",
"f. c black",
"g. c black",
"h. c black",
"j. c black",
"k. c black",
"l. c black",
"z. c black",
"x. c black",
"c. c black",
"v. c black",
"b. c black",
"n. c black",
"m. c black",
"M. c black",
"N. c black",
"B. c black",
"V. c black",
"C. c black",
"Z. c black",
"A. c black",
"S. c black",
"D. c black",
"F. c black",
"G. c black",
"H. c black",
"J. c black",
"K. c black",
"L. c black",
"P. c black",
"I. c black",
"U. c black",
"Y. c black",
"T. c black",
"R. c black",
"E. c black",
"W. c black",
"Q. c black",
"!. c black",
"~. c black",
"^. c black",
"/. c black",
"(. c black",
"). c black",
"_. c black",
"`. c black",
"'. c black",
"]. c black",
"[. c black",
"{. c black",
"}. c black",
"|. c black",
" X c black",
".X c black",
"XX c black",
"oX c black",
"OX c black",
"+X c black",
"@X c black",
"#X c black",
"$X c black",
"%X c black",
"&X c black",
"*X c black",
"=X c black",
"-X c black",
";X c black",
":X c black",
">X c black",
",X c black",
"<X c black",
"1X c black",
"2X c black",
"3X c black",
"4X c black",
"5X c black",
"6X c black",
"7X c black",
"8X c black",
"9X c black",
"0X c black",
"qX c black",
"wX c black",
"eX c black",
"rX c black",
"tX c black",
"yX c black",
"uX c black",
"iX c black",
"pX c black",
"aX c black",
"sX c black",
"dX c black",
"fX c black",
"gX c black",
"hX c black",
"jX c black",
"kX c black",
"lX c black",
"zX c black",
"xX c black",
"cX c black",
"vX c black",
"bX c black",
"nX c black",
"mX c black",
"MX c black",
"NX c black",
"BX c black",
"VX c black",
"CX c black",
"ZX c black",
"AX c black",
"SX c black",
"DX c black",
"FX c black",
"GX c black",
"HX c black",
"JX c black",
"KX c black",
"LX c black",
"PX c black",
"IX c black",
"UX c black",
/* pixels */
"p.p.p.p.p.p.p.p.p.p.p.p.p.p.p.p.p.p.p.p.p.p.p.p.p.p.p.p.p.p.p.p.",
"p.p.p.p.p.p.p.p.p.p.p.p.p.p.p.p.p.p.p.p.p.p.p.p.p.p.p.p.p.p.p.p.",
"p.p.p.p.p.p.p.p.p.p.p.p.p.p.p.p.p.p.p.p.p.p.p.p.p.p.p.p.p.p.i.p.",
"p.p.p.p.p.p.p.p.p.p.p.p.p.p.p.p.p.p.p.p.p.p.p.p.p.p.p.p.p.y.A u.",
"p.p.p.p.p.p.t.9.t.p.p.t.9.9.t.p.p.p.p.t.3.7.p.p.p.p.p.p.p._ v p.",
"p.p.p.p.p.p.=   @ p.p.`       @ t.p.` . .   = p.p.p.p.p.2.l W p.",
"p.p.p.p.p.i.o O   4.p.`   7.'   .. .  & t.t.X.p.p.p.p.0.c 5 %.p.",
"p.p.p.p.p.|   | . = p.`   + o O t.-   4.p.p.p.p.p.p.r.m > z y.p.",
"p.p.p.p.p.% X | + O i.`   ] -   [ `   3.p.p.p.p.p.y.P , , / p.p.",
"p.p.p.p.9.. X O o    .`   ..}   ` 3.  $ 4.3.| p.u.E 3 ; q e.p.p.",
"p.p.p.p.[ . 3.p.t.o * ' . X X $ 7.p.} o   . ` i.Q 5 : 4 ( p.p.p.",
"p.p.p.p.p.p.p.p.p.p.p.p.p.p.p.p.p.p.p.p.t.t.i.~ 5 > > b y.p.p.p.",
"p.p.p.p.p.p.p.p.p.p.p.p.p.p.p.p.p.p.p.p.p.i.R 5 , , 5 -.p.p.p.p.",
"p.p.p.p.p.p.p.p.p.p.p.p.p.p.p.p.p.p.p.p.y.L 5 3 3 3 L p.p.p.p.p.",
"p.p.p.w.p.p.p.p.p.p.p.p.p.p.p.p.p.p.p.e.C 5 3 3 3 w w.p.p.p.p.p.",
"p.p.p.w O.p.p.p.p.p.p.p.p.p.p.p.p.p.1.d 3 5 5 5 5 @.p.p.p.p.p.p.",
"p.p.p.h 5 O.p.p.p.p.p.p.p.p.p.p.i.+.8 5 5 5 6 5 D p.p.p.p.p.p.p.",
"p.p.p.J 5 3 J r.p.p.p.p.p.p.p.6.V 5 5 6 6 6 5 s e.p.p.p.p.p.p.p.",
"p.p.p.>.4 6 5 9 K >.y.p.t.>.Z 4 5 6 7 6 6 6 3 >.p.p.p.p.p.p.p.p.",
"p.p.p.p.B 0 7 6 6 4 , 1 3 3 6 7 7 7 7 7 7 4 ^ p.p.p.p.p.p.p.p.p.",
"p.p.p.p.q.2 f x 7 7 7 k k 7 k 7 7 7 z b 0 N i.p.p.p.p.p.p.p.p.p.",
"p.p.p.p.p.>.2 M M m x k k k k k k n M b r e.p.p.p.p.p.p.p.p.p.p.",
"p.p.p.p.p.p.&.a I U U U P S S P P U P < <.p.p.p.p.p.p.p.p.p.p.p.",
"p.p.p.p.p.p.p.=.u Q ! ! ! ! ! ! ! ! 9 o.p.p.p.p.p.p.p.p.p.p.p.p.",
"p.p.p.p.p.p.p.p.5.p R _ _ _ _ _ _ j G p.p.p.p.p.p.p.p.p.p.p.p.p.",
"p.p.p.p.p.p.p.p.p.t.H g ) $.$.$.~ i y.p.p.p.p.p.p.p.p.p.p.p.p.p.",
"p.p.p.p.p.p.p.p.p.p.p.:.y Z %.#.e 8.p.p.p.p.p.p.p.p.p.p.p.p.p.p.",
"p.p.p.p.p.i.i.i.t.t.t.t.9.{ t e *.t.9.t.t.t.t.t.i.i.i.p.p.p.p.p.",
"p.i.t.t.9.9.7.7.4.4.4.4.3.X.X. .X.X.X.X.3.3.4.4.7.7.9.9.t.t.i.p.",
"p.i.t.t.9.9.7.4.4.3.X.X.X... . .|  . .X.X.X.3.4.4.4.7.9.9.t.i.p.",
"p.p.p.i.i.t.t.t.t.9.9.9.7.7.9.7.7.7.7.7.9.9.9.t.t.t.u.i.i.p.p.p.",
"p.p.p.p.p.p.p.p.p.p.p.p.p.p.p.p.p.p.p.p.p.p.p.p.p.p.p.p.p.p.p.p."
};
