/* XPM */
static char *spellcheck_dis[] = {
/* columns rows colors chars-per-pixel */
"32 32 128 2",
"   c #010101",
".  c gray5",
"X  c #151515",
"o  c gray11",
"O  c #232323",
"+  c #353535",
"@  c #393939",
"#  c gray28",
"$  c #484848",
"%  c gray34",
"&  c gray37",
"*  c #686868",
"=  c #747474",
"-  c gray49",
";  c #708E58",
":  c #75945D",
">  c #79995F",
",  c #758B62",
"<  c #778C68",
"1  c #7A9762",
"2  c #7D9E62",
"3  c #7D916D",
"4  c #7FA064",
"5  c #809F66",
"6  c #819D6A",
"7  c #809470",
"8  c #869C73",
"9  c #82A466",
"0  c #84A56A",
"q  c #86A96A",
"w  c #89AD6C",
"e  c #8CB16F",
"r  c #8CAA74",
"t  c #8DA47A",
"y  c #8FB273",
"u  c #90B672",
"i  c #95BC76",
"p  c #92B27A",
"a  c #97BE78",
"s  c #98BE79",
"d  c #9BC37B",
"f  c #9FC97D",
"g  c #848484",
"h  c gray54",
"j  c #909090",
"k  c gray62",
"l  c #93A981",
"z  c #99AF86",
"x  c #9AAA8E",
"c  c #96B280",
"v  c #9BB784",
"b  c #9CBF80",
"n  c #9CB389",
"m  c #A2BD8D",
"M  c #A2B791",
"N  c #A4BB91",
"B  c #AABD9A",
"V  c gray64",
"C  c gray68",
"Z  c #ABB5A4",
"A  c #B4B4B4",
"S  c #B7B8B6",
"D  c #BCBCBC",
"F  c #9EC282",
"G  c #A0C582",
"H  c #A5CB86",
"J  c #A6CA8A",
"K  c #ABCD8F",
"L  c #B1DC8F",
"P  c #AAC395",
"I  c #ACCD91",
"U  c #AFC79D",
"Y  c #B2CA9E",
"T  c #B1D297",
"R  c #B5D49C",
"E  c #B8DE9A",
"W  c #B3C2A6",
"Q  c #B7CEA3",
"!  c #B6C1AD",
"~  c #B7D0A2",
"^  c #B9D3A3",
"/  c #BFDFA5",
"(  c #BFCEB3",
")  c #BFC5BB",
"_  c #C1DDAB",
"`  c #C0CEB5",
"'  c #C3CCBC",
"]  c #C2D6B2",
"[  c #C2DAB0",
"{  c #C6D3BB",
"}  c #C9DFB8",
"|  c #CBE4B7",
" . c #CFE3BF",
".. c #C3C3C3",
"X. c #C7CEC1",
"o. c #CBCBCB",
"O. c #CCD4C5",
"+. c #CEDAC5",
"@. c #CFD6C9",
"#. c #D1D8CB",
"$. c gray83",
"%. c #D5DBD1",
"&. c #DADFD6",
"*. c #DBDCDB",
"=. c #D2E5C4",
"-. c #D4EAC3",
";. c #D8E5CD",
":. c #DDE1DA",
">. c #E0E4DD",
",. c #E4E4E3",
"<. c #E6E9E5",
"1. c #E8E9E7",
"2. c #E9E9E9",
"3. c None",
"4. c black",
"5. c black",
"6. c black",
"7. c black",
"8. c black",
"9. c black",
"0. c black",
"q. c black",
"w. c black",
"e. c black",
"r. c black",
"t. c black",
"y. c black",
"u. c black",
/* pixels */
"3.3.3.3.3.3.3.3.3.3.3.3.3.3.3.3.3.3.3.3.3.3.3.3.3.3.3.3.3.3.3.3.",
"3.3.3.3.3.3.3.3.3.3.3.3.3.3.3.3.3.3.3.3.3.3.3.3.3.3.3.3.3.3.3.3.",
"3.3.3.3.3.3.3.3.3.3.3.3.3.3.3.3.3.3.3.3.3.3.3.3.3.3.3.3.3.3.2.3.",
"3.3.3.3.3.3.3.3.3.3.3.3.3.3.3.3.3.3.3.3.3.3.3.3.3.3.3.3.3.2.E 2.",
"3.3.3.3.3.3.,.*.,.3.3.,.*.*.,.3.3.3.3.,...$.3.3.3.3.3.3.3.| L 3.",
"3.3.3.3.3.3.=   @ 3.3.g       @ ,.3.g .     = 3.3.3.3.3.;.f / 3.",
"3.3.3.3.3.2.o O   o.3.g   $.j   S S   & 2.,.D 3.3.3.3.>.H w =.3.",
"3.3.3.3.3.C   C . = 3.g   + o O ,.-   o.3.3.3.3.3.3.<.K : G <.3.",
"3.3.3.3.3.% . C + O 2.g   h -   k g   ..3.3.3.3.3.1.T 2 2 _ 3.3.",
"3.3.3.3.*.. o O o   A g   S V   - ..  $ o...C 3.2.R 9 ; s ,.3.3.",
"3.3.3.3.k . ..3.,.o * h . X X $ *.3.V o   . g 2.~ q : 0 ] 3.3.3.",
"3.3.3.3.3.3.3.3.3.3.3.3.3.3.3.3.3.3.3.3.,.1.2.~ w > > b 1.3.3.3.",
"3.3.3.3.3.3.3.3.3.3.3.3.3.3.3.3.3.3.3.3.3.2.Y q 2 2 w +.3.3.3.3.",
"3.3.3.3.3.3.3.3.3.3.3.3.3.3.3.3.3.3.3.3.1.P q 4 2 9 P 3.3.3.3.3.",
"3.3.3.:.3.3.3.3.3.3.3.3.3.3.3.3.3.3.3.,.m q 9 9 9 y >.3.3.3.3.3.",
"3.3.3.y ` 3.3.3.3.3.3.3.3.3.3.3.3.3.#.p q q q q 0 { 3.3.3.3.3.3.",
"3.3.3.c q ` 3.3.3.3.3.3.3.3.3.3.2.` q w e w w q m 3.3.3.3.3.3.3.",
"3.3.3.B w 0 B ,.3.3.3.3.3.3.3.:.n w e e e e e r ,.3.3.3.3.3.3.3.",
"3.3.3.#.9 y w 0 B #.,.3.<.O.N 4 e e u u y y 9 #.3.3.3.3.3.3.3.3.",
"3.3.3.3.c e u i e 0 2 9 4 0 e u i i i i i 0 W 3.3.3.3.3.3.3.3.3.",
"3.3.3.3.:.6 s F i i d i i s i d i i d F u l 2.3.3.3.3.3.3.3.3.3.",
"3.3.3.3.3.@.6 I I J F d d d d d d H K G 6 >.3.3.3.3.3.3.3.3.3.3.",
"3.3.3.3.3.3.' 0 R ^ E R R T T T R R T > @.3.3.3.3.3.3.3.3.3.3.3.",
"3.3.3.3.3.3.3.O.8 ~ _ _ _ _ _ _ _ _ 0 S 3.3.3.3.3.3.3.3.3.3.3.3.",
"3.3.3.3.3.3.3.3.%.8 W | | | | | | v x 3.3.3.3.3.3.3.3.3.3.3.3.3.",
"3.3.3.3.3.3.3.3.3.,.x t | -.-.-.~ 7 ,.3.3.3.3.3.3.3.3.3.3.3.3.3.",
"3.3.3.3.3.3.3.3.3.3.3.X.3 n =.=., *.3.3.3.3.3.3.3.3.3.3.3.3.3.3.",
"3.3.3.3.3.2.2.2.1.,.,.,.:.Z < , ) ,.,.,.,.,.1.2.,.2.2.3.3.3.3.3.",
"3.2.,.,.:.*.$.$.o.o.o.....D D S D D D ) ....o.o.o.$.*.*.,.1.2.3.",
"3.1.,.,.*.*.$.o.o...D D D S A A C A A S D D ....o.$.$.*.*.,.1.3.",
"3.3.3.2.2.,.,.,.,.*.*.*.$.*.$.$.$.$.$.*.*.*.*.,.,.,.1.1.2.3.3.3.",
"3.3.3.3.3.3.3.3.3.3.3.3.3.3.3.3.3.3.3.3.3.3.3.3.3.3.3.3.3.3.3.3."
};
