/* XPM */
static char *spellcheck_sel[] = {
/* columns rows colors chars-per-pixel */
"32 32 128 2",
"   c #010101",
".  c gray5",
"X  c #161616",
"o  c #232323",
"O  c #2F2F2F",
"+  c #373737",
"@  c #3A3A3A",
"#  c #295505",
"$  c #2C5C05",
"%  c #2B500D",
"&  c #2D5A08",
"*  c #315D0D",
"=  c #2B4D10",
"-  c #2E5111",
";  c #345C15",
":  c #365C18",
">  c #2F6105",
",  c #316506",
"<  c #336B07",
"1  c #32640B",
"2  c #356A0B",
"3  c #367107",
"4  c #387507",
"5  c #3A7907",
"6  c #377008",
"7  c #397409",
"8  c #3C7B0A",
"9  c #386215",
"0  c #3C6A16",
"q  c #3C6718",
"w  c #3E7412",
"e  c #417516",
"r  c #427916",
"t  c #42731B",
"y  c #44781B",
"u  c #406224",
"i  c #436E21",
"p  c #45652C",
"a  c #496B2E",
"s  c #4C7D24",
"d  c #4D762C",
"f  c #4F7F29",
"g  c #507F2B",
"h  c #577F37",
"j  c #547738",
"k  c #577C3A",
"l  c #434343",
"z  c #4B4B4B",
"x  c gray32",
"c  c #585858",
"v  c #637952",
"b  c gray42",
"n  c #747474",
"m  c #7B7B7B",
"M  c #42850C",
"N  c #458015",
"B  c #4A821D",
"V  c #4E8C1C",
"C  c #4F8325",
"Z  c #52812D",
"A  c #5B8539",
"S  c #5F9136",
"D  c #659A3B",
"F  c #5E8142",
"G  c #638946",
"H  c #65864B",
"J  c #659241",
"K  c #6C8656",
"L  c #6C8B53",
"P  c #6D9050",
"I  c #739358",
"U  c #7DA75A",
"Y  c #7C9B63",
"T  c #849A73",
"R  c #88977C",
"E  c #8AA871",
"W  c #8FA27F",
"Q  c #94B679",
"!  c #848484",
"~  c #8B8B8B",
"^  c gray58",
"/  c #9B9B9B",
"(  c #91A185",
")  c #92A880",
"_  c #9AAE8A",
"`  c #9DB18D",
"'  c #A0B092",
"]  c #A5B896",
"[  c #A5A5A5",
"{  c #ACACAC",
"}  c #B0BCA7",
"|  c gray70",
" . c #BBBBBB",
".. c #B5C3AA",
"X. c #BBCDAC",
"o. c #C0CCB7",
"O. c #C2CCBB",
"+. c #C3C3C3",
"@. c #CBCBCB",
"#. c #CBD4C4",
"$. c #CFD6C9",
"%. c #D1DBCA",
"&. c gray83",
"*. c #D9DED6",
"=. c #DCDCDB",
"-. c #DEE2DB",
";. c #E0E3DE",
":. c #E4E4E4",
">. c #E7E8E7",
",. c #E8E8E7",
"<. c #E9E9E9",
"1. c None",
"2. c black",
"3. c black",
"4. c black",
"5. c black",
"6. c black",
"7. c black",
"8. c black",
"9. c black",
"0. c black",
"q. c black",
"w. c black",
"e. c black",
"r. c black",
"t. c black",
"y. c black",
"u. c black",
/* pixels */
"1.1.1.1.1.1.1.1.1.1.1.1.1.1.1.1.1.1.1.1.1.1.1.1.1.1.1.1.1.1.1.1.",
"1.1.1.1.1.1.1.1.1.1.1.1.1.1.1.1.1.1.1.1.1.1.1.1.1.1.1.1.1.1.1.1.",
"1.1.1.1.1.1.1.1.1.1.1.1.1.1.1.1.1.1.1.1.1.1.1.1.1.1.1.1.1.1.<.1.",
"1.1.1.1.1.1.1.1.1.1.1.1.1.1.1.1.1.1.1.1.1.1.1.1.1.1.1.1.1.:.M :.",
"1.1.1.1.1.1.:.@.=.1.1.=.@.@.=.1.1.1.1.=.[ +.1.1.1.1.1.1.1.D M 1.",
"1.1.1.1.1.1.+   . 1.1.z       X =.1.z       @ 1.1.1.1.1.Q 5 V 1.",
"1.1.1.1.1.:.      | 1.z    .c   ~ ^   o ;.&.^ 1.1.1.1.X.5 , U 1.",
"1.1.1.1.1.!   !   @ 1.z   .     =.l   { 1.1.1.1.1.1.%.8 $ 4 -.1.",
"1.1.1.1.1.o   m .   <.z   c @   b l   [ 1.1.1.1.1.;.N > > S 1.1.",
"1.1.1.1.&.          ~ z   ^ n   z [   X | [ m 1.:.B > # 3 #.1.1.",
"1.1.1.1.b   / 1.:.  + x       X +.1.b       z <.C > $ > J 1.1.1.",
"1.1.1.1.1.1.1.1.1.1.1.1.1.1.1.1.1.1.1.1.=.>.<.Z < $ $ 6 -.1.1.1.",
"1.1.1.1.1.1.1.1.1.1.1.1.1.1.1.1.1.1.1.1.1.:.s , $ $ < E 1.1.1.1.",
"1.1.1.1.1.1.1.1.1.1.1.1.1.1.1.1.1.1.1.1.:.y , > > , t 1.1.1.1.1.",
"1.1.1.o.1.1.1.1.1.1.1.1.1.1.1.1.1.1.1.%.w , > > > < O.1.1.1.1.1.",
"1.1.1.< P 1.1.1.1.1.1.1.1.1.1.1.1.1.] 2 , , , , , Y 1.1.1.1.1.1.",
"1.1.1.2 , I 1.1.1.1.1.1.1.1.1.1.<.I , , < , < < i 1.1.1.1.1.1.1.",
"1.1.1.d < , d $.1.1.1.1.1.1.1...0 , 2 < < < < > $.1.1.1.1.1.1.1.",
"1.1.1.` $ < < $ d _ -.1.-.W i > < < < < < 6 > _ 1.1.1.1.1.1.1.1.",
"1.1.1.1.q 2 7 < , < > $ > , < 3 3 3 3 3 6 > F 1.1.1.1.1.1.1.1.1.",
"1.1.1.1.o.& e 7 7 3 3 3 3 3 3 3 3 3 7 e 2 9 <.1.1.1.1.1.1.1.1.1.",
"1.1.1.1.1._ * s s t 8 4 4 4 4 4 4 r s w & $.1.1.1.1.1.1.1.1.1.1.",
"1.1.1.1.1.1.T ; g Z Z g f s C Z Z Z s & ' 1.1.1.1.1.1.1.1.1.1.1.",
"1.1.1.1.1.1.1.( : h A A A A A A A A 1 K 1.1.1.1.1.1.1.1.1.1.1.1.",
"1.1.1.1.1.1.1.1.} ; j G G G G G G i p 1.1.1.1.1.1.1.1.1.1.1.1.1.",
"1.1.1.1.1.1.1.1.1.=.p u H L L L k - -.1.1.1.1.1.1.1.1.1.1.1.1.1.",
"1.1.1.1.1.1.1.1.1.1.1.( = a L K % O.1.1.1.1.1.1.1.1.1.1.1.1.1.1.",
"1.1.1.1.1.<.<.:.;.;.=.=.&.v = - R &.=.&.=.=.=.:.:.:.<.1.1.1.1.1.",
"1.<.:.=.&.@.+. .| | { [ / / ^ ~ ^ ^ / / [ [ { |  .+.@.&.=.;.>.1.",
"1.>.=.&.@.+. .| { [ / / ^ ~ ~ ! ! ! ~ ^ ^ / [ { {  . .@.&.=.:.1.",
"1.1.1.<.:.:.:.=.&.&.&.@.+.+.+.+.+.+.+.+.@.@.&.&.=.=.:.:.<.1.1.1.",
"1.1.1.1.1.1.1.1.1.1.1.1.1.1.1.1.1.1.1.1.1.1.1.1.1.1.1.1.1.1.1.1."
};
