/* XPM */
static char *stop[] = {
/* columns rows colors chars-per-pixel */
"32 32 256 2",
"   c #9D0000",
".  c #A30101",
"X  c #AB0000",
"o  c #A30B0B",
"O  c #AA0C0C",
"+  c #B40000",
"@  c #BC0101",
"#  c #B30A0A",
"$  c #BA0A0A",
"%  c #AC1515",
"&  c #B01717",
"*  c #BC1010",
"=  c #B51D1D",
"-  c #BC1B1B",
";  c #AD2C2C",
":  c #B32B2B",
">  c #BC2C2C",
",  c #B03434",
"<  c #B53A3A",
"1  c #C40101",
"2  c #CC0000",
"3  c #D40000",
"4  c #DC0000",
"5  c #D20D0D",
"6  c #C21414",
"7  c #CF1212",
"8  c #CB1B1B",
"9  c #D11515",
"0  c #E20202",
"q  c #E01B1B",
"w  c #C72121",
"e  c #CB2121",
"r  c #C72C2C",
"t  c #D02525",
"y  c #D82020",
"u  c #D12C2C",
"i  c #D83535",
"p  c #D83C3C",
"a  c #E52727",
"s  c #E92020",
"d  c #E13535",
"f  c #EB3B3B",
"g  c #BB4242",
"h  c #BC4D4D",
"j  c #BC5252",
"k  c #CB4242",
"l  c #DB4343",
"z  c #DD4D4D",
"x  c #C15757",
"c  c #CE5050",
"v  c #C35E5E",
"b  c #D55353",
"n  c #DD5454",
"m  c #D95C5C",
"M  c #E04444",
"N  c #E14949",
"B  c #E75656",
"V  c #E35E5E",
"C  c #C76565",
"Z  c #CA6666",
"A  c #CA6D6D",
"S  c #D66262",
"D  c #DB6363",
"F  c #D36A6A",
"G  c #D96D6D",
"H  c #C77272",
"J  c #CD7F7F",
"K  c #D47171",
"L  c #DD7575",
"P  c #D27878",
"I  c #E66A6A",
"U  c #F06E6E",
"Y  c #E37171",
"T  c #EB7474",
"R  c #E77878",
"E  c #E97E7E",
"W  c #F37B7B",
"Q  c #D08080",
"!  c #D98585",
"~  c #DE8F8F",
"^  c #D99595",
"/  c #DB9999",
"(  c #EC8181",
")  c #EE8B8B",
"_  c #F48585",
"`  c #F38C8C",
"'  c #EF9494",
"]  c #E29898",
"[  c #E99D9D",
"{  c #F39696",
"}  c #F89797",
"|  c #F39A9A",
" . c #F89898",
".. c #DDAAAA",
"X. c #E4A2A2",
"o. c #EBA3A3",
"O. c #E7A9A9",
"+. c #E8A8A8",
"@. c #F5A3A3",
"#. c #F9A4A4",
"$. c #F6ACAC",
"%. c #FAADAD",
"&. c #E4B6B6",
"*. c #ECB3B3",
"=. c #E4B8B8",
"-. c #EBBABA",
";. c #F5B4B4",
":. c #FBB5B5",
">. c #F5BBBB",
",. c #FBBABA",
"<. c #EAC4C4",
"1. c #EDCCCC",
"2. c #FCC3C3",
"3. c #F3CDCD",
"4. c #FDCCCC",
"5. c #EDD6D6",
"6. c #EEDBDB",
"7. c #F3D1D1",
"8. c #FDD4D4",
"9. c #F4DBDB",
"0. c #FCDBDB",
"q. c #ECECEC",
"w. c #F3E4E4",
"e. c #FCE4E4",
"r. c #F4EDED",
"t. c #FAECEC",
"y. c #F3F2F2",
"u. c #F9F1F1",
"i. c None",
"p. c black",
"a. c black",
"s. c black",
"d. c black",
"f. c black",
"g. c black",
"h. c black",
"j. c black",
"k. c black",
"l. c black",
"z. c black",
"x. c black",
"c. c black",
"v. c black",
"b. c black",
"n. c black",
"m. c black",
"M. c black",
"N. c black",
"B. c black",
"V. c black",
"C. c black",
"Z. c black",
"A. c black",
"S. c black",
"D. c black",
"F. c black",
"G. c black",
"H. c black",
"J. c black",
"K. c black",
"L. c black",
"P. c black",
"I. c black",
"U. c black",
"Y. c black",
"T. c black",
"R. c black",
"E. c black",
"W. c black",
"Q. c black",
"!. c black",
"~. c black",
"^. c black",
"/. c black",
"(. c black",
"). c black",
"_. c black",
"`. c black",
"'. c black",
"]. c black",
"[. c black",
"{. c black",
"}. c black",
"|. c black",
" X c black",
".X c black",
"XX c black",
"oX c black",
"OX c black",
"+X c black",
"@X c black",
"#X c black",
"$X c black",
"%X c black",
"&X c black",
"*X c black",
"=X c black",
"-X c black",
";X c black",
":X c black",
">X c black",
",X c black",
"<X c black",
"1X c black",
"2X c black",
"3X c black",
"4X c black",
"5X c black",
"6X c black",
"7X c black",
"8X c black",
"9X c black",
"0X c black",
"qX c black",
"wX c black",
"eX c black",
"rX c black",
"tX c black",
"yX c black",
"uX c black",
"iX c black",
"pX c black",
"aX c black",
"sX c black",
"dX c black",
"fX c black",
"gX c black",
"hX c black",
"jX c black",
"kX c black",
"lX c black",
"zX c black",
"xX c black",
"cX c black",
"vX c black",
"bX c black",
"nX c black",
"mX c black",
"MX c black",
"NX c black",
"BX c black",
"VX c black",
"CX c black",
"ZX c black",
"AX c black",
"SX c black",
"DX c black",
"FX c black",
"GX c black",
"HX c black",
"JX c black",
"KX c black",
"LX c black",
"PX c black",
"IX c black",
"UX c black",
/* pixels */
"i.i.i.i.i.i.i.i.i.i.q.r.y.y.u.u.u.u.u.y.r.q.i.i.i.i.i.i.i.i.i.i.",
"i.i.i.i.i.i.i.i.q.y.y.t.e.e.e.0.0.0.e.t.t.u.y.q.i.i.i.i.i.i.i.i.",
"i.i.i.i.i.i.q.q.u.e.0.8.8.8.8.8.8.8.8.8.8.8.e.u.y.q.i.i.i.i.i.i.",
"i.i.i.i.i.q.y.t.8.4.4.4.4.4.4.4.4.4.4.4.4.4.4.4.e.y.q.i.i.i.i.i.",
"i.i.i.i.q.y.0.2.2.2.2.,.2.4.8.8.8.8.4.2.2.2.2.2.2.8.y.q.i.i.i.i.",
"i.i.i.q.y.8.,.,.,.,.,.8.e.t.y.y.y.y.u.e.8.,.:.,.,.:.4.r.q.i.i.i.",
"i.i.i.y.8.%.%.%.%.2.e.y.q.q.i.i.i.i.q.q.y.t.,.%.$.$.$.4.y.q.i.i.",
"i.i.r.e.%.#.#.#.2.u.q.q.i.i.i.i.i.i.i.q.y.9.$.@.@.@.@.@.8.y.i.i.",
"i.q.y.:.} } } 2.y.q.i.i.i.i.i.i.i.i.q.y.9.| { { { { { { @.t.q.i.",
"i.q.8.` ` ` #.t.q.i.i.i.i.i.i.i.i.q.y.9.} ` { ) ;.;.) ) ) >.y.i.",
"i.t._ W _ _ 8.q.i.i.i.i.i.i.i.i.i.y.8.) E _ ( @.t.t.' E ( ( w.q.",
"q.4.q f U @.y.q.i.i.i.i.i.i.i.i.r.9.) T T T ' t.q.y.>.T V y @.q.",
"y.| 0 0 a >.y.i.i.i.i.i.i.i.i.q.9.( I I I ) w.q.i.q.9.N 5 2 I y.",
"y.T 4 4 q 7.q.i.i.i.i.i.i.i.y.9.E V I V ( 9.r.i.i.q.r.l 2 2 l y.",
"y.B 4 4 d w.q.i.i.i.i.i.i.r.9.R z n z I 9.q.i.i.i.i.y.D 1 1 u w.",
"y.N 4 3 M r.i.i.i.i.i.i.q.9.z 9 9 7 p 3.y.i.i.i.i.i.y.L 1 1 8 9.",
"r.N 2 3 l r.i.i.i.i.i.q.9.z 1 2 2 t >.y.i.i.i.i.i.i.y.L @ @ w 9.",
"y.V 2 2 i w.q.i.i.i.q.w.b 2 1 1 e *.y.q.i.i.i.i.i.i.r.Z @ @ r 9.",
"y.Y 2 2 8 7.q.i.i.q.w.m 1 1 1 8 O.y.q.i.i.i.i.i.i.q.r.p @ + k r.",
"y.[ 2 1 2 o.q.i.q.r.F 1 1 @ 6 O.y.q.i.i.i.i.i.i.i.q.1.- + + F y.",
"q.1.8 1 1 b y.q.r.G @ @ @ 6 X.y.q.i.i.i.i.i.i.i.i.y.! + + + X.y.",
"i.r.b @ @ 6 -.u.L @ @ @ $ ] y.q.i.i.i.i.i.i.i.i.q.9.> X X > 6.q.",
"i.q.O.$ @ + k K $ @ + $ ~ y.q.i.i.i.i.i.i.i.i.q.y.F X X X P y.i.",
"i.q.r.c @ + + + + + # ! r.q.i.i.i.i.i.i.i.i.q.y./ O X . : 5.q.i.",
"i.i.q.<.- + X + + # P y.q.i.i.i.i.i.i.i.i.q.y./ % . . o / y.i.i.",
"i.i.i.y.] # X X X = -.y.q.q.q.i.i.i.q.q.y.9.A o . . . A r.q.i.i.",
"i.i.i.q.y.! # X X X & Z =.w.r.y.y.y.w.<.J :   . . . v w.q.i.i.i.",
"i.i.i.i.q.y.^ & . . . . O : j C C x < % .       o A w.q.i.i.i.i.",
"i.i.i.i.i.q.y.&.g .                           ; / r.q.i.i.i.i.i.",
"i.i.i.i.i.i.q.q.w.^ g o                   ; Q 5.y.q.i.i.i.i.i.i.",
"i.i.i.i.i.i.i.i.q.y.w.=.J j < ; ; , h H ..w.y.q.i.i.i.i.i.i.i.i.",
"i.i.i.i.i.i.i.i.i.i.q.q.y.y.w.w.6.w.q.y.q.q.i.i.i.i.i.i.i.i.i.i."
};
