/* XPM */
static char *stop[] = {
/* columns rows colors chars-per-pixel */
"28 44 144 2",
"   c #010101",
".  c #0B0B0B",
"X  c gray7",
"o  c #1B1B1B",
"O  c #222222",
"+  c #2F2F2F",
"@  c #323232",
"#  c #3C3C3C",
"$  c gray26",
"%  c #494949",
"&  c #555555",
"*  c #5F5F5F",
"=  c #6F6F6F",
"-  c #717171",
";  c #7C7C7C",
":  c #9D0000",
">  c #A20000",
",  c #AB0000",
"<  c #A60C0C",
"1  c #AA0C0C",
"2  c #B30101",
"3  c #BB0000",
"4  c #A71313",
"5  c #AC1111",
"6  c #A51A1A",
"7  c #AB1D1D",
"8  c #BD1515",
"9  c #A92323",
"0  c #BB2323",
"q  c #BA2E2E",
"w  c #B13131",
"e  c #BA3030",
"r  c #B33B3B",
"t  c #C40000",
"y  c #CA0101",
"u  c #C20C0C",
"i  c #C80909",
"p  c #D30000",
"a  c #DC0101",
"s  c #D30D0D",
"d  c #C41414",
"f  c #CE1717",
"g  c #C21A1A",
"h  c #CE1D1D",
"j  c #D21B1B",
"k  c #E30404",
"l  c #CB2424",
"z  c #C32E2E",
"x  c #DC2E2E",
"c  c #C63333",
"v  c #CC3A3A",
"b  c #D63333",
"n  c #D93B3B",
"m  c #E73030",
"M  c #E33B3B",
"N  c #BA4444",
"B  c #BB4E4E",
"V  c #CA4040",
"C  c #C34E4E",
"Z  c #D04141",
"A  c #D54848",
"S  c #DC4C4C",
"D  c #CE5D5D",
"F  c #D15353",
"G  c #DF5353",
"H  c #DC5858",
"J  c #E05555",
"K  c #EF5454",
"L  c #E15E5E",
"P  c #EA5858",
"I  c #C46363",
"U  c #CC6565",
"Y  c #CA6A6A",
"T  c #D16767",
"R  c #C87070",
"E  c #D57474",
"W  c #E56363",
"Q  c #E96F6F",
"!  c #E37B7B",
"~  c #EC7D7D",
"^  c #F27979",
"/  c gray52",
"(  c #959595",
")  c gray61",
"_  c gray64",
"`  c gray66",
"'  c #B4B4B4",
"]  c gray73",
"[  c #D69292",
"{  c #D99292",
"}  c #E38585",
"|  c #EE8383",
" . c #E38B8B",
".. c #EE8989",
"X. c #F28484",
"o. c #F28989",
"O. c #E29595",
"+. c #EB9393",
"@. c #E39D9D",
"#. c #ED9999",
"$. c #F49696",
"%. c #F09D9D",
"&. c #F89B9B",
"*. c #DAA3A3",
"=. c #EDA4A4",
"-. c #E6ABAB",
";. c #EFADAD",
":. c #F4A4A4",
">. c #F9A3A3",
",. c #F3ACAC",
"<. c #F9AEAE",
"1. c #E0B3B3",
"2. c #E5BBBB",
"3. c #EABBBB",
"4. c #F5B4B4",
"5. c #F4BABA",
"6. c #FBBCBC",
"7. c gray77",
"8. c gray80",
"9. c #DDDDDD",
"0. c #E6C4C4",
"q. c #EDC4C4",
"w. c #EBCCCC",
"e. c #F6C3C3",
"r. c #FCC5C5",
"t. c #F2CCCC",
"y. c #FCCACA",
"u. c #ECD2D2",
"i. c #EEDBDB",
"p. c #F0D6D6",
"a. c #FDD2D2",
"s. c #F1DBDB",
"d. c #FDDCDC",
"f. c gray89",
"g. c #EFE5E5",
"h. c #ECECEC",
"j. c #F3E4E4",
"k. c #FBE4E4",
"l. c #F3ECEC",
"z. c #F9EAEA",
"x. c #F3F0F0",
"c. c #FAF0F0",
"v. c black",
"b. c None",
/* pixels */
"b.b.b.b.b.b.b.b.h.h.h.c.c.c.z.c.c.c.h.h.b.b.b.b.b.b.b.b.",
"b.b.b.b.b.b.h.h.c.z.k.d.d.d.d.d.d.k.z.c.h.h.b.b.b.b.b.b.",
"b.b.b.b.b.h.x.k.d.a.a.a.a.a.a.a.a.a.a.a.z.z.h.b.b.b.b.b.",
"b.b.b.b.h.c.a.y.r.r.r.r.y.y.y.y.r.r.r.r.r.a.z.g.b.b.b.b.",
"b.b.b.h.z.y.6.6.4.6.y.d.z.j.z.z.k.a.e.6.6.6.r.z.h.b.b.b.",
"b.b.h.z.r.<.<.<.r.z.c.x.h.h.h.h.h.h.k.e.<.<.<.4.z.h.b.b.",
"b.b.x.r.>.>.>.r.z.h.h.b.b.b.b.b.b.h.z.4.>.:.:.:.5.z.h.b.",
"b.h.d.&.$.$.6.c.h.b.b.b.b.b.b.b.h.z.,.$.$.$.$.$.$.t.x.b.",
"b.x.<.o.o.>.z.h.b.b.b.b.b.b.b.h.z.:.o.....e.4.....%.z.h.",
"h.e.K ^ | a.h.b.b.b.b.b.b.b.h.z.:.~ ~ ~ 4.c.j...~ W ,.h.",
"h.X.k m | l.h.b.b.b.b.b.b.h.z.%.Q Q Q ;.l.h.h.:.S s L l.",
"x.P k a | x.b.b.b.b.b.b.h.l.#.W W W =.l.h.b.h.;.s y b j.",
"z.M a a =.h.b.b.b.b.b.h.l.#.J J G +.z.h.b.b.h.t.f y h w.",
"j.x a s 5.h.b.b.b.b.h.g.! j j j T z.h.b.b.b.h.i.l t d q.",
"s.x p s 3.h.b.b.b.h.l.! i y t S s.h.b.b.b.b.h.i.l t d q.",
"j.n y i =.x.b.b.h.l.} i t t A s.h.b.b.b.b.b.g.w.g 3 g w.",
"l.H y t ! h.b.h.x. .u t t Z p.h.b.b.b.b.b.b.h.-.2 2 e j.",
"h. .t t Z g.h.x.O.u 3 3 v p.h.b.b.b.b.b.b.b.x.T 2 2 D x.",
"h.q.d 3 u -.c.@.d 3 3 c w.h.b.b.b.b.b.b.b.h.w.0 2 , =.h.",
"b.l.F 3 3 V O.8 2 2 z q.h.b.b.b.b.b.b.b.h.l.U , , e i.h.",
"b.h.3.8 2 3 1 2 2 0 3.x.b.b.b.b.b.b.b.h.h.{ 1 , , [ h.b.",
"b.b.l.E 2 2 2 2 0 2.x.b.b.b.b.b.b.b.h.l.{ 5 > > B j.h.b.",
"b.b.h.g.C , , , q 2.h.h.h.h.h.h.h.l.w.I < > > w u.h.b.b.",
"b.b.b.h.u.C , , > 5 C { 2.u.u.0.*.I 7 > > : w 0.h.b.b.b.",
"b.b.b.b.h.i.Y < > > : > < 7 6 4 : : : : : B u.h.b.b.b.b.",
"b.b.b.b.b.h.h.-.N < : : : : : : : : : w [ j.h.b.b.b.b.b.",
"b.b.b.b.b.b.h.h.g.1.R r 9 6 6 9 r I *.g.x.h.b.b.b.b.b.b.",
"b.b.b.b.b.b.b.b.h.h.x.l.i.w.w.u.g.x.h.h.b.b.b.b.b.b.b.b.",
"b.b.b.b.b.b.b.b.b.b.b.b.b.b.b.b.b.b.b.b.b.b.b.b.b.b.b.b.",
"b.b.b.b.b.b.b.b.b.b.b.b.b.b.b.b.b.b.b.b.b.b.b.b.b.b.b.b.",
"b.b.b.b.b.b.b.b.b.b.b.b.b.b.b.b.b.b.b.b.b.b.b.b.b.b.b.b.",
"b.b.b.b.b.b.b.b.b.b.b.b.b.b.b.b.b.b.b.b.b.b.b.b.b.b.b.b.",
"b.b.b._ o   @ b.b.b.8.b.b.b.b.b.b.b.b.b.b.b.b.b.b.b.b.b.",
"b.b.b.X _ 9.` b.b.b.  b.b.b.b.b.b.b.b.b.b.b.b.b.b.b.b.b.",
"b.b.b.o ` b.b.b.b.      b.b.8.@   $ 9.b.b.  / . o ' b.b.",
"b.b.b.] o # ] b.b.b.  b.b.b.$ ; f.; & b.b.  / 9./ # b.b.",
"b.b.b.b.f./ O ' b.b.  b.b.b.. 9.b.f.. b.b.  b.b.f.. b.b.",
"b.b.b.b.b.b.7.X b.b.  h.b.b.  9.b.9.  b.b.  b.b.9.. b.b.",
"b.b.b.( 8.f.( O b.b.  8.b.b.$ ; f.; # b.b.  ) f.= % b.b.",
"b.b.b.# . . # 7.b.b.* . b.b.8.@   + 7.b.b.  -   + 8.b.b.",
"b.b.b.b.b.b.b.b.b.b.b.b.b.b.b.b.b.b.b.b.b.  b.b.b.b.b.b.",
"b.b.b.b.b.b.b.b.b.b.b.b.b.b.b.b.b.b.b.b.b.  b.b.b.b.b.b.",
"b.b.b.b.b.b.b.b.b.b.b.b.b.b.b.b.b.b.b.b.b.b.b.b.b.b.b.b.",
"b.b.b.b.b.b.b.b.b.b.b.b.b.b.b.b.b.b.b.b.b.b.b.b.b.b.b.b."
};
