/* XPM */
static char *stop_sel[] = {
/* columns rows colors chars-per-pixel */
"28 28 75 1",
"  c #5E0000",
". c #630101",
"X c #6C0000",
"o c #650B0B",
"O c #740101",
"+ c #7A0202",
"@ c #740C0C",
"# c #7D0C0C",
"$ c #661313",
"% c #6F1313",
"& c #6C1D1D",
"* c #731414",
"= c #7C1313",
"- c #741D1D",
"; c #6B2323",
": c #7B2525",
"> c #732D2D",
", c #7C3434",
"< c #753A3A",
"1 c #7B3D3D",
"2 c #774141",
"3 c #7F5555",
"4 c #830101",
"5 c #880202",
"6 c #831C1C",
"7 c #8B1D1D",
"8 c #822323",
"9 c #882323",
"0 c #842D2D",
"q c #863434",
"w c #8E3333",
"e c #893B3B",
"r c #874141",
"t c #8B4444",
"y c #874848",
"u c #8B4B4B",
"i c #914C4C",
"p c #815454",
"a c #8C5353",
"s c #855C5C",
"d c #8D5B5B",
"f c #915252",
"g c #925B5B",
"h c #866363",
"j c #8D6262",
"k c #8B6C6C",
"l c #936363",
"z c #946B6B",
"x c #8D7373",
"c c #8E7979",
"v c #967474",
"b c #987777",
"n c #957B7B",
"m c #987E7E",
"M c #948282",
"N c #988484",
"B c #9B8C8C",
"V c #9D9292",
"C c #A09696",
"Z c #A39B9B",
"A c #A6A1A1",
"S c #AAA4A4",
"D c #AEAAAA",
"F c #B0ADAD",
"G c #B4B2B2",
"H c #B8B6B6",
"J c #BAB9B9",
"K c #C5C5C5",
"L c #CDCDCD",
"P c gray83",
"I c gainsboro",
"U c #E4E4E4",
"Y c gray91",
"T c black",
"R c None",
/* pixels */
"RRRRRRRRYPJSCVVVAGPYRRRRRRRR",
"RRRRRRYPSVNNNNNNNNBZKURRRRRR",
"RRRRRUFBmmmmmMMmnMmmBSPRRRRR",
"RRRRIZmbbbbbbbbbbbvbvmVLRRRR",
"RRRICbzvzvmNBVVVNmvvvzvBLRRR",
"RRUZvzzzbBDLUUUUPGBvlzzvVIRR",
"RRGblglbZPYRRRRRRPBzlllgzAUR",
"RPNgggvSURRRRRRRIClgggggdbKR",
"RFlfflCURRRRRRRIClfffvzaagCU",
"IbwtinPRRRRRRRICguuuzSBaurlL",
"Ki57fAYRRRRRRUZgtttzDUJg04qG",
"Gw55uKRRRRRRUZdeeegZURPk#+6V",
"Z954lPRRRRRUAdqqqdZURRUb#O=n",
"V74+vIRRRRUSt==#rCIRRRYB=O@v",
"B6+4zIRRRUSy+++0BIRRRRYB*O@v",
"Z8++lPRRYFu+OO8BIRRRRRUn@X*n",
"Fq+OtKRYGp+OO:NIRRRRRRPjXX:V",
"KuOO:ZYHa@OX:nPRRRRRRRH1XX<D",
"Ib@O@hDd@XX:bPRRRRRRRIn%XXsL",
"RD,XX:s@XX-vLRRRRRRRYD1..-BU",
"RPk@XXXXX*xLRRRRRRRUGao.opKR",
"RRGrXXXX%kKRRRRRRRIDpo..>ZUR",
"RRUV>X..-kDLIUUUPGc<o  &nPRR",
"RRRIN>...o>pxMMcs<$.  &xLRRR",
"RRRRIB1o . . $$o.   o>cLRRRR",
"RRRRRUDh;o         &3CPRRRRR",
"RRRRRRUPZk2;$$$$;<hVKYRRRRRR",
"RRRRRRRRYPJZMccMVGLURRRRRRRR"
};
