/* XPM */
static char *stop_sel[] = {
/* columns rows colors chars-per-pixel */
"32 32 128 2",
"   c #5E0000",
".  c #630101",
"X  c #6C0101",
"o  c #650C0C",
"O  c #690B0B",
"+  c #740101",
"@  c #7A0000",
"#  c #730C0C",
"$  c #7D0B0B",
"%  c #6D1111",
"&  c #671A1A",
"*  c #6A1B1B",
"=  c #701212",
"-  c #7A1212",
";  c #731A1A",
":  c #7D1B1B",
">  c #6D2323",
",  c #6E2C2C",
"<  c #702727",
"1  c #7A2727",
"2  c #7A2828",
"3  c #733232",
"4  c #7D3131",
"5  c #773B3B",
"6  c #7C3E3E",
"7  c #774444",
"8  c #7A4242",
"9  c #7C4A4A",
"0  c #830000",
"q  c #880101",
"w  c #841212",
"e  c #8C1313",
"r  c #891818",
"t  c #832222",
"y  c #8D2424",
"u  c #852C2C",
"i  c #882C2C",
"p  c #843333",
"a  c #8A3636",
"s  c #833B3B",
"d  c #893B3B",
"f  c #834444",
"g  c #8B4444",
"h  c #824E4E",
"j  c #8D4D4D",
"k  c #904242",
"l  c #924C4C",
"z  c #835252",
"x  c #8F5353",
"c  c #835A5A",
"v  c #8B5C5C",
"b  c #925454",
"n  c #925B5B",
"m  c #846464",
"M  c #8C6363",
"N  c #8B6C6C",
"B  c #946262",
"V  c #956B6B",
"C  c #986F6F",
"Z  c #8E7575",
"A  c #967373",
"S  c #987575",
"D  c #957C7C",
"F  c #987B7B",
"G  c #968383",
"H  c #988383",
"J  c #968A8A",
"K  c #9A8C8C",
"L  c #9D9494",
"P  c #9E9999",
"I  c #A09393",
"U  c #A29C9C",
"Y  c #A6A2A2",
"T  c #A9A5A5",
"R  c #ADABAB",
"E  c #B4B3B3",
"W  c #B8B7B7",
"Q  c #BBBBBB",
"!  c #C3C3C3",
"~  c #CBCBCB",
"^  c #D2D2D2",
"/  c gray86",
"(  c #E4E4E4",
")  c #E9E9E9",
"_  c None",
"`  c black",
"'  c black",
"]  c black",
"[  c black",
"{  c black",
"}  c black",
"|  c black",
" . c black",
".. c black",
"X. c black",
"o. c black",
"O. c black",
"+. c black",
"@. c black",
"#. c black",
"$. c black",
"%. c black",
"&. c black",
"*. c black",
"=. c black",
"-. c black",
";. c black",
":. c black",
">. c black",
",. c black",
"<. c black",
"1. c black",
"2. c black",
"3. c black",
"4. c black",
"5. c black",
"6. c black",
"7. c black",
"8. c black",
"9. c black",
"0. c black",
"q. c black",
"w. c black",
"e. c black",
"r. c black",
"t. c black",
"y. c black",
"u. c black",
/* pixels */
"_ _ _ _ _ _ _ _ _ _ ( ^ W T U P P P U E ~ ( _ _ _ _ _ _ _ _ _ _ ",
"_ _ _ _ _ _ _ _ ( ! U L K H H H J H K H K P W / _ _ _ _ _ _ _ _ ",
"_ _ _ _ _ _ ) ~ U K H F H F H F H F F H D D J L Q ( _ _ _ _ _ _ ",
"_ _ _ _ _ ( E K F F F F F F F F F F F F F F F F K T / _ _ _ _ _ ",
"_ _ _ _ ( T H S A S S A S F F D F F F S S S S S S D P / _ _ _ _ ",
"_ _ _ ( T H C A C C A F K U T E E R U K D A A V C V F P / _ _ _ ",
"_ _ _ W F V V V V A K R ^ ( _ _ _ _ ) / E L V V V B V F T ( _ _ ",
"_ _ ^ K B B B n S U ^ ) _ _ _ _ _ _ _ ) W G B B B B B B D Q _ _ ",
"_ ( U C n n n S U ( _ _ _ _ _ _ _ _ ) Q G n n n v n n v B K / _ ",
"_ ~ F b b b B I / _ _ _ _ _ _ _ _ ) Q G n b b x B C x x x A W _ ",
"_ T b l l b G ~ _ _ _ _ _ _ _ _ _ ! H b j j j B L L v j j j K ( ",
"/ F e y k B Y ) _ _ _ _ _ _ _ _ ! G b g j g n L ^ W V g d w M ! ",
"~ n q q r V ! _ _ _ _ _ _ _ _ ~ H j d g d x K ~ _ / J i $ @ g R ",
"E k 0 q w G ( _ _ _ _ _ _ _ ~ J j d a d j J ~ _ _ ) U t @ @ u U ",
"T a q 0 r I ) _ _ _ _ _ _ ^ H j i p i f G ~ _ _ _ _ E s + @ : J ",
"U i q 0 i Y _ _ _ _ _ _ ^ H i $ $ $ 1 F ! _ _ _ _ _ Q g + + - D ",
"Y i @ @ i U _ _ _ _ _ ^ J i @ @ @ : N ! _ _ _ _ _ _ Q f + + - G ",
"T a @ @ t L ) _ _ _ / K p + @ + - V Q ) _ _ _ _ _ _ E s X + ; J ",
"E f @ @ $ G ( _ _ / L p + + + - N Q ) _ _ _ _ _ _ ) U 1 X + 2 U ",
"! v @ + @ v ~ _ / P s + + + # m W ) _ _ _ _ _ _ _ / F = X X 6 R ",
"/ F - + + p Y / U f + X + # v E ( _ _ _ _ _ _ _ _ W h X X X v ~ ",
"_ T 4 + + # N P f + + X # c R ) _ _ _ _ _ _ _ _ / J * X X * J / ",
"_ ~ M + + X 2 f X + X X x R ( _ _ _ _ _ _ _ _ ) T 8 . X . 9 W _ ",
"_ ) U 4 X X X X X X X z T ( _ _ _ _ _ _ _ _ ( R c O X . * G / _ ",
"_ _ ~ A % X X X X O f T ( _ _ _ _ _ _ _ _ / T c O . . . c Q _ _ ",
"_ _ _ W c O . X X % N T ^ ( ) _ _ _ ) / W G 7 o . . . 8 Y ( _ _ ",
"_ _ _ ( T h O . . . O 5 N K T E E R P Z 9 &   . . . 5 L / _ _ _ ",
"_ _ _ _ ( Y c O . . . . o & 3 5 5 3 > o   .     . 7 L ^ _ _ _ _ ",
"_ _ _ _ _ ( E N , . .                         & c Y / _ _ _ _ _ ",
"_ _ _ _ _ _ ) ! P 9 > o                   * 9 G Q ( _ _ _ _ _ _ ",
"_ _ _ _ _ _ _ _ ( ! P N 9 3 > & & > , 7 m J W / _ _ _ _ _ _ _ _ ",
"_ _ _ _ _ _ _ _ _ _ ( ^ W Y K J J J U E ~ ( _ _ _ _ _ _ _ _ _ _ "
};
