/* XPM */
static char *stop_sel[] = {
/* columns rows colors chars-per-pixel */
"28 28 78 1",
"  c #5E0000",
". c #630101",
"X c #6C0000",
"o c #650B0B",
"O c #740101",
"+ c #7A0202",
"@ c #740C0C",
"# c #7D0C0C",
"$ c #661313",
"% c #6F1313",
"& c #6C1D1D",
"* c #731414",
"= c #7C1313",
"- c #741D1D",
"; c #6B2323",
": c #7C2626",
"> c #732D2D",
", c #7F2B2B",
"< c #743030",
"1 c #7D3131",
"2 c #7C3C3C",
"3 c #7A4343",
"4 c #830101",
"5 c #880202",
"6 c #831C1C",
"7 c #8B1D1D",
"8 c #822323",
"9 c #882323",
"0 c #842E2E",
"q c #863333",
"w c #8E3434",
"e c #893B3B",
"r c #874141",
"t c #8B4343",
"y c #824848",
"u c #8C4B4B",
"i c #914B4B",
"p c #8E5252",
"a c #865E5E",
"s c #8B5B5B",
"d c #915252",
"f c #925B5B",
"g c #8E6060",
"h c #8E6B6B",
"j c #936363",
"k c #956A6A",
"l c #9B6F6F",
"z c #967373",
"x c #987575",
"c c #967979",
"v c #987D7D",
"b c #9A8383",
"n c #9C8B8B",
"m c #A18282",
"M c #A18C8C",
"N c #A88C8C",
"B c #A39393",
"V c #A89292",
"C c #A69A9A",
"Z c #AA9D9D",
"A c #A7A0A0",
"S c #ACA3A3",
"D c #ADA8A8",
"F c #B1A5A5",
"G c #B3ABAB",
"H c #B7B1B1",
"J c #BAB4B4",
"K c #BDB9B9",
"L c #C1BEBE",
"P c #C4C2C2",
"I c #C8C7C7",
"U c #CBCACA",
"Y c #D5D5D5",
"T c gainsboro",
"R c #E4E4E4",
"E c gray91",
"W c black",
"Q c None",
/* pixels */
"QQQQQQQQERUKDAADHITEQQQQQQQQ",
"QQQQQQETKCnbbbbbbnBHTEQQQQQQ",
"QQQQQRPBbvvvvvvvvvvvnKTQQQQQ",
"QQQQRGbxxxcxcccccxcxcvDTQQQQ",
"QQQRFcllzxvnCDDABvzzzkxCTQQQ",
"QQEHxkkkzBPTREERTICxkkklSTQQ",
"QQIvfjjvHTEQQQQQQTAkfjjjlJEQ",
"QTBffflLEQQQQQQQRGjffsfssvYQ",
"QPjidjGEQQQQQQQRGjpddzkppfGR",
"RNwiiMTQQQQQQQRGjuuuzKZpuexT",
"Yf57dKEQQQQQQRGftttkKEIj04eI",
"Pw55iYQQQQQQRJjeeegKRQRx#+6F",
"H954lTQQQQQEKfqqqpHRQQEV#O=M",
"F74+mRQQQQEKu==#rGRQQQEF=O#b",
"F6+4mRQQQEKu+++0FRQQQQEF*O@b",
"H8++xTQQEPp+OO,SRQQQQQEB@O*M",
"PqO+uYQEIf+OO:ZRQQQQQQTzXX-G",
"YsOO:HEUs@XO:BTQQQQQQQUeXX2P",
"RN@O@xPj@XO-MTQQQQQQQRB%X.hT",
"QL1OX:a@XX-MTQQQQQQQEL2..-FE",
"QTc@XXXXX&bTQQQQQQQEIaoX.aYQ",
"QQIyX.XX%cYQQQQQQQRKao..>HEQ",
"QQEG>X..-zLTREEETIB2.. &BTQQ",
"QQQRZ>...o>abCCnh2$   &bTQQQ",
"QQQQRF3.. .  $$o     <BTQQQQ",
"QQQQQRLz>          &gHTQQQQQ",
"QQQQQQETJv3>$$$$;3hDYEQQQQQQ",
"QQQQQQQQETIHCnnBDUTEQQQQQQQQ"
};
