/* XPM */
static char *stop_dis[] = {
/* columns rows colors chars-per-pixel */
"28 28 73 1",
"  c #9D5E5E",
". c #9E6161",
"X c #A26262",
"o c #AA6666",
"O c #A66B6B",
"+ c #AC6B6B",
"@ c #B36B6B",
"# c #B96F6F",
"$ c #AB7373",
"% c #B67070",
"& c #BD7272",
"* c #B17E7E",
"= c #BB7A7A",
"- c #C47575",
"; c #C37C7C",
": c #CA7A7A",
"> c #D17D7D",
", c #B38383",
"< c #BB8282",
"1 c #BB8D8D",
"2 c #C28383",
"3 c #CC8686",
"4 c #C68B8B",
"5 c #CD8989",
"6 c #D38484",
"7 c #DC8484",
"8 c #D28989",
"9 c #C39494",
"0 c #CB9292",
"q c #C49D9D",
"w c #D39696",
"e c #DA9595",
"r c #D39E9E",
"t c #DC9999",
"y c #E38A8A",
"u c #E79E9E",
"i c #CBA3A3",
"p c #D1A7A7",
"a c #DCA5A5",
"s c #D5AEAE",
"d c #D6BBBB",
"f c #D9BCBC",
"g c #E0AAAA",
"h c #E4B1B1",
"j c #EFB1B1",
"k c #E3BBBB",
"l c #EABCBC",
"z c #DCC4C4",
"x c #DFCACA",
"c c #E2C3C3",
"v c #EDC4C4",
"b c #E2CDCD",
"n c #EDCBCB",
"m c #F1C5C5",
"M c #F2CCCC",
"N c #E6D4D4",
"B c #EBD4D4",
"V c #E7D9D9",
"C c #EBDCDC",
"Z c #F4D3D3",
"A c #F9D6D6",
"S c #F5DBDB",
"D c #F9DCDC",
"F c #EDE3E3",
"G c #ECECEC",
"H c #F2E4E4",
"J c #FBE4E4",
"K c #F2EDED",
"L c #FCEBEB",
"P c #F3F1F1",
"I c #FBF2F2",
"U c black",
"Y c None",
/* pixels */
"YYYYYYYYGGPIIIIIIPGGYYYYYYYY",
"YYYYYYGGPIIIIIIIIIIIGGYYYYYY",
"YYYYYGPIILLLLLILLLLLIPGYYYYY",
"YYYYGILJLJLJLLJLLJLJLLIGYYYY",
"YYYGILJJJJLIIIPIILJDDJJIGYYY",
"YYGPJDDDJLPGGGGGGPIJSASJIGYY",
"YYPJAAAJPGGYYYYYYGIDZZZZHPGY",
"YGLZZZJPGYYYYYYYGKSMZMMMMJGY",
"YKDmMZPGYYYYYYYGKZmmmHSmvZPG",
"GJjmmLGYYYYYYYGPZlvlDPKvlhZG",
"KmyumKGYYYYYYGPMllkZPGPBa6gP",
"Ph77mKYYYYYYGPnhhhnPGYGB3:wK",
"Pu67nGYYYYYGKngganKGYYGF6-5H",
"Ku>6SGYYYYGPk886hKGYYYGF5-:C",
"Ke>6CGYYYGPk::-aKGYYYYGF3&;C",
"Kt:>BGYYGKk:--rHGYYYYYGF;#2H",
"Pa--kKYGPc;-&wHGYYYYYYGb#@4K",
"Kc--wKGGc-&&0FGYYYYYYYPp@@rG",
"GC2-=nPb-%%4FGYYYYYYYGF=+@cG",
"YKr##0c=#@4CGYYYYYYYGPioo<GG",
"YGB=@@%@@<VGYYYYYYYGKf+oodGY",
"YYKs@@@@=VKYYYYYYYGPd+oX9GGY",
"YYGK9ooo<NPGGGGGGPCqOX.*FGYY",
"YYYGF9ooo$1dNCFVzq$  .*NGYYY",
"YYYYGGiOo.XX.$$OX   .1FGYYYY",
"YYYYYGKx<O   ..   .*dPGYYYYY",
"YYYYYYGGGNi,$$OO11zFGGYYYYYY",
"YYYYYYYYGGPGFCCFGGGGYYYYYYYY"
};
