/* XPM */
static char *stop_dis[] = {
/* columns rows colors chars-per-pixel */
"28 28 111 2",
"   c #AA8888",
".  c #AC8A8A",
"X  c #AD8A8A",
"o  c #AE8C8C",
"O  c #B08D8D",
"+  c #B38F8F",
"@  c #B49090",
"#  c #B59393",
"$  c #B69797",
"%  c #B89393",
"&  c #B99494",
"*  c #BB9696",
"=  c #BA9797",
"-  c #B79898",
";  c #BD9A9A",
":  c #BD9B9B",
">  c #BC9D9D",
",  c #C29B9B",
"<  c #C39D9D",
"1  c #C59D9D",
"2  c #C3A7A7",
"3  c #C8A0A0",
"4  c #CBA3A3",
"5  c #CCA4A4",
"6  c #C7ADAD",
"7  c #CCABAB",
"8  c #CFAAAA",
"9  c #CDAFAF",
"0  c #D2A8A8",
"q  c #D5AAAA",
"w  c #D0ACAC",
"e  c #D7ACAC",
"r  c #D9ADAD",
"t  c #CDB3B3",
"y  c #CEB6B6",
"u  c #D1B0B0",
"i  c #D5B1B1",
"p  c #D6B5B5",
"a  c #DCB0B0",
"s  c #DFB4B4",
"d  c #D3BABA",
"f  c #D4BBBB",
"g  c #D6BCBC",
"h  c #D4BFBF",
"j  c #DBBBBB",
"k  c #E2B6B6",
"l  c #E3BABA",
"z  c #E6B8B8",
"x  c #E7BFBF",
"c  c #E9BDBD",
"v  c #EBBCBC",
"b  c #DFC0C0",
"n  c #DAC4C4",
"m  c #DBC8C8",
"M  c #DEC9C9",
"N  c #E7C6C6",
"B  c #EDC0C0",
"V  c #E2C9C9",
"C  c #E1CACA",
"Z  c #E6CACA",
"A  c #E6CFCF",
"S  c #EBC8C8",
"D  c #EACBCB",
"F  c #EFCCCC",
"G  c #F4C3C3",
"H  c #F0CACA",
"J  c #F4CECE",
"K  c #FAC9C9",
"L  c #EAD5D5",
"P  c #EBDCDC",
"I  c #EDDEDE",
"U  c #F1D4D4",
"Y  c #F5D4D4",
"T  c #F6D7D7",
"R  c #FAD5D5",
"E  c #FED6D6",
"W  c #F7D9D9",
"Q  c #FBDFDF",
"!  c #EDE1E1",
"~  c #EAEAEA",
"^  c gray92",
"/  c #ECECEC",
"(  c #F7E1E1",
")  c #F2E7E7",
"_  c #F7E6E6",
"`  c #F9E2E2",
"'  c #FEE1E1",
"]  c #F8E5E5",
"[  c #F8E7E7",
"{  c #FFE5E5",
"}  c #F3E9E9",
"|  c #F7EFEF",
" . c #F8E9E9",
".. c #F8EBEB",
"X. c #FFEAEA",
"o. c #FEEDED",
"O. c #F1F1F1",
"+. c gray95",
"@. c #F3F3F3",
"#. c gray96",
"$. c gray97",
"%. c #FAF0F0",
"&. c #FEF3F3",
"*. c #FAF6F6",
"=. c #FEF6F6",
"-. c #FBFBFB",
";. c #FEFAFA",
":. c gray99",
">. c #FFFDFD",
",. c black",
"<. c None",
/* pixels */
"<.<.<.<.<.<.<.<.^ / +.$.$.-.:.$.$.+./ ^ <.<.<.<.<.<.<.<.",
"<.<.<.<.<.<.^ / $.-.>.>.>.>.>.>.>.>.:.$./ ^ <.<.<.<.<.<.",
"<.<.<.<.<./ $.:.>.>.>.>.>.>.>.>.>.>.>.>.>.$./ <.<.<.<.<.",
"<.<.<.<./ $.-.>.>.>.>.>.>.>.>.>.>.>.>.>.>.>.-./ <.<.<.<.",
"<.<.<./ -.>.>.>.>.;.>.>.:.$.$.-.>.>.>.>.>.>.>.>./ <.<.<.",
"<.<.^ $.>.>.>.>.>.-.$./ ^ ^ ^ ^ / +.:.>.>.>.>.>.-./ <.<.",
"<.<.+.>.>.>.>.;.$./ ^ <.<.<.<.<.<./ -.>.>.>.>.;.>.$.^ <.",
"<./ -.>.>.;.>.$.^ <.<.<.<.<.<.<./ $.>.;.=.=.=.=.=.>./ <.",
"<.+.>.=.=.>.$.^ <.<.<.<.<.<.<./ $.>.&.&.&.>.>.o.&.=.$./ ",
"^ -.{ &.&.>./ <.<.<.<.<.<.<./ $.;.X.X.X.>.$.-.o.X.' =./ ",
"/ &.K E &.+.^ <.<.<.<.<.<.^ $.=.{ { ' ;.+.^ +.=.Y x T +.",
"+.' G G ..| <.<.<.<.<.<.^ $.&.Q Q Q =.$.^ <.^ *.z a D $.",
"$.R B G *./ <.<.<.<.<.^ $.&.T T U &.$.^ <.<./ $.z a l :.",
"*.J c c *.^ <.<.<.<.^ $.` x x x Q $.^ <.<.<.^ $.l e a :.",
"$.H z c *.^ <.<.<.^ $.( s a r F $.^ <.<.<.<.^ $.j 0 i -.",
"$.H k k &./ <.<.^ +.] a e e D -./ <.<.<.<.<./ $.e 5 e -.",
"+.U a a ( / <./ +._ a e e N :.^ <.<.<.<.<.<./ ..4 3 d *.",
"/ ] e e N $.^ +.] e 5 5 j -./ <.<.<.<.<.<.<.+.A < < V +.",
"/ *.a 0 e | +...w 5 4 j >./ <.<.<.<.<.<.<.^ -.8 , < _ / ",
"<.@.Z 5 4 b _ 0 5 1 p =./ <.<.<.<.<.<.<.^ +.M * * 9 $.^ ",
"<./ %.8 4 1 4 1 < t | +.<.<.<.<.<.<.<./ +.I ; * * P / <.",
"<.<.+.L , < < ; 8 &./ <.<.<.<.<.<.<.^ @.P ; + # f $.^ <.",
"<.<.^ $.b * ; * 9 | $./ ^ ^ ^ ^ / +.*.n $ + + 2 *./ <.<.",
"<.<.<.^ -.g % # # ; d P | *.$.%.! n ; X + X 2 | / <.<.<.",
"<.<.<.<./ $.M * # + + + $ ; > - + . . X o y *./ <.<.<.<.",
"<.<.<.<.<.^ +.) t # X X X . X . X . X 2 P $./ <.<.<.<.<.",
"<.<.<.<.<.<.^ / $.} n 6 > $ - - 2 g ! $./ / <.<.<.<.<.<.",
"<.<.<.<.<.<.<.<.^ / +.$.-.*.*.*.$.+.^ ^ <.<.<.<.<.<.<.<."
};
