/* XPM */
static char *stop[] = {
/* columns rows colors chars-per-pixel */
"28 28 118 2",
"   c #9D0000",
".  c #A20000",
"X  c #AB0000",
"o  c #A60C0C",
"O  c #AA0C0C",
"+  c #B30101",
"@  c #BB0000",
"#  c #A71313",
"$  c #AC1111",
"%  c #A51A1A",
"&  c #AB1D1D",
"*  c #BD1515",
"=  c #A92323",
"-  c #BB2323",
";  c #BA2E2E",
":  c #B13131",
">  c #BA3030",
",  c #B33B3B",
"<  c #C40000",
"1  c #CA0101",
"2  c #C20C0C",
"3  c #C80909",
"4  c #D30000",
"5  c #DC0101",
"6  c #D30D0D",
"7  c #C41414",
"8  c #CE1717",
"9  c #C21A1A",
"0  c #CE1D1D",
"q  c #D21B1B",
"w  c #E30404",
"e  c #CB2424",
"r  c #DC2E2E",
"t  c #C63333",
"y  c #CC3A3A",
"u  c #D63333",
"i  c #D93B3B",
"p  c #E73030",
"a  c #E33B3B",
"s  c #BA4444",
"d  c #BB4E4E",
"f  c #CA4040",
"g  c #C34E4E",
"h  c #D04141",
"j  c #D54848",
"k  c #DC4C4C",
"l  c #CE5D5D",
"z  c #D15353",
"x  c #DF5353",
"c  c #DC5858",
"v  c #E05555",
"b  c #EF5454",
"n  c #E15E5E",
"m  c #EA5858",
"M  c #C46363",
"N  c #CC6565",
"B  c #CA6A6A",
"V  c #D16767",
"C  c #C87070",
"Z  c #D57474",
"A  c #E56363",
"S  c #E96F6F",
"D  c #E37B7B",
"F  c #EC7D7D",
"G  c #F27979",
"H  c #D69292",
"J  c #D99292",
"K  c #E38585",
"L  c #EE8383",
"P  c #E38B8B",
"I  c #EE8989",
"U  c #F28484",
"Y  c #F28989",
"T  c #E29595",
"R  c #E39D9D",
"E  c #ED9999",
"W  c #F49696",
"Q  c #F09D9D",
"!  c #F89B9B",
"~  c #DAA3A3",
"^  c #DFABAB",
"/  c #EDA4A4",
"(  c #E6ABAB",
")  c #EFADAD",
"_  c #F4A4A4",
"`  c #F9A3A3",
"'  c #F3ACAC",
"]  c #F9AEAE",
"[  c #E0B3B3",
"{  c #EDB1B1",
"}  c #E5BBBB",
"|  c #EABBBB",
" . c #F5B4B4",
".. c #F4BABA",
"X. c #FBBCBC",
"o. c #E6C4C4",
"O. c #EDC4C4",
"+. c #EBCCCC",
"@. c #F6C3C3",
"#. c #FCC5C5",
"$. c #F2CCCC",
"%. c #FCCACA",
"&. c #ECD2D2",
"*. c #EEDBDB",
"=. c #F0D6D6",
"-. c #FDD2D2",
";. c #F1DBDB",
":. c #FDDCDC",
">. c #EFE5E5",
",. c #ECECEC",
"<. c #F3E4E4",
"1. c #FBE4E4",
"2. c #F3ECEC",
"3. c #F9EAEA",
"4. c #F3F0F0",
"5. c #FAF0F0",
"6. c black",
"7. c None",
/* pixels */
"7.7.7.7.7.7.7.7.,.,.4.4.5.3.5.5.5.4.,.,.7.7.7.7.7.7.7.7.",
"7.7.7.7.7.7.,.,.4.3.1.:.:.:.:.:.:.1.3.5.,.,.7.7.7.7.7.7.",
"7.7.7.7.7.,.4.1.-.-.-.%.-.-.-.-.%.-.-.-.1.4.,.7.7.7.7.7.",
"7.7.7.7.,.5.-.%.%.%.%.#.%.%.%.%.#.%.%.%.%.%.3.,.7.7.7.7.",
"7.7.7.,.3.%.X.X.X.@.%.:.1.3.3.3.1.-.X.X.X...#.1.4.7.7.7.",
"7.7.,.2.#.] ] ] #.1.4.,.,.,.,.,.,.4.3.@.] ] ]  .3.,.7.7.",
"7.7.4.#.` ` ` %.3.,.,.7.7.7.7.7.7.,.1. ._ _ _ _ ..2.,.7.",
"7.,.:.! W W X.2.,.7.7.7.7.7.7.7.,.<.] W W W W W W $.2.7.",
"7.2.] U Y _ 3.,.7.7.7.7.7.7.7.,.<.' Y Y I X. .I I E 3.,.",
",.@.b G U -.,.7.7.7.7.7.7.7.,.3.Q F F F ..4.<.I F A ) ,.",
",.Y w p U 2.,.7.7.7.7.7.7.,.2.E S S S ' 2.,.4./ k 6 n 2.",
"4.m w 5 L ,.7.7.7.7.7.7.,.3.E A A A / 2.,.7.,.{ 6 1 u <.",
"3.a 5 5 ) ,.7.7.7.7.7.,.2.E v x v W 3.,.7.7.,.+.8 < 0 $.",
";.r 4 6 ..,.7.7.7.7.,.2.D q q q V 3.,.7.7.7.,.=.e < 7 O.",
"<.r 4 6 | ,.7.7.7.,.2.D 3 1 < k ;.,.7.7.7.7.,.;.e @ 7 @.",
"<.i 4 3 / ,.7.7.,.2.K 3 < < j ;.,.7.7.7.7.7.,.+.9 @ 9 +.",
"4.c 1 < D 4.7.,.2.P 2 < < f =.,.7.7.7.7.7.7.,.( O @ t <.",
",.P < < h <.,.,.T 2 @ @ y =.,.7.7.7.7.7.7.7.4.V + + l 2.",
",.O.7 @ 2 ( 4.R 7 @ @ t +.2.7.7.7.7.7.7.7.,.+.- X + R ,.",
"7.2.z @ @ f T * + + t O.,.7.7.7.7.7.7.7.,.2.N X X > *.,.",
"7.,.[ * + + O @ + - o.,.7.7.7.7.7.7.7.,.,.J O X O J ,.7.",
"7.7.2.Z + + X + - | ,.7.7.7.7.7.7.7.,.2.J $ . . d <.,.7.",
"7.7.,.<.g X X X ; } 2.,.,.,.,.,.,.2.+.M o . . : +.,.7.7.",
"7.7.7.,.=.g X X X $ d H } &.&.o.~ M & .   . : o.,.7.7.7.",
"7.7.7.7.,.;.B o . . . . # % & # .         d &.4.7.7.7.7.",
"7.7.7.7.7.,.2.^ s o                   : H <.,.7.7.7.7.7.",
"7.7.7.7.7.7.,.,.>.[ C s = % % = , M ~ >.,.,.7.7.7.7.7.7.",
"7.7.7.7.7.7.7.7.,.,.4.>.&.+.+.&.>.4.,.,.7.7.7.7.7.7.7.7."
};
