/* XPM */
static char *tab_new_sel[] = {
/* columns rows colors chars-per-pixel */
"32 32 256 2",
"   c #3A6D0C",
".  c #3F740E",
"X  c #3A6915",
"o  c #3D661A",
"O  c #3C6918",
"+  c #3E6A1C",
"@  c #477714",
"#  c #43701D",
"$  c #43731C",
"%  c #48741D",
"&  c #4C7A1D",
"*  c #426B22",
"=  c #466A29",
"-  c #47692C",
";  c #4F772C",
":  c #517D28",
">  c #4C6F30",
",  c #4D7131",
"<  c #4F7135",
"1  c #54733C",
"2  c #566A4F",
"3  c #587740",
"4  c #5C7947",
"5  c #5D7947",
"6  c #5F7D45",
"7  c #5F734F",
"8  c #5C7351",
"9  c #637555",
"0  c #617851",
"q  c #677C56",
"w  c #6A7F59",
"e  c #606E60",
"r  c #61646A",
"t  c #626B68",
"y  c #687660",
"u  c #6D7C61",
"i  c #696B73",
"p  c #686B74",
"a  c #696B74",
"s  c #6A6D75",
"d  c #6F7B70",
"f  c #6E7379",
"g  c #787F76",
"h  c #70737D",
"j  c #777A7C",
"k  c #797A7D",
"l  c #7A7B7D",
"z  c #797A7E",
"x  c #797A7F",
"c  c #7A7A7E",
"v  c #7A7B7F",
"b  c #7B7C7F",
"n  c #7C7C7F",
"m  c #51811A",
"M  c #56891C",
"N  c #598B1F",
"B  c #578326",
"V  c #5E8825",
"C  c #5C8629",
"Z  c #5E8535",
"A  c #628F26",
"S  c #648F27",
"D  c #678C2C",
"F  c #679129",
"G  c #68922A",
"H  c #6E942F",
"J  c #678F37",
"K  c #648E3A",
"L  c #709531",
"P  c #648641",
"I  c #658844",
"U  c #648944",
"Y  c #688E43",
"T  c #628248",
"R  c #65824D",
"E  c #67844E",
"W  c #6D8850",
"Q  c #6F8952",
"!  c #6D8E50",
"~  c #6E8E50",
"^  c #6E8F51",
"/  c #6D8658",
"(  c #6E8958",
")  c #6E8B5B",
"_  c #718A54",
"`  c #738F54",
"'  c #718A5C",
"]  c #718B5D",
"[  c #769158",
"{  c #74905B",
"}  c #7B8D65",
"|  c #7A8B6D",
" . c #768270",
".. c #86927C",
"X. c #87947D",
"o. c #8BA07A",
"O. c #777B83",
"+. c #7C7C80",
"@. c #7C7D80",
"#. c #7D7D81",
"$. c #7D7E81",
"%. c #7D7E82",
"&. c #7E7F82",
"*. c #7F7F82",
"=. c #797C86",
"-. c #7C7F86",
";. c #7F8082",
":. c #7F8083",
">. c #808083",
",. c #808183",
"<. c #808284",
"1. c #818285",
"2. c #828284",
"3. c #828285",
"4. c #828385",
"5. c #838385",
"6. c #838486",
"7. c #848486",
"8. c #848586",
"9. c #848587",
"0. c #858587",
"q. c #858688",
"w. c #868688",
"e. c #868789",
"r. c #888889",
"t. c #88898A",
"y. c #89898B",
"u. c #898A8B",
"i. c #8A8A8B",
"p. c #8A8B8C",
"a. c #8B8B8C",
"s. c #8B8B8F",
"d. c #8B8C8D",
"f. c #8C8C8D",
"g. c #8C8C8E",
"h. c #8C8D8E",
"j. c #8D8D8E",
"k. c #8C8C8F",
"l. c #8E8E8F",
"z. c #8E8F8F",
"x. c #8E9588",
"c. c #828690",
"v. c #838690",
"b. c #838791",
"n. c #868991",
"m. c #8A8C93",
"M. c #8F8F90",
"N. c #8C8E92",
"B. c #909091",
"V. c #919192",
"C. c #919292",
"Z. c #929293",
"A. c #939394",
"S. c #939494",
"D. c #949496",
"F. c #979897",
"G. c #979A97",
"H. c gray60",
"J. c #9B9B9B",
"K. c #9B9B9D",
"L. c #9C9C9E",
"P. c gray62",
"I. c #A3AD9B",
"U. c gray64",
"Y. c #A3A4A6",
"T. c #A9A9A9",
"R. c #AFAFAF",
"E. c #A9ABB0",
"W. c #B3B4B6",
"Q. c gray71",
"!. c #B5B5B7",
"~. c #B5B6B7",
"^. c #B5B6B8",
"/. c #B6B6B8",
"(. c #B8B8BA",
"). c gray",
"_. c #ACC29A",
"`. c #BBC0B6",
"'. c gray77",
"]. c #CDCDCD",
"[. c #CCCDCE",
"{. c #CFCFD0",
"}. c #CFCFD1",
"|. c #D0D0D1",
" X c #D0D1D2",
".X c #D1D2D3",
"XX c #D3D3D4",
"oX c gray83",
"OX c #D8D8DA",
"+X c #DDDDDD",
"@X c gray88",
"#X c #E2E2E2",
"$X c #E4E4E4",
"%X c gray90",
"&X c #E6E6E6",
"*X c #E9E9E9",
"=X c None",
"-X c black",
";X c black",
":X c black",
">X c black",
",X c black",
"<X c black",
"1X c black",
"2X c black",
"3X c black",
"4X c black",
"5X c black",
"6X c black",
"7X c black",
"8X c black",
"9X c black",
"0X c black",
"qX c black",
"wX c black",
"eX c black",
"rX c black",
"tX c black",
"yX c black",
"uX c black",
"iX c black",
"pX c black",
"aX c black",
"sX c black",
"dX c black",
"fX c black",
"gX c black",
"hX c black",
"jX c black",
"kX c black",
"lX c black",
"zX c black",
"xX c black",
"cX c black",
"vX c black",
"bX c black",
"nX c black",
"mX c black",
"MX c black",
"NX c black",
"BX c black",
"VX c black",
"CX c black",
"ZX c black",
"AX c black",
"SX c black",
"DX c black",
"FX c black",
"GX c black",
"HX c black",
"JX c black",
"KX c black",
"LX c black",
"PX c black",
"IX c black",
"UX c black",
/* pixels */
"=X=X=X=X=X=X=X=X=X=X=X=X=X=X=X=X=X=X=X=X=X=X=X=X=X=X=X=X=X=X=X=X",
"=X=X=X=X=X=X=X=X=X=X=X=X=X=X=X=X=X=X=X=X=X=X=X=X=X=X=X=X=X=X=X=X",
"=X=X=X=X=X=X=X=X=X=X=X=X=X=X=X=X=X=X=X=X=X=X=X=X=X=X=X=X=X=X=X=X",
"=X=X=X=X=X=X=X=X=X=X=X=X=X=X=X=X=X=X=X=X=X=X=X=X=X=X=X=X=X=X=X=X",
"=X=X=X=X=X=X=X=X=X=X=X=X=X=X=X=X=X=X=X=X=X=X=X=X=X=X=X=X=X=X=X=X",
"=X=X=X=X=X=X=X=X=X=X=X=X=X=X=X=X=X=X=X=X=X=X=X=X=X=X=X=X=X=X=X=X",
"=X=X=X=X=X=X=X=X=X=X=X=X=X=X=X=X=X=X=X=X=X=X=X=X=X=X=X=X=X=X=X=X",
"=X=X=X=X=X=X=X=X=X=X=X=X=X=X=X=X=X=X=X=X=X=X=X=X=X=X=X=X=X=X=X=X",
"=X=X=X=X=X=X=X=X=X=X=X=X=X=X=X=X=X=X=X=X=X=X=X=X=X=X=X=X=X=X=X=X",
"=X=X=X=X=X=X=X=X=X=X=X=X=X=X=X=X=X=X=X=X=X=X=X=X=X=X=X=X=X=X=X=X",
"=X=X=X=X=X=X=X$X(./././././././././.!./././.!.!.XX=X=X=X=X=X=X=X",
"=X=X=X=X=X=X*Xk A.S.C.C.C.M.M.l.l.l.l.p.p.y.y.y.l W.=X=X=X=X=X=X",
"=X=X=X=X=X=X|.7.M.l.l.d.d.p.p.y.t.y.q.q.q.7.2.7.2.M.=X=X=X=X=X=X",
"=X=X=X=X=X=X}.2.y.y.t.t.q.q.q.6.6.2.2. .3 > < 5 g d.=X=X=X=X=X=X",
"=X=X=X=X=X=X}.&.q.q.6.6.2.2.2.:.*.&.4 = 9 u u 8 * ) =X=X=X=X=X=X",
"=X=X=X=X=X=X|.n 2.2.:.:.>.&.&.@.+.0 - / / ' | R q o _.=X=X=X=X=X",
"=X=X=X=X=X=X|.k &.&.&.&.n n k k j + E ^ ^ X.H.U ^ 6 # =X=X=X=X=X",
"=X=X*XY.L.L.S.k &.c c c c c O.O.y ; Y ] ] x.H.( ' U # G.K.[.=X=X",
"=X=Xm.a a a i a i i a a a a a a 2 Z K G.H.H.H.F.H.P : t s r =X=X",
"=X=X*.h h h h h h h h h h h h f e B J [ ` x.H.W Q C & f h s $X=X",
"=X=Xm.=.=.=.=.=.=.=.=.=.=.=.=.=.O.% F F F ..F.V G F , =.=.h *X=X",
"=X=XOXn.b.b.b.b.b.b.b.b.b.n.b.b.b.8 m H H _ } D H @ d b.b.E.=X=X",
"=X=X=X=X=X=X=X=X=X=X=X=X=X=X=X=X=X=XT @ N S S M   o.=X=X=X=X=X=X",
"=X=X=X=X=X=X=X=X=X=X=X=X=X=X=X=X*X$X#XI.; X o 1 `.+X$X*X=X=X=X=X",
"=X=X=X=X=X=X=X=X=X=X=X=X=X=X=X=X#XoX'.!.T.P.J.U.R.).[.+X*X=X=X=X",
"=X=X=X=X=X=X=X=X=X=X=X=X=X=X=X=X=X=X=X=X=X=X=X=X=X=X=X=X=X=X=X=X",
"=X=X=X=X=X=X=X=X=X=X=X=X=X=X=X=X=X=X=X=X=X=X=X=X=X=X=X=X=X=X=X=X",
"=X=X=X=X=X=X=X=X=X=X=X=X=X=X=X=X=X=X=X=X=X=X=X=X=X=X=X=X=X=X=X=X",
"=X=X=X=X=X=X=X=X=X=X=X=X=X=X=X=X=X=X=X=X=X=X=X=X=X=X=X=X=X=X=X=X",
"=X=X=X=X=X=X=X=X=X=X=X=X=X=X=X=X=X=X=X=X=X=X=X=X=X=X=X=X=X=X=X=X",
"=X=X=X=X=X=X=X=X=X=X=X=X=X=X=X=X=X=X=X=X=X=X=X=X=X=X=X=X=X=X=X=X",
"=X=X=X=X=X=X=X=X=X=X=X=X=X=X=X=X=X=X=X=X=X=X=X=X=X=X=X=X=X=X=X=X"
};
