/* XPM */
static char *tab_new[] = {
/* columns rows colors chars-per-pixel */
"32 32 256 2",
"   c #68B920",
".  c #68B12F",
"X  c #69AC32",
"o  c #6EB238",
"O  c #72BC33",
"+  c #6BC31A",
"@  c #7BC828",
"#  c #78C230",
"$  c #7FCC30",
"%  c #77AF49",
"&  c #75B343",
"*  c #75B144",
"=  c #77B248",
"-  c #7EB950",
";  c #87D72C",
":  c #91DB3F",
">  c #90E42F",
",  c #95E733",
"<  c #9DE33E",
"1  c #A4EE3F",
"2  c #80BE4E",
"3  c #81BC52",
"4  c #84BD58",
"5  c #8BB46A",
"6  c #92B477",
"7  c #84C749",
"8  c #87D042",
"9  c #9CDE59",
"0  c #9AE044",
"q  c #A6EE41",
"w  c #ABEA49",
"e  c #ACF245",
"r  c #AEF346",
"t  c #B7F64E",
"y  c #ACEF5B",
"u  c #BAF851",
"i  c #92C66B",
"p  c #9ACA76",
"a  c #9BCA77",
"s  c #9ED073",
"d  c #A6DF6C",
"f  c #A7EC60",
"g  c #A7E471",
"h  c #A9E272",
"j  c #ADEC70",
"k  c #8FB084",
"l  c #9EBF84",
"z  c #A0B8A0",
"x  c #A4B2AD",
"c  c #A9ACB6",
"v  c gray75",
"b  c #9FC282",
"n  c #A1C887",
"m  c #A5C38D",
"M  c #ABCE8F",
"N  c #A8D981",
"B  c #ACDC82",
"V  c #A1C193",
"C  c #B0D394",
"Z  c #B1D09B",
"A  c #B5E286",
"S  c #B6ED85",
"D  c #B7ED86",
"F  c #B8EE87",
"G  c #B9E488",
"H  c #BCE68C",
"J  c #B6E093",
"K  c #B8E492",
"L  c #BDE699",
"P  c #BDE79B",
"I  c #ADC5A0",
"U  c #B6CEA2",
"Y  c #BACFAA",
"T  c #BBCCBD",
"R  c #C0EF8C",
"E  c #C4F293",
"W  c #C2F098",
"Q  c #C6D0BF",
"!  c #C5D9BA",
"~  c #CDEBA8",
"^  c #CCE8B5",
"/  c #CFE3BF",
"(  c #AFB3C0",
")  c #AEB3C2",
"_  c #AFB3C2",
"`  c #B1B5C3",
"'  c #B7BFC9",
"]  c #BBC0D0",
"[  c #BEC2D1",
"{  c #C1C1C1",
"}  c #C3C3C3",
"|  c gray78",
" . c #C5C7CB",
".. c #C2C4CD",
"X. c #C7CBCE",
"o. c #CBCBCB",
"O. c #C9CBCE",
"+. c #CECECE",
"@. c #C8D3C5",
"#. c #D3D8CF",
"$. c #CACBD1",
"%. c #CACBD2",
"&. c #CACCD2",
"*. c #CBCCD2",
"=. c #CACCD3",
"-. c #CCCDD0",
";. c #CDCDD1",
":. c #CCCDD3",
">. c #CDCED2",
",. c #CBCDD4",
"<. c #CDCED4",
"1. c #CDCFD4",
"2. c #CECFD4",
"3. c #CECFD5",
"4. c #CDCFD6",
"5. c #C6CDDA",
"6. c #C9CEDF",
"7. c #CED0D5",
"8. c #CFD0D6",
"9. c #CFD1D6",
"0. c LightGray",
"q. c #D0D1D7",
"w. c #D1D2D7",
"e. c #D4D5D7",
"r. c #D7D7D7",
"t. c #D1D2D8",
"y. c #D2D3D8",
"u. c #D2D4D8",
"i. c #D2D4D9",
"p. c #D3D4D9",
"a. c #D3D5D9",
"s. c #D7D7D9",
"d. c #D4D5DA",
"f. c #D5D6DA",
"g. c #D5D7DB",
"h. c #D6D7DB",
"j. c #D6D8DC",
"k. c #D7D9DD",
"l. c #D8D8DA",
"z. c #D8D9DB",
"x. c #D9D9DB",
"c. c #D9DADB",
"v. c gray86",
"b. c #D9DCD8",
"n. c #D8D9DC",
"m. c #D9D9DC",
"M. c #D8D9DD",
"N. c #D9DADC",
"B. c #D9DADD",
"V. c #D9DADE",
"C. c #DADADE",
"Z. c #DADBDE",
"A. c #DBDCDF",
"S. c #DCDCDF",
"D. c #DDDDDF",
"F. c #DFDFDF",
"G. c #DFF3CF",
"H. c #E1F7D0",
"J. c #D3D6E1",
"K. c #D4D9E6",
"L. c #D5DAE7",
"P. c #DBDCE0",
"I. c #DBDDE1",
"U. c #DCDCE0",
"Y. c #DCDDE0",
"T. c #DCDDE1",
"R. c #DDDEE1",
"E. c #DEDEE1",
"W. c #DEDFE2",
"Q. c #D6DAE8",
"!. c #DFE0E2",
"~. c #DFE0E3",
"^. c #E0E0E1",
"/. c #E1E1E2",
"(. c #E1E2E3",
"). c #E2E2E3",
"_. c #E0E1E4",
"`. c #E2E3E4",
"'. c #E2E2E5",
"]. c #E2E3E5",
"[. c #E3E4E6",
"{. c #E4E4E4",
"}. c gray90",
"|. c #E4E4E7",
" X c #E4E5E7",
".X c #E6E6E6",
"XX c #E6E6E7",
"oX c #E7E7E7",
"OX c #E5E5E8",
"+X c #E5E6E8",
"@X c #E6E6E8",
"#X c #E6E7E9",
"$X c #E7E8E9",
"%X c gray91",
"&X c #E9E9E9",
"*X c #E8E8EA",
"=X c #E8E9EB",
"-X c #E9E9EB",
";X c #EAEAEA",
":X c #EAEAEC",
">X c #EAEBED",
",X c #EBEBED",
"<X c #ECECEE",
"1X c #ECEDEE",
"2X c #EDEEEF",
"3X c #EDF8E3",
"4X c #EDF9E3",
"5X c #EEEEF0",
"6X c #EEEFF0",
"7X c #F0F0F2",
"8X c #F1F2F3",
"9X c #F2F3F4",
"0X c #F4F4F5",
"qX c #F5F5F6",
"wX c #F5F6F7",
"eX c #FCFEFB",
"rX c gray100",
"tX c None",
"yX c black",
"uX c black",
"iX c black",
"pX c black",
"aX c black",
"sX c black",
"dX c black",
"fX c black",
"gX c black",
"hX c black",
"jX c black",
"kX c black",
"lX c black",
"zX c black",
"xX c black",
"cX c black",
"vX c black",
"bX c black",
"nX c black",
"mX c black",
"MX c black",
"NX c black",
"BX c black",
"VX c black",
"CX c black",
"ZX c black",
"AX c black",
"SX c black",
"DX c black",
"FX c black",
"GX c black",
"HX c black",
"JX c black",
"KX c black",
"LX c black",
"PX c black",
"IX c black",
"UX c black",
/* pixels */
"tXtXtXtXtXtXtXtXtXtXtXtXtXtXtXtXtXtXtXtXtXtXtXtXtXtXtXtXtXtXtXtX",
"tXtXtXtXtXtXtXtXtXtXtXtXtXtXtXtXtXtXtXtXtXtXtXtXtXtXtXtXtXtXtXtX",
"tXtXtXtXtXtXtXtXtXtXtXtXtXtXtXtXtXtXtXtXtXtXtXtXtXtXtXtXtXtXtXtX",
"tXtXtXtXtXtXtXtXtXtXtXtXtXtXtXtXtXtXtXtXtXtXtXtXtXtXtXtXtXtXtXtX",
"tXtXtXtXtXtXtXtXtXtXtXtXtXtXtXtXtXtXtXtXtXtXtXtXtXtXtXtXtXtXtXtX",
"tXtXtXtXtXtXtXtXtXtXtXtXtXtXtXtXtXtXtXtXtXtXtXtXtXtXtXtXtXtXtXtX",
"tXtXtXtXtXtXtXtXtXtXtXtXtXtXtXtXtXtXtXtXtXtXtXtXtXtXtXtXtXtXtXtX",
"tXtXtXtXtXtXtXtXtXtXtXtXtXtXtXtXtXtXtXtXtXtXtXtXtXtXtXtXtXtXtXtX",
"tXtXtXtXtXtXtXtXtXtXtXtXtXtXtXtXtXtXtXtXtXtXtXtXtXtXtXtXtXtXtXtX",
"tXtXtXtXtXtXtXtXtXtXtXtXtXtXtXtXtXtXtXtXtXtXtXtXtXtXtXtXtXtXtXtX",
"tXtXtXtXtXtXtX%Xn.v.n.n.v.v.n.n.n.v.n.n.n.v.v.l.(.tXtXtXtXtXtXtX",
"tXtXtXtXtXtX%XO.0X0X0X0X7X7X7X5X2X>X%X*X+X+X X X>.g.tXtXtXtXtXtX",
"tXtXtXtXtXtX(.U.7X2X>X>X>X+X+X+X|.[.[.U.U.U.D.n.n.>.tXtXtXtXtXtX",
"tXtXtXtXtXtX(.n.+X X[.[.[.!.U.P.n.U.n.! i - 4 a @.>.tXtXtXtXtXtX",
"tXtXtXtXtXtX(.u.!.U.P.v.k.n.j.j.d.u.a * m U U l o Z tXtXtXtXtXtX",
"tXtXtXtXtXtX(.2.k.k.g.d.y.y.y.8.8.n % C J P ^ N M X / tXtXtXtXtX",
"tXtXtXtXtXtX'.%.y.y.y.2.2.>.,.=.X.. B F S H.rXg S p 2 tXtXtXtXtX",
"tXtX:Xp.U.U.C.6.2.,.2.2.>.=.=.$.I 7 j W W 3XrXK W h O v.v.U.tXtX",
"tXtX$._ ` ` ` ` ) ) _ _ _ _ _ _ k 9 f eXrXrXrXrXrXd 8 x ` c tXtX",
"tXtX..[ ' ' ' [ ' ' ] ] ] ] ] [ z : y E R 3XrXA G 0 @ ' ] ` %XtX",
"tXtX2.6.6.6.6.6.6.6.6.6.6.6.6.6.5.# r r e G.rX< r r 3 6.6.[ %XtX",
"tXtX+XJ.Q.Q.Q.Q.Q.Q.Q.Q.Q.Q.Q.Q.Q.V ; u u H ~ w t @ T Q.K.P.tXtX",
"tXtXtXtXtXtXtXtXtXtXtXtXtXtXtXtXtXtXn + , 1 1 >   Y tXtXtXtXtXtX",
"tXtXtXtXtXtXtXtXtXtXtXtXtXtXtXtX%X%X XQ 5 & = 6 #.(.oX>XtXtXtXtX",
"tXtXtXtXtXtXtXtXtXtXtXtXtXtXtXtX XF.r.+.| { v } o.0.D.{.%XtXtXtX",
"tXtXtXtXtXtXtXtXtXtXtXtXtXtXtXtXtXtXtXtXtXtXtXtXtXtXtXtXtXtXtXtX",
"tXtXtXtXtXtXtXtXtXtXtXtXtXtXtXtXtXtXtXtXtXtXtXtXtXtXtXtXtXtXtXtX",
"tXtXtXtXtXtXtXtXtXtXtXtXtXtXtXtXtXtXtXtXtXtXtXtXtXtXtXtXtXtXtXtX",
"tXtXtXtXtXtXtXtXtXtXtXtXtXtXtXtXtXtXtXtXtXtXtXtXtXtXtXtXtXtXtXtX",
"tXtXtXtXtXtXtXtXtXtXtXtXtXtXtXtXtXtXtXtXtXtXtXtXtXtXtXtXtXtXtXtX",
"tXtXtXtXtXtXtXtXtXtXtXtXtXtXtXtXtXtXtXtXtXtXtXtXtXtXtXtXtXtXtXtX",
"tXtXtXtXtXtXtXtXtXtXtXtXtXtXtXtXtXtXtXtXtXtXtXtXtXtXtXtXtXtXtXtX"
};
