/* XPM */
static char *tab_new_dis[] = {
/* columns rows colors chars-per-pixel */
"32 32 256 2",
"   c #91AC7C",
".  c #94B17D",
"X  c #98B97B",
"o  c #99AF86",
"O  c #97B281",
"+  c #99B185",
"@  c #9AB386",
"#  c #9EBC85",
"$  c #9BB288",
"%  c #A1B98F",
"&  c #A3B496",
"*  c #A5BE91",
"=  c #A4BC92",
"-  c #A6BD95",
";  c #A6B49B",
":  c #A3B09E",
">  c #AEB8AE",
",  c #B2BFA7",
"<  c #ACB2B0",
"1  c #B1B2B6",
"2  c gray75",
"3  c #9FC380",
"4  c #A4C288",
"5  c #A9C888",
"6  c #ADCC8E",
"7  c #ACC795",
"8  c #B7D793",
"9  c #B3D097",
"0  c #BDDB9D",
"q  c #B1C6A2",
"w  c #B4C2A8",
"e  c #B7C3AD",
"r  c #B5C1AF",
"t  c #B7CAA8",
"y  c #B7CAA9",
"u  c #B8C8AE",
"i  c #BCD0AB",
"p  c #BBC5B6",
"a  c #C2E49C",
"s  c #C6E79F",
"d  c #C4DEA9",
"f  c #C0CEB5",
"g  c #C4CEBC",
"h  c #C5D9B6",
"j  c #C8DFB1",
"k  c #C4D0BB",
"l  c #C5D3BA",
"z  c #C9DCB8",
"x  c #C7E3A1",
"c  c #C4E0A2",
"v  c #D1EAAA",
"b  c #D0EEA8",
"n  c #D1EEA9",
"m  c #D6F2AD",
"M  c #D7F3AE",
"N  c #CBE2B5",
"B  c #CCE4B6",
"V  c #D0ECB4",
"C  c #D4EFB4",
"Z  c #D0E2BD",
"A  c #D3E4BF",
"S  c #D3ECBA",
"D  c #DDF6B3",
"F  c #DFF8B5",
"G  c #B9BBC0",
"H  c #BABCC2",
"J  c #BCBDC3",
"K  c #C1C1C1",
"L  c #C3C3C3",
"P  c gray78",
"I  c #C7CFC0",
"U  c #C5CCC6",
"Y  c #C2C5C9",
"T  c #C9C9CB",
"R  c #CBCBCB",
"E  c #C8C9CD",
"W  c #CBCDCE",
"Q  c #CCCCCE",
"!  c #CECECE",
"~  c #CCD0C9",
"^  c #CFD3CD",
"/  c #D1D9CD",
"(  c #C8CAD0",
")  c #CACCD1",
"_  c #CECFD0",
"`  c #CECFD1",
"'  c #CFCFD2",
"]  c #CFD0D1",
"[  c #CFD0D2",
"{  c #CFD0D3",
"}  c #D0D0D2",
"|  c #D0D1D3",
" . c LightGray",
".. c #D0D1D4",
"X. c #D1D2D4",
"o. c #D2D2D4",
"O. c #D2D3D5",
"+. c #D2D3D6",
"@. c #D3D4D6",
"#. c #D4D5D7",
"$. c #D5D5D7",
"%. c #D6D6D7",
"&. c #D7D7D7",
"*. c #D6D8D4",
"=. c #D2D5DA",
"-. c #D5D6D8",
";. c #D6D6D8",
":. c #D6D7D9",
">. c #D7D7D9",
",. c #D6D8DF",
"<. c #D8D8D9",
"1. c #D8D8DA",
"2. c #D9D9DB",
"3. c #DADADA",
"4. c #DADADB",
"5. c #DADBDB",
"6. c gray86",
"7. c #DBDCDB",
"8. c #DADADC",
"9. c #DADBDC",
"0. c #DBDBDC",
"q. c #DBDBDD",
"w. c #DBDCDD",
"e. c #DCDCDE",
"r. c #DCDDDE",
"t. c #DDDEDF",
"y. c #DEDEDF",
"u. c #DFDFDF",
"i. c #CFE0C1",
"p. c #D2E4C3",
"a. c #D5E6C2",
"s. c #D6E6C7",
"d. c #D7EDC3",
"f. c #D7EDC4",
"g. c #D8EEC5",
"h. c #DCEFC7",
"j. c #D6E7C9",
"k. c #DEF0CD",
"l. c #DBE3D5",
"z. c #DFEBD0",
"x. c #DDE8D4",
"c. c #E0F2CC",
"v. c #DBDCE1",
"b. c #DEDEE0",
"n. c #DEDFE0",
"m. c #DFDFE1",
"M. c #DFE0E1",
"N. c #DEE1E6",
"B. c #E0E0E1",
"V. c #E1E1E1",
"C. c #E0E1E2",
"Z. c #E1E1E2",
"A. c #E1E2E2",
"S. c #E1E2E3",
"D. c #E2E2E3",
"F. c gray89",
"G. c #E2E3E4",
"H. c #E3E3E4",
"J. c #E0E2E7",
"K. c #E4E4E4",
"L. c #E4E4E5",
"P. c gray90",
"I. c #E5E5E6",
"U. c #E6E6E6",
"Y. c #E6E6E7",
"T. c #E6E7E7",
"R. c #E7E7E7",
"E. c #E0E3E8",
"W. c #E7E7E8",
"Q. c gray91",
"!. c #E8E8E9",
"~. c #E8E9E9",
"^. c #E9E9E9",
"/. c #E9E9EA",
"(. c #EAEAEA",
"). c #EAEAEB",
"_. c #EBEBEC",
"`. c #ECECED",
"'. c #EDEDEE",
"]. c #EDEEEE",
"[. c #EEEFEF",
"{. c #EBF3E5",
"}. c #EEF7E7",
"|. c #EFEFF0",
" X c #EFF0F0",
".X c #F1F1F2",
"XX c #F2F3F3",
"oX c #F3F4F4",
"OX c gray96",
"+X c #F6F6F6",
"@X c #F6F7F7",
"#X c #F4F8F0",
"$X c #F4F9F0",
"%X c #FDFEFD",
"&X c gray100",
"*X c None",
"=X c black",
"-X c black",
";X c black",
":X c black",
">X c black",
",X c black",
"<X c black",
"1X c black",
"2X c black",
"3X c black",
"4X c black",
"5X c black",
"6X c black",
"7X c black",
"8X c black",
"9X c black",
"0X c black",
"qX c black",
"wX c black",
"eX c black",
"rX c black",
"tX c black",
"yX c black",
"uX c black",
"iX c black",
"pX c black",
"aX c black",
"sX c black",
"dX c black",
"fX c black",
"gX c black",
"hX c black",
"jX c black",
"kX c black",
"lX c black",
"zX c black",
"xX c black",
"cX c black",
"vX c black",
"bX c black",
"nX c black",
"mX c black",
"MX c black",
"NX c black",
"BX c black",
"VX c black",
"CX c black",
"ZX c black",
"AX c black",
"SX c black",
"DX c black",
"FX c black",
"GX c black",
"HX c black",
"JX c black",
"KX c black",
"LX c black",
"PX c black",
"IX c black",
"UX c black",
/* pixels */
"*X*X*X*X*X*X*X*X*X*X*X*X*X*X*X*X*X*X*X*X*X*X*X*X*X*X*X*X*X*X*X*X",
"*X*X*X*X*X*X*X*X*X*X*X*X*X*X*X*X*X*X*X*X*X*X*X*X*X*X*X*X*X*X*X*X",
"*X*X*X*X*X*X*X*X*X*X*X*X*X*X*X*X*X*X*X*X*X*X*X*X*X*X*X*X*X*X*X*X",
"*X*X*X*X*X*X*X*X*X*X*X*X*X*X*X*X*X*X*X*X*X*X*X*X*X*X*X*X*X*X*X*X",
"*X*X*X*X*X*X*X*X*X*X*X*X*X*X*X*X*X*X*X*X*X*X*X*X*X*X*X*X*X*X*X*X",
"*X*X*X*X*X*X*X*X*X*X*X*X*X*X*X*X*X*X*X*X*X*X*X*X*X*X*X*X*X*X*X*X",
"*X*X*X*X*X*X*X*X*X*X*X*X*X*X*X*X*X*X*X*X*X*X*X*X*X*X*X*X*X*X*X*X",
"*X*X*X*X*X*X*X*X*X*X*X*X*X*X*X*X*X*X*X*X*X*X*X*X*X*X*X*X*X*X*X*X",
"*X*X*X*X*X*X*X*X*X*X*X*X*X*X*X*X*X*X*X*X*X*X*X*X*X*X*X*X*X*X*X*X",
"*X*X*X*X*X*X*X*X*X*X*X*X*X*X*X*X*X*X*X*X*X*X*X*X*X*X*X*X*X*X*X*X",
"*X*X*X*X*X*X*XQ.6.w.w.0.9.9.9.9.0.9.9.9.9.6.6.6.D.*X*X*X*X*X*X*X",
"*X*X*X*X*X*XQ.Q OXOXOXOX.X.X|.|.].]._.Q.Q.W.W.Y.} 6.*X*X*X*X*X*X",
"*X*X*X*X*X*XD.b..X]._._.Q.Q.W.W.L.Y.L.D.b.b.w.w.9._ *X*X*X*X*X*X",
"*X*X*X*X*X*XD.9.Y.Y.Y.Y.G.G.G.b.w.w.9./ q % - y ^ ] *X*X*X*X*X*X",
"*X*X*X*X*X*XD.;.D.b.b.b.w.w.9.9.1.;.t + e g g , O k *X*X*X*X*X*X",
"*X*X*X*X*X*XD.o.9.9.9.;.;.;.;.o.o.u o l p.j.x.h f   l.*X*X*X*X*X",
"*X*X*X*X*X*XE.) :.;.&.=.o.o.o.] Q . z g.g.}.%XB g.i * *X*X*X*X*X",
"*X*XQ.;.b.b.w.) O.{ o.{ { { ] } p 7 S k.c.$X%Xp.j.N # 7.6.D.*X*X",
"*X*XR G H H H H H H H H H H H H : d V %X%X%X%X%X%Xj 9 < J 1 *X*X",
"*X*XE ( ( ( ( ( ( ( ( ( ( ( ( ( > 0 C c.h.$X%XZ a.d 6 L ( H Q.*X",
"*X*XO.v.v.v.v.v.,.v.,.,.,.,.,.,.=.4 M M m {.%Xx m m = v.,.) Q.*X",
"*X*XY.v.E.E.v.N.N.E.N.N.E.E.E.E.E.r 8 D D a.z.b D 5 U E.N.M.*X*X",
"*X*X*X*X*X*X*X*X*X*X*X*X*X*X*X*X*X*Xw 4 s m b a X I *X*X*X*X*X*X",
"*X*X*X*X*X*X*X*X*X*X*X*X*X*X*X*XQ.Q.Y.~ & @ + ; &.G.Q.Q.*X*X*X*X",
"*X*X*X*X*X*X*X*X*X*X*X*X*X*X*X*XY.b.&._ P K g L R } w.K.Q.*X*X*X",
"*X*X*X*X*X*X*X*X*X*X*X*X*X*X*X*X*X*X*X*X*X*X*X*X*X*X*X*X*X*X*X*X",
"*X*X*X*X*X*X*X*X*X*X*X*X*X*X*X*X*X*X*X*X*X*X*X*X*X*X*X*X*X*X*X*X",
"*X*X*X*X*X*X*X*X*X*X*X*X*X*X*X*X*X*X*X*X*X*X*X*X*X*X*X*X*X*X*X*X",
"*X*X*X*X*X*X*X*X*X*X*X*X*X*X*X*X*X*X*X*X*X*X*X*X*X*X*X*X*X*X*X*X",
"*X*X*X*X*X*X*X*X*X*X*X*X*X*X*X*X*X*X*X*X*X*X*X*X*X*X*X*X*X*X*X*X",
"*X*X*X*X*X*X*X*X*X*X*X*X*X*X*X*X*X*X*X*X*X*X*X*X*X*X*X*X*X*X*X*X",
"*X*X*X*X*X*X*X*X*X*X*X*X*X*X*X*X*X*X*X*X*X*X*X*X*X*X*X*X*X*X*X*X"
};
