/* XPM */
static char *undo_dis[] = {
/* columns rows colors chars-per-pixel */
"32 32 256 2",
"   c #434F3F",
".  c #43543E",
"X  c #4A5A46",
"o  c #4E5D49",
"O  c #4D6347",
"+  c #4F6349",
"@  c #51674B",
"#  c #546C4D",
"$  c #56704E",
"%  c #566352",
"&  c #596356",
"*  c #576C50",
"=  c #596A54",
"-  c #5F6C5B",
";  c #5A7352",
":  c #5E7D55",
">  c #616D5E",
",  c #63755E",
"<  c #627C5B",
"1  c #636C61",
"2  c #677064",
"3  c #677962",
"4  c #6B7C67",
"5  c #6C7768",
"6  c #6E7A6A",
"7  c #727C6F",
"8  c #757E73",
"9  c #65845C",
"0  c #6A8C5F",
"q  c #6C8166",
"w  c #6B8D62",
"e  c #6F8569",
"r  c #6F8869",
"t  c #718B6A",
"y  c #6D9263",
"u  c #719566",
"i  c #729867",
"p  c #74956B",
"a  c #769D6A",
"s  c #789E6D",
"d  c #7B8378",
"f  c #779370",
"g  c #7B9375",
"h  c #779871",
"j  c #7A9E71",
"k  c #7E9478",
"l  c #7E9978",
"z  c #77A06C",
"x  c #79A16D",
"c  c #7DA572",
"v  c #818A7E",
"b  c #829A7B",
"n  c #80A776",
"m  c #82A977",
"M  c #82A37B",
"N  c #85AC7A",
"B  c #89AD7E",
"V  c #87B07B",
"C  c #89B27D",
"Z  c #858E82",
"A  c #869083",
"S  c #889186",
"D  c #869C81",
"F  c #8E958B",
"G  c #919A8F",
"H  c #949B92",
"J  c #87A380",
"K  c #8CA187",
"L  c #87AD81",
"P  c #8BAD82",
"I  c #8EA889",
"U  c #90A48B",
"Y  c #90AE88",
"T  c #8DB283",
"R  c #8EB388",
"E  c #90B486",
"W  c #93B58B",
"Q  c #98B78F",
"!  c #95B88D",
"~  c #98B98F",
"^  c #96AC91",
"/  c #99AB95",
"(  c #9EA49C",
")  c #96B591",
"_  c #9AB495",
"`  c #96BA91",
"'  c #9BBB93",
"]  c #9FBC99",
"[  c #A0BD97",
"{  c #A3B39F",
"}  c #A2BD9B",
"|  c #A2A8A0",
" . c #A9AFA6",
".. c #A7B2A4",
"X. c #A4B9A1",
"o. c #B1B2AF",
"O. c #B2B7B0",
"+. c #B6BBB4",
"@. c #B8BCB5",
"#. c #BCBEBA",
"$. c #A4C09D",
"%. c #A6C3A2",
"&. c #A9C2A4",
"*. c #AEC3AA",
"=. c #AECAAB",
"-. c #B2C4AE",
";. c #B1CBAE",
":. c #B4C2B2",
">. c #B4CBB1",
",. c #B8C9B6",
"<. c #BCC3B9",
"1. c #BCCABA",
"2. c #BED3BB",
"3. c #C2C6C0",
"4. c #C6CCC4",
"5. c #C8CCC7",
"6. c #CACEC9",
"7. c #C4D4C2",
"8. c #C8D3C7",
"9. c #C8D8C6",
"0. c #CDD1CB",
"q. c #CDD9CC",
"w. c #D1D3CF",
"e. c #D0DBCE",
"r. c #D6D6D5",
"t. c #D5DAD3",
"y. c #D8DED6",
"u. c gray86",
"i. c #E0DFDF",
"p. c #D7E0D6",
"a. c #DDE2DC",
"s. c #E0E4DF",
"d. c #E4E5E3",
"f. c #E7E8E7",
"g. c #E8E9E7",
"h. c #E9EAE9",
"j. c #EFF0ED",
"k. c #F1F2EF",
"l. c #F4F5F2",
"z. c #FEFDFC",
"x. c None",
"c. c black",
"v. c black",
"b. c black",
"n. c black",
"m. c black",
"M. c black",
"N. c black",
"B. c black",
"V. c black",
"C. c black",
"Z. c black",
"A. c black",
"S. c black",
"D. c black",
"F. c black",
"G. c black",
"H. c black",
"J. c black",
"K. c black",
"L. c black",
"P. c black",
"I. c black",
"U. c black",
"Y. c black",
"T. c black",
"R. c black",
"E. c black",
"W. c black",
"Q. c black",
"!. c black",
"~. c black",
"^. c black",
"/. c black",
"(. c black",
"). c black",
"_. c black",
"`. c black",
"'. c black",
"]. c black",
"[. c black",
"{. c black",
"}. c black",
"|. c black",
" X c black",
".X c black",
"XX c black",
"oX c black",
"OX c black",
"+X c black",
"@X c black",
"#X c black",
"$X c black",
"%X c black",
"&X c black",
"*X c black",
"=X c black",
"-X c black",
";X c black",
":X c black",
">X c black",
",X c black",
"<X c black",
"1X c black",
"2X c black",
"3X c black",
"4X c black",
"5X c black",
"6X c black",
"7X c black",
"8X c black",
"9X c black",
"0X c black",
"qX c black",
"wX c black",
"eX c black",
"rX c black",
"tX c black",
"yX c black",
"uX c black",
"iX c black",
"pX c black",
"aX c black",
"sX c black",
"dX c black",
"fX c black",
"gX c black",
"hX c black",
"jX c black",
"kX c black",
"lX c black",
"zX c black",
"xX c black",
"cX c black",
"vX c black",
"bX c black",
"nX c black",
"mX c black",
"MX c black",
"NX c black",
"BX c black",
"VX c black",
"CX c black",
"ZX c black",
"AX c black",
"SX c black",
"DX c black",
"FX c black",
"GX c black",
"HX c black",
"JX c black",
"KX c black",
"LX c black",
"PX c black",
"IX c black",
"UX c black",
/* pixels */
"x.x.x.x.x.x.x.x.x.x.x.x.x.x.h.h.h.x.x.x.x.x.x.x.x.x.x.x.x.x.x.x.",
"x.x.x.x.x.x.x.x.x.x.h.a.e.9.2.2.2.2.9.p.f.x.x.x.x.x.x.x.x.x.x.x.",
"x.x.x.x.x.x.x.x.g.p.2.;.$.` ` ` ` ~ ' %.>.9.s.x.x.x.x.x.x.x.x.x.",
"x.x.x.x.x.x.x.d.7.%.Q [ %.=.;.-.;.;.*.%.' ' ;.q.g.x.x.x.x.x.x.x.",
"x.x.x.x.x.h.a.;.~ $.&.&.&.$.$.$.$.$.&.&.*.&.' [ 7.d.x.x.x.x.x.x.",
"x.x.x.x.x.a.&.R $.$.$.[ $.' ' ' ' ' ' [ $.$.&.' W 2.f.x.x.x.x.x.",
"x.x.x.x.a.=.R ] $.[ [ ' ~ ' Y > l ' ' ' ~ [ [ $.` R 7.f.x.x.x.x.",
"x.x.x.f.2.R ' ] [ ~ ~ ~ [ M 6 8 g ' ~ ! ! C C E ' W ` p.h.x.x.x.",
"x.x.x.t.) Q ' ' ' ' ~ Q f 8 0.S I ' E C C C C C R Q E &.d.x.x.x.",
"x.x.f.;.P Q ' ~ ~ ~ b 4 G g.h.2 e p s n C C C V C T R R q.f.x.x.",
"x.x.e.W E Q Q Y l 4 v 0.z.z.l.w.+.| Z 7 < p N B V C R T %.d.x.x.",
"x.x.7.M E W q > H t.l.z.z.z.z.z.z.z.z.j.6.G , u V V C T R a.x.x.",
"h.d.:.N T W r > Z #.j.z.z.z.z.z.z.z.z.z.z.z.t.7 9 N V V I 8.h.x.",
"f.y.} M T R W W b 3 6 +.l.z.k.0.u.k.z.z.z.z.z.g.6 i N N L ,.h.x.",
"d.q._ m P T E ~ ' ~ M , d u.h.& = 6  .k.z.z.z.z.@.; N n M *.f.x.",
"d.q.) n B P E W ~ ~ ' Q t > <.v p c $ A l.z.z.z.t.= c n M *.f.x.",
"f.y._ n m B B B E W Q Q E s = > < V c @ 5.z.z.z.0.= c c c *.h.x.",
"x.s.X.s n B B B B B B E E B n O < x x ; O.z.z.z.( ; c c M <.h.x.",
"x.h.:.p n B m N n n n n m V V n s s x $ <.z.z.g.> u c x b q.h.x.",
"x.x.8.h s n n n n x x s x x x z s s u # s.z.l.F $ c c a I s.x.x.",
"x.x.u.^ u c n n n x x x s s z z z z $ S z.z. .o a c c p :.f.x.x.",
"x.x.h.1.p s n x s x x x z z s z x 9 & s.z. .X u c c u M y.x.x.x.",
"x.x.x.u.^ u x x x x x z z z s s 0 o 3.k.G X u x x i p +.f.x.x.x.",
"x.x.x.h.8.b y s x x z z z z z 9 o O.4.2 O u s z a w / a.x.x.x.x.",
"x.x.x.x.g.1.f w a z z z z a @ . d 8 X : a x x i w K t.h.x.x.x.x.",
"x.x.x.x.x.f.<.l y i s z z i . . + : a x x a i w U e.h.x.x.x.x.x.",
"x.x.x.x.x.x.f.4.D r w p a a i i x z a a u y t ( t.h.x.x.x.x.x.x.",
"x.x.x.x.x.f.d.d.6...l p u y y i y y y y r D #.r.d.f.h.x.x.x.x.x.",
"x.x.x.x.x.f.u.h.h.d.r.4.{ G g e t l / <.5.r.i.i.r.u.h.x.x.x.x.x.",
"x.x.x.x.x.h.h.h.h.h.d.d.a.u.u.r.t.u.u.d.d.i.d.d.h.h.h.x.x.x.x.x.",
"x.x.x.x.x.x.x.x.h.d.u.u.u.u.u.u.u.u.r.r.u.r.r.i.h.h.x.x.x.x.x.x.",
"x.x.x.x.x.x.x.x.h.h.d.u.d.d.i.u.i.u.r.r.r.u.r.u.d.h.x.x.x.x.x.x."
};
