/* XPM */
static char *undo_sel[] = {
/* columns rows colors chars-per-pixel */
"32 32 256 2",
"   c #1D2F18",
".  c #1B3514",
"X  c #1D3C14",
"o  c #22371B",
"O  c #263E1F",
"+  c #2A3B25",
"@  c #2D3B28",
"#  c #1C4B0F",
"$  c #1E540F",
"%  c #1D4412",
"&  c #1E4D12",
"*  c #1F5512",
"=  c #1F5912",
"-  c #20580F",
";  c #204316",
":  c #224B16",
">  c #23401B",
",  c #254E1A",
"<  c #284A1E",
"1  c #205512",
"2  c #235D12",
"3  c #265519",
"4  c #28521D",
"5  c #255C18",
"6  c #295D1C",
"7  c #246113",
"8  c #286316",
"9  c #256119",
"0  c #2A641B",
"q  c #2D6A1B",
"w  c #306C1F",
"e  c #2B4424",
"r  c #2D4A25",
"t  c #2D4128",
"y  c #30412B",
"u  c #324B2C",
"i  c #2D5423",
"p  c #305627",
"a  c #315D26",
"s  c #34572A",
"d  c #355B2B",
"f  c #354431",
"g  c #364930",
"h  c #3A4935",
"j  c #3E4C39",
"k  c #2E6621",
"l  c #2C6A23",
"z  c #2F6E28",
"x  c #306721",
"c  c #336B24",
"v  c #37612C",
"b  c #38642E",
"n  c #346D2C",
"m  c #3A6C2D",
"M  c #2E7027",
"N  c #33702C",
"B  c #3D702F",
"V  c #3C6732",
"C  c #3E6E31",
"Z  c #367430",
"A  c #3E7033",
"S  c #3B7835",
"D  c #414D3D",
"F  c #44533F",
"G  c #406F34",
"H  c #426738",
"J  c #45693C",
"K  c #417134",
"L  c #45713A",
"P  c #49733E",
"I  c #427C3A",
"U  c #465342",
"Y  c #485644",
"T  c #4C5648",
"R  c #4F5B4B",
"E  c #525D4E",
"W  c #4D7443",
"Q  c #507445",
"!  c #53754A",
"~  c #5A6256",
"^  c #5C6558",
"/  c #5F695B",
"(  c #5A7753",
")  c #60695C",
"_  c #666E63",
"`  c #696E66",
"'  c #6A7267",
"]  c #6F736C",
"[  c #71776E",
"{  c #757A72",
"}  c #787D75",
"|  c #7B7F78",
" . c #478141",
".. c #4A8343",
"X. c #4E8848",
"o. c #54814D",
"O. c #52894B",
"+. c #5A8553",
"@. c #588A52",
"#. c #61865B",
"$. c #62985D",
"%. c #678760",
"&. c #678F60",
"*. c #688C63",
"=. c #669661",
"-. c #699563",
";. c #669A61",
":. c #6A9B64",
">. c #71926B",
",. c #729F6D",
"<. c #798B74",
"1. c #7D8179",
"2. c #799373",
"3. c #7E9778",
"4. c #74A06F",
"5. c #75A371",
"6. c #7AA275",
"7. c #7FA97B",
"8. c #81857E",
"9. c #858883",
"0. c #8A8C87",
"q. c #8C8E89",
"w. c #8F918C",
"e. c #91928E",
"r. c #969694",
"t. c #989796",
"y. c #999897",
"u. c #999998",
"i. c #87A783",
"p. c #8BA085",
"a. c #8EA389",
"s. c #8CA989",
"d. c #90AF8B",
"f. c #90B38D",
"g. c #99A496",
"h. c #99AB94",
"j. c #94B691",
"k. c #99B393",
"l. c #9CB299",
"z. c #9EB99B",
"x. c #A0BB9E",
"c. c #A6A5A5",
"v. c #A8A7A7",
"b. c #ACABAB",
"n. c #A3BFA1",
"m. c #AEB5AD",
"M. c #ABBAA8",
"N. c #B2BFAF",
"B. c gray70",
"V. c #B8B7B7",
"C. c #B5BAB4",
"Z. c #B8B7B8",
"A. c #BBBBBA",
"S. c #C0BFBF",
"D. c #AEC2AA",
"F. c #B7C3B4",
"G. c #B8C3B6",
"H. c #B6C9B5",
"J. c #B9CBB6",
"K. c #BFC2BE",
"L. c #BCCABA",
"P. c #C4C5C4",
"I. c #CBCACB",
"U. c #C5D3C4",
"Y. c #C9D3C7",
"T. c #CCD6CA",
"R. c #CFD9CE",
"E. c #D2D1D2",
"W. c #D5DBD4",
"Q. c #D8DED7",
"!. c gray86",
"~. c #DCE1DC",
"^. c #E3E4E3",
"/. c #E7E8E7",
"(. c #E9E9E9",
"). c None",
"_. c black",
"`. c black",
"'. c black",
"]. c black",
"[. c black",
"{. c black",
"}. c black",
"|. c black",
" X c black",
".X c black",
"XX c black",
"oX c black",
"OX c black",
"+X c black",
"@X c black",
"#X c black",
"$X c black",
"%X c black",
"&X c black",
"*X c black",
"=X c black",
"-X c black",
";X c black",
":X c black",
">X c black",
",X c black",
"<X c black",
"1X c black",
"2X c black",
"3X c black",
"4X c black",
"5X c black",
"6X c black",
"7X c black",
"8X c black",
"9X c black",
"0X c black",
"qX c black",
"wX c black",
"eX c black",
"rX c black",
"tX c black",
"yX c black",
"uX c black",
"iX c black",
"pX c black",
"aX c black",
"sX c black",
"dX c black",
"fX c black",
"gX c black",
"hX c black",
"jX c black",
"kX c black",
"lX c black",
"zX c black",
"xX c black",
"cX c black",
"vX c black",
"bX c black",
"nX c black",
"mX c black",
"MX c black",
"NX c black",
"BX c black",
"VX c black",
"CX c black",
"ZX c black",
"AX c black",
"SX c black",
"DX c black",
"FX c black",
"GX c black",
"HX c black",
"JX c black",
"KX c black",
"LX c black",
"PX c black",
"IX c black",
"UX c black",
/* pixels */
").).).).).).).).).).).).).).(./.(.).).).).).).).).).).).).).).).",
").).).).).).).).).).(.U.j.5.;.$.$.:.7.D.W.).).).).).).).).).).).",
").).).).).).).).^.D.:. .Z N N n Z z M S O.7.U.).).).).).).).).).",
").).).).).).).T.5.S c L W ( ( ( ( ( ! W A M X.f.^.).).).).).).).",
").).).).).(.J.X.c P Q Q W W P P P W W Q ! ! A M 5.Q.).).).).).).",
").).).).).J.S c P Q W L K K K G C A K L P Q ! K l =.Q.).).).).).",
").).).).Y...z P P K K K K K V e s K K K B K K P C l 5.^.).).).).",
").).).~.-.l C P G G G K K v u D s K B m c c w c C n z x./.).).).",
").).).z.z C K G C A K m s j } Y m K c w q q q q c A n I R.).).).",
").).Q.@.0 K G C A C v u E 0.0.f r i 6 q q q q q q c n k s.(.).).",
").).z.l m m G m d u U } r.t.r.} ' ^ F g , 3 0 w q q c l I W.).).",
").).6.9 m m r y E | r.t.t.t.t.y.t.t.r.w.} E r 3 q q c c l H.).).",
"(.W.+.k c m r y U ] q.y.t.t.y.y.t.t.t.t.y.t.1.h , 0 q l 0 i.(.).",
"Q.D.A 0 c n m m d r h ` e.y.e.} 8.e.y.t.t.t.y.0.g 5 q 0 9 &.^.).",
"T.k.n 0 x c m G K A v r F 8.w.+ O g ) e.t.t.t.y.` ; q 8 9 o.^.).",
"T.k.n 9 x c c m m A K m i + ' F 3 8 : F e.t.t.t.8.; 8 8 9 o.^.).",
"^.D.m 9 q x c c m m m K c 6 O y : q 8 o { y.t.y.} ; 8 8 5 +.^.).",
").Y.W 5 0 x x x q w c m c w 0 X : 8 7 # ` y.t.y.^ ; 8 8 5 >./.).",
").^.%.1 0 0 q 0 0 8 0 0 0 q q 8 7 7 7 % [ y.t.0.e - 8 2 5 l./.).",
").).d.1 6 0 0 0 0 2 7 - 7 8 8 7 - 7 - O 8.t.r.T % 8 8 2 k Y.).).",
").).L.m 2 9 8 8 8 8 7 2 7 7 7 - 7 7 % T r.r.) o 2 7 9 = #.~.).).",
").).(.2.1 2 8 8 8 2 7 7 7 - 7 7 - - + 9.r.) o - 7 9 2 i F.).).).",
").).).L.V - 7 7 7 7 7 7 7 7 7 - - o { w.E o - 7 7 7 1 %.~.).).).",
").).).(.h.1 - 7 7 7 - 7 7 7 7 # o ) { g X - 7 7 2 $ V Y.).).).).",
").).).).^.3.1 * 2 7 7 7 7 - X . F D X # 7 2 7 2 $ a N.(.).).).).",
").).).).).~.2.3 $ 2 - 7 7 7 . . X # - 7 2 2 = * a M.(.).).).).).",
").).).).).).^.p.i $ - - - 7 7 2 7 7 2 2 2 $ : J G./.).).).).).).",
").).).).)./.^.!.m.( 3 - - - - - - - - $ # a <.A.!.^.(.).).).).).",
").).).).).~.E./.(.E.G.w.W d , : & , H <.g.V.W.!.P.I./.).).).).).",
").).).).).(./.(./.^.E.I.P.P.C.m.N.V.K.I.I.I.E.!././.(.).).).).).",
").).).).).).).).(.!.A.B.Z.A.V.B.V.B.c.v.v.c.b.S.!.(.).).).).).).",
").).).).).).).).(.~.I.P.I.P.S.V.Z.B.b.b.b.b.b.V.E.(.).).).).).)."
};
