/* XPM */
static char *undo_dis[] = {
/* columns rows colors chars-per-pixel */
"32 32 128 2",
"   c #343D31",
".  c #364033",
"X  c #3B4738",
"o  c #3D493A",
"O  c #40493D",
"+  c #43543E",
"@  c #464E43",
"#  c #455341",
"$  c #485146",
"%  c #4D564A",
"&  c #4D5E48",
"*  c #50624C",
"=  c #536D4D",
"-  c #576354",
";  c #5B6657",
":  c #566950",
">  c #5D675B",
",  c #597152",
"<  c #5A7B52",
"1  c #616B5D",
"2  c #62745C",
"3  c #617C59",
"4  c #656C62",
"5  c #686E66",
"6  c #697565",
"7  c #697F64",
"8  c #6C7469",
"9  c #70776E",
"0  c #717C6E",
"q  c #747B72",
"w  c #5F8056",
"e  c #64835D",
"r  c #66895C",
"t  c #698E5F",
"y  c #6A8564",
"u  c #6A8B63",
"i  c #6E8269",
"p  c #738D6C",
"a  c #6E9463",
"s  c #709366",
"d  c #729769",
"f  c #769E6B",
"g  c #789C6F",
"h  c #778274",
"j  c #7B8179",
"k  c #7A9372",
"l  c #7F9E76",
"z  c #71A16C",
"x  c #79A16D",
"c  c #7DA472",
"v  c #7BAD75",
"b  c #7EAF7A",
"n  c #7CB077",
"m  c #82897F",
"M  c #82957D",
"N  c #829B7C",
"B  c #81A676",
"V  c #82AB76",
"C  c #85AC7B",
"Z  c #89AE7E",
"A  c #85B57F",
"S  c #89B27E",
"D  c #848A82",
"F  c #898F86",
"G  c #8D928B",
"H  c #989C96",
"J  c #8DA587",
"K  c #8DAF83",
"L  c #85B480",
"P  c #8DB283",
"I  c #8FB489",
"U  c #8DB989",
"Y  c #90B486",
"T  c #94B48C",
"R  c #96B88E",
"E  c #98B98F",
"W  c #97AE90",
"Q  c #9AAE95",
"!  c #9FA39D",
"~  c #96B690",
"^  c #9AB393",
"/  c #9BBB93",
"(  c #9EB09B",
")  c #9EBB99",
"_  c #A0A49E",
"`  c #A2BD9B",
"'  c #AAAEA8",
"]  c #A6BBA2",
"[  c #ACB0AA",
"{  c #B0B3AF",
"}  c #B1B9AF",
"|  c #B3BBB1",
" . c gray",
".. c #A4C0A0",
"X. c #AAC2A3",
"o. c #A7C8A4",
"O. c #AEC4A9",
"+. c #B1C6AC",
"@. c #B4C5B1",
"#. c #B7C8B4",
"$. c #B8C8B3",
"%. c #BDC1BB",
"&. c #BED3BB",
"*. c #C1C6BF",
"=. c #C2C3C2",
"-. c #C5CAC4",
";. c #CACBCA",
":. c #C8D8C7",
">. c #CED4CD",
",. c #CED9CC",
"<. c #D1D4CF",
"1. c #D3D3D2",
"2. c #D6DAD4",
"3. c #D8DED6",
"4. c #DBDDDA",
"5. c #DDE2DC",
"6. c #E1E4DF",
"7. c #E2E4E2",
"8. c #E6E8E6",
"9. c #E9EAE7",
"0. c #E9E9E9",
"q. c #F7F6F5",
"w. c #F6F8F5",
"e. c #F8FAF7",
"r. c #FEFEFD",
"t. c None",
"y. c black",
"u. c black",
/* pixels */
"t.t.t.t.t.t.t.t.t.t.t.t.t.t.t.t.t.t.t.t.t.t.t.t.t.t.t.t.t.t.t.t.",
"t.t.t.t.t.t.t.t.t.t.t.t.t.t.t.8.8.t.t.t.t.t.t.t.t.t.t.t.t.t.t.t.",
"t.t.t.t.t.t.t.t.t.t.9.:.o.U n n n n U o.:.9.t.t.t.t.t.t.t.t.t.t.",
"t.t.t.t.t.t.t.t.9.&.S U ` O.#.#.#.#.O.` U A *.9.t.t.t.t.t.t.t.t.",
"t.t.t.t.t.t.t.5.U E X.+.O.X.X.X...X.X.O.+.O.E U 5.t.t.t.t.t.t.t.",
"t.t.t.t.t.t.,.b E O.X.` ` / ` 9 / / E ` ` X.O./ n ,.t.t.t.t.t.t.",
"t.t.t.t.t.2.v ) ` ` / / / / q q ^ / / ` / / ` X.) v 5.t.t.t.t.t.",
"t.t.t.t.7.C R ` ` E / E ^ 4 2.q / ~ / E E Y S U / R S 6.t.t.t.t.",
"t.t.t.t...I / / ~ R ~ M F 0.1.1 T R E P S S P S P / I ] t.t.t.t.",
"t.t.t.5.f / / / T F 9 =.r.r.<.q 8 0 i k B Z S S S P / z 3.t.t.t.",
"t.t.t.) P T J 8 8 =.e.r.r.e.r.r.r.q.9.%.D - p Z S S P P ) t.t.t.",
"t.t.0.f T $ 5 %.r.r.r.r.r.r.r.r.r.r.r.r.r.0.[ h s C S T z 0.t.t.",
"0.0.>.c P F 2 1 G 1.r.r.r.r.r.r.r.r.r.r.r.r.r.q.D 2 C P c >.t.t.",
"8.7.@.c S U Y ~ N ; j 2.r.r.4.' =.0.r.r.e.r.r.r.r.9 g C c #.t.t.",
"7.5.` c S P P ~ / E N - ! r.>.  : - G 6.r.r.r.r.r.=.* B c ] t.t.",
"6.5.` c C P P R E R R R 2 9 6.> B S u ; 6.r.r.r.r.5.X b c ] t.t.",
"8.7.] x C Z Z K Y E E E Y y 1 m p C V e F r.r.r.r.4.o B f ] t.t.",
"0.0.+.d B C C Z Z Z Z E Y S p $ e B x d 5 r.r.r.r.{ = c d @.t.t.",
"t.t.<.u B V V C C B x V C C C V f x x d 8 r.r.r.e.5 d V u >.t.t.",
"t.t.0.u x B B B B g x f f B x x f x f 3 G r.r.r.' & x x u 0.t.t.",
"t.t.t.Q a x V V B B x f f f x x f x f + ;.r.r.1.# f c a ^ t.t.t.",
"t.t.t.5.r x B x x x x x f f f f f f , j r.r.2.% y x x e 4.t.t.t.",
"t.t.t.t._ t x x x x x x x x f f f u $ 6.r.<.% 3 x x t ( t.t.t.t.",
"t.t.t.t.8.s t x x x x f f x x x t O ;.r._ o e f x u p 8.t.t.t.t.",
"t.t.t.t.t.4.e t x x f f f f x 3 $ ;.2.1 + a x x t e 4.t.t.t.t.t.",
"t.t.t.t.t.t.2.y r x f x x a # O H q o < f f f r y 2.t.t.t.t.t.t.",
"t.t.t.t.t.t.t.5.M < u g f r . + + 3 f f f a 3 F 5.t.t.t.t.t.t.t.",
"t.t.t.t.t.t.0.7.4.| i < e a s z f s a r , y { 4.7.0.t.t.t.t.t.t.",
"t.t.t.t.t.t.2.0.t.0.0.0.-.i i : = y k 4.7.4.8.4.1.1.t.t.t.t.t.t.",
"t.t.t.t.t.t.t.t.0.8.7.1.<.;.=.=.=.;.;.;.;.4.0.0.t.t.t.t.t.t.t.t.",
"t.t.t.t.t.t.t.t.0.7.;. . . . . . . . . . .;.7.0.t.t.t.t.t.t.t.t.",
"t.t.t.t.t.t.t.t.0.7.;.=.=. .=. .=. .=. .-.1.7.0.t.t.t.t.t.t.t.t."
};
