/* XPM */
static char *undo[] = {
/* columns rows colors chars-per-pixel */
"28 28 173 2",
"   c #1E340D",
".  c #26480D",
"X  c #294C0F",
"o  c #2A520F",
"O  c #2F590F",
"+  c #274611",
"@  c #294912",
"#  c #2E4A19",
"$  c #304E1B",
"%  c #2D5311",
"&  c #335D13",
"*  c #35541D",
"=  c #37581F",
"-  c #385D1D",
";  c #366711",
":  c #396C12",
">  c #3A661C",
",  c #3C7412",
"<  c #3E7B12",
"1  c #344329",
"2  c #355220",
"3  c #395226",
"4  c #3B5B23",
"5  c #3F562E",
"6  c #3C4336",
"7  c #427E14",
"8  c #445B33",
"9  c #44652B",
"0  c #547A3B",
"q  c #565854",
"w  c #536F40",
"e  c #536249",
"r  c #636D5B",
"t  c #647A53",
"y  c gray38",
"u  c #676D62",
"i  c #6A7264",
"p  c #6D7A64",
"a  c #71756E",
"s  c #727C6B",
"d  c #757972",
"f  c #797F75",
"g  c #7C7E7B",
"h  c #3E8310",
"j  c #448415",
"k  c #468914",
"l  c #498C17",
"z  c #4B8F18",
"x  c #469110",
"c  c #4B9315",
"v  c #4D9C13",
"b  c #4D9318",
"n  c #4F9818",
"m  c #529C1A",
"M  c #51A415",
"N  c #54AA15",
"B  c #54A21A",
"V  c #58A71C",
"C  c #55A91B",
"Z  c #58A81B",
"A  c #56B416",
"S  c #59B417",
"D  c #5BB31D",
"F  c #4E812C",
"G  c #569D22",
"H  c #58982E",
"J  c #5C8D3C",
"K  c #5CAE24",
"L  c #5DB225",
"P  c #62B22A",
"I  c #63B828",
"U  c #68B631",
"Y  c #6BBB35",
"T  c #64C523",
"R  c #6FC437",
"E  c #71CA36",
"W  c #72C23B",
"Q  c #608846",
"!  c #74BC42",
"~  c #76BB48",
"^  c #78BF49",
"/  c #718065",
"(  c #748A66",
")  c #77C144",
"_  c #79C246",
"`  c #7CC44A",
"'  c #829D6D",
"]  c #81847E",
"[  c #849479",
"{  c #88987C",
"}  c #82A26C",
"|  c #81C454",
" . c #85CB55",
".. c #90CF66",
"X. c #92CA6C",
"o. c #91D464",
"O. c #94D06C",
"+. c #93C571",
"@. c #96CD71",
"#. c #99CE74",
"$. c #9BD475",
"%. c #9ED579",
"&. c #A1D67D",
"*. c #A2D97C",
"=. c #838581",
"-. c #899184",
";. c #8F908E",
":. c #939B8E",
">. c #949593",
",. c #989B96",
"<. c #9D9E9D",
"1. c #95AD83",
"2. c #9BAE8C",
"3. c #A0AE95",
"4. c #A0A09F",
"5. c #AAAAA9",
"6. c gray71",
"7. c #BCBCBC",
"8. c #A1C887",
"9. c #A3D382",
"0. c #A8D58A",
"q. c #ADDD8C",
"w. c #B3DC94",
"e. c #B4D89D",
"r. c #B4E395",
"t. c #B9E19D",
"y. c #B3C6A6",
"u. c #B1C8A0",
"i. c #B8D6A2",
"p. c #B9D9A2",
"a. c #BDDBAA",
"s. c #BBC8B3",
"d. c #C0DCAE",
"f. c #C2DDB0",
"g. c #C7DEBA",
"h. c #C3E5AB",
"j. c #C6EBAE",
"k. c #C9E8B3",
"l. c #CBE0BD",
"z. c #CEE9BA",
"x. c #D1EBBE",
"c. c #C3C3C3",
"v. c #CBCACB",
"b. c #CBD8C1",
"n. c #D0D1CF",
"m. c #D6D5D6",
"M. c #DCDBDD",
"N. c #CDE1C1",
"B. c #D0E2C4",
"V. c #D4EEC3",
"C. c #D9EECA",
"Z. c #D7F1C5",
"A. c #DDF1CD",
"S. c #D7E4D1",
"D. c #DDE4DA",
"F. c #E1E7DE",
"G. c #E3E9DE",
"H. c #E5F4DA",
"J. c #E2E4E3",
"K. c #E5E8E4",
"L. c #E8E7E8",
"P. c #EAEAEA",
"I. c #ECF7E4",
"U. c #EEF8E7",
"Y. c #EFF4EB",
"T. c #EFF8E9",
"R. c #F0F9E9",
"E. c #F3F4F3",
"W. c #F5FBF2",
"Q. c #F9FCF6",
"!. c #FEFEFE",
"~. c black",
"^. c None",
/* pixels */
"^.^.^.^.^.^.^.^.D.f.0.$.%.%.*.$.&.0.g.J.^.^.^.^.^.^.^.^.",
"^.^.^.^.^.^.F.p.&.t.Z.U.W.Q.W.W.H.x.q.&.f.K.^.^.^.^.^.^.",
"^.^.^.^.^.N.*.t.I.W.W.Q.Y.>.,.W.Q.Q.R.H.q.9.S.^.^.^.^.^.",
"^.^.^.P.a.$.V.R.U.U.R.G.] y a I.I.I.I.I.I.h.O.N.^.^.^.^.",
"^.^.^.a.$.C.H.H.H.H.b.a <.4.:.H.H.H.H.H.H.H.k.o.B.^.^.^.",
"^.^.l.O.x.C.A.H.C.3.u 6.Q.g u.H.A.C.C.C.C.C.C.p...D.^.^.",
"^.J.O.t.V.x.z.3.s g M.!.P.q / { 2.u.h.x.x.z.z.z.*.9.P.^.",
"^.e. .h.i.1.p a 7.Q.!.!.!.m.7.5.;.d i ( { e.h.h.w.W g.^.",
"G.` G t u =.c.E.!.!.!.!.!.!.!.!.!.!.L.7.=.r ' 9._ S @.^.",
"d.L , 6 >.J.!.!.!.!.!.!.!.!.!.!.!.!.!.!.!.M.=.9 B D Y S.",
"#.N V l : 8 f v.!.!.!.!.!.!.!.!.!.!.!.!.!.!.!.<.- Z S p.",
") B V V V m 7 4 a m.!.!.E.5.7.M.Q.!.!.!.!.!.!.!.] 7 A #.",
"I B B B B B V B , 8 <.E.Y.q % 5 r 7.Q.Q.Q.Q.Q.Q.n.4 N | ",
"D B m B m m m B B c & i D.( 7 m j * :.R.R.R.R.T.F.8 m _ ",
"S m m m m m m m m m m : e -.& B B c 2 s.H.H.H.H.B.8 v ) ",
"P m n m n m n m m m m m , 1 # m m B : [ Z.Z.V.Z.y.= M | ",
"! n b n b n b n n n n n n 7 7 G n n : ( j.h.h.j.( : M #.",
"$.v b b b b b b b b b b b n n b b n & } r.r.r.8.3 l N p.",
"d.B c z z z z z z z z z b z b b b l 2 +.*.*.&.w ; c U S.",
"F.^ c l z l l z z z z z z z z z z & 0 o.o.o.Q % b v X.^.",
"^.e.v k l l l l l l l l l l l z < $ _ ` ` J @ k l K l.^.",
"^.K.| c j l j j l l j l l l k j + H E R F @ 7 z v $.P.^.",
"^.^.N.P k j j l j j j l j j < + F T L > + j l x ^ D.^.^.",
"^.^.^.a.K j j 7 j j j j j : + h A k @ O j j l Y B.^.^.^.",
"^.^.^.P.a.P k 7 j j 7 7 % + < h o X , j j x ! N.^.^.^.^.",
"^.^.^.^.^.N.` v j 7 7 ,   + . X : h h k M X.S.^.^.^.^.^.",
"^.^.^.^.^.^.F.e.~ m k k < , < j k l B | d.K.^.^.^.^.^.^.",
"^.^.^.^.^.^.^.^.K.a.@.Y K C C L ~ %.g.K.^.^.^.^.^.^.^.^."
};
