/* XPM */
static char *undo_dis[] = {
/* columns rows colors chars-per-pixel */
"28 28 110 2",
"   c #343931",
".  c #444B3F",
"X  c #464C42",
"o  c #484D44",
"O  c #4A5145",
"+  c #4F5649",
"@  c #535B4D",
"#  c #555B51",
"$  c #595E56",
"%  c #595B58",
"&  c #5B6354",
"*  c #5E6857",
"=  c #5E655A",
"-  c #61665D",
";  c #67725F",
":  c #616160",
">  c #686E64",
",  c gray42",
"<  c #667060",
"1  c #6B7662",
"2  c #6E7965",
"3  c #707C67",
"4  c #747673",
"5  c #747A70",
"6  c #787A77",
"7  c #7B7D7A",
"8  c #75816C",
"9  c #79866F",
"0  c #7A8770",
"q  c #7E8B74",
"w  c #818E77",
"e  c #81847F",
"r  c #819077",
"t  c #84937A",
"y  c #88977D",
"u  c #8A997F",
"i  c #838582",
"p  c #878A85",
"a  c #8A8B8A",
"s  c #8D9687",
"d  c #8D9C82",
"f  c #909F85",
"g  c #92968F",
"h  c #919B89",
"j  c #929392",
"k  c #9E9F9D",
"l  c #92A186",
"z  c #95A589",
"x  c #97A98B",
"c  c #9AAA8E",
"v  c #9DAE91",
"b  c #9FB092",
"n  c #A0A39D",
"m  c #A2B395",
"M  c #A5B798",
"N  c #A6B999",
"B  c #AABC9D",
"V  c #A4A5A3",
"C  c #A7ABA4",
"Z  c #ACADAB",
"A  c #ABB2A6",
"S  c #ADBEA1",
"D  c gray69",
"F  c #B9BEB5",
"G  c #BBBBBB",
"H  c #AEC29F",
"J  c #B2C5A4",
"K  c #B4CAA6",
"L  c #B6C7AA",
"P  c #B8C7AD",
"I  c #BACCAE",
"U  c #BDCDB3",
"Y  c #C1D2B6",
"T  c #C3D9B5",
"R  c #C4D3BA",
"E  c #C5D8B9",
"W  c #CADEBD",
"Q  c gray78",
"!  c #CDCDCD",
"~  c #CBD7C3",
"^  c #CDDAC5",
"/  c #D0DDC7",
"(  c #D0D5CD",
")  c #D3DECC",
"_  c #D2D2D2",
"`  c #D6DCD2",
"'  c #D9DED5",
"]  c #D2E3C6",
"[  c #D5E1CC",
"{  c #DAE2D5",
"}  c #DCEAD3",
"|  c #DEE3DB",
" . c #E0E4DD",
".. c #E1EDD9",
"X. c #E5F1DD",
"o. c #E0DFE0",
"O. c #E4E6E3",
"+. c #E7E9E5",
"@. c #EAEAE9",
"#. c #E7F1E0",
"$. c #ECF6E6",
"%. c #EEF5E9",
"&. c #EFF9E8",
"*. c #F2FAEC",
"=. c #F2F2F3",
"-. c #F6FDF2",
";. c #FAFFF6",
":. c #FEFEFE",
">. c black",
",. c None",
/* pixels */
",.,.,.,.,.,.,.,.+.{ ) [ } } ..} [ ) | @.,.,.,.,.,.,.,.,.",
",.,.,.,.,.,.+.' { %.:.:.:.:.:.:.:.;.#.[ { @.,.,.,.,.,.,.",
",.,.,.,.,.| [ %.:.:.:.:.:.V Z :.:.:.:.:.+.[ O.,.,.,.,.,.",
",.,.,.@.' } :.:.:.:.:.:.j , 7 :.:.:.:.:.:.*.] | ,.,.,.,.",
",.,.,.{ } :.:.:.:.:.@.i Z D Z :.:.:.:.:.:.:.;./  .,.,.,.",
",.,.| [ ;.:.:.:.:.G 4 Q :.a ` :.:.:.:.:.:.:.:.*.^ +.,.,.",
",.+./ &.;.;.;.( i a =.:.:.: p V G ' %.;.;.;.;.;.../ @.,.",
",.` ^ *.+.F i i ( :.:.:.:.@._ G k i 6 a F #.-.*.$.Y | ,.",
"+.Y v e 6 j _ :.:.:.:.:.:.:.:.:.:.:.:._ j 4 C { E J ^ ,.",
"| L 3 o V ;.:.:.:.:.:.:.:.:.:.:.:.:.:.:.:.=.j 1 m J I O.",
"~ B m s > - a o.:.:.:.:.:.:.:.:.:.:.:.:.:.:.:.Z * M J ` ",
"U N M M M m q $ i @.:.:.:.G ! =.:.:.:.:.:.:.:.:.g 9 H ~ ",
"L m m m m m m v 0 $ D :.:.% # = 6 ! :.:.:.:.:.:.O.= M R ",
"H m c c v v m m m l * 7 ;.j 0 m t # C :.:.:.:.:.:.- v U ",
"J c c c v v v v v v v 2 , k * b m z # ' :.:.:.:.=.= c Y ",
"J c c c x x x x x x x v 3 o O x c v 1 n :.:.:.:.` # m Y ",
"I x z z z z z z z z z z x w q x x v 2 g ;.-.-.;.g < M ~ ",
"^ c l l f z l l f z z z z z z z z z & A &.$.&.) # d N { ",
"| M d f f d f f f f f f f f f f h y + ^ X.....5 < x J O.",
"+.U f u d d d d d d f d f d f f z * e } } } s @ d x ~ ,.",
",.` b y y y y u u u d y u u d d 5 + Y ] ] h O t l B  .,.",
",.+.U l t y y y y y y y u u u q o x W E w . w u x ~ @.,.",
",.,. .S u w t t t t t t t u q . t T J ; O w y l U O.,.,.",
",.,.,.| N y w w r t r r t 2 . r K y o & w t f J  .,.,.,.",
",.,.,.@.{ S u w q w w q @ o q r @ O 3 t t f P  .,.,.,.,.",
",.,.,.,.,. .U c t q w 3   X X + ; w w y m R O.,.,.,.,.,.",
",.,.,.,.,.,.+.` P c u t 8 3 0 t y f m U | +.,.,.,.,.,.,.",
",.,.,.,.,.,.,.,.+.{ ~ P S N N S P ~  .+.,.,.,.,.,.,.,.,."
};
