/* XPM */
static char *undo[] = {
/* columns rows colors chars-per-pixel */
"32 32 256 2",
"   c #29541C",
".  c #2D641D",
"X  c #316C1F",
"o  c #2E701B",
"O  c #2F7D19",
"+  c #32741E",
"@  c #317C1A",
"#  c #314F28",
"$  c #315C25",
"%  c #375A2C",
"&  c #395C30",
"*  c #336524",
"=  c #366C26",
"-  c #386C28",
";  c #357024",
":  c #387525",
">  c #377D22",
",  c #3A7D27",
"<  c #3F6434",
"1  c #3F6A31",
"2  c #406934",
"3  c #46633D",
"4  c #486F3D",
"5  c #437B33",
"6  c #477439",
"7  c #48753D",
"8  c #4B793E",
"9  c #4A6343",
"0  c #4B6C42",
"q  c #506D47",
"w  c #527C47",
"e  c #587D4C",
"r  c #566C50",
"t  c #5A7252",
"y  c #5B7A53",
"u  c #647D5C",
"i  c #697D63",
"p  c #34841C",
"a  c #368D1E",
"s  c #36921C",
"d  c #39961E",
"f  c #37981B",
"g  c #3B9D1E",
"h  c #3CA01F",
"j  c #368D21",
"k  c #3B8F25",
"l  c #3C8228",
"z  c #3E8A2A",
"x  c #3A9421",
"c  c #3C9D21",
"v  c #3C9829",
"b  c #3DA221",
"n  c #409627",
"m  c #42942C",
"M  c #429D2B",
"N  c #478C35",
"B  c #498D37",
"V  c #4C813D",
"C  c #4C893C",
"Z  c #459431",
"A  c #4A9137",
"S  c #469835",
"D  c #4C933C",
"F  c #41A524",
"G  c #45AC27",
"H  c #45A52A",
"J  c #48A52D",
"K  c #45A92A",
"L  c #49AD2C",
"P  c #4BB22E",
"I  c #46A630",
"U  c #49A734",
"Y  c #4DAB34",
"T  c #4DA43B",
"R  c #4BA939",
"E  c #50AC36",
"W  c #53AE3A",
"Q  c #4DB231",
"!  c #51B436",
"~  c #55B33C",
"^  c #59B33E",
"/  c #4E8540",
"(  c #559445",
")  c #569947",
"_  c #589B46",
"`  c #5A934B",
"'  c #629C55",
"]  c #6A995E",
"[  c #54A146",
"{  c #55AA43",
"}  c #58AF46",
"|  c #5CA24A",
" . c #5AAD4B",
".. c #54B346",
"X. c #5BB343",
"o. c #57B44A",
"O. c #5DB34C",
"+. c #5AB84E",
"@. c #5FB253",
"#. c #5EBB52",
"$. c #62AC4E",
"%. c #60B547",
"&. c #63B54C",
"*. c #65B94D",
"=. c #6BA25E",
"-. c #65A85A",
";. c #64B654",
":. c #68B752",
">. c #66B952",
",. c #6ABB54",
"<. c #64B758",
"1. c #64BC59",
"2. c #6DBC5B",
"3. c #72BD5D",
"4. c #6E8368",
"5. c #748A6D",
"6. c #778E70",
"7. c #799072",
"8. c #7F9078",
"9. c #70A264",
"0. c #73AB68",
"q. c #79AC6D",
"w. c #6EB461",
"e. c #74BD63",
"r. c #79BE66",
"t. c #74B369",
"y. c #76BE68",
"u. c #7DAB71",
"i. c #7DBB72",
"p. c #6EC265",
"a. c #7AC067",
"s. c #76C56E",
"d. c #7DC06A",
"f. c #7CC373",
"g. c #84957E",
"h. c #849A7C",
"j. c #82AB77",
"k. c #86B97D",
"l. c #83C274",
"z. c #88C377",
"x. c #87C47C",
"c. c #8BC37D",
"v. c #85CA7E",
"b. c #869980",
"n. c #8A9B84",
"m. c #8BB380",
"M. c #95B28E",
"N. c #95A490",
"B. c #9BAC95",
"V. c #A0AF9A",
"C. c #AAB7A5",
"Z. c #ACBEA7",
"A. c #AFB2AB",
"S. c #AFBAAA",
"D. c #B1BCAB",
"F. c #B8BEB3",
"G. c #8FC285",
"H. c #8BCC84",
"J. c #95C58B",
"K. c #93C98D",
"L. c #9AC093",
"P. c #9FC299",
"I. c #9FC999",
"U. c #9BD396",
"Y. c #9ED298",
"T. c #A1CF9B",
"R. c #A1D39B",
"E. c #ACC5A6",
"W. c #A7C8A1",
"Q. c #AEC8A8",
"!. c #B2C1AC",
"~. c #A7D5A2",
"^. c #A9D5A4",
"/. c #ADD4A8",
"(. c #AFD8AB",
"). c #BAC3B5",
"_. c #B9CDB4",
"`. c #B5D4B1",
"'. c #B8D3B4",
"]. c #BAD9B7",
"[. c #BCDCB9",
"{. c #C2CBBD",
"}. c #C1D4BD",
"|. c #C2DABD",
" X c #C5CEC1",
".X c #C7D0C2",
"XX c #C9D1C4",
"oX c #C4DDC1",
"OX c #CAD8C7",
"+X c #CDD3CA",
"@X c #CEDDCA",
"#X c #D0DACD",
"$X c #D5D6D5",
"%X c #D8D7D7",
"&X c #D5DBD2",
"*X c #D8D7D8",
"=X c gainsboro",
"-X c #E0DFDF",
";X c #CBE0C7",
":X c #D1E1CF",
">X c #D4E3D2",
",X c #D8E5D7",
"<X c #DCE4DA",
"1X c #E0E6DE",
"2X c #E3E4E3",
"3X c #E6E9E5",
"4X c #E9EDE5",
"5X c #E9EAE9",
"6X c #EEF1EA",
"7X c #F2F4ED",
"8X c #F6F7F2",
"9X c #F9FAF6",
"0X c #FEFCFA",
"qX c None",
"wX c black",
"eX c black",
"rX c black",
"tX c black",
"yX c black",
"uX c black",
"iX c black",
"pX c black",
"aX c black",
"sX c black",
"dX c black",
"fX c black",
"gX c black",
"hX c black",
"jX c black",
"kX c black",
"lX c black",
"zX c black",
"xX c black",
"cX c black",
"vX c black",
"bX c black",
"nX c black",
"mX c black",
"MX c black",
"NX c black",
"BX c black",
"VX c black",
"CX c black",
"ZX c black",
"AX c black",
"SX c black",
"DX c black",
"FX c black",
"GX c black",
"HX c black",
"JX c black",
"KX c black",
"LX c black",
"PX c black",
"IX c black",
"UX c black",
/* pixels */
"qXqXqXqXqXqXqXqXqXqXqXqXqXqX5X5X5XqXqXqXqXqXqXqXqXqXqXqXqXqXqXqX",
"qXqXqXqXqXqXqXqXqXqX5X>X[.^.U.U.U.R.(.;X1XqXqXqXqXqXqXqXqXqXqXqX",
"qXqXqXqXqXqXqXqX4X@XR.v.p.#.#.>.>.+.1.s.H.(.,XqXqXqXqXqXqXqXqXqX",
"qXqXqXqXqXqXqX<X~.s.#.e.l.G.K.J.K.J.v.f.1.1.v.[.4XqXqXqXqXqXqXqX",
"qXqXqXqXqX5X>XH.*.e.x.c.l.l.d.r.a.a.l.z.c.z.2.1.^.1XqXqXqXqXqXqX",
"qXqXqXqXqX:Xf.o.r.l.d.3.,.2.2.,.,.2.3.3.r.l.z.2.+.Y.2XqXqXqXqXqX",
"qXqXqXqX<Xx...e.a.3.,.,.,.,.$.4 ( ,.,.,.*.,.3.a.<.+.~.3XqXqXqXqX",
"qXqXqX2XR...2.e.3.,.,.,.,.| y i ( ,.,.*.^ ! Q ^ >.O.1.;X5XqXqXqX",
"qXqXqX|.<.:.3.2.:.>.>.:.( u .X7.$.*.^ ! Q P P P ~ *.O.f.<XqXqXqX",
"qXqX2XK.R :.,.>.>.>.| w h.3X4Xt C A M J P P P P P ^ O.o.].5XqXqX",
"qXqXoX@.%.:.:.$.( w 5. X9X0X8X+XD.B.6.e 5 m K L P P X.} i.1XqXqX",
"qXqX^.R %.&.V q n.#X8X0X0X0X0X0X0X0X9X6X.Xh.6 m P L ! W @.>XqXqX",
"5X1XJ.R X.%.C 0 6.).4X0X0X0X0X0X0X0X0X0X0X0X#Xu l L Q Y  .`.5XqX",
"2X@Xi.R W X.&.&._ 8 y D.8X0X7X.X&X7X0X0X9X0X0X3Xy v G L { I.5XqX",
"<X|.w.U W X.%.:.>.>.| 7 4.&X4X3 2 e B.7X0X0X0X0XD.: G L R K.5XqX",
"<X|.2.I W W } %.:.:.>.:.B 0 !.5.m H ; 6.7X0X0X0X#X- F K T m.3XqX",
"3X@Xt.H J E W ^ %.&.:.*.^ M 2 r , L F * {.0X0X0XXX- F F T J.3XqX",
"qX<Xk.M J E E E Y E X.%.^ ! J . > b h + A.0X0X0XN.+ F F D W.5XqX",
"qX5XT.x G Y U U J F H H K L L H g g h + F.0X0X3X0 d F b [ [.5XqX",
"qXqX'.Z M K K J F F h g g F F h g g d 2 <X0X9Xg.; F F g -.<XqXqX",
"qXqX&X0.x F K K F F g g h g h h b h o g.8X8XV.$ b b b Z M.3XqXqX",
"qXqX5XQ.Z c F F F h b g g g h g h p 3 1X9XV.$ d b b x $.>XqXqXqX",
"qXqXqX&Xq.s h F h h h h h h h h a % {.6Xh.$ d b b g Z V.3XqXqXqX",
"qXqXqX5X}.) s h h h g h h h h p & C.{.r . c h h g j u.<XqXqXqXqX",
"qXqXqXqX3XQ.D s g h h g h g . # 5.i $ @ g h g x a =.@X5XqXqXqXqX",
"qXqXqXqXqX3XE.( a d g h h f     . @ f h h g f k 9.OX5XqXqXqXqXqX",
"qXqXqXqXqXqX3X_.' N a g g g f f g h g g f a N j.:X5XqXqXqXqXqXqX",
"qXqXqXqXqX5X3X2X+XM.` Z d s s f s s s x N ] S.*X-X3X5XqXqXqXqXqX",
"qXqXqXqXqX3X=X5X5X-X$X_.k.9.` N B ` j.E. X+X2X-X*X=X5XqXqXqXqXqX",
"qXqXqXqXqX5X5X5X5X5X2X-X-X=X$X$X$X&X=X2X2X-X2X2X5X5X5XqXqXqXqXqX",
"qXqXqXqXqXqXqXqX5X2X-X=X=X=X=X=X=X%X$X$X*X*X*X-X5X5XqXqXqXqXqXqX",
"qXqXqXqXqXqXqXqX5X5X-X-X-X-X-X=X=X=X%X%X*X*X*X*X2X5XqXqXqXqXqXqX"
};
