/* XPM */
static char *undo_dis[] = {
/* columns rows colors chars-per-pixel */
"28 28 132 2",
"   c #2B3424",
".  c #38442F",
"X  c #3A4631",
"o  c #3D4A33",
"O  c #3D4339",
"+  c #40433E",
"@  c #424E3A",
"#  c #425137",
"$  c #45533B",
"%  c #48533F",
"&  c #4A5B3E",
"*  c #4A5443",
"=  c #4D5B42",
"-  c #4F534D",
";  c #525B4B",
":  c #575857",
">  c #566A47",
",  c #546648",
"<  c #58654E",
"1  c #576A49",
"2  c #586D48",
"3  c #5D734C",
"4  c #5C6258",
"5  c #60774F",
"6  c #60784F",
"7  c #646F5C",
"8  c #657D53",
"9  c gray38",
"0  c #676C64",
"q  c #6B6E68",
"w  c #6B7A61",
"e  c #70746E",
"r  c #717A6A",
"t  c #747572",
"y  c #767973",
"u  c #787D75",
"i  c #7D7E7C",
"p  c #678155",
"a  c #698357",
"s  c #6C8559",
"d  c #6E895B",
"f  c #728D5E",
"g  c #74915E",
"h  c #798B6D",
"j  c #769261",
"k  c #799664",
"l  c #7C9A66",
"z  c #7E9C68",
"x  c #819F6A",
"c  c #818A7B",
"v  c #83A26C",
"b  c #87A96E",
"n  c #88AA6F",
"m  c #87A870",
"M  c #8AAB73",
"N  c #8FAF78",
"B  c #8FB275",
"V  c #90B577",
"C  c #92B37B",
"Z  c #96B87F",
"A  c #848583",
"S  c #868884",
"D  c #8E918C",
"F  c #929B8B",
"G  c #959595",
"H  c #979995",
"J  c #9C9D9C",
"K  c #95A28D",
"L  c #97B681",
"P  c #9BBB85",
"I  c #9EBB8B",
"U  c #A2BF8F",
"Y  c #A4AD9C",
"T  c #A3BF90",
"R  c #A0A0A0",
"E  c #A9AEA4",
"W  c #AAAAAA",
"Q  c gray71",
"!  c #BCBCBC",
"~  c #9EC584",
"^  c #A3C38D",
"/  c #A6CA8F",
"(  c #A5C292",
")  c #A8C296",
"_  c #ABC698",
"`  c #AFCD9B",
"'  c #B1C5A3",
"]  c #B5CCA5",
"[  c #B7CEA8",
"{  c #B9CEAC",
"}  c #B8D2A7",
"|  c #BBD3AB",
" . c #BBC3B5",
".. c #BFD3B1",
"X. c #C0C7BA",
"o. c #C3C8BF",
"O. c #C1D6B3",
"+. c #C3D9B4",
"@. c #CADCBD",
"#. c #C3C3C3",
"$. c #CBCBCB",
"%. c #CAD6C1",
"&. c #CCD9C3",
"*. c #D2DCCB",
"=. c gray83",
"-. c #D5DED0",
";. c #DCDCDD",
":. c #D1E2C5",
">. c #D5E3CB",
",. c #D8E6CF",
"<. c #D6E0D0",
"1. c #D9E2D3",
"2. c #DDE9D5",
"3. c #DEE3DB",
"4. c #DFEAD8",
"5. c #E0E4DE",
"6. c #E3EDDC",
"7. c #E6F0DF",
"8. c #E4E6E3",
"9. c #E6ECE2",
"0. c #E8EBE7",
"q. c #E9E9E9",
"w. c #E7F1E1",
"e. c #EAF2E4",
"r. c #EDF4E9",
"t. c #F1F6ED",
"y. c #F3F5F1",
"u. c #F5F9F3",
"i. c #F8FBF7",
"p. c #FDFDFD",
"a. c black",
"s. c None",
/* pixels */
"s.s.s.s.s.s.s.s.8.*.O.| O.+.+.| | +.-.0.s.s.s.s.s.s.s.s.",
"s.s.s.s.s.s.8.&.O.:.6.u.i.p.i.i.t.6.%.O.*.0.s.s.s.s.s.s.",
"s.s.s.s.s.1.| >.t.i.i.p.y.G J u.i.i.i.9.@.O.3.s.s.s.s.s.",
"s.s.s.q.*.| 6.u.u.u.u.0.S 9 t y.u.t.u.u.t.,.{ 1.s.s.s.s.",
"s.s.s.*.| 9.r.r.r.t.=.y J R J r.r.r.r.r.r.t.2.] 1.s.s.s.",
"s.s.1.} 4.w.7.7.6.E 0 Q i.i X.e.e.9.6.7.6.6.6.>.] 8.s.s.",
"s.8.} *.6.5.2.! y i ;.p.q.: u F E X.*.4.6.4.4.4.+...q.s.",
"s.%.` >.@.Y r t ! i.p.p.p.=.! W D y q u Y @.>.>.@.^ -.s.",
"8.( x r q A #.u.p.p.p.p.p.p.p.p.p.p.q.! S 0 F ..( V [ s.",
"*.C 5 + G 8.p.p.p.p.p.p.p.p.p.p.p.p.p.p.p.;.A < v V P 5.",
"{ n v f < ; i $.p.p.p.p.p.p.p.p.p.p.p.p.p.p.p.R = m B &.",
"^ m m m m x 8 = y =.p.p.y.W ! ;.i.p.p.p.p.p.p.p.A 8 B } ",
"Z v v v v v m x 8 * J u.y.- $ = q ! i.p.i.p.p.p.$.; b _ ",
"V x x x x x x x v k = e 8.A 8 x a $ H u.u.u.u.u.9.; x ^ ",
"N x x x z z z z z z z 1 4 D = v v k % o.t.e.e.t.3.; z ^ ",
"C l l k l l l z l l z x 3 O o l z v 2 D 7.7.6.7. .% v _ ",
"U l k k k k k k k k k k l 8 8 l l z 1 c 4.,.,.2.c > v } ",
"[ l f k k j k k k k k k k l k k k k & K :.:.:.{ % f b %.",
"*.m f f f j f f j j j g j j j j k d @ ' +.+.O.7 , k L 3.",
"9.U k f f f f f f f f f f j f j j & w | } } h # g l [ s.",
"s.%.x f f f f f f f f f f f f f 5 @ I ` ` h o s g N <.s.",
"s.8.) g s s s s d d s d d d d p X z / ^ d X 8 f l { q.s.",
"s.s.1.C f s s s s s s d s d p X s ~ C , o p d g ( 8.s.s.",
"s.s.s.&.M s a a a a a a a 2 . p V d X & a s f P 1.s.s.s.",
"s.s.s.q.*.N f a 8 a a 8 $ . p a # o 3 a a g I 1.s.s.s.s.",
"s.s.s.s.s.1.T l s 8 a 3   . X o 1 8 a d v ' 5.s.s.s.s.s.",
"s.s.s.s.s.s.9.%.I x f a 6 3 8 a d f v ) *.0.s.s.s.s.s.s.",
"s.s.s.s.s.s.s.s.8.*.] P N m m C T | <.q.s.s.s.s.s.s.s.s."
};
