/* XPM */
static char *undo_sel[] = {
/* columns rows colors chars-per-pixel */
"32 32 256 2",
"   c #172613",
".  c #1A2C14",
"X  c #1E2C1A",
"o  c #1B3214",
"O  c #1F3817",
"+  c #222F1E",
"@  c #22311E",
"#  c #213D19",
"$  c #253221",
"%  c #2A3C25",
"&  c #2E3E2A",
"*  c #363F32",
"=  c #17430E",
"-  c #19430E",
";  c #1A4B0D",
":  c #1D530F",
">  c #185D0E",
",  c #1E4514",
"<  c #1C4B12",
"1  c #1D5611",
"2  c #1F5911",
"3  c #204217",
"4  c #224B15",
"5  c #24461B",
"6  c #254E19",
"7  c #284F1C",
"8  c #235415",
"9  c #235E12",
"0  c #255118",
"q  c #29531D",
"w  c #255D18",
"e  c #2B5B1D",
"r  c #1A6412",
"t  c #1C6B14",
"y  c #1E6D18",
"u  c #246113",
"i  c #286417",
"p  c #26611A",
"a  c #2B641B",
"s  c #2D6A1C",
"d  c #30691F",
"f  c #2C4625",
"g  c #33432E",
"h  c #314E2A",
"j  c #2C5221",
"k  c #325C25",
"l  c #325428",
"z  c #375D2E",
"x  c #385F2E",
"c  c #364333",
"v  c #394336",
"b  c #3C4D36",
"n  c #3C4539",
"m  c #3E493B",
"M  c #3E5937",
"N  c #2F6720",
"B  c #2F6820",
"V  c #316722",
"C  c #336B24",
"Z  c #356C2B",
"A  c #3B6D2D",
"S  c #35732D",
"D  c #3D6E32",
"F  c #3D7334",
"G  c #3C7C34",
"H  c #414B3D",
"J  c #405939",
"K  c #406336",
"L  c #416E34",
"P  c #456D3B",
"I  c #486A3E",
"U  c #417134",
"Y  c #45733B",
"T  c #49723D",
"R  c #444C41",
"E  c #495245",
"W  c #4D564A",
"Q  c #4D5849",
"!  c #51584F",
"~  c #575E54",
"^  c #496C40",
"/  c #467340",
"(  c #4C7442",
")  c #4A7942",
"_  c #507446",
"`  c #54754C",
"'  c #5C6259",
"]  c #597751",
"[  c #5E7758",
"{  c #5F7859",
"}  c #607859",
"|  c #646961",
" . c #6D746A",
".. c #70776D",
"X. c #737671",
"o. c #777C74",
"O. c #7A7E77",
"+. c #7C7E7A",
"@. c #5D8955",
"#. c #638B5D",
"$. c #64975F",
"%. c #71856C",
"&. c #689962",
"*. c #7D827A",
"=. c #81857F",
"-. c #81A97D",
";. c gray52",
":. c #858982",
">. c #8A8D87",
",. c #8B8C8B",
"<. c #949493",
"1. c #989795",
"2. c #979896",
"3. c #989897",
"4. c gray60",
"5. c #90B18C",
"6. c #93A090",
"7. c #94AF91",
"8. c #96B192",
"9. c #9EB39B",
"0. c #A4A4A4",
"q. c #A9A9A9",
"w. c #A7BEA4",
"e. c #B2BFAF",
"r. c #BBBBBB",
"t. c #B0C4AC",
"y. c #B3C6B0",
"u. c #B7CBB6",
"i. c #BBCBB6",
"p. c #BCCEBA",
"a. c #C0C9BE",
"s. c gray76",
"d. c #C3C9C2",
"f. c #CBCBCA",
"g. c #C8D4C6",
"h. c #CED6CC",
"j. c LightGray",
"k. c #DCDEDB",
"l. c #DAE0DA",
"z. c #E0E4DF",
"x. c #E4E5E4",
"c. c #E8E8E6",
"v. c gray91",
"b. c None",
"n. c black",
"m. c black",
"M. c black",
"N. c black",
"B. c black",
"V. c black",
"C. c black",
"Z. c black",
"A. c black",
"S. c black",
"D. c black",
"F. c black",
"G. c black",
"H. c black",
"J. c black",
"K. c black",
"L. c black",
"P. c black",
"I. c black",
"U. c black",
"Y. c black",
"T. c black",
"R. c black",
"E. c black",
"W. c black",
"Q. c black",
"!. c black",
"~. c black",
"^. c black",
"/. c black",
"(. c black",
"). c black",
"_. c black",
"`. c black",
"'. c black",
"]. c black",
"[. c black",
"{. c black",
"}. c black",
"|. c black",
" X c black",
".X c black",
"XX c black",
"oX c black",
"OX c black",
"+X c black",
"@X c black",
"#X c black",
"$X c black",
"%X c black",
"&X c black",
"*X c black",
"=X c black",
"-X c black",
";X c black",
":X c black",
">X c black",
",X c black",
"<X c black",
"1X c black",
"2X c black",
"3X c black",
"4X c black",
"5X c black",
"6X c black",
"7X c black",
"8X c black",
"9X c black",
"0X c black",
"qX c black",
"wX c black",
"eX c black",
"rX c black",
"tX c black",
"yX c black",
"uX c black",
"iX c black",
"pX c black",
"aX c black",
"sX c black",
"dX c black",
"fX c black",
"gX c black",
"hX c black",
"jX c black",
"kX c black",
"lX c black",
"zX c black",
"xX c black",
"cX c black",
"vX c black",
"bX c black",
"nX c black",
"mX c black",
"MX c black",
"NX c black",
"BX c black",
"VX c black",
"CX c black",
"ZX c black",
"AX c black",
"SX c black",
"DX c black",
"FX c black",
"GX c black",
"HX c black",
"JX c black",
"KX c black",
"LX c black",
"PX c black",
"IX c black",
"UX c black",
/* pixels */
"b.b.b.b.b.b.b.b.b.b.b.b.b.b.b.b.b.b.b.b.b.b.b.b.b.b.b.b.b.b.b.b.",
"b.b.b.b.b.b.b.b.b.b.b.b.b.b.b.l.l.b.b.b.b.b.b.b.b.b.b.b.b.b.b.b.",
"b.b.b.b.b.b.b.b.b.b.v.&.G y t t t t y G &.v.b.b.b.b.b.b.b.b.b.b.",
"b.b.b.b.b.b.b.b.v.&.y Z ) ] { { { { ` ) S t $.v.b.b.b.b.b.b.b.b.",
"b.b.b.b.b.b.b.p.i S ` ` _ _ ( ( ( ( _ ` ] ` S y u.b.b.b.b.b.b.b.",
"b.b.b.b.b.b.5.r L ` ( ( Y U ( c ^ F U U T _ ] U t 5.b.b.b.b.b.b.",
"b.b.b.b.b.w.r Y T T U U U T H H I U U U U Y Y _ Y r t.b.b.b.b.b.",
"b.b.b.b.h.r D Y U F U D I c *.m P D D U A C s C U D i h.b.b.b.b.",
"b.b.b.b.G Z Y L L D L J W ,.*.& D D D V s s s d C F A G b.b.b.b.",
"b.b.b.y.2 L D F L J m X.2.4.+.R v b l k V V s s s V L r t.b.b.b.",
"b.b.b.S A A K g n ..1.4.1.1.3.3.1.<.,. .E % l s s s C Z S b.b.b.",
"b.b.x.2 A @ v ..1.4.1.1.1.1.3.3.1.1.4.4.3.,.| b q s s A 2 c.b.b.",
"v.v.8.p C x f & ! +.2.3.1.1.3.4.4.1.1.1.1.2.4.<.E 5 s B p 7.b.b.",
"l.h.@.p C Z A A x % R *.2.4.*.| X.,.1.3.1.1.2.4.4.m e s p $.b.b.",
"g.u.Y a V Z A L D D x % ' 2.o.  3 % W :.4.1.1.1.4.X.O s a ) b.b.",
"g.u.F i s C C A D D D D f m :.& a d q & :.4.1.1.2.:.. i p Y b.b.",
"l.h.Y w s V V C A L L L C 0 c E q s i 6 Q 3.3.1.3.=.. i 9 ) b.b.",
"v.v.#.9 s C a V d d d L A d j @ 7 i 9 9 c 3.3.1.4.| # i 9 #.b.b.",
"b.b.9.: i a a a s i i i s d s i 9 9 9 9 v 3.3.3.<.c w i 1 9.b.b.",
"b.b.c.; w a s a i u u u u u u 9 u 9 9 4 ! 3.1.3.| # 9 i ; c.b.b.",
"b.b.b.D 8 i i a i i 9 9 u 9 9 u 9 9 u @ o.3.4.*.@ p u 2 D b.b.b.",
"b.b.b.d.; u i i 9 i u u u u 9 9 9 u 3 H 2.3.*.$ 0 u u < a.b.b.b.",
"b.b.b.b.P 2 u u u u u 9 9 9 9 9 u 8 + :.4.O.$ 4 u u 2 ^ b.b.b.b.",
"b.b.b.b.l.< > u u 9 9 9 9 u u 9 8 + O.1.' . 6 u u : < k.b.b.b.b.",
"b.b.b.b.b.a.; : u 9 9 9 u u 9 4 + o.=.* . w 9 9 : ; a.b.b.b.b.b.",
"b.b.b.b.b.b.t.< : u 9 9 9 8 o + ~ H . 4 9 9 9 1 < t.b.b.b.b.b.b.",
"b.b.b.b.b.b.b.h.j ; 8 9 9 8 . o . < 9 9 9 : < e h.b.b.b.b.b.b.b.",
"b.b.b.b.b.b.v.j.f.%.; - : 2 2 9 9 2 2 : ; ; ..f.j.v.b.b.b.b.b.b.",
"b.b.b.b.b.b.s.v.b.v.v.v.6.6 , O - - q d.f.f.x.j.r.r.b.b.b.b.b.b.",
"b.b.b.b.b.b.b.b.c.z.f.r.q.4.,.,.<.<.<.<.0.f.z.v.b.b.b.b.b.b.b.b.",
"b.b.b.b.b.b.b.b.c.j.4.;.;.;.;.;.;.;.;.;.=.4.j.v.b.b.b.b.b.b.b.b.",
"b.b.b.b.b.b.b.b.c.j.0.,.;.,.,.,.;.,.,.,.1.q.j.v.b.b.b.b.b.b.b.b."
};
