/* XPM */
static char *undo_sel[] = {
/* columns rows colors chars-per-pixel */
"28 28 142 2",
"   c #121F08",
".  c #172A09",
"X  c #192C0A",
"o  c #1C340A",
"O  c #1E390A",
"+  c #1F2818",
"@  c #1F3112",
"#  c #213C0D",
"$  c #223514",
"%  c #223D11",
"&  c #26351A",
"*  c #28361D",
"=  c #293D19",
"-  c #242820",
";  c #2A3720",
":  c #2C3228",
">  c #323B2B",
",  c #333532",
"<  c #3A3A3A",
"1  c #23430B",
"2  c #264B0B",
"3  c #284E0C",
"4  c #2B540D",
"5  c #2E5A0E",
"6  c #315D0F",
"7  c #2A4F11",
"8  c #2E4D1A",
"9  c #325F11",
"0  c #32620E",
"q  c #346C0D",
"w  c #336210",
"e  c #376913",
"r  c #386B16",
"t  c #3C6D19",
"y  c #3B7314",
"u  c #3F741A",
"i  c #324226",
"p  c #324923",
"a  c #375424",
"s  c #3A512A",
"d  c #3A4034",
"f  c #3C4932",
"g  c #3D423A",
"h  c #41721F",
"j  c #40453C",
"k  c #424A3D",
"l  c #45523D",
"z  c #447622",
"x  c #497C26",
"c  c #4A742A",
"v  c #4C7B2C",
"b  c #537D36",
"n  c #577F3C",
"m  c #444642",
"M  c #464943",
"N  c #484C46",
"B  c #4C4D4B",
"V  c #4E5E41",
"C  c #4E514C",
"Z  c #4F5948",
"A  c #52574F",
"S  c #515B4A",
"D  c #555655",
"F  c #585C56",
"G  c #5C5D5C",
"H  c #59684E",
"J  c #587644",
"K  c #5D6854",
"L  c #5E605E",
"P  c #60605F",
"I  c #606859",
"U  c #607851",
"Y  c #67745E",
"T  c #666665",
"R  c #6D6D6D",
"E  c #6B7663",
"W  c #6A7860",
"Q  c #70716F",
"!  c #70786B",
"~  c #727272",
"^  c #7B7B7B",
"/  c #52832F",
"(  c #548235",
")  c #5D883F",
"_  c #618D44",
"`  c #61824A",
"'  c #658D4A",
"]  c #688D4F",
"[  c #669248",
"{  c #6B924F",
"}  c #6A8C54",
"|  c #6C865A",
" . c #6C8959",
".. c #718D5E",
"X. c #6D9553",
"o. c #6F9853",
"O. c #73975B",
"+. c #6E8160",
"@. c #748A65",
"#. c #75856A",
"$. c #778D68",
"%. c #7B8C6E",
"&. c #7A9B64",
"*. c #7E9E68",
"=. c #7A8274",
"-. c #7D8D72",
";. c #808E76",
":. c #828F79",
">. c #819076",
",. c #84907B",
"<. c #83A46D",
"1. c #86A86F",
"2. c #89A974",
"3. c #8EAC7A",
"4. c #90AE7C",
"5. c #828283",
"6. c #888E84",
"7. c #878688",
"8. c gray55",
"9. c #899283",
"0. c #8F948A",
"q. c #90948C",
"w. c #949693",
"e. c #969895",
"r. c #989898",
"t. c #96B184",
"y. c #ABC09D",
"u. c #ADC1A0",
"i. c #B5C7A9",
"p. c #B9CAAE",
"a. c #BACBB0",
"s. c #C5D2BD",
"d. c #C7D3C1",
"f. c #C9D4C2",
"g. c #D5DCD1",
"h. c #DAE0D7",
"j. c #DFE3DD",
"k. c #E1E4DF",
"l. c #E4E6E4",
"z. c #E9E9E9",
"x. c black",
"c. c None",
/* pixels */
"c.c.c.c.c.c.c.c.j.p.3.&.} ] ]  .&.t.s.l.c.c.c.c.c.c.c.c.",
"c.c.c.c.c.c.k.u.&.@.>.0.w.w.e.q.9.-...<.a.l.c.c.c.c.c.c.",
"c.c.c.c.c.d.*.@.0.w.w.w.0.F G q.q.e.q.,. .2.g.c.c.c.c.c.",
"c.c.c.z.i.X.-.q.0.0.0.9.B < m 0.q.q.q.q.0.@.O.d.c.c.c.c.",
"c.c.c.i.] :.9.9.9.0.=.m P P F 9.9.9.9.9.9.6.$.X.f.c.c.c.",
"c.c.d.] -.:.,.,.-.I g R w.B E ,.,.,.;.:.;.:.:.@.O.h.c.c.",
"c.l.&.| -.-.%.Y k B 5.r.8., M S K W #.%.%.%.%.%.` 4.z.c.",
"c.y.b @.E K k m ~ w.r.r.w.5.~ T D m j k H +.@.$. .v d.c.",
"k.[ 9 f g A ~ w.r.r.r.r.r.r.r.r.r.w.8.~ C < V U c q 1.c.",
"p.h 2 - G 5.r.r.r.r.r.r.r.r.r.r.r.r.r.r.r.5.B = 0 e / g.",
"2.q w 4 # * N ^ w.w.r.r.r.r.r.r.r.r.r.r.r.r.r.L % 0 y u.",
"_ 0 w w w 6 3 $ M 5.r.r.w.T R 7.w.r.r.r.r.r.r.r.B 2 q 2.",
"x 0 6 0 9 0 w 6 2 & G w.8.: o & d Q w.w.e.e.e.e.^ $ 0 o.",
"h 0 0 6 6 9 9 9 9 5 O g 5.C 2 0 4 @ F 0.0.q.0.q.6.; 0 [ ",
"h 6 6 6 6 6 6 6 9 9 6 1 > D # 9 w 5 $ ! 9.9.9.9.-.& 5 _ ",
"x 6 6 6 9 5 6 9 5 6 6 6 1 + X 6 5 9 1 Z >.-.-.;.E $ 0 o.",
") 6 6 4 6 5 5 5 9 4 9 5 9 2 7 5 5 9 # l $.@.$.$.l 1 0 2.",
"2.5 5 4 4 6 5 5 5 6 4 6 5 5 5 5 5 5 # V  .| | U $ 4 e u.",
"p.r 5 4 4 5 4 4 4 4 4 4 4 5 5 5 4 4 @ J ` ` ` i O 5 / g.",
"k.[ 5 4 4 4 4 4 6 4 4 4 4 4 4 4 5 $ p n n n s X 4 5 1.c.",
"c.y.0 4 4 4 4 4 4 4 4 4 4 4 4 4 2 @ c v v a X 3 4 h s.c.",
"c.k.X.5 7 7 3 4 4 4 3 4 4 4 4 2 X w h h 8 X 2 5 0 3.z.c.",
"c.c.s.v 4 3 7 3 4 3 3 4 4 4 2 . 7 u e # X 3 3 5 ' h.c.c.",
"c.c.c.i.h 4 3 3 3 3 3 3 2 1 . 3 q 7 X o 3 3 4 ( f.c.c.c.",
"c.c.c.z.i.v 4 3 3 3 3 2 o . 2 2 o X 1 3 4 4 ) f.c.c.c.c.",
"c.c.c.c.c.f.{ 6 3 2 3 1   . . X O 3 3 4 e <.g.c.c.c.c.c.",
"c.c.c.c.c.c.k.y._ w 4 4 2 1 2 3 3 5 t o.p.l.c.c.c.c.c.c.",
"c.c.c.c.c.c.c.c.k.i.<.) z t t x [ 4.a.l.c.c.c.c.c.c.c.c."
};
