/* XPM */
static char *undo[] = {
/* columns rows colors chars-per-pixel */
"28 44 189 2",
"   c #010101",
".  c gray4",
"X  c #1B1B1B",
"o  c #1E340D",
"O  c gray13",
"+  c #2F2F2F",
"@  c #323232",
"#  c gray24",
"$  c #26480D",
"%  c #2F590F",
"&  c #274611",
"*  c #284712",
"=  c #294912",
"-  c #2E4A19",
";  c #304E1B",
":  c #2D5311",
">  c #335D13",
",  c #35541D",
"<  c #385D1D",
"1  c #366711",
"2  c #396C12",
"3  c #376018",
"4  c #3A661C",
"5  c #3C7412",
"6  c #3E7B12",
"7  c #344329",
"8  c #355220",
"9  c #395226",
"0  c #3B5B23",
"q  c #3C4336",
"w  c #427E14",
"e  c #445B33",
"r  c #44652B",
"t  c #547A3B",
"y  c #444444",
"u  c gray29",
"i  c #4A5344",
"p  c #555555",
"a  c #536F40",
"s  c #536249",
"d  c #636D5B",
"f  c #647A53",
"g  c gray38",
"h  c #676D62",
"j  c #6A7264",
"k  c #6D7A64",
"l  c #71756E",
"z  c #727C6B",
"x  c #727272",
"c  c #757972",
"v  c #7C7D7C",
"b  c #3E8310",
"n  c #448415",
"m  c #468914",
"M  c #498C17",
"N  c #46831D",
"B  c #4B8F18",
"V  c #469110",
"C  c #4B9315",
"Z  c #4D9C13",
"A  c #4D9318",
"S  c #4F9818",
"D  c #529C1A",
"F  c #4EA114",
"G  c #51A415",
"H  c #54AA15",
"J  c #54A21A",
"K  c #58A71C",
"L  c #55A91B",
"P  c #58A81B",
"I  c #59B417",
"U  c #5BB31D",
"Y  c #4E812C",
"T  c #569D22",
"R  c #58982E",
"E  c #5C8D3C",
"W  c #5CAE24",
"Q  c #5DB225",
"!  c #62B22A",
"~  c #63B828",
"^  c #68B631",
"/  c #6BBB35",
"(  c #64C523",
")  c #6FC437",
"_  c #71CA36",
"`  c #72C23B",
"'  c #608846",
"]  c #74BC42",
"[  c #76BB48",
"{  c #78BF49",
"}  c #718065",
"|  c #748A66",
" . c #79C246",
".. c #7CC44A",
"X. c #829D6D",
"o. c #81847E",
"O. c #808979",
"+. c #849479",
"@. c #88987C",
"#. c #82A26C",
"$. c #80CE4C",
"%. c #81C454",
"&. c #85CB55",
"*. c #90CF66",
"=. c #92CA6C",
"-. c #91D464",
";. c #94D06C",
":. c #93C571",
">. c #96CD71",
",. c #99CE74",
"<. c #9CCF7A",
"1. c #9BD475",
"2. c #9ED579",
"3. c #A1D67D",
"4. c #A2D97C",
"5. c #838581",
"6. c #838880",
"7. c #8B8B8B",
"8. c #899184",
"9. c #8F908E",
"0. c #939B8E",
"q. c #949593",
"w. c #989B96",
"e. c gray61",
"r. c #95AD83",
"t. c #9BAE8C",
"y. c #A0AE95",
"u. c #A0A09F",
"i. c #AAAAAA",
"p. c gray71",
"a. c #BCBCBC",
"s. c #A1C887",
"d. c #A3D382",
"f. c #A8D58A",
"g. c #ADDD8C",
"h. c #ACC29C",
"j. c #B3DC94",
"k. c #B4D89D",
"l. c #B4E395",
"z. c #B9E19D",
"x. c #B3C6A6",
"c. c #B1C8A0",
"v. c #B8D6A2",
"b. c #B9D9A2",
"n. c #BDDBAA",
"m. c #BBC8B3",
"M. c #BDE3A2",
"N. c #C0DCAE",
"B. c #C2DDB0",
"V. c #C7DEBA",
"C. c #C3E5AB",
"Z. c #C6EBAE",
"A. c #C9E8B3",
"S. c #CBE0BD",
"D. c #CEE9BA",
"F. c #D1EBBE",
"G. c gray77",
"H. c gray80",
"J. c #CBD8C1",
"K. c #D0D1CF",
"L. c #D5D4D5",
"P. c gainsboro",
"I. c #CDE1C1",
"U. c #D4EEC3",
"Y. c #D3E1CA",
"T. c #D9EECA",
"R. c #D7F1C5",
"E. c #DDF1CD",
"W. c #D7E4D1",
"Q. c #DAE5D3",
"!. c #DDE4DA",
"~. c #DFF2D2",
"^. c #E1E7DE",
"/. c #E3E9DE",
"(. c #E5F4DA",
"). c #E2E3E2",
"_. c #E5E8E4",
"`. c #E9E9E9",
"'. c #ECF7E4",
"]. c #EEF8E7",
"[. c #EFF8E9",
"{. c #F0F2EE",
"}. c #F0F9E9",
"|. c #F3F4F3",
" X c #F5FBF2",
".X c #F9FCF6",
"XX c #FEFEFE",
"oX c black",
"OX c None",
/* pixels */
"OXOXOXOXOXOXOXOX^.B.d.1.2.2.4.1.1.f.S._.OXOXOXOXOXOXOXOX",
"OXOXOXOXOXOX^.b.3.z.E.'..X.X.X}.'.D.g.2.B._.OXOXOXOXOXOX",
"OXOXOXOXOXJ.2.M.(..X.X.X[.q.w.|. X.X X~.g.3.Q.OXOXOXOXOX",
"OXOXOX`.n.1.U.[.].].]./.6.g l '.'.'.'.[.'.Z.=.V.OXOXOXOX",
"OXOXOXn.1.E.(.(.(.(.J.l e.u.t.(.(.(.(.(.(.(.A.*.I.OXOXOX",
"OXOXI.;.D.E.T.E.T.y.h p..Xv x.E.E.T.T.E.T.U.T.M.*.!.OXOX",
"OX^.=.z.U.F.D.h.l v P.XX`.p z @.t.c.B.D.D.D.D.D.4.d.`.OX",
"OXk.&.C.v.r.k x a..XXXXXXXL.a.i.9.c h } r.k.C.C.j.` I.OX",
"_...T f h 5.G.|.XXXXXXXXXXXXXXXXXXXX`.a.5.d X.d...I =.OX",
"N.U 5 q q.).XXXXXXXXXXXXXXXXXXXXXXXXXXXXXXP.5.r P P / W.",
",.H K M 2 e c H.XXXXXXXXXXXXXXXXXXXXXXXXXXXX.Xu.< P I b.",
" .G K K P D w 0 l L.XXXX|.i.p.P..XXXXXXXXXXXXXXXo.w H 1.",
"~ J J J J J W D 6 e e.|.{.i : e h a. X.X.X.X.XXXL.0 H %.",
"U J J D J D J D J C > j !.O.6 G n , 0.}.].].}.}.^.e Z  .",
"U D D D D D D D D D D 1 s 8.3 J J S 8 m.(.(.(.(.Y.e Z  .",
"! Z S S D S D S D D D D 5 7 - D D D 2 +.R.U.U.R.c., G &.",
"] S A A S A A S S S S S S w w S D D 2 | Z.Z.Z.Z.| 1 F >.",
",.Z A A A A A A A A A A A S S A A S > #.l.l.l.s.9 m L b.",
"B.P B B B B B B B B B A A B A A A m 8 :.4.4.4.a 1 Z ^ W.",
"_.{ B M B B M M B B B B B B B B B > t -.-.-.' = B Z >.OX",
"OXk.G m M M M M N B M M M M M B 5 ; [ ..$.E = m C W S.OX",
"OX/.%.B n m n M M n M n M n M w & R _ ) Y = w B Z 2.`.OX",
"OXOXV.! m n n n N M n n m m w & N ( Q 4 : w M V [ !.OXOX",
"OXOXOXN.W m n n n n n n n 2 & b I m = % n m m / I.OXOXOX",
"OXOXOX`.n.! m n n n w w : & b b : * 2 n n V ] I.OXOXOXOX",
"OXOXOXOXOXI.{ Z n n w 5 o & $ = 1 n n m G =.Q.OXOXOXOXOX",
"OXOXOXOXOXOX_.k.[ Z V n 6 5 6 n m V G %.N._.OXOXOXOXOXOX",
"OXOXOXOXOXOXOXOX^.n.=.] W L L Q [ <.S._.OXOXOXOXOXOXOXOX",
"OXOXOXOXOXOXOXOXOXOXOXOXOXOXOXOXOXOXOXOXOXOXOXOXOXOXOXOX",
"OXOXOXOXOXOXOXOXOXOXOXOXOXOXOXOXOXOXOXOXOXOXOXOXOXOXOXOX",
"OXOXOXOXOXOXOXOXOXOXOXOXOXOXOXOXOXOXOXOXOXOXOXOXOXOXOXOX",
"OXOXOXOXOXOXOXOXOXOXOXOXOXOXOXOXOXOXOXOXOXOXOXOXOXOXOXOX",
"OX  OXOXOXOX  OXOXOXOXOXOXOXOXOXOXOXOXOX  OXOXOXOXOXOXOX",
"OX  OXOXOXOX  OXOXOXOXOXOXOXOXOXOXOXOXOX  OXOXOXOXOXOXOX",
"OX  OXOXOXOX  OXOX  i.O . v OXOXH.+ . x   OXOXH.+ . # P.",
"OX  OXOXOXOX  OXOX  u H.a.. OXOXu x ).e.  OXOXy v ).v p ",
"OX  `.OXOX`.  OXOX  ).OX`.  OXOX. L.OXOX  OXOX. P.OX).. ",
"OX. L.OXOXP.. OXOX  OXOXOX  OXOX. ).OXOX  OXOX. P.OX).  ",
"OXy g P.P.x q OXOX  OXOXOX  OXOX@ 7.P.5.  OXOXy c ).v # ",
"OXL.u . . # K.OXOX  OXOXOX  OXOXp.X . 7.  OXOXH.@   + G.",
"OXOXOXOXOXOXOXOXOXOXOXOXOXOXOXOXOXOXOXOXOXOXOXOXOXOXOXOX",
"OXOXOXOXOXOXOXOXOXOXOXOXOXOXOXOXOXOXOXOXOXOXOXOXOXOXOXOX",
"OXOXOXOXOXOXOXOXOXOXOXOXOXOXOXOXOXOXOXOXOXOXOXOXOXOXOXOX",
"OXOXOXOXOXOXOXOXOXOXOXOXOXOXOXOXOXOXOXOXOXOXOXOXOXOXOXOX"
};
