/* XPM */
static char *update_sel[] = {
/* columns rows colors chars-per-pixel */
"32 32 256 2",
"   c #1B1C4D",
".  c #1C1D4E",
"X  c #1C1E4E",
"o  c #1D1F4F",
"O  c #1D2050",
"+  c #1E2150",
"@  c #1F2251",
"#  c #1F2352",
"$  c #202352",
"%  c #202453",
"&  c #202553",
"*  c #222653",
"=  c #212554",
"-  c #212654",
";  c #222654",
":  c #222655",
">  c #222755",
",  c #232755",
"<  c #222756",
"1  c #232756",
"2  c #232854",
"3  c #222855",
"4  c #222856",
"5  c #232856",
"6  c #232956",
"7  c #232957",
"8  c #232A57",
"9  c #242856",
"0  c #242857",
"q  c #252957",
"w  c #242A57",
"e  c #262958",
"r  c #242A58",
"t  c #242B58",
"y  c #252B58",
"u  c #272B59",
"i  c #262C59",
"p  c #262E5A",
"a  c #262F5B",
"s  c #282D59",
"d  c #282C5A",
"f  c #292D5A",
"g  c #2B2E5B",
"h  c #2B2F5C",
"j  c #28305B",
"k  c #2B305B",
"l  c #28305C",
"z  c #28325C",
"x  c #29325D",
"c  c #29335E",
"v  c #2D315D",
"b  c #2A345E",
"n  c #2A345F",
"m  c #30345F",
"M  c #2B3560",
"N  c #2B3660",
"B  c #2C3761",
"V  c #2D3962",
"C  c #2D3963",
"Z  c #2E3963",
"A  c #2E3A63",
"S  c #2E3B64",
"D  c #2F3B64",
"F  c #2F3D65",
"G  c #313561",
"H  c #333762",
"J  c #343762",
"K  c #353863",
"L  c #363A64",
"P  c #303C66",
"I  c #303E66",
"U  c #353F67",
"Y  c #343E68",
"T  c #324068",
"R  c #324168",
"E  c #33436A",
"W  c #34446B",
"Q  c #36466B",
"!  c #3D4169",
"~  c #3E426A",
"^  c #37486D",
"/  c #37496D",
"(  c #38496D",
")  c #384A6F",
"_  c #384C70",
"`  c #3A4D70",
"'  c #3B4F73",
"]  c #3E4F73",
"[  c #3D5275",
"{  c #3F5274",
"}  c #3E5577",
"|  c #41466C",
" . c #43476D",
".. c #45496F",
"X. c #464970",
"o. c #474B70",
"O. c #474A71",
"+. c #484B71",
"@. c #405476",
"#. c #405777",
"$. c #495275",
"%. c #465678",
"&. c #435B7B",
"*. c #475879",
"=. c #45597A",
"-. c #48587A",
";. c #515477",
":. c #5B5E7F",
">. c #5C5F7F",
",. c #4E6080",
"<. c #4D6483",
"1. c #566383",
"2. c #5F6383",
"3. c #566A87",
"4. c #5F6D89",
"5. c #5F718D",
"6. c #5E748F",
"7. c #606383",
"8. c #646685",
"9. c #626988",
"0. c #686B89",
"q. c #696C8A",
"w. c #6C6E8B",
"e. c #62718C",
"r. c #6E718D",
"t. c #6E718E",
"y. c #70728F",
"u. c #737692",
"i. c #777994",
"p. c #777A95",
"a. c #727D96",
"s. c #7A7D96",
"d. c #708299",
"f. c #7A869D",
"g. c #7F889F",
"h. c #798BA0",
"j. c #8E8E91",
"k. c #80829B",
"l. c #83869E",
"z. c #85889E",
"x. c #909093",
"c. c gray58",
"v. c gray59",
"b. c #9D9D9D",
"n. c #898BA2",
"m. c #8A8DA2",
"M. c #8493A7",
"N. c #8D94A9",
"B. c #8F9DAF",
"V. c #9193A8",
"C. c #989AAD",
"Z. c #999CAE",
"A. c #9B9CAF",
"S. c #9AA1B2",
"D. c #9EA1B2",
"F. c #9AA5B5",
"G. c #99A7B7",
"H. c gray67",
"J. c #A0A2B3",
"K. c #A3A5B6",
"L. c #A4A9B8",
"P. c #A6A9B8",
"I. c #AAABBA",
"U. c #ABACBA",
"Y. c gray71",
"T. c #B5B5BD",
"R. c #BBBBBB",
"E. c gray74",
"W. c #AAB5C1",
"Q. c #B6B7C3",
"!. c #B7B8C3",
"~. c #B0BAC5",
"^. c #B8BAC5",
"/. c #B9BAC5",
"(. c #B8BCC7",
"). c #BBBCC7",
"_. c #BEBFC9",
"`. c #BBC2CB",
"'. c #BFC0CA",
"]. c #BFC7CF",
"[. c #C3C3C3",
"{. c gray78",
"}. c #C0C1CA",
"|. c #C2C3CC",
" X c #C3C5CD",
".X c #C6C7CF",
"XX c #C8C8C8",
"oX c #CECECE",
"OX c #C9CAD1",
"+X c #C9CDD4",
"@X c #CCCFD5",
"#X c #CDD1D6",
"$X c #CDD1D7",
"%X c #CFD0D6",
"&X c #D0D0D6",
"*X c #D3D4D9",
"=X c #D6D6DB",
"-X c #D7DADD",
";X c #D8D8D8",
":X c #D8D8DD",
">X c gainsboro",
",X c #DDDDDD",
"<X c #DCDCDF",
"1X c #DCDCE0",
"2X c #DDDFE1",
"3X c #DEDEE0",
"4X c #E0E0E2",
"5X c #E0E1E3",
"6X c gray89",
"7X c #E2E2E4",
"8X c #E4E4E5",
"9X c #E6E6E7",
"0X c #E6E8E8",
"qX c gray91",
"wX c #E8E8E9",
"eX c None",
"rX c black",
"tX c black",
"yX c black",
"uX c black",
"iX c black",
"pX c black",
"aX c black",
"sX c black",
"dX c black",
"fX c black",
"gX c black",
"hX c black",
"jX c black",
"kX c black",
"lX c black",
"zX c black",
"xX c black",
"cX c black",
"vX c black",
"bX c black",
"nX c black",
"mX c black",
"MX c black",
"NX c black",
"BX c black",
"VX c black",
"CX c black",
"ZX c black",
"AX c black",
"SX c black",
"DX c black",
"FX c black",
"GX c black",
"HX c black",
"JX c black",
"KX c black",
"LX c black",
"PX c black",
"IX c black",
"UX c black",
/* pixels */
"eXeXeXeXeXeXeXeXeXeXeXeXeXeXeXeXeXeXeXeXeXeXeXeXeXeXeXeXeXeXeXeX",
"eXeXeXeXeXeXeXeXeXeXeXeXeXeXeXeXeXeXeXeXeXeXeXeXeXeXeXeXeXeXeXeX",
"eXeXeXeXeXeXeXeXeXeXeXeXeXeXeXeXeXeXeXeXeXeXeXeXeXeXeXeXeXeXeXeX",
"eXeXeXeXeXeXeXeXeXeXeXeXeXeXeXeXeXeXeXeXeXeXeXeXeXeXeXeXeXeXeXeX",
"eXeXeXeX%Xe : : : : : : 0 9XeXeXeXeXeXeXeX9X0XeXeXeXeXeXeXeXeXeX",
"eXeXeXeXeXC.: X     X # ! eXeXeXeXeXeXqX2X%X^.}.5XeXeXeXeXeXeXeX",
"eXeXeXeXeXeX! # X # # & k.eXeXeXeXeX9X-X$X].~.S.z._.eXeXeXeXeXeX",
"eXeXeXeXeXu.: # # # # : 1XeXeXeXeXeX9X=X!.L.F.B.f.9.C.eXeXeXeXeX",
"eXeXeXeXC.: & & : & & K eXeXeXeXeXeXeXeXqX'.s.a.d.5.$.A.eXeXeXeX",
"eXeXeX:X0 5 5 5 0 5 5 0.eXeXeXeXeXeXeXeXeXeX&X7.1.3.*.K *XeXeXeX",
"eXeXeX:.5 p e : ).+.: '.eXeXeXeXeXeXeXeXeXeXeX X| *.*.Y ;.eXeXeX",
"eXeX5X0 a a 5 i.eX5X! eXeXeXeXeXeXeXeXeXeXeXeXeXn.U [ ` 0 &XeXeX",
"eXeXi.e l l s eXeXeX9XeXeXeXeXeXeXeXeXeXeXeXeXeXeXK W ( n 8.eXeX",
"eXeX! l N p q.eXeXeXeXeXeXeXeXeXeXeXeXeXeXeXeXeXeXy.n W V L eXeX",
"eXeX0 V V 5 '.eXeXeXeXeXeXeXeXeXeXeXeXeXeXeXeXeXeX'.0 R S 0 eXeX",
"eX1X: F S 5 eXeXeXeXeXeXeXeXeXeXeXeXeXeXeXeXeXeXeXeX0 S S : 1XeX",
"eX'.5 R P h eXeXeXeXeXeXeXeXeXeXeXeXeXeXeXeXeXeXeXeXs N B 5 |.eX",
"eX|.8 E P l eXeXeXeXeXeXeXeXeXeXeXeXeXeXeXeXeXeXeXeXs n n : %XeX",
"eX1X5 / W e eXeXeXeXeXeXeXeXeXeXeXeXeXeXeXeXeXeXeXeX0 l j : 9XeX",
"eXeX5 / ` e _.eXeXeXeXeXeXeXeXeXeXeXeXeXeXeXeXeXeXU.5 a e s eXeX",
"eXeXL R ' B w.eXeXeXeXeXeXeXeXeXeXeXeXeXeXeXeXeXeX>.0 0 5 X.eXeX",
"eXeX8.S [ _ h 9XeXeXeXeXeXeXeXeXeXeXeXeXeX5XeXeX6X0 t 5 : m.eXeX",
"eXeX.X: } @.P i.eXeXeXeXeXeXeXeXeXeXeXeXeXH 1XeX8.5 : : p 9XeXeX",
"eXeXeXX.R &.@.G ^.eXeXeXeXeXeXeXeXeXeXeXU.5 | P.: 5 & & t.eXeXeX",
"eXeXeX&Xs ] <.%.X.'.eXeXeXeXeXeXeXeXeXeX>.5 : : # # & v 9XeXeXeX",
"eXeXeXeXJ.G ,.5.4.2.I.9XeXeXeXeXeXeXeXeXs 0 : $ # # : !.eXeXeXeX",
"eXeXeXeXeXZ.X.e.h.M.N.D.OX4XeXeXeXeXeX'.0 : $ $ # : l.eXeXeXeXeX",
"eXeXeXeXeXeX'.t.n.G.W.`.@X1XeXeXeXeXeX0.: # $ X + | eXeXeXeXeXeX",
"eXeXeXeXeXeXeX7XQ.K.(.@X>XeX>X;X;X;XqXK & X + X X 0 V.eXeXeXeXeX",
"eXeXeXeX;XR.H.b.v.v.j.x.v.v.v.v.v.v.j.& & : ; ; & & 0 T.5XeXeXeX",
"eXeXeXeXeXeX>XoX{.{.{.{.{.[.Y.Y.Y.Y.E.XX{.{.{.{.XX;XqXeXeXeXeXeX",
"eXeXeXeXeXeXeXeXeXeXeXeXeXeXeXeXeXeXeXeXeXeXeXeXeXeXeXeXeXeXeXeX"
};
