/* XPM */
static char *update[] = {
/* columns rows colors chars-per-pixel */
"32 32 256 2",
"   c #303282",
".  c #313483",
"X  c #313484",
"o  c #323584",
"O  c #333685",
"+  c #333786",
"@  c #343987",
"#  c #353A88",
"$  c #363B89",
"%  c #363C89",
"&  c #363D8A",
"*  c #373D8A",
"=  c #373D8B",
"-  c #383E8B",
";  c #383F8C",
":  c #39408C",
">  c #39418C",
",  c #39408D",
"<  c #3A418D",
"1  c #3A428D",
"2  c #3B438E",
"3  c #3B448F",
"4  c #3C448F",
"5  c #3C458F",
"6  c #3F468F",
"7  c #3C4590",
"8  c #3D4590",
"9  c #3D4690",
"0  c #3D4791",
"q  c #3F4691",
"w  c #3E4892",
"e  c #3E4992",
"r  c #3F4992",
"t  c #3F4993",
"y  c #3F4A93",
"u  c #414992",
"i  c #424B93",
"p  c #454D93",
"a  c #404B94",
"s  c #424D96",
"d  c #424E97",
"f  c #474E95",
"g  c #484F95",
"h  c #495094",
"j  c #4A5196",
"k  c #4B5297",
"l  c #435098",
"z  c #455299",
"x  c #45529A",
"c  c #46559B",
"v  c #47569C",
"b  c #4C5398",
"n  c #4E5598",
"m  c #48579E",
"M  c #515699",
"N  c #555B9C",
"B  c #575E9D",
"V  c #595F9E",
"C  c #59609E",
"Z  c #4A5AA0",
"A  c #4B5BA1",
"S  c #4B5CA1",
"D  c #4E5DA1",
"F  c #4C5DA2",
"G  c #4C5EA3",
"H  c #4D61A5",
"J  c #4D61A6",
"K  c #4E61A6",
"L  c #4F63A6",
"P  c #4F64A7",
"I  c #5D63A0",
"U  c #5E63A1",
"Y  c #5F66A1",
"T  c #5065A8",
"R  c #5167A9",
"E  c #5269AB",
"W  c #556EAE",
"Q  c #5B71AF",
"!  c #5D70AD",
"~  c #5771B1",
"^  c #5974B3",
"/  c #5D7AB7",
"(  c #5D7BB7",
")  c #5F7DBA",
"_  c #6268A3",
"`  c #676DA5",
"'  c #696FA7",
"]  c #6D72A9",
"[  c #6D73A9",
"{  c #6E73A9",
"}  c #7176AB",
"|  c #6777B2",
" . c #657DB7",
".. c #6C79B0",
"X. c #637FB9",
"o. c #7A7FB0",
"O. c #6080BB",
"+. c #6C89BE",
"@. c #7B80B0",
"#. c #7F84B2",
"$. c #6485C0",
"%. c #688BC4",
"&. c #6B8FC7",
"*. c #778FC2",
"=. c #7793C4",
"-. c #7A97C7",
";. c #7194C9",
":. c #7A9ECF",
">. c #8185B2",
",. c #8387B4",
"<. c #8388B4",
"1. c #8489B5",
"2. c #8589B5",
"3. c #868AB6",
"4. c #8F93BA",
"5. c #8893BD",
"6. c #979BBF",
"7. c #989CBF",
"8. c #B7B7BA",
"9. c #B8B9BB",
"0. c gray73",
"q. c #BBBBBB",
"w. c #8599C5",
"e. c #869CC7",
"r. c #879CC7",
"t. c #829ECB",
"y. c #9A9EC0",
"u. c #9B9EC0",
"i. c #8FA6CE",
"p. c #9EA1C2",
"a. c #96A5CA",
"s. c #9FA7C8",
"d. c #9EAECF",
"f. c #8DADD5",
"g. c #98B0D4",
"h. c #A1A5C4",
"j. c #A3A5C4",
"k. c #A4A7C5",
"l. c #A6A9C6",
"z. c #A6A9C7",
"x. c #A7AAC7",
"c. c #A9ADC8",
"v. c #ACAEC9",
"b. c #ACAFCA",
"n. c #AEB1CB",
"m. c #B2B5CD",
"M. c #B4B6CE",
"N. c #B5B8CE",
"B. c #A2B2D2",
"V. c #A0B5D5",
"C. c #ADB9D3",
"Z. c #A1BBDC",
"A. c #B6BED6",
"S. c #B8BAD0",
"D. c #B9BBD0",
"F. c #BCBED2",
"G. c #AFC3DC",
"H. c #B3C0D8",
"J. c #BDC4D8",
"K. c #BCCBDF",
"L. c #B6C9E0",
"P. c #C0C0C0",
"I. c #C8C8C8",
"U. c #CECECE",
"Y. c #C1C3D5",
"T. c #C2C4D5",
"R. c #C3C4D6",
"E. c #C5C6D7",
"W. c #C5C7D7",
"Q. c #C7C9D8",
"!. c #C5CCDC",
"~. c #C9CBD9",
"^. c #CBCCDA",
"/. c #CCCDDA",
"(. c #C9CEDC",
"). c gray82",
"_. c #D2D2D2",
"`. c #D0D0D7",
"'. c gray84",
"]. c #D1D2DD",
"[. c #D2D3DD",
"{. c #D2D4DE",
"}. c #D3D4DE",
"|. c #D4D5DF",
" X c #D5D6DF",
".X c #D6D7DF",
"XX c #D8D8D8",
"oX c gray85",
"OX c gray86",
"+X c #C3D1E3",
"@X c #C8D2E1",
"#X c #C8D5E4",
"$X c #D4D7E1",
"%X c #D6D6E0",
"&X c #D7D8E0",
"*X c #D1DBE6",
"=X c #D3DCE6",
"-X c #D7DEE6",
";X c #D8D9E0",
":X c #D9DAE1",
">X c #DBDCE2",
",X c #DEDEE3",
"<X c #DCDFE5",
"1X c #DEDEE4",
"2X c #DFE0E4",
"3X c #DEE1E6",
"4X c #DAE1E8",
"5X c #DFE3E8",
"6X c #E1E1E1",
"7X c gray89",
"8X c #E1E1E5",
"9X c #E2E2E6",
"0X c #E2E4E7",
"qX c #E4E4E4",
"wX c #E4E4E7",
"eX c #E5E5E7",
"rX c #E6E6E6",
"tX c #E5E7E9",
"yX c #E6E6E8",
"uX c #E7E7E8",
"iX c #E8E8E9",
"pX c #E8E9E9",
"aX c #E9E9E9",
"sX c #E9E9EA",
"dX c None",
"fX c black",
"gX c black",
"hX c black",
"jX c black",
"kX c black",
"lX c black",
"zX c black",
"xX c black",
"cX c black",
"vX c black",
"bX c black",
"nX c black",
"mX c black",
"MX c black",
"NX c black",
"BX c black",
"VX c black",
"CX c black",
"ZX c black",
"AX c black",
"SX c black",
"DX c black",
"FX c black",
"GX c black",
"HX c black",
"JX c black",
"KX c black",
"LX c black",
"PX c black",
"IX c black",
"UX c black",
/* pixels */
"dXdXdXdXdXdXdXdXdXdXdXdXdXdXdXdXdXdXdXdXdXdXdXdXdXdXdXdXdXdXdXdX",
"dXdXdXdXdXdXdXdXdXdXdXdXdXdXdXdXdXdXdXdXdXdXdXdXdXdXdXdXdXdXdXdX",
"dXdXdXdXdXdXdXdXdXdXdXdXdXdXdXdXdXdXdXdXdXdXdXdXdXdXdXdXdXdXdXdX",
"dXdXdXdXdXdXdXdXdXdXdXdXdXdXdXdXdXdXdXdXdXdXdXdXdXdXdXdXdXdXdXdX",
"dXdXdXdX1XM 2 2 2 2 2 2 g pXdXdXdXdXdXdXdXiXpXdXdXdXdXdXdXdXdXdX",
"dXdXdXdXdXY.8 . . . . # o.dXdXdXdXdXdXpXyX3X].&XyXdXdXdXdXdXdXdX",
"dXdXdXdXdXdXo.& @ @ @ ; m.dXdXdXdXdXpX9X0X4X=X!.N.%XdXdXdXdXdXdX",
"dXdXdXdXdXc.5 & - & & u wXdXdXdXdXdXpX9X].(.@X+XH.s.Y.dXdXdXdXdX",
"dXdXdXdXY.8 2 2 ; 2 2 ] dXdXdXdXdXdXdXdXpX%Xn.C.G.V.5.Y.dXdXdXdX",
"dXdXdX9XM 0 0 3 b 3 2 j.dXdXdXdXdXdXdXdXdXdX,Xu.a.g.r.] 9XdXdXdX",
"dXdXdX6.8 y t f }.2.2 %XdXdXdXdXdXdXdXdXdXdXdX;X#.e.t.| 4.dXdXdX",
"dXdXyXb s l t v.dXyX@.dXdXdXdXdXdXdXdXdXdXdXdXdXS...=.+.g 1XdXdX",
"dXdXv.t v x C dXdXdXpXdXdXdXdXdXdXdXdXdXdXdXdXdXdX]  .X.A p.dXdX",
"dXdXo.x A s j.dXdXdXdXdXdXdXdXdXdXdXdXdXdXdXdXdXdXl.G ^ H } dXdX",
"dXdXn G H 8 %XdXdXdXdXdXdXdXdXdXdXdXdXdXdXdXdXdXdX.Xt W R j dXdX",
"dXeX5 R P j dXdXdXdXdXdXdXdXdXdXdXdXdXdXdXdXdXdXdXdXj R H 2 eXdX",
"dX%Xt W R U dXdXdXdXdXdXdXdXdXdXdXdXdXdXdXdXdXdXdXdXB S S 7 %XdX",
"dX&X0 ~ R _ dXdXdXdXdXdXdXdXdXdXdXdXdXdXdXdXdXdXdXdXC v A 7 ,XdX",
"dXyX0 / ^ n dXdXdXdXdXdXdXdXdXdXdXdXdXdXdXdXdXdXdXdXf v x 8 pXdX",
"dXdXj / X.y %XdXdXdXdXdXdXdXdXdXdXdXdXdXdXdXdXdXdX/.8 l a B dXdX",
"dXdX} ~ O.G z.dXdXdXdXdXdXdXdXdXdXdXdXdXdXdXdXdXdX7.t y 8 2.dXdX",
"dXdXp.H %.) U pXdXdXdXdXdXdXdXdXdXdXdXdXdXyXdXdXeXM t 8 5 S.dXdX",
"dXdX;Xu &.;.! v.dXdXdXdXdXdXdXdXdXdXdXdXdX] yXdXp.5 3 2 N pXdXdX",
"dXdXdX2.^ :.-.' }.dXdXdXdXdXdXdXdXdXdXdX/.8 >.~.8 3 - 2 z.dXdXdX",
"dXdXdX1XV *.f.w.2.&XdXdXdXdXdXdXdXdXdXdX7.8 8 u 2 - 2 _ pXdXdXdX",
"dXdXdXdXE.' i.Z.d.y.^.pXdXdXdXdXdXdXdXdXU 8 5 2 - & u ].dXdXdXdX",
"dXdXdXdXdXY.,.B.L.K.J.W.>XyXdXdXdXdXdX.X3 2 - # @ u m.dXdXdXdXdX",
"dXdXdXdXdXdX.Xz.A.#X*X-X1XyXdXdXdXdXdXj.2 & @ O @ #.dXdXdXdXdXdX",
"dXdXdXdXdXdXdXyX].Q.%X3XyXdX6X6X6X6XpX] & @ O .   5 F.dXdXdXdXdX",
"dXdXdXdX6X).I.P.q.q.8.9.q.q.q.q.q.q.8.u 2 2 2 > 2 2 j `.eXdXdXdX",
"dXdXdXdXdXdXeXXXXXXXXXXXXX'.U.U.U.U.).XXXXXXXXXXXX6XpXdXdXdXdXdX",
"dXdXdXdXdXdXdXdXdXdXdXdXdXdXdXdXdXdXdXdXdXdXdXdXdXdXdXdXdXdXdXdX"
};
