/* XPM */
static char *view_bottom_dis[] = {
/* columns rows colors chars-per-pixel */
"32 32 256 2",
"   c #91AD7A",
".  c #93B578",
"X  c #97B67E",
"o  c #9CBD7E",
"O  c #99B582",
"+  c #9BB486",
"@  c #9BB08A",
"#  c #9CB28B",
"$  c #A0B78E",
"%  c #A2BA8C",
"&  c #A5B897",
"*  c #A8BB9C",
"=  c #ACBCA0",
"-  c #AEBCA3",
";  c #AFBCA4",
":  c #AEAEB2",
">  c #AEAFB4",
",  c #B1B3B9",
"<  c #B3B5BA",
"1  c #B5B6B8",
"2  c #B7B7B9",
"3  c #B6B7BD",
"4  c gray72",
"5  c #B8B9BB",
"6  c gray73",
"7  c #B8BABF",
"8  c #BBBCBE",
"9  c #BBBCBF",
"0  c gray74",
"q  c #A2C084",
"w  c #A9C195",
"e  c #A9C494",
"r  c #ABC594",
"t  c #AFC998",
"y  c #BAD69D",
"u  c #B2C6A1",
"i  c #B6CEA2",
"p  c #B5C7A8",
"a  c #B5C9A9",
"s  c #B7C9A8",
"d  c #B9D1A3",
"f  c #BBC6B2",
"g  c #C1DF9B",
"h  c #C2E29B",
"j  c #C4DBA7",
"k  c #C8DDAB",
"l  c #C0D1B3",
"z  c #C7DEB0",
"x  c #C7DDB3",
"c  c #C4D8B4",
"v  c #C5D2BB",
"b  c #C7D5BD",
"n  c #C9D6BC",
"m  c #CCDEBC",
"M  c #CAE9A2",
"N  c #CBEAA3",
"B  c #CDE7A8",
"V  c #D3EFAB",
"C  c #D3EFAE",
"Z  c #D4EEAC",
"A  c #D7F2AE",
"S  c #D7F3AE",
"D  c #CEE4B9",
"F  c #D5EDBB",
"G  c #D2E9BC",
"H  c #D4EABD",
"J  c #D8F2B1",
"K  c #DBF3B3",
"L  c #DCF4B2",
"P  c #DDF6B3",
"I  c #D9F1BA",
"U  c #BBBDC1",
"Y  c #BBBDC2",
"T  c #BEBEC0",
"R  c #BFBFC1",
"E  c #BDBFC3",
"W  c #BFBFC3",
"Q  c #BDBFC4",
"!  c #BEBFC5",
"~  c #BFC1C6",
"^  c #C1C1C1",
"/  c #C0C0C2",
"(  c #C1C2C3",
")  c #C1C1C5",
"_  c #C2C3C6",
"`  c gray77",
"'  c #C5CDC0",
"]  c #C0C2C8",
"[  c #C1C3C8",
"{  c #C3C4CA",
"}  c #C3C5CB",
"|  c #C4C5C9",
" . c #C7C7C9",
".. c #C6C7CB",
"X. c #C5C7CD",
"o. c #C3C8C8",
"O. c #C7C8CC",
"+. c #C6C8CE",
"@. c #C8C9CA",
"#. c #CACACA",
"$. c #CACACC",
"%. c #CACBCC",
"&. c #CBCBCD",
"*. c #C9CACE",
"=. c #CECECE",
"-. c #CCD5C6",
";. c #CFDDC1",
":. c #CDDCC2",
">. c #CEDDC2",
",. c #D0DFC3",
"<. c #D0DFC5",
"1. c #C8CAD0",
"2. c #C9CBD0",
"3. c #CBCCD0",
"4. c #CECFD1",
"5. c #CDCED2",
"6. c #CDCED3",
"7. c #CED0D3",
"8. c #CFD0D3",
"9. c #CFD0D4",
"0. c #CED0D6",
"q. c #D0D0D2",
"w. c #D1D1D3",
"e. c LightGray",
"r. c #D0D0D4",
"t. c #D0D1D5",
"y. c #D2D3D5",
"u. c #D0D2D6",
"i. c #D1D2D6",
"p. c #D2D3D7",
"a. c #D3D4D6",
"s. c #D4D5D6",
"d. c #D7D7D7",
"f. c #D8DAD5",
"g. c #D1D3D9",
"h. c #D3D5DB",
"j. c #D4D5D8",
"k. c #D4D5D9",
"l. c #D5D6D9",
"z. c #D7D7D9",
"x. c #D6D7DA",
"c. c #D6D7DB",
"v. c #D4D6DC",
"b. c #D4D6DD",
"n. c #D7D9DC",
"m. c #D7D9DD",
"M. c #D5D8DE",
"N. c #D7D9DF",
"B. c #D8D8D9",
"V. c #DBDCDE",
"C. c gray87",
"Z. c #DEDEDF",
"A. c #CFE1C0",
"S. c #D1E5C0",
"D. c #D2E4C1",
"F. c #D5E7C4",
"G. c #D9EEC6",
"H. c #DAEFC7",
"J. c #D7E8CA",
"K. c #DCEBCD",
"L. c #DEE0DB",
"P. c #E0EAD1",
"I. c #E0E5DC",
"U. c #E4ECD8",
"Y. c #EBF5DD",
"T. c #D7D9E0",
"R. c #D9DBE1",
"E. c #DCDDE1",
"W. c #DBDEE4",
"Q. c #DCDEE5",
"!. c #E0E0E2",
"~. c #E2E2E2",
"^. c #E2E3E2",
"/. c #E2E3E6",
"(. c #E4E4E5",
"). c #E7E7E7",
"_. c #E8EEE2",
"`. c #E9E9E9",
"'. c #EAEAEA",
"]. c #E8E9EC",
"[. c #E9EAEC",
"{. c #E9EAED",
"}. c #EAEBED",
"|. c #EBECEE",
" X c #ECECEE",
".X c #ECEDEF",
"XX c #EDEDEF",
"oX c #EBF3E0",
"OX c #EEF2EA",
"+X c #EFF7E8",
"@X c #EDEDF1",
"#X c #EDEEF0",
"$X c #EEEEF0",
"%X c #EFEFF1",
"&X c #F0F0F2",
"*X c #F1F1F3",
"=X c #F1F2F3",
"-X c #F2F3F4",
";X c #F2F3F6",
":X c #F3F4F5",
">X c #F3F4F7",
",X c #F3F5F7",
"<X c #F4F4F5",
"1X c #F5F5F6",
"2X c #F4F5F7",
"3X c #F6F6F7",
"4X c #F6F7F7",
"5X c #F6FAF2",
"6X c #F5F8F4",
"7X c #F4F5F8",
"8X c #F5F5F8",
"9X c #F5F6F8",
"0X c #F6F6F8",
"qX c #F6F7F8",
"wX c #F7F7F8",
"eX c #F7F7F9",
"rX c #F7F8F8",
"tX c #F7F8F9",
"yX c #F8F8F8",
"uX c #F8F8F9",
"iX c #F8F9F9",
"pX c #F9F9F9",
"aX c #F8F9FA",
"sX c #F9F9FA",
"dX c #F9FAFA",
"fX c gray98",
"gX c #FAFAFB",
"hX c #FAFBFB",
"jX c #FBFBFB",
"kX c #FBFBFC",
"lX c #FBFCFC",
"zX c gray99",
"xX c #FDFDFD",
"cX c #FEFEFE",
"vX c gray100",
"bX c None",
"nX c black",
"mX c black",
"MX c black",
"NX c black",
"BX c black",
"VX c black",
"CX c black",
"ZX c black",
"AX c black",
"SX c black",
"DX c black",
"FX c black",
"GX c black",
"HX c black",
"JX c black",
"KX c black",
"LX c black",
"PX c black",
"IX c black",
"UX c black",
/* pixels */
"bXbXbXbXbXbXbXbXbXbXbXbXbXbXbXbXbXbXbXbXbXbXbXbXbXbXbXbXbXbXbXbX",
"bXbXbXbXbXbXbXbXbXbXbXbXbXbXbXbXbXbXbXbXbXbXbXbXbXbXbXbXbXbXbXbX",
"bXbXbXbXbXbXbXbXbXbXbXbXbXbXbXbXbXbXbXbXbXbXbXbXbXbXbXbXbXbXbXbX",
"bXbXbXbXbXbXbXbXbXbXbXbXbXbXbXbXbXbXbXbXbXbXbXbXbXbXbXbXbXbXbXbX",
"bXbXbXbXbXbXbXbXbXbXbXbXbXbXbXbXbXbXbXbXbXbXbXbXbXbXbXbXbXbXbXbX",
"bXbXbXZ.s.s.s.s.s.s.s.s.s.s.s.s.s.s.s.s.s.s.s.s.s.s.s.s.B.'.bXbX",
"bXbX&.5 #. .&.&.z.z.z.z.z.z.z.z.z.z.z.z.z.z.z.z.z.z.z.w.( 2 bXbX",
"bXbX0 #.( ~ R ( w.w.w.w.w.w.w.a.w.w.w.w.w.w.w.w.w.w.w...( 1 bXbX",
"bXbX8 U 4.a.a.a.a.s.a.a.a.a.a.a.a.z.a.a.a.z.a.z.a.a.z.a.~ : bXbX",
"bXbX8 7 jXkXjXjXkXzXzXzXzXzXzXzXzXzXzXzXzXzXzXzXzXzXzXzX8.: bXbX",
"bXbX~ U 6XuXrXrXrXuXuXuXuXuXrXuXuXuXuXhXuXlXuXuXzXuXzXuXr., bXbX",
"bXbX) Q :X1X:X1X1X1X1X1X1X1X6X1XrXrX1XwX1XwXwXwXrXwXuXrX9.< bXbX",
"bXbX) ~ *X*X*X*X*X*X*X*X*X-X:X:X=X=X=X:X=X:X:X:X:X:X:X1X9.3 bXbX",
"bXbX..[ %X%X%X%X%X%X%X%X%X%X%X%X*X*X%X*X%X%X%X=X*X*X*X=Xr.U bXbX",
"bXbX..{ }.XXXX|.XX|.XXXXXXXXXXXX#X%X%X%X%X%XXX%X%X%X%X%Xr.U bXbX",
"bXbXO.X.}.}.}.}.}.}.|.|.|.|.|.|.}.|.|.}.|.|.|.%X|.|.|.XXg.Q bXbX",
"bXbX1.1./.].].}.].].].].].].}.}.}.].].].|.|.|.}.}.}.].{.0.~ bXbX",
"bXbX2.0.v.z.z.b.z.z.M.z.z.z.z.b.z.z.z.M.z.M.z.z.v.z.z.z.9.} bXbX",
"bXbX4.6.uXzXlXlXlXzXlXzXlXzXlXzXzXzXzXzXzXzXlX+XA.c J.5XE.1.bXbX",
"bXbX8.v.uXkXkXkXkXlXkXkXkXlXkXkXzXlXlXzXlX6Xi # - f - + a 2.bXbX",
"bXbXr.b.rXrXaXwXrXrXaXaXaXaXaXaXkXkXaXaXwXe = b >.<.>.v # * bXbX",
"bXbXa.M.wXwXwXwXwXwXeXeXaXaXrXaXrXrXwXwX>.$ D G.H.H.H.H.m   I.bX",
"bXbXv.M.7X7XwX7XwXwXwXwXwX7XrXrXwXwXwXwXw D F.D x D.K.F.G d l bX",
"bXbXz.R.7X7X7X7X7X7XwX7XrX,X7X,XwX7X7X7Xr F n OXzXzXzX_.y F u bX",
"bXbXn.Q.1X7X7X=X7X7X;X7X7X7X;X,X7X7X7XwXt I Y.zXzXzXzX,.B A p bX",
"bXbXM.Q.%X=X;X;X;X=X;X;X;X;X;X;X=X;X;X=Xp S K oXzXzXzXj S h -.bX",
"bXbXV.b.T.T.T.M.T.T.b.b.M.T.T.T.T.M.M.M.o.% L L U.zXU.L S % '.bX",
"bXbXbX(.Z.!.!.Z.Z./.Z.^.Z.Z.Z.!.!.Z.^.Z.Z.v o M A k B h O L.bXbX",
"bXbXbXbXbXbXbXbXbXbXbXbXbXbXbXbXbXbXbXbXbX'.f.& X . O - ^.'.bXbX",
"bXbXbXbXbXbXbXbXbXbXbXbXbXbXbXbXbXbXbX}.^.d.=.` 0 4 5 ( #.w.Z.).",
"bXbXbXbXbXbXbXbXbXbXbXbXbXbXbXbXbXbXbXbXbXbXbX'.).'.'.'.'.bXbXbX",
"bXbXbXbXbXbXbXbXbXbXbXbXbXbXbXbXbXbXbXbXbXbXbXbXbXbXbXbXbXbXbXbX"
};
