/* XPM */
static char *view_bottom[] = {
/* columns rows colors chars-per-pixel */
"32 32 128 2",
"   c #60B51C",
".  c #68AD2F",
"X  c #6ABD21",
"o  c #69B62B",
"O  c #6EB535",
"+  c #70B535",
"@  c #74C029",
"#  c #75B442",
"$  c #7EBA46",
"%  c #7DB350",
"&  c #95DF36",
"*  c #91E231",
"=  c #9CEA39",
"-  c #8AB865",
";  c #89BB6D",
":  c #95BC75",
">  c #9ABC7E",
",  c #82C54C",
"<  c #89C94E",
"1  c #91D648",
"2  c #84C154",
"3  c #95D15E",
"4  c #A2DB58",
"5  c #A8DD5F",
"6  c #A8EF44",
"7  c #A7E74A",
"8  c #ABEF4A",
"9  c #AEF346",
"0  c #AEF248",
"q  c #B5F44F",
"w  c #B7F352",
"e  c #91CE60",
"r  c #94C66B",
"t  c #9CC977",
"y  c #9AC779",
"u  c #98C97A",
"i  c #A4DE6C",
"p  c #A7DD74",
"a  c #A6D87F",
"s  c #B2ED6F",
"d  c #B5F167",
"f  c #ADE478",
"g  c #B1EA79",
"h  c #9CBC81",
"j  c #A5A9B3",
"k  c #A7ABB9",
"l  c #AAAEBB",
"z  c #AEB3BF",
"x  c #B3B5BB",
"c  c #B7B8BE",
"v  c gray73",
"b  c #A8D186",
"n  c #B0DE88",
"m  c #AAC693",
"M  c #B5D695",
"N  c #BBDD97",
"B  c #B3D399",
"V  c #B7DC9A",
"C  c #B9DE9C",
"Z  c #B5E38C",
"A  c #BAEF8B",
"S  c #BAE790",
"D  c #BEE89D",
"F  c #B9CDAC",
"G  c #C0D5AF",
"H  c #C5EBA0",
"J  c #D0EAAC",
"K  c #D7ECBA",
"L  c #DBF5BA",
"P  c #B2B6C3",
"I  c #B5B9C4",
"U  c #BBBDC3",
"Y  c #B6BAC8",
"T  c #B9BECC",
"R  c #BEC0C3",
"E  c #BEC1CA",
"W  c #BBC8C8",
"Q  c #BCC1D0",
"!  c gray76",
"~  c #C3C5CB",
"^  c #C9CACC",
"/  c #D3DACD",
"(  c #C3C7D4",
")  c #C5C9D4",
"_  c #CCCED3",
"`  c #C6CBDB",
"'  c #C8CEDE",
"]  c #CFD1D6",
"[  c #CDD1DB",
"{  c #D3D3D6",
"}  c #D3D4DA",
"|  c #D7D8DE",
" . c #DDDEDE",
".. c #D9E5CF",
"X. c #DEF3C3",
"o. c #DAE0D4",
"O. c #DFEED1",
"+. c #E1E3DF",
"@. c #E2F7D1",
"#. c #E8F2DF",
"$. c #CACFE0",
"%. c #CED3E3",
"&. c #D5D8E1",
"*. c #DDDEE2",
"=. c #E3E4E5",
"-. c #E4E6ED",
";. c #E6E9EE",
":. c #E9EAED",
">. c #EFFAE6",
",. c #F1F8EE",
"<. c #E6E8F1",
"1. c #ECEDF3",
"2. c #EFF0F6",
"3. c #EFF1F8",
"4. c #F2F3F6",
"5. c #F3F5F8",
"6. c #F7F8FA",
"7. c #FBFCFC",
"8. c None",
"9. c black",
"0. c black",
"q. c black",
"w. c black",
"e. c black",
"r. c black",
"t. c black",
"y. c black",
"u. c black",
/* pixels */
"8.8.8.8.8.8.8.8.8.8.8.8.8.8.8.8.8.8.8.8.8.8.8.8.8.8.8.8.8.8.8.8.",
"8.8.8.8.8.8.8.8.8.8.8.8.8.8.8.8.8.8.8.8.8.8.8.8.8.8.8.8.8.8.8.8.",
"8.8.8.8.8.8.8.8.8.8.8.8.8.8.8.8.8.8.8.8.8.8.8.8.8.8.8.8.8.8.8.8.",
"8.8.8.8.8.8.8.8.8.8.8.8.8.8.8.8.8.8.8.8.8.8.8.8.8.8.8.8.8.8.8.8.",
"8.8.8.8.8.8.8.8.8.8.8.8.8.8.8.8.8.8.8.8.8.8.8.8.8.8.8.8.8.8.8.8.",
"8.8.8. .{ { { { { { { { { { { { { { { { { { { { { { { { } :.8.8.",
"8.8.^ x ^ ^ ^ ^ { } } { } } { } | { { { } { } { } } } _ R x 8.8.",
"8.8.c ~ R U U U _ _ { _ _ { _ _ _ { _ { _ { _ { _ { ] ! R x 8.8.",
"8.8.c P ^ { ] ] ] ] ] ] { { _ { _ { ] { ] { { ] { ] { _ I j 8.8.",
"8.8.c z 6.7.7.7.7.7.7.7.7.7.7.7.7.7.7.7.7.7.7.7.7.7.7.7._ j 8.8.",
"8.8.U P 4.6.6.5.6.6.5.6.6.6.6.6.6.6.6.6.6.7.7.6.7.7.6.7._ k 8.8.",
"8.8.U P 4.4.4.4.4.4.4.4.4.4.4.4.5.5.6.5.4.4.5.6.5.6.5.6.) l 8.8.",
"8.8.U Y 1.1.4.1.1.1.4.1.4.4.4.4.4.4.1.4.4.4.4.4.4.4.4.4.) l 8.8.",
"8.8.E Y 1.1.1.1.1.:.1.1.:.:.1.1.1.1.1.1.1.1.:.1.1.1.1.1.) P 8.8.",
"8.8.E T ;.;.1.;.:.;.;.;.:.1.;.;.1.;.:.1.:.1.1.;.:.1.1.1.) P 8.8.",
"8.8.~ T -.-.-.-.:.:.:.-.;.;.;.;.-.:.:.:.;.;.;.1.;.:.;.1.) I 8.8.",
"8.8.~ Q *.-.-.-.-.-.-.-.-.-.-.-.-.-.-.-.-.-.-.-.-.-.:.-.( Y 8.8.",
"8.8.( ( [ [ [ } [ [ [ } } [ } } } } } [ } } } } } } } [ ( Q 8.8.",
"8.8.) ( 7.7.7.7.7.7.7.7.7.7.7.7.7.7.7.7.7.7.7.@.n b D >.&.T 8.8.",
"8.8.) ` 6.6.6.6.7.7.7.6.6.7.6.7.7.7.7.7.7.,.e % h m h # u Q 8.8.",
"8.8._ ` 5.6.6.6.6.6.6.6.6.6.6.6.7.5.6.7.4., : B V D C B % ; 8.8.",
"8.8._ ' 5.5.5.5.4.5.5.5.5.5.5.5.5.5.5.5.C % Z A A A A A n . o.8.",
"8.8.[ %.3.5.5.5.3.5.5.3.5.5.3.3.5.5.5.5.2 f g i p Z H S g 3 b 8.",
"8.8.[ %.2.2.3.3.3.5.3.3.3.3.3.3.5.3.3.5., s M >.7.7.7.O.1 s r 8.",
"8.8.%.%.2.3.3.1.3.3.3.3.3.3.3.3.3.3.3.5.< d L 7.7.7.7.D = 8 t 8.",
"8.8.} %.<.1.3.1.1.1.1.1.1.1.1.1.1.3.1.1.t 9 q X.7.7.7.4 9 & G 8.",
"8.8.| ` $.$.$.$.' ' ' ' $.$.$.$.$.$.' ' W X w w J 7.K q 0 $ :.8.",
"8.8.8.=.*.*.*.&.*.*.*.*.*.*.*.*.*.&.*.*.=.F X = q 5 7 * + o.8.8.",
"8.8.8.8.8.8.8.8.8.8.8.8.8.8.8.8.8.8.8.8.8.:./ - .   + h +.:.8.8.",
"8.8.8.8.8.8.8.8.8.8.8.8.8.8.8.8.8.8.8.:.+. .^ ! v x c G ^ { +.=.",
"8.8.8.8.8.8.8.8.8.8.8.8.8.8.8.8.8.8.8.8.8.8.8.:.:.:.:.:.:.8.8.8.",
"8.8.8.8.8.8.8.8.8.8.8.8.8.8.8.8.8.8.8.8.8.8.8.8.8.8.8.8.8.8.8.8."
};
